<svg xmlns="http://www.w3.org/2000/svg" viewBox="0 0 72.83 88.37"><defs><style>.cls-1{font-size:8.39px;}.cls-1,.cls-2,.cls-3{fill:#fff;}.cls-1,.cls-2{font-family:iCielCenturyGothicPro-Bold, iCiel Century Gothic Pro;font-weight:700;}.cls-2{font-size:8.39px;}</style></defs><g id="Layer_2" data-name="Layer 2"><g id="Layer_1-2" data-name="Layer 1"><text class="cls-1" transform="translate(9.69 39.82) rotate(-61.32)">G</text><text class="cls-1" transform="matrix(0.67, -0.74, 0.74, 0.67, 13.89, 32.75)">E</text><text class="cls-1" transform="matrix(0.79, -0.61, 0.61, 0.79, 17.78, 28.69)">T</text><text class="cls-1" transform="translate(21.7 25.84) rotate(-29.44)"> </text><text class="cls-1" transform="translate(24.94 24.1) rotate(-22.24)">I</text><text class="cls-1" transform="matrix(0.98, -0.2, 0.2, 0.98, 28.26, 22.68)">N</text><text class="cls-1" transform="translate(35.6 21.5) rotate(-0.6)"> </text><text class="cls-1" transform="translate(39.25 21.52) rotate(7.62)">T</text><text class="cls-1" transform="matrix(0.94, 0.35, -0.35, 0.94, 43.98, 22.09)">O</text><text class="cls-1" transform="matrix(0.82, 0.57, -0.57, 0.82, 51.59, 25.17)">U</text><text class="cls-1" transform="translate(56.95 28.96) rotate(48.64)">C</text><text class="cls-1" transform="translate(61.9 34.88) rotate(62.72)">H</text><text class="cls-2" transform="translate(64.82 60.86) rotate(116.67)">G</text><text class="cls-2" transform="matrix(-0.64, 0.76, -0.76, -0.64, 60.86, 68.08)">E</text><text class="cls-2" transform="matrix(-0.77, 0.64, -0.64, -0.77, 57.13, 72.28)">T</text><text class="cls-2" transform="matrix(-0.85, 0.52, -0.52, -0.85, 53.32, 75.26)"> </text><text class="cls-2" transform="matrix(-0.91, 0.41, -0.41, -0.91, 50.13, 77.12)">I</text><text class="cls-2" transform="matrix(-0.97, 0.23, -0.23, -0.97, 46.87, 78.66)">N</text><text class="cls-2" transform="translate(39.57 80.09) rotate(177.38)"> </text><text class="cls-2" transform="matrix(-1, -0.1, 0.1, -1, 35.91, 80.21)">T</text><text class="cls-2" transform="matrix(-0.95, -0.31, 0.31, -0.95, 31.18, 79.81)">O</text><text class="cls-2" transform="translate(23.46 76.99) rotate(-147.27)">U</text><text class="cls-2" transform="matrix(-0.69, -0.73, 0.73, -0.69, 17.98, 73.38)">C</text><text class="cls-2" transform="translate(12.82 67.65) rotate(-119.23)">H</text><circle class="cls-3" cx="5.99" cy="51.37" r="1.75"/><circle class="cls-3" cx="68.14" cy="51.37" r="1.75"/></g></g></svg>