<svg width="60" height="60" viewBox="0 0 60 60" fill="none" xmlns="http://www.w3.org/2000/svg">
<path d="M39.9844 28.8819C39.4324 28.8819 38.9845 28.4341 38.9845 27.882C38.9845 25.077 37.8924 22.441 35.9094 20.4569C35.5185 20.066 35.5185 19.4341 35.9094 19.043C36.3003 18.652 36.9324 18.652 37.3233 19.043C39.6845 21.4039 40.9844 24.5431 40.9844 27.882C40.9844 28.4341 40.5365 28.8819 39.9844 28.8819Z" fill="white"/>
<path d="M19.9843 28.8819C19.4324 28.8819 18.9844 28.4341 18.9844 27.882C18.9844 24.5431 20.2844 21.4039 22.6454 19.043C23.0363 18.652 23.6684 18.652 24.0593 19.043C24.4504 19.4341 24.4504 20.066 24.0593 20.4569C22.0763 22.4399 20.9844 25.077 20.9844 27.882C20.9844 28.4341 20.5364 28.8819 19.9843 28.8819Z" fill="white"/>
<path d="M39.3635 34.9131C37.8514 33.635 36.9844 31.767 36.9844 29.788V27C36.9844 23.4811 34.3704 20.5681 30.9844 20.0801V18.9999C30.9844 18.447 30.5364 18 29.9845 18C29.4324 18 28.9844 18.447 28.9844 18.9999V20.0801C25.5975 20.5681 22.9844 23.4811 22.9844 27V29.788C22.9844 31.767 22.1174 33.635 20.5965 34.921C20.2074 35.254 19.9844 35.738 19.9844 36.2499C19.9844 37.2151 20.7693 38.0001 21.7345 38.0001H38.2345C39.1995 38.0001 39.9844 37.2151 39.9844 36.2499C39.9844 35.738 39.7614 35.254 39.3635 34.9131V34.9131Z" fill="white"/>
<path d="M29.9846 42C31.7955 42 33.3105 40.7089 33.6586 39H26.3105C26.6584 40.7089 28.1735 42 29.9846 42Z" fill="white"/>
</svg>
