<svg width="39" height="39" viewBox="0 0 39 39" fill="none" xmlns="http://www.w3.org/2000/svg">
<path d="M19.4943 0C16.6243 0.00165867 13.792 0.653302 11.2098 1.90603C8.62766 3.15875 6.36278 4.98003 4.58511 7.23318C2.80744 9.48633 1.56316 12.1128 0.945637 14.9156C0.328114 17.7183 0.353394 20.6246 1.01958 23.4162C1.68576 26.2078 2.97554 28.8122 4.79214 31.0341C6.60874 33.256 8.90497 35.0376 11.5085 36.2452C14.1121 37.4528 16.9553 38.0551 19.8249 38.0068C22.6945 37.9585 25.5158 37.261 28.0773 35.9665L28.3647 35.8121L37.0238 37.9739C37.1904 38.0158 37.3642 38.021 37.533 37.9893C37.7019 37.9575 37.8619 37.8895 38.0019 37.7899C38.1419 37.6903 38.2587 37.5615 38.3441 37.4124C38.4295 37.2633 38.4816 37.0974 38.4966 36.9262V36.7314L38.4634 36.5343L36.3016 27.8776L36.4513 27.5925C37.5384 25.4525 38.2076 23.1248 38.423 20.7342L38.4824 19.8267L38.499 19.0048C38.499 13.9644 36.4967 9.13045 32.9327 5.56636C29.3686 2.00228 24.5346 0 19.4943 0ZM19.4943 2.37559C22.3961 2.37512 25.2476 3.13404 27.7654 4.57692C30.2831 6.0198 32.3794 8.09641 33.846 10.6004C35.3126 13.1044 36.0985 15.9486 36.1254 18.8503C36.1524 21.7521 35.4195 24.6104 33.9996 27.1412C33.8894 27.338 33.8375 27.5621 33.85 27.7873L33.8832 28.0106L35.6792 35.1873L28.4954 33.3961C28.3494 33.3601 28.1978 33.352 28.0488 33.3723L27.8326 33.4222L27.6259 33.5149C25.4087 34.7562 22.9365 35.4728 20.3991 35.6097C17.8617 35.7467 15.3268 35.3004 12.9888 34.305C10.6508 33.3096 8.57204 31.7916 6.91211 29.8677C5.25218 27.9437 4.05524 25.665 3.41321 23.2064C2.77117 20.7478 2.70112 18.1747 3.20842 15.6848C3.71573 13.1949 4.7869 10.8544 6.33969 8.843C7.89247 6.83159 9.88556 5.20278 12.1659 4.08165C14.4463 2.96052 16.9532 2.3769 19.4943 2.37559ZM18.3065 21.3804C18.0097 21.3798 17.7234 21.4904 17.504 21.6904C17.2847 21.8904 17.1482 22.1652 17.1213 22.4608C17.0945 22.7564 17.1794 23.0514 17.3591 23.2876C17.5389 23.5237 17.8006 23.6841 18.0927 23.7369L18.3065 23.7559H25.4333C25.7301 23.7565 26.0163 23.6459 26.2357 23.4459C26.455 23.2459 26.5916 22.9711 26.6184 22.6755C26.6452 22.3799 26.5604 22.0849 26.3806 21.8487C26.2008 21.6126 25.9391 21.4522 25.6471 21.3994L25.4333 21.3804H18.3065ZM13.5553 14.2536C13.2585 14.253 12.9722 14.3636 12.7528 14.5636C12.5335 14.7636 12.397 15.0384 12.3702 15.334C12.3433 15.6296 12.4282 15.9246 12.6079 16.1608C12.7877 16.397 13.0494 16.5573 13.3415 16.6102L13.5553 16.6292H25.4333C25.7301 16.6297 26.0163 16.5191 26.2357 16.3191C26.455 16.1192 26.5916 15.8443 26.6184 15.5487C26.6452 15.2531 26.5604 14.9581 26.3806 14.722C26.2008 14.4858 25.9391 14.3255 25.6471 14.2726L25.4333 14.2536H13.5553Z" fill="white"/>
</svg>
