<svg width="60" height="60" viewBox="0 0 60 60" fill="none" xmlns="http://www.w3.org/2000/svg">
<circle cx="30" cy="30" r="30" fill="#B70004"/>
<path d="M39.9844 28.882C39.4324 28.882 38.9845 28.4341 38.9845 27.8821C38.9845 25.0771 37.8924 22.4411 35.9094 20.457C35.5185 20.066 35.5185 19.4341 35.9094 19.043C36.3003 18.6521 36.9324 18.6521 37.3233 19.043C39.6845 21.404 40.9844 24.5431 40.9844 27.8821C40.9844 28.4341 40.5365 28.882 39.9844 28.882Z" fill="white"/>
<path d="M19.9843 28.882C19.4324 28.882 18.9844 28.4341 18.9844 27.8821C18.9844 24.5431 20.2844 21.404 22.6454 19.043C23.0363 18.6521 23.6684 18.6521 24.0593 19.043C24.4504 19.4341 24.4504 20.066 24.0593 20.457C22.0763 22.44 20.9844 25.0771 20.9844 27.8821C20.9844 28.4341 20.5364 28.882 19.9843 28.882Z" fill="white"/>
<path d="M39.3633 34.9131C37.8512 33.635 36.9842 31.767 36.9842 29.788V27C36.9842 23.4811 34.3702 20.5681 30.9842 20.0801V18.9999C30.9842 18.447 30.5361 18 29.9843 18C29.4322 18 28.9841 18.447 28.9841 18.9999V20.0801C25.5972 20.5681 22.9841 23.4811 22.9841 27V29.788C22.9841 31.767 22.1171 33.635 20.5963 34.921C20.2072 35.254 19.9841 35.738 19.9841 36.2499C19.9841 37.2151 20.7691 38.0001 21.7343 38.0001H38.2343C39.1992 38.0001 39.9842 37.2151 39.9842 36.2499C39.9842 35.738 39.7612 35.254 39.3633 34.9131Z" fill="white"/>
<path d="M29.9843 42C31.7952 42 33.3102 40.7089 33.6583 39H26.3103C26.6582 40.7089 28.1732 42 29.9843 42Z" fill="white"/>
</svg>
