<svg width="121" height="124" viewBox="0 0 121 124" fill="none" xmlns="http://www.w3.org/2000/svg">
<path d="M11.4361 29.3363C12.1739 29.6855 12.9117 30.2094 13.2806 30.7333C13.834 31.2571 14.0184 31.781 14.2029 32.4795C14.3873 33.1779 14.3873 33.7018 14.3873 34.4003C14.2029 35.0988 14.0184 35.7972 13.6495 36.4957C13.0962 37.3688 12.5428 37.8927 11.9895 38.4166C11.2517 38.9404 10.6983 39.2897 9.96053 39.4643C9.22272 39.6389 8.48492 39.8135 7.74712 39.6389C7.00932 39.6389 6.27152 39.2897 5.53372 38.9404C4.79592 38.5912 4.24257 38.0673 3.87367 37.5434C3.32032 37.0196 3.13587 36.3211 2.76697 35.6226C2.58252 34.9241 2.58252 34.2257 2.58252 33.5272C2.58252 32.8287 2.95142 31.9556 3.32032 31.2571C3.87367 30.384 4.42702 29.6855 5.16482 29.1617C5.90262 28.6378 6.64042 28.2886 7.74712 27.9393L8.11602 28.9871C7.19377 29.1617 6.45597 29.5109 5.90262 30.0348C5.34927 30.5586 4.79592 31.0825 4.42702 31.6064C4.05812 32.1302 3.87367 32.6541 3.87367 33.3526C3.87367 33.8764 3.87367 34.5749 4.05812 35.0988C4.24257 35.6226 4.42702 36.1465 4.79592 36.6703C5.16482 37.1942 5.71817 37.5434 6.27152 37.8927C6.82487 38.2419 7.37822 38.4166 8.11602 38.4166C8.66937 38.4166 9.40718 38.4165 9.96053 38.2419C10.5139 38.0673 11.0672 37.7181 11.6206 37.3688C12.1739 37.0196 12.5428 36.4957 12.9117 35.7972C13.0962 35.448 13.2806 34.9241 13.4651 34.4003C13.6495 33.8764 13.6495 33.5272 13.4651 33.0033C13.4651 32.4795 13.2806 32.1302 12.9117 31.6064C12.7273 31.2571 12.3584 30.9079 11.805 30.5586L10.145 33.5272L9.22272 33.0033L11.4361 29.3363Z" fill="#fff"/>
<path d="M15.1246 17.1129L15.8624 17.8113L12.3578 21.4784L14.9401 23.7484L18.4447 20.0814L19.1825 20.7799L15.6779 24.4469L18.8136 27.2408L22.3181 23.5738L23.0559 24.2723L18.8136 28.6378L10.6978 21.4784L15.1246 17.1129Z" fill="#fff"/>
<path d="M18.998 13.9697L23.7938 10.4773L24.5316 11.3504L22.5026 12.7474L28.5895 20.256L27.6672 20.9545L21.5803 13.4458L19.5514 14.8428L18.998 13.9697Z" fill="#fff"/>
<path d="M36.8904 4.01636L40.9483 13.7951L39.8416 14.1443L35.7837 4.3656L36.8904 4.01636Z" fill="#fff"/>
<path d="M43.3462 1.92082H43.5306L52.3843 8.38177L50.7242 0.523863L51.8309 0.349243L54.0443 10.4772H53.8599L45.0062 4.01627L46.6663 11.8742L45.5596 12.2234L43.3462 1.92082Z" fill="#fff"/>
<path d="M66.2177 0L72.3045 0.698483L72.1201 1.74621L69.7222 1.39697L68.2466 10.8265L67.1399 10.6519L68.4311 1.22234L66.0332 0.873103L66.2177 0Z" fill="#fff"/>
<path d="M83.3721 3.49243C84.1099 3.84167 84.8477 4.19091 85.4011 4.71477C85.9544 5.23863 86.5078 5.76249 86.6922 6.46098C87.0611 7.15946 87.2456 7.85794 87.2456 8.55642C87.2456 9.2549 87.2456 9.95338 86.8767 10.8265C86.5078 11.525 86.1389 12.2234 85.5855 12.7473C85.0322 13.2712 84.4788 13.6204 83.741 13.9697C83.0032 14.3189 82.2654 14.4935 81.5276 14.4935C80.7898 14.4935 80.052 14.3189 79.1298 14.1443C78.392 13.795 77.6542 13.4458 77.1008 12.9219C76.5475 12.3981 76.1786 11.8742 75.8097 11.1757C75.4408 10.4772 75.6252 9.60414 75.6252 8.90566C75.6252 8.20718 75.8097 7.5087 75.9941 6.81022C76.363 6.11174 76.7319 5.41325 77.2853 4.88939C77.8386 4.36553 78.392 4.01629 79.1298 3.66705C79.8676 3.31781 80.6054 3.14319 81.3432 3.14319C81.8965 3.14319 82.6343 3.14319 83.3721 3.49243ZM83.1877 4.36553C82.6343 4.19091 82.081 4.01629 81.3432 4.01629C80.7898 4.01629 80.2365 4.19091 79.6831 4.36553C79.1298 4.54015 78.5764 4.88939 78.2075 5.41325C77.8386 5.93711 77.4697 6.46098 77.1008 6.98484C76.9164 7.5087 76.7319 8.20718 76.7319 8.73104C76.7319 9.2549 76.9164 9.95338 77.1008 10.4772C77.2853 11.0011 77.6542 11.525 78.2075 11.8742C78.5764 12.2234 79.1298 12.5727 79.6831 12.7473C80.2365 12.9219 80.9743 13.0966 81.5276 13.0966C82.081 13.0966 82.8188 12.9219 83.1877 12.7473C83.9255 12.5727 84.4788 12.2234 84.8477 11.8742C85.2166 11.3503 85.5855 10.8265 85.9544 10.3026C86.1389 9.60414 86.3233 9.08028 86.3233 8.3818C86.3233 7.85794 86.1389 7.15946 85.9544 6.6356C85.77 6.11174 85.4011 5.58787 84.8477 5.23863C84.1099 4.88939 83.741 4.71477 83.1877 4.36553Z" fill="#fff"/>
<path d="M101.263 13.0966L97.0208 18.6845C96.283 19.7322 95.3608 20.256 94.4385 20.6053C93.5163 20.7799 92.594 20.6053 91.6718 19.9068C90.7495 19.2083 90.1962 18.5098 90.0117 17.6367C90.0117 16.7636 90.3806 15.7159 91.1184 14.6682L95.3608 9.08038L96.283 9.60424L92.2251 15.0174C92.0407 15.3667 91.6718 15.7159 91.4873 16.0652C91.3029 16.4144 91.3029 16.7636 91.3029 17.2875C91.3029 17.986 91.6718 18.5098 92.4096 19.0337C93.1474 19.5576 93.8852 19.5576 94.623 19.3829C94.9919 19.2083 95.3608 19.0337 95.7297 18.8591C95.9141 18.5098 96.283 18.3352 96.4675 17.986L100.525 12.5728L101.263 13.0966Z" fill="#fff"/>
<path d="M111.04 26.3677C111.224 25.6692 111.224 24.9707 111.04 24.2723C110.855 23.5738 110.486 23.0499 109.933 22.3514C109.564 21.8276 109.011 21.4783 108.457 21.3037C107.904 20.9545 107.351 20.7798 106.797 20.7798C106.244 20.7798 105.506 20.7798 104.953 20.9545C104.399 21.1291 103.846 21.4783 103.293 21.8276C102.739 22.1768 102.37 22.7007 102.001 23.2245C101.633 23.7484 101.633 24.2723 101.448 24.9707C101.448 25.4946 101.448 26.1931 101.633 26.7169C101.817 27.2408 102.186 27.7647 102.555 28.2885C103.477 29.3363 104.953 30.0347 106.428 30.0347V31.0825C105.506 31.0825 104.584 30.9078 103.846 30.5586C103.108 30.2094 102.37 29.6855 101.633 28.987C101.079 28.2885 100.526 27.59 100.341 26.8916C100.157 26.1931 99.9725 25.4946 100.157 24.7961C100.157 24.0976 100.526 23.3992 100.895 22.8753C101.264 22.1768 101.817 21.6529 102.37 21.1291C102.924 20.6052 103.662 20.256 104.399 20.0814C105.137 19.9067 105.875 19.7321 106.613 19.9067C107.351 19.9067 108.088 20.256 108.826 20.6052C109.564 20.9545 110.117 21.4783 110.671 22.0022C111.408 22.7007 111.777 23.5738 111.962 24.4469C112.146 25.32 112.146 26.1931 111.962 27.0662L111.04 26.3677Z" fill="#fff"/>
<path d="M118.048 32.1302L113.806 34.0511L116.204 38.9404L120.446 37.0196L121 37.8927L111.039 42.4329L110.486 41.5597L115.282 39.2897L112.884 34.4003L108.088 36.6704L107.535 35.7973L117.495 31.2571L118.048 32.1302Z" fill="#fff"/>
<path d="M110.855 92.025C110.118 91.6757 109.38 91.1519 109.011 90.628C108.458 90.1041 108.089 89.5803 107.904 88.8818C107.72 88.1833 107.72 87.6594 107.72 86.961C107.72 86.2625 108.089 85.564 108.458 84.8655C108.826 83.9924 109.38 83.4686 110.118 82.9447C110.855 82.4208 111.409 82.0716 112.147 81.897C112.884 81.7224 113.622 81.5477 114.36 81.7224C115.098 81.897 115.836 81.897 116.573 82.2462C117.311 82.5955 117.864 82.9447 118.418 83.6432C118.971 84.167 119.34 84.8655 119.525 85.564C119.709 86.2625 119.893 86.961 119.709 87.6594C119.709 88.3579 119.34 89.231 118.971 89.9295C118.418 90.8026 117.864 91.5011 117.311 92.025C116.573 92.5488 115.836 92.8981 114.913 93.2473L114.36 92.1996C115.282 91.8503 115.836 91.5011 116.573 91.1519C117.127 90.628 117.68 90.1041 118.049 89.5803C118.418 89.0564 118.602 88.3579 118.602 87.8341C118.602 87.1356 118.602 86.6117 118.418 86.0879C118.233 85.564 118.049 85.0401 117.496 84.5163C117.127 83.9924 116.573 83.6432 116.02 83.2939C115.467 82.9447 114.913 82.9447 114.175 82.7701C113.438 82.5955 112.884 82.7701 112.331 82.9447C111.778 83.1193 111.224 83.4686 110.671 83.8178C110.118 84.167 109.749 84.6909 109.38 85.3894C109.195 85.9132 109.011 86.2625 108.826 86.7863C108.826 87.3102 108.826 87.6594 108.826 88.1833C108.826 88.7072 109.011 89.0564 109.38 89.4057C109.564 89.7549 109.933 90.1041 110.486 90.4534L112.147 87.4848L113.069 88.0087L110.855 92.025Z" fill="#fff"/>
<path d="M107.72 104.423L106.982 103.724L110.302 100.057L107.535 97.7874L104.215 101.454L103.293 100.931L106.797 97.2635L103.477 94.6442L100.157 98.3112L99.4194 97.6128L103.477 93.0726L111.962 99.8828L107.72 104.423Z" fill="#fff"/>
<path d="M103.846 107.741L99.0505 111.408L98.3127 110.535L100.157 109.138L94.0703 101.804L94.9926 101.105L101.264 108.439L103.293 106.868L103.846 107.741Z" fill="#fff"/>
<path d="M86.5079 118.218L82.0811 108.614L83.0033 108.265L87.4301 117.869L86.5079 118.218Z" fill="#fff"/>
<path d="M80.0524 120.663H79.8679L70.6454 114.376L72.6744 122.234L71.5676 122.409L68.9854 112.106H69.1698L78.2079 118.218L76.1789 110.535L77.2856 110.36L80.0524 120.663Z" fill="#fff"/>
<path d="M57.3652 123.282L51.2783 122.758L51.4628 121.71L53.8606 121.885L54.7829 112.456L55.8896 112.63L54.9673 122.06L57.5496 122.234L57.3652 123.282Z" fill="#fff"/>
<path d="M39.8426 120.313C39.1048 120.139 38.367 119.615 37.8136 119.266C37.2603 118.742 36.7069 118.218 36.338 117.519C35.9691 116.821 35.7847 116.297 35.7847 115.424C35.7847 114.726 35.7847 114.027 36.1536 113.154C36.338 112.455 36.7069 111.757 37.2603 111.233C37.8136 110.709 38.367 110.185 39.1048 110.011C39.8426 109.662 40.5804 109.487 41.3182 109.487C42.056 109.487 42.7938 109.487 43.716 109.836C44.4538 110.011 45.1916 110.535 45.745 110.884C46.2983 111.408 46.8517 111.932 47.0361 112.63C47.405 113.329 47.5895 113.852 47.5895 114.726C47.5895 115.424 47.5895 116.122 47.2206 116.821C47.0361 117.519 46.4828 118.218 46.1139 118.742C45.5605 119.266 45.0072 119.789 44.2694 119.964C43.5316 120.139 42.9782 120.488 42.056 120.488C41.3182 120.663 40.5804 120.663 39.8426 120.313ZM40.2115 119.44C40.7648 119.615 41.3182 119.615 42.056 119.615C42.6093 119.615 43.1627 119.44 43.716 119.266C44.2694 119.091 44.8227 118.742 45.1916 118.218C45.5605 117.694 45.9294 117.17 46.1139 116.646C46.2983 115.948 46.4828 115.424 46.2983 114.9C46.2983 114.376 46.1139 113.678 45.745 113.329C45.5605 112.805 45.1916 112.455 44.6383 111.932C44.2694 111.582 43.716 111.233 42.9782 111.059C42.4249 110.884 41.6871 110.709 41.1337 110.884C40.5804 110.884 40.027 111.059 39.4737 111.233C38.9203 111.408 38.367 111.757 37.9981 112.281C37.6292 112.805 37.2603 113.329 37.0758 113.852C36.8914 114.376 36.8914 114.9 36.8914 115.599C36.8914 116.122 37.0758 116.821 37.4447 117.345C37.8136 117.869 38.1825 118.218 38.5514 118.742C39.1048 118.916 39.6581 119.266 40.2115 119.44Z" fill="#fff"/>
<path d="M21.7661 111.233L25.824 105.471C26.5618 104.423 27.2996 103.724 28.4063 103.55C29.3286 103.375 30.2508 103.55 31.1731 104.074C32.0953 104.598 32.6487 105.471 32.8331 106.344C33.0176 107.217 32.6487 108.265 31.9109 109.312L27.853 115.075L26.9307 114.551L30.8042 108.963C30.9886 108.614 31.1731 108.265 31.3575 107.915C31.542 107.566 31.542 107.217 31.542 106.693C31.542 105.995 31.1731 105.471 30.4353 104.947C29.6975 104.423 28.9597 104.423 28.2219 104.598C27.853 104.772 27.4841 104.947 27.1152 105.296C26.7463 105.645 26.5618 105.82 26.3774 106.169L22.6884 111.757L21.7661 111.233Z" fill="#fff"/>
<path d="M11.4366 98.3113C11.2522 99.0098 11.2522 99.7082 11.6211 100.407C11.8055 101.105 12.1744 101.629 12.7278 102.328C13.0967 102.851 13.65 103.201 14.2034 103.375C14.7567 103.55 15.3101 103.724 16.0479 103.899C16.6012 103.899 17.339 103.899 17.8924 103.724C18.4457 103.55 18.9991 103.201 19.5525 102.677C20.1058 102.153 20.4747 101.804 20.6591 101.28C20.8436 100.756 21.028 100.232 21.028 99.5336C21.028 98.8351 21.028 98.3113 20.6591 97.7874C20.2902 97.2636 20.1058 96.7397 19.5525 96.2159C18.4457 95.1681 17.1546 94.6443 15.4945 94.6443L15.3101 93.5966C16.2323 93.5966 17.1546 93.5966 17.8924 93.9458C18.6302 94.295 19.5524 94.8189 20.1058 95.5174C20.6591 96.2159 21.2125 96.9143 21.397 97.6128C21.5814 98.3113 21.7659 99.0098 21.7659 99.7082C21.7659 100.407 21.5814 101.105 21.2125 101.804C20.8436 102.502 20.4747 103.026 19.7369 103.55C19.1835 104.074 18.4458 104.423 17.7079 104.772C16.9701 104.947 16.2323 105.121 15.4945 105.121C14.7567 105.121 14.0189 104.947 13.2811 104.598C12.5433 104.248 11.99 103.899 11.4366 103.201C10.6988 102.502 10.3299 101.629 9.96105 100.931C9.7766 100.057 9.59215 99.1844 9.7766 98.3113H11.4366Z" fill="#fff"/>
<path d="M4.24319 92.8981L8.48555 90.8026L5.90325 86.0879L1.84534 88.1833L1.29199 87.3102L11.0678 82.4208L11.6212 83.2939L6.64105 85.564L9.22335 90.2788L14.0191 87.8341L14.5724 88.7072L4.79654 93.5965L4.24319 92.8981Z" fill="#fff"/>
<path d="M3.13565 65.4826C4.86743 65.4826 6.27131 64.1535 6.27131 62.514C6.27131 60.8745 4.86743 59.5455 3.13565 59.5455C1.40388 59.5455 0 60.8745 0 62.514C0 64.1535 1.40388 65.4826 3.13565 65.4826Z" fill="#fff"/>
<path d="M117.865 65.4826C119.596 65.4826 121 64.1535 121 62.514C121 60.8745 119.596 59.5455 117.865 59.5455C116.133 59.5455 114.729 60.8745 114.729 62.514C114.729 64.1535 116.133 65.4826 117.865 65.4826Z" fill="#fff"/>
<ellipse cx="61" cy="61.6077" rx="7" ry="6.60767" fill="#fff"/>
</svg>
