<svg width="96" height="60" viewBox="0 0 96 60" fill="none" xmlns="http://www.w3.org/2000/svg">
<rect x="18" width="60" height="60" rx="30" fill="#B70004"/>
<circle cx="48" cy="30" r="30" fill="#B70004"/>
<path d="M57.9834 28.8819C57.4314 28.8819 56.9835 28.4341 56.9835 27.882C56.9835 25.077 55.8915 22.441 53.9084 20.4569C53.5175 20.066 53.5175 19.4341 53.9084 19.043C54.2994 18.652 54.9314 18.652 55.3224 19.043C57.6835 21.4039 58.9834 24.5431 58.9834 27.882C58.9834 28.4341 58.5355 28.8819 57.9834 28.8819Z" fill="white"/>
<path d="M37.9843 28.8819C37.4324 28.8819 36.9844 28.4341 36.9844 27.882C36.9844 24.5431 38.2844 21.4039 40.6454 19.043C41.0363 18.652 41.6684 18.652 42.0593 19.043C42.4504 19.4341 42.4504 20.066 42.0593 20.4569C40.0763 22.4399 38.9844 25.077 38.9844 27.882C38.9844 28.4341 38.5364 28.8819 37.9843 28.8819Z" fill="white"/>
<path d="M57.3635 34.9131C55.8514 33.635 54.9844 31.767 54.9844 29.788V27C54.9844 23.4811 52.3704 20.5681 48.9844 20.0801V18.9999C48.9844 18.447 48.5364 18 47.9845 18C47.4324 18 46.9844 18.447 46.9844 18.9999V20.0801C43.5975 20.5681 40.9844 23.4811 40.9844 27V29.788C40.9844 31.767 40.1174 33.635 38.5965 34.921C38.2074 35.254 37.9844 35.738 37.9844 36.2499C37.9844 37.2151 38.7693 38.0001 39.7345 38.0001H56.2345C57.1995 38.0001 57.9844 37.2151 57.9844 36.2499C57.9844 35.738 57.7614 35.254 57.3635 34.9131Z" fill="white"/>
<path d="M47.9846 42C49.7955 42 51.3105 40.7089 51.6586 39H44.3105C44.6584 40.7089 46.1735 42 47.9846 42Z" fill="white"/>
</svg>
