<?xml version="1.0" encoding="utf-8"?>
<!-- Generator: Adobe Illustrator 24.1.0, SVG Export Plug-In . SVG Version: 6.00 Build 0)  -->
<svg version="1.1" id="Layer_1" xmlns="http://www.w3.org/2000/svg" xmlns:xlink="http://www.w3.org/1999/xlink" x="0px" y="0px"
	 viewBox="0 0 120.2 36.9" style="enable-background:new 0 0 120.2 36.9;" xml:space="preserve">
<style type="text/css">
	.st0{fill:#B70004;}
</style>
<path d="M32.2,27v1.8c-0.8-0.7-1.8-1.1-2.8-1.1c-1,0-2,0.4-2.7,1.1c-0.7,0.7-1.1,1.7-1.1,2.8c0,1,0.4,2,1.1,2.7
	c0.7,0.7,1.7,1.1,2.7,1.1c0.5,0,1-0.1,1.4-0.3c0.2-0.1,0.5-0.2,0.7-0.4c0.3-0.2,0.5-0.3,0.7-0.5v1.9c-0.9,0.5-1.8,0.7-2.8,0.8
	c-2.9,0-5.3-2.3-5.3-5.2c0,0,0-0.1,0-0.1c0-1.3,0.5-2.5,1.3-3.5c1-1.2,2.5-1.9,4.1-1.9C30.4,26.2,31.3,26.5,32.2,27z"/>
<path d="M43.7,34.2h-4.4l-1.2,2.5h-1.7l5.1-10.9l4.9,10.9h-1.7L43.7,34.2z M43,32.8l-1.5-3.5l-1.6,3.5L43,32.8z"/>
<path d="M52.5,32.5v4.2H51V26.4h1.8c0.7,0,1.3,0,2,0.2c0.4,0.1,0.8,0.4,1.2,0.7c0.6,0.6,0.9,1.4,0.9,2.2c0,0.9-0.3,1.7-0.9,2.2
	c-0.7,0.6-1.6,0.9-2.5,0.8H52.5z M52.5,31.1h0.6c1.4,0,2.1-0.5,2.1-1.6s-0.7-1.6-2.2-1.6h-0.5L52.5,31.1z"/>
<path d="M63.2,26.4v10.3h-1.5V26.4H63.2z"/>
<path d="M71.8,27.9v8.8h-1.6v-8.8h-2.4v-1.5h6.3v1.5H71.8z"/>
<path d="M84.2,34.2h-4.4l-1.2,2.5H77l5.1-10.9L87,36.7h-1.7L84.2,34.2z M83.6,32.8l-1.5-3.5l-1.6,3.5H83.6z"/>
<path d="M93.1,26.4v8.8h3v1.5h-4.6V26.4H93.1z"/>
<path d="M0,21.1L4.1,0l6.7,15.2l7-15.2l3.7,21.1h-3L16.6,9.2L10.8,22L5.2,9.2L3.1,21.1H0z"/>
<path d="M36.5,4.3h-7.9V9h7.6v2.8h-7.6v6.6h7.9v2.8H25.7V1.5h10.8V4.3z"/>
<path d="M43.4,9.3L51,1.5h4l-8.9,8.9L55,21.1h-4l-7-8.7L43.4,13v8.1h-3V1.5h3V9.3z"/>
<path d="M79.8,21.1v-21l14.3,15V1.5h3v20.8L82.8,7.4v13.7H79.8z"/>
<path d="M112.1,10.9h8.1v0.6c0,1.3-0.2,2.6-0.5,3.9c-0.4,1.1-0.9,2.1-1.7,3c-1.8,2-4.3,3.2-7,3.1c-2.6,0-5.2-1.1-7-3
	c-1.9-1.9-3-4.5-3-7.2c0-2.7,1-5.3,3-7.2c1.9-2,4.5-3,7.3-3c1.5,0,3,0.3,4.3,0.9c1.4,0.8,2.7,1.8,3.8,3l-2.1,2
	c-1.3-2-3.5-3.2-5.9-3.2c-2-0.1-3.9,0.7-5.2,2.1c-1.4,1.4-2.2,3.3-2.1,5.3c-0.1,2.1,0.8,4,2.3,5.4c1.3,1.3,3,2,4.8,2
	c1.4,0,2.8-0.5,3.9-1.5c1.1-0.9,1.8-2.2,2-3.6h-4.9L112.1,10.9z"/>
<path class="st0" d="M70.6,9.4c0,0-1.4,0.8,0.7,1.4s5.4,2.3,3.2,4.4c-2,1.8-7.8,3.1-10.6,6.8c0.8,0.2,1.6,0.3,2.5,0.3
	c6,0,10.8-4.8,10.8-10.8c0-1-0.1-1.9-0.4-2.8C74.7,8.5,72.6,8.8,70.6,9.4z"/>
<path class="st0" d="M65,14.8c5.2-0.3,6.6-1.6,4.4-2.7c-1-0.4-2-1-3-1.5C65.5,10,64.8,8.1,76.3,7C73.8,1.5,67.4-0.9,62,1.5
	s-7.9,8.8-5.5,14.3c0.2,0.4,0.4,0.9,0.7,1.3C59.6,15.8,62.2,15,65,14.8z"/>
</svg>
