<?xml version="1.0" standalone="no"?>
<!DOCTYPE svg PUBLIC "-//W3C//DTD SVG 1.1//EN" "http://www.w3.org/Graphics/SVG/1.1/DTD/svg11.dtd" >
<svg xmlns="http://www.w3.org/2000/svg" xmlns:xlink="http://www.w3.org/1999/xlink" version="1.1">
<metadata>
Created by FontForge 20190801 at Mon May 13 02:56:24 2019
 By Unknown
Copyright The Monotype Corporation. All rights reserved.
</metadata>
<defs>
<font id="iCielCenturyGothicPro-BoldIta" horiz-adv-x="640" >
  <font-face 
    font-family="iCiel Century Gothic Pro Bd It"
    font-weight="700"
    font-style="italic"
    font-stretch="normal"
    units-per-em="1000"
    panose-1="2 11 5 2 2 2 2 9 2 4"
    ascent="736"
    descent="-264"
    x-height="531"
    cap-height="718"
    bbox="-532 -234 1218 1089"
    underline-thickness="50"
    underline-position="-100"
    slope="-8.05"
    unicode-range="U+000D-FB04"
  />
<missing-glyph horiz-adv-x="500" 
d="M487 665v-665h-475v665h475zM411 618h-323l162 -243zM60 91l7 10t18 27t25.5 39t30.5 45q35 53 80 121l-161 242v-484zM440 90v485l-162 -242zM88 48h323l-161 242z" />
    <glyph glyph-name="f_f" unicode="ff" horiz-adv-x="557" 
d="M425 723q35 27 91 27q62 0 111 -32l-15 -106q-28 24 -62 24q-22 0 -36 -15q-13 -13 -24 -90h81l-14 -113h-81l-59 -418h-129l57 418h-141l-59 -418h-131l58 418h-54l15 113h55q20 123 83 170q64 49 144 49q62 0 110 -27zM369 595q-4 36 -55 36q-82 0 -94 -100h140z" />
    <glyph glyph-name="fi" unicode="fi" horiz-adv-x="520" 
d="M86 531q9 51 24.5 91t51.5 72q30 26 69 41.5t83 15.5q41 0 75 -11.5t58.5 -33t37.5 -51t13 -65.5h-130q-3 41 -56 41q-81 0 -94 -100h80l-16 -113h-80l-59 -418h-131l58 418h-54l15 113h55zM493 531l-75 -531h-131l75 531h131z" />
    <glyph glyph-name="fl" unicode="fl" horiz-adv-x="520" 
d="M87 531q5 36 14.5 69.5t32.5 64.5q30 41 77.5 63.5t103.5 22.5q42 0 76 -12.5t58 -34t36.5 -50.5t12.5 -63q0 -20 -2.5 -38.5t-4.5 -35.5l-73 -517h-131l78 554q1 6 2.5 15.5t1.5 16.5q0 23 -17 34t-40 11q-79 0 -94 -100h80l-15 -113h-81l-59 -418h-131l58 418h-54
l16 113h55z" />
    <glyph glyph-name="f_f_i" unicode="ffi" horiz-adv-x="794" 
d="M449 705q62 45 140 45q79 0 131 -43q53 -44 53 -117h-130q-5 41 -56 41q-81 0 -94 -100h80l-16 -113h-80l-60 -418h-130l58 418h-143l-59 -418h-131l58 418h-54l16 113h54q20 122 84 170q64 49 144 49t135 -45zM372 582q-6 49 -60 49q-81 0 -94 -100h143q3 17 6 30t5 21z
M768 531l-75 -531h-131l74 531h132z" />
    <glyph glyph-name="f_f_l" unicode="ffl" horiz-adv-x="795" 
d="M449 705q60 45 141 45q85 0 134 -46q50 -47 50 -110q0 -11 -2 -30t-6 -47l-73 -517h-131l78 554q3 23 3 31q0 46 -56 46q-79 0 -94 -100h80l-15 -113h-81l-60 -418h-130l58 418h-143l-59 -418h-131l58 418h-54l16 113h54q20 122 84 170q64 49 144 49q83 0 135 -45z
M370 576q-1 35 -18.5 45t-39.5 10q-81 0 -94 -100h144q2 16 4 27t4 18z" />
    <glyph glyph-name=".notdef" horiz-adv-x="500" 
d="M487 665v-665h-475v665h475zM411 618h-323l162 -243zM60 91l7 10t18 27t25.5 39t30.5 45q35 53 80 121l-161 242v-484zM440 90v485l-162 -242zM88 48h323l-161 242z" />
    <glyph glyph-name=".null" horiz-adv-x="0" 
 />
    <glyph glyph-name=".null" horiz-adv-x="0" 
 />
    <glyph glyph-name="nonmarkingreturn" unicode="&#xd;" horiz-adv-x="250" 
 />
    <glyph glyph-name="space" unicode=" " horiz-adv-x="280" 
 />
    <glyph glyph-name="exclam" unicode="!" horiz-adv-x="280" 
d="M261 736l-74 -524h-134l74 524h134zM104 151q34 0 58 -24t24 -58t-23.5 -58.5t-58.5 -24.5t-58.5 24.5t-23.5 58.5t24 58t58 24z" />
    <glyph glyph-name="quotedbl" unicode="&#x22;" horiz-adv-x="360" 
d="M68 490l-27 246h130l-27 -246h-76zM268 490l-26 246h130l-27 -246h-77z" />
    <glyph glyph-name="numbersign" unicode="#" horiz-adv-x="600" 
d="M542 234h-112l-35 -234h-98l34 234h-94l-34 -234h-97l34 234h-110v97h125l15 92h-109v97h122l32 216h95l-30 -216h93l32 216h98l-32 -216h99v-97h-113l-12 -92h97v-97zM265 423l-13 -92h93l15 92h-95z" />
    <glyph glyph-name="dollar" unicode="$" horiz-adv-x="560" 
d="M388 786l-9 -59q48 -13 80.5 -37t63.5 -62l-94 -74q-25 28 -53 47.5t-66 19.5q-17 0 -33 -6t-28.5 -16t-20 -23.5t-7.5 -29.5q0 -39 41 -64q50 -31 93 -59t75 -58.5t50.5 -68t18.5 -88.5q0 -63 -33 -116.5t-87 -81.5q-25 -13 -51 -19t-53 -8l-18 -128h-85l18 128
q-35 7 -63 18.5t-51.5 30.5t-43.5 45.5t-39 62.5l117 59q53 -102 142 -102q24 0 45.5 7.5t37.5 21.5t25.5 33t9.5 41q0 34 -22 61.5t-56 47.5q-48 27 -85 52t-62.5 51.5t-39 57t-13.5 68.5q0 37 14 71t40 61t63.5 44t85.5 19l8 53h85z" />
    <glyph glyph-name="percent" unicode="%" horiz-adv-x="860" 
d="M495 704q62 0 114 11t106 35h99l-683 -799h-99l584 686q-64 -13 -133 -13q-52 0 -100 6q2 -10 4 -22.5t2 -24.5q0 -37 -14 -71t-39 -60t-60 -42t-77 -16q-33 0 -61 11t-48.5 31t-31.5 47t-11 60q0 41 17 76t43.5 61t59.5 41t66 15q20 0 46 -5t58.5 -11t72 -11t85.5 -5z
M230 652q-21 0 -38.5 -8.5t-29.5 -22.5t-19 -32.5t-7 -38.5q0 -29 19 -50.5t51 -21.5q20 0 37 8t29.5 22t20 32t7.5 37q0 32 -19 53.5t-51 21.5zM658 322q33 0 60 -11.5t47 -31.5t31 -47.5t11 -59.5q0 -38 -14.5 -72.5t-40 -60.5t-60 -41.5t-75.5 -15.5q-35 0 -63.5 12
t-48 32.5t-30 47.5t-10.5 58q0 37 15 71t41.5 60.5t61.5 42.5t75 16zM647 238q-40 0 -66.5 -28.5t-26.5 -69.5q0 -35 20.5 -54.5t51.5 -19.5q20 0 36.5 8.5t29 22.5t19.5 32t7 37q0 33 -19.5 52.5t-51.5 19.5z" />
    <glyph glyph-name="ampersand" unicode="&#x26;" horiz-adv-x="680" 
d="M432 54q-54 -35 -111.5 -53t-106.5 -18q-36 0 -69 13t-58.5 36.5t-40.5 55t-15 68.5q0 69 44 119t132 102q-17 33 -30 66t-13 71q0 39 16 71.5t42.5 55.5t61 36t72.5 13q34 0 63 -11.5t50 -32.5t32.5 -49t11.5 -61q0 -57 -32.5 -105t-100.5 -95q22 -33 43 -61.5t40 -51.5
q26 17 50.5 34.5t39.5 29.5l72 -96q-29 -25 -50.5 -40.5t-34.5 -25.5q22 -28 48 -59t52 -66h-160q-11 11 -22.5 24t-25.5 30zM315 438q35 24 54.5 46.5t19.5 45.5q0 15 -12.5 25t-30.5 10q-23 0 -39.5 -15t-16.5 -36q0 -35 25 -76zM272 269q-58 -31 -85 -56.5t-27 -52.5
q0 -26 18 -41.5t43 -15.5q34 0 67.5 16.5t66.5 33.5q-9 11 -30.5 41t-52.5 75z" />
    <glyph glyph-name="quotesingle" unicode="'" horiz-adv-x="220" 
d="M99 490l-27 246h130l-27 -246h-76z" />
    <glyph glyph-name="parenleft" unicode="(" horiz-adv-x="380" 
d="M165 -208q-40 80 -62.5 159t-22.5 176q0 20 0.5 35.5t2 31t3 31.5t4.5 35q9 73 25.5 137t41.5 123.5t60.5 115.5t82.5 114h169q-126 -121 -187 -272t-61 -338q0 -53 7 -98t21 -86t35.5 -81t49.5 -83h-169z" />
    <glyph glyph-name="parenright" unicode=")" horiz-adv-x="380" 
d="M195 750q41 -80 63 -159t22 -176q0 -19 -0.5 -35t-2 -31.5l-3 -31t-4.5 -35.5q-9 -73 -25.5 -137.5t-41.5 -123.5t-60.5 -115.5t-82.5 -113.5h-169q126 121 187 272.5t61 338.5q0 53 -7 97.5t-21 85.5t-35 81t-49 83h168z" />
    <glyph glyph-name="asterisk" unicode="*" horiz-adv-x="440" 
d="M312 736l-38 -147l110 104l57 -107l-149 -38l149 -43l-64 -105l-107 105l38 -146h-120l38 146l-109 -105l-65 105l149 43l-149 41l65 109l109 -109l-38 147h124z" />
    <glyph glyph-name="plus" unicode="+" horiz-adv-x="600" 
d="M239 603h122v-183h183v-122h-183v-183h-122v183h-183v122h183v183z" />
    <glyph glyph-name="comma" unicode="," horiz-adv-x="280" 
d="M173 71l-135 -176l-63 38l97 197z" />
    <glyph glyph-name="hyphen" unicode="-" horiz-adv-x="420" 
d="M339 323l-15 -117h-264l16 117h263z" />
    <glyph glyph-name="period" unicode="." horiz-adv-x="280" 
d="M100 151q34 0 58 -24t24 -58t-23.5 -58.5t-58.5 -24.5t-58.5 24.5t-23.5 58.5t24 58t58 24z" />
    <glyph glyph-name="slash" unicode="/" horiz-adv-x="460" 
d="M344 739h94l-323 -867h-94z" />
    <glyph glyph-name="zero" unicode="0" horiz-adv-x="560" 
d="M326 736q43 0 79 -19t62.5 -55.5t41 -90t14.5 -121.5q0 -60 -9 -116t-24 -105t-35.5 -88.5t-43.5 -66.5q-38 -45 -86 -68t-100 -23q-84 0 -136.5 68.5t-52.5 200.5q0 113 22 203t60.5 152.5t91.5 95.5t116 33zM314 611q-41 0 -74 -47.5t-55 -140.5q-6 -25 -10 -45.5
t-6 -40t-3 -40t-1 -46.5q0 -72 15.5 -110t58.5 -38q24 0 46.5 16.5t41.5 45.5q12 20 24 50t21.5 69t15.5 84.5t6 94.5q0 148 -80 148z" />
    <glyph glyph-name="one" unicode="1" horiz-adv-x="560" 
d="M414 718l-97 -718h-131l79 592h-106l43 126h212z" />
    <glyph glyph-name="two" unicode="2" horiz-adv-x="560" 
d="M26 94q86 87 150.5 153.5t108.5 119t66 93.5t22 75q0 35 -22.5 55.5t-54.5 20.5q-39 0 -60.5 -28t-29.5 -84h-131q3 55 19.5 99t45.5 74.5t68.5 47t87.5 16.5q46 0 84 -15.5t65 -42.5t42 -64t15 -79q0 -46 -18.5 -92t-53 -95.5t-84.5 -105t-114 -120.5h242l-16 -122h-444
z" />
    <glyph glyph-name="three" unicode="3" horiz-adv-x="560" 
d="M300 454q32 10 51.5 35t19.5 57q0 30 -19 47.5t-46 17.5q-28 0 -48.5 -17t-25.5 -49h-124q6 47 24.5 82.5t47 59.5t64.5 36.5t75 12.5q42 0 76.5 -15t59 -40.5t37.5 -57.5t13 -67q0 -48 -28 -92t-83 -78q96 -59 96 -166q0 -51 -19.5 -94.5t-53 -75.5t-78.5 -50t-95 -18
q-46 0 -85.5 16.5t-68.5 47t-45.5 74.5t-16.5 99h127q10 -112 100 -112q23 0 42.5 9.5t33.5 26t22 38.5t8 47q0 33 -20.5 60.5t-55.5 38.5q-14 5 -29.5 6t-28.5 2l16 112q13 1 28 2t29 5z" />
    <glyph glyph-name="four" unicode="4" horiz-adv-x="560" 
d="M508 736l-63 -481h71l-16 -117h-71l-18 -138h-123l18 138h-302l15 117l369 481h120zM162 255h158l32 253z" />
    <glyph glyph-name="five" unicode="5" horiz-adv-x="560" 
d="M542 718l-17 -122h-232l-41 -140q14 7 30 11t37 4q80 0 129.5 -52.5t49.5 -151.5q0 -63 -18.5 -115t-52 -90t-79.5 -59t-101 -21q-78 0 -136.5 38t-94.5 114l118 54q25 -37 52 -59t67 -22q49 0 80 38t31 98q0 46 -24 74.5t-59 28.5q-45 0 -73 -43l-120 34l110 381h344z
" />
    <glyph glyph-name="six" unicode="6" horiz-adv-x="560" 
d="M433 667l-173 -241q9 2 21 4.5t26 2.5q40 0 76 -16t63.5 -44t43.5 -67t16 -86q0 -50 -17.5 -93.5t-49.5 -75.5t-77 -50.5t-100 -18.5q-51 0 -93 18t-71.5 49t-45.5 71.5t-16 85.5q0 64 36.5 141.5t107.5 177.5l150 211zM274 317q-23 0 -43.5 -8.5t-35.5 -23t-24 -34.5
t-9 -43q0 -43 29.5 -72t74.5 -29q24 0 44 9t35 24t23.5 35t8.5 42q0 43 -29.5 71.5t-73.5 28.5z" />
    <glyph glyph-name="seven" unicode="7" horiz-adv-x="560" 
d="M564 718l-7 -88l-363 -648l-110 61l312 549h-295l15 126h448z" />
    <glyph glyph-name="eight" unicode="8" horiz-adv-x="560" 
d="M97 540q0 41 16.5 76.5t45.5 62t69 42t87 15.5q44 0 81 -14.5t63.5 -38.5t41.5 -56.5t15 -68.5q0 -55 -32 -99t-99 -72q55 -22 84.5 -65.5t29.5 -104.5q0 -52 -18.5 -95.5t-52 -74.5t-80 -48.5t-103.5 -17.5q-51 0 -93 17t-71 45.5t-45 66t-16 78.5q0 67 38 125t118 87
q-41 23 -60 60t-19 80zM312 611q-38 0 -62 -24.5t-24 -58.5q0 -29 18 -50.5t53 -21.5q34 0 59.5 22.5t25.5 59.5q0 34 -19.5 53.5t-50.5 19.5zM271 331q-25 0 -46 -10t-37 -27t-25 -40t-9 -49q0 -42 28 -70.5t73 -28.5q26 0 47 9.5t36 26t23.5 38t8.5 44.5q0 22 -7.5 41.5
t-21 34t-31.5 23t-39 8.5z" />
    <glyph glyph-name="nine" unicode="9" horiz-adv-x="560" 
d="M133 51l173 241q-9 -2 -21 -4.5t-26 -2.5q-40 0 -76.5 16t-63.5 44.5t-43 67.5t-16 85q0 50 17.5 93.5t49.5 75.5t77 51t100 19q51 0 93 -18t71.5 -49t45.5 -72t16 -86q0 -64 -36.5 -141.5t-107.5 -177.5l-150 -211zM292 401q23 0 43.5 8.5t35.5 23.5t24 35t9 42
q0 43 -29.5 72.5t-74.5 29.5q-24 0 -44 -9t-35 -24t-23.5 -35t-8.5 -43q0 -43 29.5 -71.5t73.5 -28.5z" />
    <glyph glyph-name="colon" unicode=":" horiz-adv-x="280" 
d="M156 545q35 0 58.5 -24t23.5 -58t-23.5 -58.5t-58.5 -24.5t-58.5 25t-23.5 59q0 33 23 57t59 24zM100 151q34 0 58 -24t24 -58t-23.5 -58.5t-58.5 -24.5t-58.5 24.5t-23.5 58.5t24 58t58 24z" />
    <glyph glyph-name="semicolon" unicode=";" horiz-adv-x="280" 
d="M156 545q35 0 58.5 -24.5t23.5 -57.5t-23.5 -58t-58.5 -25t-58.5 25t-23.5 59q0 33 23 57t59 24zM173 71l-135 -176l-63 38l97 197z" />
    <glyph glyph-name="less" unicode="&#x3c;" horiz-adv-x="600" 
d="M544 57l-488 248v108l488 248v-121l-348 -181l348 -180v-122z" />
    <glyph glyph-name="equal" unicode="=" horiz-adv-x="600" 
d="M544 525v-122h-488v122h488zM544 316v-122h-488v122h488z" />
    <glyph glyph-name="greater" unicode="&#x3e;" horiz-adv-x="600" 
d="M56 661l488 -248v-108l-488 -248v122l348 180l-348 181v121z" />
    <glyph glyph-name="question" unicode="?" horiz-adv-x="560" 
d="M170 213q2 62 14 101.5t35 69t58 55t81 59.5q13 10 21 25t8 33q0 33 -28 53.5t-69 20.5q-47 0 -77.5 -23t-42.5 -71h-128q5 48 26.5 87.5t56 67.5t80 43.5t98.5 15.5q52 0 91.5 -17t66.5 -44t41 -61t14 -69q0 -55 -30.5 -98.5t-87.5 -88.5q-26 -21 -44.5 -34.5t-30.5 -29
t-18.5 -37t-9.5 -58.5h-125zM207 151q34 0 58 -24t24 -58t-24 -58.5t-58 -24.5q-35 0 -58.5 24.5t-23.5 58.5t24 58t58 24z" />
    <glyph glyph-name="at" unicode="@" horiz-adv-x="740" 
d="M557 270q-2 -8 -3.5 -18.5t-1.5 -15.5q0 -7 6 -11t13 -4q11 0 29.5 11.5t36.5 35t31 59t13 83.5q0 62 -20.5 112t-58 85t-89 54t-113.5 19q-70 0 -127.5 -23.5t-98.5 -65t-63.5 -98t-22.5 -122.5q0 -68 24 -125.5t66.5 -99t101.5 -64.5t129 -23q60 0 107 22t96 66h93
q-30 -37 -61 -66.5t-67.5 -50.5t-80 -32t-98.5 -11q-78 0 -147.5 29t-121.5 80.5t-82.5 121.5t-30.5 151t29.5 150.5t81 121.5t120 81.5t146.5 29.5q77 0 142.5 -25.5t112.5 -68t73.5 -99.5t26.5 -120q0 -97 -48 -168t-137 -106q-17 -7 -34.5 -11.5t-31.5 -4.5q-58 0 -59 52
q-42 -47 -105 -47q-33 0 -62.5 12.5t-51.5 36t-34.5 57t-12.5 74.5q0 49 15.5 91.5t43.5 74t65.5 49.5t82.5 18q76 0 121 -64l10 51h96zM373 257q21 0 39 9.5t31 25t20.5 36t7.5 42.5q0 36 -21.5 61.5t-59.5 25.5q-20 0 -37.5 -9t-31 -24.5t-21.5 -36t-8 -44.5
q0 -36 21.5 -61t59.5 -25z" />
    <glyph glyph-name="A" unicode="A" horiz-adv-x="740" 
d="M490 718l178 -718h-131l-38 154h-283l-83 -154h-145l388 718h114zM409 516l-127 -236h185z" />
    <glyph glyph-name="B" unicode="B" horiz-adv-x="580" 
d="M130 718h134q51 0 91.5 -9t75.5 -35t55 -64.5t20 -81.5q0 -45 -21.5 -84.5t-62.5 -66.5q97 -68 97 -178q0 -40 -15 -76.5t-43 -63.5t-67.5 -43t-88.5 -16h-271zM271 433q52 0 76.5 22.5t24.5 64.5q0 26 -9.5 41t-26 22.5t-39 9t-49.5 1.5l-21 -161h44zM187 128
q20 -1 40.5 -2t37.5 -1q120 0 120 89q0 26 -13 47.5t-36 33.5q-23 13 -54.5 15t-70.5 2z" />
    <glyph glyph-name="C" unicode="C" horiz-adv-x="780" 
d="M694 69q-63 -45 -133 -65.5t-151 -20.5q-87 0 -154 24.5t-118 78.5q-46 48 -71 112.5t-25 133.5q0 80 32.5 153t89 128.5t134 89t167.5 33.5q161 0 279 -111l-98 -90q-32 37 -78 56.5t-100 19.5q-57 0 -109.5 -21.5t-92 -59t-63.5 -87.5t-24 -108q0 -49 17.5 -90.5
t49 -72t76 -47.5t97.5 -17q54 0 105 16.5t91 48.5z" />
    <glyph glyph-name="D" unicode="D" horiz-adv-x="700" 
d="M263 718q92 0 162.5 -17t128.5 -70q51 -46 78.5 -111.5t27.5 -143.5q0 -85 -32 -161t-86 -126q-50 -46 -113.5 -67.5t-144.5 -21.5h-250l96 718h133zM187 126h61q28 0 48 0.5t48 6.5q85 18 131.5 80.5t46.5 159.5q0 103 -60.5 161t-166.5 58h-46z" />
    <glyph glyph-name="E" unicode="E" horiz-adv-x="520" 
d="M509 718l-16 -126h-254l-21 -149h255l-16 -126h-255l-25 -191h256l-17 -126h-391l94 718h390z" />
    <glyph glyph-name="F" unicode="F" horiz-adv-x="480" 
d="M474 718l-16 -126h-218l-21 -150h219l-16 -126h-219l-41 -316h-136l94 718h354z" />
    <glyph glyph-name="G" unicode="G" horiz-adv-x="840" 
d="M773 369q-4 -87 -32 -158.5t-77 -122t-116.5 -78t-150.5 -27.5q-81 0 -146.5 27t-111.5 74.5t-71 111.5t-25 138q0 81 31 154t85 128t126.5 87.5t155.5 32.5q93 0 172 -38.5t139 -113.5l-112 -72q-45 51 -90 75t-108 24q-58 0 -106.5 -23t-83.5 -61.5t-55 -88.5t-20 -104
q0 -48 17 -89.5t47 -71.5t70.5 -47.5t87.5 -17.5q70 0 126 33.5t93 101.5h-225l17 126h363z" />
    <glyph glyph-name="H" unicode="H" horiz-adv-x="680" 
d="M265 718l-36 -270h245l37 270h136l-98 -718h-135l45 326h-248l-44 -326h-134l97 718h135z" />
    <glyph glyph-name="I" unicode="I" horiz-adv-x="280" 
d="M257 718l-100 -718h-129l97 718h132z" />
    <glyph glyph-name="J" unicode="J" horiz-adv-x="480" 
d="M449 718l-68 -507q-8 -62 -20.5 -106t-34.5 -70q-21 -25 -55.5 -39t-74.5 -14q-66 0 -124 37.5t-95 108.5l107 65q26 -41 54 -62t52 -21q31 0 39.5 24.5t14.5 69.5l70 514h135z" />
    <glyph glyph-name="K" unicode="K" horiz-adv-x="620" 
d="M267 718l-33 -244l231 244h167l-313 -328l248 -390h-151l-203 320l-43 -320h-134l96 718h135z" />
    <glyph glyph-name="L" unicode="L" horiz-adv-x="440" 
d="M267 718l-81 -596h224l-16 -122h-359l97 718h135z" />
    <glyph glyph-name="M" unicode="M" horiz-adv-x="900" 
d="M306 718l122 -500l248 500h116l10 -718h-126l-6 430l-213 -430h-103l-109 451l-115 -451h-129l183 718h122z" />
    <glyph glyph-name="N" unicode="N" horiz-adv-x="740" 
d="M248 718l261 -488l65 488h132l-97 -718h-115l-264 494l-66 -494h-129l95 718h118z" />
    <glyph glyph-name="O" unicode="O" horiz-adv-x="840" 
d="M461 736q74 0 136.5 -25t107.5 -69.5t70.5 -106.5t25.5 -136q0 -83 -30 -158.5t-85 -132.5t-133.5 -91t-175.5 -34q-78 0 -140.5 24t-106 67t-67 104t-23.5 134q0 89 31.5 166t88 134.5t133.5 90.5t168 33zM456 611q-63 0 -115 -25t-89 -65.5t-57.5 -93t-20.5 -107.5
q0 -46 14.5 -85t41.5 -67t66 -44t88 -16q61 0 112.5 22.5t89.5 61.5t59.5 90.5t21.5 109.5q0 49 -15 89t-43 69t-67 45t-86 16z" />
    <glyph glyph-name="P" unicode="P" horiz-adv-x="560" 
d="M277 718q54 0 99 -7t86 -35q78 -54 78 -151q0 -54 -24.5 -100t-67.5 -75q-45 -30 -103.5 -37.5t-133.5 -9.5l-41 -303h-135l97 718h145zM228 430q41 0 74 3t56 13t35.5 27.5t12.5 46.5q0 23 -9.5 37.5t-27 22t-42.5 10t-56 2.5h-21z" />
    <glyph glyph-name="Q" unicode="Q" horiz-adv-x="840" 
d="M585 31q-50 -26 -99.5 -37t-108.5 -11q-78 0 -140.5 24t-106 67t-67 104t-23.5 134q0 89 32 166.5t88 134.5t132.5 90t165.5 33q76 0 139 -25t108.5 -70t70.5 -106.5t25 -134.5q0 -81 -30 -157.5t-84 -133.5l127 -143h-172zM600 209q32 38 49.5 85.5t17.5 98.5
q0 48 -15 88.5t-42.5 69t-67 44.5t-87.5 16q-62 0 -114 -24.5t-89 -65.5t-57.5 -93t-20.5 -108q0 -46 14.5 -85t41.5 -67t66 -44t87 -16q61 0 113 23l-107 120h173z" />
    <glyph glyph-name="R" unicode="R" horiz-adv-x="580" 
d="M284 718q54 0 98 -6.5t86 -35.5q78 -52 78 -152q0 -76 -44.5 -128.5t-134.5 -73.5l157 -322h-140l-153 314h-13l-41 -314h-135l96 718h146zM234 431q40 0 73 3t56 12t36 26.5t13 47.5q0 27 -11.5 41.5t-32 22t-49 9t-63.5 1.5z" />
    <glyph glyph-name="S" unicode="S" horiz-adv-x="520" 
d="M96 205q31 -48 64.5 -72.5t71.5 -24.5q35 0 58.5 23t23.5 55q0 31 -18.5 58.5t-52.5 62.5q-31 33 -58.5 62t-48 58.5t-32.5 59.5t-12 64q0 36 13.5 69t38.5 59t60.5 41.5t79.5 15.5q127 0 213 -118l-98 -87q-29 36 -56 58t-57 22q-26 0 -43 -16.5t-17 -37.5
q0 -24 21 -52.5t61 -70.5q28 -29 53.5 -57t45.5 -57.5t32 -62t12 -71.5q0 -43 -16 -80t-45 -64.5t-69 -43t-89 -15.5q-147 0 -239 138z" />
    <glyph glyph-name="T" unicode="T" horiz-adv-x="420" 
d="M477 718l-16 -126h-152l-78 -592h-134l78 592h-153l17 126h438z" />
    <glyph glyph-name="U" unicode="U" 
d="M261 718l-60 -443q-3 -20 -5 -41t-2 -40q0 -42 25 -64.5t72 -22.5q37 0 59 11.5t35 34t20 55.5t13 76l60 434h136l-58 -428q-11 -85 -29 -145t-52 -95q-29 -31 -77.5 -49.5t-108.5 -18.5q-106 0 -167.5 56t-61.5 159q0 34 4.5 65t8.5 60l53 396h135z" />
    <glyph glyph-name="V" unicode="V" horiz-adv-x="700" 
d="M183 718l128 -518l278 518h145l-384 -718h-121l-178 718h132z" />
    <glyph glyph-name="W" unicode="W" horiz-adv-x="900" 
d="M187 718l41 -465l221 465h101l86 -453l159 453h131l-255 -718h-110l-90 476l-225 -476h-118l-64 718h123z" />
    <glyph glyph-name="X" unicode="X" horiz-adv-x="680" 
d="M261 718l101 -222l157 222h156l-253 -355l165 -363h-139l-110 244l-173 -244h-157l269 377l-155 341h139z" />
    <glyph glyph-name="Y" unicode="Y" horiz-adv-x="620" 
d="M168 718l113 -288l204 288h154l-306 -431l-39 -287h-135l40 287l-167 431h136z" />
    <glyph glyph-name="Z" unicode="Z" horiz-adv-x="500" 
d="M496 718l-286 -592h226l-17 -126h-410l286 592h-223l17 126h407z" />
    <glyph glyph-name="bracketleft" unicode="[" horiz-adv-x="320" 
d="M367 736l-17 -126h-78l-96 -679h79l-17 -126h-214l130 931h213z" />
    <glyph glyph-name="backslash" unicode="\" 
d="M434 -128l-323 867h94l323 -867h-94z" />
    <glyph glyph-name="bracketright" unicode="]" horiz-adv-x="320" 
d="M-61 -195l17 126h79l95 679h-79l17 126h214l-129 -931h-214z" />
    <glyph glyph-name="asciicircum" unicode="^" horiz-adv-x="600" 
d="M356 718l190 -539h-118l-128 365l-128 -365h-119l189 539h114z" />
    <glyph glyph-name="underscore" unicode="_" horiz-adv-x="500" 
d="M506 -75v-50h-512v50h512z" />
    <glyph glyph-name="grave" unicode="`" horiz-adv-x="420" 
d="M262 819l89 -191h-95l-151 191h157z" />
    <glyph glyph-name="a" unicode="a" horiz-adv-x="660" 
d="M420 57q-37 -35 -73 -53t-89 -18q-52 0 -94.5 20.5t-72.5 56t-46.5 82.5t-16.5 99q0 61 23 115.5t62 96t90.5 65.5t109.5 24q49 0 90.5 -22.5t67.5 -65.5l10 74h130l-69 -531h-129zM288 102q40 0 71.5 16t53 42t32.5 58.5t11 66.5q0 60 -35.5 100t-97.5 40
q-34 0 -64.5 -13.5t-53 -37.5t-35.5 -58t-13 -75q0 -63 36 -101t95 -38z" />
    <glyph glyph-name="b" unicode="b" horiz-adv-x="660" 
d="M21 0l96 736h129l-34 -262q35 35 73.5 53t89.5 18q53 0 95 -21t72 -56.5t46 -82.5t16 -98q0 -61 -23 -115.5t-62 -96t-90.5 -65.5t-109.5 -24q-48 0 -89 21.5t-69 66.5l-10 -74h-130zM344 429q-42 0 -73 -16.5t-52 -43t-31.5 -59t-10.5 -64.5q0 -29 9 -54.5t25.5 -44.5
t41.5 -30t56 -11q34 0 64 13t52.5 37t36 58t13.5 76q0 63 -36.5 101t-94.5 38z" />
    <glyph glyph-name="c" unicode="c" 
d="M550 97q-45 -53 -109 -82t-144 -29q-62 0 -111.5 18t-84 51t-53 79t-18.5 102q0 65 23.5 121.5t65.5 98t100 65.5t127 24q156 0 234 -123l-111 -60q-25 31 -55 44.5t-71 13.5q-43 0 -77 -14.5t-58 -39t-36.5 -57t-12.5 -67.5q0 -61 38 -98.5t107 -37.5q45 0 82 16t61 47z
" />
    <glyph glyph-name="d" unicode="d" horiz-adv-x="660" 
d="M420 57q-37 -35 -73 -53t-89 -18q-52 0 -94.5 20.5t-72.5 56t-46.5 82.5t-16.5 99q0 61 23 115.5t62 96t90.5 65.5t109.5 24q49 0 90.5 -22.5t67.5 -65.5l36 279h131l-96 -736h-129zM288 102q40 0 71.5 16t53 42t32.5 58.5t11 66.5q0 60 -35.5 100t-97.5 40
q-34 0 -64.5 -13.5t-53 -37.5t-35.5 -58t-13 -75q0 -63 36 -101t95 -38z" />
    <glyph glyph-name="e" unicode="e" 
d="M159 228q2 -54 36 -87.5t96 -33.5q40 0 70.5 12t59.5 37l115 -60q-40 -51 -102.5 -80t-141.5 -29q-61 0 -110 18t-82.5 50.5t-51.5 78.5t-18 102q0 65 23.5 121t64 97.5t95 65.5t116.5 24q60 0 107.5 -20.5t81.5 -56t52 -83.5t18 -103q0 -14 -1.5 -28t-3.5 -25h-424z
M454 323q-15 51 -49.5 76t-82.5 25t-86 -26t-58 -75h276z" />
    <glyph glyph-name="f" unicode="f" horiz-adv-x="280" 
d="M85 531q6 50 15 91t24.5 69.5t41.5 44t66 15.5q30 0 54.5 -8.5t47.5 -24.5l-15 -106q-10 8 -22 15.5t-32 7.5q-27 0 -34.5 -24t-15.5 -80h81l-15 -112h-81l-58 -419h-130l57 419h-56l15 112h57z" />
    <glyph glyph-name="g" unicode="g" horiz-adv-x="660" 
d="M611 531l-58 -425q-5 -36 -9.5 -69t-13.5 -63t-25 -57.5t-43 -52.5q-39 -37 -90.5 -54t-117.5 -17q-85 0 -146.5 31.5t-92.5 83.5l112 59q51 -54 131 -54q76 0 113 38.5t48 111.5q-70 -63 -161 -63q-49 0 -90.5 18.5t-72.5 51.5t-48.5 78t-17.5 99q0 62 23.5 116
t63.5 94.5t92.5 64t110.5 23.5q49 0 85 -19.5t68 -57.5l8 63h131zM325 420q-36 0 -67 -13.5t-53 -36.5t-34.5 -54t-12.5 -66q0 -60 36 -95t96 -35q37 0 67.5 13.5t53 37t35 54.5t12.5 67q0 54 -35.5 91t-97.5 37z" />
    <glyph glyph-name="h" unicode="h" horiz-adv-x="600" 
d="M251 736l-35 -258q37 33 74.5 50t80.5 17q35 0 64 -11.5t50 -32.5t32.5 -49.5t11.5 -63.5q0 -22 -3 -45t-6 -45l-40 -298h-129l38 291q2 16 4 33t2 32q0 35 -19.5 52t-49.5 17q-23 0 -48 -12t-43 -33q-29 -33 -39.5 -81t-18.5 -111l-25 -188h-130l100 736h129z" />
    <glyph glyph-name="i" unicode="i" horiz-adv-x="240" 
d="M158 749q34 0 57.5 -23.5t23.5 -57.5t-23.5 -57.5t-57.5 -23.5t-57 23.5t-23 57.5t23 57.5t57 23.5zM206 531l-71 -531h-130l73 531h128z" />
    <glyph glyph-name="j" unicode="j" horiz-adv-x="260" 
d="M170 749q34 0 57.5 -23.5t23.5 -57.5t-23.5 -57.5t-57.5 -23.5t-57 24t-23 57t23 57t57 24zM217 531l-63 -470q-11 -86 -25 -143.5t-51 -90.5q-39 -34 -93 -34q-23 0 -43 5t-37 13l16 117q8 -5 17 -10t23 -5q28 0 40 31t21 100l65 487h130z" />
    <glyph glyph-name="k" unicode="k" horiz-adv-x="580" 
d="M249 736l-52 -390l210 185h179l-269 -237l235 -294h-156l-210 262l-35 -262h-128l98 736h128z" />
    <glyph glyph-name="l" unicode="l" horiz-adv-x="240" 
d="M235 736l-98 -736h-130l98 736h130z" />
    <glyph glyph-name="m" unicode="m" horiz-adv-x="940" 
d="M215 474q35 35 74 53t84 18q53 0 91.5 -24t58.5 -73q38 48 86.5 72.5t101.5 24.5q32 0 60.5 -10.5t49.5 -31t33.5 -51t12.5 -70.5q0 -19 -2 -36t-4 -29l-41 -317h-130l36 273q2 17 4.5 36t2.5 36q0 38 -18.5 59t-53.5 21q-23 0 -44 -11t-39 -29q-34 -34 -46 -78t-20 -106
l-26 -201h-130l38 289q2 15 3.5 31.5t1.5 28.5q0 34 -19.5 55t-51.5 21q-23 0 -47 -11t-42 -30q-26 -27 -38 -65t-19 -90l-30 -229h-130l70 531h130z" />
    <glyph glyph-name="n" unicode="n" horiz-adv-x="600" 
d="M216 478q37 33 74.5 50t80.5 17q35 0 64 -11.5t50 -32.5t32.5 -49.5t11.5 -63.5q0 -22 -3 -45t-6 -45l-40 -298h-129l38 291q2 16 4 33t2 32q0 35 -19.5 52t-49.5 17q-23 0 -48 -12t-43 -33q-29 -33 -39.5 -81t-18.5 -111l-25 -188h-130l72 531h130z" />
    <glyph glyph-name="o" unicode="o" 
d="M334 545q55 0 101 -19t79.5 -53.5t52 -82t18.5 -105.5q0 -60 -22.5 -114t-63 -95t-97 -65t-124.5 -24q-58 0 -104.5 18.5t-78 51t-48.5 78t-17 99.5q0 66 24.5 123t66 98.5t96.5 65.5t117 24zM325 420q-39 0 -70 -15t-52 -40t-32.5 -57.5t-11.5 -67.5q0 -58 33.5 -95.5
t94.5 -37.5q39 0 70 14t53 38.5t34 58t12 71.5q0 60 -37 95.5t-94 35.5z" />
    <glyph glyph-name="p" unicode="p" horiz-adv-x="660" 
d="M212 474q37 35 73.5 53t88.5 18t94.5 -20.5t72.5 -56t46.5 -82t16.5 -99.5q0 -61 -22.5 -115.5t-61.5 -96t-91 -65.5t-110 -24q-50 0 -91.5 22.5t-67.5 65.5l-35 -268h-130l95 725h129zM343 429q-40 0 -71 -16t-52.5 -42t-32.5 -59t-11 -66q0 -60 35 -100t97 -40
q34 0 64.5 13.5t53 37.5t36 58t13.5 75q0 63 -36.5 101t-95.5 38z" />
    <glyph glyph-name="q" unicode="q" horiz-adv-x="660" 
d="M611 531l-95 -725h-129l33 251q-37 -35 -73 -53t-89 -18q-52 0 -94.5 20.5t-72.5 56t-46.5 82.5t-16.5 99q0 61 23 115.5t62 96t90.5 65.5t109.5 24q49 0 90.5 -22.5t67.5 -65.5l10 74h130zM288 102q40 0 71.5 16t53 42t32.5 58.5t11 66.5q0 60 -35.5 100t-97.5 40
q-34 0 -64.5 -13.5t-53 -37.5t-35.5 -58t-13 -75q0 -63 36 -101t95 -38z" />
    <glyph glyph-name="r" unicode="r" horiz-adv-x="320" 
d="M168 459q52 86 126 86q13 0 21.5 -3t15.5 -6l-47 -118q-3 1 -10 1.5t-12 0.5q-48 0 -74 -55.5t-40 -164.5l-25 -200h-131l69 531h117z" />
    <glyph glyph-name="s" unicode="s" horiz-adv-x="440" 
d="M66 180q27 -36 58 -54.5t62 -18.5q25 0 40.5 12.5t15.5 30.5q0 12 -8 23.5t-20 20.5q-33 25 -62.5 46.5t-51.5 44.5t-35 49t-13 60q0 33 13 60.5t36 47.5t54 31.5t67 11.5q48 0 90.5 -22t72.5 -66l-62 -99q-23 34 -48.5 50.5t-50.5 16.5q-18 0 -30.5 -8.5t-12.5 -21.5
q0 -11 7 -20t16 -16q35 -26 65.5 -48.5t53 -46t35.5 -50.5t13 -63q0 -31 -13 -60.5t-37.5 -52.5t-60 -37t-79.5 -14q-59 0 -103 24t-92 75z" />
    <glyph glyph-name="t" unicode="t" horiz-adv-x="300" 
d="M251 729l-27 -198h83l-16 -112h-82l-57 -419h-130l57 419h-64l15 112h64l28 198h129z" />
    <glyph glyph-name="u" unicode="u" horiz-adv-x="600" 
d="M225 531l-36 -271q-2 -17 -3.5 -35t-1.5 -32q0 -35 22.5 -59t64.5 -24q31 0 51.5 10t33 30t20 49t12.5 66l37 266h128l-38 -285q-17 -130 -76.5 -195.5t-170.5 -65.5q-51 0 -90.5 15.5t-66.5 42.5t-41.5 65t-14.5 83q0 33 3.5 68t8.5 70l29 202h129z" />
    <glyph glyph-name="v" unicode="v" horiz-adv-x="560" 
d="M155 531l83 -295l170 295h142l-308 -531h-63l-152 531h128z" />
    <glyph glyph-name="w" unicode="w" horiz-adv-x="800" 
d="M151 531l74 -284l155 284h51l74 -284l154 284h139l-289 -531h-63l-72 281l-152 -281h-62l-134 531h125z" />
    <glyph glyph-name="x" unicode="x" horiz-adv-x="560" 
d="M174 531l92 -151l111 151h152l-193 -264l163 -267h-143l-99 161l-119 -161h-152l202 273l-158 258h144z" />
    <glyph glyph-name="y" unicode="y" horiz-adv-x="580" 
d="M150 531l103 -315l182 315h140l-417 -725h-138l151 266l-150 459h129z" />
    <glyph glyph-name="z" unicode="z" horiz-adv-x="460" 
d="M463 531l-272 -409h249l-16 -122h-459l271 409h-209l15 122h421z" />
    <glyph glyph-name="braceleft" unicode="{" horiz-adv-x="340" 
d="M82 98q0 52 -24 71t-66 21l17 118q45 2 69 18.5t37.5 49t20.5 80.5t18 114q14 81 68.5 114.5t151.5 33.5h26l-16 -117h-7q-37 0 -57 -4.5t-30 -18t-14.5 -39.5t-11.5 -68q-7 -44 -15 -77.5t-20.5 -59t-33 -46t-52.5 -39.5q34 -22 49.5 -52t15.5 -74q0 -57 -7.5 -104
t-7.5 -79q0 -30 23.5 -36.5t61.5 -6.5h7l-17 -117h-26q-91 0 -134.5 27t-43.5 99q0 48 9 96.5t9 95.5z" />
    <glyph glyph-name="bar" unicode="|" horiz-adv-x="600" 
d="M338 736v-930h-77v930h77z" />
    <glyph glyph-name="braceright" unicode="}" horiz-adv-x="340" 
d="M216 400q0 -52 24 -71t66 -21l-16 -118q-44 -2 -68.5 -18.5t-38 -48.5t-21 -80.5t-18.5 -114.5q-14 -81 -76 -119q-33 -20 -68.5 -24.5t-75.5 -4.5h-26l16 117h7q37 0 57 4.5t30 18t14.5 39t11.5 67.5q7 44 15 77t20.5 59t33 47t52.5 40q-34 21 -49.5 51t-15.5 75
q0 55 8 102.5t8 79.5q0 29 -24 36.5t-62 7.5h-6l16 117h26q91 0 135 -27t44 -99q0 -48 -9.5 -96.5t-9.5 -95.5z" />
    <glyph glyph-name="asciitilde" unicode="~" horiz-adv-x="600" 
d="M165 330q-32 0 -59 -15t-57 -39v155q33 17 63.5 26.5t59.5 9.5q40 0 75.5 -12.5t67 -27t59 -27t52.5 -12.5q33 0 63.5 14.5t62.5 40.5v-157q-29 -17 -58.5 -26t-62.5 -9q-40 0 -77 12.5t-70 27t-63 27t-56 12.5z" />
    <glyph glyph-name="uni00A0" unicode="&#xa0;" horiz-adv-x="280" 
 />
    <glyph glyph-name="exclamdown" unicode="&#xa1;" horiz-adv-x="280" 
d="M159 391q-35 0 -58.5 24t-23.5 58t23.5 58.5t58.5 24.5q34 0 58 -24t24 -59t-24 -58.5t-58 -23.5zM2 -194l74 524h134l-74 -524h-134z" />
    <glyph glyph-name="cent" unicode="&#xa2;" horiz-adv-x="560" 
d="M570 620l-77 -118q13 -9 24 -18t24 -21l-72 -91q-10 9 -19 16t-20 15l-193 -296q8 -2 19.5 -4t24.5 -2q35 0 73.5 19.5t68.5 55.5l70 -94q-51 -49 -103.5 -75t-118.5 -26q-28 0 -52.5 5.5t-48.5 16.5l-97 -151l-65 41l99 153q-73 74 -73 184q0 65 24 123t65 101.5
t97.5 69t120.5 25.5q29 0 48.5 -4.5t33.5 -9.5l83 127zM356 431q-8 1 -12.5 1.5t-12.5 0.5q-36 0 -67.5 -15.5t-55.5 -42.5t-38 -62.5t-14 -74.5q0 -29 7 -48t15 -34z" />
    <glyph glyph-name="sterling" unicode="&#xa3;" horiz-adv-x="560" 
d="M124 424q-5 20 -9 43.5t-4 52.5q0 46 17 85.5t47.5 68.5t74 45.5t96.5 16.5q43 0 76.5 -12.5t56 -34t34.5 -51t12 -63.5q0 -10 -1.5 -22t-3.5 -22h-131q1 8 1.5 13t0.5 13q0 25 -15.5 39.5t-44.5 14.5q-35 0 -57 -24.5t-22 -67.5q0 -17 3 -41.5t8 -53.5h160l-17 -122
h-136q-1 -51 -15 -92.5t-40 -90.5q28 -2 53 -6.5t45 -4.5q49 0 70 55h130q-25 -89 -79 -134.5t-130 -45.5q-54 0 -105 8.5t-97 8.5q-34 0 -62 -6t-53 -14l17 123q13 4 28 8t40 8q23 44 42 85.5t23 97.5h-107l16 122h78z" />
    <glyph glyph-name="currency" unicode="&#xa4;" horiz-adv-x="616" 
d="M551 175q-14 -15 -29 -30l-30 -30l-34 34t-35 34q-26 -18 -55.5 -26.5t-59.5 -8.5q-26 0 -56.5 7.5t-58.5 27.5q-17 -17 -34.5 -34t-34.5 -34l-59 60l69 66q-18 29 -26.5 58t-8.5 55t8 55.5t27 57.5q-17 17 -34.5 33.5t-34.5 33.5l59 60q17 -17 34.5 -34t34.5 -34
q29 20 59 27.5t56 7.5q28 0 58.5 -8t56.5 -27q17 17 34.5 34t34.5 34l30 -30t29 -30q-17 -17 -34.5 -33.5t-34.5 -33.5q20 -29 27.5 -59t7.5 -54q0 -26 -8 -55t-27 -58zM433 355q0 27 -10.5 49.5t-28 38.5t-40 25t-45.5 9q-27 0 -49.5 -9.5t-39.5 -26t-26.5 -39t-9.5 -47.5
t10 -47.5t26.5 -39.5t39.5 -27t48 -10q26 0 48.5 10t39.5 26.5t27 39.5t10 48z" />
    <glyph glyph-name="yen" unicode="&#xa5;" horiz-adv-x="560" 
d="M165 718l87 -283l178 283h150l-227 -361h106l-11 -80h-145l-8 -58h145l-10 -80h-147l-18 -139h-135l19 139h-139l11 80h139l7 58h-138l11 80h104l-111 361h132z" />
    <glyph glyph-name="brokenbar" unicode="&#xa6;" horiz-adv-x="600" 
d="M262 426v310h77v-310h-77zM262 -194v310h77v-310h-77z" />
    <glyph glyph-name="section" unicode="&#xa7;" horiz-adv-x="560" 
d="M115 565q0 36 15.5 70t43 59.5t66.5 41t86 15.5q44 0 78.5 -14.5t58.5 -40t36.5 -60t12.5 -74.5h-130q-2 33 -21 48.5t-48 15.5t-46.5 -14.5t-17.5 -35.5q0 -23 23.5 -44t67.5 -53q30 -22 58 -43.5t49.5 -45t34 -51.5t12.5 -64q0 -57 -34 -100.5t-99 -63.5
q70 -55 70 -136q0 -38 -16.5 -71.5t-45.5 -58t-68.5 -38.5t-84.5 -14q-43 0 -77.5 13.5t-59 37t-37.5 54t-13 65.5v12h127q3 -26 21.5 -44t50.5 -18t50.5 15t18.5 38q0 6 -0.5 11.5t-4.5 10.5q-30 40 -72.5 70t-81.5 60.5t-67 66.5t-28 88q0 53 32 101.5t93 74.5
q-53 47 -53 116zM238 391q-38 -11 -58.5 -36t-20.5 -54q0 -27 16.5 -42.5t40.5 -34.5l77 -60q81 24 81 83q0 29 -19.5 50t-52.5 46z" />
    <glyph glyph-name="dieresis" unicode="&#xa8;" horiz-adv-x="500" 
d="M178 750q26 0 43 -17.5t17 -41.5q0 -32 -22.5 -56t-57.5 -24q-28 0 -44.5 17t-16.5 43q0 32 24.5 55.5t56.5 23.5zM395 750q26 0 42.5 -17.5t16.5 -41.5q0 -32 -22.5 -56t-57.5 -24q-28 0 -44.5 17t-16.5 43q0 15 6.5 29.5t18 25.5t26.5 17.5t31 6.5z" />
    <glyph glyph-name="copyright" unicode="&#xa9;" horiz-adv-x="740" 
d="M733 375q0 -75 -28.5 -141t-78 -115t-115.5 -77t-141 -28t-141 28t-115.5 77t-78 115t-28.5 141t28.5 140.5t77.5 114.5t115.5 77.5t141.5 28.5t141.5 -28.5t115.5 -77.5t77.5 -114.5t28.5 -140.5zM658 374q0 60 -22.5 112.5t-61.5 91t-91.5 61t-112.5 22.5
q-59 0 -111.5 -22t-91.5 -60.5t-62 -91t-23 -113.5q0 -58 22.5 -109.5t61.5 -90.5t91.5 -62t112.5 -23q59 0 111.5 22.5t91.5 61t62 90.5t23 111zM475 451q-17 73 -97 73q-22 0 -43 -9.5t-37 -27.5t-26 -44.5t-10 -61.5q0 -32 9.5 -59t26 -47t39 -31.5t48.5 -11.5
q32 0 58.5 19.5t31.5 57.5h83q-4 -33 -19 -59.5t-38 -45t-52.5 -28.5t-62.5 -10q-48 0 -86 17t-64.5 46t-40 67.5t-13.5 81.5q0 50 15.5 89.5t42.5 66.5t63 41.5t76 14.5q73 0 118.5 -35t60.5 -104h-83z" />
    <glyph glyph-name="ordfeminine" unicode="&#xaa;" horiz-adv-x="360" 
d="M358 728l-47 -332h-96l4 29q-17 -17 -34 -27t-45 -10q-47 0 -76 40.5t-29 107.5q0 42 13.5 78.5t35 63.5t48.5 42.5t54 15.5q26 0 41 -10t30 -29l4 31h97zM180 472q30 0 47 30.5t17 71.5q0 35 -13.5 56.5t-36.5 21.5q-26 0 -44.5 -28.5t-18.5 -76.5q0 -35 13.5 -55
t35.5 -20z" />
    <glyph glyph-name="guillemotleft" unicode="&#xab;" horiz-adv-x="460" 
d="M251 531l-128 -268l53 -263h-124l-53 263l129 268h123zM473 531l-129 -268l53 -263h-124l-53 263l129 268h124z" />
    <glyph glyph-name="logicalnot" unicode="&#xac;" horiz-adv-x="600" 
d="M544 525v-331h-122v209h-366v122h488z" />
    <glyph glyph-name="uni00AD" unicode="&#xad;" horiz-adv-x="420" 
d="M339 323l-15 -117h-264l16 117h263z" />
    <glyph glyph-name="registered" unicode="&#xae;" horiz-adv-x="740" 
d="M733 374q0 -76 -28.5 -141.5t-78 -114t-115.5 -76.5t-141 -28t-141 28t-115.5 76.5t-78 114.5t-28.5 141t28.5 141t77.5 115t115.5 77.5t141.5 28.5t141.5 -28.5t115.5 -77.5t77.5 -115t28.5 -141zM658 373q0 60 -22.5 112.5t-61.5 91.5t-91.5 61.5t-112.5 22.5
q-59 0 -111.5 -22t-91.5 -61t-62 -91.5t-23 -113.5q0 -58 22.5 -109.5t61.5 -90.5t91.5 -61.5t112.5 -22.5q59 0 111.5 22.5t91.5 61t62 90t23 110.5zM395 572q28 0 52 -3t47 -20q41 -32 41 -94q0 -40 -15 -58.5t-32 -30.5q14 -8 25.5 -21t13.5 -46q2 -36 2.5 -57.5t2.5 -34
t6 -19t13 -13.5h-99q-11 29 -11 56t-1.5 49t-10.5 35t-38 13h-84v-153h-88v397h176zM307 403h73q12 0 24.5 0.5t22 4.5t16 13.5t6.5 27.5t-6 27.5t-15.5 14t-22 5.5t-25.5 1h-73v-94z" />
    <glyph glyph-name="macron" unicode="&#xaf;" horiz-adv-x="420" 
d="M174 736h278l-15 -107h-278z" />
    <glyph glyph-name="degree" unicode="&#xb0;" horiz-adv-x="400" 
d="M389 569q0 -37 -13.5 -68t-37 -53.5t-54 -35t-63.5 -12.5q-36 0 -66.5 13.5t-53.5 36t-36 52.5t-13 62q0 41 14.5 72.5t38 54t54 34t62.5 11.5q34 0 64.5 -12.5t53.5 -34.5t36.5 -53t13.5 -67zM331 567q0 48 -31.5 81t-79.5 33q-22 0 -42 -8.5t-35 -23.5t-24 -36t-9 -47
q0 -21 9 -41t24 -35.5t34.5 -25t40.5 -9.5q26 0 46.5 9.5t35.5 25t23 35.5t8 42z" />
    <glyph glyph-name="plusminus" unicode="&#xb1;" horiz-adv-x="600" 
d="M239 710h122v-183h183v-122h-183v-183h-122v183h-183v122h183v183zM544 122v-122h-488v122h488z" />
    <glyph glyph-name="two.superior" unicode="&#xb2;" horiz-adv-x="336" 
d="M37 416q101 86 152.5 134.5t51.5 79.5q0 14 -12 22.5t-28 8.5q-26 0 -34.5 -16t-13.5 -40h-88q3 63 40 97t97 34q58 0 93 -31t35 -75q0 -24 -10.5 -47t-30 -46.5t-47 -49t-60.5 -54.5h132l-12 -75h-274z" />
    <glyph glyph-name="three.superior" unicode="&#xb3;" horiz-adv-x="336" 
d="M240 635q0 12 -10 19t-23 7q-33 0 -39 -33h-85q7 54 42.5 81t88.5 27q27 0 48 -8t36 -21.5t23 -31t8 -35.5q0 -51 -56 -84q49 -31 49 -82q0 -26 -12 -48.5t-32 -39.5t-47.5 -27t-59.5 -10q-58 0 -96.5 33.5t-37.5 97.5h86q2 -27 14.5 -41.5t39.5 -14.5q26 0 41 16t15 38
q0 23 -21 33.5t-59 12.5l12 69q35 2 55 11t20 31z" />
    <glyph glyph-name="acute" unicode="&#xb4;" horiz-adv-x="420" 
d="M458 819l-205 -191h-96l143 191h158z" />
    <glyph glyph-name="uni00B5" unicode="&#xb5;" horiz-adv-x="576" 
d="M351 62q-23 -35 -51.5 -55.5t-69.5 -20.5q-68 0 -97 72l-38 -252h-129l109 725h129l-42 -279q-2 -14 -4 -29.5t-2 -28.5q0 -41 26.5 -68t67.5 -27q57 0 94 50q19 25 25 51.5t11 55.5l42 275h128l-79 -531h-129z" />
    <glyph glyph-name="paragraph" unicode="&#xb6;" horiz-adv-x="600" 
d="M270 347q-92 1 -141 51.5t-49 140.5q0 104 57.5 152t173.5 48h205v-57h-40v-867h-68v867h-70v-867h-68v532z" />
    <glyph glyph-name="periodcentered" unicode="&#xb7;" horiz-adv-x="280" 
d="M140 442q34 0 58 -24.5t24 -58.5t-24 -58t-58 -24t-58 24t-24 58t24 58.5t58 24.5z" />
    <glyph glyph-name="cedilla" unicode="&#xb8;" horiz-adv-x="340" 
d="M211 7l-8 -22q29 -8 44 -25.5t15 -39.5q0 -19 -9 -38t-26.5 -34.5t-43.5 -25t-60 -9.5q-32 0 -57 6.5t-48 17.5l27 62q33 -11 67 -11q25 0 39.5 11t14.5 28q0 15 -10.5 19t-27.5 4l-25 -1l26 58h82z" />
    <glyph glyph-name="one.superior" unicode="&#xb9;" horiz-adv-x="336" 
d="M278 727l-59 -369h-90l47 294h-65l31 75h136z" />
    <glyph glyph-name="ordmasculine" unicode="&#xba;" horiz-adv-x="360" 
d="M210 736q32 0 59 -12t46.5 -33.5t30.5 -51.5t11 -66q0 -38 -13 -71.5t-37 -58.5t-56.5 -39.5t-71.5 -14.5q-68 0 -106.5 42.5t-38.5 111.5q0 41 14 76.5t38 61.5t56 40.5t68 14.5zM203 649q-34 0 -53.5 -30.5t-19.5 -71.5q0 -33 14.5 -53.5t40.5 -20.5q35 0 55.5 29
t20.5 74q0 33 -16 53t-42 20z" />
    <glyph glyph-name="guillemotright" unicode="&#xbb;" horiz-adv-x="460" 
d="M-38 0l128 269l-52 262h124l52 -262l-128 -269h-124zM183 0l129 269l-53 262h124l53 -262l-129 -269h-124z" />
    <glyph glyph-name="onequarter" unicode="&#xbc;" horiz-adv-x="840" 
d="M627 736h84l-483 -754h-83zM282 727l-59 -369h-90l47 294h-65l31 75h136zM812 378l-38 -238h40l-11 -72h-40l-11 -68h-81l11 68h-184l11 69l221 241h82zM604 140h88l18 118z" />
    <glyph glyph-name="onehalf" unicode="&#xbd;" horiz-adv-x="840" 
d="M615 736h84l-483 -754h-83zM282 727l-59 -369h-90l47 294h-65l31 75h136zM514 57q101 86 152 134.5t51 79.5q0 14 -11.5 23t-27.5 9q-25 0 -34 -16t-14 -40h-89q3 63 40 97t97 34q57 0 92.5 -30.5t35.5 -75.5q0 -24 -10.5 -47t-30 -46.5t-47 -49t-60.5 -54.5h132l-12 -75
h-273z" />
    <glyph glyph-name="threequarters" unicode="&#xbe;" horiz-adv-x="840" 
d="M244 635q0 12 -10 19t-23 7q-33 0 -39 -33h-85q7 54 42.5 81t88.5 27q27 0 48 -8t36 -21.5t23 -31t8 -35.5q0 -51 -56 -84q49 -31 49 -82q0 -26 -12 -48.5t-32 -39.5t-47.5 -27t-59.5 -10q-58 0 -96.5 33.5t-37.5 97.5h86q2 -27 14.5 -41.5t39.5 -14.5q26 0 41 16t15 38
q0 23 -21 33.5t-59 12.5l12 69q35 2 55 11t20 31zM645 736h83l-482 -754h-84zM811 378l-37 -238h40l-11 -72h-40l-11 -68h-81l11 68h-184l11 69l221 241h81zM604 140h88l18 118z" />
    <glyph glyph-name="questiondown" unicode="&#xbf;" horiz-adv-x="560" 
d="M310 391q-34 0 -58 24t-24 58q0 35 24 59t58 24t58 -24.5t24 -58.5t-24 -58t-58 -24zM347 329q-1 -61 -13.5 -101t-35.5 -69.5t-57.5 -55t-81.5 -59.5q-13 -10 -21 -25t-8 -33q0 -33 28 -53t69 -20q47 0 77.5 22.5t42.5 70.5h128q-5 -48 -26.5 -87.5t-56 -67.5t-80 -43
t-98.5 -15q-52 0 -92 16.5t-67 43.5t-40.5 61t-13.5 69q0 54 30.5 98t87.5 89q26 21 44 34t30 28.5t19 37.5t10 59h125z" />
    <glyph glyph-name="Agrave" unicode="&#xc0;" horiz-adv-x="740" 
d="M405 793h86l-50 112h-108zM490 718l178 -718h-131l-38 154h-283l-83 -154h-145l388 718h114zM409 516l-127 -236h185z" />
    <glyph glyph-name="Aacute" unicode="&#xc1;" horiz-adv-x="740" 
d="M490 905l-82 -112h86l104 112h-108zM490 718l178 -718h-131l-38 154h-283l-83 -154h-145l388 718h114zM409 516l-127 -236h185z" />
    <glyph glyph-name="Acircumflex" unicode="&#xc2;" horiz-adv-x="740" 
d="M400 788h-91l104 116h93l72 -116h-91l-34 61zM490 718l178 -718h-131l-38 154h-283l-83 -154h-145l388 718h114zM409 516l-127 -236h185z" />
    <glyph glyph-name="Atilde" unicode="&#xc3;" horiz-adv-x="740" 
d="M313 794q6 46 22.5 72.5t38 36.5t45.5 5t46 -23q24 -20 36.5 -19t17.5 38h73q-6 -45 -22.5 -71.5t-38 -37t-45.5 -5.5t-46 23q-24 20 -36.5 19t-17.5 -38h-73zM490 718l178 -718h-131l-38 154h-283l-83 -154h-145l388 718h114zM409 516l-127 -236h185z" />
    <glyph glyph-name="Adieresis" unicode="&#xc4;" horiz-adv-x="740" 
d="M340 907q26 0 43 -17.5t17 -41.5q0 -32 -22.5 -56t-57.5 -24q-28 0 -44.5 17t-16.5 43q0 32 24.5 55.5t56.5 23.5zM557 907q26 0 42.5 -17.5t16.5 -41.5q0 -32 -22.5 -56t-57.5 -24q-28 0 -44.5 17t-16.5 43q0 15 6.5 29.5t18 25.5t26.5 17.5t31 6.5zM490 718l178 -718
h-131l-38 154h-283l-83 -154h-145l388 718h114zM409 516l-127 -236h185z" />
    <glyph glyph-name="Aring" unicode="&#xc5;" horiz-adv-x="740" 
d="M464 1000q23 0 42.5 -8.5t33.5 -23t22.5 -34t8.5 -41.5t-8.5 -42t-23 -34t-34 -22.5t-41.5 -8.5t-41.5 8.5t-34 22.5t-23 34t-8.5 42t8.5 41.5t22.5 34t34 23t42 8.5zM464 935q-17 0 -29.5 -12t-12.5 -30q0 -19 12.5 -30.5t29.5 -11.5t29.5 11.5t12.5 30.5q0 18 -12.5 30
t-29.5 12zM490 718l178 -718h-131l-38 154h-283l-83 -154h-145l388 718h114zM409 516l-127 -236h185z" />
    <glyph glyph-name="AE" unicode="&#xc6;" horiz-adv-x="900" 
d="M867 718l-17 -126h-256l-20 -150h257l-17 -126h-256l-26 -190h257l-16 -126h-388l20 153h-195l-83 -153h-145l389 718h496zM468 634l-191 -355h145z" />
    <glyph glyph-name="Ccedilla" unicode="&#xc7;" horiz-adv-x="780" 
d="M694 69q-59 -42 -124.5 -63t-140.5 -23q26 -8 39.5 -25t13.5 -38q0 -19 -9 -38t-26.5 -34.5t-43.5 -25t-60 -9.5q-32 0 -57 6.5t-48 17.5l27 62q33 -11 67 -11q25 0 39.5 11t14.5 28q0 15 -10.5 19t-27.5 4l-25 -1l17 38q-124 17 -202 99q-46 48 -71 112.5t-25 133.5
q0 80 32.5 153t89 128.5t134 89t167.5 33.5q161 0 279 -111l-98 -90q-32 37 -78 56.5t-100 19.5q-57 0 -109.5 -21.5t-92 -59t-63.5 -87.5t-24 -108q0 -49 17.5 -90.5t49 -72t76 -47.5t97.5 -17q54 0 105 16.5t91 48.5z" />
    <glyph glyph-name="Egrave" unicode="&#xc8;" horiz-adv-x="520" 
d="M295 793h86l-50 112h-108zM509 718l-16 -126h-254l-21 -149h255l-16 -126h-255l-25 -191h256l-17 -126h-391l94 718h390z" />
    <glyph glyph-name="Eacute" unicode="&#xc9;" horiz-adv-x="520" 
d="M380 905l-82 -112h86l104 112h-108zM509 718l-16 -126h-254l-21 -149h255l-16 -126h-255l-25 -191h256l-17 -126h-391l94 718h390z" />
    <glyph glyph-name="Ecircumflex" unicode="&#xca;" horiz-adv-x="520" 
d="M290 788h-91l104 116h93l72 -116h-91l-34 61zM509 718l-16 -126h-254l-21 -149h255l-16 -126h-255l-25 -191h256l-17 -126h-391l94 718h390z" />
    <glyph glyph-name="Edieresis" unicode="&#xcb;" horiz-adv-x="520" 
d="M214 907q26 0 43 -17.5t17 -41.5q0 -32 -22.5 -56t-57.5 -24q-28 0 -44.5 17t-16.5 43q0 32 24.5 55.5t56.5 23.5zM431 907q26 0 42.5 -17.5t16.5 -41.5q0 -32 -22.5 -56t-57.5 -24q-28 0 -44.5 17t-16.5 43q0 15 6.5 29.5t18 25.5t26.5 17.5t31 6.5zM509 718l-16 -126
h-254l-21 -149h255l-16 -126h-255l-25 -191h256l-17 -126h-391l94 718h390z" />
    <glyph glyph-name="Igrave" unicode="&#xcc;" horiz-adv-x="280" 
d="M175 793h86l-50 112h-108zM257 718l-100 -718h-129l97 718h132z" />
    <glyph glyph-name="Iacute" unicode="&#xcd;" horiz-adv-x="280" 
d="M260 905l-82 -112h86l104 112h-108zM257 718l-100 -718h-129l97 718h132z" />
    <glyph glyph-name="Icircumflex" unicode="&#xce;" horiz-adv-x="280" 
d="M283 908l126 -140h-145l-44 65l-64 -65h-146l166 140h107zM257 718l-100 -718h-129l97 718h132z" />
    <glyph glyph-name="Idieresis" unicode="&#xcf;" horiz-adv-x="280" 
d="M96 907q26 0 43 -17.5t17 -41.5q0 -32 -22.5 -56t-57.5 -24q-28 0 -44.5 17t-16.5 43q0 32 24.5 55.5t56.5 23.5zM313 907q26 0 42.5 -17.5t16.5 -41.5q0 -32 -22.5 -56t-57.5 -24q-28 0 -44.5 17t-16.5 43q0 15 6.5 29.5t18 25.5t26.5 17.5t31 6.5zM257 718l-100 -718
h-129l97 718h132z" />
    <glyph glyph-name="Eth" unicode="&#xd0;" horiz-adv-x="742" 
d="M51 319l11 80h62l42 319h133q92 0 162.5 -17t128.5 -70q51 -46 78.5 -111.5t27.5 -143.5q0 -85 -32 -161t-86 -126q-50 -46 -113.5 -67.5t-144.5 -21.5h-250l43 319h-62zM223 126h61q28 0 48 0.5t48 6.5q85 18 131.5 80.5t46.5 159.5q0 103 -60.5 161t-166.5 58h-46
l-26 -193h157l-10 -80h-158z" />
    <glyph glyph-name="Ntilde" unicode="&#xd1;" horiz-adv-x="740" 
d="M368 812q-50 0 -91 -25l-42 80q29 18 60.5 32.5t73.5 14.5q18 0 35.5 -4t35.5 -9t35.5 -9t34.5 -4q41 0 88 25l40 -76q-25 -18 -54 -35t-74 -17q-20 0 -38.5 4t-35.5 9.5t-34 9.5t-34 4zM248 718l261 -488l65 488h132l-97 -718h-115l-264 494l-66 -494h-129l95 718h118z
" />
    <glyph glyph-name="Ograve" unicode="&#xd2;" horiz-adv-x="840" 
d="M435 793h86l-50 112h-108zM461 736q74 0 136.5 -25t107.5 -69.5t70.5 -106.5t25.5 -136q0 -83 -30 -158.5t-85 -132.5t-133.5 -91t-175.5 -34q-78 0 -140.5 24t-106 67t-67 104t-23.5 134q0 89 31.5 166t88 134.5t133.5 90.5t168 33zM456 611q-63 0 -115 -25t-89 -65.5
t-57.5 -93t-20.5 -107.5q0 -46 14.5 -85t41.5 -67t66 -44t88 -16q61 0 112.5 22.5t89.5 61.5t59.5 90.5t21.5 109.5q0 49 -15 89t-43 69t-67 45t-86 16z" />
    <glyph glyph-name="Oacute" unicode="&#xd3;" horiz-adv-x="840" 
d="M520 905l-82 -112h86l104 112h-108zM461 736q74 0 136.5 -25t107.5 -69.5t70.5 -106.5t25.5 -136q0 -83 -30 -158.5t-85 -132.5t-133.5 -91t-175.5 -34q-78 0 -140.5 24t-106 67t-67 104t-23.5 134q0 89 31.5 166t88 134.5t133.5 90.5t168 33zM456 611q-63 0 -115 -25
t-89 -65.5t-57.5 -93t-20.5 -107.5q0 -46 14.5 -85t41.5 -67t66 -44t88 -16q61 0 112.5 22.5t89.5 61.5t59.5 90.5t21.5 109.5q0 49 -15 89t-43 69t-67 45t-86 16z" />
    <glyph glyph-name="Ocircumflex" unicode="&#xd4;" horiz-adv-x="840" 
d="M430 788h-91l104 116h93l72 -116h-91l-34 61zM461 736q74 0 136.5 -25t107.5 -69.5t70.5 -106.5t25.5 -136q0 -83 -30 -158.5t-85 -132.5t-133.5 -91t-175.5 -34q-78 0 -140.5 24t-106 67t-67 104t-23.5 134q0 89 31.5 166t88 134.5t133.5 90.5t168 33zM456 611
q-63 0 -115 -25t-89 -65.5t-57.5 -93t-20.5 -107.5q0 -46 14.5 -85t41.5 -67t66 -44t88 -16q61 0 112.5 22.5t89.5 61.5t59.5 90.5t21.5 109.5q0 49 -15 89t-43 69t-67 45t-86 16z" />
    <glyph glyph-name="Otilde" unicode="&#xd5;" horiz-adv-x="840" 
d="M343 794q6 46 22.5 72.5t38 36.5t45.5 5t46 -23q24 -20 36.5 -19t17.5 38h73q-6 -45 -22.5 -71.5t-38 -37t-45.5 -5.5t-46 23q-24 20 -36.5 19t-17.5 -38h-73zM461 736q74 0 136.5 -25t107.5 -69.5t70.5 -106.5t25.5 -136q0 -83 -30 -158.5t-85 -132.5t-133.5 -91
t-175.5 -34q-78 0 -140.5 24t-106 67t-67 104t-23.5 134q0 89 31.5 166t88 134.5t133.5 90.5t168 33zM456 611q-63 0 -115 -25t-89 -65.5t-57.5 -93t-20.5 -107.5q0 -46 14.5 -85t41.5 -67t66 -44t88 -16q61 0 112.5 22.5t89.5 61.5t59.5 90.5t21.5 109.5q0 49 -15 89
t-43 69t-67 45t-86 16z" />
    <glyph glyph-name="Odieresis" unicode="&#xd6;" horiz-adv-x="840" 
d="M374 907q26 0 43 -17.5t17 -41.5q0 -32 -22.5 -56t-57.5 -24q-28 0 -44.5 17t-16.5 43q0 32 24.5 55.5t56.5 23.5zM591 907q26 0 42.5 -17.5t16.5 -41.5q0 -32 -22.5 -56t-57.5 -24q-28 0 -44.5 17t-16.5 43q0 15 6.5 29.5t18 25.5t26.5 17.5t31 6.5zM461 736
q74 0 136.5 -25t107.5 -69.5t70.5 -106.5t25.5 -136q0 -83 -30 -158.5t-85 -132.5t-133.5 -91t-175.5 -34q-78 0 -140.5 24t-106 67t-67 104t-23.5 134q0 89 31.5 166t88 134.5t133.5 90.5t168 33zM456 611q-63 0 -115 -25t-89 -65.5t-57.5 -93t-20.5 -107.5q0 -46 14.5 -85
t41.5 -67t66 -44t88 -16q61 0 112.5 22.5t89.5 61.5t59.5 90.5t21.5 109.5q0 49 -15 89t-43 69t-67 45t-86 16z" />
    <glyph glyph-name="multiply" unicode="&#xd7;" horiz-adv-x="600" 
d="M145 133l-72 72l155 154l-155 155l72 72l155 -154l154 154l73 -72l-155 -155l155 -154l-73 -72l-154 154z" />
    <glyph glyph-name="Oslash" unicode="&#xd8;" horiz-adv-x="840" 
d="M718 628q43 -49 63 -105t20 -123q0 -84 -30 -159.5t-85 -132.5t-133.5 -91t-174.5 -34q-54 0 -101 10t-86 33l-66 -75l-59 49l64 74q-90 92 -90 238q0 89 32 166.5t88.5 134.5t132.5 90t164 33q59 0 110.5 -15t91.5 -42l63 72l59 -51zM572 579q-26 15 -56 23.5t-62 8.5
q-61 0 -112.5 -24.5t-89 -65.5t-58 -93.5t-20.5 -108.5q0 -40 12 -76t35 -65zM281 130q21 -11 48 -16.5t56 -5.5q59 0 110.5 22.5t89.5 61.5t60 90.5t22 109.5q0 75 -39 134z" />
    <glyph glyph-name="Ugrave" unicode="&#xd9;" 
d="M355 793h86l-50 112h-108zM261 718l-60 -443q-3 -20 -5 -41t-2 -40q0 -42 25 -64.5t72 -22.5q37 0 59 11.5t35 34t20 55.5t13 76l60 434h136l-58 -428q-11 -85 -29 -145t-52 -95q-29 -31 -77.5 -49.5t-108.5 -18.5q-106 0 -167.5 56t-61.5 159q0 34 4.5 65t8.5 60l53 396
h135z" />
    <glyph glyph-name="Uacute" unicode="&#xda;" 
d="M440 905l-82 -112h86l104 112h-108zM261 718l-60 -443q-3 -20 -5 -41t-2 -40q0 -42 25 -64.5t72 -22.5q37 0 59 11.5t35 34t20 55.5t13 76l60 434h136l-58 -428q-11 -85 -29 -145t-52 -95q-29 -31 -77.5 -49.5t-108.5 -18.5q-106 0 -167.5 56t-61.5 159q0 34 4.5 65
t8.5 60l53 396h135z" />
    <glyph glyph-name="Ucircumflex" unicode="&#xdb;" 
d="M462 908l126 -140h-145l-44 65l-64 -65h-146l166 140h107zM261 718l-60 -443q-3 -20 -5 -41t-2 -40q0 -42 25 -64.5t72 -22.5q37 0 59 11.5t35 34t20 55.5t13 76l60 434h136l-58 -428q-11 -85 -29 -145t-52 -95q-29 -31 -77.5 -49.5t-108.5 -18.5q-106 0 -167.5 56
t-61.5 159q0 34 4.5 65t8.5 60l53 396h135z" />
    <glyph glyph-name="Udieresis" unicode="&#xdc;" 
d="M274 907q26 0 43 -17.5t17 -41.5q0 -32 -22.5 -56t-57.5 -24q-28 0 -44.5 17t-16.5 43q0 32 24.5 55.5t56.5 23.5zM491 907q26 0 42.5 -17.5t16.5 -41.5q0 -32 -22.5 -56t-57.5 -24q-28 0 -44.5 17t-16.5 43q0 15 6.5 29.5t18 25.5t26.5 17.5t31 6.5zM261 718l-60 -443
q-3 -20 -5 -41t-2 -40q0 -42 25 -64.5t72 -22.5q37 0 59 11.5t35 34t20 55.5t13 76l60 434h136l-58 -428q-11 -85 -29 -145t-52 -95q-29 -31 -77.5 -49.5t-108.5 -18.5q-106 0 -167.5 56t-61.5 159q0 34 4.5 65t8.5 60l53 396h135z" />
    <glyph glyph-name="Yacute" unicode="&#xdd;" horiz-adv-x="620" 
d="M430 905l-82 -112h86l104 112h-108zM168 718l113 -288l204 288h154l-306 -431l-39 -287h-135l40 287l-167 431h136z" />
    <glyph glyph-name="Thorn" unicode="&#xde;" horiz-adv-x="560" 
d="M267 718l-19 -151q54 -1 101.5 -6t93.5 -37q78 -54 78 -151q0 -54 -24.5 -100t-67.5 -75q-45 -30 -103.5 -37t-133.5 -9l-22 -152h-135l97 718h135zM209 279q42 0 75 3t56 13t35 27.5t12 45.5q0 47 -36 60t-99 13h-21z" />
    <glyph glyph-name="germandbls" unicode="&#xdf;" horiz-adv-x="600" 
d="M537 218q0 -49 -18 -91t-51 -73t-79 -49t-102 -18q-35 0 -54 6t-33 11l14 121q13 -7 28.5 -12.5t39.5 -5.5q27 0 50 9t40 25.5t26.5 39t9.5 49.5q0 56 -38 90.5t-104 35.5l15 103q66 0 105 29.5t39 72.5q0 27 -21.5 47.5t-56.5 20.5q-37 0 -67.5 -21.5t-46.5 -59.5
q-10 -24 -13 -51.5t-7 -53.5l-61 -443h-129l54 423q7 51 14.5 91.5t18.5 67.5q31 79 94.5 123t148.5 44q45 0 82 -12.5t63.5 -35.5t41 -55t14.5 -71q0 -63 -36 -109.5t-101 -66.5q60 -30 90 -74t30 -107z" />
    <glyph glyph-name="agrave" unicode="&#xe0;" horiz-adv-x="660" 
d="M339 606h86l-50 112h-108zM420 57q-37 -35 -73 -53t-89 -18q-52 0 -94.5 20.5t-72.5 56t-46.5 82.5t-16.5 99q0 61 23 115.5t62 96t90.5 65.5t109.5 24q49 0 90.5 -22.5t67.5 -65.5l10 74h130l-69 -531h-129zM288 102q40 0 71.5 16t53 42t32.5 58.5t11 66.5
q0 60 -35.5 100t-97.5 40q-34 0 -64.5 -13.5t-53 -37.5t-35.5 -58t-13 -75q0 -63 36 -101t95 -38z" />
    <glyph glyph-name="aacute" unicode="&#xe1;" horiz-adv-x="660" 
d="M424 718l-82 -112h86l104 112h-108zM420 57q-37 -35 -73 -53t-89 -18q-52 0 -94.5 20.5t-72.5 56t-46.5 82.5t-16.5 99q0 61 23 115.5t62 96t90.5 65.5t109.5 24q49 0 90.5 -22.5t67.5 -65.5l10 74h130l-69 -531h-129zM288 102q40 0 71.5 16t53 42t32.5 58.5t11 66.5
q0 60 -35.5 100t-97.5 40q-34 0 -64.5 -13.5t-53 -37.5t-35.5 -58t-13 -75q0 -63 36 -101t95 -38z" />
    <glyph glyph-name="acircumflex" unicode="&#xe2;" horiz-adv-x="660" 
d="M334 601h-91l104 116h93l72 -116h-91l-34 61zM420 57q-37 -35 -73 -53t-89 -18q-52 0 -94.5 20.5t-72.5 56t-46.5 82.5t-16.5 99q0 61 23 115.5t62 96t90.5 65.5t109.5 24q49 0 90.5 -22.5t67.5 -65.5l10 74h130l-69 -531h-129zM288 102q40 0 71.5 16t53 42t32.5 58.5
t11 66.5q0 60 -35.5 100t-97.5 40q-34 0 -64.5 -13.5t-53 -37.5t-35.5 -58t-13 -75q0 -63 36 -101t95 -38z" />
    <glyph glyph-name="atilde" unicode="&#xe3;" horiz-adv-x="660" 
d="M247 607q6 46 22.5 72.5t38 36.5t45.5 5t46 -23q24 -20 36.5 -19t17.5 38h73q-6 -45 -22.5 -71.5t-38 -37t-45.5 -5.5t-46 23q-24 20 -36.5 19t-17.5 -38h-73zM420 57q-37 -35 -73 -53t-89 -18q-52 0 -94.5 20.5t-72.5 56t-46.5 82.5t-16.5 99q0 61 23 115.5t62 96
t90.5 65.5t109.5 24q49 0 90.5 -22.5t67.5 -65.5l10 74h130l-69 -531h-129zM288 102q40 0 71.5 16t53 42t32.5 58.5t11 66.5q0 60 -35.5 100t-97.5 40q-34 0 -64.5 -13.5t-53 -37.5t-35.5 -58t-13 -75q0 -63 36 -101t95 -38z" />
    <glyph glyph-name="adieresis" unicode="&#xe4;" horiz-adv-x="660" 
d="M258 750q26 0 43 -17.5t17 -41.5q0 -32 -22.5 -56t-57.5 -24q-28 0 -44.5 17t-16.5 43q0 32 24.5 55.5t56.5 23.5zM475 750q26 0 42.5 -17.5t16.5 -41.5q0 -32 -22.5 -56t-57.5 -24q-28 0 -44.5 17t-16.5 43q0 15 6.5 29.5t18 25.5t26.5 17.5t31 6.5zM420 57
q-37 -35 -73 -53t-89 -18q-52 0 -94.5 20.5t-72.5 56t-46.5 82.5t-16.5 99q0 61 23 115.5t62 96t90.5 65.5t109.5 24q49 0 90.5 -22.5t67.5 -65.5l10 74h130l-69 -531h-129zM288 102q40 0 71.5 16t53 42t32.5 58.5t11 66.5q0 60 -35.5 100t-97.5 40q-34 0 -64.5 -13.5
t-53 -37.5t-35.5 -58t-13 -75q0 -63 36 -101t95 -38z" />
    <glyph glyph-name="aring" unicode="&#xe5;" horiz-adv-x="660" 
d="M383 843q23 0 42.5 -8.5t33.5 -23t22.5 -34t8.5 -41.5t-8.5 -42t-23 -34t-34 -22.5t-41.5 -8.5t-41.5 8.5t-34 22.5t-23 34t-8.5 42t8.5 41.5t22.5 34t34 23t42 8.5zM383 778q-17 0 -29.5 -12t-12.5 -30q0 -19 12.5 -30.5t29.5 -11.5t29.5 11.5t12.5 30.5q0 18 -12.5 30
t-29.5 12zM420 57q-37 -35 -73 -53t-89 -18q-52 0 -94.5 20.5t-72.5 56t-46.5 82.5t-16.5 99q0 61 23 115.5t62 96t90.5 65.5t109.5 24q49 0 90.5 -22.5t67.5 -65.5l10 74h130l-69 -531h-129zM288 102q40 0 71.5 16t53 42t32.5 58.5t11 66.5q0 60 -35.5 100t-97.5 40
q-34 0 -64.5 -13.5t-53 -37.5t-35.5 -58t-13 -75q0 -63 36 -101t95 -38z" />
    <glyph glyph-name="ae" unicode="&#xe6;" horiz-adv-x="1080" 
d="M610 545l-8 -59q85 60 174 60q52 0 96.5 -21t77.5 -57t52 -83.5t19 -101.5q0 -14 -1.5 -29t-3.5 -28h-433q21 -120 139 -120q39 0 70.5 11t60.5 37l116 -59q-35 -48 -99.5 -78.5t-143.5 -30.5q-55 0 -96 14.5t-83 45.5l-5 -46h-120l8 56q-33 -36 -72 -53.5t-90 -17.5
q-45 0 -80.5 13.5t-66.5 42.5q-38 36 -61 90t-23 113q0 62 23.5 116.5t63 95.5t91 65t108.5 24q48 0 89 -22.5t69 -66.5l11 89h118zM332 425q-36 0 -66 -14.5t-52.5 -39.5t-35 -58.5t-12.5 -71.5q0 -64 36 -102t95 -38q39 0 70 15t53 40t33.5 58t11.5 69q0 30 -9.5 56
t-26.5 45t-42 30t-55 11zM887 322q-14 49 -47.5 74t-81.5 25q-100 0 -156 -99h285z" />
    <glyph glyph-name="ccedilla" unicode="&#xe7;" 
d="M304 106q45 0 82 16t61 47l103 -72q-36 -43 -85.5 -70.5t-109.5 -36.5l-2 -5q29 -8 44 -25.5t15 -39.5q0 -19 -9 -38t-26.5 -34.5t-43.5 -25t-60 -9.5q-32 0 -57 6.5t-48 17.5l27 62q33 -11 67 -11q25 0 39.5 11t14.5 28q0 15 -10.5 19t-27.5 4l-25 -1l17 38
q-56 4 -100.5 23.5t-75.5 51.5t-47.5 76.5t-16.5 97.5q0 65 23.5 121.5t65.5 98t100 65.5t127 24q156 0 234 -123l-111 -60q-25 31 -55 44.5t-71 13.5q-43 0 -77 -14.5t-58 -39t-36.5 -57t-12.5 -67.5q0 -61 38 -98.5t107 -37.5z" />
    <glyph glyph-name="egrave" unicode="&#xe8;" 
d="M329 606h86l-50 112h-108zM159 228q2 -54 36 -87.5t96 -33.5q40 0 70.5 12t59.5 37l115 -60q-40 -51 -102.5 -80t-141.5 -29q-61 0 -110 18t-82.5 50.5t-51.5 78.5t-18 102q0 65 23.5 121t64 97.5t95 65.5t116.5 24q60 0 107.5 -20.5t81.5 -56t52 -83.5t18 -103
q0 -14 -1.5 -28t-3.5 -25h-424zM454 323q-15 51 -49.5 76t-82.5 25t-86 -26t-58 -75h276z" />
    <glyph glyph-name="eacute" unicode="&#xe9;" 
d="M414 718l-82 -112h86l104 112h-108zM159 228q2 -54 36 -87.5t96 -33.5q40 0 70.5 12t59.5 37l115 -60q-40 -51 -102.5 -80t-141.5 -29q-61 0 -110 18t-82.5 50.5t-51.5 78.5t-18 102q0 65 23.5 121t64 97.5t95 65.5t116.5 24q60 0 107.5 -20.5t81.5 -56t52 -83.5t18 -103
q0 -14 -1.5 -28t-3.5 -25h-424zM454 323q-15 51 -49.5 76t-82.5 25t-86 -26t-58 -75h276z" />
    <glyph glyph-name="ecircumflex" unicode="&#xea;" 
d="M324 601h-91l104 116h93l72 -116h-91l-34 61zM159 228q2 -54 36 -87.5t96 -33.5q40 0 70.5 12t59.5 37l115 -60q-40 -51 -102.5 -80t-141.5 -29q-61 0 -110 18t-82.5 50.5t-51.5 78.5t-18 102q0 65 23.5 121t64 97.5t95 65.5t116.5 24q60 0 107.5 -20.5t81.5 -56
t52 -83.5t18 -103q0 -14 -1.5 -28t-3.5 -25h-424zM454 323q-15 51 -49.5 76t-82.5 25t-86 -26t-58 -75h276z" />
    <glyph glyph-name="edieresis" unicode="&#xeb;" 
d="M248 750q26 0 43 -17.5t17 -41.5q0 -32 -22.5 -56t-57.5 -24q-28 0 -44.5 17t-16.5 43q0 32 24.5 55.5t56.5 23.5zM465 750q26 0 42.5 -17.5t16.5 -41.5q0 -32 -22.5 -56t-57.5 -24q-28 0 -44.5 17t-16.5 43q0 15 6.5 29.5t18 25.5t26.5 17.5t31 6.5zM159 228
q2 -54 36 -87.5t96 -33.5q40 0 70.5 12t59.5 37l115 -60q-40 -51 -102.5 -80t-141.5 -29q-61 0 -110 18t-82.5 50.5t-51.5 78.5t-18 102q0 65 23.5 121t64 97.5t95 65.5t116.5 24q60 0 107.5 -20.5t81.5 -56t52 -83.5t18 -103q0 -14 -1.5 -28t-3.5 -25h-424zM454 323
q-15 51 -49.5 76t-82.5 25t-86 -26t-58 -75h276z" />
    <glyph glyph-name="igrave" unicode="&#xec;" horiz-adv-x="240" 
d="M109 606h86l-50 112h-108zM206 531l-71 -531h-130l73 531h128z" />
    <glyph glyph-name="iacute" unicode="&#xed;" horiz-adv-x="240" 
d="M194 718l-82 -112h86l104 112h-108zM206 531l-71 -531h-130l73 531h128z" />
    <glyph glyph-name="icircumflex" unicode="&#xee;" horiz-adv-x="240" 
d="M236 751l126 -140h-145l-44 65l-64 -65h-146l166 140h107zM206 531l-71 -531h-130l73 531h128z" />
    <glyph glyph-name="idieresis" unicode="&#xef;" horiz-adv-x="240" 
d="M49 750q26 0 43 -17.5t17 -41.5q0 -32 -22.5 -56t-57.5 -24q-28 0 -44.5 17t-16.5 43q0 32 24.5 55.5t56.5 23.5zM266 750q26 0 42.5 -17.5t16.5 -41.5q0 -32 -22.5 -56t-57.5 -24q-28 0 -44.5 17t-16.5 43q0 15 6.5 29.5t18 25.5t26.5 17.5t31 6.5zM206 531l-71 -531
h-130l73 531h128z" />
    <glyph glyph-name="eth" unicode="&#xf0;" 
d="M509 665l-72 -23q35 -36 63 -78t47.5 -86.5t30 -90t10.5 -89.5q0 -67 -23 -124t-63.5 -98.5t-95.5 -65t-120 -23.5q-58 0 -105.5 20t-81.5 54.5t-52 81t-18 100.5q0 59 22.5 112.5t60.5 94t89 64.5t108 24q25 0 42.5 -3.5t31.5 -7.5q-11 22 -24.5 42.5t-27.5 39.5
l-96 -28l-26 71l70 21q-30 33 -60 63h117q10 -8 20 -16.5t19 -16.5l109 33zM326 422q-38 0 -69 -15t-53 -39.5t-34 -57.5t-12 -69q0 -59 35.5 -96.5t95.5 -37.5q37 0 68.5 14.5t54 40t35 59t12.5 70.5q0 27 -9.5 51t-27 42t-42 28t-54.5 10z" />
    <glyph glyph-name="ntilde" unicode="&#xf1;" horiz-adv-x="600" 
d="M272 655q-50 0 -91 -25l-42 80q29 18 60.5 32.5t73.5 14.5q18 0 35.5 -4t35.5 -9t35.5 -9t34.5 -4q41 0 88 25l40 -76q-25 -18 -54 -35t-74 -17q-20 0 -38.5 4t-35.5 9.5t-34 9.5t-34 4zM216 478q37 33 74.5 50t80.5 17q35 0 64 -11.5t50 -32.5t32.5 -49.5t11.5 -63.5
q0 -22 -3 -45t-6 -45l-40 -298h-129l38 291q2 16 4 33t2 32q0 35 -19.5 52t-49.5 17q-23 0 -48 -12t-43 -33q-29 -33 -39.5 -81t-18.5 -111l-25 -188h-130l72 531h130z" />
    <glyph glyph-name="ograve" unicode="&#xf2;" 
d="M305 606h86l-50 112h-108zM334 545q55 0 101 -19t79.5 -53.5t52 -82t18.5 -105.5q0 -60 -22.5 -114t-63 -95t-97 -65t-124.5 -24q-58 0 -104.5 18.5t-78 51t-48.5 78t-17 99.5q0 66 24.5 123t66 98.5t96.5 65.5t117 24zM325 420q-39 0 -70 -15t-52 -40t-32.5 -57.5
t-11.5 -67.5q0 -58 33.5 -95.5t94.5 -37.5q39 0 70 14t53 38.5t34 58t12 71.5q0 60 -37 95.5t-94 35.5z" />
    <glyph glyph-name="oacute" unicode="&#xf3;" 
d="M390 718l-82 -112h86l104 112h-108zM334 545q55 0 101 -19t79.5 -53.5t52 -82t18.5 -105.5q0 -60 -22.5 -114t-63 -95t-97 -65t-124.5 -24q-58 0 -104.5 18.5t-78 51t-48.5 78t-17 99.5q0 66 24.5 123t66 98.5t96.5 65.5t117 24zM325 420q-39 0 -70 -15t-52 -40
t-32.5 -57.5t-11.5 -67.5q0 -58 33.5 -95.5t94.5 -37.5q39 0 70 14t53 38.5t34 58t12 71.5q0 60 -37 95.5t-94 35.5z" />
    <glyph glyph-name="ocircumflex" unicode="&#xf4;" 
d="M300 601h-91l104 116h93l72 -116h-91l-34 61zM334 545q55 0 101 -19t79.5 -53.5t52 -82t18.5 -105.5q0 -60 -22.5 -114t-63 -95t-97 -65t-124.5 -24q-58 0 -104.5 18.5t-78 51t-48.5 78t-17 99.5q0 66 24.5 123t66 98.5t96.5 65.5t117 24zM325 420q-39 0 -70 -15t-52 -40
t-32.5 -57.5t-11.5 -67.5q0 -58 33.5 -95.5t94.5 -37.5q39 0 70 14t53 38.5t34 58t12 71.5q0 60 -37 95.5t-94 35.5z" />
    <glyph glyph-name="otilde" unicode="&#xf5;" 
d="M213 607q6 46 22.5 72.5t38 36.5t45.5 5t46 -23q24 -20 36.5 -19t17.5 38h73q-6 -45 -22.5 -71.5t-38 -37t-45.5 -5.5t-46 23q-24 20 -36.5 19t-17.5 -38h-73zM334 545q55 0 101 -19t79.5 -53.5t52 -82t18.5 -105.5q0 -60 -22.5 -114t-63 -95t-97 -65t-124.5 -24
q-58 0 -104.5 18.5t-78 51t-48.5 78t-17 99.5q0 66 24.5 123t66 98.5t96.5 65.5t117 24zM325 420q-39 0 -70 -15t-52 -40t-32.5 -57.5t-11.5 -67.5q0 -58 33.5 -95.5t94.5 -37.5q39 0 70 14t53 38.5t34 58t12 71.5q0 60 -37 95.5t-94 35.5z" />
    <glyph glyph-name="odieresis" unicode="&#xf6;" 
d="M248 750q26 0 43 -17.5t17 -41.5q0 -32 -22.5 -56t-57.5 -24q-28 0 -44.5 17t-16.5 43q0 32 24.5 55.5t56.5 23.5zM465 750q26 0 42.5 -17.5t16.5 -41.5q0 -32 -22.5 -56t-57.5 -24q-28 0 -44.5 17t-16.5 43q0 15 6.5 29.5t18 25.5t26.5 17.5t31 6.5zM334 545
q55 0 101 -19t79.5 -53.5t52 -82t18.5 -105.5q0 -60 -22.5 -114t-63 -95t-97 -65t-124.5 -24q-58 0 -104.5 18.5t-78 51t-48.5 78t-17 99.5q0 66 24.5 123t66 98.5t96.5 65.5t117 24zM325 420q-39 0 -70 -15t-52 -40t-32.5 -57.5t-11.5 -67.5q0 -58 33.5 -95.5t94.5 -37.5
q39 0 70 14t53 38.5t34 58t12 71.5q0 60 -37 95.5t-94 35.5z" />
    <glyph glyph-name="divide" unicode="&#xf7;" horiz-adv-x="600" 
d="M379 648v-157h-157v157h157zM544 420v-122h-488v122h488zM379 228v-157h-157v157h157z" />
    <glyph glyph-name="oslash" unicode="&#xf8;" horiz-adv-x="660" 
d="M538 458q28 -35 42.5 -79.5t14.5 -93.5q0 -60 -22.5 -114.5t-63 -95t-96.5 -64.5t-124 -24q-80 0 -135 31l-75 -86l-57 51l74 85q-56 71 -56 166q0 67 25 124t66.5 98.5t96 65t114.5 23.5q38 0 74.5 -10t63.5 -27l80 91l58 -50zM394 410q-14 6 -30.5 8t-31.5 2
q-37 0 -67 -15t-51.5 -40t-33 -57.5t-11.5 -67.5q0 -38 16 -70zM241 118q13 -5 28 -8t29 -3q39 0 70 14t52.5 39t33.5 58t12 71q0 37 -16 68z" />
    <glyph glyph-name="ugrave" unicode="&#xf9;" horiz-adv-x="600" 
d="M309 606h86l-50 112h-108zM225 531l-36 -271q-2 -17 -3.5 -35t-1.5 -32q0 -35 22.5 -59t64.5 -24q31 0 51.5 10t33 30t20 49t12.5 66l37 266h128l-38 -285q-17 -130 -76.5 -195.5t-170.5 -65.5q-51 0 -90.5 15.5t-66.5 42.5t-41.5 65t-14.5 83q0 33 3.5 68t8.5 70l29 202
h129z" />
    <glyph glyph-name="uacute" unicode="&#xfa;" horiz-adv-x="600" 
d="M394 718l-82 -112h86l104 112h-108zM225 531l-36 -271q-2 -17 -3.5 -35t-1.5 -32q0 -35 22.5 -59t64.5 -24q31 0 51.5 10t33 30t20 49t12.5 66l37 266h128l-38 -285q-17 -130 -76.5 -195.5t-170.5 -65.5q-51 0 -90.5 15.5t-66.5 42.5t-41.5 65t-14.5 83q0 33 3.5 68
t8.5 70l29 202h129z" />
    <glyph glyph-name="ucircumflex" unicode="&#xfb;" horiz-adv-x="600" 
d="M415 751l126 -140h-145l-44 65l-64 -65h-146l166 140h107zM225 531l-36 -271q-2 -17 -3.5 -35t-1.5 -32q0 -35 22.5 -59t64.5 -24q31 0 51.5 10t33 30t20 49t12.5 66l37 266h128l-38 -285q-17 -130 -76.5 -195.5t-170.5 -65.5q-51 0 -90.5 15.5t-66.5 42.5t-41.5 65
t-14.5 83q0 33 3.5 68t8.5 70l29 202h129z" />
    <glyph glyph-name="udieresis" unicode="&#xfc;" horiz-adv-x="600" 
d="M228 750q26 0 43 -17.5t17 -41.5q0 -32 -22.5 -56t-57.5 -24q-28 0 -44.5 17t-16.5 43q0 32 24.5 55.5t56.5 23.5zM445 750q26 0 42.5 -17.5t16.5 -41.5q0 -32 -22.5 -56t-57.5 -24q-28 0 -44.5 17t-16.5 43q0 15 6.5 29.5t18 25.5t26.5 17.5t31 6.5zM225 531l-36 -271
q-2 -17 -3.5 -35t-1.5 -32q0 -35 22.5 -59t64.5 -24q31 0 51.5 10t33 30t20 49t12.5 66l37 266h128l-38 -285q-17 -130 -76.5 -195.5t-170.5 -65.5q-51 0 -90.5 15.5t-66.5 42.5t-41.5 65t-14.5 83q0 33 3.5 68t8.5 70l29 202h129z" />
    <glyph glyph-name="yacute" unicode="&#xfd;" horiz-adv-x="580" 
d="M384 718l-82 -112h86l104 112h-108zM150 531l103 -315l182 315h140l-417 -725h-138l151 266l-150 459h129z" />
    <glyph glyph-name="thorn" unicode="&#xfe;" horiz-adv-x="660" 
d="M-5 -194l122 930h130l-35 -262q37 35 73.5 53t88.5 18t94.5 -20.5t72.5 -56t46.5 -82t16.5 -99.5q0 -61 -22.5 -115.5t-61.5 -96t-91 -65.5t-110 -24q-50 0 -91.5 22.5t-67.5 65.5l-35 -268h-130zM343 429q-40 0 -71 -16t-52.5 -42t-32.5 -59t-11 -66q0 -60 35 -100
t97 -40q34 0 64.5 13.5t53 37.5t36 58t13.5 75q0 63 -36.5 101t-95.5 38z" />
    <glyph glyph-name="ydieresis" unicode="&#xff;" horiz-adv-x="580" 
d="M218 750q26 0 43 -17.5t17 -41.5q0 -32 -22.5 -56t-57.5 -24q-28 0 -44.5 17t-16.5 43q0 32 24.5 55.5t56.5 23.5zM435 750q26 0 42.5 -17.5t16.5 -41.5q0 -32 -22.5 -56t-57.5 -24q-28 0 -44.5 17t-16.5 43q0 15 6.5 29.5t18 25.5t26.5 17.5t31 6.5zM150 531l103 -315
l182 315h140l-417 -725h-138l151 266l-150 459h129z" />
    <glyph glyph-name="Amacron" unicode="&#x100;" horiz-adv-x="740" 
d="M301 893h278l-15 -107h-278zM490 718l178 -718h-131l-38 154h-283l-83 -154h-145l388 718h114zM409 516l-127 -236h185z" />
    <glyph glyph-name="amacron" unicode="&#x101;" horiz-adv-x="660" 
d="M277 736h278l-15 -107h-278zM420 57q-37 -35 -73 -53t-89 -18q-52 0 -94.5 20.5t-72.5 56t-46.5 82.5t-16.5 99q0 61 23 115.5t62 96t90.5 65.5t109.5 24q49 0 90.5 -22.5t67.5 -65.5l10 74h130l-69 -531h-129zM288 102q40 0 71.5 16t53 42t32.5 58.5t11 66.5
q0 60 -35.5 100t-97.5 40q-34 0 -64.5 -13.5t-53 -37.5t-35.5 -58t-13 -75q0 -63 36 -101t95 -38z" />
    <glyph glyph-name="Abreve" unicode="&#x102;" horiz-adv-x="740" 
d="M443 780q-62 0 -92.5 30t-22.5 86h81q-6 -49 43 -49q23 0 38 12t18 37h81q-8 -56 -46 -86t-100 -30zM490 718l178 -718h-131l-38 154h-283l-83 -154h-145l388 718h114zM409 516l-127 -236h185z" />
    <glyph glyph-name="abreve" unicode="&#x103;" horiz-adv-x="660" 
d="M377 593q-62 0 -92.5 30t-22.5 86h81q-6 -49 43 -49q23 0 38 12t18 37h81q-8 -56 -46 -86t-100 -30zM420 57q-37 -35 -73 -53t-89 -18q-52 0 -94.5 20.5t-72.5 56t-46.5 82.5t-16.5 99q0 61 23 115.5t62 96t90.5 65.5t109.5 24q49 0 90.5 -22.5t67.5 -65.5l10 74h130
l-69 -531h-129zM288 102q40 0 71.5 16t53 42t32.5 58.5t11 66.5q0 60 -35.5 100t-97.5 40q-34 0 -64.5 -13.5t-53 -37.5t-35.5 -58t-13 -75q0 -63 36 -101t95 -38z" />
    <glyph glyph-name="Aogonek" unicode="&#x104;" horiz-adv-x="740" 
d="M640 -190q-14 -3 -30.5 -5.5t-33.5 -2.5q-28 0 -49.5 6t-37.5 23q-15 16 -17 31t-2 32q0 23 26 54t75 52h-34l-38 154h-283l-83 -154h-145l388 718h114l178 -718h-26q-80 -45 -80 -80q0 -21 9.5 -33.5t34.5 -12.5q12 0 24 4t21 9zM409 516l-127 -236h185z" />
    <glyph glyph-name="aogonek" unicode="&#x105;" horiz-adv-x="660" 
d="M420 57q-37 -35 -73 -53t-89 -18q-52 0 -94.5 20.5t-72.5 56t-46.5 82.5t-16.5 99q0 61 23 115.5t62 96t90.5 65.5t109.5 24q49 0 90.5 -22.5t67.5 -65.5l10 74h130l-69 -531h-29q-80 -45 -80 -80q0 -21 9.5 -33.5t34.5 -12.5q12 0 24 4t21 9l-11 -77q-14 -3 -30.5 -5.5
t-33.5 -2.5q-28 0 -49.5 6t-37.5 23q-15 16 -17 31t-2 32q0 23 26 54t75 52h-29zM288 102q40 0 71.5 16t53 42t32.5 58.5t11 66.5q0 60 -35.5 100t-97.5 40q-34 0 -64.5 -13.5t-53 -37.5t-35.5 -58t-13 -75q0 -63 36 -101t95 -38z" />
    <glyph glyph-name="Cacute" unicode="&#x106;" horiz-adv-x="780" 
d="M680 976l-205 -191h-96l143 191h158zM694 69q-63 -45 -133 -65.5t-151 -20.5q-87 0 -154 24.5t-118 78.5q-46 48 -71 112.5t-25 133.5q0 80 32.5 153t89 128.5t134 89t167.5 33.5q161 0 279 -111l-98 -90q-32 37 -78 56.5t-100 19.5q-57 0 -109.5 -21.5t-92 -59
t-63.5 -87.5t-24 -108q0 -49 17.5 -90.5t49 -72t76 -47.5t97.5 -17q54 0 105 16.5t91 48.5z" />
    <glyph glyph-name="cacute" unicode="&#x107;" 
d="M576 819l-205 -191h-96l143 191h158zM550 97q-45 -53 -109 -82t-144 -29q-62 0 -111.5 18t-84 51t-53 79t-18.5 102q0 65 23.5 121.5t65.5 98t100 65.5t127 24q156 0 234 -123l-111 -60q-25 31 -55 44.5t-71 13.5q-43 0 -77 -14.5t-58 -39t-36.5 -57t-12.5 -67.5
q0 -61 38 -98.5t107 -37.5q45 0 82 16t61 47z" />
    <glyph glyph-name="Ccircumflex" unicode="&#x108;" horiz-adv-x="780" 
d="M553 908l126 -140h-145l-44 65l-64 -65h-146l166 140h107zM694 69q-63 -45 -133 -65.5t-151 -20.5q-87 0 -154 24.5t-118 78.5q-46 48 -71 112.5t-25 133.5q0 80 32.5 153t89 128.5t134 89t167.5 33.5q161 0 279 -111l-98 -90q-32 37 -78 56.5t-100 19.5
q-57 0 -109.5 -21.5t-92 -59t-63.5 -87.5t-24 -108q0 -49 17.5 -90.5t49 -72t76 -47.5t97.5 -17q54 0 105 16.5t91 48.5z" />
    <glyph glyph-name="ccircumflex" unicode="&#x109;" 
d="M449 751l126 -140h-145l-44 65l-64 -65h-146l166 140h107zM550 97q-45 -53 -109 -82t-144 -29q-62 0 -111.5 18t-84 51t-53 79t-18.5 102q0 65 23.5 121.5t65.5 98t100 65.5t127 24q156 0 234 -123l-111 -60q-25 31 -55 44.5t-71 13.5q-43 0 -77 -14.5t-58 -39t-36.5 -57
t-12.5 -67.5q0 -61 38 -98.5t107 -37.5q45 0 82 16t61 47z" />
    <glyph glyph-name="Cdotaccent" unicode="&#x10a;" horiz-adv-x="780" 
d="M499 907q26 0 43 -17.5t17 -41.5q0 -32 -22.5 -56t-57.5 -24q-28 0 -44.5 17t-16.5 43q0 32 24.5 55.5t56.5 23.5zM694 69q-63 -45 -133 -65.5t-151 -20.5q-87 0 -154 24.5t-118 78.5q-46 48 -71 112.5t-25 133.5q0 80 32.5 153t89 128.5t134 89t167.5 33.5
q161 0 279 -111l-98 -90q-32 37 -78 56.5t-100 19.5q-57 0 -109.5 -21.5t-92 -59t-63.5 -87.5t-24 -108q0 -49 17.5 -90.5t49 -72t76 -47.5t97.5 -17q54 0 105 16.5t91 48.5z" />
    <glyph glyph-name="cdotaccent" unicode="&#x10b;" 
d="M395 750q26 0 43 -17.5t17 -41.5q0 -32 -22.5 -56t-57.5 -24q-28 0 -44.5 17t-16.5 43q0 32 24.5 55.5t56.5 23.5zM550 97q-45 -53 -109 -82t-144 -29q-62 0 -111.5 18t-84 51t-53 79t-18.5 102q0 65 23.5 121.5t65.5 98t100 65.5t127 24q156 0 234 -123l-111 -60
q-25 31 -55 44.5t-71 13.5q-43 0 -77 -14.5t-58 -39t-36.5 -57t-12.5 -67.5q0 -61 38 -98.5t107 -37.5q45 0 82 16t61 47z" />
    <glyph glyph-name="Ccaron" unicode="&#x10c;" horiz-adv-x="780" 
d="M426 768l-126 140h145l45 -65l63 65h146l-166 -140h-107zM694 69q-63 -45 -133 -65.5t-151 -20.5q-87 0 -154 24.5t-118 78.5q-46 48 -71 112.5t-25 133.5q0 80 32.5 153t89 128.5t134 89t167.5 33.5q161 0 279 -111l-98 -90q-32 37 -78 56.5t-100 19.5
q-57 0 -109.5 -21.5t-92 -59t-63.5 -87.5t-24 -108q0 -49 17.5 -90.5t49 -72t76 -47.5t97.5 -17q54 0 105 16.5t91 48.5z" />
    <glyph glyph-name="ccaron" unicode="&#x10d;" 
d="M322 611l-126 140h145l45 -65l63 65h146l-166 -140h-107zM550 97q-45 -53 -109 -82t-144 -29q-62 0 -111.5 18t-84 51t-53 79t-18.5 102q0 65 23.5 121.5t65.5 98t100 65.5t127 24q156 0 234 -123l-111 -60q-25 31 -55 44.5t-71 13.5q-43 0 -77 -14.5t-58 -39t-36.5 -57
t-12.5 -67.5q0 -61 38 -98.5t107 -37.5q45 0 82 16t61 47z" />
    <glyph glyph-name="Dcaron" unicode="&#x10e;" horiz-adv-x="700" 
d="M352 768l-126 140h145l45 -65l63 65h146l-166 -140h-107zM263 718q92 0 162.5 -17t128.5 -70q51 -46 78.5 -111.5t27.5 -143.5q0 -85 -32 -161t-86 -126q-50 -46 -113.5 -67.5t-144.5 -21.5h-250l96 718h133zM187 126h61q28 0 48 0.5t48 6.5q85 18 131.5 80.5t46.5 159.5
q0 103 -60.5 161t-166.5 58h-46z" />
    <glyph glyph-name="dcaron" unicode="&#x10f;" horiz-adv-x="660" 
d="M638 736l-96 -736h-129l7 57q-71 -71 -162 -71q-106 0 -168 78q-62 79 -62 181q0 123 85 211q86 89 200 89q104 0 158 -88l36 279h131zM778 736l-7 -51q-4 -43 -21 -85q-15 -43 -64 -96l-36 32q19 23 31 44t18 38h-42l17 118h104zM288 103q79 0 123 56q45 57 45 126
q0 60 -35 100t-98 40q-68 0 -118 -51q-48 -51 -48 -133q0 -60 35.5 -99t95.5 -39z" />
    <glyph glyph-name="Dcroat" unicode="&#x110;" horiz-adv-x="742" 
d="M51 319l11 80h62l42 319h133q92 0 162.5 -17t128.5 -70q51 -46 78.5 -111.5t27.5 -143.5q0 -85 -32 -161t-86 -126q-50 -46 -113.5 -67.5t-144.5 -21.5h-250l43 319h-62zM223 126h61q28 0 48 0.5t48 6.5q85 18 131.5 80.5t46.5 159.5q0 103 -60.5 161t-166.5 58h-46
l-26 -193h157l-10 -80h-158z" />
    <glyph glyph-name="dcroat" unicode="&#x111;" horiz-adv-x="660" 
d="M718 679l-9 -77h-89l-78 -602h-129l7 57q-43 -39 -79.5 -55t-82.5 -16q-106 0 -168 78q-62 79 -62 181q0 79 39 149q40 72 106.5 111.5t139.5 39.5q49 0 90 -22.5t68 -65.5l19 145h-168l9 77h169l7 57h131l-8 -57h88zM288 103q49 0 83 21q18 11 33.5 28.5t27 39t18 45.5
t6.5 48q0 63 -36.5 101.5t-96.5 38.5q-69 0 -118 -52q-48 -51 -48 -132q0 -63 36.5 -100.5t94.5 -37.5z" />
    <glyph glyph-name="Emacron" unicode="&#x112;" horiz-adv-x="520" 
d="M194 893h278l-15 -107h-278zM509 718l-16 -126h-254l-21 -149h255l-16 -126h-255l-25 -191h256l-17 -126h-391l94 718h390z" />
    <glyph glyph-name="emacron" unicode="&#x113;" 
d="M231 736h278l-15 -107h-278zM159 228q2 -54 36 -87.5t96 -33.5q40 0 70.5 12t59.5 37l115 -60q-40 -51 -102.5 -80t-141.5 -29q-61 0 -110 18t-82.5 50.5t-51.5 78.5t-18 102q0 65 23.5 121t64 97.5t95 65.5t116.5 24q60 0 107.5 -20.5t81.5 -56t52 -83.5t18 -103
q0 -14 -1.5 -28t-3.5 -25h-424zM454 323q-15 51 -49.5 76t-82.5 25t-86 -26t-58 -75h276z" />
    <glyph glyph-name="Ebreve" unicode="&#x114;" horiz-adv-x="520" 
d="M246 922q9 -20 29.5 -30t55.5 -10q32 0 56.5 9.5t39.5 30.5h108q-20 -65 -76 -101t-141 -36q-90 0 -135 37t-45 94v6h108zM509 718l-16 -126h-254l-21 -149h255l-16 -126h-255l-25 -191h256l-17 -126h-391l94 718h390z" />
    <glyph glyph-name="ebreve" unicode="&#x115;" 
d="M284 765q9 -20 29.5 -30t55.5 -10q32 0 56.5 9.5t39.5 30.5h108q-20 -65 -76 -101t-141 -36q-90 0 -135 37t-45 94v6h108zM159 228q2 -54 36 -87.5t96 -33.5q40 0 70.5 12t59.5 37l115 -60q-40 -51 -102.5 -80t-141.5 -29q-61 0 -110 18t-82.5 50.5t-51.5 78.5t-18 102
q0 65 23.5 121t64 97.5t95 65.5t116.5 24q60 0 107.5 -20.5t81.5 -56t52 -83.5t18 -103q0 -14 -1.5 -28t-3.5 -25h-424zM454 323q-15 51 -49.5 76t-82.5 25t-86 -26t-58 -75h276z" />
    <glyph glyph-name="Edotaccent" unicode="&#x116;" horiz-adv-x="520" 
d="M335 907q26 0 43 -17.5t17 -41.5q0 -32 -22.5 -56t-57.5 -24q-28 0 -44.5 17t-16.5 43q0 32 24.5 55.5t56.5 23.5zM509 718l-16 -126h-254l-21 -149h255l-16 -126h-255l-25 -191h256l-17 -126h-391l94 718h390z" />
    <glyph glyph-name="edotaccent" unicode="&#x117;" 
d="M373 750q26 0 43 -17.5t17 -41.5q0 -32 -22.5 -56t-57.5 -24q-28 0 -44.5 17t-16.5 43q0 32 24.5 55.5t56.5 23.5zM159 228q2 -54 36 -87.5t96 -33.5q40 0 70.5 12t59.5 37l115 -60q-40 -51 -102.5 -80t-141.5 -29q-61 0 -110 18t-82.5 50.5t-51.5 78.5t-18 102
q0 65 23.5 121t64 97.5t95 65.5t116.5 24q60 0 107.5 -20.5t81.5 -56t52 -83.5t18 -103q0 -14 -1.5 -28t-3.5 -25h-424zM454 323q-15 51 -49.5 76t-82.5 25t-86 -26t-58 -75h276z" />
    <glyph glyph-name="Eogonek" unicode="&#x118;" horiz-adv-x="520" 
d="M509 718l-16 -126h-254l-21 -149h255l-16 -126h-255l-25 -191h256l-17 -126h-33q-80 -45 -80 -80q0 -21 9.5 -33.5t34.5 -12.5q12 0 24 4t21 9l-11 -77q-14 -3 -30.5 -5.5t-33.5 -2.5q-28 0 -49.5 6t-37.5 23q-15 16 -17 31t-2 32q0 23 26 54t75 52h-287l94 718h390z" />
    <glyph glyph-name="eogonek" unicode="&#x119;" 
d="M382 -190q-14 -3 -30.5 -5.5t-33.5 -2.5q-28 0 -49.5 6t-37.5 23q-15 16 -17 31t-2 32q0 20 19 46t56 47q-60 1 -108 19t-81 50.5t-50.5 78t-17.5 101.5q0 65 23.5 121t64 97.5t95 65.5t116.5 24q60 0 107.5 -20.5t81.5 -56t52 -83.5t18 -103q0 -14 -1.5 -28t-3.5 -25
h-424q2 -54 36 -87.5t96 -33.5q40 0 70.5 12t59.5 37l115 -60q-58 -75 -158 -99q-74 -42 -74 -77q0 -21 9.5 -33.5t34.5 -12.5q12 0 24 4t21 9zM454 323q-15 51 -49.5 76t-82.5 25t-86 -26t-58 -75h276z" />
    <glyph glyph-name="Ecaron" unicode="&#x11a;" horiz-adv-x="520" 
d="M262 768l-126 140h145l45 -65l63 65h146l-166 -140h-107zM509 718l-16 -126h-254l-21 -149h255l-16 -126h-255l-25 -191h256l-17 -126h-391l94 718h390z" />
    <glyph glyph-name="ecaron" unicode="&#x11b;" 
d="M300 611l-126 140h145l45 -65l63 65h146l-166 -140h-107zM159 228q2 -54 36 -87.5t96 -33.5q40 0 70.5 12t59.5 37l115 -60q-40 -51 -102.5 -80t-141.5 -29q-61 0 -110 18t-82.5 50.5t-51.5 78.5t-18 102q0 65 23.5 121t64 97.5t95 65.5t116.5 24q60 0 107.5 -20.5
t81.5 -56t52 -83.5t18 -103q0 -14 -1.5 -28t-3.5 -25h-424zM454 323q-15 51 -49.5 76t-82.5 25t-86 -26t-58 -75h276z" />
    <glyph glyph-name="Gcircumflex" unicode="&#x11c;" horiz-adv-x="840" 
d="M549 908l126 -140h-145l-44 65l-64 -65h-146l166 140h107zM773 369q-4 -87 -32 -158.5t-77 -122t-116.5 -78t-150.5 -27.5q-81 0 -146.5 27t-111.5 74.5t-71 111.5t-25 138q0 81 31 154t85 128t126.5 87.5t155.5 32.5q93 0 172 -38.5t139 -113.5l-112 -72q-45 51 -90 75
t-108 24q-58 0 -106.5 -23t-83.5 -61.5t-55 -88.5t-20 -104q0 -48 17 -89.5t47 -71.5t70.5 -47.5t87.5 -17.5q70 0 126 33.5t93 101.5h-225l17 126h363z" />
    <glyph glyph-name="gcircumflex" unicode="&#x11d;" horiz-adv-x="660" 
d="M437 751l126 -140h-145l-44 65l-64 -65h-146l166 140h107zM611 531l-58 -425q-5 -36 -9.5 -69t-13.5 -63t-25 -57.5t-43 -52.5q-39 -37 -90.5 -54t-117.5 -17q-85 0 -146.5 31.5t-92.5 83.5l112 59q51 -54 131 -54q76 0 113 38.5t48 111.5q-70 -63 -161 -63
q-49 0 -90.5 18.5t-72.5 51.5t-48.5 78t-17.5 99q0 62 23.5 116t63.5 94.5t92.5 64t110.5 23.5q49 0 85 -19.5t68 -57.5l8 63h131zM325 420q-36 0 -67 -13.5t-53 -36.5t-34.5 -54t-12.5 -66q0 -60 36 -95t96 -35q37 0 67.5 13.5t53 37t35 54.5t12.5 67q0 54 -35.5 91
t-97.5 37z" />
    <glyph glyph-name="Gbreve" unicode="&#x11e;" horiz-adv-x="840" 
d="M406 922q9 -20 29.5 -30t55.5 -10q32 0 56.5 9.5t39.5 30.5h108q-20 -65 -76 -101t-141 -36q-90 0 -135 37t-45 94v6h108zM773 369q-4 -87 -32 -158.5t-77 -122t-116.5 -78t-150.5 -27.5q-81 0 -146.5 27t-111.5 74.5t-71 111.5t-25 138q0 81 31 154t85 128t126.5 87.5
t155.5 32.5q93 0 172 -38.5t139 -113.5l-112 -72q-45 51 -90 75t-108 24q-58 0 -106.5 -23t-83.5 -61.5t-55 -88.5t-20 -104q0 -48 17 -89.5t47 -71.5t70.5 -47.5t87.5 -17.5q70 0 126 33.5t93 101.5h-225l17 126h363z" />
    <glyph glyph-name="gbreve" unicode="&#x11f;" horiz-adv-x="660" 
d="M294 765q9 -20 29.5 -30t55.5 -10q32 0 56.5 9.5t39.5 30.5h108q-20 -65 -76 -101t-141 -36q-90 0 -135 37t-45 94v6h108zM611 531l-58 -425q-5 -36 -9.5 -69t-13.5 -63t-25 -57.5t-43 -52.5q-39 -37 -90.5 -54t-117.5 -17q-85 0 -146.5 31.5t-92.5 83.5l112 59
q51 -54 131 -54q76 0 113 38.5t48 111.5q-70 -63 -161 -63q-49 0 -90.5 18.5t-72.5 51.5t-48.5 78t-17.5 99q0 62 23.5 116t63.5 94.5t92.5 64t110.5 23.5q49 0 85 -19.5t68 -57.5l8 63h131zM325 420q-36 0 -67 -13.5t-53 -36.5t-34.5 -54t-12.5 -66q0 -60 36 -95t96 -35
q37 0 67.5 13.5t53 37t35 54.5t12.5 67q0 54 -35.5 91t-97.5 37z" />
    <glyph glyph-name="Gdotaccent" unicode="&#x120;" horiz-adv-x="840" 
d="M495 907q26 0 43 -17.5t17 -41.5q0 -32 -22.5 -56t-57.5 -24q-28 0 -44.5 17t-16.5 43q0 32 24.5 55.5t56.5 23.5zM773 369q-4 -87 -32 -158.5t-77 -122t-116.5 -78t-150.5 -27.5q-81 0 -146.5 27t-111.5 74.5t-71 111.5t-25 138q0 81 31 154t85 128t126.5 87.5
t155.5 32.5q93 0 172 -38.5t139 -113.5l-112 -72q-45 51 -90 75t-108 24q-58 0 -106.5 -23t-83.5 -61.5t-55 -88.5t-20 -104q0 -48 17 -89.5t47 -71.5t70.5 -47.5t87.5 -17.5q70 0 126 33.5t93 101.5h-225l17 126h363z" />
    <glyph glyph-name="gdotaccent" unicode="&#x121;" horiz-adv-x="660" 
d="M383 750q26 0 43 -17.5t17 -41.5q0 -32 -22.5 -56t-57.5 -24q-28 0 -44.5 17t-16.5 43q0 32 24.5 55.5t56.5 23.5zM611 531l-58 -425q-5 -36 -9.5 -69t-13.5 -63t-25 -57.5t-43 -52.5q-39 -37 -90.5 -54t-117.5 -17q-85 0 -146.5 31.5t-92.5 83.5l112 59q51 -54 131 -54
q76 0 113 38.5t48 111.5q-70 -63 -161 -63q-49 0 -90.5 18.5t-72.5 51.5t-48.5 78t-17.5 99q0 62 23.5 116t63.5 94.5t92.5 64t110.5 23.5q49 0 85 -19.5t68 -57.5l8 63h131zM325 420q-36 0 -67 -13.5t-53 -36.5t-34.5 -54t-12.5 -66q0 -60 36 -95t96 -35q37 0 67.5 13.5
t53 37t35 54.5t12.5 67q0 54 -35.5 91t-97.5 37z" />
    <glyph glyph-name="uni0122" unicode="&#x122;" horiz-adv-x="840" 
d="M313 -8q-63 13 -113 44t-85 76t-53.5 101.5t-18.5 120.5q0 81 31 154t85 128t126.5 87.5t155.5 32.5q93 0 172 -38.5t139 -113.5l-112 -72q-45 51 -90 75t-108 24q-58 0 -106.5 -23t-83.5 -61.5t-55 -88.5t-20 -104q0 -48 17 -89.5t47 -71.5t70.5 -47.5t87.5 -17.5
q70 0 126 33.5t93 101.5h-225l17 126h363q-4 -84 -30.5 -153t-71.5 -119t-108 -79.5t-140 -33.5q23 -10 32.5 -27.5t9.5 -37.5q0 -39 -37 -72q-37 -34 -102 -34q-41 0 -92 18l26 64q35 -8 52 -8q56 0 56 39q0 24 -35 24q-11 0 -37 -3z" />
    <glyph glyph-name="uni0123" unicode="&#x123;" horiz-adv-x="660" 
d="M282 664l121 158l57 -34l-87 -177zM611 531l-58 -425q-5 -36 -9.5 -69t-13.5 -63t-25 -57.5t-43 -52.5q-39 -37 -90.5 -54t-117.5 -17q-85 0 -146.5 31.5t-92.5 83.5l112 59q51 -54 131 -54q76 0 113 38.5t48 111.5q-70 -63 -161 -63q-49 0 -90.5 18.5t-72.5 51.5
t-48.5 78t-17.5 99q0 62 23.5 116t63.5 94.5t92.5 64t110.5 23.5q49 0 85 -19.5t68 -57.5l8 63h131zM325 420q-36 0 -67 -13.5t-53 -36.5t-34.5 -54t-12.5 -66q0 -60 36 -95t96 -35q37 0 67.5 13.5t53 37t35 54.5t12.5 67q0 54 -35.5 91t-97.5 37z" />
    <glyph glyph-name="Hcircumflex" unicode="&#x124;" horiz-adv-x="680" 
d="M469 908l126 -140h-145l-44 65l-64 -65h-146l166 140h107zM265 718l-36 -270h245l37 270h136l-98 -718h-135l45 326h-248l-44 -326h-134l97 718h135z" />
    <glyph glyph-name="hcircumflex" unicode="&#x125;" horiz-adv-x="600" 
d="M293 926l126 -140h-145l-44 65l-64 -65h-146l166 140h107zM251 736l-35 -258q37 33 74.5 50t80.5 17q35 0 64 -11.5t50 -32.5t32.5 -49.5t11.5 -63.5q0 -22 -3 -45t-6 -45l-40 -298h-129l38 291q2 16 4 33t2 32q0 35 -19.5 52t-49.5 17q-23 0 -48 -12t-43 -33
q-29 -33 -39.5 -81t-18.5 -111l-25 -188h-130l100 736h129z" />
    <glyph glyph-name="Hbar" unicode="&#x126;" horiz-adv-x="680" 
d="M500 631l11 87h136l-12 -87h65l-11 -80h-65l-75 -551h-134l44 326h-248l-44 -326h-134l74 551h-64l11 80h64l12 87h135l-12 -87h247zM229 447h246l14 104h-246z" />
    <glyph glyph-name="hbar" unicode="&#x127;" horiz-adv-x="600" 
d="M399 673l-9 -77h-158l-16 -118q71 67 156 67q70 0 113 -45q43 -43 43 -109q0 -16 -2 -39t-6 -54l-40 -298h-129l39 291q6 44 6 66q0 36 -21 52t-50 16q-34 0 -69 -26q-32 -25 -49 -66q-16 -40 -30 -145l-25 -188h-130l81 596h-67l8 77h69l9 63h129l-8 -63h156z" />
    <glyph glyph-name="Itilde" unicode="&#x128;" horiz-adv-x="280" 
d="M83 794q6 46 22.5 72.5t38 36.5t45.5 5t46 -23q24 -20 36.5 -19t17.5 38h73q-6 -45 -22.5 -71.5t-38 -37t-45.5 -5.5t-46 23q-24 20 -36.5 19t-17.5 -38h-73zM257 718l-100 -718h-129l97 718h132z" />
    <glyph glyph-name="itilde" unicode="&#x129;" horiz-adv-x="240" 
d="M17 607q6 46 22.5 72.5t38 36.5t45.5 5t46 -23q24 -20 36.5 -19t17.5 38h73q-6 -45 -22.5 -71.5t-38 -37t-45.5 -5.5t-46 23q-24 20 -36.5 19t-17.5 -38h-73zM206 531l-71 -531h-130l73 531h128z" />
    <glyph glyph-name="Imacron" unicode="&#x12a;" horiz-adv-x="280" 
d="M74 893h278l-15 -107h-278zM257 718l-100 -718h-129l97 718h132z" />
    <glyph glyph-name="imacron" unicode="&#x12b;" horiz-adv-x="240" 
d="M31 736h278l-15 -107h-278zM206 531l-71 -531h-130l73 531h128z" />
    <glyph glyph-name="Ibreve" unicode="&#x12c;" horiz-adv-x="280" 
d="M126 922q9 -20 29.5 -30t55.5 -10q32 0 56.5 9.5t39.5 30.5h108q-20 -65 -76 -101t-141 -36q-90 0 -135 37t-45 94v6h108zM257 718l-100 -718h-129l97 718h132z" />
    <glyph glyph-name="ibreve" unicode="&#x12d;" horiz-adv-x="240" 
d="M84 765q9 -20 29.5 -30t55.5 -10q32 0 56.5 9.5t39.5 30.5h108q-20 -65 -76 -101t-141 -36q-90 0 -135 37t-45 94v6h108zM206 531l-71 -531h-130l73 531h128z" />
    <glyph glyph-name="Iogonek" unicode="&#x12e;" horiz-adv-x="280" 
d="M257 718l-100 -718h-24q-80 -45 -80 -80q0 -21 9.5 -33.5t34.5 -12.5q12 0 24 4t21 9l-11 -77q-14 -3 -30.5 -5.5t-33.5 -2.5q-28 0 -49.5 6t-37.5 23q-15 16 -17 31t-2 32q0 23 26 54t75 52h-34l97 718h132z" />
    <glyph glyph-name="iogonek" unicode="&#x12f;" horiz-adv-x="240" 
d="M158 749q34 0 57.5 -23.5t23.5 -57.5t-23.5 -57.5t-57.5 -23.5t-57 23.5t-23 57.5t23 57.5t57 23.5zM206 531l-71 -531h-26q-80 -45 -80 -80q0 -21 9.5 -33.5t34.5 -12.5q12 0 24 4t21 9l-11 -77q-14 -3 -30.5 -5.5t-33.5 -2.5q-28 0 -49.5 6t-37.5 23q-15 16 -17 31
t-2 32q0 23 26 54t75 52h-33l73 531h128z" />
    <glyph glyph-name="Idotaccent" unicode="&#x130;" horiz-adv-x="280" 
d="M215 907q26 0 43 -17.5t17 -41.5q0 -32 -22.5 -56t-57.5 -24q-28 0 -44.5 17t-16.5 43q0 32 24.5 55.5t56.5 23.5zM257 718l-100 -718h-129l97 718h132z" />
    <glyph glyph-name="dotlessi" unicode="&#x131;" horiz-adv-x="240" 
d="M206 531l-71 -531h-130l73 531h128z" />
    <glyph glyph-name="IJ" unicode="&#x132;" horiz-adv-x="760" 
d="M257 718l-100 -718h-129l97 718h132zM728 718l-68 -507q-8 -62 -20.5 -106t-34.5 -70q-21 -25 -55.5 -39t-74.5 -14q-66 0 -124 37.5t-95 108.5l107 65q26 -41 54 -62t52 -21q31 0 39.5 24.5t14.5 69.5l70 514h135z" />
    <glyph glyph-name="ij" unicode="&#x133;" horiz-adv-x="500" 
d="M158 749q34 0 57.5 -23.5t23.5 -57.5t-23.5 -57.5t-57.5 -23.5t-57 23.5t-23 57.5t23 57.5t57 23.5zM410 749q34 0 57.5 -23.5t23.5 -57.5t-23.5 -57.5t-57.5 -23.5t-57 24t-23 57t23 57t57 24zM206 531l-71 -531h-130l73 531h128zM457 531l-63 -470q-11 -86 -25 -143.5
t-51 -90.5q-39 -34 -93 -34q-23 0 -43 5t-37 13l16 117q8 -5 17 -10t23 -5q28 0 40 31t21 100l65 487h130z" />
    <glyph glyph-name="Jcircumflex" unicode="&#x134;" horiz-adv-x="480" 
d="M466 908l126 -140h-145l-44 65l-64 -65h-146l166 140h107zM449 718l-68 -507q-8 -62 -20.5 -106t-34.5 -70q-21 -25 -55.5 -39t-74.5 -14q-66 0 -124 37.5t-95 108.5l107 65q26 -41 54 -62t52 -21q31 0 39.5 24.5t14.5 69.5l70 514h135z" />
    <glyph glyph-name="jcircumflex" unicode="&#x135;" horiz-adv-x="260" 
d="M237 751l126 -140h-145l-44 65l-64 -65h-146l166 140h107zM217 531l-63 -470q-11 -86 -25 -143.5t-51 -90.5q-39 -34 -93 -34q-23 0 -43 5t-37 13l16 117q8 -5 17 -10t23 -5q28 0 40 31t21 100l65 487h130z" />
    <glyph glyph-name="uni0136" unicode="&#x136;" horiz-adv-x="620" 
d="M267 718l-33 -244l231 244h167l-313 -328l248 -390h-151l-203 320l-43 -320h-134l96 718h135zM219 -7q16 1 27.5 1.5t19.5 0.5q57 0 80.5 -22.5t23.5 -53.5q0 -39 -37 -72q-37 -34 -102 -34q-41 0 -92 18l26 64q35 -8 52 -8q56 0 56 39q0 24 -35 24q-11 0 -37 -3z" />
    <glyph glyph-name="uni0137" unicode="&#x137;" horiz-adv-x="580" 
d="M249 736l-52 -390l210 185h179l-269 -237l235 -294h-156l-210 262l-35 -262h-128l98 736h128zM209 -7q16 1 27.5 1.5t19.5 0.5q57 0 80.5 -22.5t23.5 -53.5q0 -39 -37 -72q-37 -34 -102 -34q-41 0 -92 18l26 64q35 -8 52 -8q56 0 56 39q0 24 -35 24q-11 0 -37 -3z" />
    <glyph glyph-name="kgreenlandic" unicode="&#x138;" horiz-adv-x="580" 
d="M221 531l-25 -185l210 185h179l-269 -237l235 -294h-156l-210 262l-35 -262h-128l71 531h128z" />
    <glyph glyph-name="Lacute" unicode="&#x139;" horiz-adv-x="440" 
d="M476 976l-205 -191h-96l143 191h158zM267 718l-81 -596h224l-16 -122h-359l97 718h135z" />
    <glyph glyph-name="lacute" unicode="&#x13a;" horiz-adv-x="240" 
d="M394 994l-205 -191h-96l143 191h158zM235 736l-98 -736h-130l98 736h130z" />
    <glyph glyph-name="uni013B" unicode="&#x13b;" horiz-adv-x="440" 
d="M267 718l-81 -596h224l-16 -122h-359l97 718h135zM155 -7q16 1 27.5 1.5t19.5 0.5q57 0 80.5 -22.5t23.5 -53.5q0 -39 -37 -72q-37 -34 -102 -34q-41 0 -92 18l26 64q35 -8 52 -8q56 0 56 39q0 24 -35 24q-11 0 -37 -3z" />
    <glyph glyph-name="uni013C" unicode="&#x13c;" horiz-adv-x="240" 
d="M235 736l-98 -736h-130l98 736h130zM14 -7q16 1 27.5 1.5t19.5 0.5q57 0 80.5 -22.5t23.5 -53.5q0 -39 -37 -72q-37 -34 -102 -34q-41 0 -92 18l26 64q35 -8 52 -8q56 0 56 39q0 24 -35 24q-11 0 -37 -3z" />
    <glyph glyph-name="Lcaron" unicode="&#x13d;" horiz-adv-x="440" 
d="M268 718l-81 -594h223l-16 -124h-359l97 718h136zM450 718l-8 -61q-6 -49 -24 -98q-18 -50 -76 -114l-43 37q44 56 57 96h-49l21 140h122z" />
    <glyph glyph-name="lcaron" unicode="&#x13e;" horiz-adv-x="240" 
d="M234 736l-98 -736h-130l98 736h130zM375 736l-7 -51q-6 -45 -22 -85q-15 -43 -64 -96l-35 32q35 46 48 82h-42l18 118h104z" />
    <glyph glyph-name="Ldot" unicode="&#x13f;" horiz-adv-x="440" 
d="M268 718l-81 -594h223l-16 -124h-359l97 718h136zM348 427q26 0 43 -17t17 -41q0 -34 -23.5 -58t-56.5 -24q-28 0 -44.5 17t-16.5 44q0 31 24 55t57 24z" />
    <glyph glyph-name="ldot" unicode="&#x140;" horiz-adv-x="343" 
d="M234 736l-97 -736h-130l97 736h130zM287 427q25 0 42.5 -17t17.5 -41q0 -34 -23.5 -58t-56.5 -24q-28 0 -44.5 17t-16.5 44q0 31 24 55t57 24z" />
    <glyph glyph-name="Lslash" unicode="&#x141;" horiz-adv-x="480" 
d="M380 524l-11 -91l-129 -65l-33 -246h223l-15 -122h-359l40 294l-91 -46l12 94l91 45l45 331h135l-35 -257z" />
    <glyph glyph-name="lslash" unicode="&#x142;" horiz-adv-x="320" 
d="M322 502l-12 -95l-86 -48l-48 -359h-130l38 282l-85 -47l13 93l84 47l48 361h130l-37 -282z" />
    <glyph glyph-name="Nacute" unicode="&#x143;" horiz-adv-x="740" 
d="M641 976l-205 -191h-96l143 191h158zM248 718l261 -488l65 488h132l-97 -718h-115l-264 494l-66 -494h-129l95 718h118z" />
    <glyph glyph-name="nacute" unicode="&#x144;" horiz-adv-x="600" 
d="M534 819l-205 -191h-96l143 191h158zM216 478q37 33 74.5 50t80.5 17q35 0 64 -11.5t50 -32.5t32.5 -49.5t11.5 -63.5q0 -22 -3 -45t-6 -45l-40 -298h-129l38 291q2 16 4 33t2 32q0 35 -19.5 52t-49.5 17q-23 0 -48 -12t-43 -33q-29 -33 -39.5 -81t-18.5 -111l-25 -188
h-130l72 531h130z" />
    <glyph glyph-name="uni0145" unicode="&#x145;" horiz-adv-x="740" 
d="M248 718l261 -488l65 488h132l-97 -718h-115l-264 494l-66 -494h-129l95 718h118zM264 -7q16 1 27.5 1.5t19.5 0.5q57 0 80.5 -22.5t23.5 -53.5q0 -39 -37 -72q-37 -34 -102 -34q-41 0 -92 18l26 64q35 -8 52 -8q56 0 56 39q0 24 -35 24q-11 0 -37 -3z" />
    <glyph glyph-name="uni0146" unicode="&#x146;" horiz-adv-x="600" 
d="M216 478q37 33 74.5 50t80.5 17q35 0 64 -11.5t50 -32.5t32.5 -49.5t11.5 -63.5q0 -22 -3 -45t-6 -45l-40 -298h-129l38 291q2 16 4 33t2 32q0 35 -19.5 52t-49.5 17q-23 0 -48 -12t-43 -33q-29 -33 -39.5 -81t-18.5 -111l-25 -188h-130l72 531h130zM194 -7
q16 1 27.5 1.5t19.5 0.5q57 0 80.5 -22.5t23.5 -53.5q0 -39 -37 -72q-37 -34 -102 -34q-41 0 -92 18l26 64q35 -8 52 -8q56 0 56 39q0 24 -35 24q-11 0 -37 -3z" />
    <glyph glyph-name="Ncaron" unicode="&#x147;" horiz-adv-x="740" 
d="M372 768l-126 140h145l45 -65l63 65h146l-166 -140h-107zM248 718l261 -488l65 488h132l-97 -718h-115l-264 494l-66 -494h-129l95 718h118z" />
    <glyph glyph-name="ncaron" unicode="&#x148;" horiz-adv-x="600" 
d="M280 611l-126 140h145l45 -65l63 65h146l-166 -140h-107zM216 478q37 33 74.5 50t80.5 17q35 0 64 -11.5t50 -32.5t32.5 -49.5t11.5 -63.5q0 -22 -3 -45t-6 -45l-40 -298h-129l38 291q2 16 4 33t2 32q0 35 -19.5 52t-49.5 17q-23 0 -48 -12t-43 -33q-29 -33 -39.5 -81
t-18.5 -111l-25 -188h-130l72 531h130z" />
    <glyph glyph-name="napostrophe" unicode="&#x149;" horiz-adv-x="632" 
d="M139 736l-9 -61q-4 -32 -11 -59t-17 -49q-19 -41 -72 -104l-42 37q42 54 57 97h-49l20 139h123zM256 531l-8 -53q74 67 155 67q69 0 113 -44t44 -110q0 -16 -2 -39t-6 -54l-40 -298h-129l38 291q6 44 6 67q0 67 -70 67q-32 0 -66 -23q-32 -23 -50 -63q-17 -43 -32 -151
l-25 -188h-130l72 531h130z" />
    <glyph glyph-name="Eng" unicode="&#x14a;" horiz-adv-x="780" 
d="M254 636q99 100 220 100q107 0 187 -80t80 -231q0 -176 -84 -310q-82 -133 -236 -133q-61 0 -102 24t-75 86l102 75q41 -59 89 -59q70 0 120 89q50 91 50 206q0 102 -45.5 154t-117.5 52q-104 0 -210 -133l-65 -476h-134l97 718h135z" />
    <glyph glyph-name="eng" unicode="&#x14b;" horiz-adv-x="600" 
d="M255 -72q22 -14 40 -14q28 0 40 30t21 100l34 247q6 44 6 66q0 37 -21 52.5t-50 15.5q-35 0 -70 -26q-34 -25 -49 -68q-16 -44 -29 -143l-25 -188h-130l72 531h130l-8 -53q71 67 156 67q69 0 112 -45q44 -44 44 -109q0 -16 -2 -39t-6 -54l-39 -292q-16 -130 -60 -172
q-43 -42 -102 -42q-36 0 -80 19z" />
    <glyph glyph-name="Omacron" unicode="&#x14c;" horiz-adv-x="840" 
d="M354 893h278l-15 -107h-278zM461 736q74 0 136.5 -25t107.5 -69.5t70.5 -106.5t25.5 -136q0 -83 -30 -158.5t-85 -132.5t-133.5 -91t-175.5 -34q-78 0 -140.5 24t-106 67t-67 104t-23.5 134q0 89 31.5 166t88 134.5t133.5 90.5t168 33zM456 611q-63 0 -115 -25t-89 -65.5
t-57.5 -93t-20.5 -107.5q0 -46 14.5 -85t41.5 -67t66 -44t88 -16q61 0 112.5 22.5t89.5 61.5t59.5 90.5t21.5 109.5q0 49 -15 89t-43 69t-67 45t-86 16z" />
    <glyph glyph-name="omacron" unicode="&#x14d;" 
d="M231 736h278l-15 -107h-278zM334 545q55 0 101 -19t79.5 -53.5t52 -82t18.5 -105.5q0 -60 -22.5 -114t-63 -95t-97 -65t-124.5 -24q-58 0 -104.5 18.5t-78 51t-48.5 78t-17 99.5q0 66 24.5 123t66 98.5t96.5 65.5t117 24zM325 420q-39 0 -70 -15t-52 -40t-32.5 -57.5
t-11.5 -67.5q0 -58 33.5 -95.5t94.5 -37.5q39 0 70 14t53 38.5t34 58t12 71.5q0 60 -37 95.5t-94 35.5z" />
    <glyph glyph-name="Obreve" unicode="&#x14e;" horiz-adv-x="840" 
d="M406 922q9 -20 29.5 -30t55.5 -10q32 0 56.5 9.5t39.5 30.5h108q-20 -65 -76 -101t-141 -36q-90 0 -135 37t-45 94v6h108zM461 736q74 0 136.5 -25t107.5 -69.5t70.5 -106.5t25.5 -136q0 -83 -30 -158.5t-85 -132.5t-133.5 -91t-175.5 -34q-78 0 -140.5 24t-106 67
t-67 104t-23.5 134q0 89 31.5 166t88 134.5t133.5 90.5t168 33zM456 611q-63 0 -115 -25t-89 -65.5t-57.5 -93t-20.5 -107.5q0 -46 14.5 -85t41.5 -67t66 -44t88 -16q61 0 112.5 22.5t89.5 61.5t59.5 90.5t21.5 109.5q0 49 -15 89t-43 69t-67 45t-86 16z" />
    <glyph glyph-name="obreve" unicode="&#x14f;" 
d="M284 765q9 -20 29.5 -30t55.5 -10q32 0 56.5 9.5t39.5 30.5h108q-20 -65 -76 -101t-141 -36q-90 0 -135 37t-45 94v6h108zM334 545q55 0 101 -19t79.5 -53.5t52 -82t18.5 -105.5q0 -60 -22.5 -114t-63 -95t-97 -65t-124.5 -24q-58 0 -104.5 18.5t-78 51t-48.5 78
t-17 99.5q0 66 24.5 123t66 98.5t96.5 65.5t117 24zM325 420q-39 0 -70 -15t-52 -40t-32.5 -57.5t-11.5 -67.5q0 -58 33.5 -95.5t94.5 -37.5q39 0 70 14t53 38.5t34 58t12 71.5q0 60 -37 95.5t-94 35.5z" />
    <glyph glyph-name="Ohungarumlaut" unicode="&#x150;" horiz-adv-x="840" 
d="M593 977l-205 -191h-96l144 191h157zM811 977l-205 -191h-96l144 191h157zM461 736q74 0 136.5 -25t107.5 -69.5t70.5 -106.5t25.5 -136q0 -83 -30 -158.5t-85 -132.5t-133.5 -91t-175.5 -34q-78 0 -140.5 24t-106 67t-67 104t-23.5 134q0 89 31.5 166t88 134.5
t133.5 90.5t168 33zM456 611q-63 0 -115 -25t-89 -65.5t-57.5 -93t-20.5 -107.5q0 -46 14.5 -85t41.5 -67t66 -44t88 -16q61 0 112.5 22.5t89.5 61.5t59.5 90.5t21.5 109.5q0 49 -15 89t-43 69t-67 45t-86 16z" />
    <glyph glyph-name="ohungarumlaut" unicode="&#x151;" 
d="M477 820l-205 -191h-96l144 191h157zM695 820l-205 -191h-96l144 191h157zM334 545q55 0 101 -19t79.5 -53.5t52 -82t18.5 -105.5q0 -60 -22.5 -114t-63 -95t-97 -65t-124.5 -24q-58 0 -104.5 18.5t-78 51t-48.5 78t-17 99.5q0 66 24.5 123t66 98.5t96.5 65.5t117 24z
M325 420q-39 0 -70 -15t-52 -40t-32.5 -57.5t-11.5 -67.5q0 -58 33.5 -95.5t94.5 -37.5q39 0 70 14t53 38.5t34 58t12 71.5q0 60 -37 95.5t-94 35.5z" />
    <glyph glyph-name="OE" unicode="&#x152;" horiz-adv-x="1060" 
d="M606 59q-51 -41 -107.5 -58.5t-128.5 -17.5q-79 0 -141.5 24.5t-106 68t-66.5 105t-23 134.5q0 89 32 165.5t88 133.5t132.5 89.5t165.5 32.5q73 0 127.5 -22t105.5 -70l9 74h363l-17 -126h-230l-19 -150h230l-17 -126h-230l-25 -190h232l-18 -126h-365zM449 611
q-59 0 -110.5 -23t-89.5 -62.5t-60 -93t-22 -114.5q0 -46 14.5 -85t41.5 -66.5t65.5 -43t86.5 -15.5q60 0 110.5 22.5t87.5 61t58 91t21 112.5q0 48 -15 88t-42 68.5t-64 44t-82 15.5z" />
    <glyph glyph-name="oe" unicode="&#x153;" horiz-adv-x="1080" 
d="M766 544q55 0 101.5 -19.5t80 -55t52.5 -84t19 -106.5q0 -14 -1 -27t-3 -24h-424q0 -24 8.5 -46t25 -39t41 -27t57.5 -10q76 0 129 50l115 -59q-42 -53 -105 -82t-141 -29q-69 0 -119 22t-92 69q-90 -90 -219 -90q-63 0 -108 15.5t-81 55.5q-31 34 -47 80t-16 98
q0 64 24 120.5t65.5 98.5t95.5 66.5t114 24.5q126 0 205 -99q47 50 104.5 73.5t118.5 23.5zM885 323q-14 49 -48.5 75t-82.5 26q-99 0 -146 -101h277zM330 421q-33 0 -62 -13t-51.5 -37t-35.5 -57t-13 -73q0 -63 34.5 -98.5t94.5 -35.5q39 0 70 15.5t53 41t34 58.5t12 69
q0 27 -10 51t-28 41.5t-43 27.5t-55 10z" />
    <glyph glyph-name="Racute" unicode="&#x154;" horiz-adv-x="580" 
d="M546 976l-205 -191h-96l143 191h158zM284 718q54 0 98 -6.5t86 -35.5q78 -52 78 -152q0 -76 -44.5 -128.5t-134.5 -73.5l157 -322h-140l-153 314h-13l-41 -314h-135l96 718h146zM234 431q40 0 73 3t56 12t36 26.5t13 47.5q0 27 -11.5 41.5t-32 22t-49 9t-63.5 1.5z" />
    <glyph glyph-name="racute" unicode="&#x155;" horiz-adv-x="320" 
d="M408 819l-205 -191h-96l143 191h158zM168 459q52 86 126 86q13 0 21.5 -3t15.5 -6l-47 -118q-3 1 -10 1.5t-12 0.5q-48 0 -74 -55.5t-40 -164.5l-25 -200h-131l69 531h117z" />
    <glyph glyph-name="uni0156" unicode="&#x156;" horiz-adv-x="580" 
d="M284 718q54 0 98 -6.5t86 -35.5q78 -52 78 -152q0 -76 -44.5 -128.5t-134.5 -73.5l157 -322h-140l-153 314h-13l-41 -314h-135l96 718h146zM234 431q40 0 73 3t56 12t36 26.5t13 47.5q0 27 -11.5 41.5t-32 22t-49 9t-63.5 1.5zM214 -7q16 1 27.5 1.5t19.5 0.5
q57 0 80.5 -22.5t23.5 -53.5q0 -39 -37 -72q-37 -34 -102 -34q-41 0 -92 18l26 64q35 -8 52 -8q56 0 56 39q0 24 -35 24q-11 0 -37 -3z" />
    <glyph glyph-name="uni0157" unicode="&#x157;" horiz-adv-x="320" 
d="M168 459q52 86 126 86q13 0 21.5 -3t15.5 -6l-47 -118q-3 1 -10 1.5t-12 0.5q-48 0 -74 -55.5t-40 -164.5l-25 -200h-131l69 531h117zM3 -7q16 1 27.5 1.5t19.5 0.5q57 0 80.5 -22.5t23.5 -53.5q0 -39 -37 -72q-37 -34 -102 -34q-41 0 -92 18l26 64q35 -8 52 -8
q56 0 56 39q0 24 -35 24q-11 0 -37 -3z" />
    <glyph glyph-name="Rcaron" unicode="&#x158;" horiz-adv-x="580" 
d="M292 768l-126 140h145l45 -65l63 65h146l-166 -140h-107zM284 718q54 0 98 -6.5t86 -35.5q78 -52 78 -152q0 -76 -44.5 -128.5t-134.5 -73.5l157 -322h-140l-153 314h-13l-41 -314h-135l96 718h146zM234 431q40 0 73 3t56 12t36 26.5t13 47.5q0 27 -11.5 41.5t-32 22
t-49 9t-63.5 1.5z" />
    <glyph glyph-name="rcaron" unicode="&#x159;" horiz-adv-x="320" 
d="M140 611l-126 140h145l45 -65l63 65h146l-166 -140h-107zM168 459q52 86 126 86q13 0 21.5 -3t15.5 -6l-47 -118q-3 1 -10 1.5t-12 0.5q-48 0 -74 -55.5t-40 -164.5l-25 -200h-131l69 531h117z" />
    <glyph glyph-name="Sacute" unicode="&#x15a;" horiz-adv-x="520" 
d="M516 976l-205 -191h-96l143 191h158zM96 205q31 -48 64.5 -72.5t71.5 -24.5q35 0 58.5 23t23.5 55q0 31 -18.5 58.5t-52.5 62.5q-31 33 -58.5 62t-48 58.5t-32.5 59.5t-12 64q0 36 13.5 69t38.5 59t60.5 41.5t79.5 15.5q127 0 213 -118l-98 -87q-29 36 -56 58t-57 22
q-26 0 -43 -16.5t-17 -37.5q0 -24 21 -52.5t61 -70.5q28 -29 53.5 -57t45.5 -57.5t32 -62t12 -71.5q0 -43 -16 -80t-45 -64.5t-69 -43t-89 -15.5q-147 0 -239 138z" />
    <glyph glyph-name="sacute" unicode="&#x15b;" horiz-adv-x="440" 
d="M454 819l-205 -191h-96l143 191h158zM66 180q27 -36 58 -54.5t62 -18.5q25 0 40.5 12.5t15.5 30.5q0 12 -8 23.5t-20 20.5q-33 25 -62.5 46.5t-51.5 44.5t-35 49t-13 60q0 33 13 60.5t36 47.5t54 31.5t67 11.5q48 0 90.5 -22t72.5 -66l-62 -99q-23 34 -48.5 50.5
t-50.5 16.5q-18 0 -30.5 -8.5t-12.5 -21.5q0 -11 7 -20t16 -16q35 -26 65.5 -48.5t53 -46t35.5 -50.5t13 -63q0 -31 -13 -60.5t-37.5 -52.5t-60 -37t-79.5 -14q-59 0 -103 24t-92 75z" />
    <glyph glyph-name="Scircumflex" unicode="&#x15c;" horiz-adv-x="520" 
d="M389 908l126 -140h-145l-44 65l-64 -65h-146l166 140h107zM96 205q31 -48 64.5 -72.5t71.5 -24.5q35 0 58.5 23t23.5 55q0 31 -18.5 58.5t-52.5 62.5q-31 33 -58.5 62t-48 58.5t-32.5 59.5t-12 64q0 36 13.5 69t38.5 59t60.5 41.5t79.5 15.5q127 0 213 -118l-98 -87
q-29 36 -56 58t-57 22q-26 0 -43 -16.5t-17 -37.5q0 -24 21 -52.5t61 -70.5q28 -29 53.5 -57t45.5 -57.5t32 -62t12 -71.5q0 -43 -16 -80t-45 -64.5t-69 -43t-89 -15.5q-147 0 -239 138z" />
    <glyph glyph-name="scircumflex" unicode="&#x15d;" horiz-adv-x="440" 
d="M327 751l126 -140h-145l-44 65l-64 -65h-146l166 140h107zM66 180q27 -36 58 -54.5t62 -18.5q25 0 40.5 12.5t15.5 30.5q0 12 -8 23.5t-20 20.5q-33 25 -62.5 46.5t-51.5 44.5t-35 49t-13 60q0 33 13 60.5t36 47.5t54 31.5t67 11.5q48 0 90.5 -22t72.5 -66l-62 -99
q-23 34 -48.5 50.5t-50.5 16.5q-18 0 -30.5 -8.5t-12.5 -21.5q0 -11 7 -20t16 -16q35 -26 65.5 -48.5t53 -46t35.5 -50.5t13 -63q0 -31 -13 -60.5t-37.5 -52.5t-60 -37t-79.5 -14q-59 0 -103 24t-92 75z" />
    <glyph glyph-name="uni015E" unicode="&#x15e;" horiz-adv-x="520" 
d="M171 -10q-107 23 -178 131l103 84q31 -48 64.5 -72.5t71.5 -24.5q35 0 58.5 23t23.5 55q0 31 -18.5 58.5t-52.5 62.5q-31 33 -58.5 62t-48 58.5t-32.5 59.5t-12 64q0 36 13.5 69t38.5 59t60.5 41.5t79.5 15.5q127 0 213 -118l-98 -87q-29 36 -56 58t-57 22
q-26 0 -43 -16.5t-17 -37.5q0 -24 21 -52.5t61 -70.5q28 -29 53.5 -57t45.5 -57.5t32 -62t12 -71.5q0 -40 -14 -75.5t-39.5 -62.5t-61.5 -43.5t-80 -20.5q28 -8 42 -25.5t14 -38.5q0 -19 -9 -38t-26.5 -34.5t-43.5 -25t-60 -9.5q-32 0 -57 6.5t-48 17.5l27 62q33 -11 67 -11
q25 0 39.5 11t14.5 28q0 15 -10.5 19t-27.5 4l-25 -1z" />
    <glyph glyph-name="uni015F" unicode="&#x15f;" horiz-adv-x="440" 
d="M132 -8q-41 8 -75 31t-71 63l80 94q27 -36 58 -54.5t62 -18.5q25 0 40.5 12.5t15.5 30.5q0 12 -8 23.5t-20 20.5q-33 25 -62.5 46.5t-51.5 44.5t-35 49t-13 60q0 33 13 60.5t36 47.5t54 31.5t67 11.5q48 0 90.5 -22t72.5 -66l-62 -99q-23 34 -48.5 50.5t-50.5 16.5
q-18 0 -30.5 -8.5t-12.5 -21.5q0 -11 7 -20t16 -16q35 -26 65.5 -48.5t53 -46t35.5 -50.5t13 -63q0 -28 -10.5 -54.5t-31 -48.5t-49.5 -37.5t-66 -20.5l-1 -5q29 -8 44 -25.5t15 -39.5q0 -19 -9 -38t-26.5 -34.5t-43.5 -25t-60 -9.5q-32 0 -57 6.5t-48 17.5l27 62
q33 -11 67 -11q25 0 39.5 11t14.5 28q0 15 -10.5 19t-27.5 4l-25 -1z" />
    <glyph glyph-name="Scaron" unicode="&#x160;" horiz-adv-x="520" 
d="M264 768l-126 140h145l45 -65l63 65h146l-166 -140h-107zM96 205q31 -48 64.5 -72.5t71.5 -24.5q35 0 58.5 23t23.5 55q0 31 -18.5 58.5t-52.5 62.5q-31 33 -58.5 62t-48 58.5t-32.5 59.5t-12 64q0 36 13.5 69t38.5 59t60.5 41.5t79.5 15.5q127 0 213 -118l-98 -87
q-29 36 -56 58t-57 22q-26 0 -43 -16.5t-17 -37.5q0 -24 21 -52.5t61 -70.5q28 -29 53.5 -57t45.5 -57.5t32 -62t12 -71.5q0 -43 -16 -80t-45 -64.5t-69 -43t-89 -15.5q-147 0 -239 138z" />
    <glyph glyph-name="scaron" unicode="&#x161;" horiz-adv-x="440" 
d="M198 611l-126 140h145l45 -65l63 65h146l-166 -140h-107zM66 180q27 -36 58 -54.5t62 -18.5q25 0 40.5 12.5t15.5 30.5q0 12 -8 23.5t-20 20.5q-33 25 -62.5 46.5t-51.5 44.5t-35 49t-13 60q0 33 13 60.5t36 47.5t54 31.5t67 11.5q48 0 90.5 -22t72.5 -66l-62 -99
q-23 34 -48.5 50.5t-50.5 16.5q-18 0 -30.5 -8.5t-12.5 -21.5q0 -11 7 -20t16 -16q35 -26 65.5 -48.5t53 -46t35.5 -50.5t13 -63q0 -31 -13 -60.5t-37.5 -52.5t-60 -37t-79.5 -14q-59 0 -103 24t-92 75z" />
    <glyph glyph-name="uni0162" unicode="&#x162;" horiz-adv-x="420" 
d="M477 718l-16 -126h-152l-78 -592h-134l78 592h-153l17 126h438zM104 -7q16 1 27.5 1.5t19.5 0.5q57 0 80.5 -22.5t23.5 -53.5q0 -39 -37 -72q-37 -34 -102 -34q-41 0 -92 18l26 64q35 -8 52 -8q56 0 56 39q0 24 -35 24q-11 0 -37 -3z" />
    <glyph glyph-name="uni0163" unicode="&#x163;" horiz-adv-x="300" 
d="M251 729l-27 -198h83l-16 -112h-82l-57 -419h-130l57 419h-64l15 112h64l28 198h129zM23 -7q16 1 27.5 1.5t19.5 0.5q57 0 80.5 -22.5t23.5 -53.5q0 -39 -37 -72q-37 -34 -102 -34q-41 0 -92 18l26 64q35 -8 52 -8q56 0 56 39q0 24 -35 24q-11 0 -37 -3z" />
    <glyph glyph-name="Tcaron" unicode="&#x164;" horiz-adv-x="420" 
d="M212 768l-126 140h145l45 -65l63 65h146l-166 -140h-107zM477 718l-16 -126h-152l-78 -592h-134l78 592h-153l17 126h438z" />
    <glyph glyph-name="tcaron" unicode="&#x165;" horiz-adv-x="300" 
d="M434 736l-3 -15q-4 -28 -10.5 -51.5t-14.5 -43.5q-16 -36 -56 -81l-37 31q35 44 45 78h-42l14 82h104zM251 729l-27 -198h83l-16 -112h-82l-57 -419h-131l58 419h-64l15 112h64l28 198h129z" />
    <glyph glyph-name="Tbar" unicode="&#x166;" horiz-adv-x="420" 
d="M399 387l-10 -80h-118l-40 -307h-133l40 307h-118l10 80h118l27 203h-153l17 128h438l-16 -128h-152l-27 -203h117z" />
    <glyph glyph-name="tbar" unicode="&#x167;" horiz-adv-x="300" 
d="M286 298l-11 -77h-93l-30 -221h-131l31 221h-76l11 77h75l17 121h-64l15 112h64l28 198h129l-27 -198h83l-16 -112h-82l-17 -121h94z" />
    <glyph glyph-name="Utilde" unicode="&#x168;" 
d="M263 794q6 46 22.5 72.5t38 36.5t45.5 5t46 -23q24 -20 36.5 -19t17.5 38h73q-6 -45 -22.5 -71.5t-38 -37t-45.5 -5.5t-46 23q-24 20 -36.5 19t-17.5 -38h-73zM261 718l-60 -443q-3 -20 -5 -41t-2 -40q0 -42 25 -64.5t72 -22.5q37 0 59 11.5t35 34t20 55.5t13 76l60 434
h136l-58 -428q-11 -85 -29 -145t-52 -95q-29 -31 -77.5 -49.5t-108.5 -18.5q-106 0 -167.5 56t-61.5 159q0 34 4.5 65t8.5 60l53 396h135z" />
    <glyph glyph-name="utilde" unicode="&#x169;" horiz-adv-x="600" 
d="M217 607q6 46 22.5 72.5t38 36.5t45.5 5t46 -23q24 -20 36.5 -19t17.5 38h73q-6 -45 -22.5 -71.5t-38 -37t-45.5 -5.5t-46 23q-24 20 -36.5 19t-17.5 -38h-73zM225 531l-36 -271q-2 -17 -3.5 -35t-1.5 -32q0 -35 22.5 -59t64.5 -24q31 0 51.5 10t33 30t20 49t12.5 66
l37 266h128l-38 -285q-17 -130 -76.5 -195.5t-170.5 -65.5q-51 0 -90.5 15.5t-66.5 42.5t-41.5 65t-14.5 83q0 33 3.5 68t8.5 70l29 202h129z" />
    <glyph glyph-name="Umacron" unicode="&#x16a;" 
d="M254 893h278l-15 -107h-278zM261 718l-60 -443q-3 -20 -5 -41t-2 -40q0 -42 25 -64.5t72 -22.5q37 0 59 11.5t35 34t20 55.5t13 76l60 434h136l-58 -428q-11 -85 -29 -145t-52 -95q-29 -31 -77.5 -49.5t-108.5 -18.5q-106 0 -167.5 56t-61.5 159q0 34 4.5 65t8.5 60
l53 396h135z" />
    <glyph glyph-name="umacron" unicode="&#x16b;" horiz-adv-x="600" 
d="M211 736h278l-15 -107h-278zM225 531l-36 -271q-2 -17 -3.5 -35t-1.5 -32q0 -35 22.5 -59t64.5 -24q31 0 51.5 10t33 30t20 49t12.5 66l37 266h128l-38 -285q-17 -130 -76.5 -195.5t-170.5 -65.5q-51 0 -90.5 15.5t-66.5 42.5t-41.5 65t-14.5 83q0 33 3.5 68t8.5 70
l29 202h129z" />
    <glyph glyph-name="Ubreve" unicode="&#x16c;" 
d="M306 922q9 -20 29.5 -30t55.5 -10q32 0 56.5 9.5t39.5 30.5h108q-20 -65 -76 -101t-141 -36q-90 0 -135 37t-45 94v6h108zM261 718l-60 -443q-3 -20 -5 -41t-2 -40q0 -42 25 -64.5t72 -22.5q37 0 59 11.5t35 34t20 55.5t13 76l60 434h136l-58 -428q-11 -85 -29 -145
t-52 -95q-29 -31 -77.5 -49.5t-108.5 -18.5q-106 0 -167.5 56t-61.5 159q0 34 4.5 65t8.5 60l53 396h135z" />
    <glyph glyph-name="ubreve" unicode="&#x16d;" horiz-adv-x="600" 
d="M264 765q9 -20 29.5 -30t55.5 -10q32 0 56.5 9.5t39.5 30.5h108q-20 -65 -76 -101t-141 -36q-90 0 -135 37t-45 94v6h108zM225 531l-36 -271q-2 -17 -3.5 -35t-1.5 -32q0 -35 22.5 -59t64.5 -24q31 0 51.5 10t33 30t20 49t12.5 66l37 266h128l-38 -285
q-17 -130 -76.5 -195.5t-170.5 -65.5q-51 0 -90.5 15.5t-66.5 42.5t-41.5 65t-14.5 83q0 33 3.5 68t8.5 70l29 202h129z" />
    <glyph glyph-name="Uring" unicode="&#x16e;" 
d="M393 1000q23 0 42.5 -8.5t33.5 -23t22.5 -34t8.5 -41.5t-8.5 -42t-23 -34t-34 -22.5t-41.5 -8.5t-41.5 8.5t-34 22.5t-23 34t-8.5 42t8.5 41.5t22.5 34t34 23t42 8.5zM393 935q-17 0 -29.5 -12t-12.5 -30q0 -19 12.5 -30.5t29.5 -11.5t29.5 11.5t12.5 30.5q0 18 -12.5 30
t-29.5 12zM261 718l-60 -443q-3 -20 -5 -41t-2 -40q0 -42 25 -64.5t72 -22.5q37 0 59 11.5t35 34t20 55.5t13 76l60 434h136l-58 -428q-11 -85 -29 -145t-52 -95q-29 -31 -77.5 -49.5t-108.5 -18.5q-106 0 -167.5 56t-61.5 159q0 34 4.5 65t8.5 60l53 396h135z" />
    <glyph glyph-name="uring" unicode="&#x16f;" horiz-adv-x="600" 
d="M350 843q23 0 42.5 -8.5t33.5 -23t22.5 -34t8.5 -41.5t-8.5 -42t-23 -34t-34 -22.5t-41.5 -8.5t-41.5 8.5t-34 22.5t-23 34t-8.5 42t8.5 41.5t22.5 34t34 23t42 8.5zM350 778q-17 0 -29.5 -12t-12.5 -30q0 -19 12.5 -30.5t29.5 -11.5t29.5 11.5t12.5 30.5q0 18 -12.5 30
t-29.5 12zM225 531l-36 -271q-2 -17 -3.5 -35t-1.5 -32q0 -35 22.5 -59t64.5 -24q31 0 51.5 10t33 30t20 49t12.5 66l37 266h128l-38 -285q-17 -130 -76.5 -195.5t-170.5 -65.5q-51 0 -90.5 15.5t-66.5 42.5t-41.5 65t-14.5 83q0 33 3.5 68t8.5 70l29 202h129z" />
    <glyph glyph-name="Uhungarumlaut" unicode="&#x170;" 
d="M518 977l-205 -191h-96l144 191h157zM736 977l-205 -191h-96l144 191h157zM261 718l-60 -443q-3 -20 -5 -41t-2 -40q0 -42 25 -64.5t72 -22.5q37 0 59 11.5t35 34t20 55.5t13 76l60 434h136l-58 -428q-11 -85 -29 -145t-52 -95q-29 -31 -77.5 -49.5t-108.5 -18.5
q-106 0 -167.5 56t-61.5 159q0 34 4.5 65t8.5 60l53 396h135z" />
    <glyph glyph-name="uhungarumlaut" unicode="&#x171;" horiz-adv-x="600" 
d="M453 820l-205 -191h-96l144 191h157zM671 820l-205 -191h-96l144 191h157zM225 531l-36 -271q-2 -17 -3.5 -35t-1.5 -32q0 -35 22.5 -59t64.5 -24q31 0 51.5 10t33 30t20 49t12.5 66l37 266h128l-38 -285q-17 -130 -76.5 -195.5t-170.5 -65.5q-51 0 -90.5 15.5
t-66.5 42.5t-41.5 65t-14.5 83q0 33 3.5 68t8.5 70l29 202h129z" />
    <glyph glyph-name="Uogonek" unicode="&#x172;" 
d="M348 -190q-14 -3 -30.5 -5.5t-33.5 -2.5q-28 0 -49.5 6t-37.5 23q-15 16 -17 31t-2 32q0 19 18 44.5t53 46.5q-88 10 -138.5 64t-50.5 148q0 34 4.5 65t8.5 60l53 396h135l-60 -443q-3 -20 -5 -41t-2 -40q0 -42 25 -64.5t72 -22.5q37 0 59 11.5t35 34t20 55.5t13 76
l60 434h136l-58 -428q-11 -85 -29 -145t-52 -95q-26 -26 -65 -43.5t-88 -22.5q-52 -35 -52 -64q0 -21 9.5 -33.5t34.5 -12.5q12 0 24 4t21 9z" />
    <glyph glyph-name="uogonek" unicode="&#x173;" horiz-adv-x="600" 
d="M356 -190q-14 -3 -30.5 -5.5t-33.5 -2.5q-28 0 -49.5 6t-37.5 23q-15 16 -17 31t-2 32q0 19 18.5 44.5t53.5 46.5q-48 1 -86 17t-64 43.5t-39.5 64.5t-13.5 81q0 33 3.5 68t8.5 70l29 202h129l-36 -271q-2 -17 -3.5 -35t-1.5 -32q0 -35 22.5 -59t64.5 -24q31 0 51.5 10
t33 30t20 49t12.5 66l37 266h128l-38 -285q-14 -103 -53.5 -165t-109.5 -84q-74 -42 -74 -77q0 -21 9.5 -33.5t34.5 -12.5q12 0 24 4t21 9z" />
    <glyph glyph-name="Wcircumflex" unicode="&#x174;" horiz-adv-x="900" 
d="M579 908l126 -140h-145l-44 65l-64 -65h-146l166 140h107zM187 718l41 -465l221 465h101l86 -453l159 453h131l-255 -718h-110l-90 476l-225 -476h-118l-64 718h123z" />
    <glyph glyph-name="wcircumflex" unicode="&#x175;" horiz-adv-x="800" 
d="M507 751l126 -140h-145l-44 65l-64 -65h-146l166 140h107zM151 531l74 -284l155 284h51l74 -284l154 284h139l-289 -531h-63l-72 281l-152 -281h-62l-134 531h125z" />
    <glyph glyph-name="Ycircumflex" unicode="&#x176;" horiz-adv-x="620" 
d="M421 908l126 -140h-145l-44 65l-64 -65h-146l166 140h107zM168 718l113 -288l204 288h154l-306 -431l-39 -287h-135l40 287l-167 431h136z" />
    <glyph glyph-name="ycircumflex" unicode="&#x177;" horiz-adv-x="580" 
d="M397 751l126 -140h-145l-44 65l-64 -65h-146l166 140h107zM150 531l103 -315l182 315h140l-417 -725h-138l151 266l-150 459h129z" />
    <glyph glyph-name="Ydieresis" unicode="&#x178;" horiz-adv-x="620" 
d="M264 907q26 0 43 -17.5t17 -41.5q0 -32 -22.5 -56t-57.5 -24q-28 0 -44.5 17t-16.5 43q0 32 24.5 55.5t56.5 23.5zM481 907q26 0 42.5 -17.5t16.5 -41.5q0 -32 -22.5 -56t-57.5 -24q-28 0 -44.5 17t-16.5 43q0 15 6.5 29.5t18 25.5t26.5 17.5t31 6.5zM168 718l113 -288
l204 288h154l-306 -431l-39 -287h-135l40 287l-167 431h136z" />
    <glyph glyph-name="Zacute" unicode="&#x179;" horiz-adv-x="500" 
d="M506 976l-205 -191h-96l143 191h158zM496 718l-286 -592h226l-17 -126h-410l286 592h-223l17 126h407z" />
    <glyph glyph-name="zacute" unicode="&#x17a;" horiz-adv-x="460" 
d="M464 819l-205 -191h-96l143 191h158zM463 531l-272 -409h249l-16 -122h-459l271 409h-209l15 122h421z" />
    <glyph glyph-name="Zdotaccent" unicode="&#x17b;" horiz-adv-x="500" 
d="M325 907q26 0 43 -17.5t17 -41.5q0 -32 -22.5 -56t-57.5 -24q-28 0 -44.5 17t-16.5 43q0 32 24.5 55.5t56.5 23.5zM496 718l-286 -592h226l-17 -126h-410l286 592h-223l17 126h407z" />
    <glyph glyph-name="zdotaccent" unicode="&#x17c;" horiz-adv-x="460" 
d="M283 750q26 0 43 -17.5t17 -41.5q0 -32 -22.5 -56t-57.5 -24q-28 0 -44.5 17t-16.5 43q0 32 24.5 55.5t56.5 23.5zM463 531l-272 -409h249l-16 -122h-459l271 409h-209l15 122h421z" />
    <glyph glyph-name="Zcaron" unicode="&#x17d;" horiz-adv-x="500" 
d="M254 768l-126 140h145l45 -65l63 65h146l-166 -140h-107zM496 718l-286 -592h226l-17 -126h-410l286 592h-223l17 126h407z" />
    <glyph glyph-name="zcaron" unicode="&#x17e;" horiz-adv-x="460" 
d="M208 611l-126 140h145l45 -65l63 65h146l-166 -140h-107zM463 531l-272 -409h249l-16 -122h-459l271 409h-209l15 122h421z" />
    <glyph glyph-name="florin" unicode="&#x192;" horiz-adv-x="560" 
d="M250 578q11 88 44 130t100 42q40 0 67 -11.5t53 -28.5l-16 -117q-17 12 -33.5 20.5t-34.5 8.5q-28 0 -37 -25.5t-15 -67.5l-10 -73h110l-17 -114h-110l-52 -369q-13 -89 -48 -134.5t-98 -45.5q-36 0 -67 12t-63 31l17 118q20 -16 39 -26t39 -10q14 0 22.5 6.5t13 17.5
t7 25t4.5 29l53 346h-111l16 114h111z" />
    <glyph glyph-name="Ohorn" unicode="&#x1a0;" horiz-adv-x="840" 
d="M674 668q60 -45 93.5 -114t33.5 -155q0 -83 -30 -158.5t-85 -132.5t-133.5 -91t-175.5 -34q-78 0 -140.5 24t-106 67t-67 104t-23.5 134q0 89 31.5 166t88 134.5t133.5 90.5t168 33q30 0 58 -4t54 -12q23 3 41.5 21.5t23.5 45.5h112q-6 -33 -26 -64.5t-50 -54.5zM384 108
q61 0 112.5 22.5t89.5 61.5t59.5 90.5t21.5 109.5q0 49 -15 89t-43 69t-67 45t-86 16q-63 0 -115 -25t-89 -65.5t-57.5 -93t-20.5 -107.5q0 -46 14.5 -85t41.5 -67t66 -44t88 -16z" />
    <glyph glyph-name="ohorn" unicode="&#x1a1;" 
d="M600 599q-7 -36 -29.5 -69.5t-55.5 -57.5q33 -34 51.5 -81.5t18.5 -105.5q0 -60 -22.5 -114t-63 -95t-97 -65t-124.5 -24q-58 0 -104.5 18.5t-78 51t-48.5 78t-17 99.5q0 66 24.5 123t66 98.5t96.5 65.5t117 24q46 0 86 -14q25 3 44 21.5t24 46.5h112zM287 107
q39 0 70 14t53 38.5t34 58t12 71.5q0 60 -37 95.5t-94 35.5q-39 0 -70 -15t-52 -40t-32.5 -57.5t-11.5 -67.5q0 -58 33.5 -95.5t94.5 -37.5z" />
    <glyph glyph-name="Uhorn" unicode="&#x1af;" 
d="M725 787q-8 -45 -41 -85.5t-81 -61.5l-47 -350q-11 -85 -29 -145t-52 -95q-29 -31 -77.5 -49.5t-108.5 -18.5q-106 0 -167.5 56t-61.5 159q0 34 4.5 65t8.5 60l53 396h135l-60 -443q-3 -20 -5 -41t-2 -40q0 -42 25 -64.5t72 -22.5q37 0 59 11.5t35 34t20 55.5t13 76
l60 434h60v1q27 0 48 19t27 49h112z" />
    <glyph glyph-name="uhorn" unicode="&#x1b0;" horiz-adv-x="600" 
d="M656 599q-8 -43 -38.5 -81.5t-74.5 -61.5l-28 -210q-17 -130 -76.5 -195.5t-170.5 -65.5q-51 0 -90.5 15.5t-66.5 42.5t-41.5 65t-14.5 83q0 33 3.5 68t8.5 70l29 202h129l-36 -271q-2 -17 -3.5 -35t-1.5 -32q0 -35 22.5 -59t64.5 -24q31 0 51.5 10t33 30t20 49t12.5 66
l37 266h44q27 0 48 19t27 49h112z" />
    <glyph glyph-name="AEacute" unicode="&#x1fc;" horiz-adv-x="900" 
d="M766 976l-205 -191h-96l143 191h158zM867 718l-17 -126h-256l-20 -150h257l-17 -126h-256l-26 -190h257l-16 -126h-388l20 153h-195l-83 -153h-145l389 718h496zM468 634l-191 -355h145z" />
    <glyph glyph-name="aeacute" unicode="&#x1fd;" horiz-adv-x="1080" 
d="M795 819l-205 -191h-96l143 191h158zM610 545l-8 -59q85 60 174 60q52 0 96.5 -21t77.5 -57t52 -83.5t19 -101.5q0 -14 -1.5 -29t-3.5 -28h-433q21 -120 139 -120q39 0 70.5 11t60.5 37l116 -59q-35 -48 -99.5 -78.5t-143.5 -30.5q-55 0 -96 14.5t-83 45.5l-5 -46h-120
l8 56q-33 -36 -72 -53.5t-90 -17.5q-45 0 -80.5 13.5t-66.5 42.5q-38 36 -61 90t-23 113q0 62 23.5 116.5t63 95.5t91 65t108.5 24q48 0 89 -22.5t69 -66.5l11 89h118zM332 425q-36 0 -66 -14.5t-52.5 -39.5t-35 -58.5t-12.5 -71.5q0 -64 36 -102t95 -38q39 0 70 15t53 40
t33.5 58t11.5 69q0 30 -9.5 56t-26.5 45t-42 30t-55 11zM887 322q-14 49 -47.5 74t-81.5 25q-100 0 -156 -99h285z" />
    <glyph glyph-name="Oslashacute" unicode="&#x1fe;" horiz-adv-x="840" 
d="M676 976l-205 -191h-96l143 191h158zM718 628q43 -49 63 -105t20 -123q0 -84 -30 -159.5t-85 -132.5t-133.5 -91t-174.5 -34q-54 0 -101 10t-86 33l-66 -75l-59 49l64 74q-90 92 -90 238q0 89 32 166.5t88.5 134.5t132.5 90t164 33q59 0 110.5 -15t91.5 -42l63 72l59 -51
zM572 579q-26 15 -56 23.5t-62 8.5q-61 0 -112.5 -24.5t-89 -65.5t-58 -93.5t-20.5 -108.5q0 -40 12 -76t35 -65zM281 130q21 -11 48 -16.5t56 -5.5q59 0 110.5 22.5t89.5 61.5t60 90.5t22 109.5q0 75 -39 134z" />
    <glyph glyph-name="oslashacute" unicode="&#x1ff;" horiz-adv-x="660" 
d="M564 819l-205 -191h-96l143 191h158zM538 458q28 -35 42.5 -79.5t14.5 -93.5q0 -60 -22.5 -114.5t-63 -95t-96.5 -64.5t-124 -24q-80 0 -135 31l-75 -86l-57 51l74 85q-56 71 -56 166q0 67 25 124t66.5 98.5t96 65t114.5 23.5q38 0 74.5 -10t63.5 -27l80 91l58 -50z
M394 410q-14 6 -30.5 8t-31.5 2q-37 0 -67 -15t-51.5 -40t-33 -57.5t-11.5 -67.5q0 -38 16 -70zM241 118q13 -5 28 -8t29 -3q39 0 70 14t52.5 39t33.5 58t12 71q0 37 -16 68z" />
    <glyph glyph-name="uni0218" unicode="&#x218;" horiz-adv-x="520" 
d="M159 -7q-98 26 -166 128l103 84q31 -48 64.5 -72.5t71.5 -24.5q35 0 58.5 23t23.5 55q0 31 -18.5 58.5t-52.5 62.5q-31 33 -58.5 62t-48 58.5t-32.5 59.5t-12 64q0 36 13.5 69t38.5 59t60.5 41.5t79.5 15.5q127 0 213 -118l-98 -87q-29 36 -56 58t-57 22q-26 0 -43 -16.5
t-17 -37.5q0 -24 21 -52.5t61 -70.5q28 -29 53.5 -57t45.5 -57.5t32 -62t12 -71.5t-13.5 -73.5t-37.5 -61t-58.5 -44t-76.5 -22.5q24 -10 34.5 -27.5t10.5 -38.5q0 -39 -37 -72q-37 -34 -102 -34q-41 0 -92 18l26 64q35 -8 52 -8q56 0 56 39q0 24 -35 24q-11 0 -37 -3z" />
    <glyph glyph-name="uni0219" unicode="&#x219;" horiz-adv-x="440" 
d="M132 -8q-40 8 -74 31t-72 63l80 94q27 -36 58 -54.5t62 -18.5q25 0 40.5 12.5t15.5 30.5q0 12 -8 23.5t-20 20.5q-33 25 -62.5 46.5t-51.5 44.5t-35 49t-13 60q0 33 13 60.5t36 47.5t54 31.5t67 11.5q48 0 90.5 -22t72.5 -66l-62 -99q-23 34 -48.5 50.5t-50.5 16.5
q-18 0 -30.5 -8.5t-12.5 -21.5q0 -11 7 -20t16 -16q35 -26 65.5 -48.5t53 -46t35.5 -50.5t13 -63q0 -27 -10 -53t-29.5 -48t-47 -37.5t-62.5 -21.5q33 -8 47.5 -28t14.5 -44q0 -39 -37 -72q-37 -34 -102 -34q-41 0 -92 18l26 64q35 -8 52 -8q56 0 56 39q0 24 -35 24
q-11 0 -37 -3z" />
    <glyph glyph-name="uni021A" unicode="&#x21a;" horiz-adv-x="420" 
d="M477 718l-16 -126h-152l-78 -592h-134l78 592h-153l17 126h438zM104 -7q16 1 27.5 1.5t19.5 0.5q57 0 80.5 -22.5t23.5 -53.5q0 -39 -37 -72q-37 -34 -102 -34q-41 0 -92 18l26 64q35 -8 52 -8q56 0 56 39q0 24 -35 24q-11 0 -37 -3z" />
    <glyph glyph-name="uni021B" unicode="&#x21b;" horiz-adv-x="300" 
d="M251 729l-27 -198h83l-16 -112h-82l-57 -419h-130l57 419h-64l15 112h64l28 198h129zM23 -7q16 1 27.5 1.5t19.5 0.5q57 0 80.5 -22.5t23.5 -53.5q0 -39 -37 -72q-37 -34 -102 -34q-41 0 -92 18l26 64q35 -8 52 -8q56 0 56 39q0 24 -35 24q-11 0 -37 -3z" />
    <glyph glyph-name="circumflex" unicode="&#x2c6;" horiz-adv-x="540" 
d="M385 751l126 -140h-145l-44 65l-64 -65h-146l166 140h107z" />
    <glyph glyph-name="caron" unicode="&#x2c7;" horiz-adv-x="540" 
d="M247 611l-126 140h145l45 -65l63 65h146l-166 -140h-107z" />
    <glyph glyph-name="uni02C9" unicode="&#x2c9;" horiz-adv-x="420" 
d="M174 736h278l-15 -107h-278z" />
    <glyph glyph-name="breve" unicode="&#x2d8;" horiz-adv-x="480" 
d="M196 765q9 -20 29.5 -30t55.5 -10q32 0 56.5 9.5t39.5 30.5h108q-20 -65 -76 -101t-141 -36q-90 0 -135 37t-45 94v6h108z" />
    <glyph glyph-name="dotaccent" unicode="&#x2d9;" horiz-adv-x="280" 
d="M192 750q26 0 43 -17.5t17 -41.5q0 -32 -22.5 -56t-57.5 -24q-28 0 -44.5 17t-16.5 43q0 32 24.5 55.5t56.5 23.5z" />
    <glyph glyph-name="ring" unicode="&#x2da;" horiz-adv-x="360" 
d="M233 843q23 0 42.5 -8.5t33.5 -23t22.5 -34t8.5 -41.5t-8.5 -42t-23 -34t-34 -22.5t-41.5 -8.5t-41.5 8.5t-34 22.5t-23 34t-8.5 42t8.5 41.5t22.5 34t34 23t42 8.5zM233 778q-17 0 -29.5 -12t-12.5 -30q0 -19 12.5 -30.5t29.5 -11.5t29.5 11.5t12.5 30.5q0 18 -12.5 30
t-29.5 12z" />
    <glyph glyph-name="ogonek" unicode="&#x2db;" horiz-adv-x="340" 
d="M234 -190q-14 -3 -30.5 -5.5t-33.5 -2.5q-28 0 -49.5 6t-37.5 23q-15 16 -17 31t-2 32q0 23 26 54t75 52h71q-80 -45 -80 -80q0 -21 9.5 -33.5t34.5 -12.5q12 0 24 4t21 9z" />
    <glyph glyph-name="tilde" unicode="&#x2dc;" horiz-adv-x="480" 
d="M212 655q-50 0 -91 -25l-42 80q29 18 60.5 32.5t73.5 14.5q18 0 35.5 -4t35.5 -9t35.5 -9t34.5 -4q41 0 88 25l40 -76q-25 -18 -54 -35t-74 -17q-20 0 -38.5 4t-35.5 9.5t-34 9.5t-34 4z" />
    <glyph glyph-name="hungarumlaut" unicode="&#x2dd;" horiz-adv-x="700" 
d="M550 820l-205 -191h-96l144 191h157zM768 820l-205 -191h-96l144 191h157z" />
    <glyph glyph-name="gravecomb" unicode="&#x300;" horiz-adv-x="0" 
d="M-298 717h108l50 -112h-86z" />
    <glyph glyph-name="acutecomb" unicode="&#x301;" horiz-adv-x="0" 
d="M-84 717l-104 -112h-86l82 112h108z" />
    <glyph glyph-name="uni0302" unicode="&#x302;" horiz-adv-x="0" 
d="M-278 600h-91l104 116h93l72 -116h-91l-34 61z" />
    <glyph glyph-name="tildecomb" unicode="&#x303;" horiz-adv-x="0" 
d="M-363 606q6 46 22.5 72.5t38 36.5t45.5 5t46 -23q24 -20 36.5 -19t17.5 38h73q-6 -45 -22.5 -71.5t-38 -37t-45.5 -5.5t-46 23q-24 20 -36.5 19t-17.5 -38h-73z" />
    <glyph glyph-name="uni0306" unicode="&#x306;" horiz-adv-x="0" 
d="M-230 592q-62 0 -92.5 30t-22.5 86h81q-6 -49 43 -49q23 0 38 12t18 37h81q-8 -56 -46 -86t-100 -30z" />
    <glyph glyph-name="hookabovecomb" unicode="&#x309;" horiz-adv-x="0" 
d="M-160 773q35 0 57.5 -21.5t17.5 -53.5q-3 -19 -14.5 -34.5t-31.5 -31.5q-19 -14 -24 -22t-5 -17h-71q0 34 39 64q16 13 22.5 20.5t7.5 13.5q1 13 -10 13q-9 0 -13 -6t-6 -25h-74l2 13q5 38 34.5 62.5t68.5 24.5z" />
    <glyph glyph-name="uni031B" unicode="&#x31b;" horiz-adv-x="0" 
d="M-264 531q27 0 48 19t27 49h112q-6 -31 -24 -61t-45 -53t-61 -37t-71 -14z" />
    <glyph glyph-name="dotbelowcomb" unicode="&#x323;" horiz-adv-x="0" 
d="M-88 -53q26 0 43 -17.5t17 -41.5q0 -32 -22.5 -56t-57.5 -24q-28 0 -44.5 17t-16.5 43q0 32 24.5 55.5t56.5 23.5z" />
    <glyph glyph-name="uni03A9" unicode="&#x3a9;" horiz-adv-x="716" 
d="M411 109q19 19 38.5 43.5t35.5 56.5t26.5 72.5t10.5 90.5q0 49 -10.5 89.5t-31 70t-51 46t-69.5 16.5q-38 0 -69 -16.5t-53 -46t-34 -71t-12 -91.5t10.5 -90t26.5 -71.5t36 -56t39 -42.5v-109h-255v109h145q-24 19 -49.5 44.5t-47.5 60.5t-36 80.5t-14 104.5
q0 68 23 125.5t64.5 99t100 65t128.5 23.5q75 0 132 -23.5t95.5 -65.5t58 -98.5t19.5 -122.5q0 -53 -12.5 -97t-33 -80t-47.5 -64.5t-56 -51.5h147v-109h-255v109z" />
    <glyph glyph-name="uni03BC" unicode="&#x3bc;" horiz-adv-x="576" 
d="M351 62q-23 -35 -51.5 -55.5t-69.5 -20.5q-68 0 -97 72l-38 -252h-129l109 725h129l-42 -279q-2 -14 -4 -29.5t-2 -28.5q0 -41 26.5 -68t67.5 -27q57 0 94 50q19 25 25 51.5t11 55.5l42 275h128l-79 -531h-129z" />
    <glyph glyph-name="pi" unicode="&#x3c0;" horiz-adv-x="663" 
d="M631 13q-17 -11 -40.5 -16.5t-55.5 -5.5q-41 0 -68.5 13t-44.5 35t-24.5 51t-7.5 60v252h-94v-250q0 -54 -4.5 -89.5t-13.5 -62.5h-138q11 33 15.5 74.5t4.5 89.5v238q-20 0 -47 -6.5t-44 -17.5l-37 85q23 14 65.5 25.5t97.5 11.5h429v-98h-99v-234q0 -35 10.5 -57.5
t39.5 -22.5q11 0 18.5 3t14.5 7z" />
    <glyph glyph-name="Wgrave" unicode="&#x1e80;" horiz-adv-x="900" 
d="M520 976l89 -191h-95l-151 191h157zM187 718l41 -465l221 465h101l86 -453l159 453h131l-255 -718h-110l-90 476l-225 -476h-118l-64 718h123z" />
    <glyph glyph-name="wgrave" unicode="&#x1e81;" horiz-adv-x="800" 
d="M448 819l89 -191h-95l-151 191h157zM151 531l74 -284l155 284h51l74 -284l154 284h139l-289 -531h-63l-72 281l-152 -281h-62l-134 531h125z" />
    <glyph glyph-name="Wacute" unicode="&#x1e82;" horiz-adv-x="900" 
d="M706 976l-205 -191h-96l143 191h158zM187 718l41 -465l221 465h101l86 -453l159 453h131l-255 -718h-110l-90 476l-225 -476h-118l-64 718h123z" />
    <glyph glyph-name="wacute" unicode="&#x1e83;" horiz-adv-x="800" 
d="M634 819l-205 -191h-96l143 191h158zM151 531l74 -284l155 284h51l74 -284l154 284h139l-289 -531h-63l-72 281l-152 -281h-62l-134 531h125z" />
    <glyph glyph-name="Wdieresis" unicode="&#x1e84;" horiz-adv-x="900" 
d="M417 907q26 0 43 -17.5t17 -41.5q0 -32 -22.5 -56t-57.5 -24q-28 0 -44.5 17t-16.5 43q0 32 24.5 55.5t56.5 23.5zM634 907q26 0 42.5 -17.5t16.5 -41.5q0 -32 -22.5 -56t-57.5 -24q-28 0 -44.5 17t-16.5 43q0 15 6.5 29.5t18 25.5t26.5 17.5t31 6.5zM187 718l41 -465
l221 465h101l86 -453l159 453h131l-255 -718h-110l-90 476l-225 -476h-118l-64 718h123z" />
    <glyph glyph-name="wdieresis" unicode="&#x1e85;" horiz-adv-x="800" 
d="M345 750q26 0 43 -17.5t17 -41.5q0 -32 -22.5 -56t-57.5 -24q-28 0 -44.5 17t-16.5 43q0 32 24.5 55.5t56.5 23.5zM562 750q26 0 42.5 -17.5t16.5 -41.5q0 -32 -22.5 -56t-57.5 -24q-28 0 -44.5 17t-16.5 43q0 15 6.5 29.5t18 25.5t26.5 17.5t31 6.5zM151 531l74 -284
l155 284h51l74 -284l154 284h139l-289 -531h-63l-72 281l-152 -281h-62l-134 531h125z" />
    <glyph glyph-name="uni1EA0" unicode="&#x1ea0;" horiz-adv-x="740" 
d="M490 718l178 -718h-131l-38 154h-283l-83 -154h-145l388 718h114zM409 516l-127 -236h185zM327 -53q26 0 43 -17.5t17 -41.5q0 -32 -22.5 -56t-57.5 -24q-28 0 -44.5 17t-16.5 43q0 32 24.5 55.5t56.5 23.5z" />
    <glyph glyph-name="uni1EA1" unicode="&#x1ea1;" horiz-adv-x="660" 
d="M420 57q-37 -35 -73 -53t-89 -18q-52 0 -94.5 20.5t-72.5 56t-46.5 82.5t-16.5 99q0 61 23 115.5t62 96t90.5 65.5t109.5 24q49 0 90.5 -22.5t67.5 -65.5l10 74h130l-69 -531h-129zM288 102q40 0 71.5 16t53 42t32.5 58.5t11 66.5q0 60 -35.5 100t-97.5 40
q-34 0 -64.5 -13.5t-53 -37.5t-35.5 -58t-13 -75q0 -63 36 -101t95 -38zM287 -53q26 0 43 -17.5t17 -41.5q0 -32 -22.5 -56t-57.5 -24q-28 0 -44.5 17t-16.5 43q0 32 24.5 55.5t56.5 23.5z" />
    <glyph glyph-name="uni1EA2" unicode="&#x1ea2;" horiz-adv-x="740" 
d="M471 961q35 0 57.5 -21.5t17.5 -53.5q-3 -19 -14.5 -34.5t-31.5 -31.5q-19 -14 -24 -22t-5 -17h-71q0 34 39 64q16 13 22.5 20.5t7.5 13.5q1 13 -10 13q-9 0 -13 -6t-6 -25h-74l2 13q5 38 34.5 62.5t68.5 24.5zM490 718l178 -718h-131l-38 154h-283l-83 -154h-145
l388 718h114zM409 516l-127 -236h185z" />
    <glyph glyph-name="uni1EA3" unicode="&#x1ea3;" horiz-adv-x="660" 
d="M405 774q35 0 57.5 -21.5t17.5 -53.5q-3 -19 -14.5 -34.5t-31.5 -31.5q-19 -14 -24 -22t-5 -17h-71q0 34 39 64q16 13 22.5 20.5t7.5 13.5q1 13 -10 13q-9 0 -13 -6t-6 -25h-74l2 13q5 38 34.5 62.5t68.5 24.5zM420 57q-37 -35 -73 -53t-89 -18q-52 0 -94.5 20.5
t-72.5 56t-46.5 82.5t-16.5 99q0 61 23 115.5t62 96t90.5 65.5t109.5 24q49 0 90.5 -22.5t67.5 -65.5l10 74h130l-69 -531h-129zM288 102q40 0 71.5 16t53 42t32.5 58.5t11 66.5q0 60 -35.5 100t-97.5 40q-34 0 -64.5 -13.5t-53 -37.5t-35.5 -58t-13 -75q0 -63 36 -101
t95 -38z" />
    <glyph glyph-name="uni1EA4" unicode="&#x1ea4;" horiz-adv-x="740" 
d="M651 952l-82 -112h86l104 112h-108zM395 788h-91l104 116h93l72 -116h-91l-34 61zM490 718l178 -718h-131l-38 154h-283l-83 -154h-145l388 718h114zM409 516l-127 -236h185z" />
    <glyph glyph-name="uni1EA5" unicode="&#x1ea5;" horiz-adv-x="660" 
d="M585 765l-82 -112h86l104 112h-108zM329 601h-91l104 116h93l72 -116h-91l-34 61zM420 57q-37 -35 -73 -53t-89 -18q-52 0 -94.5 20.5t-72.5 56t-46.5 82.5t-16.5 99q0 61 23 115.5t62 96t90.5 65.5t109.5 24q49 0 90.5 -22.5t67.5 -65.5l10 74h130l-69 -531h-129z
M288 102q40 0 71.5 16t53 42t32.5 58.5t11 66.5q0 60 -35.5 100t-97.5 40q-34 0 -64.5 -13.5t-53 -37.5t-35.5 -58t-13 -75q0 -63 36 -101t95 -38z" />
    <glyph glyph-name="uni1EA6" unicode="&#x1ea6;" horiz-adv-x="740" 
d="M591 849h86l-51 112h-108zM397 788h-91l104 116h93l72 -116h-91l-34 61zM490 718l178 -718h-131l-38 154h-283l-83 -154h-145l388 718h114zM409 516l-127 -236h185z" />
    <glyph glyph-name="uni1EA7" unicode="&#x1ea7;" horiz-adv-x="660" 
d="M525 662h86l-51 112h-108zM331 601h-91l104 116h93l72 -116h-91l-34 61zM420 57q-37 -35 -73 -53t-89 -18q-52 0 -94.5 20.5t-72.5 56t-46.5 82.5t-16.5 99q0 61 23 115.5t62 96t90.5 65.5t109.5 24q49 0 90.5 -22.5t67.5 -65.5l10 74h130l-69 -531h-129zM288 102
q40 0 71.5 16t53 42t32.5 58.5t11 66.5q0 60 -35.5 100t-97.5 40q-34 0 -64.5 -13.5t-53 -37.5t-35.5 -58t-13 -75q0 -63 36 -101t95 -38z" />
    <glyph glyph-name="uni1EA8" unicode="&#x1ea8;" horiz-adv-x="740" 
d="M649 1012q35 0 57 -21.5t17 -53.5q-2 -19 -13.5 -34.5t-32.5 -31.5q-19 -14 -24 -22t-5 -17h-71q0 34 39 64q17 13 23 20.5t7 13.5q1 13 -10 13q-9 0 -12.5 -6t-5.5 -25h-74l1 13q5 38 35 62.5t69 24.5zM395 788h-91l104 116h93l72 -116h-91l-34 61zM490 718l178 -718
h-131l-38 154h-283l-83 -154h-145l388 718h114zM409 516l-127 -236h185z" />
    <glyph glyph-name="uni1EA9" unicode="&#x1ea9;" horiz-adv-x="660" 
d="M583 825q35 0 57 -21.5t17 -53.5q-2 -19 -13.5 -34.5t-32.5 -31.5q-19 -14 -24 -22t-5 -17h-71q0 34 39 64q17 13 23 20.5t7 13.5q1 13 -10 13q-9 0 -12.5 -6t-5.5 -25h-74l1 13q5 38 35 62.5t69 24.5zM329 601h-91l104 116h93l72 -116h-91l-34 61zM420 57
q-37 -35 -73 -53t-89 -18q-52 0 -94.5 20.5t-72.5 56t-46.5 82.5t-16.5 99q0 61 23 115.5t62 96t90.5 65.5t109.5 24q49 0 90.5 -22.5t67.5 -65.5l10 74h130l-69 -531h-129zM288 102q40 0 71.5 16t53 42t32.5 58.5t11 66.5q0 60 -35.5 100t-97.5 40q-34 0 -64.5 -13.5
t-53 -37.5t-35.5 -58t-13 -75q0 -63 36 -101t95 -38z" />
    <glyph glyph-name="uni1EAA" unicode="&#x1eaa;" horiz-adv-x="740" 
d="M330 923q6 46 22.5 72t37.5 36t45.5 5t46.5 -22q24 -20 37 -19t18 38h73q-6 -45 -22.5 -71.5t-37.5 -36.5t-45 -5t-47 22q-25 20 -37.5 19t-17.5 -38h-73zM400 788h-91l104 116h93l72 -116h-91l-34 61zM490 718l178 -718h-131l-38 154h-283l-83 -154h-145l388 718h114z
M409 516l-127 -236h185z" />
    <glyph glyph-name="uni1EAB" unicode="&#x1eab;" horiz-adv-x="660" 
d="M264 736q6 46 22.5 72t37.5 36t45.5 5t46.5 -22q24 -20 37 -19t18 38h73q-6 -45 -22.5 -71.5t-37.5 -36.5t-45 -5t-47 22q-25 20 -37.5 19t-17.5 -38h-73zM334 601h-91l104 116h93l72 -116h-91l-34 61zM420 57q-37 -35 -73 -53t-89 -18q-52 0 -94.5 20.5t-72.5 56
t-46.5 82.5t-16.5 99q0 61 23 115.5t62 96t90.5 65.5t109.5 24q49 0 90.5 -22.5t67.5 -65.5l10 74h130l-69 -531h-129zM288 102q40 0 71.5 16t53 42t32.5 58.5t11 66.5q0 60 -35.5 100t-97.5 40q-34 0 -64.5 -13.5t-53 -37.5t-35.5 -58t-13 -75q0 -63 36 -101t95 -38z" />
    <glyph glyph-name="uni1EAC" unicode="&#x1eac;" horiz-adv-x="740" 
d="M400 788h-91l104 116h93l72 -116h-91l-34 61zM490 718l178 -718h-131l-38 154h-283l-83 -154h-145l388 718h114zM409 516l-127 -236h185zM327 -53q26 0 43 -17.5t17 -41.5q0 -32 -22.5 -56t-57.5 -24q-28 0 -44.5 17t-16.5 43q0 32 24.5 55.5t56.5 23.5z" />
    <glyph glyph-name="uni1EAD" unicode="&#x1ead;" horiz-adv-x="660" 
d="M334 601h-91l104 116h93l72 -116h-91l-34 61zM420 57q-37 -35 -73 -53t-89 -18q-52 0 -94.5 20.5t-72.5 56t-46.5 82.5t-16.5 99q0 61 23 115.5t62 96t90.5 65.5t109.5 24q49 0 90.5 -22.5t67.5 -65.5l10 74h130l-69 -531h-129zM288 102q40 0 71.5 16t53 42t32.5 58.5
t11 66.5q0 60 -35.5 100t-97.5 40q-34 0 -64.5 -13.5t-53 -37.5t-35.5 -58t-13 -75q0 -63 36 -101t95 -38zM287 -53q26 0 43 -17.5t17 -41.5q0 -32 -22.5 -56t-57.5 -24q-28 0 -44.5 17t-16.5 43q0 32 24.5 55.5t56.5 23.5z" />
    <glyph glyph-name="uni1EAE" unicode="&#x1eae;" horiz-adv-x="740" 
d="M501 1024l-82 -112h86l104 112h-108zM443 780q-62 0 -92.5 30t-22.5 86h81q-6 -49 43 -49q23 0 38 12t18 37h81q-8 -56 -46 -86t-100 -30zM490 718l178 -718h-131l-38 154h-283l-83 -154h-145l388 718h114zM409 516l-127 -236h185z" />
    <glyph glyph-name="uni1EAF" unicode="&#x1eaf;" horiz-adv-x="660" 
d="M435 837l-82 -112h86l104 112h-108zM377 593q-62 0 -92.5 30t-22.5 86h81q-6 -49 43 -49q23 0 38 12t18 37h81q-8 -56 -46 -86t-100 -30zM420 57q-37 -35 -73 -53t-89 -18q-52 0 -94.5 20.5t-72.5 56t-46.5 82.5t-16.5 99q0 61 23 115.5t62 96t90.5 65.5t109.5 24
q49 0 90.5 -22.5t67.5 -65.5l10 74h130l-69 -531h-129zM288 102q40 0 71.5 16t53 42t32.5 58.5t11 66.5q0 60 -35.5 100t-97.5 40q-34 0 -64.5 -13.5t-53 -37.5t-35.5 -58t-13 -75q0 -63 36 -101t95 -38z" />
    <glyph glyph-name="uni1EB0" unicode="&#x1eb0;" horiz-adv-x="740" 
d="M417 911h86l-51 112h-108zM445 780q-62 0 -92.5 30t-22.5 86h81q-6 -49 43 -49q23 0 38 12t18 37h81q-8 -56 -46 -86t-100 -30zM490 718l178 -718h-131l-38 154h-283l-83 -154h-145l388 718h114zM409 516l-127 -236h185z" />
    <glyph glyph-name="uni1EB1" unicode="&#x1eb1;" horiz-adv-x="660" 
d="M351 724h86l-51 112h-108zM379 593q-62 0 -92.5 30t-22.5 86h81q-6 -49 43 -49q23 0 38 12t18 37h81q-8 -56 -46 -86t-100 -30zM420 57q-37 -35 -73 -53t-89 -18q-52 0 -94.5 20.5t-72.5 56t-46.5 82.5t-16.5 99q0 61 23 115.5t62 96t90.5 65.5t109.5 24q49 0 90.5 -22.5
t67.5 -65.5l10 74h130l-69 -531h-129zM288 102q40 0 71.5 16t53 42t32.5 58.5t11 66.5q0 60 -35.5 100t-97.5 40q-34 0 -64.5 -13.5t-53 -37.5t-35.5 -58t-13 -75q0 -63 36 -101t95 -38z" />
    <glyph glyph-name="uni1EB2" unicode="&#x1eb2;" horiz-adv-x="740" 
d="M498 1089q35 0 57 -21.5t17 -53.5q-2 -19 -13.5 -34.5t-32.5 -31.5q-19 -14 -24 -22t-5 -17h-71q0 34 39 64q17 13 23 20.5t7 13.5q1 13 -10 13q-9 0 -12.5 -6t-5.5 -25h-74l1 13q5 38 35 62.5t69 24.5zM443 780q-62 0 -92.5 30t-22.5 86h81q-6 -49 43 -49q23 0 38 12
t18 37h81q-8 -56 -46 -86t-100 -30zM490 718l178 -718h-131l-38 154h-283l-83 -154h-145l388 718h114zM409 516l-127 -236h185z" />
    <glyph glyph-name="uni1EB3" unicode="&#x1eb3;" horiz-adv-x="660" 
d="M432 902q35 0 57 -21.5t17 -53.5q-2 -19 -13.5 -34.5t-32.5 -31.5q-19 -14 -24 -22t-5 -17h-71q0 34 39 64q17 13 23 20.5t7 13.5q1 13 -10 13q-9 0 -12.5 -6t-5.5 -25h-74l1 13q5 38 35 62.5t69 24.5zM377 593q-62 0 -92.5 30t-22.5 86h81q-6 -49 43 -49q23 0 38 12
t18 37h81q-8 -56 -46 -86t-100 -30zM420 57q-37 -35 -73 -53t-89 -18q-52 0 -94.5 20.5t-72.5 56t-46.5 82.5t-16.5 99q0 61 23 115.5t62 96t90.5 65.5t109.5 24q49 0 90.5 -22.5t67.5 -65.5l10 74h130l-69 -531h-129zM288 102q40 0 71.5 16t53 42t32.5 58.5t11 66.5
q0 60 -35.5 100t-97.5 40q-34 0 -64.5 -13.5t-53 -37.5t-35.5 -58t-13 -75q0 -63 36 -101t95 -38z" />
    <glyph glyph-name="uni1EB4" unicode="&#x1eb4;" horiz-adv-x="740" 
d="M331 921q6 46 22.5 72t37.5 36t45.5 5t46.5 -22q24 -20 36.5 -19t17.5 38h73q-6 -45 -22 -71.5t-37 -36.5t-45 -5t-47 22q-25 20 -37.5 19t-17.5 -38h-73zM444 780q-62 0 -92.5 30t-22.5 86h81q-6 -49 43 -49q23 0 38 12t18 37h81q-8 -56 -46 -86t-100 -30zM490 718
l178 -718h-131l-38 154h-283l-83 -154h-145l388 718h114zM409 516l-127 -236h185z" />
    <glyph glyph-name="uni1EB5" unicode="&#x1eb5;" horiz-adv-x="660" 
d="M265 734q6 46 22.5 72t37.5 36t45.5 5t46.5 -22q24 -20 36.5 -19t17.5 38h73q-6 -45 -22 -71.5t-37 -36.5t-45 -5t-47 22q-25 20 -37.5 19t-17.5 -38h-73zM378 593q-62 0 -92.5 30t-22.5 86h81q-6 -49 43 -49q23 0 38 12t18 37h81q-8 -56 -46 -86t-100 -30zM420 57
q-37 -35 -73 -53t-89 -18q-52 0 -94.5 20.5t-72.5 56t-46.5 82.5t-16.5 99q0 61 23 115.5t62 96t90.5 65.5t109.5 24q49 0 90.5 -22.5t67.5 -65.5l10 74h130l-69 -531h-129zM288 102q40 0 71.5 16t53 42t32.5 58.5t11 66.5q0 60 -35.5 100t-97.5 40q-34 0 -64.5 -13.5
t-53 -37.5t-35.5 -58t-13 -75q0 -63 36 -101t95 -38z" />
    <glyph glyph-name="uni1EB6" unicode="&#x1eb6;" horiz-adv-x="740" 
d="M443 780q-62 0 -92.5 30t-22.5 86h81q-6 -49 43 -49q23 0 38 12t18 37h81q-8 -56 -46 -86t-100 -30zM490 718l178 -718h-131l-38 154h-283l-83 -154h-145l388 718h114zM409 516l-127 -236h185zM327 -53q26 0 43 -17.5t17 -41.5q0 -32 -22.5 -56t-57.5 -24q-28 0 -44.5 17
t-16.5 43q0 32 24.5 55.5t56.5 23.5z" />
    <glyph glyph-name="uni1EB7" unicode="&#x1eb7;" horiz-adv-x="660" 
d="M377 593q-62 0 -92.5 30t-22.5 86h81q-6 -49 43 -49q23 0 38 12t18 37h81q-8 -56 -46 -86t-100 -30zM420 57q-37 -35 -73 -53t-89 -18q-52 0 -94.5 20.5t-72.5 56t-46.5 82.5t-16.5 99q0 61 23 115.5t62 96t90.5 65.5t109.5 24q49 0 90.5 -22.5t67.5 -65.5l10 74h130
l-69 -531h-129zM288 102q40 0 71.5 16t53 42t32.5 58.5t11 66.5q0 60 -35.5 100t-97.5 40q-34 0 -64.5 -13.5t-53 -37.5t-35.5 -58t-13 -75q0 -63 36 -101t95 -38zM287 -53q26 0 43 -17.5t17 -41.5q0 -32 -22.5 -56t-57.5 -24q-28 0 -44.5 17t-16.5 43q0 32 24.5 55.5
t56.5 23.5z" />
    <glyph glyph-name="uni1EB8" unicode="&#x1eb8;" horiz-adv-x="520" 
d="M509 718l-16 -126h-254l-21 -149h255l-16 -126h-255l-25 -191h256l-17 -126h-391l94 718h390zM217 -53q26 0 43 -17.5t17 -41.5q0 -32 -22.5 -56t-57.5 -24q-28 0 -44.5 17t-16.5 43q0 32 24.5 55.5t56.5 23.5z" />
    <glyph glyph-name="uni1EB9" unicode="&#x1eb9;" 
d="M159 228q2 -54 36 -87.5t96 -33.5q40 0 70.5 12t59.5 37l115 -60q-40 -51 -102.5 -80t-141.5 -29q-61 0 -110 18t-82.5 50.5t-51.5 78.5t-18 102q0 65 23.5 121t64 97.5t95 65.5t116.5 24q60 0 107.5 -20.5t81.5 -56t52 -83.5t18 -103q0 -14 -1.5 -28t-3.5 -25h-424z
M454 323q-15 51 -49.5 76t-82.5 25t-86 -26t-58 -75h276zM277 -53q26 0 43 -17.5t17 -41.5q0 -32 -22.5 -56t-57.5 -24q-28 0 -44.5 17t-16.5 43q0 32 24.5 55.5t56.5 23.5z" />
    <glyph glyph-name="uni1EBA" unicode="&#x1eba;" horiz-adv-x="520" 
d="M361 961q35 0 57.5 -21.5t17.5 -53.5q-3 -19 -14.5 -34.5t-31.5 -31.5q-19 -14 -24 -22t-5 -17h-71q0 34 39 64q16 13 22.5 20.5t7.5 13.5q1 13 -10 13q-9 0 -13 -6t-6 -25h-74l2 13q5 38 34.5 62.5t68.5 24.5zM509 718l-16 -126h-254l-21 -149h255l-16 -126h-255
l-25 -191h256l-17 -126h-391l94 718h390z" />
    <glyph glyph-name="uni1EBB" unicode="&#x1ebb;" 
d="M395 774q35 0 57.5 -21.5t17.5 -53.5q-3 -19 -14.5 -34.5t-31.5 -31.5q-19 -14 -24 -22t-5 -17h-71q0 34 39 64q16 13 22.5 20.5t7.5 13.5q1 13 -10 13q-9 0 -13 -6t-6 -25h-74l2 13q5 38 34.5 62.5t68.5 24.5zM159 228q2 -54 36 -87.5t96 -33.5q40 0 70.5 12t59.5 37
l115 -60q-40 -51 -102.5 -80t-141.5 -29q-61 0 -110 18t-82.5 50.5t-51.5 78.5t-18 102q0 65 23.5 121t64 97.5t95 65.5t116.5 24q60 0 107.5 -20.5t81.5 -56t52 -83.5t18 -103q0 -14 -1.5 -28t-3.5 -25h-424zM454 323q-15 51 -49.5 76t-82.5 25t-86 -26t-58 -75h276z" />
    <glyph glyph-name="uni1EBC" unicode="&#x1ebc;" horiz-adv-x="520" 
d="M203 794q6 46 22.5 72.5t38 36.5t45.5 5t46 -23q24 -20 36.5 -19t17.5 38h73q-6 -45 -22.5 -71.5t-38 -37t-45.5 -5.5t-46 23q-24 20 -36.5 19t-17.5 -38h-73zM509 718l-16 -126h-254l-21 -149h255l-16 -126h-255l-25 -191h256l-17 -126h-391l94 718h390z" />
    <glyph glyph-name="uni1EBD" unicode="&#x1ebd;" 
d="M237 607q6 46 22.5 72.5t38 36.5t45.5 5t46 -23q24 -20 36.5 -19t17.5 38h73q-6 -45 -22.5 -71.5t-38 -37t-45.5 -5.5t-46 23q-24 20 -36.5 19t-17.5 -38h-73zM159 228q2 -54 36 -87.5t96 -33.5q40 0 70.5 12t59.5 37l115 -60q-40 -51 -102.5 -80t-141.5 -29
q-61 0 -110 18t-82.5 50.5t-51.5 78.5t-18 102q0 65 23.5 121t64 97.5t95 65.5t116.5 24q60 0 107.5 -20.5t81.5 -56t52 -83.5t18 -103q0 -14 -1.5 -28t-3.5 -25h-424zM454 323q-15 51 -49.5 76t-82.5 25t-86 -26t-58 -75h276z" />
    <glyph glyph-name="uni1EBE" unicode="&#x1ebe;" horiz-adv-x="520" 
d="M541 952l-82 -112h86l104 112h-108zM285 788h-91l104 116h93l72 -116h-91l-34 61zM509 718l-16 -126h-254l-21 -149h255l-16 -126h-255l-25 -191h256l-17 -126h-391l94 718h390z" />
    <glyph glyph-name="uni1EBF" unicode="&#x1ebf;" 
d="M575 765l-82 -112h86l104 112h-108zM319 601h-91l104 116h93l72 -116h-91l-34 61zM159 228q2 -54 36 -87.5t96 -33.5q40 0 70.5 12t59.5 37l115 -60q-40 -51 -102.5 -80t-141.5 -29q-61 0 -110 18t-82.5 50.5t-51.5 78.5t-18 102q0 65 23.5 121t64 97.5t95 65.5t116.5 24
q60 0 107.5 -20.5t81.5 -56t52 -83.5t18 -103q0 -14 -1.5 -28t-3.5 -25h-424zM454 323q-15 51 -49.5 76t-82.5 25t-86 -26t-58 -75h276z" />
    <glyph glyph-name="uni1EC0" unicode="&#x1ec0;" horiz-adv-x="520" 
d="M481 849h86l-51 112h-108zM287 788h-91l104 116h93l72 -116h-91l-34 61zM509 718l-16 -126h-254l-21 -149h255l-16 -126h-255l-25 -191h256l-17 -126h-391l94 718h390z" />
    <glyph glyph-name="uni1EC1" unicode="&#x1ec1;" 
d="M515 662h86l-51 112h-108zM321 601h-91l104 116h93l72 -116h-91l-34 61zM159 228q2 -54 36 -87.5t96 -33.5q40 0 70.5 12t59.5 37l115 -60q-40 -51 -102.5 -80t-141.5 -29q-61 0 -110 18t-82.5 50.5t-51.5 78.5t-18 102q0 65 23.5 121t64 97.5t95 65.5t116.5 24
q60 0 107.5 -20.5t81.5 -56t52 -83.5t18 -103q0 -14 -1.5 -28t-3.5 -25h-424zM454 323q-15 51 -49.5 76t-82.5 25t-86 -26t-58 -75h276z" />
    <glyph glyph-name="uni1EC2" unicode="&#x1ec2;" horiz-adv-x="520" 
d="M539 1012q35 0 57 -21.5t17 -53.5q-2 -19 -13.5 -34.5t-32.5 -31.5q-19 -14 -24 -22t-5 -17h-71q0 34 39 64q17 13 23 20.5t7 13.5q1 13 -10 13q-9 0 -12.5 -6t-5.5 -25h-74l1 13q5 38 35 62.5t69 24.5zM285 788h-91l104 116h93l72 -116h-91l-34 61zM509 718l-16 -126
h-254l-21 -149h255l-16 -126h-255l-25 -191h256l-17 -126h-391l94 718h390z" />
    <glyph glyph-name="uni1EC3" unicode="&#x1ec3;" 
d="M573 825q35 0 57 -21.5t17 -53.5q-2 -19 -13.5 -34.5t-32.5 -31.5q-19 -14 -24 -22t-5 -17h-71q0 34 39 64q17 13 23 20.5t7 13.5q1 13 -10 13q-9 0 -12.5 -6t-5.5 -25h-74l1 13q5 38 35 62.5t69 24.5zM319 601h-91l104 116h93l72 -116h-91l-34 61zM159 228
q2 -54 36 -87.5t96 -33.5q40 0 70.5 12t59.5 37l115 -60q-40 -51 -102.5 -80t-141.5 -29q-61 0 -110 18t-82.5 50.5t-51.5 78.5t-18 102q0 65 23.5 121t64 97.5t95 65.5t116.5 24q60 0 107.5 -20.5t81.5 -56t52 -83.5t18 -103q0 -14 -1.5 -28t-3.5 -25h-424zM454 323
q-15 51 -49.5 76t-82.5 25t-86 -26t-58 -75h276z" />
    <glyph glyph-name="uni1EC4" unicode="&#x1ec4;" horiz-adv-x="520" 
d="M220 923q6 46 22.5 72t37.5 36t45.5 5t46.5 -22q24 -20 37 -19t18 38h73q-6 -45 -22.5 -71.5t-37.5 -36.5t-45 -5t-47 22q-25 20 -37.5 19t-17.5 -38h-73zM290 788h-91l104 116h93l72 -116h-91l-34 61zM509 718l-16 -126h-254l-21 -149h255l-16 -126h-255l-25 -191h256
l-17 -126h-391l94 718h390z" />
    <glyph glyph-name="uni1EC5" unicode="&#x1ec5;" 
d="M254 736q6 46 22.5 72t37.5 36t45.5 5t46.5 -22q24 -20 37 -19t18 38h73q-6 -45 -22.5 -71.5t-37.5 -36.5t-45 -5t-47 22q-25 20 -37.5 19t-17.5 -38h-73zM324 601h-91l104 116h93l72 -116h-91l-34 61zM159 228q2 -54 36 -87.5t96 -33.5q40 0 70.5 12t59.5 37l115 -60
q-40 -51 -102.5 -80t-141.5 -29q-61 0 -110 18t-82.5 50.5t-51.5 78.5t-18 102q0 65 23.5 121t64 97.5t95 65.5t116.5 24q60 0 107.5 -20.5t81.5 -56t52 -83.5t18 -103q0 -14 -1.5 -28t-3.5 -25h-424zM454 323q-15 51 -49.5 76t-82.5 25t-86 -26t-58 -75h276z" />
    <glyph glyph-name="uni1EC6" unicode="&#x1ec6;" horiz-adv-x="520" 
d="M290 788h-91l104 116h93l72 -116h-91l-34 61zM509 718l-16 -126h-254l-21 -149h255l-16 -126h-255l-25 -191h256l-17 -126h-391l94 718h390zM217 -53q26 0 43 -17.5t17 -41.5q0 -32 -22.5 -56t-57.5 -24q-28 0 -44.5 17t-16.5 43q0 32 24.5 55.5t56.5 23.5z" />
    <glyph glyph-name="uni1EC7" unicode="&#x1ec7;" 
d="M324 601h-91l104 116h93l72 -116h-91l-34 61zM159 228q2 -54 36 -87.5t96 -33.5q40 0 70.5 12t59.5 37l115 -60q-40 -51 -102.5 -80t-141.5 -29q-61 0 -110 18t-82.5 50.5t-51.5 78.5t-18 102q0 65 23.5 121t64 97.5t95 65.5t116.5 24q60 0 107.5 -20.5t81.5 -56
t52 -83.5t18 -103q0 -14 -1.5 -28t-3.5 -25h-424zM454 323q-15 51 -49.5 76t-82.5 25t-86 -26t-58 -75h276zM277 -53q26 0 43 -17.5t17 -41.5q0 -32 -22.5 -56t-57.5 -24q-28 0 -44.5 17t-16.5 43q0 32 24.5 55.5t56.5 23.5z" />
    <glyph glyph-name="uni1EC8" unicode="&#x1ec8;" horiz-adv-x="280" 
d="M241 961q35 0 57.5 -21.5t17.5 -53.5q-3 -19 -14.5 -34.5t-31.5 -31.5q-19 -14 -24 -22t-5 -17h-71q0 34 39 64q16 13 22.5 20.5t7.5 13.5q1 13 -10 13q-9 0 -13 -6t-6 -25h-74l2 13q5 38 34.5 62.5t68.5 24.5zM257 718l-100 -718h-129l97 718h132z" />
    <glyph glyph-name="uni1EC9" unicode="&#x1ec9;" horiz-adv-x="240" 
d="M175 774q35 0 57.5 -21.5t17.5 -53.5q-3 -19 -14.5 -34.5t-31.5 -31.5q-19 -14 -24 -22t-5 -17h-71q0 34 39 64q16 13 22.5 20.5t7.5 13.5q1 13 -10 13q-9 0 -13 -6t-6 -25h-74l2 13q5 38 34.5 62.5t68.5 24.5zM206 531l-71 -531h-130l73 531h128z" />
    <glyph glyph-name="uni1ECA" unicode="&#x1eca;" horiz-adv-x="280" 
d="M257 718l-100 -718h-129l97 718h132zM97 -53q26 0 43 -17.5t17 -41.5q0 -32 -22.5 -56t-57.5 -24q-28 0 -44.5 17t-16.5 43q0 32 24.5 55.5t56.5 23.5z" />
    <glyph glyph-name="uni1ECB" unicode="&#x1ecb;" horiz-adv-x="240" 
d="M158 749q34 0 57.5 -23.5t23.5 -57.5t-23.5 -57.5t-57.5 -23.5t-57 23.5t-23 57.5t23 57.5t57 23.5zM206 531l-71 -531h-130l73 531h128zM59 -53q26 0 43 -17.5t17 -41.5q0 -32 -22.5 -56t-57.5 -24q-28 0 -44.5 17t-16.5 43q0 32 24.5 55.5t56.5 23.5z" />
    <glyph glyph-name="uni1ECC" unicode="&#x1ecc;" horiz-adv-x="840" 
d="M461 736q74 0 136.5 -25t107.5 -69.5t70.5 -106.5t25.5 -136q0 -83 -30 -158.5t-85 -132.5t-133.5 -91t-175.5 -34q-78 0 -140.5 24t-106 67t-67 104t-23.5 134q0 89 31.5 166t88 134.5t133.5 90.5t168 33zM456 611q-63 0 -115 -25t-89 -65.5t-57.5 -93t-20.5 -107.5
q0 -46 14.5 -85t41.5 -67t66 -44t88 -16q61 0 112.5 22.5t89.5 61.5t59.5 90.5t21.5 109.5q0 49 -15 89t-43 69t-67 45t-86 16zM377 -53q26 0 43 -17.5t17 -41.5q0 -32 -22.5 -56t-57.5 -24q-28 0 -44.5 17t-16.5 43q0 32 24.5 55.5t56.5 23.5z" />
    <glyph glyph-name="uni1ECD" unicode="&#x1ecd;" 
d="M334 545q55 0 101 -19t79.5 -53.5t52 -82t18.5 -105.5q0 -60 -22.5 -114t-63 -95t-97 -65t-124.5 -24q-58 0 -104.5 18.5t-78 51t-48.5 78t-17 99.5q0 66 24.5 123t66 98.5t96.5 65.5t117 24zM325 420q-39 0 -70 -15t-52 -40t-32.5 -57.5t-11.5 -67.5q0 -58 33.5 -95.5
t94.5 -37.5q39 0 70 14t53 38.5t34 58t12 71.5q0 60 -37 95.5t-94 35.5zM277 -53q26 0 43 -17.5t17 -41.5q0 -32 -22.5 -56t-57.5 -24q-28 0 -44.5 17t-16.5 43q0 32 24.5 55.5t56.5 23.5z" />
    <glyph glyph-name="uni1ECE" unicode="&#x1ece;" horiz-adv-x="840" 
d="M501 961q35 0 57.5 -21.5t17.5 -53.5q-3 -19 -14.5 -34.5t-31.5 -31.5q-19 -14 -24 -22t-5 -17h-71q0 34 39 64q16 13 22.5 20.5t7.5 13.5q1 13 -10 13q-9 0 -13 -6t-6 -25h-74l2 13q5 38 34.5 62.5t68.5 24.5zM461 736q74 0 136.5 -25t107.5 -69.5t70.5 -106.5
t25.5 -136q0 -83 -30 -158.5t-85 -132.5t-133.5 -91t-175.5 -34q-78 0 -140.5 24t-106 67t-67 104t-23.5 134q0 89 31.5 166t88 134.5t133.5 90.5t168 33zM456 611q-63 0 -115 -25t-89 -65.5t-57.5 -93t-20.5 -107.5q0 -46 14.5 -85t41.5 -67t66 -44t88 -16q61 0 112.5 22.5
t89.5 61.5t59.5 90.5t21.5 109.5q0 49 -15 89t-43 69t-67 45t-86 16z" />
    <glyph glyph-name="uni1ECF" unicode="&#x1ecf;" 
d="M371 774q35 0 57.5 -21.5t17.5 -53.5q-3 -19 -14.5 -34.5t-31.5 -31.5q-19 -14 -24 -22t-5 -17h-71q0 34 39 64q16 13 22.5 20.5t7.5 13.5q1 13 -10 13q-9 0 -13 -6t-6 -25h-74l2 13q5 38 34.5 62.5t68.5 24.5zM334 545q55 0 101 -19t79.5 -53.5t52 -82t18.5 -105.5
q0 -60 -22.5 -114t-63 -95t-97 -65t-124.5 -24q-58 0 -104.5 18.5t-78 51t-48.5 78t-17 99.5q0 66 24.5 123t66 98.5t96.5 65.5t117 24zM325 420q-39 0 -70 -15t-52 -40t-32.5 -57.5t-11.5 -67.5q0 -58 33.5 -95.5t94.5 -37.5q39 0 70 14t53 38.5t34 58t12 71.5
q0 60 -37 95.5t-94 35.5z" />
    <glyph glyph-name="uni1ED0" unicode="&#x1ed0;" horiz-adv-x="840" 
d="M681 952l-82 -112h86l104 112h-108zM425 788h-91l104 116h93l72 -116h-91l-34 61zM461 736q74 0 136.5 -25t107.5 -69.5t70.5 -106.5t25.5 -136q0 -83 -30 -158.5t-85 -132.5t-133.5 -91t-175.5 -34q-78 0 -140.5 24t-106 67t-67 104t-23.5 134q0 89 31.5 166t88 134.5
t133.5 90.5t168 33zM456 611q-63 0 -115 -25t-89 -65.5t-57.5 -93t-20.5 -107.5q0 -46 14.5 -85t41.5 -67t66 -44t88 -16q61 0 112.5 22.5t89.5 61.5t59.5 90.5t21.5 109.5q0 49 -15 89t-43 69t-67 45t-86 16z" />
    <glyph glyph-name="uni1ED1" unicode="&#x1ed1;" 
d="M551 765l-82 -112h86l104 112h-108zM295 601h-91l104 116h93l72 -116h-91l-34 61zM334 545q55 0 101 -19t79.5 -53.5t52 -82t18.5 -105.5q0 -60 -22.5 -114t-63 -95t-97 -65t-124.5 -24q-58 0 -104.5 18.5t-78 51t-48.5 78t-17 99.5q0 66 24.5 123t66 98.5t96.5 65.5
t117 24zM325 420q-39 0 -70 -15t-52 -40t-32.5 -57.5t-11.5 -67.5q0 -58 33.5 -95.5t94.5 -37.5q39 0 70 14t53 38.5t34 58t12 71.5q0 60 -37 95.5t-94 35.5z" />
    <glyph glyph-name="uni1ED2" unicode="&#x1ed2;" horiz-adv-x="840" 
d="M621 849h86l-51 112h-108zM427 788h-91l104 116h93l72 -116h-91l-34 61zM461 736q74 0 136.5 -25t107.5 -69.5t70.5 -106.5t25.5 -136q0 -83 -30 -158.5t-85 -132.5t-133.5 -91t-175.5 -34q-78 0 -140.5 24t-106 67t-67 104t-23.5 134q0 89 31.5 166t88 134.5t133.5 90.5
t168 33zM456 611q-63 0 -115 -25t-89 -65.5t-57.5 -93t-20.5 -107.5q0 -46 14.5 -85t41.5 -67t66 -44t88 -16q61 0 112.5 22.5t89.5 61.5t59.5 90.5t21.5 109.5q0 49 -15 89t-43 69t-67 45t-86 16z" />
    <glyph glyph-name="uni1ED3" unicode="&#x1ed3;" 
d="M491 662h86l-51 112h-108zM297 601h-91l104 116h93l72 -116h-91l-34 61zM334 545q55 0 101 -19t79.5 -53.5t52 -82t18.5 -105.5q0 -60 -22.5 -114t-63 -95t-97 -65t-124.5 -24q-58 0 -104.5 18.5t-78 51t-48.5 78t-17 99.5q0 66 24.5 123t66 98.5t96.5 65.5t117 24z
M325 420q-39 0 -70 -15t-52 -40t-32.5 -57.5t-11.5 -67.5q0 -58 33.5 -95.5t94.5 -37.5q39 0 70 14t53 38.5t34 58t12 71.5q0 60 -37 95.5t-94 35.5z" />
    <glyph glyph-name="uni1ED4" unicode="&#x1ed4;" horiz-adv-x="840" 
d="M679 1012q35 0 57 -21.5t17 -53.5q-2 -19 -13.5 -34.5t-32.5 -31.5q-19 -14 -24 -22t-5 -17h-71q0 34 39 64q17 13 23 20.5t7 13.5q1 13 -10 13q-9 0 -12.5 -6t-5.5 -25h-74l1 13q5 38 35 62.5t69 24.5zM425 788h-91l104 116h93l72 -116h-91l-34 61zM461 736
q74 0 136.5 -25t107.5 -69.5t70.5 -106.5t25.5 -136q0 -83 -30 -158.5t-85 -132.5t-133.5 -91t-175.5 -34q-78 0 -140.5 24t-106 67t-67 104t-23.5 134q0 89 31.5 166t88 134.5t133.5 90.5t168 33zM456 611q-63 0 -115 -25t-89 -65.5t-57.5 -93t-20.5 -107.5q0 -46 14.5 -85
t41.5 -67t66 -44t88 -16q61 0 112.5 22.5t89.5 61.5t59.5 90.5t21.5 109.5q0 49 -15 89t-43 69t-67 45t-86 16z" />
    <glyph glyph-name="uni1ED5" unicode="&#x1ed5;" 
d="M549 825q35 0 57 -21.5t17 -53.5q-2 -19 -13.5 -34.5t-32.5 -31.5q-19 -14 -24 -22t-5 -17h-71q0 34 39 64q17 13 23 20.5t7 13.5q1 13 -10 13q-9 0 -12.5 -6t-5.5 -25h-74l1 13q5 38 35 62.5t69 24.5zM295 601h-91l104 116h93l72 -116h-91l-34 61zM334 545q55 0 101 -19
t79.5 -53.5t52 -82t18.5 -105.5q0 -60 -22.5 -114t-63 -95t-97 -65t-124.5 -24q-58 0 -104.5 18.5t-78 51t-48.5 78t-17 99.5q0 66 24.5 123t66 98.5t96.5 65.5t117 24zM325 420q-39 0 -70 -15t-52 -40t-32.5 -57.5t-11.5 -67.5q0 -58 33.5 -95.5t94.5 -37.5q39 0 70 14
t53 38.5t34 58t12 71.5q0 60 -37 95.5t-94 35.5z" />
    <glyph glyph-name="uni1ED6" unicode="&#x1ed6;" horiz-adv-x="840" 
d="M360 923q6 46 22.5 72t37.5 36t45.5 5t46.5 -22q24 -20 37 -19t18 38h73q-6 -45 -22.5 -71.5t-37.5 -36.5t-45 -5t-47 22q-25 20 -37.5 19t-17.5 -38h-73zM430 788h-91l104 116h93l72 -116h-91l-34 61zM461 736q74 0 136.5 -25t107.5 -69.5t70.5 -106.5t25.5 -136
q0 -83 -30 -158.5t-85 -132.5t-133.5 -91t-175.5 -34q-78 0 -140.5 24t-106 67t-67 104t-23.5 134q0 89 31.5 166t88 134.5t133.5 90.5t168 33zM456 611q-63 0 -115 -25t-89 -65.5t-57.5 -93t-20.5 -107.5q0 -46 14.5 -85t41.5 -67t66 -44t88 -16q61 0 112.5 22.5t89.5 61.5
t59.5 90.5t21.5 109.5q0 49 -15 89t-43 69t-67 45t-86 16z" />
    <glyph glyph-name="uni1ED7" unicode="&#x1ed7;" 
d="M230 736q6 46 22.5 72t37.5 36t45.5 5t46.5 -22q24 -20 37 -19t18 38h73q-6 -45 -22.5 -71.5t-37.5 -36.5t-45 -5t-47 22q-25 20 -37.5 19t-17.5 -38h-73zM300 601h-91l104 116h93l72 -116h-91l-34 61zM334 545q55 0 101 -19t79.5 -53.5t52 -82t18.5 -105.5
q0 -60 -22.5 -114t-63 -95t-97 -65t-124.5 -24q-58 0 -104.5 18.5t-78 51t-48.5 78t-17 99.5q0 66 24.5 123t66 98.5t96.5 65.5t117 24zM325 420q-39 0 -70 -15t-52 -40t-32.5 -57.5t-11.5 -67.5q0 -58 33.5 -95.5t94.5 -37.5q39 0 70 14t53 38.5t34 58t12 71.5
q0 60 -37 95.5t-94 35.5z" />
    <glyph glyph-name="uni1ED8" unicode="&#x1ed8;" horiz-adv-x="840" 
d="M430 788h-91l104 116h93l72 -116h-91l-34 61zM461 736q74 0 136.5 -25t107.5 -69.5t70.5 -106.5t25.5 -136q0 -83 -30 -158.5t-85 -132.5t-133.5 -91t-175.5 -34q-78 0 -140.5 24t-106 67t-67 104t-23.5 134q0 89 31.5 166t88 134.5t133.5 90.5t168 33zM456 611
q-63 0 -115 -25t-89 -65.5t-57.5 -93t-20.5 -107.5q0 -46 14.5 -85t41.5 -67t66 -44t88 -16q61 0 112.5 22.5t89.5 61.5t59.5 90.5t21.5 109.5q0 49 -15 89t-43 69t-67 45t-86 16zM377 -53q26 0 43 -17.5t17 -41.5q0 -32 -22.5 -56t-57.5 -24q-28 0 -44.5 17t-16.5 43
q0 32 24.5 55.5t56.5 23.5z" />
    <glyph glyph-name="uni1ED9" unicode="&#x1ed9;" 
d="M300 601h-91l104 116h93l72 -116h-91l-34 61zM334 545q55 0 101 -19t79.5 -53.5t52 -82t18.5 -105.5q0 -60 -22.5 -114t-63 -95t-97 -65t-124.5 -24q-58 0 -104.5 18.5t-78 51t-48.5 78t-17 99.5q0 66 24.5 123t66 98.5t96.5 65.5t117 24zM325 420q-39 0 -70 -15t-52 -40
t-32.5 -57.5t-11.5 -67.5q0 -58 33.5 -95.5t94.5 -37.5q39 0 70 14t53 38.5t34 58t12 71.5q0 60 -37 95.5t-94 35.5zM277 -53q26 0 43 -17.5t17 -41.5q0 -32 -22.5 -56t-57.5 -24q-28 0 -44.5 17t-16.5 43q0 32 24.5 55.5t56.5 23.5z" />
    <glyph glyph-name="uni1EDA" unicode="&#x1eda;" horiz-adv-x="840" 
d="M524 793h-86l82 112h108zM674 668q60 -45 93.5 -114t33.5 -155q0 -83 -30 -158.5t-85 -132.5t-133.5 -91t-175.5 -34q-78 0 -140.5 24t-106 67t-67 104t-23.5 134q0 89 31.5 166t88 134.5t133.5 90.5t168 33q30 0 58 -4t54 -12q23 3 41.5 21.5t23.5 45.5h112
q-6 -33 -26 -64.5t-50 -54.5zM384 108q61 0 112.5 22.5t89.5 61.5t59.5 90.5t21.5 109.5q0 49 -15 89t-43 69t-67 45t-86 16q-63 0 -115 -25t-89 -65.5t-57.5 -93t-20.5 -107.5q0 -46 14.5 -85t41.5 -67t66 -44t88 -16z" />
    <glyph glyph-name="uni1EDB" unicode="&#x1edb;" 
d="M394 606h-86l82 112h108zM600 599q-7 -36 -29.5 -69.5t-55.5 -57.5q33 -34 51.5 -81.5t18.5 -105.5q0 -60 -22.5 -114t-63 -95t-97 -65t-124.5 -24q-58 0 -104.5 18.5t-78 51t-48.5 78t-17 99.5q0 66 24.5 123t66 98.5t96.5 65.5t117 24q46 0 86 -14q25 3 44 21.5
t24 46.5h112zM287 107q39 0 70 14t53 38.5t34 58t12 71.5q0 60 -37 95.5t-94 35.5q-39 0 -70 -15t-52 -40t-32.5 -57.5t-11.5 -67.5q0 -58 33.5 -95.5t94.5 -37.5z" />
    <glyph glyph-name="uni1EDC" unicode="&#x1edc;" horiz-adv-x="840" 
d="M435 793l-72 112h108l50 -112h-86zM674 668q60 -45 93.5 -114t33.5 -155q0 -83 -30 -158.5t-85 -132.5t-133.5 -91t-175.5 -34q-78 0 -140.5 24t-106 67t-67 104t-23.5 134q0 89 31.5 166t88 134.5t133.5 90.5t168 33q30 0 58 -4t54 -12q23 3 41.5 21.5t23.5 45.5h112
q-6 -33 -26 -64.5t-50 -54.5zM384 108q61 0 112.5 22.5t89.5 61.5t59.5 90.5t21.5 109.5q0 49 -15 89t-43 69t-67 45t-86 16q-63 0 -115 -25t-89 -65.5t-57.5 -93t-20.5 -107.5q0 -46 14.5 -85t41.5 -67t66 -44t88 -16z" />
    <glyph glyph-name="uni1EDD" unicode="&#x1edd;" 
d="M305 606l-72 112h108l50 -112h-86zM600 599q-7 -36 -29.5 -69.5t-55.5 -57.5q33 -34 51.5 -81.5t18.5 -105.5q0 -60 -22.5 -114t-63 -95t-97 -65t-124.5 -24q-58 0 -104.5 18.5t-78 51t-48.5 78t-17 99.5q0 66 24.5 123t66 98.5t96.5 65.5t117 24q46 0 86 -14
q25 3 44 21.5t24 46.5h112zM287 107q39 0 70 14t53 38.5t34 58t12 71.5q0 60 -37 95.5t-94 35.5q-39 0 -70 -15t-52 -40t-32.5 -57.5t-11.5 -67.5q0 -58 33.5 -95.5t94.5 -37.5z" />
    <glyph glyph-name="uni1EDE" unicode="&#x1ede;" horiz-adv-x="840" 
d="M489 892q-9 0 -13 -6t-6 -25h-74l2 13q5 38 34.5 62.5t68.5 24.5q35 0 57.5 -21.5t17.5 -53.5q-3 -19 -14.5 -34.5t-31.5 -31.5q-19 -14 -24 -22t-5 -17h-71q0 34 39 64q16 13 22.5 20.5t7.5 13.5q1 13 -10 13zM674 668q60 -45 93.5 -114t33.5 -155q0 -83 -30 -158.5
t-85 -132.5t-133.5 -91t-175.5 -34q-78 0 -140.5 24t-106 67t-67 104t-23.5 134q0 89 31.5 166t88 134.5t133.5 90.5t168 33q30 0 58 -4t54 -12q23 3 41.5 21.5t23.5 45.5h112q-6 -33 -26 -64.5t-50 -54.5zM384 108q61 0 112.5 22.5t89.5 61.5t59.5 90.5t21.5 109.5
q0 49 -15 89t-43 69t-67 45t-86 16q-63 0 -115 -25t-89 -65.5t-57.5 -93t-20.5 -107.5q0 -46 14.5 -85t41.5 -67t66 -44t88 -16z" />
    <glyph glyph-name="uni1EDF" unicode="&#x1edf;" 
d="M359 705q-9 0 -13 -6t-6 -25h-74l2 13q5 38 34.5 62.5t68.5 24.5q35 0 57.5 -21.5t17.5 -53.5q-3 -19 -14.5 -34.5t-31.5 -31.5q-19 -14 -24 -22t-5 -17h-71q0 34 39 64q16 13 22.5 20.5t7.5 13.5q1 13 -10 13zM600 599q-7 -36 -29.5 -69.5t-55.5 -57.5
q33 -34 51.5 -81.5t18.5 -105.5q0 -60 -22.5 -114t-63 -95t-97 -65t-124.5 -24q-58 0 -104.5 18.5t-78 51t-48.5 78t-17 99.5q0 66 24.5 123t66 98.5t96.5 65.5t117 24q46 0 86 -14q25 3 44 21.5t24 46.5h112zM287 107q39 0 70 14t53 38.5t34 58t12 71.5q0 60 -37 95.5
t-94 35.5q-39 0 -70 -15t-52 -40t-32.5 -57.5t-11.5 -67.5q0 -58 33.5 -95.5t94.5 -37.5z" />
    <glyph glyph-name="uni1EE0" unicode="&#x1ee0;" horiz-adv-x="840" 
d="M470 813q-24 20 -36.5 19t-17.5 -38h-73q6 46 22.5 72.5t38 36.5t45.5 5t46 -23q24 -20 36.5 -19t17.5 38h73q-6 -45 -22.5 -71.5t-38 -37t-45.5 -5.5t-46 23zM674 668q60 -45 93.5 -114t33.5 -155q0 -83 -30 -158.5t-85 -132.5t-133.5 -91t-175.5 -34q-78 0 -140.5 24
t-106 67t-67 104t-23.5 134q0 89 31.5 166t88 134.5t133.5 90.5t168 33q30 0 58 -4t54 -12q23 3 41.5 21.5t23.5 45.5h112q-6 -33 -26 -64.5t-50 -54.5zM384 108q61 0 112.5 22.5t89.5 61.5t59.5 90.5t21.5 109.5q0 49 -15 89t-43 69t-67 45t-86 16q-63 0 -115 -25
t-89 -65.5t-57.5 -93t-20.5 -107.5q0 -46 14.5 -85t41.5 -67t66 -44t88 -16z" />
    <glyph glyph-name="uni1EE1" unicode="&#x1ee1;" 
d="M340 626q-24 20 -36.5 19t-17.5 -38h-73q6 46 22.5 72.5t38 36.5t45.5 5t46 -23q24 -20 36.5 -19t17.5 38h73q-6 -45 -22.5 -71.5t-38 -37t-45.5 -5.5t-46 23zM600 599q-7 -36 -29.5 -69.5t-55.5 -57.5q33 -34 51.5 -81.5t18.5 -105.5q0 -60 -22.5 -114t-63 -95t-97 -65
t-124.5 -24q-58 0 -104.5 18.5t-78 51t-48.5 78t-17 99.5q0 66 24.5 123t66 98.5t96.5 65.5t117 24q46 0 86 -14q25 3 44 21.5t24 46.5h112zM287 107q39 0 70 14t53 38.5t34 58t12 71.5q0 60 -37 95.5t-94 35.5q-39 0 -70 -15t-52 -40t-32.5 -57.5t-11.5 -67.5
q0 -58 33.5 -95.5t94.5 -37.5z" />
    <glyph glyph-name="uni1EE2" unicode="&#x1ee2;" horiz-adv-x="840" 
d="M674 668q60 -45 93.5 -114t33.5 -155q0 -83 -30 -158.5t-85 -132.5t-133.5 -91t-175.5 -34q-78 0 -140.5 24t-106 67t-67 104t-23.5 134q0 89 31.5 166t88 134.5t133.5 90.5t168 33q30 0 58 -4t54 -12q23 3 41.5 21.5t23.5 45.5h112q-6 -33 -26 -64.5t-50 -54.5zM384 108
q61 0 112.5 22.5t89.5 61.5t59.5 90.5t21.5 109.5q0 49 -15 89t-43 69t-67 45t-86 16q-63 0 -115 -25t-89 -65.5t-57.5 -93t-20.5 -107.5q0 -46 14.5 -85t41.5 -67t66 -44t88 -16zM377 -53q26 0 43 -17.5t17 -41.5q0 -32 -22.5 -56t-57.5 -24q-28 0 -44.5 17t-16.5 43
q0 32 24.5 55.5t56.5 23.5z" />
    <glyph glyph-name="uni1EE3" unicode="&#x1ee3;" 
d="M600 599q-7 -36 -29.5 -69.5t-55.5 -57.5q33 -34 51.5 -81.5t18.5 -105.5q0 -60 -22.5 -114t-63 -95t-97 -65t-124.5 -24q-58 0 -104.5 18.5t-78 51t-48.5 78t-17 99.5q0 66 24.5 123t66 98.5t96.5 65.5t117 24q46 0 86 -14q25 3 44 21.5t24 46.5h112zM287 107
q39 0 70 14t53 38.5t34 58t12 71.5q0 60 -37 95.5t-94 35.5q-39 0 -70 -15t-52 -40t-32.5 -57.5t-11.5 -67.5q0 -58 33.5 -95.5t94.5 -37.5zM277 -53q26 0 43 -17.5t17 -41.5q0 -32 -22.5 -56t-57.5 -24q-28 0 -44.5 17t-16.5 43q0 32 24.5 55.5t56.5 23.5z" />
    <glyph glyph-name="uni1EE4" unicode="&#x1ee4;" 
d="M261 718l-60 -443q-3 -20 -5 -41t-2 -40q0 -42 25 -64.5t72 -22.5q37 0 59 11.5t35 34t20 55.5t13 76l60 434h136l-58 -428q-11 -85 -29 -145t-52 -95q-29 -31 -77.5 -49.5t-108.5 -18.5q-106 0 -167.5 56t-61.5 159q0 34 4.5 65t8.5 60l53 396h135zM277 -53
q26 0 43 -17.5t17 -41.5q0 -32 -22.5 -56t-57.5 -24q-28 0 -44.5 17t-16.5 43q0 32 24.5 55.5t56.5 23.5z" />
    <glyph glyph-name="uni1EE5" unicode="&#x1ee5;" horiz-adv-x="600" 
d="M225 531l-36 -271q-2 -17 -3.5 -35t-1.5 -32q0 -35 22.5 -59t64.5 -24q31 0 51.5 10t33 30t20 49t12.5 66l37 266h128l-38 -285q-17 -130 -76.5 -195.5t-170.5 -65.5q-51 0 -90.5 15.5t-66.5 42.5t-41.5 65t-14.5 83q0 33 3.5 68t8.5 70l29 202h129zM257 -53
q26 0 43 -17.5t17 -41.5q0 -32 -22.5 -56t-57.5 -24q-28 0 -44.5 17t-16.5 43q0 32 24.5 55.5t56.5 23.5z" />
    <glyph glyph-name="uni1EE6" unicode="&#x1ee6;" 
d="M421 961q35 0 57.5 -21.5t17.5 -53.5q-3 -19 -14.5 -34.5t-31.5 -31.5q-19 -14 -24 -22t-5 -17h-71q0 34 39 64q16 13 22.5 20.5t7.5 13.5q1 13 -10 13q-9 0 -13 -6t-6 -25h-74l2 13q5 38 34.5 62.5t68.5 24.5zM261 718l-60 -443q-3 -20 -5 -41t-2 -40q0 -42 25 -64.5
t72 -22.5q37 0 59 11.5t35 34t20 55.5t13 76l60 434h136l-58 -428q-11 -85 -29 -145t-52 -95q-29 -31 -77.5 -49.5t-108.5 -18.5q-106 0 -167.5 56t-61.5 159q0 34 4.5 65t8.5 60l53 396h135z" />
    <glyph glyph-name="uni1EE7" unicode="&#x1ee7;" horiz-adv-x="600" 
d="M375 774q35 0 57.5 -21.5t17.5 -53.5q-3 -19 -14.5 -34.5t-31.5 -31.5q-19 -14 -24 -22t-5 -17h-71q0 34 39 64q16 13 22.5 20.5t7.5 13.5q1 13 -10 13q-9 0 -13 -6t-6 -25h-74l2 13q5 38 34.5 62.5t68.5 24.5zM225 531l-36 -271q-2 -17 -3.5 -35t-1.5 -32
q0 -35 22.5 -59t64.5 -24q31 0 51.5 10t33 30t20 49t12.5 66l37 266h128l-38 -285q-17 -130 -76.5 -195.5t-170.5 -65.5q-51 0 -90.5 15.5t-66.5 42.5t-41.5 65t-14.5 83q0 33 3.5 68t8.5 70l29 202h129z" />
    <glyph glyph-name="uni1EE8" unicode="&#x1ee8;" 
d="M444 793h-86l82 112h108zM725 787q-8 -45 -41 -85.5t-81 -61.5l-47 -350q-11 -85 -29 -145t-52 -95q-29 -31 -77.5 -49.5t-108.5 -18.5q-106 0 -167.5 56t-61.5 159q0 34 4.5 65t8.5 60l53 396h135l-60 -443q-3 -20 -5 -41t-2 -40q0 -42 25 -64.5t72 -22.5q37 0 59 11.5
t35 34t20 55.5t13 76l60 434h60v1q27 0 48 19t27 49h112z" />
    <glyph glyph-name="uni1EE9" unicode="&#x1ee9;" horiz-adv-x="600" 
d="M398 606h-86l82 112h108zM656 599q-8 -43 -38.5 -81.5t-74.5 -61.5l-28 -210q-17 -130 -76.5 -195.5t-170.5 -65.5q-51 0 -90.5 15.5t-66.5 42.5t-41.5 65t-14.5 83q0 33 3.5 68t8.5 70l29 202h129l-36 -271q-2 -17 -3.5 -35t-1.5 -32q0 -35 22.5 -59t64.5 -24
q31 0 51.5 10t33 30t20 49t12.5 66l37 266h44q27 0 48 19t27 49h112z" />
    <glyph glyph-name="uni1EEA" unicode="&#x1eea;" 
d="M355 793l-72 112h108l50 -112h-86zM725 787q-8 -45 -41 -85.5t-81 -61.5l-47 -350q-11 -85 -29 -145t-52 -95q-29 -31 -77.5 -49.5t-108.5 -18.5q-106 0 -167.5 56t-61.5 159q0 34 4.5 65t8.5 60l53 396h135l-60 -443q-3 -20 -5 -41t-2 -40q0 -42 25 -64.5t72 -22.5
q37 0 59 11.5t35 34t20 55.5t13 76l60 434h60v1q27 0 48 19t27 49h112z" />
    <glyph glyph-name="uni1EEB" unicode="&#x1eeb;" horiz-adv-x="600" 
d="M309 606l-72 112h108l50 -112h-86zM656 599q-8 -43 -38.5 -81.5t-74.5 -61.5l-28 -210q-17 -130 -76.5 -195.5t-170.5 -65.5q-51 0 -90.5 15.5t-66.5 42.5t-41.5 65t-14.5 83q0 33 3.5 68t8.5 70l29 202h129l-36 -271q-2 -17 -3.5 -35t-1.5 -32q0 -35 22.5 -59t64.5 -24
q31 0 51.5 10t33 30t20 49t12.5 66l37 266h44q27 0 48 19t27 49h112z" />
    <glyph glyph-name="uni1EEC" unicode="&#x1eec;" 
d="M409 892q-9 0 -13 -6t-6 -25h-74l2 13q5 38 34.5 62.5t68.5 24.5q35 0 57.5 -21.5t17.5 -53.5q-3 -19 -14.5 -34.5t-31.5 -31.5q-19 -14 -24 -22t-5 -17h-71q0 34 39 64q16 13 22.5 20.5t7.5 13.5q1 13 -10 13zM725 787q-8 -45 -41 -85.5t-81 -61.5l-47 -350
q-11 -85 -29 -145t-52 -95q-29 -31 -77.5 -49.5t-108.5 -18.5q-106 0 -167.5 56t-61.5 159q0 34 4.5 65t8.5 60l53 396h135l-60 -443q-3 -20 -5 -41t-2 -40q0 -42 25 -64.5t72 -22.5q37 0 59 11.5t35 34t20 55.5t13 76l60 434h60v1q27 0 48 19t27 49h112z" />
    <glyph glyph-name="uni1EED" unicode="&#x1eed;" horiz-adv-x="600" 
d="M363 705q-9 0 -13 -6t-6 -25h-74l2 13q5 38 34.5 62.5t68.5 24.5q35 0 57.5 -21.5t17.5 -53.5q-3 -19 -14.5 -34.5t-31.5 -31.5q-19 -14 -24 -22t-5 -17h-71q0 34 39 64q16 13 22.5 20.5t7.5 13.5q1 13 -10 13zM656 599q-8 -43 -38.5 -81.5t-74.5 -61.5l-28 -210
q-17 -130 -76.5 -195.5t-170.5 -65.5q-51 0 -90.5 15.5t-66.5 42.5t-41.5 65t-14.5 83q0 33 3.5 68t8.5 70l29 202h129l-36 -271q-2 -17 -3.5 -35t-1.5 -32q0 -35 22.5 -59t64.5 -24q31 0 51.5 10t33 30t20 49t12.5 66l37 266h44q27 0 48 19t27 49h112z" />
    <glyph glyph-name="uni1EEE" unicode="&#x1eee;" 
d="M390 813q-24 20 -36.5 19t-17.5 -38h-73q6 46 22.5 72.5t38 36.5t45.5 5t46 -23q24 -20 36.5 -19t17.5 38h73q-6 -45 -22.5 -71.5t-38 -37t-45.5 -5.5t-46 23zM725 787q-8 -45 -41 -85.5t-81 -61.5l-47 -350q-11 -85 -29 -145t-52 -95q-29 -31 -77.5 -49.5t-108.5 -18.5
q-106 0 -167.5 56t-61.5 159q0 34 4.5 65t8.5 60l53 396h135l-60 -443q-3 -20 -5 -41t-2 -40q0 -42 25 -64.5t72 -22.5q37 0 59 11.5t35 34t20 55.5t13 76l60 434h60v1q27 0 48 19t27 49h112z" />
    <glyph glyph-name="uni1EEF" unicode="&#x1eef;" horiz-adv-x="600" 
d="M344 626q-24 20 -36.5 19t-17.5 -38h-73q6 46 22.5 72.5t38 36.5t45.5 5t46 -23q24 -20 36.5 -19t17.5 38h73q-6 -45 -22.5 -71.5t-38 -37t-45.5 -5.5t-46 23zM656 599q-8 -43 -38.5 -81.5t-74.5 -61.5l-28 -210q-17 -130 -76.5 -195.5t-170.5 -65.5q-51 0 -90.5 15.5
t-66.5 42.5t-41.5 65t-14.5 83q0 33 3.5 68t8.5 70l29 202h129l-36 -271q-2 -17 -3.5 -35t-1.5 -32q0 -35 22.5 -59t64.5 -24q31 0 51.5 10t33 30t20 49t12.5 66l37 266h44q27 0 48 19t27 49h112z" />
    <glyph glyph-name="uni1EF0" unicode="&#x1ef0;" 
d="M725 787q-8 -45 -41 -85.5t-81 -61.5l-47 -350q-11 -85 -29 -145t-52 -95q-29 -31 -77.5 -49.5t-108.5 -18.5q-106 0 -167.5 56t-61.5 159q0 34 4.5 65t8.5 60l53 396h135l-60 -443q-3 -20 -5 -41t-2 -40q0 -42 25 -64.5t72 -22.5q37 0 59 11.5t35 34t20 55.5t13 76
l60 434h60v1q27 0 48 19t27 49h112zM277 -53q26 0 43 -17.5t17 -41.5q0 -32 -22.5 -56t-57.5 -24q-28 0 -44.5 17t-16.5 43q0 32 24.5 55.5t56.5 23.5z" />
    <glyph glyph-name="uni1EF1" unicode="&#x1ef1;" horiz-adv-x="600" 
d="M656 599q-8 -43 -38.5 -81.5t-74.5 -61.5l-28 -210q-17 -130 -76.5 -195.5t-170.5 -65.5q-51 0 -90.5 15.5t-66.5 42.5t-41.5 65t-14.5 83q0 33 3.5 68t8.5 70l29 202h129l-36 -271q-2 -17 -3.5 -35t-1.5 -32q0 -35 22.5 -59t64.5 -24q31 0 51.5 10t33 30t20 49t12.5 66
l37 266h44q27 0 48 19t27 49h112zM257 -53q26 0 43 -17.5t17 -41.5q0 -32 -22.5 -56t-57.5 -24q-28 0 -44.5 17t-16.5 43q0 32 24.5 55.5t56.5 23.5z" />
    <glyph glyph-name="Ygrave" unicode="&#x1ef2;" horiz-adv-x="620" 
d="M345 793h86l-50 112h-108zM168 718l113 -288l204 288h154l-306 -431l-39 -287h-135l40 287l-167 431h136z" />
    <glyph glyph-name="ygrave" unicode="&#x1ef3;" horiz-adv-x="580" 
d="M299 606h86l-50 112h-108zM150 531l103 -315l182 315h140l-417 -725h-138l151 266l-150 459h129z" />
    <glyph glyph-name="uni1EF4" unicode="&#x1ef4;" horiz-adv-x="620" 
d="M168 718l113 -288l204 288h154l-306 -431l-39 -287h-135l40 287l-167 431h136zM221 -53q26 0 43 -17.5t17 -41.5q0 -32 -22.5 -56t-57.5 -24q-28 0 -44.5 17t-16.5 43q0 32 24.5 55.5t56.5 23.5z" />
    <glyph glyph-name="uni1EF5" unicode="&#x1ef5;" horiz-adv-x="580" 
d="M150 531l103 -315l182 315h140l-417 -725h-138l151 266l-150 459h129zM389 -53q26 0 43 -17.5t17 -41.5q0 -32 -22.5 -56t-57.5 -24q-28 0 -44.5 17t-16.5 43q0 32 24.5 55.5t56.5 23.5z" />
    <glyph glyph-name="uni1EF6" unicode="&#x1ef6;" horiz-adv-x="620" 
d="M411 961q35 0 57.5 -21.5t17.5 -53.5q-3 -19 -14.5 -34.5t-31.5 -31.5q-19 -14 -24 -22t-5 -17h-71q0 34 39 64q16 13 22.5 20.5t7.5 13.5q1 13 -10 13q-9 0 -13 -6t-6 -25h-74l2 13q5 38 34.5 62.5t68.5 24.5zM168 718l113 -288l204 288h154l-306 -431l-39 -287h-135
l40 287l-167 431h136z" />
    <glyph glyph-name="uni1EF7" unicode="&#x1ef7;" horiz-adv-x="580" 
d="M365 774q35 0 57.5 -21.5t17.5 -53.5q-3 -19 -14.5 -34.5t-31.5 -31.5q-19 -14 -24 -22t-5 -17h-71q0 34 39 64q16 13 22.5 20.5t7.5 13.5q1 13 -10 13q-9 0 -13 -6t-6 -25h-74l2 13q5 38 34.5 62.5t68.5 24.5zM150 531l103 -315l182 315h140l-417 -725h-138l151 266
l-150 459h129z" />
    <glyph glyph-name="uni1EF8" unicode="&#x1ef8;" horiz-adv-x="620" 
d="M253 794q6 46 22.5 72.5t38 36.5t45.5 5t46 -23q24 -20 36.5 -19t17.5 38h73q-6 -45 -22.5 -71.5t-38 -37t-45.5 -5.5t-46 23q-24 20 -36.5 19t-17.5 -38h-73zM168 718l113 -288l204 288h154l-306 -431l-39 -287h-135l40 287l-167 431h136z" />
    <glyph glyph-name="uni1EF9" unicode="&#x1ef9;" horiz-adv-x="580" 
d="M207 607q6 46 22.5 72.5t38 36.5t45.5 5t46 -23q24 -20 36.5 -19t17.5 38h73q-6 -45 -22.5 -71.5t-38 -37t-45.5 -5.5t-46 23q-24 20 -36.5 19t-17.5 -38h-73zM150 531l103 -315l182 315h140l-417 -725h-138l151 266l-150 459h129z" />
    <glyph glyph-name="endash" unicode="&#x2013;" horiz-adv-x="500" 
d="M-6 347h512v-117h-512v117z" />
    <glyph glyph-name="emdash" unicode="&#x2014;" horiz-adv-x="1000" 
d="M-6 347h1012v-117h-1012v117z" />
    <glyph glyph-name="quoteleft" unicode="&#x2018;" horiz-adv-x="280" 
d="M107 463l8 61q6 44 16.5 75.5t24 56t29 43.5t30.5 37l42 -36q-14 -19 -29.5 -42t-26.5 -55h49l-21 -140h-122z" />
    <glyph glyph-name="quoteright" unicode="&#x2019;" horiz-adv-x="280" 
d="M258 736l-8 -61q-6 -43 -16.5 -75t-24 -56.5t-29 -43.5t-30.5 -37l-42 37q14 19 30 42t27 55h-49l20 139h122z" />
    <glyph glyph-name="quotesinglbase" unicode="&#x201a;" horiz-adv-x="280" 
d="M192 140l-8 -61q-6 -43 -16.5 -75t-24 -56.5t-29 -43.5t-30.5 -37l-42 36q14 19 30 42t27 55h-49l20 140h122z" />
    <glyph glyph-name="quotedblleft" unicode="&#x201c;" horiz-adv-x="480" 
d="M109 463l8 61q6 44 16.5 75.5t24 56t29 43.5t30.5 37l42 -36q-14 -19 -29.5 -42t-26.5 -55h49l-21 -140h-122zM308 463l8 61q6 44 16.5 75.5t24 56t29 43.5t30.5 37l42 -36q-14 -19 -30 -42t-27 -55h50l-21 -140h-122z" />
    <glyph glyph-name="quotedblright" unicode="&#x201d;" horiz-adv-x="480" 
d="M259 736l-8 -61q-6 -43 -16.5 -75t-24 -56.5t-29 -43.5t-30.5 -37l-42 37q14 19 30 42t27 55h-49l20 139h122zM458 736l-8 -61q-6 -43 -16 -75t-23.5 -56.5t-29 -43.5t-31.5 -37l-42 37q14 19 29.5 42t26.5 55h-49l21 139h122z" />
    <glyph glyph-name="quotedblbase" unicode="&#x201e;" horiz-adv-x="480" 
d="M192 140l-8 -61q-6 -43 -16.5 -75t-24 -56.5t-29 -43.5t-30.5 -37l-42 36q14 19 30 42t27 55h-49l20 140h122zM391 140l-8 -61q-6 -43 -16 -75t-23.5 -56.5t-29 -43.5t-31.5 -37l-42 36q14 19 29.5 42t26.5 55h-49l21 140h122z" />
    <glyph glyph-name="dagger" unicode="&#x2020;" horiz-adv-x="560" 
d="M397 736l-61 -265l225 22l-19 -131l-217 26l-59 -582h-131l107 582l-224 -26l18 131l217 -22l13 265h131z" />
    <glyph glyph-name="daggerdbl" unicode="&#x2021;" horiz-adv-x="560" 
d="M400 736l-57 -227l226 22l-18 -130l-219 25v-155l-46 -159l228 28l-18 -135l-221 26l-7 -225h-133l56 225l-223 -26l20 135l215 -28v159l46 155l-224 -25l19 130l216 -22l8 227h132z" />
    <glyph glyph-name="bullet" unicode="&#x2022;" horiz-adv-x="600" 
d="M300 514q31 0 58.5 -12t47.5 -32t32 -47.5t12 -58.5t-12 -58t-32 -47.5t-47.5 -32.5t-58.5 -12t-58.5 12t-48 32.5t-32 47.5t-11.5 58t12 58.5t32 47.5t47.5 32t58.5 12z" />
    <glyph glyph-name="ellipsis" unicode="&#x2026;" horiz-adv-x="1000" 
d="M167 151q34 0 58 -24t24 -58t-23.5 -58.5t-58.5 -24.5t-58.5 24.5t-23.5 58.5t24 58t58 24zM500 151q34 0 58 -24t24 -58t-23.5 -58.5t-58.5 -24.5t-58.5 24.5t-23.5 58.5q0 35 24 58.5t58 23.5zM834 151q34 0 58 -24t24 -58t-23.5 -58.5t-58.5 -24.5t-58.5 24.5
t-23.5 58.5t24 58t58 24z" />
    <glyph glyph-name="perthousand" unicode="&#x2030;" horiz-adv-x="1280" 
d="M497 704q62 0 114 11t106 35h99l-683 -799h-99l584 686q-64 -13 -133 -13q-52 0 -100 6q2 -10 4 -22.5t2 -24.5q0 -37 -14 -71t-39 -60t-60 -42t-77 -16q-33 0 -61 11t-48.5 31t-31.5 47t-11 60q0 41 17 76t43.5 61t59.5 41t66 15q20 0 46 -5t58.5 -11t72 -11t85.5 -5z
M232 652q-21 0 -38.5 -8.5t-29.5 -22.5t-19 -32.5t-7 -38.5q0 -29 19 -50.5t51 -21.5q20 0 37 8t29.5 22t20 32t7.5 37q0 32 -19 53.5t-51 21.5zM660 322q33 0 60 -11.5t47 -31.5t31 -47.5t11 -59.5q0 -38 -14.5 -72.5t-40 -60.5t-60 -41.5t-75.5 -15.5q-35 0 -63.5 12
t-48 32.5t-30 47.5t-10.5 58q0 37 15 71t41.5 60.5t61.5 42.5t75 16zM1070 322q33 0 60 -11.5t46.5 -31.5t30.5 -47.5t11 -59.5q0 -38 -14 -72.5t-39.5 -60.5t-60.5 -41.5t-76 -15.5q-36 0 -64 12t-47.5 32.5t-30 47.5t-10.5 58q0 36 15.5 70.5t41.5 61t61.5 42.5t75.5 16z
M649 238q-40 0 -66.5 -28.5t-26.5 -69.5q0 -35 20.5 -54.5t51.5 -19.5q20 0 36.5 8.5t29 22.5t19.5 32t7 37q0 33 -19.5 52.5t-51.5 19.5zM1058 238q-40 0 -66.5 -28.5t-26.5 -69.5q0 -34 20.5 -54t51.5 -20q20 0 36.5 8.5t29 22.5t19.5 32t7 37q0 33 -19.5 52.5t-51.5 19.5
z" />
    <glyph glyph-name="guilsinglleft" unicode="&#x2039;" horiz-adv-x="240" 
d="M248 531l-128 -268l53 -263h-124l-53 263l129 268h123z" />
    <glyph glyph-name="guilsinglright" unicode="&#x203a;" horiz-adv-x="240" 
d="M-42 0l128 269l-52 262h124l52 -262l-128 -269h-124z" />
    <glyph glyph-name="fraction" unicode="&#x2044;" horiz-adv-x="160" 
d="M287 736h83l-482 -754h-84z" />
    <glyph glyph-name="Euro" unicode="&#x20ac;" horiz-adv-x="600" 
d="M248 248q66 -141 229 -141q48 0 99 17v-130q-46 -12 -101 -12q-296 0 -370 266h-66l25 80h32q0 11 1 26.5t3 35.5h-61l25 80h59q49 123 158 194t243 71q46 0 81 -8l-38 -121q-16 4 -40 4q-79 0 -147 -38q-69 -38 -109 -102h253l-25 -80h-260q-6 -24 -6 -41v-21h248
l-25 -80h-208z" />
    <glyph glyph-name="uni2113" unicode="&#x2113;" horiz-adv-x="498" 
d="M436 43q-23 -20 -59.5 -39.5t-81.5 -19.5q-35 0 -59 9.5t-42 29.5q-23 22 -33 59t-10 75v65q-14 -13 -26.5 -26t-26.5 -26l-36 58q22 23 44 44.5t45 43.5v205q0 103 42 155t111 52q33 0 55.5 -11.5t36 -29.5t19.5 -40t6 -42q0 -74 -33 -135.5t-84 -121.5q-8 -8 -17.5 -19
t-14.5 -18v-139q0 -54 16 -74.5t42 -20.5q21 0 39 12.5t32 25.5q8 -18 17 -35.5t18 -36.5zM349 589q0 18 -7.5 32t-25.5 14q-21 0 -32.5 -21.5t-11.5 -69.5v-132q4 4 8 9t7 10q28 36 45 79.5t17 78.5z" />
    <glyph glyph-name="trademark" unicode="&#x2122;" horiz-adv-x="1000" 
d="M395 646h-128v-338h-89v338h-129v72h346v-72zM930 308h-86v338l-134 -338h-43l-130 338v-338h-86v410h130l107 -263l112 263h130v-410z" />
    <glyph glyph-name="uni2126" unicode="&#x2126;" horiz-adv-x="716" 
d="M411 109q19 19 38.5 43.5t35.5 56.5t26.5 72.5t10.5 90.5q0 49 -10.5 89.5t-31 70t-51 46t-69.5 16.5q-38 0 -69 -16.5t-53 -46t-34 -71t-12 -91.5t10.5 -90t26.5 -71.5t36 -56t39 -42.5v-109h-255v109h145q-24 19 -49.5 44.5t-47.5 60.5t-36 80.5t-14 104.5
q0 68 23 125.5t64.5 99t100 65t128.5 23.5q75 0 132 -23.5t95.5 -65.5t58 -98.5t19.5 -122.5q0 -53 -12.5 -97t-33 -80t-47.5 -64.5t-56 -51.5h147v-109h-255v109z" />
    <glyph glyph-name="estimated" unicode="&#x212e;" horiz-adv-x="664" 
d="M173 88q65 -63 156 -63q72 0 122 34t86 95l36 -22q-22 -33 -46.5 -59.5t-53.5 -45.5t-64.5 -29t-79.5 -10q-64 0 -115.5 23t-87.5 63.5t-55 94.5t-19 115q0 62 19 115.5t54.5 93.5t87 63t116.5 23q66 0 117.5 -23t87.5 -62.5t55.5 -93.5t21.5 -116h-438v-196zM485 478
q-32 31 -72 48t-85 17q-92 0 -155 -64v-158h312v157z" />
    <glyph glyph-name="uni2153" unicode="&#x2153;" horiz-adv-x="840" 
d="M615 736h83l-483 -754h-83zM285 727l-59 -369h-90l47 294h-65l31 75h136zM539 270q5 52 42.5 80t88.5 28q26 0 47.5 -8t36.5 -21.5t23.5 -31t8.5 -35.5q0 -46 -57 -84q49 -34 49 -82q0 -53 -45 -89t-107 -36q-53 0 -93 31t-40 100h86q2 -56 54 -56q26 0 41 16t15 37
q0 47 -80 47l12 69q74 0 74 42q0 26 -34 26q-32 0 -37 -33h-85z" />
    <glyph glyph-name="uni2154" unicode="&#x2154;" horiz-adv-x="840" 
d="M72 605q1 63 38.5 97t97.5 34q58 0 93.5 -30.5t35.5 -75.5q0 -35 -25 -73q-25 -40 -123 -124h132l-12 -75h-274l9 58q129 109 166 148q38 41 38 66q0 14 -11.5 23t-28.5 9q-40 0 -48 -57h-88zM626 736h84l-482 -754h-84zM539 270q5 52 42.5 80t88.5 28q27 0 48.5 -8
t36.5 -21.5t23 -31t8 -35.5q0 -47 -58 -84q50 -35 50 -82q0 -53 -46 -89q-45 -36 -106 -36q-46 0 -79 21q-33 22 -43.5 48.5t-10.5 61.5h86q2 -56 54 -56q26 0 40.5 16t14.5 37q0 47 -79 47l12 69q74 0 74 42q0 26 -34 26q-32 0 -37 -33h-85z" />
    <glyph glyph-name="oneeighth" unicode="&#x215b;" horiz-adv-x="840" 
d="M608 736h84l-483 -754h-83zM285 727l-59 -369h-90l47 294h-65l31 75h136zM717 199q63 -24 63 -86q0 -27 -11.5 -49.5t-32.5 -38.5t-49.5 -25t-61.5 -9q-64 0 -102 33t-38 73q0 71 89 109q-44 23 -44 70q0 42 39 72t97 30q27 0 49.5 -7.5t39 -20t26 -29.5t9.5 -36
q0 -58 -73 -86zM698 274q0 29 -34 29q-20 0 -32.5 -10t-12.5 -24q0 -31 35 -31q19 0 31.5 10.5t12.5 25.5zM692 117q0 20 -14.5 34.5t-37.5 14.5q-29 0 -46.5 -17.5t-17.5 -39.5q0 -19 14.5 -31t39.5 -12q28 0 45 15t17 36z" />
    <glyph glyph-name="threeeighths" unicode="&#x215c;" horiz-adv-x="840" 
d="M90 628q6 52 43.5 80t88.5 28q27 0 48.5 -8t36.5 -21.5t23 -31t8 -35.5q0 -47 -58 -84q50 -35 50 -82q0 -53 -46 -89q-45 -36 -106 -36q-47 0 -80 21q-32 22 -43 48.5t-11 61.5h86q2 -56 55 -56q26 0 40.5 16.5t14.5 37.5q0 46 -79 46l11 69q75 0 75 42q0 26 -34 26
q-32 0 -38 -33h-85zM627 736h83l-482 -754h-83zM717 199q63 -24 63 -86q0 -27 -11.5 -49.5t-32.5 -38.5t-49.5 -25t-61.5 -9q-64 0 -102 33t-38 73q0 71 89 109q-44 23 -44 70q0 42 39 72t97 30q27 0 49.5 -7.5t39.5 -20t26.5 -29.5t9.5 -36q0 -57 -74 -86zM699 274
q0 29 -35 29q-20 0 -32.5 -10t-12.5 -24q0 -31 35 -31q19 0 32 10.5t13 25.5zM692 117q0 20 -14.5 34.5t-37.5 14.5q-28 0 -46 -17.5t-18 -39.5q0 -19 14.5 -31t39.5 -12q28 0 45 15t17 36z" />
    <glyph glyph-name="fiveeighths" unicode="&#x215d;" horiz-adv-x="840" 
d="M627 736h83l-482 -754h-83zM357 727l-12 -74h-138l-19 -51q14 3 30 3q48 0 80.5 -27t32.5 -82q0 -31 -11.5 -58t-31.5 -47t-48.5 -31t-63.5 -11q-97 0 -142 81l79 31q31 -37 67 -37q28 0 43.5 17.5t15.5 42.5q0 20 -12 33t-31 13q-25 0 -40 -23l-80 22l67 198h214z
M718 199q62 -24 62 -86q0 -27 -11.5 -49.5t-32.5 -38.5t-49.5 -25t-61.5 -9q-64 0 -102 33q-37 33 -37 73q0 72 88 109q-44 23 -44 70q0 42 39 72t97 30q27 0 49.5 -7.5t39.5 -20t26.5 -29.5t9.5 -36q0 -58 -73 -86zM699 274q0 29 -35 29q-20 0 -32.5 -10t-12.5 -24
q0 -31 35 -31q19 0 32 10.5t13 25.5zM692 117q0 18 -13.5 33.5t-38.5 15.5q-28 0 -46 -17.5t-18 -39.5q0 -19 14.5 -31t39.5 -12q28 0 45 15t17 36z" />
    <glyph glyph-name="seveneighths" unicode="&#x215e;" horiz-adv-x="840" 
d="M602 736h84l-483 -754h-83zM370 727l-5 -48l-216 -330l-68 45l173 258h-171l11 75h276zM717 199q63 -24 63 -86q0 -27 -11.5 -49.5t-32.5 -38.5t-49.5 -25t-61.5 -9q-64 0 -102 33t-38 73q0 71 89 109q-44 23 -44 70q0 21 10.5 39.5t28.5 32.5t43 22t53 8q27 0 49.5 -7.5
t39.5 -20t26.5 -29.5t9.5 -36q0 -58 -73 -86zM698 274q0 29 -34 29q-20 0 -32.5 -10t-12.5 -24q0 -31 35 -31q19 0 31.5 10.5t12.5 25.5zM692 117q0 20 -14.5 34.5t-37.5 14.5q-29 0 -46.5 -17.5t-17.5 -39.5q0 -19 14.5 -31t39.5 -12q28 0 45 15t17 36z" />
    <glyph glyph-name="partialdiff" unicode="&#x2202;" horiz-adv-x="582" 
d="M548 462q0 -94 -23 -188q-16 -58 -42 -110t-62 -91t-81.5 -61.5t-99.5 -22.5q-46 0 -84 15t-65.5 42t-42.5 64t-15 81q0 76 23 132.5t59.5 94t82.5 56t91 18.5t77 -17.5t46 -40.5h2q2 14 3 26.5t1 28.5q0 69 -33.5 106t-90.5 37q-25 0 -50 -7.5t-45 -18.5l-27 88
q23 16 60 26.5t82 10.5q108 0 171 -69.5t63 -199.5zM400 336q-11 29 -32 47t-54 18q-28 0 -54.5 -17t-47 -46t-32.5 -69t-12 -86q0 -42 19 -67.5t54 -25.5q30 0 56 20.5t46.5 55t35 78.5t21.5 92z" />
    <glyph glyph-name="uni2206" unicode="&#x2206;" horiz-adv-x="616" 
d="M1 57q54 162 107 321.5t107 321.5h189q52 -162 104.5 -321.5t105.5 -321.5v-57h-613v57zM321 528q-6 21 -10 38t-6 25h-4q-2 -8 -5.5 -24t-8.5 -36q-33 -106 -66.5 -210.5t-66.5 -210.5h299z" />
    <glyph glyph-name="product" unicode="&#x220f;" horiz-adv-x="726" 
d="M516 582h-306v-812h-137v930h580v-930h-137v812z" />
    <glyph glyph-name="summation" unicode="&#x2211;" horiz-adv-x="637" 
d="M41 -158l281 398q-66 96 -131.5 191t-131.5 191v78h516v-109h-352q60 -88 120 -174t120 -174l-255 -364h387v-109h-554v72z" />
    <glyph glyph-name="minus" unicode="&#x2212;" horiz-adv-x="600" 
d="M544 420v-122h-488v122h488z" />
    <glyph glyph-name="uni2215" unicode="&#x2215;" horiz-adv-x="160" 
d="M287 736h83l-482 -754h-84z" />
    <glyph glyph-name="uni2219" unicode="&#x2219;" horiz-adv-x="280" 
d="M140 442q34 0 58 -24.5t24 -58.5t-24 -58t-58 -24t-58 24t-24 58t24 58.5t58 24.5z" />
    <glyph glyph-name="radical" unicode="&#x221a;" horiz-adv-x="522" 
d="M512 729q-45 -186 -88 -370.5t-88 -370.5h-108q-31 76 -61 151.5t-60 151.5q-14 -9 -27.5 -18t-27.5 -18l-42 65q78 52 153 103q30 -75 59.5 -149.5t58.5 -149.5q35 152 71 302.5t71 302.5h89z" />
    <glyph glyph-name="infinity" unicode="&#x221e;" horiz-adv-x="792" 
d="M754 294q0 -39 -13.5 -72.5t-37.5 -58t-56.5 -38t-70.5 -13.5q-54 0 -101 27.5t-78 75.5h-2q-32 -44 -76.5 -73.5t-101.5 -29.5q-34 0 -66.5 11.5t-57.5 34.5t-40 56.5t-15 76.5t15 76t40 56t57 35t66 12q60 0 105 -30t74 -73h2q11 17 28 35t39.5 33t50 25t59.5 10
q39 0 72 -13.5t57 -37t37.5 -55.5t13.5 -70zM346 292q-23 37 -53.5 62.5t-67.5 25.5q-41 0 -63.5 -27t-22.5 -62q0 -37 24 -63t63 -26q38 0 68.5 27t51.5 63zM652 293q0 35 -21.5 60.5t-65.5 25.5q-38 0 -66 -23.5t-54 -63.5q23 -41 53.5 -65.5t67.5 -24.5q43 0 64.5 28
t21.5 63z" />
    <glyph glyph-name="integral" unicode="&#x222b;" horiz-adv-x="495" 
d="M423 640q-7 3 -18.5 5.5t-22.5 2.5q-32 0 -50 -21t-18 -64v-595q0 -44 -10.5 -81t-33 -64t-56.5 -42t-82 -15q-22 0 -48 4t-39 10q5 24 11 48l12 48q18 -8 42 -8q68 0 68 85v593q0 45 10.5 82.5t33 64.5t57 42t82.5 15q26 0 52 -5t37 -11q-7 -24 -13 -47.5t-14 -46.5z
" />
    <glyph glyph-name="approxequal" unicode="&#x2248;" horiz-adv-x="600" 
d="M563 424q-33 -48 -68.5 -72t-88.5 -24q-26 0 -55 6.5t-58 23.5q-22 14 -44.5 23.5t-48.5 9.5q-16 0 -29 -7.5t-22.5 -18t-17 -22t-12.5 -20.5l-81 94q29 41 64.5 69t91.5 28q60 0 113 -31q27 -16 49 -24t45 -8q15 0 27.5 6.5t22.5 16.5t17.5 22t13.5 22zM563 182
q-33 -48 -68.5 -72t-88.5 -24q-26 0 -55 6.5t-58 23.5q-22 14 -44.5 23.5t-48.5 9.5q-16 0 -29 -7.5t-22.5 -18t-17 -22t-12.5 -20.5l-81 94q29 41 64.5 69t91.5 28q32 0 59.5 -8t53.5 -22q27 -17 49 -25t45 -8q15 0 27.5 6.5t22.5 16.5t17.5 22t13.5 22z" />
    <glyph glyph-name="notequal" unicode="&#x2260;" horiz-adv-x="600" 
d="M244 22h-136l43 97h-75v123h130l54 120h-184v123h240l53 118h136l-53 -118h73v-123h-129l-53 -120h182v-123h-237z" />
    <glyph glyph-name="lessequal" unicode="&#x2264;" horiz-adv-x="600" 
d="M76 438l449 171v-126l-298 -105v-2l298 -104v-125l-449 172v119zM76 123h449v-123h-449v123z" />
    <glyph glyph-name="greaterequal" unicode="&#x2265;" horiz-adv-x="600" 
d="M76 275l298 104v2l-298 104v125l449 -172v-119l-449 -171v127zM76 123h448v-123h-448v123z" />
    <glyph glyph-name="lozenge" unicode="&#x25ca;" horiz-adv-x="566" 
d="M514 350q-51 -88 -100.5 -175t-99.5 -175h-63l-199 349q50 88 99.5 175.5t99.5 175.5h63q50 -88 99.5 -175t100.5 -175zM283 587q-34 -60 -67.5 -118.5t-66.5 -118.5l133 -237q34 60 67.5 118.5t66.5 118.5z" />
    <glyph glyph-name="uniE000" unicode="&#xe000;" horiz-adv-x="262" 
d="M195 735l-7 -51q-4 -43 -21 -85q-15 -43 -64 -96l-36 32q19 23 31 44t18 38h-42l17 118h104z" />
    <glyph glyph-name="uniE001" unicode="&#xe001;" horiz-adv-x="211" 
d="M25 625l121 158l57 -34l-87 -177z" />
    <glyph glyph-name="zero.denominator" unicode="&#xf655;" horiz-adv-x="336" 
d="M293 230q0 -100 -50 -170q-49 -69 -131 -69q-51 0 -84 34.5t-33 104.5q0 113 49 180q50 68 128 68q54 0 87.5 -39t33.5 -109zM206 237q0 66 -41 66q-35 0 -59 -57q-24 -55 -24 -116q0 -64 38 -64q37 0 61 53q25 51 25 118z" />
    <glyph glyph-name="one.denominator" unicode="&#xf656;" horiz-adv-x="336" 
d="M234 369l-60 -369h-89l47 293h-65l31 76h136z" />
    <glyph glyph-name="two.denominator" unicode="&#xf657;" horiz-adv-x="336" 
d="M25 248q1 63 39 97t98 34q57 0 92.5 -30.5t35.5 -75.5q0 -35 -25 -73q-25 -40 -123 -124h132l-12 -75h-274l9 58q129 109 166 148q38 41 38 66q0 14 -11.5 23t-27.5 9q-41 0 -49 -57h-88z" />
    <glyph glyph-name="three.denominator" unicode="&#xf658;" horiz-adv-x="336" 
d="M39 270q5 52 42.5 80t88.5 28q26 0 47.5 -8t36.5 -21.5t23.5 -31t8.5 -35.5q0 -47 -58 -84q50 -35 50 -82q0 -53 -46 -89q-45 -36 -106 -36q-46 0 -79 21q-33 22 -43.5 48.5t-10.5 61.5h86q2 -56 54 -56q26 0 40.5 16t14.5 37q0 47 -79 47l12 69q74 0 74 42q0 26 -34 26
q-32 0 -37 -33h-85z" />
    <glyph glyph-name="four.denominator" unicode="&#xf659;" horiz-adv-x="336" 
d="M291 378l-38 -238h40l-11 -72h-40l-11 -68h-81l11 68h-183l10 69l221 241h82zM83 140h89l17 118z" />
    <glyph glyph-name="five.denominator" unicode="&#xf65a;" horiz-adv-x="336" 
d="M305 369l-12 -75h-138l-19 -51q12 4 30 4q48 0 80.5 -27t32.5 -82q0 -63 -43 -105t-111 -42q-98 0 -143 81l79 31q31 -37 67 -37q28 0 43.5 18t15.5 42q0 20 -11.5 33t-30.5 13q-24 0 -41 -23l-80 22l67 198h214z" />
    <glyph glyph-name="six.denominator" unicode="&#xf65b;" horiz-adv-x="336" 
d="M233 330l-81 -102q31 0 55.5 -9t41.5 -25t26 -36.5t9 -43.5q0 -25 -11 -47.5t-30.5 -39.5t-47.5 -26.5t-61 -9.5q-64 0 -102 35q-37 36 -37 80q0 62 87 165l88 107zM195 113q0 19 -15.5 31.5t-38.5 12.5q-25 0 -42.5 -14.5t-17.5 -33.5q0 -18 15 -30.5t40 -12.5
q26 0 42.5 14t16.5 33z" />
    <glyph glyph-name="seven.denominator" unicode="&#xf65c;" horiz-adv-x="336" 
d="M318 369l-5 -48l-215 -330l-68 45l173 258h-172l11 75h276z" />
    <glyph glyph-name="eight.denominator" unicode="&#xf65d;" horiz-adv-x="336" 
d="M217 199q63 -24 63 -86q0 -27 -11.5 -49.5t-32.5 -38.5t-49.5 -25t-61.5 -9q-64 0 -102 33t-38 73q0 71 89 109q-44 23 -44 70q0 42 39 72t97 30q27 0 50 -7.5t39.5 -20.5t25.5 -30t9 -35q0 -58 -73 -86zM198 274q0 29 -34 29q-20 0 -32.5 -10t-12.5 -24q0 -31 35 -31
q19 0 31.5 10.5t12.5 25.5zM192 117q0 20 -14.5 34.5t-37.5 14.5q-29 0 -46.5 -17.5t-17.5 -39.5q0 -19 14.5 -31t39.5 -12q28 0 45 15t17 36z" />
    <glyph glyph-name="nine.denominator" unicode="&#xf65e;" horiz-adv-x="336" 
d="M59 39l82 103q-60 0 -96.5 32.5t-36.5 80.5q0 26 11 48t30.5 39t47.5 26.5t62 9.5q63 0 101 -35t38 -80q0 -61 -87 -165l-89 -107zM98 256q0 -19 14.5 -31.5t39.5 -12.5t42 14.5t17 33.5q0 17 -15 30t-40 13t-41.5 -14t-16.5 -33z" />
    <glyph glyph-name="zero.numerator" unicode="&#xf661;" horiz-adv-x="336" 
d="M346 588q0 -100 -50 -170q-49 -69 -131 -69q-51 0 -84 34.5t-33 104.5q0 113 49 180q50 68 128 68q54 0 87.5 -39t33.5 -109zM259 595q0 66 -41 66q-35 0 -59 -57q-24 -55 -24 -116q0 -64 38 -64q37 0 61 53q25 51 25 118z" />
    <glyph glyph-name="one.numerator" unicode="&#xf662;" horiz-adv-x="336" 
d="M281 727l-59 -369h-90l47 294h-65l31 75h136z" />
    <glyph glyph-name="two.numerator" unicode="&#xf663;" horiz-adv-x="336" 
d="M68 605q1 63 39 97t98 34q57 0 92.5 -30.5t35.5 -75.5q0 -35 -25 -73q-25 -40 -123 -124h132l-12 -75h-274l9 58q129 109 166 148q38 41 38 66q0 14 -11.5 23t-27.5 9q-41 0 -49 -57h-88z" />
    <glyph glyph-name="three.numerator" unicode="&#xf664;" horiz-adv-x="336" 
d="M86 628q6 52 43.5 80t88.5 28q27 0 48.5 -8t36.5 -21.5t23 -31t8 -35.5q0 -47 -58 -84q50 -35 50 -82q0 -53 -46 -89q-45 -36 -106 -36q-47 0 -80 21q-32 22 -42.5 48.5t-10.5 61.5h85q2 -56 55 -56q26 0 40.5 16.5t14.5 37.5q0 46 -79 46l11 69q75 0 75 42q0 26 -34 26
q-32 0 -38 -33h-85z" />
    <glyph glyph-name="four.numerator" unicode="&#xf665;" horiz-adv-x="336" 
d="M338 736l-37 -238h40l-11 -72h-40l-11 -68h-81l10 68h-183l11 69l220 241h82zM131 498h88l17 118z" />
    <glyph glyph-name="five.numerator" unicode="&#xf666;" horiz-adv-x="336" 
d="M353 727l-12 -74h-139l-18 -51q14 3 29 3q48 0 80.5 -27t32.5 -82q0 -63 -43 -105t-111 -42q-98 0 -143 81l79 31q31 -37 67 -37q28 0 43.5 17.5t15.5 42.5q0 20 -11.5 33t-30.5 13q-25 0 -40 -23l-80 22l67 198h214z" />
    <glyph glyph-name="six.numerator" unicode="&#xf667;" horiz-adv-x="336" 
d="M281 688l-82 -102q60 0 96.5 -32.5t36.5 -80.5q0 -50 -42 -88q-40 -36 -109 -36q-63 0 -101 35t-38 80q0 62 87 165l89 107zM242 471q0 19 -15 32t-39 13q-25 0 -42.5 -14.5t-17.5 -34.5q0 -17 15.5 -30t40.5 -13t41.5 14t16.5 33z" />
    <glyph glyph-name="seven.numerator" unicode="&#xf668;" horiz-adv-x="336" 
d="M366 727l-5 -48l-215 -330l-69 45l173 258h-171l11 75h276z" />
    <glyph glyph-name="eight.numerator" unicode="&#xf669;" horiz-adv-x="336" 
d="M265 557q62 -24 62 -86q0 -27 -11.5 -49.5t-32.5 -38.5t-49.5 -25t-61.5 -9q-64 0 -102 33q-37 33 -37 73q0 71 89 109q-44 23 -44 70q0 21 10.5 40t28.5 32.5t42.5 21.5t53.5 8q27 0 49.5 -7.5t39 -20t26 -29.5t9.5 -36q0 -57 -72 -86zM246 632q0 29 -35 29
q-20 0 -32.5 -10t-12.5 -25q0 -30 35 -30q19 0 32 10.5t13 25.5zM239 475q0 20 -14.5 34.5t-37.5 14.5q-28 0 -45.5 -17.5t-17.5 -38.5q0 -19 14.5 -31.5t38.5 -12.5q29 0 45.5 15t16.5 36z" />
    <glyph glyph-name="nine.numerator" unicode="&#xf66a;" horiz-adv-x="336" 
d="M107 397l81 103q-31 0 -55.5 9t-41.5 24.5t-26 36t-9 43.5q0 26 11 48t30.5 39t47.5 26.5t62 9.5q63 0 101 -35t38 -79q0 -61 -87 -166l-89 -107zM146 614q0 -19 14.5 -31.5t39.5 -12.5t42 14.5t17 34.5q0 18 -15.5 30t-39.5 12q-25 0 -41.5 -14t-16.5 -33z" />
    <glyph glyph-name="uniF6C3" unicode="&#xf6c3;" horiz-adv-x="0" 
d="M-402 -7q16 1 27.5 1.5t19.5 0.5q57 0 80.5 -22.5t23.5 -53.5q0 -39 -37 -72q-37 -34 -102 -34q-41 0 -92 18l26 64q35 -8 52 -8q56 0 56 39q0 24 -35 24q-12 0 -37 -3z" />
    <glyph glyph-name="uni03020300" horiz-adv-x="0" 
d="M-177 661h86l-51 112h-108zM-371 600h-91l104 116h93l72 -116h-91l-34 61z" />
    <glyph glyph-name="uni03020301" horiz-adv-x="0" 
d="M-185 764l-82 -112h86l104 112h-108zM-441 600h-91l104 116h93l72 -116h-91l-34 61z" />
    <glyph glyph-name="uni03020303" horiz-adv-x="0" 
d="M-348 735q6 46 22.5 72t37.5 36t45 5t47 -22q24 -20 37 -19t18 38h73q-6 -45 -22.5 -71.5t-37.5 -36.5t-45.5 -5t-46.5 22q-25 20 -37.5 19t-17.5 -38h-73zM-278 600h-91l104 116h93l72 -116h-91l-34 61z" />
    <glyph glyph-name="uni03020309" horiz-adv-x="0" 
d="M-153 824q35 0 57 -21.5t17 -53.5q-2 -19 -13.5 -34.5t-32.5 -31.5q-19 -14 -24 -22t-5 -17h-71q0 34 39 64q17 13 23 20.5t7 13.5q1 13 -10 13q-9 0 -12.5 -6t-5.5 -25h-74l1 13q5 38 35 62.5t69 24.5zM-407 600h-91l104 116h93l72 -116h-91l-34 61z" />
    <glyph glyph-name="uni03060300" horiz-adv-x="0" 
d="M-258 723h86l-51 112h-108zM-230 592q-62 0 -92.5 30t-22.5 86h81q-6 -49 43 -49q23 0 38 12t18 37h81q-8 -56 -46 -86t-100 -30z" />
    <glyph glyph-name="uni03060301" horiz-adv-x="0" 
d="M-173 836l-82 -112h86l104 112h-108zM-231 592q-62 0 -92.5 30t-22.5 86h81q-6 -49 43 -49q23 0 38 12t18 37h81q-8 -56 -46 -86t-100 -30z" />
    <glyph glyph-name="uni03060303" horiz-adv-x="0" 
d="M-344 733q6 46 22.5 72t37.5 36t45 5t47 -22q24 -20 36.5 -19t17.5 38h73q-6 -45 -22 -71.5t-37 -36.5t-45.5 -5t-46.5 22q-25 20 -37.5 19t-17.5 -38h-73zM-231 592q-62 0 -92.5 30t-22.5 86h81q-6 -49 43 -49q23 0 38 12t18 37h81q-8 -56 -46 -86t-100 -30z" />
    <glyph glyph-name="uni03060309" horiz-adv-x="0" 
d="M-175 901q35 0 57 -21.5t17 -53.5q-2 -19 -13.5 -34.5t-32.5 -31.5q-19 -14 -24 -22t-5 -17h-71q0 34 39 64q17 13 23 20.5t7 13.5q1 13 -10 13q-9 0 -12.5 -6t-5.5 -25h-74l1 13q5 38 35 62.5t69 24.5zM-230 592q-62 0 -92.5 30t-22.5 86h81q-6 -49 43 -49q23 0 38 12
t18 37h81q-8 -56 -46 -86t-100 -30z" />
    </font>
</defs>
</svg>
