<?xml version="1.0" standalone="no"?>
<!DOCTYPE svg PUBLIC "-//W3C//DTD SVG 1.1//EN" "http://www.w3.org/Graphics/SVG/1.1/DTD/svg11.dtd" >
<svg xmlns="http://www.w3.org/2000/svg" xmlns:xlink="http://www.w3.org/1999/xlink" version="1.1">
<metadata>
Created by FontForge 20190801 at Mon May 13 02:56:24 2019
 By Unknown
Copyright The Monotype Corporation. All rights reserved.
</metadata>
<defs>
<font id="iCielCenturyGothicPro-Bold" horiz-adv-x="640" >
  <font-face 
    font-family="iCiel Century Gothic Pro Bold"
    font-weight="700"
    font-stretch="normal"
    units-per-em="1000"
    panose-1="2 11 5 2 2 2 2 2 2 4"
    ascent="736"
    descent="-264"
    x-height="531"
    cap-height="718"
    bbox="-532 -234 1260 1089"
    underline-thickness="50"
    underline-position="-100"
    unicode-range="U+000D-FB04"
  />
<missing-glyph horiz-adv-x="500" 
d="M487 665v-665h-475v665h475zM411 618h-323l162 -243zM60 91l7 10t18 27t25.5 39t30.5 45q35 53 80 121l-161 242v-484zM440 90v485l-162 -242zM88 48h323l-161 242z" />
    <glyph glyph-name="f_f" unicode="ff" horiz-adv-x="557" 
d="M374 726q45 24 93 24q51 0 105 -19v-102q-33 9 -59 9q-28 0 -38.5 -14t-10.5 -52v-41h84v-113h-84v-418h-133v418h-141v-418h-134v418h-49v113h49q0 67 17 113q18 46 67.5 76t121.5 30q61 0 112 -24zM331 592q-16 46 -70 46q-12 0 -25 -4.5t-23 -15t-16.5 -28t-6.5 -44.5
v-15h141v61z" />
    <glyph glyph-name="fi" unicode="fi" horiz-adv-x="520" 
d="M55 531q0 22 1.5 46t8.5 47q19 60 69.5 93t126.5 33q175 0 202 -159h-139q-8 23 -25.5 35t-39.5 12q-36 0 -56 -29q-13 -18 -14 -37.5t-1 -40.5h78v-112h-78v-419h-133v419h-50v112h50zM463 531v-531h-133v531h133z" />
    <glyph glyph-name="fl" unicode="fl" horiz-adv-x="520" 
d="M55 531q0 20 1 44t9 49q19 61 69 93.5t125 32.5q106 0 161 -63q29 -32 36 -69t7 -87v-531h-133v541q0 48 -16.5 72.5t-54.5 24.5q-41 0 -56 -28t-15 -79h78v-112h-78v-419h-133v419h-50v112h50z" />
    <glyph glyph-name="f_f_i" unicode="ffi" horiz-adv-x="794" 
d="M398 709q53 41 137 41q175 0 202 -159h-139q-15 47 -64 47q-24 0 -44 -15q-18 -15 -22.5 -33t-4.5 -59h78v-112h-78v-419h-134v419h-141v-419h-134v419h-49v112h49q0 75 19 117q19 45 68 73.5t119 28.5q83 0 138 -41zM331 575q-19 63 -72 63q-24 0 -44 -15
q-18 -15 -22.5 -33t-4.5 -59h141q0 15 0.5 26t1.5 18zM737 531v-531h-133v531h133z" />
    <glyph glyph-name="f_f_l" unicode="ffl" horiz-adv-x="795" 
d="M398 710q52 40 134 40q70 0 117 -26q46 -25 67 -66q22 -40 22 -127v-531h-134v521q0 66 -15.5 91.5t-54.5 25.5t-55 -26.5t-16 -80.5h78v-112h-78v-419h-134v419h-141v-419h-134v419h-49v112h49q0 72 18 115q18 45 67 74.5t121 29.5q86 0 138 -40zM329 531q0 14 0.5 24.5
t1.5 18.5q-21 64 -72 64q-24 0 -44 -15q-18 -15 -22.5 -33t-4.5 -59h141z" />
    <glyph glyph-name=".notdef" horiz-adv-x="500" 
d="M487 665v-665h-475v665h475zM411 618h-323l162 -243zM60 91l7 10t18 27t25.5 39t30.5 45q35 53 80 121l-161 242v-484zM440 90v485l-162 -242zM88 48h323l-161 242z" />
    <glyph glyph-name=".null" horiz-adv-x="0" 
 />
    <glyph glyph-name=".null" horiz-adv-x="0" 
 />
    <glyph glyph-name="nonmarkingreturn" unicode="&#xd;" horiz-adv-x="250" 
 />
    <glyph glyph-name="space" unicode=" " horiz-adv-x="280" 
 />
    <glyph glyph-name="exclam" unicode="!" horiz-adv-x="280" 
d="M206 736v-524h-133v524h133zM140 154q35 0 59 -24.5t24 -59.5t-24 -59.5t-59 -24.5t-59.5 24.5t-24.5 59.5t24.5 59.5t59.5 24.5z" />
    <glyph glyph-name="quotedbl" unicode="&#x22;" horiz-adv-x="360" 
d="M42 490l-27 246h130l-27 -246h-76zM242 490l-26 246h130l-27 -246h-77z" />
    <glyph glyph-name="numbersign" unicode="#" horiz-adv-x="600" 
d="M542 234h-112l-35 -234h-98l34 234h-94l-34 -234h-97l34 234h-110v97h125l15 92h-109v97h122l32 216h95l-30 -216h93l32 216h98l-32 -216h99v-97h-113l-12 -92h97v-97zM265 423l-13 -92h93l15 92h-95z" />
    <glyph glyph-name="dollar" unicode="$" horiz-adv-x="560" 
d="M349 730q30 -7 52 -16.5t40.5 -21.5t34 -26.5t31.5 -30.5l-94 -92q-32 32 -64 49.5t-64 17.5q-37 0 -60 -20t-23 -48q0 -19 8.5 -32.5t31 -26.5t60.5 -29t96 -42q29 -12 54 -32.5t43.5 -47t29.5 -59.5t11 -71q0 -41 -13 -76.5t-37 -66.5q-31 -39 -64.5 -53t-72.5 -22
v-131h-92v128q-55 6 -109 32.5t-114 90.5l93 95q43 -45 85 -70t87 -25q21 0 39.5 7.5t32.5 20.5t22.5 31.5t8.5 39.5q0 22 -8.5 42.5t-22.5 29.5q-37 25 -80.5 48t-92.5 44q-23 10 -46.5 28t-42 42.5t-30 54t-11.5 62.5q0 38 15 70.5t40.5 56.5t60 38.5t73.5 16.5v49h92v-55
z" />
    <glyph glyph-name="percent" unicode="%" horiz-adv-x="860" 
d="M437 704q64 0 120 11.5t104 34.5h98l-569 -799h-98l486 686q-29 -5 -67 -9.5t-87 -4.5q-36 0 -71 3q4 -12 7.5 -27.5t3.5 -34.5q0 -35 -13 -66t-36 -54.5t-54.5 -37t-67.5 -13.5t-67 13t-54.5 36t-37 54t-13.5 67q0 38 14.5 69.5t38.5 54.5t54 36t61 13q21 0 47 -5
t57 -11t66.5 -11t77.5 -5zM192 647q-35 0 -58.5 -24t-23.5 -58t23.5 -58.5t58.5 -24.5q34 0 58.5 24.5t24.5 58.5q0 35 -24.5 58.5t-58.5 23.5zM668 324q35 0 66.5 -13.5t55 -37t37 -54.5t13.5 -67t-13.5 -67t-37 -54t-55 -36.5t-66.5 -13.5q-36 0 -67 13.5t-54 36.5
t-36.5 54t-13.5 67t13.5 67t36.5 54.5t54 37t67 13.5zM668 235q-35 0 -58.5 -24t-23.5 -59t23.5 -58.5t58.5 -23.5t59 23.5t24 58.5t-24 59t-59 24z" />
    <glyph glyph-name="ampersand" unicode="&#x26;" horiz-adv-x="680" 
d="M443 49q-55 -32 -106.5 -49t-103.5 -17q-40 0 -74 12t-59 34.5t-38.5 54t-13.5 70.5q0 63 31.5 113t95.5 100q-68 92 -68 164q0 29 12 57t35 50.5t55.5 36t72.5 13.5q41 0 73.5 -14t55 -36t34.5 -49.5t12 -55.5q0 -52 -31.5 -94.5t-84.5 -94.5q27 -32 54 -64.5t58 -63.5
q14 11 34.5 28t45.5 38l81 -93q-20 -19 -38.5 -35.5t-34.5 -31.5l115 -122h-166zM273 440q25 22 39.5 42t14.5 40q0 18 -12 31t-32 13t-32.5 -14.5t-12.5 -30.5q0 -17 9 -38.5t26 -42.5zM354 144q-19 19 -46 49.5t-60 72.5q-35 -29 -54 -55t-19 -49q0 -19 18 -38t52 -19
q30 0 56 11.5t53 27.5z" />
    <glyph glyph-name="quotesingle" unicode="'" horiz-adv-x="220" 
d="M72 490l-27 246h130l-27 -246h-76z" />
    <glyph glyph-name="parenleft" unicode="(" horiz-adv-x="380" 
d="M185 -208q-37 59 -63.5 114t-43.5 112.5t-25 121.5t-8 140q0 66 7 125t23 116t43 113t67 116h169q-91 -103 -131 -219t-40 -256q0 -81 11 -147t32.5 -123t53.5 -109t74 -104h-169z" />
    <glyph glyph-name="parenright" unicode=")" horiz-adv-x="380" 
d="M195 750q37 -58 63 -112.5t43 -112.5t25 -122t8 -141q0 -66 -6.5 -125t-22.5 -116t-43 -113t-67 -116h-169q92 103 133 219t41 256q0 81 -11 147t-33 123t-54.5 108.5t-75.5 104.5h169z" />
    <glyph glyph-name="asterisk" unicode="*" horiz-adv-x="440" 
d="M285 736l-38 -147l110 104l57 -107l-149 -38l149 -43l-64 -105l-107 105l38 -146h-120l38 146l-109 -105l-65 105l149 43l-149 41l65 109l109 -109l-38 147h124z" />
    <glyph glyph-name="plus" unicode="+" horiz-adv-x="600" 
d="M239 603h123v-183h182v-122h-182v-183h-123v183h-183v122h183v183z" />
    <glyph glyph-name="comma" unicode="," horiz-adv-x="280" 
d="M226 87l-120 -206l-67 32l92 222z" />
    <glyph glyph-name="hyphen" unicode="-" horiz-adv-x="420" 
d="M334 326v-122h-248v122h248z" />
    <glyph glyph-name="period" unicode="." horiz-adv-x="280" 
d="M140 139q32 0 54 -22t22 -54t-22 -54.5t-54 -22.5t-54.5 22.5t-22.5 54.5t22.5 54t54.5 22z" />
    <glyph glyph-name="slash" unicode="/" horiz-adv-x="460" 
d="M344 739h94l-323 -867h-94z" />
    <glyph glyph-name="zero" unicode="0" horiz-adv-x="560" 
d="M278 736q129 0 191 -93.5t62 -283.5t-61 -283t-188 -93q-60 0 -104.5 19.5t-79.5 63.5q-41 53 -55.5 122.5t-14.5 163.5q0 104 16.5 178.5t57.5 124.5q66 81 176 81zM281 605q-66 0 -90.5 -64t-24.5 -192q0 -240 116 -240q115 0 115 248t-116 248z" />
    <glyph glyph-name="one" unicode="1" horiz-adv-x="560" 
d="M370 718v-718h-137v588h-148l79 130h206z" />
    <glyph glyph-name="two" unicode="2" horiz-adv-x="560" 
d="M243 292q63 63 99 116t36 105q0 41 -27 69t-72 28t-74 -33.5t-31 -89.5h-133q3 60 22 106t51.5 78t76.5 48.5t96 16.5q53 0 94.5 -18t70.5 -48t44.5 -69t15.5 -80q0 -78 -45 -152.5t-124 -157.5l-80 -84h255v-127h-497v66z" />
    <glyph glyph-name="three" unicode="3" horiz-adv-x="560" 
d="M350 537q0 29 -20 48.5t-54 19.5q-31 0 -54 -18t-32 -46h-131q6 47 25 83.5t48.5 61t67.5 37.5t81 13q45 0 83 -15t65.5 -41t43 -60.5t15.5 -72.5q0 -49 -25 -87.5t-76 -63.5q67 -20 102.5 -68.5t35.5 -114.5q0 -49 -19 -91t-52.5 -73t-79.5 -49t-101 -18q-52 0 -95 16
t-75 46.5t-51 74t-22 98.5h135q18 -109 115 -109q25 0 45.5 8.5t35 23t22.5 33.5t8 40q0 49 -42 83t-123 35v117q124 10 124 89z" />
    <glyph glyph-name="four" unicode="4" horiz-adv-x="560" 
d="M467 736v-462h64v-127h-64v-147h-133v147h-314v127l311 462h136zM334 515l-165 -241h165v241z" />
    <glyph glyph-name="five" unicode="5" horiz-adv-x="560" 
d="M503 718v-126h-234l-29 -130q9 3 20.5 5t25.5 2q50 0 91.5 -18t71.5 -49.5t47 -75.5t17 -95q0 -52 -19 -97.5t-52 -79t-78 -52.5t-97 -19q-45 0 -84.5 12.5t-71.5 37.5t-54.5 61t-33.5 83h144q17 -34 43.5 -51t59.5 -17q22 0 41.5 8t34.5 23.5t24 37t9 48.5
q0 51 -29.5 81.5t-71.5 30.5q-27 0 -47 -11.5t-40 -31.5l-111 25l87 398h336z" />
    <glyph glyph-name="six" unicode="6" horiz-adv-x="560" 
d="M406 678l-125 -244q47 -1 87.5 -18.5t69.5 -48t45.5 -72t16.5 -89.5q0 -49 -18.5 -90.5t-49 -70.5t-71 -45.5t-85.5 -16.5q-46 0 -87.5 17t-72.5 47.5t-49 72.5t-18 91q0 38 16 77.5t40 86.5l185 361zM272 305q-40 0 -64.5 -28.5t-24.5 -68.5q0 -22 7.5 -40.5t20 -31.5
t29 -20t33.5 -7q37 0 65 27.5t28 71.5q0 38 -25 67.5t-69 29.5z" />
    <glyph glyph-name="seven" unicode="7" horiz-adv-x="560" 
d="M531 718v-72l-324 -664l-116 56l270 550h-301v130h471z" />
    <glyph glyph-name="eight" unicode="8" horiz-adv-x="560" 
d="M65 537q0 43 15.5 79.5t43.5 63t68 41.5t89 15t89 -16t68 -43.5t43 -64t15 -77.5q0 -45 -18.5 -78t-50.5 -68q49 -32 75.5 -80.5t26.5 -105.5q0 -46 -15.5 -86.5t-46.5 -70.5t-77.5 -47.5t-107.5 -17.5q-33 0 -57 2.5t-56 13.5q-64 23 -101 78t-37 128q0 59 24 103.5
t75 82.5q-32 32 -48.5 68t-16.5 80zM276 605q-35 0 -56 -22.5t-21 -56.5q0 -35 22.5 -58.5t57.5 -23.5q36 0 57.5 23.5t21.5 58.5t-23 57t-59 22zM282 318q-24 0 -45 -8t-37 -22t-25.5 -32.5t-9.5 -40.5q0 -20 7.5 -38.5t22.5 -33t36.5 -23t48.5 -8.5q51 0 83 26.5t32 73.5
q0 24 -9 43.5t-25 33.5t-36 21.5t-43 7.5z" />
    <glyph glyph-name="nine" unicode="9" horiz-adv-x="560" 
d="M154 40l125 244q-47 1 -87 18.5t-69.5 48t-46 72t-16.5 89.5q0 50 18.5 91t49 70t71 45.5t85.5 16.5q47 0 88.5 -17t72 -47.5t48.5 -72.5t18 -91q0 -38 -16 -77.5t-40 -86.5l-185 -361zM287 413q40 0 65 28t25 69q0 22 -7.5 40t-20.5 31t-29 20.5t-34 7.5
q-37 0 -64.5 -28t-27.5 -71q0 -38 24.5 -67.5t68.5 -29.5z" />
    <glyph glyph-name="colon" unicode=":" horiz-adv-x="280" 
d="M140 545q32 0 54 -22.5t22 -54.5t-22 -54t-54 -22t-54.5 22t-22.5 54t22.5 54.5t54.5 22.5zM140 139q32 0 54 -22t22 -54t-22 -54.5t-54 -22.5t-54.5 22.5t-22.5 54.5t22.5 54t54.5 22z" />
    <glyph glyph-name="semicolon" unicode=";" horiz-adv-x="280" 
d="M140 545q32 0 54.5 -22.5t22.5 -54.5t-22.5 -54t-54.5 -22t-54 22t-22 54t22 54.5t54 22.5zM225 87l-119 -206l-67 32l93 223z" />
    <glyph glyph-name="less" unicode="&#x3c;" horiz-adv-x="600" 
d="M544 57l-488 248v108l488 248v-121l-348 -181l348 -180v-122z" />
    <glyph glyph-name="equal" unicode="=" horiz-adv-x="600" 
d="M544 525v-122h-488v122h488zM544 316v-122h-488v122h488z" />
    <glyph glyph-name="greater" unicode="&#x3e;" horiz-adv-x="600" 
d="M56 661l488 -248v-108l-488 -248v122l348 180l-348 181v121z" />
    <glyph glyph-name="question" unicode="?" horiz-adv-x="560" 
d="M201 224q0 45 8 79t21.5 60.5t32 47.5t39.5 40q29 26 51 47t22 53q0 37 -28 57t-66 20q-47 0 -75.5 -25t-29.5 -70h-128q0 49 17 89t48.5 68.5t75 44t95.5 15.5q54 0 96 -16.5t70.5 -44.5t43.5 -64t15 -75q0 -38 -18 -77t-48 -67q-27 -25 -47 -42.5t-33.5 -37t-20.5 -46
t-9 -70.5h-132v14zM269 154q35 0 60.5 -24.5t25.5 -59.5t-25.5 -59.5t-60.5 -24.5t-59 25t-24 60t24 59t59 24z" />
    <glyph glyph-name="at" unicode="@" horiz-adv-x="740" 
d="M545 270q-2 -8 -3.5 -18.5t-1.5 -15.5q0 -7 6 -11t13 -4q11 0 29.5 11.5t36.5 35t31 59t13 83.5q0 62 -20.5 111.5t-58 84.5t-89 54t-113.5 19q-70 0 -127.5 -23.5t-98.5 -65t-63.5 -97.5t-22.5 -122q0 -68 24 -125t66.5 -98.5t101.5 -64.5t129 -23q60 0 107 21.5
t96 65.5h93q-30 -37 -61 -67t-67.5 -51t-80 -32t-98.5 -11q-78 0 -147.5 29.5t-121.5 81t-82.5 121.5t-30.5 151t29.5 151t81 121.5t120 81.5t146.5 30q77 0 142.5 -25.5t112.5 -68.5t73.5 -100t26.5 -120q0 -97 -48 -168t-137 -106q-17 -7 -34.5 -11.5t-31.5 -4.5
q-58 0 -59 52q-42 -47 -105 -47q-33 0 -62.5 12.5t-51.5 36t-34.5 57t-12.5 74.5q0 49 15.5 91.5t43.5 74t65.5 49.5t82.5 18q76 0 121 -64l10 51h96zM361 257q21 0 39 9.5t31 25t20.5 36t7.5 42.5q0 36 -21.5 61.5t-59.5 25.5q-20 0 -37.5 -9t-31 -24.5t-21.5 -36t-8 -44.5
q0 -36 21.5 -61t59.5 -25z" />
    <glyph glyph-name="A" unicode="A" horiz-adv-x="740" 
d="M439 718l277 -718h-142l-56 148h-293l-59 -148h-142l277 718h138zM276 282h190l-95 246z" />
    <glyph glyph-name="B" unicode="B" horiz-adv-x="580" 
d="M82 718h131q57 0 102 -7.5t79 -27.5q41 -24 63.5 -63.5t22.5 -86.5q0 -43 -19 -76t-56 -62q63 -30 94.5 -74.5t31.5 -110.5q0 -89 -62 -148q-36 -35 -77 -48.5t-96 -13.5h-214v718zM219 437h30q48 0 72.5 20t24.5 58q0 35 -23 54t-69 19h-35v-151zM219 130h46
q65 0 98.5 19.5t33.5 65.5q0 48 -36 74t-108 26h-34v-185z" />
    <glyph glyph-name="C" unicode="C" horiz-adv-x="780" 
d="M739 120q-36 -35 -70 -61t-71 -43t-78.5 -25.5t-92.5 -8.5q-84 0 -154 28t-120.5 78t-78 119.5t-27.5 152.5q0 85 30.5 154.5t83 118.5t122 76t146.5 27q90 0 171.5 -37.5t141.5 -106.5l-96 -92q-49 52 -103 78.5t-117 26.5q-51 0 -95.5 -18.5t-77.5 -51t-52.5 -77.5
t-19.5 -98q0 -55 19 -101t52 -78t78.5 -50t98.5 -18q67 0 116.5 26.5t100.5 77.5z" />
    <glyph glyph-name="D" unicode="D" horiz-adv-x="700" 
d="M256 718q47 0 88 -3.5t76.5 -13.5t67.5 -27.5t61 -46.5q49 -48 76.5 -119.5t27.5 -157.5q0 -93 -32.5 -166.5t-90.5 -118.5q-31 -24 -62.5 -37t-65 -19.5t-69.5 -7.5t-75 -1h-175v718h173zM220 134h72q57 0 97.5 10.5t72.5 44.5q25 27 39 69t14 95q0 113 -60.5 172
t-178.5 59h-56v-450z" />
    <glyph glyph-name="E" unicode="E" horiz-adv-x="520" 
d="M475 718v-134h-255v-128h255v-134h-255v-188h255v-134h-392v718h392z" />
    <glyph glyph-name="F" unicode="F" horiz-adv-x="480" 
d="M441 718v-134h-223v-128h223v-134h-223v-322h-133v718h356z" />
    <glyph glyph-name="G" unicode="G" horiz-adv-x="840" 
d="M796 365q0 -36 -3.5 -70t-12.5 -66t-26 -63.5t-44 -63.5q-53 -62 -119 -91t-152 -29q-90 0 -162 31t-122.5 83t-77.5 121.5t-27 145.5t28 143.5t79 118.5t122 80.5t156 29.5q107 0 179.5 -35.5t130.5 -98.5l-96 -95q-46 48 -97.5 73t-115.5 25q-54 0 -99.5 -19.5
t-78.5 -52.5t-51.5 -77t-18.5 -94q0 -52 20 -97.5t54.5 -79t81.5 -52.5t101 -19q140 0 197 122h-208v130h362z" />
    <glyph glyph-name="H" unicode="H" horiz-adv-x="680" 
d="M220 718v-270h242v270h137v-718h-137v314h-242v-314h-137v718h137z" />
    <glyph glyph-name="I" unicode="I" horiz-adv-x="280" 
d="M209 718v-718h-137v718h137z" />
    <glyph glyph-name="J" unicode="J" horiz-adv-x="480" 
d="M398 718v-501q0 -54 -7 -95.5t-31 -74.5q-48 -65 -140 -65q-57 0 -108.5 26t-93.5 78l98 92q25 -27 48.5 -44.5t52.5 -17.5q44 0 44 78v524h137z" />
    <glyph glyph-name="K" unicode="K" horiz-adv-x="620" 
d="M221 718v-247l195 247h165l-252 -320l276 -398h-162l-222 319v-319h-137v718h137z" />
    <glyph glyph-name="L" unicode="L" horiz-adv-x="440" 
d="M219 718v-588h199v-130h-336v718h137z" />
    <glyph glyph-name="M" unicode="M" horiz-adv-x="900" 
d="M285 718l166 -501l168 501h132l121 -718h-132l-77 454l-153 -454h-120l-151 454l-79 -454h-133l124 718h134z" />
    <glyph glyph-name="N" unicode="N" horiz-adv-x="740" 
d="M213 718l308 -472v472h137v-718h-132l-307 471v-471h-137v718h131z" />
    <glyph glyph-name="O" unicode="O" horiz-adv-x="840" 
d="M421 736q74 0 141.5 -28.5t119 -79t82 -120t30.5 -151.5q0 -79 -29 -147.5t-79 -118.5t-118 -79t-145 -29q-80 0 -148.5 29.5t-119 80.5t-79.5 120t-29 147q0 80 30 148.5t81 119t119 79.5t144 29zM420 605q-48 0 -91 -18t-75 -50.5t-50.5 -78t-18.5 -101.5
q0 -55 19 -99.5t51.5 -76.5t75.5 -49.5t91 -17.5q49 0 91.5 19t74 52t50 77.5t18.5 95.5q0 50 -17.5 94.5t-49 78.5t-75 54t-94.5 20z" />
    <glyph glyph-name="P" unicode="P" horiz-adv-x="560" 
d="M248 718q70 0 119.5 -12.5t83.5 -45.5q26 -26 42 -65t16 -85q0 -114 -91 -170q-46 -28 -94.5 -32t-105.5 -4v-304h-137v718h167zM282 437q93 0 93 73q0 74 -99 74h-58v-147h64z" />
    <glyph glyph-name="Q" unicode="Q" horiz-adv-x="840" 
d="M598 25q-39 -22 -83.5 -32t-92.5 -10q-79 0 -148 29.5t-119 80.5t-79 119.5t-29 147.5q0 80 30 148.5t81 119t119 79.5t144 29q75 0 142.5 -28.5t118.5 -79t81.5 -120t30.5 -151.5q0 -73 -24 -136t-71 -116l125 -161h-163zM613 216q43 65 43 142q0 50 -17.5 95t-49 78.5
t-74.5 53.5t-94 20q-49 0 -92 -18t-75 -50.5t-50.5 -78t-18.5 -101.5q0 -55 19.5 -100t52 -76.5t75.5 -49t90 -17.5q48 0 92 19l-129 166h164z" />
    <glyph glyph-name="R" unicode="R" horiz-adv-x="580" 
d="M258 718q69 0 118 -11.5t85 -46.5q27 -26 42.5 -65t15.5 -85q0 -141 -138 -191l170 -319h-149l-161 304h-13v-304h-137v718h167zM291 437q94 0 94 74q0 73 -98 73h-59v-147h63z" />
    <glyph glyph-name="S" unicode="S" horiz-adv-x="520" 
d="M135 207q25 -47 54 -70.5t65 -23.5q35 0 59 19.5t24 47.5q0 20 -12 41t-34 39q-56 47 -100 84.5t-74.5 71.5t-46.5 67.5t-16 71.5t15.5 71t42.5 57.5t63 38.5t76 14q68 0 116.5 -32.5t91.5 -82.5l-102 -90q-26 36 -52.5 55t-55.5 19q-27 0 -44 -14t-17 -36
q0 -21 13 -35.5t29 -28.5q50 -44 94 -79t76.5 -68.5t51.5 -71t19 -86.5q0 -45 -16 -82.5t-45 -64.5t-69.5 -42t-89.5 -15q-79 0 -135 38.5t-96 117.5z" />
    <glyph glyph-name="T" unicode="T" horiz-adv-x="420" 
d="M408 718v-134h-132v-584h-137v584h-128v134h397z" />
    <glyph glyph-name="U" unicode="U" 
d="M214 718v-486q0 -59 27 -88.5t77 -29.5q29 0 53.5 11.5t37.5 31.5q11 17 14 41t3 53v467h137v-457q0 -30 -1.5 -56t-7.5 -51t-17.5 -48t-31.5 -47q-35 -40 -80 -58t-104 -18q-56 0 -100 16.5t-78 51.5q-22 23 -35 46.5t-20 50t-9 56.5t-2 65v449h137z" />
    <glyph glyph-name="V" unicode="V" horiz-adv-x="700" 
d="M168 718l180 -510l184 510h140l-259 -718h-131l-255 718h141z" />
    <glyph glyph-name="W" unicode="W" horiz-adv-x="900" 
d="M162 718l103 -458l129 458h114l130 -458l102 458h135l-162 -718h-131l-133 464l-129 -464h-130l-163 718h135z" />
    <glyph glyph-name="X" unicode="X" horiz-adv-x="680" 
d="M189 718l151 -230l151 230h154l-228 -347l242 -371h-154l-165 253l-165 -253h-155l243 371l-228 347h154z" />
    <glyph glyph-name="Y" unicode="Y" horiz-adv-x="620" 
d="M178 718l134 -257l132 257h146l-210 -407v-311h-137v311l-212 407h147z" />
    <glyph glyph-name="Z" unicode="Z" horiz-adv-x="500" 
d="M478 718l-256 -588h240v-130h-439l255 584h-234v134h434z" />
    <glyph glyph-name="bracketleft" unicode="[" horiz-adv-x="320" 
d="M296 736v-122h-80v-685h80v-122h-213v929h213z" />
    <glyph glyph-name="backslash" unicode="\" 
d="M434 -128l-323 867h94l323 -867h-94z" />
    <glyph glyph-name="bracketright" unicode="]" horiz-adv-x="320" 
d="M24 -193v122h80v685h-80v122h213v-929h-213z" />
    <glyph glyph-name="asciicircum" unicode="^" horiz-adv-x="600" 
d="M356 718l190 -539h-118l-128 365l-128 -365h-119l189 539h114z" />
    <glyph glyph-name="underscore" unicode="_" horiz-adv-x="500" 
d="M506 -75v-50h-512v50h512z" />
    <glyph glyph-name="grave" unicode="`" horiz-adv-x="420" 
d="M303 629h-95l-179 191h158z" />
    <glyph glyph-name="a" unicode="a" horiz-adv-x="660" 
d="M460 56q-35 -35 -74 -52.5t-90 -17.5t-96.5 20.5t-80.5 57.5t-55.5 88.5t-20.5 112.5q0 62 19.5 113.5t53.5 88.5t79.5 57.5t97.5 20.5q95 0 167 -72v58h133v-531h-133v56zM320 423q-33 0 -59.5 -12.5t-45 -33.5t-28.5 -49.5t-10 -61.5q0 -34 10.5 -63t29.5 -50t45.5 -33
t57.5 -12t57.5 11t46 32t31 50.5t11.5 65.5q0 35 -11 63.5t-30.5 49t-46 32t-58.5 11.5z" />
    <glyph glyph-name="b" unicode="b" horiz-adv-x="660" 
d="M67 0v736h133v-263q72 72 167 72q51 0 97 -20.5t80 -57.5t54 -88.5t20 -113.5q0 -61 -20.5 -112.5t-55.5 -88.5t-81 -57.5t-97 -20.5t-89.5 17.5t-74.5 52.5v-56h-133zM340 423q-32 0 -58.5 -11.5t-46 -32t-30.5 -49t-11 -63.5q0 -36 11.5 -65.5t31 -50t46 -32
t57.5 -11.5t57.5 12t45.5 33t30 50t11 63q0 33 -10 61.5t-29 49.5t-45.5 33.5t-59.5 12.5z" />
    <glyph glyph-name="c" unicode="c" 
d="M581 97q-85 -111 -241 -111q-68 0 -123 21.5t-94 59t-60 88.5t-21 109q0 60 22 111t62 89t95 59.5t121 21.5q78 0 141.5 -31t103.5 -90l-111 -61q-29 30 -59 45t-74 15q-38 0 -69 -12t-52.5 -34t-33.5 -51t-12 -64q0 -68 43.5 -111t117.5 -43q90 0 139 61z" />
    <glyph glyph-name="d" unicode="d" horiz-adv-x="660" 
d="M460 56q-35 -35 -74 -52.5t-90 -17.5t-96.5 20.5t-80.5 57.5t-55.5 88.5t-20.5 112.5q0 62 19.5 113.5t53.5 88.5t79.5 57.5t97.5 20.5q95 0 167 -72v263h133v-736h-133v56zM320 423q-33 0 -59.5 -12.5t-45 -33.5t-28.5 -49.5t-10 -61.5q0 -34 10.5 -63t29.5 -50
t45.5 -33t57.5 -12t57.5 11t46 32t31 50.5t11.5 65.5q0 35 -11 63.5t-30.5 49t-46 32t-58.5 11.5z" />
    <glyph glyph-name="e" unicode="e" 
d="M565 103q-43 -61 -101 -89t-143 -28q-63 0 -114.5 22t-88 59.5t-56 89t-19.5 109.5q0 54 19 104.5t55 89.5t87 62t115 23q63 0 115 -21.5t89 -59.5t57.5 -91t20.5 -116q0 -9 -0.5 -15t-0.5 -15h-428q10 -60 51 -91.5t98 -31.5q43 0 73.5 12.5t58.5 39.5zM467 332
q-14 47 -53 73.5t-93 26.5q-50 0 -86.5 -24.5t-56.5 -75.5h289z" />
    <glyph glyph-name="f" unicode="f" horiz-adv-x="280" 
d="M55 531q0 45 0.5 84.5t11.5 69.5t38 47.5t79 17.5q32 0 54.5 -6.5t39.5 -12.5v-102q-10 3 -22.5 6t-25.5 3q-19 0 -28 -5.5t-12 -18t-2.5 -33t0.5 -50.5h84v-113h-84v-418h-133v418h-48v113h48z" />
    <glyph glyph-name="g" unicode="g" horiz-adv-x="660" 
d="M593 76q0 -78 -17.5 -131.5t-63.5 -92.5q-71 -59 -193 -59q-221 0 -275 168h147q39 -46 123 -46q37 0 66 9t47 26q24 23 28.5 50.5t4.5 65.5q-33 -32 -71 -49t-90 -17q-54 0 -100.5 20.5t-81 56.5t-54 86t-19.5 110q0 62 20 112t53.5 85.5t78.5 55t96 19.5q50 0 90 -18.5
t78 -53.5v58h133v-455zM322 423q-33 0 -59.5 -12t-45.5 -32.5t-29 -48t-10 -58.5q0 -33 11 -60.5t30.5 -47.5t46.5 -31t58 -11t57 10.5t45 30t30 47t11 61.5q0 32 -10.5 60t-29 48.5t-45.5 32t-60 11.5z" />
    <glyph glyph-name="h" unicode="h" horiz-adv-x="600" 
d="M201 736v-259q38 33 76 50.5t81 17.5q38 0 71 -12t57.5 -36.5t39 -61t14.5 -84.5v-351h-133v251q0 41 -3 72.5t-13 54t-28 34t-47 11.5q-28 0 -51 -13.5t-39 -38.5q-20 -32 -22.5 -67.5t-2.5 -77.5v-226h-133v736h133z" />
    <glyph glyph-name="i" unicode="i" horiz-adv-x="240" 
d="M120 750q36 0 60.5 -26t24.5 -62q0 -35 -25 -60t-60 -25q-37 0 -61 27.5t-24 64.5q0 35 25 58t60 23zM187 531v-531h-133v531h133z" />
    <glyph glyph-name="j" unicode="j" horiz-adv-x="260" 
d="M129 750q36 0 61 -26t25 -62q0 -35 -25 -60t-60 -25q-37 0 -61 27.5t-24 64.5q0 35 24.5 58t59.5 23zM197 531v-563q0 -176 -140 -176q-26 0 -51.5 6t-48.5 14v105q12 -6 26.5 -10.5t28.5 -4.5q29 0 40.5 18t11.5 53v558h133z" />
    <glyph glyph-name="k" unicode="k" horiz-adv-x="580" 
d="M201 736v-424l197 219h166l-228 -255l256 -276h-165l-226 245v-245h-133v736h133z" />
    <glyph glyph-name="l" unicode="l" horiz-adv-x="240" 
d="M187 736v-736h-133v736h133z" />
    <glyph glyph-name="m" unicode="m" horiz-adv-x="940" 
d="M408 0v257q0 77 -19 121.5t-75 44.5q-50 0 -82 -40.5t-32 -122.5v-260h-133v531h133v-61q69 75 166 75q50 0 90 -23.5t65 -71.5q37 47 77.5 71t100.5 24q45 0 82 -16.5t60 -45.5q26 -33 32.5 -76t6.5 -96v-311h-133v293q0 130 -91 130q-51 0 -83 -39.5t-32 -121.5v-262
h-133z" />
    <glyph glyph-name="n" unicode="n" horiz-adv-x="600" 
d="M200 477q38 32 75 50t82 18q37 0 70 -12.5t58 -36t39.5 -57t14.5 -76.5v-363h-133v251q0 39 -2.5 71t-12 54.5t-27.5 34.5t-48 12q-58 0 -90 -51q-20 -32 -23 -68t-3 -78v-226h-133v531h133v-54z" />
    <glyph glyph-name="o" unicode="o" 
d="M317 545q58 0 109.5 -21.5t89.5 -59t60.5 -88.5t22.5 -110q0 -58 -21 -109t-58.5 -89t-89 -60t-112.5 -22q-58 0 -108 21.5t-87.5 59.5t-59 89t-21.5 109q0 60 22.5 111.5t60.5 89t88 58.5t104 21zM319 419q-31 0 -57.5 -11.5t-45.5 -32t-29.5 -48.5t-10.5 -61
q0 -34 10.5 -62t29 -48.5t45 -32t58.5 -11.5q31 0 57.5 11t46 31t31 48t11.5 63q0 34 -10.5 62t-30 48.5t-46 32t-59.5 11.5z" />
    <glyph glyph-name="p" unicode="p" horiz-adv-x="660" 
d="M200 473q72 72 167 72q51 0 97 -20.5t80 -57.5t54 -88.5t20 -113.5q0 -61 -20.5 -112.5t-55.5 -88.5t-81 -57.5t-97 -20.5t-89.5 17.5t-74.5 52.5v-250h-133v725h133v-58zM340 423q-32 0 -58.5 -11.5t-46 -32t-30.5 -49t-11 -63.5q0 -36 11.5 -65.5t31 -50t46 -32
t57.5 -11.5t57.5 12t45.5 33t30 50t11 63q0 33 -10 61.5t-29 49.5t-45.5 33.5t-59.5 12.5z" />
    <glyph glyph-name="q" unicode="q" horiz-adv-x="660" 
d="M460 -194v250q-35 -35 -74 -52.5t-90 -17.5t-96.5 20.5t-80.5 57.5t-55.5 88.5t-20.5 112.5q0 62 19.5 113.5t53.5 88.5t79.5 57.5t97.5 20.5q95 0 167 -72v58h133v-725h-133zM320 423q-33 0 -59.5 -12.5t-45 -33.5t-28.5 -49.5t-10 -61.5q0 -34 10.5 -63t29.5 -50
t45.5 -33t57.5 -12t57.5 11t46 32t31 50.5t11.5 65.5q0 35 -11 63.5t-30.5 49t-46 32t-58.5 11.5z" />
    <glyph glyph-name="r" unicode="r" horiz-adv-x="320" 
d="M151 464q19 42 49 61.5t63 19.5q21 0 34.5 -4.5t23.5 -9.5l-41 -114q-8 4 -18 7.5t-21 3.5q-29 0 -49 -31.5t-22 -90.5q-1 -22 -1 -45.5v-45.5v-215h-133v531h115v-67z" />
    <glyph glyph-name="s" unicode="s" horiz-adv-x="440" 
d="M173 230q-64 32 -96 71.5t-32 90.5q0 31 12.5 59t35 49t54.5 33t70 12q52 0 97.5 -22.5t77.5 -65.5l-82 -83q-23 23 -45.5 36t-46.5 13q-20 0 -34 -8t-14 -24q0 -15 13 -24t35 -20l49 -25q66 -34 100.5 -72t34.5 -98q0 -36 -13.5 -66t-38.5 -52.5t-60 -35t-79 -12.5
q-116 0 -186 91l82 90q23 -27 54 -44.5t57 -17.5q25 0 42 12.5t17 30.5q0 17 -15.5 31t-43.5 28z" />
    <glyph glyph-name="t" unicode="t" horiz-adv-x="300" 
d="M216 727v-196h79v-114h-79v-417h-133v417h-68v114h68v196h133z" />
    <glyph glyph-name="u" unicode="u" horiz-adv-x="600" 
d="M201 531v-277q0 -72 23.5 -108.5t76.5 -36.5q54 0 77 35.5t23 103.5v283h133v-245q0 -37 -2 -69t-8 -60.5t-18.5 -54t-33.5 -48.5q-32 -35 -73.5 -51t-97.5 -16q-97 0 -154.5 47.5t-73.5 141.5q-5 32 -5 55.5v56.5v243h133z" />
    <glyph glyph-name="v" unicode="v" horiz-adv-x="560" 
d="M146 531l134 -313l134 313h135l-226 -531h-86l-227 531h136z" />
    <glyph glyph-name="w" unicode="w" horiz-adv-x="800" 
d="M139 531l106 -302l115 302h80l113 -298l107 298h131l-193 -531h-85l-113 303l-117 -303h-83l-192 531h131z" />
    <glyph glyph-name="x" unicode="x" horiz-adv-x="560" 
d="M175 531l104 -145l105 145h154l-182 -251l204 -280h-154l-127 174l-125 -174h-153l201 280l-182 251h155z" />
    <glyph glyph-name="y" unicode="y" horiz-adv-x="580" 
d="M145 531l138 -333l153 333h137l-334 -725h-137l109 234l-202 491h136z" />
    <glyph glyph-name="z" unicode="z" horiz-adv-x="460" 
d="M452 531l-239 -418h226v-113h-431l240 418h-203v113h407z" />
    <glyph glyph-name="braceleft" unicode="{" horiz-adv-x="340" 
d="M315 -220q-42 0 -76.5 4.5t-63.5 24.5q-57 38 -59 119q-1 67 -2 115.5t-10.5 80.5t-31 48t-65.5 18v118q44 2 66 18.5t31 48.5t10 80.5t2 114.5q2 81 59 119q29 20 63.5 24.5t76.5 4.5h26v-117h-6q-37 0 -56.5 -4.5t-28 -18t-9.5 -39t-2 -68.5q-1 -45 -4 -78t-12 -59
t-26.5 -46t-46.5 -39q53 -31 71.5 -82.5t17.5 -140.5q0 -43 2 -68.5t11.5 -39t29 -17.5t53.5 -4h6v-117h-26z" />
    <glyph glyph-name="bar" unicode="|" horiz-adv-x="600" 
d="M338 736v-930h-77v930h77z" />
    <glyph glyph-name="braceright" unicode="}" horiz-adv-x="340" 
d="M26 718q97 0 147 -33.5t52 -114.5q2 -67 2.5 -115.5t10 -80.5t31.5 -48t65 -18v-118q-44 -2 -66 -18.5t-31 -48t-9.5 -80t-2.5 -115.5q-2 -80 -59 -119q-29 -20 -63.5 -24.5t-76.5 -4.5h-26v117h6q38 0 57 4.5t27.5 18t9.5 39t2 67.5q1 45 4 78t12 59t26.5 46.5
t46.5 39.5q-52 30 -71 81.5t-18 140.5q0 43 -2 68.5t-11.5 39t-28.5 18t-54 4.5h-6v117h26z" />
    <glyph glyph-name="asciitilde" unicode="~" horiz-adv-x="600" 
d="M165 330q-32 0 -59 -15t-57 -39v155q33 17 63.5 26.5t59.5 9.5q40 0 75.5 -12.5t67 -27t59 -27t52.5 -12.5q33 0 63.5 14.5t62.5 40.5v-157q-29 -17 -58.5 -26t-62.5 -9q-40 0 -77 12.5t-70 27t-63 27t-56 12.5z" />
    <glyph glyph-name="uni00A0" unicode="&#xa0;" horiz-adv-x="280" 
 />
    <glyph glyph-name="exclamdown" unicode="&#xa1;" horiz-adv-x="280" 
d="M140 556q35 0 59 -24.5t24 -59.5t-24 -59.5t-59 -24.5t-59.5 24.5t-24.5 59.5t24.5 59.5t59.5 24.5zM74 -194v525h133v-525h-133z" />
    <glyph glyph-name="cent" unicode="&#xa2;" horiz-adv-x="560" 
d="M477 615l-46 -103q25 -16 45 -35t37 -45l-109 -64q-6 8 -12.5 15.5t-12.5 13.5l-124 -282q10 -4 22.5 -7t26.5 -3q35 0 61 11t50 36l85 -82q-42 -44 -90.5 -64t-111.5 -20q-46 0 -93 14l-55 -119l-74 33l58 129q-48 47 -71 101.5t-23 122.5q0 62 20.5 113.5t56 88
t83.5 56.5t103 20q12 0 25 -1t26 -3l47 107zM302 425q-63 -4 -95.5 -46.5t-32.5 -118.5q0 -31 5.5 -51t12.5 -35z" />
    <glyph glyph-name="sterling" unicode="&#xa3;" horiz-adv-x="560" 
d="M27 439h75q-10 20 -16.5 43t-6.5 55q0 48 16 85t44 62.5t66.5 38.5t82.5 13q45 0 82.5 -14t65 -40.5t43 -63.5t15.5 -83h-137q-15 75 -71 75q-29 0 -49 -20.5t-20 -55.5q0 -20 8.5 -42t19.5 -53h166v-122h-130q2 -12 4 -26.5t2 -27.5q0 -28 -8.5 -63.5t-24.5 -75.5
q32 -4 55.5 -8t37.5 -4q23 0 39 14.5t22 37.5h127q-1 -38 -17 -71.5t-41.5 -58t-59.5 -39t-72 -14.5q-35 0 -80 9.5t-99 9.5q-37 0 -59.5 -6t-36.5 -11l-46 117q14 5 33 11t45 10q20 34 33.5 68t13.5 81q0 13 -2 25.5t-4 21.5h-116v122z" />
    <glyph glyph-name="currency" unicode="&#xa4;" horiz-adv-x="616" 
d="M551 175q-14 -15 -29 -30l-30 -30l-34 34t-35 34q-26 -18 -55.5 -26.5t-59.5 -8.5q-26 0 -56.5 7.5t-58.5 27.5q-17 -17 -34.5 -34t-34.5 -34l-59 60l69 66q-18 29 -26.5 58t-8.5 55t8 55.5t27 57.5q-17 17 -34.5 33.5t-34.5 33.5l59 60q17 -17 34.5 -34t34.5 -34
q29 20 59 27.5t56 7.5q28 0 58.5 -8t56.5 -27q17 17 34.5 34t34.5 34l30 -30t29 -30q-17 -17 -34.5 -33.5t-34.5 -33.5q20 -29 27.5 -59t7.5 -54q0 -26 -8 -55t-27 -58zM433 355q0 27 -10.5 49.5t-28 38.5t-40 25t-45.5 9q-27 0 -49.5 -9.5t-39.5 -26t-26.5 -39t-9.5 -47.5
t10 -47.5t26.5 -39.5t39.5 -27t48 -10q26 0 48.5 10t39.5 26.5t27 39.5t10 48z" />
    <glyph glyph-name="yen" unicode="&#xa5;" horiz-adv-x="560" 
d="M165 718l115 -255l115 255h142l-152 -337h129v-80h-166v-64h166v-80h-166v-157h-137v157h-166v80h166v64h-166v80h129l-151 337h142z" />
    <glyph glyph-name="brokenbar" unicode="&#xa6;" horiz-adv-x="600" 
d="M262 736h77v-310h-77v310zM262 116h77v-310h-77v310z" />
    <glyph glyph-name="section" unicode="&#xa7;" horiz-adv-x="560" 
d="M83 582q0 35 14.5 66t40 53.5t61 35.5t78.5 13q42 0 78 -14.5t63 -39.5t43.5 -59t19.5 -74h-130q-15 65 -78 65q-26 0 -41 -11.5t-15 -28.5q0 -23 20.5 -41t62.5 -47l94 -64q51 -35 81 -74t30 -99q0 -51 -27 -90.5t-78 -59.5q42 -35 62.5 -71.5t20.5 -84.5
q0 -36 -13.5 -66t-39 -52t-62.5 -34.5t-83 -12.5q-88 0 -139.5 46.5t-63.5 137.5h126q12 -30 30.5 -46t47.5 -16q30 0 46.5 15t16.5 34q0 17 -15.5 32.5t-38.5 31.5l-134 94q-24 17 -44.5 34t-34.5 37.5t-22 45t-8 56.5q0 57 27.5 97.5t69.5 55.5q-33 27 -49.5 62t-16.5 73z
M226 389q-31 -14 -45 -34t-14 -41q0 -31 24.5 -52.5t55.5 -42.5l75 -52q11 5 22.5 11t20.5 14.5t15 20.5t6 28q0 26 -22.5 47t-58.5 46z" />
    <glyph glyph-name="dieresis" unicode="&#xa8;" horiz-adv-x="500" 
d="M142 768q29 0 49 -20.5t20 -49.5t-20 -49.5t-49 -20.5t-49 20.5t-20 49.5t20 49.5t49 20.5zM358 768q29 0 49 -20.5t20 -49.5t-20 -49.5t-49 -20.5t-49 20.5t-20 49.5t20 49.5t49 20.5z" />
    <glyph glyph-name="copyright" unicode="&#xa9;" horiz-adv-x="740" 
d="M733 375q0 -75 -28.5 -141t-78 -115t-115.5 -77.5t-141 -28.5t-141 28.5t-115.5 77.5t-78 115t-28.5 141t28.5 140.5t77.5 114.5t115.5 77.5t141.5 28.5t141.5 -28.5t115.5 -77.5t77.5 -114.5t28.5 -140.5zM658 374q0 60 -22.5 112.5t-61.5 91.5t-91.5 61.5t-112.5 22.5
q-59 0 -111.5 -22t-91.5 -61t-62 -91.5t-23 -113.5q0 -58 22.5 -109.5t61.5 -90.5t91.5 -61.5t112.5 -22.5q59 0 111.5 22.5t91.5 61t62 90t23 110.5zM475 451q-17 73 -97 73q-22 0 -43 -9.5t-37 -27.5t-26 -44.5t-10 -61.5q0 -32 9.5 -59t26 -47t39 -31.5t48.5 -11.5
q32 0 58.5 19.5t31.5 57.5h83q-4 -33 -19 -59.5t-38 -45t-52.5 -28.5t-62.5 -10q-48 0 -86 17t-64.5 46t-40 67.5t-13.5 81.5q0 50 15.5 89.5t42.5 66.5t63 41.5t76 14.5q73 0 118.5 -35t60.5 -104h-83z" />
    <glyph glyph-name="ordfeminine" unicode="&#xaa;" horiz-adv-x="360" 
d="M322 728v-332h-98v27q-33 -36 -75 -36q-25 0 -47.5 12.5t-40 35.5t-28 55t-10.5 71t10 71.5t27.5 55.5t40 35.5t47.5 12.5q43 0 76 -36v28h98zM174 647q-24 0 -38.5 -23.5t-14.5 -61.5q0 -39 15 -62.5t38 -23.5q22 0 38 22.5t16 64.5q0 40 -15.5 62t-38.5 22z" />
    <glyph glyph-name="guillemotleft" unicode="&#xab;" horiz-adv-x="460" 
d="M226 531l-90 -267l90 -264h-124l-90 264l90 267h124zM447 531l-90 -267l90 -264h-124l-90 264l90 267h124z" />
    <glyph glyph-name="logicalnot" unicode="&#xac;" horiz-adv-x="600" 
d="M545 525v-331h-123v209h-366v122h489z" />
    <glyph glyph-name="uni00AD" unicode="&#xad;" horiz-adv-x="420" 
d="M334 326v-122h-248v122h248z" />
    <glyph glyph-name="registered" unicode="&#xae;" horiz-adv-x="740" 
d="M733 374q0 -76 -28.5 -141.5t-78 -114.5t-115.5 -77t-141 -28t-141 28t-115.5 77t-78 115t-28.5 141t28.5 141t77.5 115t115.5 77.5t141.5 28.5t141.5 -28.5t115.5 -77.5t77.5 -115t28.5 -141zM658 373q0 60 -22.5 113t-61.5 92t-91.5 61.5t-112.5 22.5q-59 0 -111.5 -22
t-91.5 -61t-62 -92t-23 -114q0 -58 22.5 -109.5t61.5 -90t91.5 -61t112.5 -22.5q59 0 111.5 22t91.5 60.5t62 90t23 110.5zM395 572q28 0 52 -3t47 -20q41 -32 41 -94q0 -40 -15 -58.5t-32 -30.5q14 -8 25.5 -21t13.5 -46q2 -36 2.5 -57.5t2.5 -34t6 -19t13 -13.5h-99
q-11 29 -11 56.5t-1.5 49t-10.5 35t-38 13.5h-84v-154h-88v397h176zM307 402h73q12 0 24.5 0.5t22 5t16 14t6.5 27.5t-6 27.5t-15.5 14t-22 5t-25.5 0.5h-73v-94z" />
    <glyph glyph-name="macron" unicode="&#xaf;" horiz-adv-x="420" 
d="M71 736h278v-107h-278v107z" />
    <glyph glyph-name="degree" unicode="&#xb0;" horiz-adv-x="400" 
d="M369 569q0 -37 -13.5 -68t-37 -53.5t-54 -35t-63.5 -12.5q-36 0 -66.5 13.5t-53.5 36t-36 52.5t-13 62q0 41 14.5 72.5t38 54t54 34t62.5 11.5q34 0 64.5 -12.5t53.5 -34.5t36.5 -53t13.5 -67zM311 567q0 48 -31.5 81t-79.5 33q-22 0 -42 -8.5t-35 -23.5t-24 -36t-9 -47
q0 -21 9 -41t24 -35.5t34.5 -25t40.5 -9.5q26 0 46.5 9.5t35.5 25t23 35.5t8 42z" />
    <glyph glyph-name="plusminus" unicode="&#xb1;" horiz-adv-x="600" 
d="M239 710h123v-183h182v-122h-182v-183h-123v183h-183v122h183v183zM544 122v-122h-488v122h488z" />
    <glyph glyph-name="two.superior" unicode="&#xb2;" horiz-adv-x="336" 
d="M142 514q35 30 56 55t21 50q0 18 -14.5 29t-37.5 11q-26 0 -40.5 -15t-15.5 -45h-91q3 68 45 102.5t107 34.5q33 0 59 -10t43.5 -25.5t27 -36t9.5 -41.5q0 -40 -27 -78t-75 -80l-34 -30h139v-77h-305v43z" />
    <glyph glyph-name="three.superior" unicode="&#xb3;" horiz-adv-x="336" 
d="M207 627q0 14 -11 24.5t-28 10.5t-29 -9.5t-20 -26.5h-90q11 55 45 82.5t94 27.5q27 0 50.5 -8t41 -21.5t27 -31t9.5 -37.5q0 -22 -11.5 -41t-34.5 -32q34 -14 51.5 -39t17.5 -54q0 -24 -11 -46t-31.5 -39t-49.5 -27t-65 -10q-63 0 -104.5 33t-43.5 96h90q9 -55 62 -55
q24 0 42 12.5t18 34.5q0 25 -24.5 36t-71.5 13v68q34 1 55.5 8.5t21.5 30.5z" />
    <glyph glyph-name="acute" unicode="&#xb4;" horiz-adv-x="420" 
d="M391 820l-178 -191h-96l117 191h157z" />
    <glyph glyph-name="uni00B5" unicode="&#xb5;" horiz-adv-x="576" 
d="M396 62q-19 -37 -45 -56.5t-62 -19.5q-38 0 -65 18.5t-47 53.5v-252h-133v725h133v-279q0 -29 3 -54.5t19 -49.5q15 -23 39.5 -36t51.5 -13t49.5 13.5t36.5 36.5q14 24 17 50.5t3 56.5v275h137v-531h-137v62z" />
    <glyph glyph-name="paragraph" unicode="&#xb6;" horiz-adv-x="600" 
d="M270 347q-92 1 -141 51.5t-49 140.5q0 104 57.5 152t173.5 48h205v-57h-40v-867h-68v867h-70v-867h-68v532z" />
    <glyph glyph-name="periodcentered" unicode="&#xb7;" horiz-adv-x="280" 
d="M140 436q32 0 54 -22.5t22 -54.5t-22 -54t-54 -22t-54.5 22t-22.5 54t22.5 54.5t54.5 22.5z" />
    <glyph glyph-name="cedilla" unicode="&#xb8;" horiz-adv-x="340" 
d="M211 8l-7 -23q34 -8 52.5 -29t18.5 -46q0 -37 -32 -66.5t-94 -29.5q-34 0 -59.5 7t-48.5 15l18 64q16 -5 33 -8.5t35 -3.5q23 0 36.5 9t13.5 26q0 15 -11 21t-30 6h-12.5t-12.5 -1l17 59h83z" />
    <glyph glyph-name="one.superior" unicode="&#xb9;" horiz-adv-x="336" 
d="M226 727v-369h-92v292h-94l57 77h129z" />
    <glyph glyph-name="ordmasculine" unicode="&#xba;" horiz-adv-x="360" 
d="M178 736q33 0 62 -13.5t50.5 -36.5t34.5 -55t13 -69q0 -36 -12 -68t-33.5 -55.5t-50.5 -37t-63 -13.5q-33 0 -61.5 13.5t-49.5 37t-33 55t-12 68.5q0 38 12.5 70t34 55t49.5 36t59 13zM180 647q-26 0 -42.5 -23.5t-16.5 -61.5q0 -39 16.5 -62t42.5 -23q25 0 42.5 23
t17.5 62q0 38 -16.5 61.5t-43.5 23.5z" />
    <glyph glyph-name="guillemotright" unicode="&#xbb;" horiz-adv-x="460" 
d="M12 0l90 267l-90 264h125l89 -264l-89 -267h-125zM233 0l91 267l-91 264h125l89 -264l-89 -267h-125z" />
    <glyph glyph-name="onequarter" unicode="&#xbc;" horiz-adv-x="840" 
d="M531 736h83l-305 -754h-84zM230 727v-369h-92v292h-94l57 77h129zM784 378v-237h38v-68h-38v-73h-83v73h-193v72l187 233h89zM701 273l-106 -132h106v132z" />
    <glyph glyph-name="onehalf" unicode="&#xbd;" horiz-adv-x="840" 
d="M513 736h84l-306 -754h-84zM230 727v-369h-92v292h-94l57 77h129zM642 156q35 30 56 55t21 50q0 18 -14.5 29t-37.5 11q-26 0 -40.5 -15t-15.5 -45h-91q3 69 45 103t107 34q33 0 59 -9.5t43.5 -25.5t27 -36.5t9.5 -41.5q0 -40 -27 -77.5t-75 -80.5l-34 -31h139v-76h-305
v43z" />
    <glyph glyph-name="threequarters" unicode="&#xbe;" horiz-adv-x="840" 
d="M211 627q0 14 -11 24.5t-28 10.5t-29 -9.5t-20 -26.5h-90q11 55 45 82.5t94 27.5q27 0 50.5 -8t41 -21.5t27 -31t9.5 -37.5q0 -22 -11.5 -41t-34.5 -32q34 -14 51.5 -39t17.5 -54q0 -24 -11 -46t-31.5 -39t-49.5 -27t-65 -10q-63 0 -104.5 33t-43.5 96h90q9 -55 62 -55
q24 0 42 12.5t18 34.5q0 25 -24.5 36t-71.5 13v68q34 1 55.5 8.5t21.5 30.5zM543 736h83l-306 -754h-83zM784 378v-237h38v-68h-38v-73h-83v73h-192v72l186 233h89zM701 273l-106 -132h106v132z" />
    <glyph glyph-name="questiondown" unicode="&#xbf;" horiz-adv-x="560" 
d="M287 388q-35 0 -60.5 24.5t-25.5 59.5t25.5 59.5t60.5 24.5t59.5 -25t24.5 -60t-24.5 -59t-59.5 -24zM355 333q0 -5 0.5 -7.5t0.5 -7.5q0 -45 -7.5 -78.5t-21 -60t-32 -47.5t-40.5 -41q-29 -26 -51 -47t-22 -53q0 -36 27 -56.5t66 -20.5q47 0 76 25.5t30 69.5h127
q0 -49 -17 -89t-48.5 -68.5t-75 -44t-95.5 -15.5q-54 0 -96 16.5t-70.5 44.5t-43 64t-14.5 75q0 38 17.5 77t47.5 67q27 25 47 42.5t33.5 37t20.5 46.5t9 71h132z" />
    <glyph glyph-name="Agrave" unicode="&#xc0;" horiz-adv-x="740" 
d="M331 793h86l-66 112h-108zM439 718l277 -718h-142l-56 148h-293l-59 -148h-142l277 718h138zM276 282h190l-95 246z" />
    <glyph glyph-name="Aacute" unicode="&#xc1;" horiz-adv-x="740" 
d="M400 905l-66 -112h86l88 112h-108zM439 718l277 -718h-142l-56 148h-293l-59 -148h-142l277 718h138zM276 282h190l-95 246z" />
    <glyph glyph-name="Acircumflex" unicode="&#xc2;" horiz-adv-x="740" 
d="M326 788h-91l88 116h93l88 -116h-91l-43 61zM439 718l277 -718h-142l-56 148h-293l-59 -148h-142l277 718h138zM276 282h190l-95 246z" />
    <glyph glyph-name="Atilde" unicode="&#xc3;" horiz-adv-x="740" 
d="M238 794q0 46 12.5 72.5t32.5 36.5t45 5t49 -23q27 -20 39.5 -19t12.5 38h73q0 -45 -12.5 -71.5t-32.5 -37t-45 -5.5t-49 23q-27 20 -39.5 19t-12.5 -38h-73zM439 718l277 -718h-142l-56 148h-293l-59 -148h-142l277 718h138zM276 282h190l-95 246z" />
    <glyph glyph-name="Adieresis" unicode="&#xc4;" horiz-adv-x="740" 
d="M262 911q29 0 49 -20.5t20 -49.5t-20 -49.5t-49 -20.5t-49 20.5t-20 49.5t20 49.5t49 20.5zM478 911q29 0 49 -20.5t20 -49.5t-20 -49.5t-49 -20.5t-49 20.5t-20 49.5t20 49.5t49 20.5zM439 718l277 -718h-142l-56 148h-293l-59 -148h-142l277 718h138zM276 282h190
l-95 246z" />
    <glyph glyph-name="Aring" unicode="&#xc5;" horiz-adv-x="740" 
d="M370 986q23 0 42.5 -8.5t33.5 -23t22.5 -34t8.5 -41.5t-8.5 -42t-23 -34t-34 -22.5t-41.5 -8.5t-41.5 8.5t-34 22.5t-23 34t-8.5 42t8.5 41.5t22.5 34t34 23t42 8.5zM370 921q-17 0 -29.5 -12t-12.5 -30q0 -19 12.5 -30.5t29.5 -11.5t29.5 11.5t12.5 30.5q0 18 -12.5 30
t-29.5 12zM439 718l277 -718h-142l-56 148h-293l-59 -148h-142l277 718h138zM276 282h190l-95 246z" />
    <glyph glyph-name="AE" unicode="&#xc6;" horiz-adv-x="900" 
d="M848 718v-134h-251v-130h251v-130h-251v-190h251v-134h-388v149h-219l-72 -149h-141l350 718h470zM460 597l-155 -314h155v314z" />
    <glyph glyph-name="Ccedilla" unicode="&#xc7;" horiz-adv-x="780" 
d="M739 120q-35 -34 -68.5 -59.5t-69.5 -43t-76.5 -26t-89.5 -9.5q29 -9 44.5 -29t15.5 -43q0 -37 -32 -66.5t-94 -29.5q-34 0 -59.5 7t-48.5 15l18 64q16 -5 33 -8.5t35 -3.5q23 0 36.5 9t13.5 26q0 15 -11 21t-30 6h-12.5t-12.5 -1l12 41q-67 13 -121.5 45.5t-93.5 80.5
t-60 110t-21 134q0 85 30.5 154.5t83 118.5t122 76t146.5 27q90 0 171.5 -37.5t141.5 -106.5l-96 -92q-49 52 -103 78.5t-117 26.5q-51 0 -95.5 -18.5t-77.5 -51t-52.5 -77.5t-19.5 -98q0 -55 19 -101t52 -78t78.5 -50t98.5 -18q67 0 116.5 26.5t100.5 77.5z" />
    <glyph glyph-name="Egrave" unicode="&#xc8;" horiz-adv-x="520" 
d="M240 793h86l-66 112h-108zM475 718v-134h-255v-128h255v-134h-255v-188h255v-134h-392v718h392z" />
    <glyph glyph-name="Eacute" unicode="&#xc9;" horiz-adv-x="520" 
d="M309 905l-66 -112h86l88 112h-108zM475 718v-134h-255v-128h255v-134h-255v-188h255v-134h-392v718h392z" />
    <glyph glyph-name="Ecircumflex" unicode="&#xca;" horiz-adv-x="520" 
d="M235 788h-91l88 116h93l88 -116h-91l-43 61zM475 718v-134h-255v-128h255v-134h-255v-188h255v-134h-392v718h392z" />
    <glyph glyph-name="Edieresis" unicode="&#xcb;" horiz-adv-x="520" 
d="M172 911q29 0 49 -20.5t20 -49.5t-20 -49.5t-49 -20.5t-49 20.5t-20 49.5t20 49.5t49 20.5zM388 911q29 0 49 -20.5t20 -49.5t-20 -49.5t-49 -20.5t-49 20.5t-20 49.5t20 49.5t49 20.5zM475 718v-134h-255v-128h255v-134h-255v-188h255v-134h-392v718h392z" />
    <glyph glyph-name="Igrave" unicode="&#xcc;" horiz-adv-x="280" 
d="M101 793h86l-66 112h-108zM209 718v-718h-137v718h137z" />
    <glyph glyph-name="Iacute" unicode="&#xcd;" horiz-adv-x="280" 
d="M170 905l-66 -112h86l88 112h-108zM209 718v-718h-137v718h137z" />
    <glyph glyph-name="Icircumflex" unicode="&#xce;" horiz-adv-x="280" 
d="M89 910h107l145 -138h-145l-53 63l-54 -63h-147zM209 718v-718h-137v718h137z" />
    <glyph glyph-name="Idieresis" unicode="&#xcf;" horiz-adv-x="280" 
d="M33 911q29 0 49 -20.5t20 -49.5t-20 -49.5t-49 -20.5t-49 20.5t-20 49.5t20 49.5t49 20.5zM249 911q29 0 49 -20.5t20 -49.5t-20 -49.5t-49 -20.5t-49 20.5t-20 49.5t20 49.5t49 20.5zM209 718v-718h-137v718h137z" />
    <glyph glyph-name="Eth" unicode="&#xd0;" horiz-adv-x="742" 
d="M291 718q47 0 88 -3.5t76.5 -13.5t67.5 -27.5t61 -46.5q49 -48 76.5 -120t27.5 -157q0 -93 -32.5 -166.5t-90.5 -118.5q-31 -24 -62.5 -37t-64.5 -19.5t-69 -7.5t-75 -1h-187v319h-83v80h83v319h184zM244 399h146v-80h-146v-185h83q57 0 97.5 10.5t72.5 44.5
q26 27 39.5 69t13.5 95q0 113 -60 172t-178 59h-68v-185z" />
    <glyph glyph-name="Ntilde" unicode="&#xd1;" horiz-adv-x="740" 
d="M307 799q-29 0 -48.5 -7.5t-37.5 -18.5l-54 81q32 24 64 36t62 12q18 0 36.5 -4t36.5 -9.5t36 -9.5t36 -4q23 0 44.5 7.5t41.5 18.5l50 -77q-28 -24 -56 -38t-63 -14q-21 0 -39 4t-36 9.5t-35.5 9.5t-37.5 4zM213 718l308 -472v472h137v-718h-132l-307 471v-471h-137v718
h131z" />
    <glyph glyph-name="Ograve" unicode="&#xd2;" horiz-adv-x="840" 
d="M381 793h86l-66 112h-108zM421 736q74 0 141.5 -28.5t119 -79t82 -120t30.5 -151.5q0 -79 -29 -147.5t-79 -118.5t-118 -79t-145 -29q-80 0 -148.5 29.5t-119 80.5t-79.5 120t-29 147q0 80 30 148.5t81 119t119 79.5t144 29zM420 605q-48 0 -91 -18t-75 -50.5t-50.5 -78
t-18.5 -101.5q0 -55 19 -99.5t51.5 -76.5t75.5 -49.5t91 -17.5q49 0 91.5 19t74 52t50 77.5t18.5 95.5q0 50 -17.5 94.5t-49 78.5t-75 54t-94.5 20z" />
    <glyph glyph-name="Oacute" unicode="&#xd3;" horiz-adv-x="840" 
d="M450 905l-66 -112h86l88 112h-108zM421 736q74 0 141.5 -28.5t119 -79t82 -120t30.5 -151.5q0 -79 -29 -147.5t-79 -118.5t-118 -79t-145 -29q-80 0 -148.5 29.5t-119 80.5t-79.5 120t-29 147q0 80 30 148.5t81 119t119 79.5t144 29zM420 605q-48 0 -91 -18t-75 -50.5
t-50.5 -78t-18.5 -101.5q0 -55 19 -99.5t51.5 -76.5t75.5 -49.5t91 -17.5q49 0 91.5 19t74 52t50 77.5t18.5 95.5q0 50 -17.5 94.5t-49 78.5t-75 54t-94.5 20z" />
    <glyph glyph-name="Ocircumflex" unicode="&#xd4;" horiz-adv-x="840" 
d="M376 788h-91l88 116h93l88 -116h-91l-43 61zM421 736q74 0 141.5 -28.5t119 -79t82 -120t30.5 -151.5q0 -79 -29 -147.5t-79 -118.5t-118 -79t-145 -29q-80 0 -148.5 29.5t-119 80.5t-79.5 120t-29 147q0 80 30 148.5t81 119t119 79.5t144 29zM420 605q-48 0 -91 -18
t-75 -50.5t-50.5 -78t-18.5 -101.5q0 -55 19 -99.5t51.5 -76.5t75.5 -49.5t91 -17.5q49 0 91.5 19t74 52t50 77.5t18.5 95.5q0 50 -17.5 94.5t-49 78.5t-75 54t-94.5 20z" />
    <glyph glyph-name="Otilde" unicode="&#xd5;" horiz-adv-x="840" 
d="M288 794q0 46 12.5 72.5t32.5 36.5t45 5t49 -23q27 -20 39.5 -19t12.5 38h73q0 -45 -12.5 -71.5t-32.5 -37t-45 -5.5t-49 23q-27 20 -39.5 19t-12.5 -38h-73zM421 736q74 0 141.5 -28.5t119 -79t82 -120t30.5 -151.5q0 -79 -29 -147.5t-79 -118.5t-118 -79t-145 -29
q-80 0 -148.5 29.5t-119 80.5t-79.5 120t-29 147q0 80 30 148.5t81 119t119 79.5t144 29zM420 605q-48 0 -91 -18t-75 -50.5t-50.5 -78t-18.5 -101.5q0 -55 19 -99.5t51.5 -76.5t75.5 -49.5t91 -17.5q49 0 91.5 19t74 52t50 77.5t18.5 95.5q0 50 -17.5 94.5t-49 78.5t-75 54
t-94.5 20z" />
    <glyph glyph-name="Odieresis" unicode="&#xd6;" horiz-adv-x="840" 
d="M312 911q29 0 49 -20.5t20 -49.5t-20 -49.5t-49 -20.5t-49 20.5t-20 49.5t20 49.5t49 20.5zM528 911q29 0 49 -20.5t20 -49.5t-20 -49.5t-49 -20.5t-49 20.5t-20 49.5t20 49.5t49 20.5zM421 736q74 0 141.5 -28.5t119 -79t82 -120t30.5 -151.5q0 -79 -29 -147.5
t-79 -118.5t-118 -79t-145 -29q-80 0 -148.5 29.5t-119 80.5t-79.5 120t-29 147q0 80 30 148.5t81 119t119 79.5t144 29zM420 605q-48 0 -91 -18t-75 -50.5t-50.5 -78t-18.5 -101.5q0 -55 19 -99.5t51.5 -76.5t75.5 -49.5t91 -17.5q49 0 91.5 19t74 52t50 77.5t18.5 95.5
q0 50 -17.5 94.5t-49 78.5t-75 54t-94.5 20z" />
    <glyph glyph-name="multiply" unicode="&#xd7;" horiz-adv-x="600" 
d="M144 133l-72 72l155 154l-155 155l72 72l155 -154l154 154l73 -72l-155 -155l155 -154l-73 -72l-154 154z" />
    <glyph glyph-name="Oslash" unicode="&#xd8;" horiz-adv-x="840" 
d="M697 612q97 -107 97 -255q0 -79 -29 -147.5t-79.5 -119t-118 -79t-144.5 -28.5q-118 0 -208 60l-84 -99l-61 52l83 99q-51 53 -78.5 120.5t-27.5 143.5q0 80 30 149t81 119.5t119 79.5t144 29q116 0 216 -70l79 92l62 -51zM551 563q-27 20 -60.5 31t-70.5 11
q-48 0 -91 -18t-75 -50.5t-50.5 -78t-18.5 -101.5q0 -48 13 -87t42 -72zM303 146q26 -15 57 -23.5t63 -8.5q48 0 90.5 19t74 52t50 77.5t18.5 95.5q0 83 -48 149z" />
    <glyph glyph-name="Ugrave" unicode="&#xd9;" 
d="M281 793h86l-66 112h-108zM214 718v-486q0 -59 27 -88.5t77 -29.5q29 0 53.5 11.5t37.5 31.5q11 17 14 41t3 53v467h137v-457q0 -30 -1.5 -56t-7.5 -51t-17.5 -48t-31.5 -47q-35 -40 -80 -58t-104 -18q-56 0 -100 16.5t-78 51.5q-22 23 -35 46.5t-20 50t-9 56.5t-2 65
v449h137z" />
    <glyph glyph-name="Uacute" unicode="&#xda;" 
d="M350 905l-66 -112h86l88 112h-108zM214 718v-486q0 -59 27 -88.5t77 -29.5q29 0 53.5 11.5t37.5 31.5q11 17 14 41t3 53v467h137v-457q0 -30 -1.5 -56t-7.5 -51t-17.5 -48t-31.5 -47q-35 -40 -80 -58t-104 -18q-56 0 -100 16.5t-78 51.5q-22 23 -35 46.5t-20 50t-9 56.5
t-2 65v449h137z" />
    <glyph glyph-name="Ucircumflex" unicode="&#xdb;" 
d="M268 910h107l145 -138h-145l-53 63l-54 -63h-147zM214 718v-486q0 -59 27 -88.5t77 -29.5q29 0 53.5 11.5t37.5 31.5q11 17 14 41t3 53v467h137v-457q0 -30 -1.5 -56t-7.5 -51t-17.5 -48t-31.5 -47q-35 -40 -80 -58t-104 -18q-56 0 -100 16.5t-78 51.5q-22 23 -35 46.5
t-20 50t-9 56.5t-2 65v449h137z" />
    <glyph glyph-name="Udieresis" unicode="&#xdc;" 
d="M212 911q29 0 49 -20.5t20 -49.5t-20 -49.5t-49 -20.5t-49 20.5t-20 49.5t20 49.5t49 20.5zM428 911q29 0 49 -20.5t20 -49.5t-20 -49.5t-49 -20.5t-49 20.5t-20 49.5t20 49.5t49 20.5zM214 718v-486q0 -59 27 -88.5t77 -29.5q29 0 53.5 11.5t37.5 31.5q11 17 14 41t3 53
v467h137v-457q0 -30 -1.5 -56t-7.5 -51t-17.5 -48t-31.5 -47q-35 -40 -80 -58t-104 -18q-56 0 -100 16.5t-78 51.5q-22 23 -35 46.5t-20 50t-9 56.5t-2 65v449h137z" />
    <glyph glyph-name="Yacute" unicode="&#xdd;" horiz-adv-x="620" 
d="M340 905l-66 -112h86l88 112h-108zM178 718l134 -257l132 257h146l-210 -407v-311h-137v311l-212 407h147z" />
    <glyph glyph-name="Thorn" unicode="&#xde;" horiz-adv-x="560" 
d="M218 718v-152q79 0 136 -9.5t97 -48.5q26 -26 42 -65t16 -85q0 -114 -91 -170q-46 -28 -94.5 -32t-105.5 -4v-152h-137v718h137zM282 285q93 0 93 73q0 74 -99 74h-58v-147h64z" />
    <glyph glyph-name="germandbls" unicode="&#xdf;" horiz-adv-x="600" 
d="M557 201q0 -47 -15.5 -86.5t-44 -68t-68.5 -44.5t-88 -16q-42 0 -82 17v125q11 -6 25 -11t37 -5q24 0 43.5 8.5t33 23.5t21 34.5t7.5 40.5q0 51 -36.5 86.5t-106.5 38.5v120q50 1 79.5 23.5t29.5 61.5q0 33 -23 55.5t-57 22.5q-52 0 -82 -41.5t-30 -126.5v-459h-133v437
q0 38 2.5 72t9.5 60q21 85 83.5 132.5t153.5 47.5q48 0 86.5 -14.5t66 -39.5t42.5 -58t15 -70q0 -63 -38.5 -106.5t-112.5 -55.5q86 -15 134 -69.5t48 -134.5z" />
    <glyph glyph-name="agrave" unicode="&#xe0;" horiz-adv-x="660" 
d="M291 605h86l-66 112h-108zM460 56q-35 -35 -74 -52.5t-90 -17.5t-96.5 20.5t-80.5 57.5t-55.5 88.5t-20.5 112.5q0 62 19.5 113.5t53.5 88.5t79.5 57.5t97.5 20.5q95 0 167 -72v58h133v-531h-133v56zM320 423q-33 0 -59.5 -12.5t-45 -33.5t-28.5 -49.5t-10 -61.5
q0 -34 10.5 -63t29.5 -50t45.5 -33t57.5 -12t57.5 11t46 32t31 50.5t11.5 65.5q0 35 -11 63.5t-30.5 49t-46 32t-58.5 11.5z" />
    <glyph glyph-name="aacute" unicode="&#xe1;" horiz-adv-x="660" 
d="M360 717l-66 -112h86l88 112h-108zM460 56q-35 -35 -74 -52.5t-90 -17.5t-96.5 20.5t-80.5 57.5t-55.5 88.5t-20.5 112.5q0 62 19.5 113.5t53.5 88.5t79.5 57.5t97.5 20.5q95 0 167 -72v58h133v-531h-133v56zM320 423q-33 0 -59.5 -12.5t-45 -33.5t-28.5 -49.5t-10 -61.5
q0 -34 10.5 -63t29.5 -50t45.5 -33t57.5 -12t57.5 11t46 32t31 50.5t11.5 65.5q0 35 -11 63.5t-30.5 49t-46 32t-58.5 11.5z" />
    <glyph glyph-name="acircumflex" unicode="&#xe2;" horiz-adv-x="660" 
d="M286 600h-91l88 116h93l88 -116h-91l-43 61zM460 56q-35 -35 -74 -52.5t-90 -17.5t-96.5 20.5t-80.5 57.5t-55.5 88.5t-20.5 112.5q0 62 19.5 113.5t53.5 88.5t79.5 57.5t97.5 20.5q95 0 167 -72v58h133v-531h-133v56zM320 423q-33 0 -59.5 -12.5t-45 -33.5t-28.5 -49.5
t-10 -61.5q0 -34 10.5 -63t29.5 -50t45.5 -33t57.5 -12t57.5 11t46 32t31 50.5t11.5 65.5q0 35 -11 63.5t-30.5 49t-46 32t-58.5 11.5z" />
    <glyph glyph-name="atilde" unicode="&#xe3;" horiz-adv-x="660" 
d="M198 606q0 46 12.5 72.5t32.5 36.5t45 5t49 -23q27 -20 39.5 -19t12.5 38h73q0 -45 -12.5 -71.5t-32.5 -37t-45 -5.5t-49 23q-27 20 -39.5 19t-12.5 -38h-73zM460 56q-35 -35 -74 -52.5t-90 -17.5t-96.5 20.5t-80.5 57.5t-55.5 88.5t-20.5 112.5q0 62 19.5 113.5
t53.5 88.5t79.5 57.5t97.5 20.5q95 0 167 -72v58h133v-531h-133v56zM320 423q-33 0 -59.5 -12.5t-45 -33.5t-28.5 -49.5t-10 -61.5q0 -34 10.5 -63t29.5 -50t45.5 -33t57.5 -12t57.5 11t46 32t31 50.5t11.5 65.5q0 35 -11 63.5t-30.5 49t-46 32t-58.5 11.5z" />
    <glyph glyph-name="adieresis" unicode="&#xe4;" horiz-adv-x="660" 
d="M222 768q29 0 49 -20.5t20 -49.5t-20 -49.5t-49 -20.5t-49 20.5t-20 49.5t20 49.5t49 20.5zM438 768q29 0 49 -20.5t20 -49.5t-20 -49.5t-49 -20.5t-49 20.5t-20 49.5t20 49.5t49 20.5zM460 56q-35 -35 -74 -52.5t-90 -17.5t-96.5 20.5t-80.5 57.5t-55.5 88.5
t-20.5 112.5q0 62 19.5 113.5t53.5 88.5t79.5 57.5t97.5 20.5q95 0 167 -72v58h133v-531h-133v56zM320 423q-33 0 -59.5 -12.5t-45 -33.5t-28.5 -49.5t-10 -61.5q0 -34 10.5 -63t29.5 -50t45.5 -33t57.5 -12t57.5 11t46 32t31 50.5t11.5 65.5q0 35 -11 63.5t-30.5 49t-46 32
t-58.5 11.5z" />
    <glyph glyph-name="aring" unicode="&#xe5;" horiz-adv-x="660" 
d="M330 843q23 0 42.5 -8.5t33.5 -23t22.5 -34t8.5 -41.5t-8.5 -42t-23 -34t-34 -22.5t-41.5 -8.5t-41.5 8.5t-34 22.5t-23 34t-8.5 42t8.5 41.5t22.5 34t34 23t42 8.5zM330 778q-17 0 -29.5 -12t-12.5 -30q0 -19 12.5 -30.5t29.5 -11.5t29.5 11.5t12.5 30.5q0 18 -12.5 30
t-29.5 12zM460 56q-35 -35 -74 -52.5t-90 -17.5t-96.5 20.5t-80.5 57.5t-55.5 88.5t-20.5 112.5q0 62 19.5 113.5t53.5 88.5t79.5 57.5t97.5 20.5q95 0 167 -72v58h133v-531h-133v56zM320 423q-33 0 -59.5 -12.5t-45 -33.5t-28.5 -49.5t-10 -61.5q0 -34 10.5 -63t29.5 -50
t45.5 -33t57.5 -12t57.5 11t46 32t31 50.5t11.5 65.5q0 35 -11 63.5t-30.5 49t-46 32t-58.5 11.5z" />
    <glyph glyph-name="ae" unicode="&#xe6;" horiz-adv-x="1080" 
d="M484 67q-38 -42 -79 -61.5t-98 -19.5t-105 21t-83 58.5t-55 88.5t-20 111q0 57 20 108.5t55.5 89.5t84.5 60.5t107 22.5q101 0 173 -84v69h123v-39q35 28 72 40.5t85 12.5q59 0 109.5 -20.5t88 -59t59 -92.5t21.5 -121v-13t-1 -13h-428q11 -57 51 -90.5t100 -33.5
q42 0 70.5 12.5t58.5 41.5l112 -53q-39 -57 -99.5 -87t-136.5 -30q-50 0 -89 12t-73 40v-38h-123v67zM908 330q-12 46 -49.5 73.5t-91.5 27.5q-52 0 -90.5 -25t-57.5 -76h289zM333 424q-33 0 -61.5 -12t-49 -33t-32.5 -51t-12 -66q0 -31 11 -59t31 -49t48.5 -33.5
t63.5 -12.5q36 0 64 12t48 33.5t30.5 50.5t10.5 63q0 35 -11.5 64t-32 49.5t-48.5 32t-60 11.5z" />
    <glyph glyph-name="ccedilla" unicode="&#xe7;" 
d="M337 108q90 0 139 61l105 -72q-80 -105 -227 -111v-1q34 -8 52.5 -29t18.5 -46q0 -37 -32 -66.5t-94 -29.5q-34 0 -59.5 7t-48.5 15l18 64q16 -5 33 -8.5t35 -3.5q23 0 36.5 9t13.5 26q0 15 -11 21t-30 6h-12.5t-12.5 -1l12 43q-53 10 -96 34.5t-73 60.5t-46 81t-16 96
q0 60 22 111t62 89t95 59.5t121 21.5q78 0 141.5 -31t103.5 -90l-111 -61q-29 30 -59 45t-74 15q-38 0 -69 -12t-52.5 -34t-33.5 -51t-12 -64q0 -68 43.5 -111t117.5 -43z" />
    <glyph glyph-name="egrave" unicode="&#xe8;" 
d="M281 605h86l-66 112h-108zM565 103q-43 -61 -101 -89t-143 -28q-63 0 -114.5 22t-88 59.5t-56 89t-19.5 109.5q0 54 19 104.5t55 89.5t87 62t115 23q63 0 115 -21.5t89 -59.5t57.5 -91t20.5 -116q0 -9 -0.5 -15t-0.5 -15h-428q10 -60 51 -91.5t98 -31.5q43 0 73.5 12.5
t58.5 39.5zM467 332q-14 47 -53 73.5t-93 26.5q-50 0 -86.5 -24.5t-56.5 -75.5h289z" />
    <glyph glyph-name="eacute" unicode="&#xe9;" 
d="M350 717l-66 -112h86l88 112h-108zM565 103q-43 -61 -101 -89t-143 -28q-63 0 -114.5 22t-88 59.5t-56 89t-19.5 109.5q0 54 19 104.5t55 89.5t87 62t115 23q63 0 115 -21.5t89 -59.5t57.5 -91t20.5 -116q0 -9 -0.5 -15t-0.5 -15h-428q10 -60 51 -91.5t98 -31.5
q43 0 73.5 12.5t58.5 39.5zM467 332q-14 47 -53 73.5t-93 26.5q-50 0 -86.5 -24.5t-56.5 -75.5h289z" />
    <glyph glyph-name="ecircumflex" unicode="&#xea;" 
d="M276 600h-91l88 116h93l88 -116h-91l-43 61zM565 103q-43 -61 -101 -89t-143 -28q-63 0 -114.5 22t-88 59.5t-56 89t-19.5 109.5q0 54 19 104.5t55 89.5t87 62t115 23q63 0 115 -21.5t89 -59.5t57.5 -91t20.5 -116q0 -9 -0.5 -15t-0.5 -15h-428q10 -60 51 -91.5t98 -31.5
q43 0 73.5 12.5t58.5 39.5zM467 332q-14 47 -53 73.5t-93 26.5q-50 0 -86.5 -24.5t-56.5 -75.5h289z" />
    <glyph glyph-name="edieresis" unicode="&#xeb;" 
d="M212 768q29 0 49 -20.5t20 -49.5t-20 -49.5t-49 -20.5t-49 20.5t-20 49.5t20 49.5t49 20.5zM428 768q29 0 49 -20.5t20 -49.5t-20 -49.5t-49 -20.5t-49 20.5t-20 49.5t20 49.5t49 20.5zM565 103q-43 -61 -101 -89t-143 -28q-63 0 -114.5 22t-88 59.5t-56 89t-19.5 109.5
q0 54 19 104.5t55 89.5t87 62t115 23q63 0 115 -21.5t89 -59.5t57.5 -91t20.5 -116q0 -9 -0.5 -15t-0.5 -15h-428q10 -60 51 -91.5t98 -31.5q43 0 73.5 12.5t58.5 39.5zM467 332q-14 47 -53 73.5t-93 26.5q-50 0 -86.5 -24.5t-56.5 -75.5h289z" />
    <glyph glyph-name="igrave" unicode="&#xec;" horiz-adv-x="240" 
d="M148 605h86l-66 112h-108zM187 531v-531h-133v531h133z" />
    <glyph glyph-name="iacute" unicode="&#xed;" horiz-adv-x="240" 
d="M166 717l-66 -112h86l88 112h-108zM187 531v-531h-133v531h133z" />
    <glyph glyph-name="icircumflex" unicode="&#xee;" horiz-adv-x="240" 
d="M69 767h107l145 -138h-145l-53 63l-54 -63h-147zM187 531v-531h-133v531h133z" />
    <glyph glyph-name="idieresis" unicode="&#xef;" horiz-adv-x="240" 
d="M13 768q29 0 49 -20.5t20 -49.5t-20 -49.5t-49 -20.5t-49 20.5t-20 49.5t20 49.5t49 20.5zM229 768q29 0 49 -20.5t20 -49.5t-20 -49.5t-49 -20.5t-49 20.5t-20 49.5t20 49.5t49 20.5zM187 531v-531h-133v531h133z" />
    <glyph glyph-name="eth" unicode="&#xf0;" 
d="M257 676q-14 13 -31 28.5t-38 31.5h130l40 -29l97 29l24 -76l-51 -17q83 -77 128 -170t45 -187q0 -70 -22.5 -125.5t-61 -94t-89.5 -59t-108 -20.5q-60 0 -111 22t-87.5 60t-57.5 89t-21 109q0 61 23 112t60 88t83.5 57.5t92.5 20.5q24 0 39 -4.5t27 -9.5q-7 17 -20 37
t-30 41l-130 -40l-25 78zM322 419q-32 0 -58.5 -11.5t-46 -32t-30 -48.5t-10.5 -61t10 -61.5t28.5 -50t45 -33.5t59.5 -12q31 0 58 11.5t46.5 32.5t31 49.5t11.5 62.5q0 33 -10.5 61t-29.5 48.5t-45.5 32.5t-59.5 12z" />
    <glyph glyph-name="ntilde" unicode="&#xf1;" horiz-adv-x="600" 
d="M237 656q-29 0 -48.5 -7.5t-37.5 -18.5l-54 81q32 24 64 36t62 12q18 0 36.5 -4t36.5 -9.5t36 -9.5t36 -4q23 0 44.5 7.5t41.5 18.5l50 -77q-28 -24 -56 -38t-63 -14q-21 0 -39 4t-36 9.5t-35.5 9.5t-37.5 4zM200 477q38 32 75 50t82 18q37 0 70 -12.5t58 -36t39.5 -57
t14.5 -76.5v-363h-133v251q0 39 -2.5 71t-12 54.5t-27.5 34.5t-48 12q-58 0 -90 -51q-20 -32 -23 -68t-3 -78v-226h-133v531h133v-54z" />
    <glyph glyph-name="ograve" unicode="&#xf2;" 
d="M281 605h86l-66 112h-108zM317 545q58 0 109.5 -21.5t89.5 -59t60.5 -88.5t22.5 -110q0 -58 -21 -109t-58.5 -89t-89 -60t-112.5 -22q-58 0 -108 21.5t-87.5 59.5t-59 89t-21.5 109q0 60 22.5 111.5t60.5 89t88 58.5t104 21zM319 419q-31 0 -57.5 -11.5t-45.5 -32
t-29.5 -48.5t-10.5 -61q0 -34 10.5 -62t29 -48.5t45 -32t58.5 -11.5q31 0 57.5 11t46 31t31 48t11.5 63q0 34 -10.5 62t-30 48.5t-46 32t-59.5 11.5z" />
    <glyph glyph-name="oacute" unicode="&#xf3;" 
d="M350 717l-66 -112h86l88 112h-108zM317 545q58 0 109.5 -21.5t89.5 -59t60.5 -88.5t22.5 -110q0 -58 -21 -109t-58.5 -89t-89 -60t-112.5 -22q-58 0 -108 21.5t-87.5 59.5t-59 89t-21.5 109q0 60 22.5 111.5t60.5 89t88 58.5t104 21zM319 419q-31 0 -57.5 -11.5
t-45.5 -32t-29.5 -48.5t-10.5 -61q0 -34 10.5 -62t29 -48.5t45 -32t58.5 -11.5q31 0 57.5 11t46 31t31 48t11.5 63q0 34 -10.5 62t-30 48.5t-46 32t-59.5 11.5z" />
    <glyph glyph-name="ocircumflex" unicode="&#xf4;" 
d="M276 600h-91l88 116h93l88 -116h-91l-43 61zM317 545q58 0 109.5 -21.5t89.5 -59t60.5 -88.5t22.5 -110q0 -58 -21 -109t-58.5 -89t-89 -60t-112.5 -22q-58 0 -108 21.5t-87.5 59.5t-59 89t-21.5 109q0 60 22.5 111.5t60.5 89t88 58.5t104 21zM319 419q-31 0 -57.5 -11.5
t-45.5 -32t-29.5 -48.5t-10.5 -61q0 -34 10.5 -62t29 -48.5t45 -32t58.5 -11.5q31 0 57.5 11t46 31t31 48t11.5 63q0 34 -10.5 62t-30 48.5t-46 32t-59.5 11.5z" />
    <glyph glyph-name="otilde" unicode="&#xf5;" 
d="M188 606q0 46 12.5 72.5t32.5 36.5t45 5t49 -23q27 -20 39.5 -19t12.5 38h73q0 -45 -12.5 -71.5t-32.5 -37t-45 -5.5t-49 23q-27 20 -39.5 19t-12.5 -38h-73zM317 545q58 0 109.5 -21.5t89.5 -59t60.5 -88.5t22.5 -110q0 -58 -21 -109t-58.5 -89t-89 -60t-112.5 -22
q-58 0 -108 21.5t-87.5 59.5t-59 89t-21.5 109q0 60 22.5 111.5t60.5 89t88 58.5t104 21zM319 419q-31 0 -57.5 -11.5t-45.5 -32t-29.5 -48.5t-10.5 -61q0 -34 10.5 -62t29 -48.5t45 -32t58.5 -11.5q31 0 57.5 11t46 31t31 48t11.5 63q0 34 -10.5 62t-30 48.5t-46 32
t-59.5 11.5z" />
    <glyph glyph-name="odieresis" unicode="&#xf6;" 
d="M212 768q29 0 49 -20.5t20 -49.5t-20 -49.5t-49 -20.5t-49 20.5t-20 49.5t20 49.5t49 20.5zM428 768q29 0 49 -20.5t20 -49.5t-20 -49.5t-49 -20.5t-49 20.5t-20 49.5t20 49.5t49 20.5zM317 545q58 0 109.5 -21.5t89.5 -59t60.5 -88.5t22.5 -110q0 -58 -21 -109
t-58.5 -89t-89 -60t-112.5 -22q-58 0 -108 21.5t-87.5 59.5t-59 89t-21.5 109q0 60 22.5 111.5t60.5 89t88 58.5t104 21zM319 419q-31 0 -57.5 -11.5t-45.5 -32t-29.5 -48.5t-10.5 -61q0 -34 10.5 -62t29 -48.5t45 -32t58.5 -11.5q31 0 57.5 11t46 31t31 48t11.5 63
q0 34 -10.5 62t-30 48.5t-46 32t-59.5 11.5z" />
    <glyph glyph-name="divide" unicode="&#xf7;" horiz-adv-x="600" 
d="M379 648v-157h-157v157h157zM544 420v-122h-488v122h488zM379 228v-157h-157v157h157z" />
    <glyph glyph-name="oslash" unicode="&#xf8;" horiz-adv-x="660" 
d="M549 440q30 -38 45 -82t15 -92q0 -58 -21 -109t-58.5 -89t-89 -60t-112.5 -22q-83 0 -148 43l-63 -71l-61 53l64 71q-68 77 -68 183q0 60 22.5 111.5t60.5 89t88 58.5t104 21q42 0 84.5 -13t78.5 -37l61 68l60 -54zM405 400q-17 10 -36.5 14.5t-39.5 4.5
q-31 0 -57.5 -11.5t-45.5 -32t-29.5 -48.5t-10.5 -61q0 -23 5 -45t16 -42zM266 124q14 -7 31 -9.5t32 -2.5q31 0 57.5 11t46 31t31 48t11.5 63q0 39 -16 75z" />
    <glyph glyph-name="ugrave" unicode="&#xf9;" horiz-adv-x="600" 
d="M261 605h86l-66 112h-108zM201 531v-277q0 -72 23.5 -108.5t76.5 -36.5q54 0 77 35.5t23 103.5v283h133v-245q0 -37 -2 -69t-8 -60.5t-18.5 -54t-33.5 -48.5q-32 -35 -73.5 -51t-97.5 -16q-97 0 -154.5 47.5t-73.5 141.5q-5 32 -5 55.5v56.5v243h133z" />
    <glyph glyph-name="uacute" unicode="&#xfa;" horiz-adv-x="600" 
d="M330 717l-66 -112h86l88 112h-108zM201 531v-277q0 -72 23.5 -108.5t76.5 -36.5q54 0 77 35.5t23 103.5v283h133v-245q0 -37 -2 -69t-8 -60.5t-18.5 -54t-33.5 -48.5q-32 -35 -73.5 -51t-97.5 -16q-97 0 -154.5 47.5t-73.5 141.5q-5 32 -5 55.5v56.5v243h133z" />
    <glyph glyph-name="ucircumflex" unicode="&#xfb;" horiz-adv-x="600" 
d="M248 767h107l145 -138h-145l-53 63l-54 -63h-147zM201 531v-277q0 -72 23.5 -108.5t76.5 -36.5q54 0 77 35.5t23 103.5v283h133v-245q0 -37 -2 -69t-8 -60.5t-18.5 -54t-33.5 -48.5q-32 -35 -73.5 -51t-97.5 -16q-97 0 -154.5 47.5t-73.5 141.5q-5 32 -5 55.5v56.5v243
h133z" />
    <glyph glyph-name="udieresis" unicode="&#xfc;" horiz-adv-x="600" 
d="M192 768q29 0 49 -20.5t20 -49.5t-20 -49.5t-49 -20.5t-49 20.5t-20 49.5t20 49.5t49 20.5zM408 768q29 0 49 -20.5t20 -49.5t-20 -49.5t-49 -20.5t-49 20.5t-20 49.5t20 49.5t49 20.5zM201 531v-277q0 -72 23.5 -108.5t76.5 -36.5q54 0 77 35.5t23 103.5v283h133v-245
q0 -37 -2 -69t-8 -60.5t-18.5 -54t-33.5 -48.5q-32 -35 -73.5 -51t-97.5 -16q-97 0 -154.5 47.5t-73.5 141.5q-5 32 -5 55.5v56.5v243h133z" />
    <glyph glyph-name="yacute" unicode="&#xfd;" horiz-adv-x="580" 
d="M320 717l-66 -112h86l88 112h-108zM145 531l138 -333l153 333h137l-334 -725h-137l109 234l-202 491h136z" />
    <glyph glyph-name="thorn" unicode="&#xfe;" horiz-adv-x="660" 
d="M200 473q72 72 167 72q51 0 97 -20.5t80 -57.5t54 -88.5t20 -113.5q0 -61 -20.5 -112.5t-55.5 -88.5t-81 -57.5t-97 -20.5t-89.5 17.5t-74.5 52.5v-250h-133v930h133v-263zM340 423q-32 0 -58.5 -11.5t-46 -32t-30.5 -49t-11 -63.5q0 -36 11.5 -65.5t31 -50t46 -32
t57.5 -11.5t57.5 12t45.5 33t30 50t11 63q0 33 -10 61.5t-29 49.5t-45.5 33.5t-59.5 12.5z" />
    <glyph glyph-name="ydieresis" unicode="&#xff;" horiz-adv-x="580" 
d="M182 768q29 0 49 -20.5t20 -49.5t-20 -49.5t-49 -20.5t-49 20.5t-20 49.5t20 49.5t49 20.5zM398 768q29 0 49 -20.5t20 -49.5t-20 -49.5t-49 -20.5t-49 20.5t-20 49.5t20 49.5t49 20.5zM145 531l138 -333l153 333h137l-334 -725h-137l109 234l-202 491h136z" />
    <glyph glyph-name="Amacron" unicode="&#x100;" horiz-adv-x="740" 
d="M220 879h278v-107h-278v107zM439 718l277 -718h-142l-56 148h-293l-59 -148h-142l277 718h138zM276 282h190l-95 246z" />
    <glyph glyph-name="amacron" unicode="&#x101;" horiz-adv-x="660" 
d="M203 736h278v-107h-278v107zM460 56q-35 -35 -74 -52.5t-90 -17.5t-96.5 20.5t-80.5 57.5t-55.5 88.5t-20.5 112.5q0 62 19.5 113.5t53.5 88.5t79.5 57.5t97.5 20.5q95 0 167 -72v58h133v-531h-133v56zM320 423q-33 0 -59.5 -12.5t-45 -33.5t-28.5 -49.5t-10 -61.5
q0 -34 10.5 -63t29.5 -50t45.5 -33t57.5 -12t57.5 11t46 32t31 50.5t11.5 65.5q0 35 -11 63.5t-30.5 49t-46 32t-58.5 11.5z" />
    <glyph glyph-name="Abreve" unicode="&#x102;" horiz-adv-x="740" 
d="M370 780q-62 0 -96.5 30t-34.5 86h81q0 -49 50 -49q49 0 49 49h81q0 -56 -34 -86t-96 -30zM439 718l277 -718h-142l-56 148h-293l-59 -148h-142l277 718h138zM276 282h190l-95 246z" />
    <glyph glyph-name="abreve" unicode="&#x103;" horiz-adv-x="660" 
d="M330 592q-62 0 -96.5 30t-34.5 86h81q0 -49 50 -49q49 0 49 49h81q0 -56 -34 -86t-96 -30zM460 56q-35 -35 -74 -52.5t-90 -17.5t-96.5 20.5t-80.5 57.5t-55.5 88.5t-20.5 112.5q0 62 19.5 113.5t53.5 88.5t79.5 57.5t97.5 20.5q95 0 167 -72v58h133v-531h-133v56z
M320 423q-33 0 -59.5 -12.5t-45 -33.5t-28.5 -49.5t-10 -61.5q0 -34 10.5 -63t29.5 -50t45.5 -33t57.5 -12t57.5 11t46 32t31 50.5t11.5 65.5q0 35 -11 63.5t-30.5 49t-46 32t-58.5 11.5z" />
    <glyph glyph-name="Aogonek" unicode="&#x104;" horiz-adv-x="740" 
d="M700 -190q-14 -3 -30 -6t-33 -3q-60 0 -89.5 27t-29.5 66q0 32 23 59.5t64 46.5h-31l-56 148h-293l-59 -148h-142l277 718h138l277 -718h-41q-33 -20 -50.5 -38.5t-17.5 -41.5t15 -34t35 -11q12 0 23.5 3.5t19.5 8.5v-77zM276 282h190l-95 246z" />
    <glyph glyph-name="aogonek" unicode="&#x105;" horiz-adv-x="660" 
d="M460 56q-35 -35 -74 -52.5t-90 -17.5t-96.5 20.5t-80.5 57.5t-55.5 88.5t-20.5 112.5q0 62 19.5 113.5t53.5 88.5t79.5 57.5t97.5 20.5q95 0 167 -72v58h133v-531h-29q-33 -20 -50.5 -38.5t-17.5 -41.5t15 -34t35 -11q12 0 23.5 3.5t19.5 8.5v-77q-14 -3 -30 -6t-33 -3
q-60 0 -89.5 27t-29.5 66q0 32 23 59.5t64 46.5h-34v56zM320 423q-33 0 -59.5 -12.5t-45 -33.5t-28.5 -49.5t-10 -61.5q0 -34 10.5 -63t29.5 -50t45.5 -33t57.5 -12t57.5 11t46 32t31 50.5t11.5 65.5q0 35 -11 63.5t-30.5 49t-46 32t-58.5 11.5z" />
    <glyph glyph-name="Cacute" unicode="&#x106;" horiz-adv-x="780" 
d="M601 963l-178 -191h-96l117 191h157zM739 120q-36 -35 -70 -61t-71 -43t-78.5 -25.5t-92.5 -8.5q-84 0 -154 28t-120.5 78t-78 119.5t-27.5 152.5q0 85 30.5 154.5t83 118.5t122 76t146.5 27q90 0 171.5 -37.5t141.5 -106.5l-96 -92q-49 52 -103 78.5t-117 26.5
q-51 0 -95.5 -18.5t-77.5 -51t-52.5 -77.5t-19.5 -98q0 -55 19 -101t52 -78t78.5 -50t98.5 -18q67 0 116.5 26.5t100.5 77.5z" />
    <glyph glyph-name="cacute" unicode="&#x107;" 
d="M522 820l-178 -191h-96l117 191h157zM581 97q-85 -111 -241 -111q-68 0 -123 21.5t-94 59t-60 88.5t-21 109q0 60 22 111t62 89t95 59.5t121 21.5q78 0 141.5 -31t103.5 -90l-111 -61q-29 30 -59 45t-74 15q-38 0 -69 -12t-52.5 -34t-33.5 -51t-12 -64q0 -68 43.5 -111
t117.5 -43q90 0 139 61z" />
    <glyph glyph-name="Ccircumflex" unicode="&#x108;" horiz-adv-x="780" 
d="M372 910h107l145 -138h-145l-53 63l-54 -63h-147zM739 120q-36 -35 -70 -61t-71 -43t-78.5 -25.5t-92.5 -8.5q-84 0 -154 28t-120.5 78t-78 119.5t-27.5 152.5q0 85 30.5 154.5t83 118.5t122 76t146.5 27q90 0 171.5 -37.5t141.5 -106.5l-96 -92q-49 52 -103 78.5
t-117 26.5q-51 0 -95.5 -18.5t-77.5 -51t-52.5 -77.5t-19.5 -98q0 -55 19 -101t52 -78t78.5 -50t98.5 -18q67 0 116.5 26.5t100.5 77.5z" />
    <glyph glyph-name="ccircumflex" unicode="&#x109;" 
d="M284 767h107l145 -138h-145l-53 63l-54 -63h-147zM581 97q-85 -111 -241 -111q-68 0 -123 21.5t-94 59t-60 88.5t-21 109q0 60 22 111t62 89t95 59.5t121 21.5q78 0 141.5 -31t103.5 -90l-111 -61q-29 30 -59 45t-74 15q-38 0 -69 -12t-52.5 -34t-33.5 -51t-12 -64
q0 -68 43.5 -111t117.5 -43q90 0 139 61z" />
    <glyph glyph-name="Cdotaccent" unicode="&#x10a;" horiz-adv-x="780" 
d="M423 911q29 0 49 -20.5t20 -49.5t-20 -49.5t-49 -20.5t-49 20.5t-20 49.5t20 49.5t49 20.5zM739 120q-36 -35 -70 -61t-71 -43t-78.5 -25.5t-92.5 -8.5q-84 0 -154 28t-120.5 78t-78 119.5t-27.5 152.5q0 85 30.5 154.5t83 118.5t122 76t146.5 27q90 0 171.5 -37.5
t141.5 -106.5l-96 -92q-49 52 -103 78.5t-117 26.5q-51 0 -95.5 -18.5t-77.5 -51t-52.5 -77.5t-19.5 -98q0 -55 19 -101t52 -78t78.5 -50t98.5 -18q67 0 116.5 26.5t100.5 77.5z" />
    <glyph glyph-name="cdotaccent" unicode="&#x10b;" 
d="M334 768q29 0 49 -20.5t20 -49.5t-20 -49.5t-49 -20.5t-49 20.5t-20 49.5t20 49.5t49 20.5zM581 97q-85 -111 -241 -111q-68 0 -123 21.5t-94 59t-60 88.5t-21 109q0 60 22 111t62 89t95 59.5t121 21.5q78 0 141.5 -31t103.5 -90l-111 -61q-29 30 -59 45t-74 15
q-38 0 -69 -12t-52.5 -34t-33.5 -51t-12 -64q0 -68 43.5 -111t117.5 -43q90 0 139 61z" />
    <glyph glyph-name="Ccaron" unicode="&#x10c;" horiz-adv-x="780" 
d="M370 910l54 -65l53 65h145l-145 -138h-107l-147 138h147zM739 120q-36 -35 -70 -61t-71 -43t-78.5 -25.5t-92.5 -8.5q-84 0 -154 28t-120.5 78t-78 119.5t-27.5 152.5q0 85 30.5 154.5t83 118.5t122 76t146.5 27q90 0 171.5 -37.5t141.5 -106.5l-96 -92q-49 52 -103 78.5
t-117 26.5q-51 0 -95.5 -18.5t-77.5 -51t-52.5 -77.5t-19.5 -98q0 -55 19 -101t52 -78t78.5 -50t98.5 -18q67 0 116.5 26.5t100.5 77.5z" />
    <glyph glyph-name="ccaron" unicode="&#x10d;" 
d="M283 767l54 -65l53 65h145l-145 -138h-107l-147 138h147zM581 97q-85 -111 -241 -111q-68 0 -123 21.5t-94 59t-60 88.5t-21 109q0 60 22 111t62 89t95 59.5t121 21.5q78 0 141.5 -31t103.5 -90l-111 -61q-29 30 -59 45t-74 15q-38 0 -69 -12t-52.5 -34t-33.5 -51
t-12 -64q0 -68 43.5 -111t117.5 -43q90 0 139 61z" />
    <glyph glyph-name="Dcaron" unicode="&#x10e;" horiz-adv-x="700" 
d="M244 910l54 -65l53 65h145l-145 -138h-107l-147 138h147zM256 718q47 0 88 -3.5t76.5 -13.5t67.5 -27.5t61 -46.5q49 -48 76.5 -119.5t27.5 -157.5q0 -93 -32.5 -166.5t-90.5 -118.5q-31 -24 -62.5 -37t-65 -19.5t-69.5 -7.5t-75 -1h-175v718h173zM220 134h72
q57 0 97.5 10.5t72.5 44.5q25 27 39 69t14 95q0 113 -60.5 172t-178.5 59h-56v-450z" />
    <glyph glyph-name="dcaron" unicode="&#x10f;" horiz-adv-x="660" 
d="M593 736v-736h-133v56q-39 -37 -78.5 -53.5t-85.5 -16.5q-103 0 -178 80t-75 199q0 123 72 201q73 79 177 79q96 0 168 -72v263h133zM752 736v-67q0 -33 -3.5 -60t-12 -51t-21.5 -47.5t-32 -48.5l-48 38q18 26 26.5 45.5t17.5 51.5h-50v139h123zM320 422q-62 0 -103 -44
t-41 -112t41 -114q42 -44 103 -44q63 0 104 44q42 44 42 115q0 35 -11 63.5t-30.5 48.5t-46 31.5t-58.5 11.5z" />
    <glyph glyph-name="Dcroat" unicode="&#x110;" horiz-adv-x="742" 
d="M291 718q47 0 88 -3.5t76.5 -13.5t67.5 -27.5t61 -46.5q49 -48 76.5 -120t27.5 -157q0 -93 -32.5 -166.5t-90.5 -118.5q-31 -24 -62.5 -37t-64.5 -19.5t-69 -7.5t-75 -1h-187v319h-83v80h83v319h184zM244 399h146v-80h-146v-185h83q57 0 97.5 10.5t72.5 44.5
q26 27 39.5 69t13.5 95q0 113 -60 172t-178 59h-68v-185z" />
    <glyph glyph-name="dcroat" unicode="&#x111;" horiz-adv-x="660" 
d="M593 736v-55h67v-80h-67v-601h-133v56q-39 -37 -78.5 -53.5t-85.5 -16.5q-103 0 -178 80t-75 199q0 123 72 201q73 79 177 79q96 0 168 -72v128h-209v80h209v55h133zM320 422q-62 0 -103 -44t-41 -112t41 -114q42 -44 103 -44q63 0 104 44q42 44 42 115q0 35 -11 63.5
t-30.5 48.5t-46 31.5t-58.5 11.5z" />
    <glyph glyph-name="Emacron" unicode="&#x112;" horiz-adv-x="520" 
d="M132 879h278v-107h-278v107zM475 718v-134h-255v-128h255v-134h-255v-188h255v-134h-392v718h392z" />
    <glyph glyph-name="emacron" unicode="&#x113;" 
d="M177 736h278v-107h-278v107zM565 103q-43 -61 -101 -89t-143 -28q-63 0 -114.5 22t-88 59.5t-56 89t-19.5 109.5q0 54 19 104.5t55 89.5t87 62t115 23q63 0 115 -21.5t89 -59.5t57.5 -91t20.5 -116q0 -9 -0.5 -15t-0.5 -15h-428q10 -60 51 -91.5t98 -31.5q43 0 73.5 12.5
t58.5 39.5zM467 332q-14 47 -53 73.5t-93 26.5q-50 0 -86.5 -24.5t-56.5 -75.5h289z" />
    <glyph glyph-name="Ebreve" unicode="&#x114;" horiz-adv-x="520" 
d="M472 909q-9 -64 -60 -100.5t-139 -36.5q-87 0 -137.5 36.5t-60.5 100.5h108q24 -40 91 -40q64 0 90 40h108zM475 718v-134h-255v-128h255v-134h-255v-188h255v-134h-392v718h392z" />
    <glyph glyph-name="ebreve" unicode="&#x115;" 
d="M520 766q-9 -64 -60 -100.5t-139 -36.5q-87 0 -137.5 36.5t-60.5 100.5h108q24 -40 91 -40q64 0 90 40h108zM565 103q-43 -61 -101 -89t-143 -28q-63 0 -114.5 22t-88 59.5t-56 89t-19.5 109.5q0 54 19 104.5t55 89.5t87 62t115 23q63 0 115 -21.5t89 -59.5t57.5 -91
t20.5 -116q0 -9 -0.5 -15t-0.5 -15h-428q10 -60 51 -91.5t98 -31.5q43 0 73.5 12.5t58.5 39.5zM467 332q-14 47 -53 73.5t-93 26.5q-50 0 -86.5 -24.5t-56.5 -75.5h289z" />
    <glyph glyph-name="Edotaccent" unicode="&#x116;" horiz-adv-x="520" 
d="M278 911q29 0 49 -20.5t20 -49.5t-20 -49.5t-49 -20.5t-49 20.5t-20 49.5t20 49.5t49 20.5zM475 718v-134h-255v-128h255v-134h-255v-188h255v-134h-392v718h392z" />
    <glyph glyph-name="edotaccent" unicode="&#x117;" 
d="M314 768q29 0 49 -20.5t20 -49.5t-20 -49.5t-49 -20.5t-49 20.5t-20 49.5t20 49.5t49 20.5zM565 103q-43 -61 -101 -89t-143 -28q-63 0 -114.5 22t-88 59.5t-56 89t-19.5 109.5q0 54 19 104.5t55 89.5t87 62t115 23q63 0 115 -21.5t89 -59.5t57.5 -91t20.5 -116
q0 -9 -0.5 -15t-0.5 -15h-428q10 -60 51 -91.5t98 -31.5q43 0 73.5 12.5t58.5 39.5zM467 332q-14 47 -53 73.5t-93 26.5q-50 0 -86.5 -24.5t-56.5 -75.5h289z" />
    <glyph glyph-name="Eogonek" unicode="&#x118;" horiz-adv-x="520" 
d="M475 718v-134h-255v-128h255v-134h-255v-188h255v-134h-36q-33 -20 -50.5 -38.5t-17.5 -41.5t15 -34t35 -11q12 0 23.5 3.5t19.5 8.5v-77q-14 -3 -30 -6t-33 -3q-60 0 -89.5 27t-29.5 66q0 32 23 59.5t64 46.5h-286v718h392z" />
    <glyph glyph-name="eogonek" unicode="&#x119;" 
d="M445 -190q-14 -3 -30 -6t-33 -3q-60 0 -89.5 27t-29.5 66q0 26 16 50t45 42h-3q-63 0 -114.5 22t-88 59.5t-56 89t-19.5 109.5q0 54 19 104.5t55 89.5t87 62t115 23q63 0 115 -21.5t89 -59.5t57.5 -91t20.5 -116q0 -9 -0.5 -15t-0.5 -15h-428q10 -60 51 -91.5t98 -31.5
q43 0 73.5 12.5t58.5 39.5l112 -53q-30 -43 -67 -69t-85 -37q-30 -19 -45.5 -37t-15.5 -40q0 -23 15 -34t35 -11q12 0 23.5 3.5t19.5 8.5v-77zM467 332q-14 47 -53 73.5t-93 26.5q-50 0 -86.5 -24.5t-56.5 -75.5h289z" />
    <glyph glyph-name="Ecaron" unicode="&#x11a;" horiz-adv-x="520" 
d="M227 910l54 -65l53 65h145l-145 -138h-107l-147 138h147zM475 718v-134h-255v-128h255v-134h-255v-188h255v-134h-392v718h392z" />
    <glyph glyph-name="ecaron" unicode="&#x11b;" 
d="M265 767l54 -65l53 65h145l-145 -138h-107l-147 138h147zM565 103q-43 -61 -101 -89t-143 -28q-63 0 -114.5 22t-88 59.5t-56 89t-19.5 109.5q0 54 19 104.5t55 89.5t87 62t115 23q63 0 115 -21.5t89 -59.5t57.5 -91t20.5 -116q0 -9 -0.5 -15t-0.5 -15h-428
q10 -60 51 -91.5t98 -31.5q43 0 73.5 12.5t58.5 39.5zM467 332q-14 47 -53 73.5t-93 26.5q-50 0 -86.5 -24.5t-56.5 -75.5h289z" />
    <glyph glyph-name="Gcircumflex" unicode="&#x11c;" horiz-adv-x="840" 
d="M378 910h107l145 -138h-145l-53 63l-54 -63h-147zM796 365q0 -36 -3.5 -70t-12.5 -66t-26 -63.5t-44 -63.5q-53 -62 -119 -91t-152 -29q-90 0 -162 31t-122.5 83t-77.5 121.5t-27 145.5t28 143.5t79 118.5t122 80.5t156 29.5q107 0 179.5 -35.5t130.5 -98.5l-96 -95
q-46 48 -97.5 73t-115.5 25q-54 0 -99.5 -19.5t-78.5 -52.5t-51.5 -77t-18.5 -94q0 -52 20 -97.5t54.5 -79t81.5 -52.5t101 -19q140 0 197 122h-208v130h362z" />
    <glyph glyph-name="gcircumflex" unicode="&#x11d;" horiz-adv-x="660" 
d="M268 767h107l145 -138h-145l-53 63l-54 -63h-147zM593 76q0 -78 -17.5 -131.5t-63.5 -92.5q-71 -59 -193 -59q-221 0 -275 168h147q39 -46 123 -46q37 0 66 9t47 26q24 23 28.5 50.5t4.5 65.5q-33 -32 -71 -49t-90 -17q-54 0 -100.5 20.5t-81 56.5t-54 86t-19.5 110
q0 62 20 112t53.5 85.5t78.5 55t96 19.5q50 0 90 -18.5t78 -53.5v58h133v-455zM322 423q-33 0 -59.5 -12t-45.5 -32.5t-29 -48t-10 -58.5q0 -33 11 -60.5t30.5 -47.5t46.5 -31t58 -11t57 10.5t45 30t30 47t11 61.5q0 32 -10.5 60t-29 48.5t-45.5 32t-60 11.5z" />
    <glyph glyph-name="Gbreve" unicode="&#x11e;" horiz-adv-x="840" 
d="M639 909q-9 -64 -60 -100.5t-139 -36.5q-87 0 -137.5 36.5t-60.5 100.5h108q24 -40 91 -40q64 0 90 40h108zM796 365q0 -36 -3.5 -70t-12.5 -66t-26 -63.5t-44 -63.5q-53 -62 -119 -91t-152 -29q-90 0 -162 31t-122.5 83t-77.5 121.5t-27 145.5t28 143.5t79 118.5
t122 80.5t156 29.5q107 0 179.5 -35.5t130.5 -98.5l-96 -95q-46 48 -97.5 73t-115.5 25q-54 0 -99.5 -19.5t-78.5 -52.5t-51.5 -77t-18.5 -94q0 -52 20 -97.5t54.5 -79t81.5 -52.5t101 -19q140 0 197 122h-208v130h362z" />
    <glyph glyph-name="gbreve" unicode="&#x11f;" horiz-adv-x="660" 
d="M524 766q-9 -64 -60 -100.5t-139 -36.5q-87 0 -137.5 36.5t-60.5 100.5h108q24 -40 91 -40q64 0 90 40h108zM593 76q0 -78 -17.5 -131.5t-63.5 -92.5q-71 -59 -193 -59q-221 0 -275 168h147q39 -46 123 -46q37 0 66 9t47 26q24 23 28.5 50.5t4.5 65.5q-33 -32 -71 -49
t-90 -17q-54 0 -100.5 20.5t-81 56.5t-54 86t-19.5 110q0 62 20 112t53.5 85.5t78.5 55t96 19.5q50 0 90 -18.5t78 -53.5v58h133v-455zM322 423q-33 0 -59.5 -12t-45.5 -32.5t-29 -48t-10 -58.5q0 -33 11 -60.5t30.5 -47.5t46.5 -31t58 -11t57 10.5t45 30t30 47t11 61.5
q0 32 -10.5 60t-29 48.5t-45.5 32t-60 11.5z" />
    <glyph glyph-name="Gdotaccent" unicode="&#x120;" horiz-adv-x="840" 
d="M433 911q29 0 49 -20.5t20 -49.5t-20 -49.5t-49 -20.5t-49 20.5t-20 49.5t20 49.5t49 20.5zM796 365q0 -36 -3.5 -70t-12.5 -66t-26 -63.5t-44 -63.5q-53 -62 -119 -91t-152 -29q-90 0 -162 31t-122.5 83t-77.5 121.5t-27 145.5t28 143.5t79 118.5t122 80.5t156 29.5
q107 0 179.5 -35.5t130.5 -98.5l-96 -95q-46 48 -97.5 73t-115.5 25q-54 0 -99.5 -19.5t-78.5 -52.5t-51.5 -77t-18.5 -94q0 -52 20 -97.5t54.5 -79t81.5 -52.5t101 -19q140 0 197 122h-208v130h362z" />
    <glyph glyph-name="gdotaccent" unicode="&#x121;" horiz-adv-x="660" 
d="M308 768q29 0 49 -20.5t20 -49.5t-20 -49.5t-49 -20.5t-49 20.5t-20 49.5t20 49.5t49 20.5zM593 76q0 -78 -17.5 -131.5t-63.5 -92.5q-71 -59 -193 -59q-221 0 -275 168h147q39 -46 123 -46q37 0 66 9t47 26q24 23 28.5 50.5t4.5 65.5q-33 -32 -71 -49t-90 -17
q-54 0 -100.5 20.5t-81 56.5t-54 86t-19.5 110q0 62 20 112t53.5 85.5t78.5 55t96 19.5q50 0 90 -18.5t78 -53.5v58h133v-455zM322 423q-33 0 -59.5 -12t-45.5 -32.5t-29 -48t-10 -58.5q0 -33 11 -60.5t30.5 -47.5t46.5 -31t58 -11t57 10.5t45 30t30 47t11 61.5
q0 32 -10.5 60t-29 48.5t-45.5 32t-60 11.5z" />
    <glyph glyph-name="uni0122" unicode="&#x122;" horiz-adv-x="840" 
d="M796 365q0 -36 -3.5 -70t-12.5 -66t-26 -63.5t-44 -63.5q-53 -62 -119 -91t-152 -29q-90 0 -162 31t-122.5 83t-77.5 121.5t-27 145.5t28 143.5t79 118.5t122 80.5t156 29.5q107 0 179.5 -35.5t130.5 -98.5l-96 -95q-46 48 -97.5 73t-115.5 25q-54 0 -99.5 -19.5
t-78.5 -52.5t-51.5 -77t-18.5 -94q0 -52 20 -97.5t54.5 -79t81.5 -52.5t101 -19q140 0 197 122h-208v130h362zM383 -39q15 1 27 1.5t20 0.5q57 0 85.5 -25.5t28.5 -59.5q0 -37 -31.5 -66.5t-93.5 -29.5q-39 0 -95 17l17 64q37 -8 54 -8q52 0 52 35q0 28 -40 28
q-6 0 -15 -0.5t-22 -1.5z" />
    <glyph glyph-name="uni0123" unicode="&#x123;" horiz-adv-x="660" 
d="M232 662l101 152l57 -24l-78 -163zM593 76q0 -78 -17.5 -131.5t-63.5 -92.5q-71 -59 -193 -59q-221 0 -275 168h147q39 -46 123 -46q37 0 66 9t47 26q24 23 28.5 50.5t4.5 65.5q-33 -32 -71 -49t-90 -17q-54 0 -100.5 20.5t-81 56.5t-54 86t-19.5 110q0 62 20 112
t53.5 85.5t78.5 55t96 19.5q50 0 90 -18.5t78 -53.5v58h133v-455zM322 423q-33 0 -59.5 -12t-45.5 -32.5t-29 -48t-10 -58.5q0 -33 11 -60.5t30.5 -47.5t46.5 -31t58 -11t57 10.5t45 30t30 47t11 61.5q0 32 -10.5 60t-29 48.5t-45.5 32t-60 11.5z" />
    <glyph glyph-name="Hcircumflex" unicode="&#x124;" horiz-adv-x="680" 
d="M288 910h107l145 -138h-145l-53 63l-54 -63h-147zM220 718v-270h242v270h137v-718h-137v314h-242v-314h-137v718h137z" />
    <glyph glyph-name="hcircumflex" unicode="&#x125;" horiz-adv-x="600" 
d="M82 919h107l145 -138h-145l-53 63l-54 -63h-147zM201 736v-259q38 33 76 50.5t81 17.5q38 0 71 -12t57.5 -36.5t39 -61t14.5 -84.5v-351h-133v251q0 41 -3 72.5t-13 54t-28 34t-47 11.5q-28 0 -51 -13.5t-39 -38.5q-20 -32 -22.5 -67.5t-2.5 -77.5v-226h-133v736h133z
" />
    <glyph glyph-name="Hbar" unicode="&#x126;" horiz-adv-x="680" 
d="M460 631v87h138v-87h65v-80h-65v-551h-138v315h-240v-315h-138v551h-65v80h65v87h138v-87h240zM220 447h240v104h-240v-104z" />
    <glyph glyph-name="hbar" unicode="&#x127;" horiz-adv-x="600" 
d="M357 676v-80h-157v-118q74 67 158 67q40 0 73.5 -13t57.5 -37.5t37.5 -60.5t13.5 -83v-351h-133v233q0 84 -7 116q-6 35 -28 54.5t-56 19.5q-41 0 -70 -27q-29 -28 -38 -63q-8 -37 -8 -120v-213h-133v596h-67v80h67v60h133v-60h157z" />
    <glyph glyph-name="Itilde" unicode="&#x128;" horiz-adv-x="280" 
d="M8 794q0 46 12.5 72.5t32.5 36.5t45 5t49 -23q27 -20 39.5 -19t12.5 38h73q0 -45 -12.5 -71.5t-32.5 -37t-45 -5.5t-49 23q-27 20 -39.5 19t-12.5 -38h-73zM209 718v-718h-137v718h137z" />
    <glyph glyph-name="itilde" unicode="&#x129;" horiz-adv-x="240" 
d="M100 606q0 46 12.5 72.5t32.5 36.5t45 5t49 -23q27 -20 39.5 -19t12.5 38h73q0 -45 -12.5 -71.5t-32.5 -37t-45 -5.5t-49 23q-27 20 -39.5 19t-12.5 -38h-73zM187 531v-531h-133v531h133z" />
    <glyph glyph-name="Imacron" unicode="&#x12a;" horiz-adv-x="280" 
d="M2 879h278v-107h-278v107zM209 718v-718h-137v718h137z" />
    <glyph glyph-name="imacron" unicode="&#x12b;" horiz-adv-x="240" 
d="M-18 736h278v-107h-278v107zM187 531v-531h-133v531h133z" />
    <glyph glyph-name="Ibreve" unicode="&#x12c;" horiz-adv-x="280" 
d="M338 909q-9 -64 -60 -100.5t-139 -36.5q-87 0 -137.5 36.5t-60.5 100.5h108q24 -40 91 -40q64 0 90 40h108zM209 718v-718h-137v718h137z" />
    <glyph glyph-name="ibreve" unicode="&#x12d;" horiz-adv-x="240" 
d="M320 766q-9 -64 -60 -100.5t-139 -36.5q-87 0 -137.5 36.5t-60.5 100.5h108q24 -40 91 -40q64 0 90 40h108zM187 531v-531h-133v531h133z" />
    <glyph glyph-name="Iogonek" unicode="&#x12e;" horiz-adv-x="280" 
d="M209 718v-718h-29q-33 -20 -50.5 -38.5t-17.5 -41.5t15 -34t35 -11q12 0 23.5 3.5t19.5 8.5v-77q-14 -3 -30 -6t-33 -3q-60 0 -89.5 27t-29.5 66q0 32 23 59.5t64 46.5h-38v718h137z" />
    <glyph glyph-name="iogonek" unicode="&#x12f;" horiz-adv-x="240" 
d="M120 750q36 0 60.5 -26t24.5 -62q0 -35 -25 -60t-60 -25q-37 0 -61 27.5t-24 64.5q0 35 25 58t60 23zM187 531v-531h-32q-33 -20 -50.5 -38.5t-17.5 -41.5t15 -34t35 -11q12 0 23.5 3.5t19.5 8.5v-77q-14 -3 -30 -6t-33 -3q-60 0 -89.5 27t-29.5 66q0 32 23 59.5t64 46.5
h-31v531h133z" />
    <glyph glyph-name="Idotaccent" unicode="&#x130;" horiz-adv-x="280" 
d="M141 911q29 0 49 -20.5t20 -49.5t-20 -49.5t-49 -20.5t-49 20.5t-20 49.5t20 49.5t49 20.5zM209 718v-718h-137v718h137z" />
    <glyph glyph-name="dotlessi" unicode="&#x131;" horiz-adv-x="240" 
d="M187 531v-531h-133v531h133z" />
    <glyph glyph-name="IJ" unicode="&#x132;" horiz-adv-x="760" 
d="M209 718v-718h-137v718h137zM678 718v-501q0 -54 -7 -95.5t-31 -74.5q-48 -65 -140 -65q-57 0 -108.5 26t-93.5 78l98 92q25 -27 48.5 -44.5t52.5 -17.5q44 0 44 78v524h137z" />
    <glyph glyph-name="ij" unicode="&#x133;" horiz-adv-x="500" 
d="M120 750q36 0 60.5 -26t24.5 -62q0 -35 -25 -60t-60 -25q-37 0 -61 27.5t-24 64.5q0 35 25 58t60 23zM369 750q36 0 61 -26t25 -62q0 -35 -25 -60t-60 -25q-37 0 -61 27.5t-24 64.5q0 35 24.5 58t59.5 23zM187 531v-531h-133v531h133zM437 531v-563q0 -176 -140 -176
q-26 0 -51.5 6t-48.5 14v105q12 -6 26.5 -10.5t28.5 -4.5q29 0 40.5 18t11.5 53v558h133z" />
    <glyph glyph-name="Jcircumflex" unicode="&#x134;" horiz-adv-x="480" 
d="M273 910h107l145 -138h-145l-53 63l-54 -63h-147zM398 718v-501q0 -54 -7 -95.5t-31 -74.5q-48 -65 -140 -65q-57 0 -108.5 26t-93.5 78l98 92q25 -27 48.5 -44.5t52.5 -17.5q44 0 44 78v524h137z" />
    <glyph glyph-name="jcircumflex" unicode="&#x135;" horiz-adv-x="260" 
d="M77 767h107l145 -138h-145l-53 63l-54 -63h-147zM197 531v-563q0 -176 -140 -176q-26 0 -51.5 6t-48.5 14v105q12 -6 26.5 -10.5t28.5 -4.5q29 0 40.5 18t11.5 53v558h133z" />
    <glyph glyph-name="uni0136" unicode="&#x136;" horiz-adv-x="620" 
d="M221 718v-247l195 247h165l-252 -320l276 -398h-162l-222 319v-319h-137v718h137zM278 -39q15 1 27 1.5t20 0.5q57 0 85.5 -25.5t28.5 -59.5q0 -37 -31.5 -66.5t-93.5 -29.5q-39 0 -95 17l17 64q37 -8 54 -8q52 0 52 35q0 28 -40 28q-6 0 -15 -0.5t-22 -1.5z" />
    <glyph glyph-name="uni0137" unicode="&#x137;" horiz-adv-x="580" 
d="M201 736v-424l197 219h166l-228 -255l256 -276h-165l-226 245v-245h-133v736h133zM247 -39q15 1 27 1.5t20 0.5q57 0 85.5 -25.5t28.5 -59.5q0 -37 -31.5 -66.5t-93.5 -29.5q-39 0 -95 17l17 64q37 -8 54 -8q52 0 52 35q0 28 -40 28q-6 0 -15 -0.5t-22 -1.5z" />
    <glyph glyph-name="kgreenlandic" unicode="&#x138;" horiz-adv-x="580" 
d="M202 531v-219l196 219h167l-229 -255l257 -276h-166l-225 245v-245h-134v531h134z" />
    <glyph glyph-name="Lacute" unicode="&#x139;" horiz-adv-x="440" 
d="M395 963l-178 -191h-96l117 191h157zM219 718v-588h199v-130h-336v718h137z" />
    <glyph glyph-name="lacute" unicode="&#x13a;" horiz-adv-x="240" 
d="M308 975l-178 -191h-96l117 191h157zM187 736v-736h-133v736h133z" />
    <glyph glyph-name="uni013B" unicode="&#x13b;" horiz-adv-x="440" 
d="M219 718v-588h199v-130h-336v718h137zM194 -39q15 1 27 1.5t20 0.5q57 0 85.5 -25.5t28.5 -59.5q0 -37 -31.5 -66.5t-93.5 -29.5q-39 0 -95 17l17 64q37 -8 54 -8q52 0 52 35q0 28 -40 28q-6 0 -15 -0.5t-22 -1.5z" />
    <glyph glyph-name="uni013C" unicode="&#x13c;" horiz-adv-x="240" 
d="M187 736v-736h-133v736h133zM68 -39q15 1 27 1.5t20 0.5q57 0 85.5 -25.5t28.5 -59.5q0 -37 -31.5 -66.5t-93.5 -29.5q-39 0 -95 17l17 64q37 -8 54 -8q52 0 52 35q0 28 -40 28q-6 0 -15 -0.5t-22 -1.5z" />
    <glyph glyph-name="Lcaron" unicode="&#x13d;" horiz-adv-x="440" 
d="M406 736v-67q0 -33 -3.5 -60t-12 -51t-21.5 -47.5t-32 -48.5l-48 38q18 26 26.5 45.5t17.5 51.5h-50v139h123zM219 718v-588h199v-130h-336v718h137z" />
    <glyph glyph-name="lcaron" unicode="&#x13e;" horiz-adv-x="240" 
d="M187 736v-736h-134v736h134zM357 736v-67q0 -33 -3.5 -60t-12 -51t-21.5 -47.5t-32 -48.5l-48 38q18 26 26.5 45.5t17.5 51.5h-50v139h123z" />
    <glyph glyph-name="Ldot" unicode="&#x13f;" horiz-adv-x="440" 
d="M219 718v-588h199v-130h-336v718h137zM330 438q29 0 49.5 -20.5t20.5 -49.5t-20.5 -49.5t-49.5 -20.5t-49.5 20.5t-20.5 49.5t20.5 49.5t49.5 20.5z" />
    <glyph glyph-name="ldot" unicode="&#x140;" horiz-adv-x="347" 
d="M187 736v-736h-134v736h134zM291 438q29 0 49.5 -20.5t20.5 -49.5t-20.5 -49.5t-49.5 -20.5t-49.5 20.5t-20.5 49.5t20.5 49.5t49.5 20.5z" />
    <glyph glyph-name="Lslash" unicode="&#x141;" horiz-adv-x="480" 
d="M348 614v-125l-109 -128v-231h199v-130h-336v201l-82 -96v125l82 96v392h137v-232z" />
    <glyph glyph-name="lslash" unicode="&#x142;" horiz-adv-x="320" 
d="M280 563v-122l-53 -59v-382h-133v233l-54 -59v120l54 59v383h133v-233z" />
    <glyph glyph-name="Nacute" unicode="&#x143;" horiz-adv-x="740" 
d="M583 963l-178 -191h-96l117 191h157zM213 718l308 -472v472h137v-718h-132l-307 471v-471h-137v718h131z" />
    <glyph glyph-name="nacute" unicode="&#x144;" horiz-adv-x="600" 
d="M512 820l-178 -191h-96l117 191h157zM200 477q38 32 75 50t82 18q37 0 70 -12.5t58 -36t39.5 -57t14.5 -76.5v-363h-133v251q0 39 -2.5 71t-12 54.5t-27.5 34.5t-48 12q-58 0 -90 -51q-20 -32 -23 -68t-3 -78v-226h-133v531h133v-54z" />
    <glyph glyph-name="uni0145" unicode="&#x145;" horiz-adv-x="740" 
d="M213 718l308 -472v472h137v-718h-132l-307 471v-471h-137v718h131zM321 -39q15 1 27 1.5t20 0.5q57 0 85.5 -25.5t28.5 -59.5q0 -37 -31.5 -66.5t-93.5 -29.5q-39 0 -95 17l17 64q37 -8 54 -8q52 0 52 35q0 28 -40 28q-6 0 -15 -0.5t-22 -1.5z" />
    <glyph glyph-name="uni0146" unicode="&#x146;" horiz-adv-x="600" 
d="M200 477q38 32 75 50t82 18q37 0 70 -12.5t58 -36t39.5 -57t14.5 -76.5v-363h-133v251q0 39 -2.5 71t-12 54.5t-27.5 34.5t-48 12q-58 0 -90 -51q-20 -32 -23 -68t-3 -78v-226h-133v531h133v-54zM254 -39q15 1 27 1.5t20 0.5q57 0 85.5 -25.5t28.5 -59.5
q0 -37 -31.5 -66.5t-93.5 -29.5q-39 0 -95 17l17 64q37 -8 54 -8q52 0 52 35q0 28 -40 28q-6 0 -15 -0.5t-22 -1.5z" />
    <glyph glyph-name="Ncaron" unicode="&#x147;" horiz-adv-x="740" 
d="M321 910l54 -65l53 65h145l-145 -138h-107l-147 138h147zM213 718l308 -472v472h137v-718h-132l-307 471v-471h-137v718h131z" />
    <glyph glyph-name="ncaron" unicode="&#x148;" horiz-adv-x="600" 
d="M259 767l54 -65l53 65h145l-145 -138h-107l-147 138h147zM200 477q38 32 75 50t82 18q37 0 70 -12.5t58 -36t39.5 -57t14.5 -76.5v-363h-133v251q0 39 -2.5 71t-12 54.5t-27.5 34.5t-48 12q-58 0 -90 -51q-20 -32 -23 -68t-3 -78v-226h-133v531h133v-54z" />
    <glyph glyph-name="napostrophe" unicode="&#x149;" horiz-adv-x="643" 
d="M98 736v-67q0 -33 -4 -60t-12 -51t-21.5 -47.5t-31.5 -48.5l-48 38q18 26 26.5 45.5t16.5 51.5h-49v139h123zM243 531v-54q46 38 82.5 53t75.5 15q79 0 134 -55q47 -47 47 -139v-351h-132v233q0 95 -9 126q-8 32 -29.5 48t-52.5 16q-42 0 -70.5 -27t-39.5 -75
q-6 -25 -6 -108v-213h-133v531h133z" />
    <glyph glyph-name="Eng" unicode="&#x14a;" horiz-adv-x="792" 
d="M220 642q85 94 205 94q134 0 227 -106q93 -105 93 -272q0 -163 -70 -269q-71 -107 -199 -107q-63 0 -108 23t-88 81l97 91q47 -63 96 -63q62 0 98 68t36 167q0 62 -14.5 109.5t-40 80t-61 49.5t-77.5 17q-103 0 -194 -130v-475h-138v718h138v-76z" />
    <glyph glyph-name="eng" unicode="&#x14b;" horiz-adv-x="600" 
d="M540 -18q0 -117 -41 -153q-40 -37 -99 -37q-40 0 -100 20v105q32 -15 55 -15q24 0 37.5 14t13.5 57v262q0 83 -6 116q-5 33 -27.5 52.5t-57.5 19.5q-40 0 -69 -27q-29 -28 -38 -64q-8 -38 -8 -119v-213h-133v531h133v-54q79 68 158 68q40 0 73.5 -13t57.5 -38t37.5 -61
t13.5 -82v-369z" />
    <glyph glyph-name="Omacron" unicode="&#x14c;" horiz-adv-x="840" 
d="M291 879h278v-107h-278v107zM421 736q74 0 141.5 -28.5t119 -79t82 -120t30.5 -151.5q0 -79 -29 -147.5t-79 -118.5t-118 -79t-145 -29q-80 0 -148.5 29.5t-119 80.5t-79.5 120t-29 147q0 80 30 148.5t81 119t119 79.5t144 29zM420 605q-48 0 -91 -18t-75 -50.5
t-50.5 -78t-18.5 -101.5q0 -55 19 -99.5t51.5 -76.5t75.5 -49.5t91 -17.5q49 0 91.5 19t74 52t50 77.5t18.5 95.5q0 50 -17.5 94.5t-49 78.5t-75 54t-94.5 20z" />
    <glyph glyph-name="omacron" unicode="&#x14d;" 
d="M180 736h278v-107h-278v107zM317 545q58 0 109.5 -21.5t89.5 -59t60.5 -88.5t22.5 -110q0 -58 -21 -109t-58.5 -89t-89 -60t-112.5 -22q-58 0 -108 21.5t-87.5 59.5t-59 89t-21.5 109q0 60 22.5 111.5t60.5 89t88 58.5t104 21zM319 419q-31 0 -57.5 -11.5t-45.5 -32
t-29.5 -48.5t-10.5 -61q0 -34 10.5 -62t29 -48.5t45 -32t58.5 -11.5q31 0 57.5 11t46 31t31 48t11.5 63q0 34 -10.5 62t-30 48.5t-46 32t-59.5 11.5z" />
    <glyph glyph-name="Obreve" unicode="&#x14e;" horiz-adv-x="840" 
d="M626 909q-9 -64 -60 -100.5t-139 -36.5q-87 0 -137.5 36.5t-60.5 100.5h108q24 -40 91 -40q64 0 90 40h108zM421 736q74 0 141.5 -28.5t119 -79t82 -120t30.5 -151.5q0 -79 -29 -147.5t-79 -118.5t-118 -79t-145 -29q-80 0 -148.5 29.5t-119 80.5t-79.5 120t-29 147
q0 80 30 148.5t81 119t119 79.5t144 29zM420 605q-48 0 -91 -18t-75 -50.5t-50.5 -78t-18.5 -101.5q0 -55 19 -99.5t51.5 -76.5t75.5 -49.5t91 -17.5q49 0 91.5 19t74 52t50 77.5t18.5 95.5q0 50 -17.5 94.5t-49 78.5t-75 54t-94.5 20z" />
    <glyph glyph-name="obreve" unicode="&#x14f;" 
d="M516 766q-9 -64 -60 -100.5t-139 -36.5q-87 0 -137.5 36.5t-60.5 100.5h108q24 -40 91 -40q64 0 90 40h108zM317 545q58 0 109.5 -21.5t89.5 -59t60.5 -88.5t22.5 -110q0 -58 -21 -109t-58.5 -89t-89 -60t-112.5 -22q-58 0 -108 21.5t-87.5 59.5t-59 89t-21.5 109
q0 60 22.5 111.5t60.5 89t88 58.5t104 21zM319 419q-31 0 -57.5 -11.5t-45.5 -32t-29.5 -48.5t-10.5 -61q0 -34 10.5 -62t29 -48.5t45 -32t58.5 -11.5q31 0 57.5 11t46 31t31 48t11.5 63q0 34 -10.5 62t-30 48.5t-46 32t-59.5 11.5z" />
    <glyph glyph-name="Ohungarumlaut" unicode="&#x150;" horiz-adv-x="840" 
d="M515 963l-178 -191h-96l117 191h157zM733 963l-178 -191h-96l117 191h157zM421 736q74 0 141.5 -28.5t119 -79t82 -120t30.5 -151.5q0 -79 -29 -147.5t-79 -118.5t-118 -79t-145 -29q-80 0 -148.5 29.5t-119 80.5t-79.5 120t-29 147q0 80 30 148.5t81 119t119 79.5
t144 29zM420 605q-48 0 -91 -18t-75 -50.5t-50.5 -78t-18.5 -101.5q0 -55 19 -99.5t51.5 -76.5t75.5 -49.5t91 -17.5q49 0 91.5 19t74 52t50 77.5t18.5 95.5q0 50 -17.5 94.5t-49 78.5t-75 54t-94.5 20z" />
    <glyph glyph-name="ohungarumlaut" unicode="&#x151;" 
d="M420 820l-178 -191h-96l117 191h157zM638 820l-178 -191h-96l117 191h157zM317 545q58 0 109.5 -21.5t89.5 -59t60.5 -88.5t22.5 -110q0 -58 -21 -109t-58.5 -89t-89 -60t-112.5 -22q-58 0 -108 21.5t-87.5 59.5t-59 89t-21.5 109q0 60 22.5 111.5t60.5 89t88 58.5
t104 21zM319 419q-31 0 -57.5 -11.5t-45.5 -32t-29.5 -48.5t-10.5 -61q0 -34 10.5 -62t29 -48.5t45 -32t58.5 -11.5q31 0 57.5 11t46 31t31 48t11.5 63q0 34 -10.5 62t-30 48.5t-46 32t-59.5 11.5z" />
    <glyph glyph-name="OE" unicode="&#x152;" horiz-adv-x="1060" 
d="M637 66q-94 -84 -227 -84q-80 0 -147 29t-115 80t-75 119.5t-27 147.5q0 82 29 151.5t78.5 119.5t116.5 78.5t142 28.5q64 0 119 -20t106 -62v64h380v-134h-241v-130h241v-130h-241v-190h241v-134h-380v66zM408 605q-45 0 -85.5 -18t-71 -50.5t-49 -77.5t-18.5 -99
q0 -56 18.5 -101.5t50 -78t74 -50t90.5 -17.5q47 0 87.5 18.5t70 51t46.5 77t17 95.5q0 56 -18.5 102t-50 79t-73 51t-88.5 18z" />
    <glyph glyph-name="oe" unicode="&#x153;" horiz-adv-x="1080" 
d="M758 545q140 0 217 -95q38 -47 52.5 -101.5t13.5 -123.5h-431q4 -29 17.5 -52t33.5 -39t45 -24.5t53 -8.5q41 0 70.5 12t58.5 38l116 -52q-45 -57 -103 -85t-135 -28q-146 0 -224 102q-83 -102 -224 -102q-59 0 -110 22.5t-88.5 60.5t-58.5 88t-21 104q0 62 22.5 114
t61.5 90t90.5 59.5t108.5 21.5q68 0 124.5 -26.5t94.5 -77.5q84 103 216 103zM908 330q-16 51 -54.5 75.5t-90.5 24.5q-51 0 -92.5 -26t-55.5 -74h293zM325 424q-33 0 -60.5 -12t-48 -33t-31.5 -51t-11 -66q0 -32 10.5 -60t29.5 -49t45.5 -33t58.5 -12q72 0 114 43.5
t42 112.5q0 36 -11.5 65.5t-32 50.5t-47.5 32.5t-58 11.5z" />
    <glyph glyph-name="Racute" unicode="&#x154;" horiz-adv-x="580" 
d="M468 963l-178 -191h-96l117 191h157zM258 718q69 0 118 -11.5t85 -46.5q27 -26 42.5 -65t15.5 -85q0 -141 -138 -191l170 -319h-149l-161 304h-13v-304h-137v718h167zM291 437q94 0 94 74q0 73 -98 73h-59v-147h63z" />
    <glyph glyph-name="racute" unicode="&#x155;" horiz-adv-x="320" 
d="M343 820l-178 -191h-96l117 191h157zM151 464q19 42 49 61.5t63 19.5q21 0 34.5 -4.5t23.5 -9.5l-41 -114q-8 4 -18 7.5t-21 3.5q-29 0 -49 -31.5t-22 -90.5q-1 -22 -1 -45.5v-45.5v-215h-133v531h115v-67z" />
    <glyph glyph-name="uni0156" unicode="&#x156;" horiz-adv-x="580" 
d="M258 718q69 0 118 -11.5t85 -46.5q27 -26 42.5 -65t15.5 -85q0 -141 -138 -191l170 -319h-149l-161 304h-13v-304h-137v718h167zM291 437q94 0 94 74q0 73 -98 73h-59v-147h63zM252 -39q15 1 27 1.5t20 0.5q57 0 85.5 -25.5t28.5 -59.5q0 -37 -31.5 -66.5t-93.5 -29.5
q-39 0 -95 17l17 64q37 -8 54 -8q52 0 52 35q0 28 -40 28q-6 0 -15 -0.5t-22 -1.5z" />
    <glyph glyph-name="uni0157" unicode="&#x157;" horiz-adv-x="320" 
d="M151 464q19 42 49 61.5t63 19.5q21 0 34.5 -4.5t23.5 -9.5l-41 -114q-8 4 -18 7.5t-21 3.5q-29 0 -49 -31.5t-22 -90.5q-1 -22 -1 -45.5v-45.5v-215h-133v531h115v-67zM56 -39q15 1 27 1.5t20 0.5q57 0 85.5 -25.5t28.5 -59.5q0 -37 -31.5 -66.5t-93.5 -29.5
q-39 0 -95 17l17 64q37 -8 54 -8q52 0 52 35q0 28 -40 28q-6 0 -15 -0.5t-22 -1.5z" />
    <glyph glyph-name="Rcaron" unicode="&#x158;" horiz-adv-x="580" 
d="M218 910l54 -65l53 65h145l-145 -138h-107l-147 138h147zM258 718q69 0 118 -11.5t85 -46.5q27 -26 42.5 -65t15.5 -85q0 -141 -138 -191l170 -319h-149l-161 304h-13v-304h-137v718h167zM291 437q94 0 94 74q0 73 -98 73h-59v-147h63z" />
    <glyph glyph-name="rcaron" unicode="&#x159;" horiz-adv-x="320" 
d="M98 767l54 -65l53 65h145l-145 -138h-107l-147 138h147zM151 464q19 42 49 61.5t63 19.5q21 0 34.5 -4.5t23.5 -9.5l-41 -114q-8 4 -18 7.5t-21 3.5q-29 0 -49 -31.5t-22 -90.5q-1 -22 -1 -45.5v-45.5v-215h-133v531h115v-67z" />
    <glyph glyph-name="Sacute" unicode="&#x15a;" horiz-adv-x="520" 
d="M424 963l-178 -191h-96l117 191h157zM135 207q25 -47 54 -70.5t65 -23.5q35 0 59 19.5t24 47.5q0 20 -12 41t-34 39q-56 47 -100 84.5t-74.5 71.5t-46.5 67.5t-16 71.5t15.5 71t42.5 57.5t63 38.5t76 14q68 0 116.5 -32.5t91.5 -82.5l-102 -90q-26 36 -52.5 55t-55.5 19
q-27 0 -44 -14t-17 -36q0 -21 13 -35.5t29 -28.5q50 -44 94 -79t76.5 -68.5t51.5 -71t19 -86.5q0 -45 -16 -82.5t-45 -64.5t-69.5 -42t-89.5 -15q-79 0 -135 38.5t-96 117.5z" />
    <glyph glyph-name="sacute" unicode="&#x15b;" horiz-adv-x="440" 
d="M397 820l-178 -191h-96l117 191h157zM173 230q-64 32 -96 71.5t-32 90.5q0 31 12.5 59t35 49t54.5 33t70 12q52 0 97.5 -22.5t77.5 -65.5l-82 -83q-23 23 -45.5 36t-46.5 13q-20 0 -34 -8t-14 -24q0 -15 13 -24t35 -20l49 -25q66 -34 100.5 -72t34.5 -98q0 -36 -13.5 -66
t-38.5 -52.5t-60 -35t-79 -12.5q-116 0 -186 91l82 90q23 -27 54 -44.5t57 -17.5q25 0 42 12.5t17 30.5q0 17 -15.5 31t-43.5 28z" />
    <glyph glyph-name="Scircumflex" unicode="&#x15c;" horiz-adv-x="520" 
d="M195 910h107l145 -138h-145l-53 63l-54 -63h-147zM135 207q25 -47 54 -70.5t65 -23.5q35 0 59 19.5t24 47.5q0 20 -12 41t-34 39q-56 47 -100 84.5t-74.5 71.5t-46.5 67.5t-16 71.5t15.5 71t42.5 57.5t63 38.5t76 14q68 0 116.5 -32.5t91.5 -82.5l-102 -90
q-26 36 -52.5 55t-55.5 19q-27 0 -44 -14t-17 -36q0 -21 13 -35.5t29 -28.5q50 -44 94 -79t76.5 -68.5t51.5 -71t19 -86.5q0 -45 -16 -82.5t-45 -64.5t-69.5 -42t-89.5 -15q-79 0 -135 38.5t-96 117.5z" />
    <glyph glyph-name="scircumflex" unicode="&#x15d;" horiz-adv-x="440" 
d="M165 767h107l145 -138h-145l-53 63l-54 -63h-147zM173 230q-64 32 -96 71.5t-32 90.5q0 31 12.5 59t35 49t54.5 33t70 12q52 0 97.5 -22.5t77.5 -65.5l-82 -83q-23 23 -45.5 36t-46.5 13q-20 0 -34 -8t-14 -24q0 -15 13 -24t35 -20l49 -25q66 -34 100.5 -72t34.5 -98
q0 -36 -13.5 -66t-38.5 -52.5t-60 -35t-79 -12.5q-116 0 -186 91l82 90q23 -27 54 -44.5t57 -17.5q25 0 42 12.5t17 30.5q0 17 -15.5 31t-43.5 28z" />
    <glyph glyph-name="uni015E" unicode="&#x15e;" horiz-adv-x="520" 
d="M206 -14q-120 19 -186 152l115 69q25 -47 54 -70.5t65 -23.5q35 0 59 19.5t24 47.5q0 20 -12 41t-34 39q-56 47 -100 84.5t-74.5 71.5t-46.5 67.5t-16 71.5t15.5 71t42.5 57.5t63 38.5t76 14q68 0 116.5 -32.5t91.5 -82.5l-102 -90q-26 36 -52.5 55t-55.5 19
q-27 0 -44 -14t-17 -36q0 -21 13 -35.5t29 -28.5q50 -44 94 -79t76.5 -68.5t51.5 -71t19 -86.5q0 -81 -49.5 -135.5t-131.5 -65.5q33 -8 51.5 -29t18.5 -46q0 -37 -32 -66.5t-94 -29.5q-34 0 -59.5 7t-48.5 15l18 64q16 -5 33 -8.5t35 -3.5q23 0 36.5 9t13.5 26q0 15 -11 21
t-30 6h-12.5t-12.5 -1z" />
    <glyph glyph-name="uni015F" unicode="&#x15f;" horiz-adv-x="440" 
d="M172 -11q-91 14 -147 88l82 90q23 -27 54 -44.5t57 -17.5q25 0 42 12.5t17 30.5q0 17 -15.5 31t-43.5 28l-45 23q-64 32 -96 71.5t-32 90.5q0 31 12.5 59t35 49t54.5 33t70 12q52 0 97.5 -22.5t77.5 -65.5l-82 -83q-23 23 -45.5 36t-46.5 13q-20 0 -34 -8t-14 -24
q0 -15 13 -24t35 -20l49 -25q66 -34 100.5 -72t34.5 -98q0 -62 -39 -106.5t-108 -55.5l-1 -5q34 -8 52.5 -29t18.5 -46q0 -37 -32 -66.5t-94 -29.5q-34 0 -59.5 7t-48.5 15l18 64q16 -5 33 -8.5t35 -3.5q23 0 36.5 9t13.5 26q0 15 -11 21t-30 6h-12.5t-12.5 -1z" />
    <glyph glyph-name="Scaron" unicode="&#x160;" horiz-adv-x="520" 
d="M209 910l54 -65l53 65h145l-145 -138h-107l-147 138h147zM135 207q25 -47 54 -70.5t65 -23.5q35 0 59 19.5t24 47.5q0 20 -12 41t-34 39q-56 47 -100 84.5t-74.5 71.5t-46.5 67.5t-16 71.5t15.5 71t42.5 57.5t63 38.5t76 14q68 0 116.5 -32.5t91.5 -82.5l-102 -90
q-26 36 -52.5 55t-55.5 19q-27 0 -44 -14t-17 -36q0 -21 13 -35.5t29 -28.5q50 -44 94 -79t76.5 -68.5t51.5 -71t19 -86.5q0 -45 -16 -82.5t-45 -64.5t-69.5 -42t-89.5 -15q-79 0 -135 38.5t-96 117.5z" />
    <glyph glyph-name="scaron" unicode="&#x161;" horiz-adv-x="440" 
d="M169 767l54 -65l53 65h145l-145 -138h-107l-147 138h147zM173 230q-64 32 -96 71.5t-32 90.5q0 31 12.5 59t35 49t54.5 33t70 12q52 0 97.5 -22.5t77.5 -65.5l-82 -83q-23 23 -45.5 36t-46.5 13q-20 0 -34 -8t-14 -24q0 -15 13 -24t35 -20l49 -25q66 -34 100.5 -72
t34.5 -98q0 -36 -13.5 -66t-38.5 -52.5t-60 -35t-79 -12.5q-116 0 -186 91l82 90q23 -27 54 -44.5t57 -17.5q25 0 42 12.5t17 30.5q0 17 -15.5 31t-43.5 28z" />
    <glyph glyph-name="uni0162" unicode="&#x162;" horiz-adv-x="420" 
d="M408 718v-134h-132v-584h-137v584h-128v134h397zM158 -39q15 1 27 1.5t20 0.5q57 0 85.5 -25.5t28.5 -59.5q0 -37 -31.5 -66.5t-93.5 -29.5q-39 0 -95 17l17 64q37 -8 54 -8q52 0 52 35q0 28 -40 28q-6 0 -15 -0.5t-22 -1.5z" />
    <glyph glyph-name="uni0163" unicode="&#x163;" horiz-adv-x="300" 
d="M216 727v-196h79v-114h-79v-417h-133v417h-68v114h68v196h133zM93 -39q15 1 27 1.5t20 0.5q57 0 85.5 -25.5t28.5 -59.5q0 -37 -31.5 -66.5t-93.5 -29.5q-39 0 -95 17l17 64q37 -8 54 -8q52 0 52 35q0 28 -40 28q-6 0 -15 -0.5t-22 -1.5z" />
    <glyph glyph-name="Tcaron" unicode="&#x164;" horiz-adv-x="420" 
d="M160 910l54 -65l53 65h145l-145 -138h-107l-147 138h147zM408 718v-134h-132v-584h-137v584h-128v134h397z" />
    <glyph glyph-name="tcaron" unicode="&#x165;" horiz-adv-x="300" 
d="M390 736v-24q0 -97 -56 -165l-39 30q31 39 36 77h-40v82h99zM216 727v-196h79v-114h-79v-417h-133v417h-68v114h68v196h133z" />
    <glyph glyph-name="Tbar" unicode="&#x166;" horiz-adv-x="420" 
d="M385 387v-80h-106v-307h-138v307h-106v80h106v196h-130v135h397v-135h-129v-196h106z" />
    <glyph glyph-name="tbar" unicode="&#x167;" horiz-adv-x="300" 
d="M307 301v-80h-91v-221h-133v221h-80v80h80v116h-68v114h68v196h133v-196h79v-114h-79v-116h91z" />
    <glyph glyph-name="Utilde" unicode="&#x168;" 
d="M188 794q0 46 12.5 72.5t32.5 36.5t45 5t49 -23q27 -20 39.5 -19t12.5 38h73q0 -45 -12.5 -71.5t-32.5 -37t-45 -5.5t-49 23q-27 20 -39.5 19t-12.5 -38h-73zM214 718v-486q0 -59 27 -88.5t77 -29.5q29 0 53.5 11.5t37.5 31.5q11 17 14 41t3 53v467h137v-457
q0 -30 -1.5 -56t-7.5 -51t-17.5 -48t-31.5 -47q-35 -40 -80 -58t-104 -18q-56 0 -100 16.5t-78 51.5q-22 23 -35 46.5t-20 50t-9 56.5t-2 65v449h137z" />
    <glyph glyph-name="utilde" unicode="&#x169;" horiz-adv-x="600" 
d="M168 606q0 46 12.5 72.5t32.5 36.5t45 5t49 -23q27 -20 39.5 -19t12.5 38h73q0 -45 -12.5 -71.5t-32.5 -37t-45 -5.5t-49 23q-27 20 -39.5 19t-12.5 -38h-73zM201 531v-277q0 -72 23.5 -108.5t76.5 -36.5q54 0 77 35.5t23 103.5v283h133v-245q0 -37 -2 -69t-8 -60.5
t-18.5 -54t-33.5 -48.5q-32 -35 -73.5 -51t-97.5 -16q-97 0 -154.5 47.5t-73.5 141.5q-5 32 -5 55.5v56.5v243h133z" />
    <glyph glyph-name="Umacron" unicode="&#x16a;" 
d="M185 879h278v-107h-278v107zM214 718v-486q0 -59 27 -88.5t77 -29.5q29 0 53.5 11.5t37.5 31.5q11 17 14 41t3 53v467h137v-457q0 -30 -1.5 -56t-7.5 -51t-17.5 -48t-31.5 -47q-35 -40 -80 -58t-104 -18q-56 0 -100 16.5t-78 51.5q-22 23 -35 46.5t-20 50t-9 56.5t-2 65
v449h137z" />
    <glyph glyph-name="umacron" unicode="&#x16b;" horiz-adv-x="600" 
d="M165 736h278v-107h-278v107zM201 531v-277q0 -72 23.5 -108.5t76.5 -36.5q54 0 77 35.5t23 103.5v283h133v-245q0 -37 -2 -69t-8 -60.5t-18.5 -54t-33.5 -48.5q-32 -35 -73.5 -51t-97.5 -16q-97 0 -154.5 47.5t-73.5 141.5q-5 32 -5 55.5v56.5v243h133z" />
    <glyph glyph-name="Ubreve" unicode="&#x16c;" 
d="M521 909q-9 -64 -60 -100.5t-139 -36.5q-87 0 -137.5 36.5t-60.5 100.5h108q24 -40 91 -40q64 0 90 40h108zM214 718v-486q0 -59 27 -88.5t77 -29.5q29 0 53.5 11.5t37.5 31.5q11 17 14 41t3 53v467h137v-457q0 -30 -1.5 -56t-7.5 -51t-17.5 -48t-31.5 -47
q-35 -40 -80 -58t-104 -18q-56 0 -100 16.5t-78 51.5q-22 23 -35 46.5t-20 50t-9 56.5t-2 65v449h137z" />
    <glyph glyph-name="ubreve" unicode="&#x16d;" horiz-adv-x="600" 
d="M500 766q-9 -64 -60 -100.5t-139 -36.5q-87 0 -137.5 36.5t-60.5 100.5h108q24 -40 91 -40q64 0 90 40h108zM201 531v-277q0 -72 23.5 -108.5t76.5 -36.5q54 0 77 35.5t23 103.5v283h133v-245q0 -37 -2 -69t-8 -60.5t-18.5 -54t-33.5 -48.5q-32 -35 -73.5 -51t-97.5 -16
q-97 0 -154.5 47.5t-73.5 141.5q-5 32 -5 55.5v56.5v243h133z" />
    <glyph glyph-name="Uring" unicode="&#x16e;" 
d="M319 986q23 0 42.5 -8.5t33.5 -23t22.5 -34t8.5 -41.5t-8.5 -42t-23 -34t-34 -22.5t-41.5 -8.5t-41.5 8.5t-34 22.5t-23 34t-8.5 42t8.5 41.5t22.5 34t34 23t42 8.5zM319 921q-17 0 -29.5 -12t-12.5 -30q0 -19 12.5 -30.5t29.5 -11.5t29.5 11.5t12.5 30.5q0 18 -12.5 30
t-29.5 12zM214 718v-486q0 -59 27 -88.5t77 -29.5q29 0 53.5 11.5t37.5 31.5q11 17 14 41t3 53v467h137v-457q0 -30 -1.5 -56t-7.5 -51t-17.5 -48t-31.5 -47q-35 -40 -80 -58t-104 -18q-56 0 -100 16.5t-78 51.5q-22 23 -35 46.5t-20 50t-9 56.5t-2 65v449h137z" />
    <glyph glyph-name="uring" unicode="&#x16f;" horiz-adv-x="600" 
d="M300 843q23 0 42.5 -8.5t33.5 -23t22.5 -34t8.5 -41.5t-8.5 -42t-23 -34t-34 -22.5t-41.5 -8.5t-41.5 8.5t-34 22.5t-23 34t-8.5 42t8.5 41.5t22.5 34t34 23t42 8.5zM300 778q-17 0 -29.5 -12t-12.5 -30q0 -19 12.5 -30.5t29.5 -11.5t29.5 11.5t12.5 30.5q0 18 -12.5 30
t-29.5 12zM201 531v-277q0 -72 23.5 -108.5t76.5 -36.5q54 0 77 35.5t23 103.5v283h133v-245q0 -37 -2 -69t-8 -60.5t-18.5 -54t-33.5 -48.5q-32 -35 -73.5 -51t-97.5 -16q-97 0 -154.5 47.5t-73.5 141.5q-5 32 -5 55.5v56.5v243h133z" />
    <glyph glyph-name="Uhungarumlaut" unicode="&#x170;" 
d="M416 963l-178 -191h-96l117 191h157zM634 963l-178 -191h-96l117 191h157zM214 718v-486q0 -59 27 -88.5t77 -29.5q29 0 53.5 11.5t37.5 31.5q11 17 14 41t3 53v467h137v-457q0 -30 -1.5 -56t-7.5 -51t-17.5 -48t-31.5 -47q-35 -40 -80 -58t-104 -18q-56 0 -100 16.5
t-78 51.5q-22 23 -35 46.5t-20 50t-9 56.5t-2 65v449h137z" />
    <glyph glyph-name="uhungarumlaut" unicode="&#x171;" horiz-adv-x="600" 
d="M386 820l-178 -191h-96l117 191h157zM604 820l-178 -191h-96l117 191h157zM201 531v-277q0 -72 23.5 -108.5t76.5 -36.5q54 0 77 35.5t23 103.5v283h133v-245q0 -37 -2 -69t-8 -60.5t-18.5 -54t-33.5 -48.5q-32 -35 -73.5 -51t-97.5 -16q-97 0 -154.5 47.5t-73.5 141.5
q-5 32 -5 55.5v56.5v243h133z" />
    <glyph glyph-name="Uogonek" unicode="&#x172;" 
d="M411 -190q-14 -3 -30 -6t-33 -3q-60 0 -89.5 27t-29.5 66q0 26 15 49.5t43 41.5q-89 8 -144 66q-22 23 -35 46.5t-20 50t-9 56.5t-2 65v449h137v-486q0 -59 27 -88.5t77 -29.5q29 0 53.5 11.5t37.5 31.5q11 17 14 41t3 53v467h137v-457q0 -30 -1.5 -56t-7.5 -51
t-17.5 -48t-31.5 -47q-55 -63 -142 -73q-23 -16 -34 -31.5t-11 -34.5q0 -23 15 -34t35 -11q12 0 23.5 3.5t19.5 8.5v-77z" />
    <glyph glyph-name="uogonek" unicode="&#x173;" horiz-adv-x="600" 
d="M410 -190q-14 -3 -30 -6t-33 -3q-60 0 -89.5 27t-29.5 66q0 26 16.5 50.5t45.5 42.5q-92 3 -147 50.5t-70 138.5q-5 32 -5 55.5v56.5v243h133v-277q0 -72 23.5 -108.5t76.5 -36.5q54 0 77 35.5t23 103.5v283h133v-245q0 -37 -2 -69t-8 -60.5t-18.5 -54t-33.5 -48.5
q-39 -43 -93 -57q-30 -19 -46 -37t-16 -40q0 -23 15 -34t35 -11q12 0 23.5 3.5t19.5 8.5v-77z" />
    <glyph glyph-name="Wcircumflex" unicode="&#x174;" horiz-adv-x="900" 
d="M398 910h107l145 -138h-145l-53 63l-54 -63h-147zM162 718l103 -458l129 458h114l130 -458l102 458h135l-162 -718h-131l-133 464l-129 -464h-130l-163 718h135z" />
    <glyph glyph-name="wcircumflex" unicode="&#x175;" horiz-adv-x="800" 
d="M349 767h107l145 -138h-145l-53 63l-54 -63h-147zM139 531l106 -302l115 302h80l113 -298l107 298h131l-193 -531h-85l-113 303l-117 -303h-83l-192 531h131z" />
    <glyph glyph-name="Ycircumflex" unicode="&#x176;" horiz-adv-x="620" 
d="M263 910h107l145 -138h-145l-53 63l-54 -63h-147zM178 718l134 -257l132 257h146l-210 -407v-311h-137v311l-212 407h147z" />
    <glyph glyph-name="ycircumflex" unicode="&#x177;" horiz-adv-x="580" 
d="M245 767h107l145 -138h-145l-53 63l-54 -63h-147zM145 531l138 -333l153 333h137l-334 -725h-137l109 234l-202 491h136z" />
    <glyph glyph-name="Ydieresis" unicode="&#x178;" horiz-adv-x="620" 
d="M202 911q29 0 49 -20.5t20 -49.5t-20 -49.5t-49 -20.5t-49 20.5t-20 49.5t20 49.5t49 20.5zM418 911q29 0 49 -20.5t20 -49.5t-20 -49.5t-49 -20.5t-49 20.5t-20 49.5t20 49.5t49 20.5zM178 718l134 -257l132 257h146l-210 -407v-311h-137v311l-212 407h147z" />
    <glyph glyph-name="Zacute" unicode="&#x179;" horiz-adv-x="500" 
d="M444 963l-178 -191h-96l117 191h157zM478 718l-256 -588h240v-130h-439l255 584h-234v134h434z" />
    <glyph glyph-name="zacute" unicode="&#x17a;" horiz-adv-x="460" 
d="M446 820l-178 -191h-96l117 191h157zM452 531l-239 -418h226v-113h-431l240 418h-203v113h407z" />
    <glyph glyph-name="Zdotaccent" unicode="&#x17b;" horiz-adv-x="500" 
d="M261 911q29 0 49 -20.5t20 -49.5t-20 -49.5t-49 -20.5t-49 20.5t-20 49.5t20 49.5t49 20.5zM478 718l-256 -588h240v-130h-439l255 584h-234v134h434z" />
    <glyph glyph-name="zdotaccent" unicode="&#x17c;" horiz-adv-x="460" 
d="M249 768q29 0 49 -20.5t20 -49.5t-20 -49.5t-49 -20.5t-49 20.5t-20 49.5t20 49.5t49 20.5zM452 531l-239 -418h226v-113h-431l240 418h-203v113h407z" />
    <glyph glyph-name="Zcaron" unicode="&#x17d;" horiz-adv-x="500" 
d="M199 910l54 -65l53 65h145l-145 -138h-107l-147 138h147zM478 718l-256 -588h240v-130h-439l255 584h-234v134h434z" />
    <glyph glyph-name="zcaron" unicode="&#x17e;" horiz-adv-x="460" 
d="M179 767l54 -65l53 65h145l-145 -138h-107l-147 138h147zM452 531l-239 -418h226v-113h-431l240 418h-203v113h407z" />
    <glyph glyph-name="florin" unicode="&#x192;" horiz-adv-x="560" 
d="M262 578q11 88 44 129.5t100 41.5q40 0 67 -11t53 -28l-16 -117q-17 12 -33.5 21t-34.5 9q-28 0 -37 -26t-15 -68l-10 -73h110l-17 -114h-110l-52 -369q-13 -89 -48 -135t-98 -46q-36 0 -67 12.5t-63 31.5l17 118q20 -16 39 -26t39 -10q14 0 22.5 6.5t13 17.5t7 25
t4.5 29l53 346h-111l16 114h111z" />
    <glyph glyph-name="Ohorn" unicode="&#x1a0;" horiz-adv-x="840" 
d="M637 666q71 -51 114 -130t43 -179q0 -79 -29 -147.5t-79 -118.5t-118 -79t-145 -29q-80 0 -148.5 29.5t-119 80.5t-79.5 120t-29 147q0 80 30 148.5t81 119t119 79.5t144 29q28 0 55 -4t53 -12q24 3 39.5 21.5t17.5 45.5h112q-2 -34 -18 -66t-43 -55zM422 114
q49 0 91.5 19t74 52t50 77.5t18.5 95.5q0 50 -17.5 94.5t-49 78.5t-75 54t-94.5 20q-48 0 -91 -18t-75 -50.5t-50.5 -78t-18.5 -101.5q0 -55 19 -99.5t51.5 -76.5t75.5 -49.5t91 -17.5z" />
    <glyph glyph-name="ohorn" unicode="&#x1a1;" 
d="M505 475q43 -38 68.5 -92t25.5 -117q0 -58 -21 -109t-58.5 -89t-89 -60t-112.5 -22q-58 0 -108 21.5t-87.5 59.5t-59 89t-21.5 109q0 60 22.5 111.5t60.5 89t88 58.5t104 21q23 0 44.5 -3.5t41.5 -9.5q23 4 37.5 22t16.5 45h112q-2 -35 -18.5 -67.5t-45.5 -56.5zM319 112
q31 0 57.5 11t46 31t31 48t11.5 63q0 34 -10.5 62t-30 48.5t-46 32t-59.5 11.5q-31 0 -57.5 -11.5t-45.5 -32t-29.5 -48.5t-10.5 -61q0 -34 10.5 -62t29 -48.5t45 -32t58.5 -11.5z" />
    <glyph glyph-name="Uhorn" unicode="&#x1af;" 
d="M652 787q-2 -42 -26 -80t-63 -61v-385q0 -30 -1.5 -56t-7.5 -51t-17.5 -48t-31.5 -47q-35 -40 -80 -58t-104 -18q-56 0 -100 16.5t-78 51.5q-22 23 -35 46.5t-20 50t-9 56.5t-2 65v449h137v-486q0 -59 27 -88.5t77 -29.5q29 0 53.5 11.5t37.5 31.5q11 17 14 41t3 53v467
h48v1q27 0 45.5 19t20.5 49h112z" />
    <glyph glyph-name="uhorn" unicode="&#x1b0;" horiz-adv-x="600" 
d="M609 599q-2 -38 -22 -73.5t-53 -58.5v-181q0 -37 -2 -69t-8 -60.5t-18.5 -54t-33.5 -48.5q-32 -35 -73.5 -51t-97.5 -16q-97 0 -154.5 47.5t-73.5 141.5q-5 32 -5 55.5v56.5v243h133v-277q0 -72 23.5 -108.5t76.5 -36.5q54 0 77 35.5t23 103.5v283h30q27 0 45.5 19
t20.5 49h112z" />
    <glyph glyph-name="AEacute" unicode="&#x1fc;" horiz-adv-x="900" 
d="M735 963l-178 -191h-96l117 191h157zM848 718v-134h-251v-130h251v-130h-251v-190h251v-134h-388v149h-219l-72 -149h-141l350 718h470zM460 597l-155 -314h155v314z" />
    <glyph glyph-name="aeacute" unicode="&#x1fd;" horiz-adv-x="1080" 
d="M747 820l-178 -191h-96l117 191h157zM484 67q-38 -42 -79 -61.5t-98 -19.5t-105 21t-83 58.5t-55 88.5t-20 111q0 57 20 108.5t55.5 89.5t84.5 60.5t107 22.5q101 0 173 -84v69h123v-39q35 28 72 40.5t85 12.5q59 0 109.5 -20.5t88 -59t59 -92.5t21.5 -121v-13t-1 -13
h-428q11 -57 51 -90.5t100 -33.5q42 0 70.5 12.5t58.5 41.5l112 -53q-39 -57 -99.5 -87t-136.5 -30q-50 0 -89 12t-73 40v-38h-123v67zM908 330q-12 46 -49.5 73.5t-91.5 27.5q-52 0 -90.5 -25t-57.5 -76h289zM333 424q-33 0 -61.5 -12t-49 -33t-32.5 -51t-12 -66
q0 -31 11 -59t31 -49t48.5 -33.5t63.5 -12.5q36 0 64 12t48 33.5t30.5 50.5t10.5 63q0 35 -11.5 64t-32 49.5t-48.5 32t-60 11.5z" />
    <glyph glyph-name="Oslashacute" unicode="&#x1fe;" horiz-adv-x="840" 
d="M602 963l-178 -191h-96l117 191h157zM697 612q97 -107 97 -255q0 -79 -29 -147.5t-79.5 -119t-118 -79t-144.5 -28.5q-118 0 -208 60l-84 -99l-61 52l83 99q-51 53 -78.5 120.5t-27.5 143.5q0 80 30 149t81 119.5t119 79.5t144 29q116 0 216 -70l79 92l62 -51zM551 563
q-27 20 -60.5 31t-70.5 11q-48 0 -91 -18t-75 -50.5t-50.5 -78t-18.5 -101.5q0 -48 13 -87t42 -72zM303 146q26 -15 57 -23.5t63 -8.5q48 0 90.5 19t74 52t50 77.5t18.5 95.5q0 83 -48 149z" />
    <glyph glyph-name="oslashacute" unicode="&#x1ff;" horiz-adv-x="660" 
d="M506 820l-178 -191h-96l117 191h157zM549 440q30 -38 45 -82t15 -92q0 -58 -21 -109t-58.5 -89t-89 -60t-112.5 -22q-83 0 -148 43l-63 -71l-61 53l64 71q-68 77 -68 183q0 60 22.5 111.5t60.5 89t88 58.5t104 21q42 0 84.5 -13t78.5 -37l61 68l60 -54zM405 400
q-17 10 -36.5 14.5t-39.5 4.5q-31 0 -57.5 -11.5t-45.5 -32t-29.5 -48.5t-10.5 -61q0 -23 5 -45t16 -42zM266 124q14 -7 31 -9.5t32 -2.5q31 0 57.5 11t46 31t31 48t11.5 63q0 39 -16 75z" />
    <glyph glyph-name="uni0218" unicode="&#x218;" horiz-adv-x="520" 
d="M135 207q25 -47 54 -70.5t65 -23.5q35 0 59 19.5t24 47.5q0 20 -12 41t-34 39q-56 47 -100 84.5t-74.5 71.5t-46.5 67.5t-16 71.5t15.5 71t42.5 57.5t63 38.5t76 14q68 0 116.5 -32.5t91.5 -82.5l-102 -90q-26 36 -52.5 55t-55.5 19q-27 0 -44 -14t-17 -36
q0 -21 13 -35.5t29 -28.5q50 -44 94 -79t76.5 -68.5t51.5 -71t19 -86.5q0 -45 -16 -82.5t-45 -64.5t-69.5 -42t-89.5 -15q-79 0 -135 38.5t-96 117.5zM194 -39q15 1 27 1.5t20 0.5q57 0 85.5 -25.5t28.5 -59.5q0 -37 -31.5 -66.5t-93.5 -29.5q-39 0 -95 17l17 64
q37 -8 54 -8q52 0 52 35q0 28 -40 28q-6 0 -15 -0.5t-22 -1.5z" />
    <glyph glyph-name="uni0219" unicode="&#x219;" horiz-adv-x="440" 
d="M173 230q-64 32 -96 71.5t-32 90.5q0 31 12.5 59t35 49t54.5 33t70 12q52 0 97.5 -22.5t77.5 -65.5l-82 -83q-23 23 -45.5 36t-46.5 13q-20 0 -34 -8t-14 -24q0 -15 13 -24t35 -20l49 -25q66 -34 100.5 -72t34.5 -98q0 -36 -13.5 -66t-38.5 -52.5t-60 -35t-79 -12.5
q-116 0 -186 91l82 90q23 -27 54 -44.5t57 -17.5q25 0 42 12.5t17 30.5q0 17 -15.5 31t-43.5 28zM155 -39q15 1 27 1.5t20 0.5q57 0 85.5 -25.5t28.5 -59.5q0 -37 -31.5 -66.5t-93.5 -29.5q-39 0 -95 17l17 64q37 -8 54 -8q52 0 52 35q0 28 -40 28q-6 0 -15 -0.5t-22 -1.5z
" />
    <glyph glyph-name="uni021A" unicode="&#x21a;" horiz-adv-x="420" 
d="M408 718v-134h-132v-584h-137v584h-128v134h397zM158 -39q15 1 27 1.5t20 0.5q57 0 85.5 -25.5t28.5 -59.5q0 -37 -31.5 -66.5t-93.5 -29.5q-39 0 -95 17l17 64q37 -8 54 -8q52 0 52 35q0 28 -40 28q-6 0 -15 -0.5t-22 -1.5z" />
    <glyph glyph-name="uni021B" unicode="&#x21b;" horiz-adv-x="300" 
d="M216 727v-196h79v-114h-79v-417h-133v417h-68v114h68v196h133zM93 -39q15 1 27 1.5t20 0.5q57 0 85.5 -25.5t28.5 -59.5q0 -37 -31.5 -66.5t-93.5 -29.5q-39 0 -95 17l17 64q37 -8 54 -8q52 0 52 35q0 28 -40 28q-6 0 -15 -0.5t-22 -1.5z" />
    <glyph glyph-name="circumflex" unicode="&#x2c6;" horiz-adv-x="540" 
d="M218 767h107l145 -138h-145l-53 63l-54 -63h-147z" />
    <glyph glyph-name="caron" unicode="&#x2c7;" horiz-adv-x="540" 
d="M218 767l54 -65l53 65h145l-145 -138h-107l-147 138h147z" />
    <glyph glyph-name="uni02C9" unicode="&#x2c9;" horiz-adv-x="420" 
d="M71 736h278v-107h-278v107z" />
    <glyph glyph-name="breve" unicode="&#x2d8;" horiz-adv-x="480" 
d="M438 766q-9 -64 -60 -100.5t-139 -36.5q-87 0 -137.5 36.5t-60.5 100.5h108q24 -40 91 -40q64 0 90 40h108z" />
    <glyph glyph-name="dotaccent" unicode="&#x2d9;" horiz-adv-x="280" 
d="M140 768q29 0 49 -20.5t20 -49.5t-20 -49.5t-49 -20.5t-49 20.5t-20 49.5t20 49.5t49 20.5z" />
    <glyph glyph-name="ring" unicode="&#x2da;" horiz-adv-x="360" 
d="M180 843q23 0 42.5 -8.5t33.5 -23t22.5 -34t8.5 -41.5t-8.5 -42t-23 -34t-34 -22.5t-41.5 -8.5t-41.5 8.5t-34 22.5t-23 34t-8.5 42t8.5 41.5t22.5 34t34 23t42 8.5zM180 778q-17 0 -29.5 -12t-12.5 -30q0 -19 12.5 -30.5t29.5 -11.5t29.5 11.5t12.5 30.5q0 18 -12.5 30
t-29.5 12z" />
    <glyph glyph-name="ogonek" unicode="&#x2db;" horiz-adv-x="340" 
d="M261 -190q-14 -3 -30 -6t-33 -3q-60 0 -89.5 27t-29.5 66q0 32 23 59.5t64 46.5h70q-33 -20 -50.5 -38.5t-17.5 -41.5t15 -34t35 -11q12 0 23.5 3.5t19.5 8.5v-77z" />
    <glyph glyph-name="tilde" unicode="&#x2dc;" horiz-adv-x="480" 
d="M177 656q-29 0 -48.5 -7.5t-37.5 -18.5l-54 81q32 24 64 36t62 12q18 0 36.5 -4t36.5 -9.5t36 -9.5t36 -4q23 0 44.5 7.5t41.5 18.5l50 -77q-28 -24 -56 -38t-63 -14q-21 0 -39 4t-36 9.5t-35.5 9.5t-37.5 4z" />
    <glyph glyph-name="hungarumlaut" unicode="&#x2dd;" horiz-adv-x="700" 
d="M435 820l-178 -191h-96l117 191h157zM653 820l-178 -191h-96l117 191h157z" />
    <glyph glyph-name="gravecomb" unicode="&#x300;" horiz-adv-x="0" 
d="M-314 717h108l66 -112h-86z" />
    <glyph glyph-name="acutecomb" unicode="&#x301;" horiz-adv-x="0" 
d="M-100 717l-88 -112h-86l66 112h108z" />
    <glyph glyph-name="uni0302" unicode="&#x302;" horiz-adv-x="0" 
d="M-278 600h-91l88 116h93l88 -116h-91l-43 61z" />
    <glyph glyph-name="tildecomb" unicode="&#x303;" horiz-adv-x="0" 
d="M-364 606q0 46 12.5 72.5t32.5 36.5t45 5t49 -23q27 -20 39.5 -19t12.5 38h73q0 -45 -12.5 -71.5t-32.5 -37t-45 -5.5t-49 23q-27 20 -39.5 19t-12.5 -38h-73z" />
    <glyph glyph-name="uni0306" unicode="&#x306;" horiz-adv-x="0" 
d="M-230 592q-62 0 -96.5 30t-34.5 86h81q0 -49 50 -49q49 0 49 49h81q0 -56 -34 -86t-96 -30z" />
    <glyph glyph-name="hookabovecomb" unicode="&#x309;" horiz-adv-x="0" 
d="M-185 773q35 0 60 -21.5t25 -53.5q0 -35 -37 -66q-17 -14 -21 -22t-2 -17h-71q-4 34 30 64q14 13 19.5 20.5t5.5 13.5q0 13 -12 13q-9 0 -12 -6t-2 -25h-74v13q0 38 26 62.5t65 24.5z" />
    <glyph glyph-name="uni031B" unicode="&#x31b;" horiz-adv-x="0" 
d="M-278 531q27 0 45.5 19t20.5 49h112q-1 -31 -15 -61t-38 -53t-56 -37t-69 -14v97z" />
    <glyph glyph-name="dotbelowcomb" unicode="&#x323;" horiz-adv-x="0" 
d="M-140 -52q29 0 49 -20.5t20 -49.5t-20 -49.5t-49 -20.5t-49 20.5t-20 49.5t20 49.5t49 20.5z" />
    <glyph glyph-name="uni03A9" unicode="&#x3a9;" horiz-adv-x="716" 
d="M411 109q19 19 38.5 43.5t35.5 56.5t26.5 72.5t10.5 90.5q0 49 -10.5 89.5t-31 70t-51 46t-69.5 16.5q-38 0 -69 -16.5t-53 -46t-34 -71t-12 -91.5t10.5 -90t26.5 -71.5t36 -56t39 -42.5v-109h-255v109h145q-24 19 -49.5 44.5t-47.5 60.5t-36 80.5t-14 104.5
q0 68 23 125.5t64.5 99t100 65t128.5 23.5q75 0 132 -23.5t95.5 -65.5t58 -98.5t19.5 -122.5q0 -53 -12.5 -97t-33 -80t-47.5 -64.5t-56 -51.5h147v-109h-255v109z" />
    <glyph glyph-name="uni03BC" unicode="&#x3bc;" horiz-adv-x="576" 
d="M396 62q-19 -37 -45 -56.5t-62 -19.5q-38 0 -65 18.5t-47 53.5v-252h-133v725h133v-279q0 -29 3 -54.5t19 -49.5q15 -23 39.5 -36t51.5 -13t49.5 13.5t36.5 36.5q14 24 17 50.5t3 56.5v275h137v-531h-137v62z" />
    <glyph glyph-name="pi" unicode="&#x3c0;" horiz-adv-x="663" 
d="M631 13q-17 -11 -40.5 -16.5t-55.5 -5.5q-41 0 -68.5 13t-44.5 35t-24.5 51t-7.5 60v252h-94v-250q0 -54 -4.5 -89.5t-13.5 -62.5h-138q11 33 15.5 74.5t4.5 89.5v238q-20 0 -47 -6.5t-44 -17.5l-37 85q23 14 65.5 25.5t97.5 11.5h429v-98h-99v-234q0 -35 10.5 -57.5
t39.5 -22.5q11 0 18.5 3t14.5 7z" />
    <glyph glyph-name="Wgrave" unicode="&#x1e80;" horiz-adv-x="900" 
d="M512 772h-95l-179 191h158zM162 718l103 -458l129 458h114l130 -458l102 458h135l-162 -718h-131l-133 464l-129 -464h-130l-163 718h135z" />
    <glyph glyph-name="wgrave" unicode="&#x1e81;" horiz-adv-x="800" 
d="M449 629h-95l-179 191h158zM139 531l106 -302l115 302h80l113 -298l107 298h131l-193 -531h-85l-113 303l-117 -303h-83l-192 531h131z" />
    <glyph glyph-name="Wacute" unicode="&#x1e82;" horiz-adv-x="900" 
d="M604 963l-178 -191h-96l117 191h157zM162 718l103 -458l129 458h114l130 -458l102 458h135l-162 -718h-131l-133 464l-129 -464h-130l-163 718h135z" />
    <glyph glyph-name="wacute" unicode="&#x1e83;" horiz-adv-x="800" 
d="M588 820l-178 -191h-96l117 191h157zM139 531l106 -302l115 302h80l113 -298l107 298h131l-193 -531h-85l-113 303l-117 -303h-83l-192 531h131z" />
    <glyph glyph-name="Wdieresis" unicode="&#x1e84;" horiz-adv-x="900" 
d="M345 911q29 0 49 -20.5t20 -49.5t-20 -49.5t-49 -20.5t-49 20.5t-20 49.5t20 49.5t49 20.5zM561 911q29 0 49 -20.5t20 -49.5t-20 -49.5t-49 -20.5t-49 20.5t-20 49.5t20 49.5t49 20.5zM162 718l103 -458l129 458h114l130 -458l102 458h135l-162 -718h-131l-133 464
l-129 -464h-130l-163 718h135z" />
    <glyph glyph-name="wdieresis" unicode="&#x1e85;" horiz-adv-x="800" 
d="M293 768q29 0 49 -20.5t20 -49.5t-20 -49.5t-49 -20.5t-49 20.5t-20 49.5t20 49.5t49 20.5zM509 768q29 0 49 -20.5t20 -49.5t-20 -49.5t-49 -20.5t-49 20.5t-20 49.5t20 49.5t49 20.5zM139 531l106 -302l115 302h80l113 -298l107 298h131l-193 -531h-85l-113 303
l-117 -303h-83l-192 531h131z" />
    <glyph glyph-name="uni1EA0" unicode="&#x1ea0;" horiz-adv-x="740" 
d="M439 718l277 -718h-142l-56 148h-293l-59 -148h-142l277 718h138zM276 282h190l-95 246zM370 -52q29 0 49 -20.5t20 -49.5t-20 -49.5t-49 -20.5t-49 20.5t-20 49.5t20 49.5t49 20.5z" />
    <glyph glyph-name="uni1EA1" unicode="&#x1ea1;" horiz-adv-x="660" 
d="M460 56q-35 -35 -74 -52.5t-90 -17.5t-96.5 20.5t-80.5 57.5t-55.5 88.5t-20.5 112.5q0 62 19.5 113.5t53.5 88.5t79.5 57.5t97.5 20.5q95 0 167 -72v58h133v-531h-133v56zM320 423q-33 0 -59.5 -12.5t-45 -33.5t-28.5 -49.5t-10 -61.5q0 -34 10.5 -63t29.5 -50t45.5 -33
t57.5 -12t57.5 11t46 32t31 50.5t11.5 65.5q0 35 -11 63.5t-30.5 49t-46 32t-58.5 11.5zM330 -52q29 0 49 -20.5t20 -49.5t-20 -49.5t-49 -20.5t-49 20.5t-20 49.5t20 49.5t49 20.5z" />
    <glyph glyph-name="uni1EA2" unicode="&#x1ea2;" horiz-adv-x="740" 
d="M373 961q35 0 60 -21.5t25 -53.5q0 -35 -37 -66q-17 -14 -21 -22t-2 -17h-71q-4 34 30 64q14 13 19.5 20.5t5.5 13.5q0 13 -12 13q-9 0 -12 -6t-2 -25h-74v13q0 38 26 62.5t65 24.5zM439 718l277 -718h-142l-56 148h-293l-59 -148h-142l277 718h138zM276 282h190l-95 246
z" />
    <glyph glyph-name="uni1EA3" unicode="&#x1ea3;" horiz-adv-x="660" 
d="M333 773q35 0 60 -21.5t25 -53.5q0 -35 -37 -66q-17 -14 -21 -22t-2 -17h-71q-4 34 30 64q14 13 19.5 20.5t5.5 13.5q0 13 -12 13q-9 0 -12 -6t-2 -25h-74v13q0 38 26 62.5t65 24.5zM460 56q-35 -35 -74 -52.5t-90 -17.5t-96.5 20.5t-80.5 57.5t-55.5 88.5t-20.5 112.5
q0 62 19.5 113.5t53.5 88.5t79.5 57.5t97.5 20.5q95 0 167 -72v58h133v-531h-133v56zM320 423q-33 0 -59.5 -12.5t-45 -33.5t-28.5 -49.5t-10 -61.5q0 -34 10.5 -63t29.5 -50t45.5 -33t57.5 -12t57.5 11t46 32t31 50.5t11.5 65.5q0 35 -11 63.5t-30.5 49t-46 32t-58.5 11.5z
" />
    <glyph glyph-name="uni1EA4" unicode="&#x1ea4;" horiz-adv-x="740" 
d="M554 932l-66 -112h86l88 112h-108zM321 768h-91l88 116h93l88 -116h-91l-43 61zM439 718l277 -718h-142l-56 148h-293l-59 -148h-142l277 718h138zM276 282h190l-95 246z" />
    <glyph glyph-name="uni1EA5" unicode="&#x1ea5;" horiz-adv-x="660" 
d="M514 744l-66 -112h86l88 112h-108zM281 580h-91l88 116h93l88 -116h-91l-43 61zM460 56q-35 -35 -74 -52.5t-90 -17.5t-96.5 20.5t-80.5 57.5t-55.5 88.5t-20.5 112.5q0 62 19.5 113.5t53.5 88.5t79.5 57.5t97.5 20.5q95 0 167 -72v58h133v-531h-133v56zM320 423
q-33 0 -59.5 -12.5t-45 -33.5t-28.5 -49.5t-10 -61.5q0 -34 10.5 -63t29.5 -50t45.5 -33t57.5 -12t57.5 11t46 32t31 50.5t11.5 65.5q0 35 -11 63.5t-30.5 49t-46 32t-58.5 11.5z" />
    <glyph glyph-name="uni1EA6" unicode="&#x1ea6;" horiz-adv-x="740" 
d="M508 829h86l-66 112h-108zM323 768h-91l88 116h93l88 -116h-91l-43 61zM439 718l277 -718h-142l-56 148h-293l-59 -148h-142l277 718h138zM276 282h190l-95 246z" />
    <glyph glyph-name="uni1EA7" unicode="&#x1ea7;" horiz-adv-x="660" 
d="M468 641h86l-66 112h-108zM283 580h-91l88 116h93l88 -116h-91l-43 61zM460 56q-35 -35 -74 -52.5t-90 -17.5t-96.5 20.5t-80.5 57.5t-55.5 88.5t-20.5 112.5q0 62 19.5 113.5t53.5 88.5t79.5 57.5t97.5 20.5q95 0 167 -72v58h133v-531h-133v56zM320 423
q-33 0 -59.5 -12.5t-45 -33.5t-28.5 -49.5t-10 -61.5q0 -34 10.5 -63t29.5 -50t45.5 -33t57.5 -12t57.5 11t46 32t31 50.5t11.5 65.5q0 35 -11 63.5t-30.5 49t-46 32t-58.5 11.5z" />
    <glyph glyph-name="uni1EA8" unicode="&#x1ea8;" horiz-adv-x="740" 
d="M543 992q35 0 60 -21.5t25 -53.5q0 -35 -37 -66q-17 -14 -21 -22t-2 -17h-71q-4 34 30 64q14 13 19.5 20.5t5.5 13.5q0 13 -12 13q-9 0 -12 -6t-2 -25h-74v13q0 38 26 62.5t65 24.5zM321 768h-91l88 116h93l88 -116h-91l-43 61zM439 718l277 -718h-142l-56 148h-293
l-59 -148h-142l277 718h138zM276 282h190l-95 246z" />
    <glyph glyph-name="uni1EA9" unicode="&#x1ea9;" horiz-adv-x="660" 
d="M503 804q35 0 60 -21.5t25 -53.5q0 -35 -37 -66q-17 -14 -21 -22t-2 -17h-71q-4 34 30 64q14 13 19.5 20.5t5.5 13.5q0 13 -12 13q-9 0 -12 -6t-2 -25h-74v13q0 38 26 62.5t65 24.5zM281 580h-91l88 116h93l88 -116h-91l-43 61zM460 56q-35 -35 -74 -52.5t-90 -17.5
t-96.5 20.5t-80.5 57.5t-55.5 88.5t-20.5 112.5q0 62 19.5 113.5t53.5 88.5t79.5 57.5t97.5 20.5q95 0 167 -72v58h133v-531h-133v56zM320 423q-33 0 -59.5 -12.5t-45 -33.5t-28.5 -49.5t-10 -61.5q0 -34 10.5 -63t29.5 -50t45.5 -33t57.5 -12t57.5 11t46 32t31 50.5
t11.5 65.5q0 35 -11 63.5t-30.5 49t-46 32t-58.5 11.5z" />
    <glyph glyph-name="uni1EAA" unicode="&#x1eaa;" horiz-adv-x="740" 
d="M237 903q0 46 12.5 72t32.5 36t44.5 5t49.5 -22q27 -20 39.5 -19t12.5 38h73q0 -45 -12.5 -71.5t-32 -36.5t-44.5 -5t-50 22q-27 20 -39.5 19t-12.5 -38h-73zM326 768h-91l88 116h93l88 -116h-91l-43 61zM439 718l277 -718h-142l-56 148h-293l-59 -148h-142l277 718h138z
M276 282h190l-95 246z" />
    <glyph glyph-name="uni1EAB" unicode="&#x1eab;" horiz-adv-x="660" 
d="M197 715q0 46 12.5 72t32.5 36t44.5 5t49.5 -22q27 -20 39.5 -19t12.5 38h73q0 -45 -12.5 -71.5t-32 -36.5t-44.5 -5t-50 22q-27 20 -39.5 19t-12.5 -38h-73zM286 580h-91l88 116h93l88 -116h-91l-43 61zM460 56q-35 -35 -74 -52.5t-90 -17.5t-96.5 20.5t-80.5 57.5
t-55.5 88.5t-20.5 112.5q0 62 19.5 113.5t53.5 88.5t79.5 57.5t97.5 20.5q95 0 167 -72v58h133v-531h-133v56zM320 423q-33 0 -59.5 -12.5t-45 -33.5t-28.5 -49.5t-10 -61.5q0 -34 10.5 -63t29.5 -50t45.5 -33t57.5 -12t57.5 11t46 32t31 50.5t11.5 65.5q0 35 -11 63.5
t-30.5 49t-46 32t-58.5 11.5z" />
    <glyph glyph-name="uni1EAC" unicode="&#x1eac;" horiz-adv-x="740" 
d="M326 788h-91l88 116h93l88 -116h-91l-43 61zM439 718l277 -718h-142l-56 148h-293l-59 -148h-142l277 718h138zM276 282h190l-95 246zM370 -52q29 0 49 -20.5t20 -49.5t-20 -49.5t-49 -20.5t-49 20.5t-20 49.5t20 49.5t49 20.5z" />
    <glyph glyph-name="uni1EAD" unicode="&#x1ead;" horiz-adv-x="660" 
d="M286 600h-91l88 116h93l88 -116h-91l-43 61zM460 56q-35 -35 -74 -52.5t-90 -17.5t-96.5 20.5t-80.5 57.5t-55.5 88.5t-20.5 112.5q0 62 19.5 113.5t53.5 88.5t79.5 57.5t97.5 20.5q95 0 167 -72v58h133v-531h-133v56zM320 423q-33 0 -59.5 -12.5t-45 -33.5t-28.5 -49.5
t-10 -61.5q0 -34 10.5 -63t29.5 -50t45.5 -33t57.5 -12t57.5 11t46 32t31 50.5t11.5 65.5q0 35 -11 63.5t-30.5 49t-46 32t-58.5 11.5zM330 -52q29 0 49 -20.5t20 -49.5t-20 -49.5t-49 -20.5t-49 20.5t-20 49.5t20 49.5t49 20.5z" />
    <glyph glyph-name="uni1EAE" unicode="&#x1eae;" horiz-adv-x="740" 
d="M393 1024l-66 -112h86l88 112h-108zM370 780q-62 0 -96.5 30t-34.5 86h81q0 -49 50 -49q49 0 49 49h81q0 -56 -34 -86t-96 -30zM439 718l277 -718h-142l-56 148h-293l-59 -148h-142l277 718h138zM276 282h190l-95 246z" />
    <glyph glyph-name="uni1EAF" unicode="&#x1eaf;" horiz-adv-x="660" 
d="M353 836l-66 -112h86l88 112h-108zM330 592q-62 0 -96.5 30t-34.5 86h81q0 -49 50 -49q49 0 49 49h81q0 -56 -34 -86t-96 -30zM460 56q-35 -35 -74 -52.5t-90 -17.5t-96.5 20.5t-80.5 57.5t-55.5 88.5t-20.5 112.5q0 62 19.5 113.5t53.5 88.5t79.5 57.5t97.5 20.5
q95 0 167 -72v58h133v-531h-133v56zM320 423q-33 0 -59.5 -12.5t-45 -33.5t-28.5 -49.5t-10 -61.5q0 -34 10.5 -63t29.5 -50t45.5 -33t57.5 -12t57.5 11t46 32t31 50.5t11.5 65.5q0 35 -11 63.5t-30.5 49t-46 32t-58.5 11.5z" />
    <glyph glyph-name="uni1EB0" unicode="&#x1eb0;" horiz-adv-x="740" 
d="M325 911h86l-66 112h-108zM372 780q-62 0 -96.5 30t-34.5 86h81q0 -49 50 -49q49 0 49 49h81q0 -56 -34 -86t-96 -30zM439 718l277 -718h-142l-56 148h-293l-59 -148h-142l277 718h138zM276 282h190l-95 246z" />
    <glyph glyph-name="uni1EB1" unicode="&#x1eb1;" horiz-adv-x="660" 
d="M285 723h86l-66 112h-108zM332 592q-62 0 -96.5 30t-34.5 86h81q0 -49 50 -49q49 0 49 49h81q0 -56 -34 -86t-96 -30zM460 56q-35 -35 -74 -52.5t-90 -17.5t-96.5 20.5t-80.5 57.5t-55.5 88.5t-20.5 112.5q0 62 19.5 113.5t53.5 88.5t79.5 57.5t97.5 20.5q95 0 167 -72
v58h133v-531h-133v56zM320 423q-33 0 -59.5 -12.5t-45 -33.5t-28.5 -49.5t-10 -61.5q0 -34 10.5 -63t29.5 -50t45.5 -33t57.5 -12t57.5 11t46 32t31 50.5t11.5 65.5q0 35 -11 63.5t-30.5 49t-46 32t-58.5 11.5z" />
    <glyph glyph-name="uni1EB2" unicode="&#x1eb2;" horiz-adv-x="740" 
d="M381 1089q35 0 60 -21.5t25 -53.5q0 -35 -37 -66q-17 -14 -21 -22t-2 -17h-71q-4 34 30 64q14 13 19.5 20.5t5.5 13.5q0 13 -12 13q-9 0 -12 -6t-2 -25h-74v13q0 38 26 62.5t65 24.5zM370 780q-62 0 -96.5 30t-34.5 86h81q0 -49 50 -49q49 0 49 49h81q0 -56 -34 -86
t-96 -30zM439 718l277 -718h-142l-56 148h-293l-59 -148h-142l277 718h138zM276 282h190l-95 246z" />
    <glyph glyph-name="uni1EB3" unicode="&#x1eb3;" horiz-adv-x="660" 
d="M341 901q35 0 60 -21.5t25 -53.5q0 -35 -37 -66q-17 -14 -21 -22t-2 -17h-71q-4 34 30 64q14 13 19.5 20.5t5.5 13.5q0 13 -12 13q-9 0 -12 -6t-2 -25h-74v13q0 38 26 62.5t65 24.5zM330 592q-62 0 -96.5 30t-34.5 86h81q0 -49 50 -49q49 0 49 49h81q0 -56 -34 -86
t-96 -30zM460 56q-35 -35 -74 -52.5t-90 -17.5t-96.5 20.5t-80.5 57.5t-55.5 88.5t-20.5 112.5q0 62 19.5 113.5t53.5 88.5t79.5 57.5t97.5 20.5q95 0 167 -72v58h133v-531h-133v56zM320 423q-33 0 -59.5 -12.5t-45 -33.5t-28.5 -49.5t-10 -61.5q0 -34 10.5 -63t29.5 -50
t45.5 -33t57.5 -12t57.5 11t46 32t31 50.5t11.5 65.5q0 35 -11 63.5t-30.5 49t-46 32t-58.5 11.5z" />
    <glyph glyph-name="uni1EB4" unicode="&#x1eb4;" horiz-adv-x="740" 
d="M238 921q0 46 12.5 72t32.5 36t44.5 5t49.5 -22q27 -20 39.5 -19t12.5 38h73q0 -45 -12.5 -71.5t-32 -36.5t-44.5 -5t-50 22q-27 20 -39.5 19t-12.5 -38h-73zM371 780q-62 0 -96.5 30t-34.5 86h81q0 -49 50 -49q49 0 49 49h81q0 -56 -34 -86t-96 -30zM439 718l277 -718
h-142l-56 148h-293l-59 -148h-142l277 718h138zM276 282h190l-95 246z" />
    <glyph glyph-name="uni1EB5" unicode="&#x1eb5;" horiz-adv-x="660" 
d="M198 733q0 46 12.5 72t32.5 36t44.5 5t49.5 -22q27 -20 39.5 -19t12.5 38h73q0 -45 -12.5 -71.5t-32 -36.5t-44.5 -5t-50 22q-27 20 -39.5 19t-12.5 -38h-73zM331 592q-62 0 -96.5 30t-34.5 86h81q0 -49 50 -49q49 0 49 49h81q0 -56 -34 -86t-96 -30zM460 56
q-35 -35 -74 -52.5t-90 -17.5t-96.5 20.5t-80.5 57.5t-55.5 88.5t-20.5 112.5q0 62 19.5 113.5t53.5 88.5t79.5 57.5t97.5 20.5q95 0 167 -72v58h133v-531h-133v56zM320 423q-33 0 -59.5 -12.5t-45 -33.5t-28.5 -49.5t-10 -61.5q0 -34 10.5 -63t29.5 -50t45.5 -33t57.5 -12
t57.5 11t46 32t31 50.5t11.5 65.5q0 35 -11 63.5t-30.5 49t-46 32t-58.5 11.5z" />
    <glyph glyph-name="uni1EB6" unicode="&#x1eb6;" horiz-adv-x="740" 
d="M370 780q-62 0 -96.5 30t-34.5 86h81q0 -49 50 -49q49 0 49 49h81q0 -56 -34 -86t-96 -30zM439 718l277 -718h-142l-56 148h-293l-59 -148h-142l277 718h138zM276 282h190l-95 246zM370 -52q29 0 49 -20.5t20 -49.5t-20 -49.5t-49 -20.5t-49 20.5t-20 49.5t20 49.5
t49 20.5z" />
    <glyph glyph-name="uni1EB7" unicode="&#x1eb7;" horiz-adv-x="660" 
d="M330 592q-62 0 -96.5 30t-34.5 86h81q0 -49 50 -49q49 0 49 49h81q0 -56 -34 -86t-96 -30zM460 56q-35 -35 -74 -52.5t-90 -17.5t-96.5 20.5t-80.5 57.5t-55.5 88.5t-20.5 112.5q0 62 19.5 113.5t53.5 88.5t79.5 57.5t97.5 20.5q95 0 167 -72v58h133v-531h-133v56z
M320 423q-33 0 -59.5 -12.5t-45 -33.5t-28.5 -49.5t-10 -61.5q0 -34 10.5 -63t29.5 -50t45.5 -33t57.5 -12t57.5 11t46 32t31 50.5t11.5 65.5q0 35 -11 63.5t-30.5 49t-46 32t-58.5 11.5zM330 -52q29 0 49 -20.5t20 -49.5t-20 -49.5t-49 -20.5t-49 20.5t-20 49.5t20 49.5
t49 20.5z" />
    <glyph glyph-name="uni1EB8" unicode="&#x1eb8;" horiz-adv-x="520" 
d="M475 718v-134h-255v-128h255v-134h-255v-188h255v-134h-392v718h392zM260 -52q29 0 49 -20.5t20 -49.5t-20 -49.5t-49 -20.5t-49 20.5t-20 49.5t20 49.5t49 20.5z" />
    <glyph glyph-name="uni1EB9" unicode="&#x1eb9;" 
d="M565 103q-43 -61 -101 -89t-143 -28q-63 0 -114.5 22t-88 59.5t-56 89t-19.5 109.5q0 54 19 104.5t55 89.5t87 62t115 23q63 0 115 -21.5t89 -59.5t57.5 -91t20.5 -116q0 -9 -0.5 -15t-0.5 -15h-428q10 -60 51 -91.5t98 -31.5q43 0 73.5 12.5t58.5 39.5zM467 332
q-14 47 -53 73.5t-93 26.5q-50 0 -86.5 -24.5t-56.5 -75.5h289zM320 -52q29 0 49 -20.5t20 -49.5t-20 -49.5t-49 -20.5t-49 20.5t-20 49.5t20 49.5t49 20.5z" />
    <glyph glyph-name="uni1EBA" unicode="&#x1eba;" horiz-adv-x="520" 
d="M282 961q35 0 60 -21.5t25 -53.5q0 -35 -37 -66q-17 -14 -21 -22t-2 -17h-71q-4 34 30 64q14 13 19.5 20.5t5.5 13.5q0 13 -12 13q-9 0 -12 -6t-2 -25h-74v13q0 38 26 62.5t65 24.5zM475 718v-134h-255v-128h255v-134h-255v-188h255v-134h-392v718h392z" />
    <glyph glyph-name="uni1EBB" unicode="&#x1ebb;" 
d="M323 773q35 0 60 -21.5t25 -53.5q0 -35 -37 -66q-17 -14 -21 -22t-2 -17h-71q-4 34 30 64q14 13 19.5 20.5t5.5 13.5q0 13 -12 13q-9 0 -12 -6t-2 -25h-74v13q0 38 26 62.5t65 24.5zM565 103q-43 -61 -101 -89t-143 -28q-63 0 -114.5 22t-88 59.5t-56 89t-19.5 109.5
q0 54 19 104.5t55 89.5t87 62t115 23q63 0 115 -21.5t89 -59.5t57.5 -91t20.5 -116q0 -9 -0.5 -15t-0.5 -15h-428q10 -60 51 -91.5t98 -31.5q43 0 73.5 12.5t58.5 39.5zM467 332q-14 47 -53 73.5t-93 26.5q-50 0 -86.5 -24.5t-56.5 -75.5h289z" />
    <glyph glyph-name="uni1EBC" unicode="&#x1ebc;" horiz-adv-x="520" 
d="M147 794q0 46 12.5 72.5t32.5 36.5t45 5t49 -23q27 -20 39.5 -19t12.5 38h73q0 -45 -12.5 -71.5t-32.5 -37t-45 -5.5t-49 23q-27 20 -39.5 19t-12.5 -38h-73zM475 718v-134h-255v-128h255v-134h-255v-188h255v-134h-392v718h392z" />
    <glyph glyph-name="uni1EBD" unicode="&#x1ebd;" 
d="M188 606q0 46 12.5 72.5t32.5 36.5t45 5t49 -23q27 -20 39.5 -19t12.5 38h73q0 -45 -12.5 -71.5t-32.5 -37t-45 -5.5t-49 23q-27 20 -39.5 19t-12.5 -38h-73zM565 103q-43 -61 -101 -89t-143 -28q-63 0 -114.5 22t-88 59.5t-56 89t-19.5 109.5q0 54 19 104.5t55 89.5
t87 62t115 23q63 0 115 -21.5t89 -59.5t57.5 -91t20.5 -116q0 -9 -0.5 -15t-0.5 -15h-428q10 -60 51 -91.5t98 -31.5q43 0 73.5 12.5t58.5 39.5zM467 332q-14 47 -53 73.5t-93 26.5q-50 0 -86.5 -24.5t-56.5 -75.5h289z" />
    <glyph glyph-name="uni1EBE" unicode="&#x1ebe;" horiz-adv-x="520" 
d="M463 932l-66 -112h86l88 112h-108zM230 768h-91l88 116h93l88 -116h-91l-43 61zM475 718v-134h-255v-128h255v-134h-255v-188h255v-134h-392v718h392z" />
    <glyph glyph-name="uni1EBF" unicode="&#x1ebf;" 
d="M504 744l-66 -112h86l88 112h-108zM271 580h-91l88 116h93l88 -116h-91l-43 61zM565 103q-43 -61 -101 -89t-143 -28q-63 0 -114.5 22t-88 59.5t-56 89t-19.5 109.5q0 54 19 104.5t55 89.5t87 62t115 23q63 0 115 -21.5t89 -59.5t57.5 -91t20.5 -116q0 -9 -0.5 -15
t-0.5 -15h-428q10 -60 51 -91.5t98 -31.5q43 0 73.5 12.5t58.5 39.5zM467 332q-14 47 -53 73.5t-93 26.5q-50 0 -86.5 -24.5t-56.5 -75.5h289z" />
    <glyph glyph-name="uni1EC0" unicode="&#x1ec0;" horiz-adv-x="520" 
d="M417 829h86l-66 112h-108zM232 768h-91l88 116h93l88 -116h-91l-43 61zM475 718v-134h-255v-128h255v-134h-255v-188h255v-134h-392v718h392z" />
    <glyph glyph-name="uni1EC1" unicode="&#x1ec1;" 
d="M458 641h86l-66 112h-108zM273 580h-91l88 116h93l88 -116h-91l-43 61zM565 103q-43 -61 -101 -89t-143 -28q-63 0 -114.5 22t-88 59.5t-56 89t-19.5 109.5q0 54 19 104.5t55 89.5t87 62t115 23q63 0 115 -21.5t89 -59.5t57.5 -91t20.5 -116q0 -9 -0.5 -15t-0.5 -15h-428
q10 -60 51 -91.5t98 -31.5q43 0 73.5 12.5t58.5 39.5zM467 332q-14 47 -53 73.5t-93 26.5q-50 0 -86.5 -24.5t-56.5 -75.5h289z" />
    <glyph glyph-name="uni1EC2" unicode="&#x1ec2;" horiz-adv-x="520" 
d="M452 992q35 0 60 -21.5t25 -53.5q0 -35 -37 -66q-17 -14 -21 -22t-2 -17h-71q-4 34 30 64q14 13 19.5 20.5t5.5 13.5q0 13 -12 13q-9 0 -12 -6t-2 -25h-74v13q0 38 26 62.5t65 24.5zM230 768h-91l88 116h93l88 -116h-91l-43 61zM475 718v-134h-255v-128h255v-134h-255
v-188h255v-134h-392v718h392z" />
    <glyph glyph-name="uni1EC3" unicode="&#x1ec3;" 
d="M493 804q35 0 60 -21.5t25 -53.5q0 -35 -37 -66q-17 -14 -21 -22t-2 -17h-71q-4 34 30 64q14 13 19.5 20.5t5.5 13.5q0 13 -12 13q-9 0 -12 -6t-2 -25h-74v13q0 38 26 62.5t65 24.5zM271 580h-91l88 116h93l88 -116h-91l-43 61zM565 103q-43 -61 -101 -89t-143 -28
q-63 0 -114.5 22t-88 59.5t-56 89t-19.5 109.5q0 54 19 104.5t55 89.5t87 62t115 23q63 0 115 -21.5t89 -59.5t57.5 -91t20.5 -116q0 -9 -0.5 -15t-0.5 -15h-428q10 -60 51 -91.5t98 -31.5q43 0 73.5 12.5t58.5 39.5zM467 332q-14 47 -53 73.5t-93 26.5q-50 0 -86.5 -24.5
t-56.5 -75.5h289z" />
    <glyph glyph-name="uni1EC4" unicode="&#x1ec4;" horiz-adv-x="520" 
d="M146 903q0 46 12.5 72t32.5 36t44.5 5t49.5 -22q27 -20 39.5 -19t12.5 38h73q0 -45 -12.5 -71.5t-32 -36.5t-44.5 -5t-50 22q-27 20 -39.5 19t-12.5 -38h-73zM235 768h-91l88 116h93l88 -116h-91l-43 61zM475 718v-134h-255v-128h255v-134h-255v-188h255v-134h-392v718
h392z" />
    <glyph glyph-name="uni1EC5" unicode="&#x1ec5;" 
d="M187 715q0 46 12.5 72t32.5 36t44.5 5t49.5 -22q27 -20 39.5 -19t12.5 38h73q0 -45 -12.5 -71.5t-32 -36.5t-44.5 -5t-50 22q-27 20 -39.5 19t-12.5 -38h-73zM276 580h-91l88 116h93l88 -116h-91l-43 61zM565 103q-43 -61 -101 -89t-143 -28q-63 0 -114.5 22t-88 59.5
t-56 89t-19.5 109.5q0 54 19 104.5t55 89.5t87 62t115 23q63 0 115 -21.5t89 -59.5t57.5 -91t20.5 -116q0 -9 -0.5 -15t-0.5 -15h-428q10 -60 51 -91.5t98 -31.5q43 0 73.5 12.5t58.5 39.5zM467 332q-14 47 -53 73.5t-93 26.5q-50 0 -86.5 -24.5t-56.5 -75.5h289z" />
    <glyph glyph-name="uni1EC6" unicode="&#x1ec6;" horiz-adv-x="520" 
d="M235 788h-91l88 116h93l88 -116h-91l-43 61zM475 718v-134h-255v-128h255v-134h-255v-188h255v-134h-392v718h392zM260 -52q29 0 49 -20.5t20 -49.5t-20 -49.5t-49 -20.5t-49 20.5t-20 49.5t20 49.5t49 20.5z" />
    <glyph glyph-name="uni1EC7" unicode="&#x1ec7;" 
d="M276 600h-91l88 116h93l88 -116h-91l-43 61zM565 103q-43 -61 -101 -89t-143 -28q-63 0 -114.5 22t-88 59.5t-56 89t-19.5 109.5q0 54 19 104.5t55 89.5t87 62t115 23q63 0 115 -21.5t89 -59.5t57.5 -91t20.5 -116q0 -9 -0.5 -15t-0.5 -15h-428q10 -60 51 -91.5t98 -31.5
q43 0 73.5 12.5t58.5 39.5zM467 332q-14 47 -53 73.5t-93 26.5q-50 0 -86.5 -24.5t-56.5 -75.5h289zM320 -52q29 0 49 -20.5t20 -49.5t-20 -49.5t-49 -20.5t-49 20.5t-20 49.5t20 49.5t49 20.5z" />
    <glyph glyph-name="uni1EC8" unicode="&#x1ec8;" horiz-adv-x="280" 
d="M143 961q35 0 60 -21.5t25 -53.5q0 -35 -37 -66q-17 -14 -21 -22t-2 -17h-71q-4 34 30 64q14 13 19.5 20.5t5.5 13.5q0 13 -12 13q-9 0 -12 -6t-2 -25h-74v13q0 38 26 62.5t65 24.5zM209 718v-718h-137v718h137z" />
    <glyph glyph-name="uni1EC9" unicode="&#x1ec9;" horiz-adv-x="240" 
d="M191 773q35 0 60 -21.5t25 -53.5q0 -35 -37 -66q-17 -14 -21 -22t-2 -17h-71q-4 34 30 64q14 13 19.5 20.5t5.5 13.5q0 13 -12 13q-9 0 -12 -6t-2 -25h-74v13q0 38 26 62.5t65 24.5zM187 531v-531h-133v531h133z" />
    <glyph glyph-name="uni1ECA" unicode="&#x1eca;" horiz-adv-x="280" 
d="M209 718v-718h-137v718h137zM140 -52q29 0 49 -20.5t20 -49.5t-20 -49.5t-49 -20.5t-49 20.5t-20 49.5t20 49.5t49 20.5z" />
    <glyph glyph-name="uni1ECB" unicode="&#x1ecb;" horiz-adv-x="240" 
d="M120 750q36 0 60.5 -26t24.5 -62q0 -35 -25 -60t-60 -25q-37 0 -61 27.5t-24 64.5q0 35 25 58t60 23zM187 531v-531h-133v531h133zM120 -52q29 0 49 -20.5t20 -49.5t-20 -49.5t-49 -20.5t-49 20.5t-20 49.5t20 49.5t49 20.5z" />
    <glyph glyph-name="uni1ECC" unicode="&#x1ecc;" horiz-adv-x="840" 
d="M421 736q74 0 141.5 -28.5t119 -79t82 -120t30.5 -151.5q0 -79 -29 -147.5t-79 -118.5t-118 -79t-145 -29q-80 0 -148.5 29.5t-119 80.5t-79.5 120t-29 147q0 80 30 148.5t81 119t119 79.5t144 29zM420 605q-48 0 -91 -18t-75 -50.5t-50.5 -78t-18.5 -101.5
q0 -55 19 -99.5t51.5 -76.5t75.5 -49.5t91 -17.5q49 0 91.5 19t74 52t50 77.5t18.5 95.5q0 50 -17.5 94.5t-49 78.5t-75 54t-94.5 20zM420 -52q29 0 49 -20.5t20 -49.5t-20 -49.5t-49 -20.5t-49 20.5t-20 49.5t20 49.5t49 20.5z" />
    <glyph glyph-name="uni1ECD" unicode="&#x1ecd;" 
d="M317 545q58 0 109.5 -21.5t89.5 -59t60.5 -88.5t22.5 -110q0 -58 -21 -109t-58.5 -89t-89 -60t-112.5 -22q-58 0 -108 21.5t-87.5 59.5t-59 89t-21.5 109q0 60 22.5 111.5t60.5 89t88 58.5t104 21zM319 419q-31 0 -57.5 -11.5t-45.5 -32t-29.5 -48.5t-10.5 -61
q0 -34 10.5 -62t29 -48.5t45 -32t58.5 -11.5q31 0 57.5 11t46 31t31 48t11.5 63q0 34 -10.5 62t-30 48.5t-46 32t-59.5 11.5zM320 -52q29 0 49 -20.5t20 -49.5t-20 -49.5t-49 -20.5t-49 20.5t-20 49.5t20 49.5t49 20.5z" />
    <glyph glyph-name="uni1ECE" unicode="&#x1ece;" horiz-adv-x="840" 
d="M423 961q35 0 60 -21.5t25 -53.5q0 -35 -37 -66q-17 -14 -21 -22t-2 -17h-71q-4 34 30 64q14 13 19.5 20.5t5.5 13.5q0 13 -12 13q-9 0 -12 -6t-2 -25h-74v13q0 38 26 62.5t65 24.5zM421 736q74 0 141.5 -28.5t119 -79t82 -120t30.5 -151.5q0 -79 -29 -147.5t-79 -118.5
t-118 -79t-145 -29q-80 0 -148.5 29.5t-119 80.5t-79.5 120t-29 147q0 80 30 148.5t81 119t119 79.5t144 29zM420 605q-48 0 -91 -18t-75 -50.5t-50.5 -78t-18.5 -101.5q0 -55 19 -99.5t51.5 -76.5t75.5 -49.5t91 -17.5q49 0 91.5 19t74 52t50 77.5t18.5 95.5
q0 50 -17.5 94.5t-49 78.5t-75 54t-94.5 20z" />
    <glyph glyph-name="uni1ECF" unicode="&#x1ecf;" 
d="M323 773q35 0 60 -21.5t25 -53.5q0 -35 -37 -66q-17 -14 -21 -22t-2 -17h-71q-4 34 30 64q14 13 19.5 20.5t5.5 13.5q0 13 -12 13q-9 0 -12 -6t-2 -25h-74v13q0 38 26 62.5t65 24.5zM317 545q58 0 109.5 -21.5t89.5 -59t60.5 -88.5t22.5 -110q0 -58 -21 -109t-58.5 -89
t-89 -60t-112.5 -22q-58 0 -108 21.5t-87.5 59.5t-59 89t-21.5 109q0 60 22.5 111.5t60.5 89t88 58.5t104 21zM319 419q-31 0 -57.5 -11.5t-45.5 -32t-29.5 -48.5t-10.5 -61q0 -34 10.5 -62t29 -48.5t45 -32t58.5 -11.5q31 0 57.5 11t46 31t31 48t11.5 63q0 34 -10.5 62
t-30 48.5t-46 32t-59.5 11.5z" />
    <glyph glyph-name="uni1ED0" unicode="&#x1ed0;" horiz-adv-x="840" 
d="M604 932l-66 -112h86l88 112h-108zM371 768h-91l88 116h93l88 -116h-91l-43 61zM421 736q74 0 141.5 -28.5t119 -79t82 -120t30.5 -151.5q0 -79 -29 -147.5t-79 -118.5t-118 -79t-145 -29q-80 0 -148.5 29.5t-119 80.5t-79.5 120t-29 147q0 80 30 148.5t81 119t119 79.5
t144 29zM420 605q-48 0 -91 -18t-75 -50.5t-50.5 -78t-18.5 -101.5q0 -55 19 -99.5t51.5 -76.5t75.5 -49.5t91 -17.5q49 0 91.5 19t74 52t50 77.5t18.5 95.5q0 50 -17.5 94.5t-49 78.5t-75 54t-94.5 20z" />
    <glyph glyph-name="uni1ED1" unicode="&#x1ed1;" 
d="M504 744l-66 -112h86l88 112h-108zM271 580h-91l88 116h93l88 -116h-91l-43 61zM317 545q58 0 109.5 -21.5t89.5 -59t60.5 -88.5t22.5 -110q0 -58 -21 -109t-58.5 -89t-89 -60t-112.5 -22q-58 0 -108 21.5t-87.5 59.5t-59 89t-21.5 109q0 60 22.5 111.5t60.5 89t88 58.5
t104 21zM319 419q-31 0 -57.5 -11.5t-45.5 -32t-29.5 -48.5t-10.5 -61q0 -34 10.5 -62t29 -48.5t45 -32t58.5 -11.5q31 0 57.5 11t46 31t31 48t11.5 63q0 34 -10.5 62t-30 48.5t-46 32t-59.5 11.5z" />
    <glyph glyph-name="uni1ED2" unicode="&#x1ed2;" horiz-adv-x="840" 
d="M558 829h86l-66 112h-108zM373 768h-91l88 116h93l88 -116h-91l-43 61zM421 736q74 0 141.5 -28.5t119 -79t82 -120t30.5 -151.5q0 -79 -29 -147.5t-79 -118.5t-118 -79t-145 -29q-80 0 -148.5 29.5t-119 80.5t-79.5 120t-29 147q0 80 30 148.5t81 119t119 79.5t144 29z
M420 605q-48 0 -91 -18t-75 -50.5t-50.5 -78t-18.5 -101.5q0 -55 19 -99.5t51.5 -76.5t75.5 -49.5t91 -17.5q49 0 91.5 19t74 52t50 77.5t18.5 95.5q0 50 -17.5 94.5t-49 78.5t-75 54t-94.5 20z" />
    <glyph glyph-name="uni1ED3" unicode="&#x1ed3;" 
d="M458 641h86l-66 112h-108zM273 580h-91l88 116h93l88 -116h-91l-43 61zM317 545q58 0 109.5 -21.5t89.5 -59t60.5 -88.5t22.5 -110q0 -58 -21 -109t-58.5 -89t-89 -60t-112.5 -22q-58 0 -108 21.5t-87.5 59.5t-59 89t-21.5 109q0 60 22.5 111.5t60.5 89t88 58.5t104 21z
M319 419q-31 0 -57.5 -11.5t-45.5 -32t-29.5 -48.5t-10.5 -61q0 -34 10.5 -62t29 -48.5t45 -32t58.5 -11.5q31 0 57.5 11t46 31t31 48t11.5 63q0 34 -10.5 62t-30 48.5t-46 32t-59.5 11.5z" />
    <glyph glyph-name="uni1ED4" unicode="&#x1ed4;" horiz-adv-x="840" 
d="M593 992q35 0 60 -21.5t25 -53.5q0 -35 -37 -66q-17 -14 -21 -22t-2 -17h-71q-4 34 30 64q14 13 19.5 20.5t5.5 13.5q0 13 -12 13q-9 0 -12 -6t-2 -25h-74v13q0 38 26 62.5t65 24.5zM371 768h-91l88 116h93l88 -116h-91l-43 61zM421 736q74 0 141.5 -28.5t119 -79
t82 -120t30.5 -151.5q0 -79 -29 -147.5t-79 -118.5t-118 -79t-145 -29q-80 0 -148.5 29.5t-119 80.5t-79.5 120t-29 147q0 80 30 148.5t81 119t119 79.5t144 29zM420 605q-48 0 -91 -18t-75 -50.5t-50.5 -78t-18.5 -101.5q0 -55 19 -99.5t51.5 -76.5t75.5 -49.5t91 -17.5
q49 0 91.5 19t74 52t50 77.5t18.5 95.5q0 50 -17.5 94.5t-49 78.5t-75 54t-94.5 20z" />
    <glyph glyph-name="uni1ED5" unicode="&#x1ed5;" 
d="M493 804q35 0 60 -21.5t25 -53.5q0 -35 -37 -66q-17 -14 -21 -22t-2 -17h-71q-4 34 30 64q14 13 19.5 20.5t5.5 13.5q0 13 -12 13q-9 0 -12 -6t-2 -25h-74v13q0 38 26 62.5t65 24.5zM271 580h-91l88 116h93l88 -116h-91l-43 61zM317 545q58 0 109.5 -21.5t89.5 -59
t60.5 -88.5t22.5 -110q0 -58 -21 -109t-58.5 -89t-89 -60t-112.5 -22q-58 0 -108 21.5t-87.5 59.5t-59 89t-21.5 109q0 60 22.5 111.5t60.5 89t88 58.5t104 21zM319 419q-31 0 -57.5 -11.5t-45.5 -32t-29.5 -48.5t-10.5 -61q0 -34 10.5 -62t29 -48.5t45 -32t58.5 -11.5
q31 0 57.5 11t46 31t31 48t11.5 63q0 34 -10.5 62t-30 48.5t-46 32t-59.5 11.5z" />
    <glyph glyph-name="uni1ED6" unicode="&#x1ed6;" horiz-adv-x="840" 
d="M287 903q0 46 12.5 72t32.5 36t44.5 5t49.5 -22q27 -20 39.5 -19t12.5 38h73q0 -45 -12.5 -71.5t-32 -36.5t-44.5 -5t-50 22q-27 20 -39.5 19t-12.5 -38h-73zM376 768h-91l88 116h93l88 -116h-91l-43 61zM421 736q74 0 141.5 -28.5t119 -79t82 -120t30.5 -151.5
q0 -79 -29 -147.5t-79 -118.5t-118 -79t-145 -29q-80 0 -148.5 29.5t-119 80.5t-79.5 120t-29 147q0 80 30 148.5t81 119t119 79.5t144 29zM420 605q-48 0 -91 -18t-75 -50.5t-50.5 -78t-18.5 -101.5q0 -55 19 -99.5t51.5 -76.5t75.5 -49.5t91 -17.5q49 0 91.5 19t74 52
t50 77.5t18.5 95.5q0 50 -17.5 94.5t-49 78.5t-75 54t-94.5 20z" />
    <glyph glyph-name="uni1ED7" unicode="&#x1ed7;" 
d="M187 715q0 46 12.5 72t32.5 36t44.5 5t49.5 -22q27 -20 39.5 -19t12.5 38h73q0 -45 -12.5 -71.5t-32 -36.5t-44.5 -5t-50 22q-27 20 -39.5 19t-12.5 -38h-73zM276 580h-91l88 116h93l88 -116h-91l-43 61zM317 545q58 0 109.5 -21.5t89.5 -59t60.5 -88.5t22.5 -110
q0 -58 -21 -109t-58.5 -89t-89 -60t-112.5 -22q-58 0 -108 21.5t-87.5 59.5t-59 89t-21.5 109q0 60 22.5 111.5t60.5 89t88 58.5t104 21zM319 419q-31 0 -57.5 -11.5t-45.5 -32t-29.5 -48.5t-10.5 -61q0 -34 10.5 -62t29 -48.5t45 -32t58.5 -11.5q31 0 57.5 11t46 31t31 48
t11.5 63q0 34 -10.5 62t-30 48.5t-46 32t-59.5 11.5z" />
    <glyph glyph-name="uni1ED8" unicode="&#x1ed8;" horiz-adv-x="840" 
d="M376 788h-91l88 116h93l88 -116h-91l-43 61zM421 736q74 0 141.5 -28.5t119 -79t82 -120t30.5 -151.5q0 -79 -29 -147.5t-79 -118.5t-118 -79t-145 -29q-80 0 -148.5 29.5t-119 80.5t-79.5 120t-29 147q0 80 30 148.5t81 119t119 79.5t144 29zM420 605q-48 0 -91 -18
t-75 -50.5t-50.5 -78t-18.5 -101.5q0 -55 19 -99.5t51.5 -76.5t75.5 -49.5t91 -17.5q49 0 91.5 19t74 52t50 77.5t18.5 95.5q0 50 -17.5 94.5t-49 78.5t-75 54t-94.5 20zM420 -52q29 0 49 -20.5t20 -49.5t-20 -49.5t-49 -20.5t-49 20.5t-20 49.5t20 49.5t49 20.5z" />
    <glyph glyph-name="uni1ED9" unicode="&#x1ed9;" 
d="M276 600h-91l88 116h93l88 -116h-91l-43 61zM317 545q58 0 109.5 -21.5t89.5 -59t60.5 -88.5t22.5 -110q0 -58 -21 -109t-58.5 -89t-89 -60t-112.5 -22q-58 0 -108 21.5t-87.5 59.5t-59 89t-21.5 109q0 60 22.5 111.5t60.5 89t88 58.5t104 21zM319 419q-31 0 -57.5 -11.5
t-45.5 -32t-29.5 -48.5t-10.5 -61q0 -34 10.5 -62t29 -48.5t45 -32t58.5 -11.5q31 0 57.5 11t46 31t31 48t11.5 63q0 34 -10.5 62t-30 48.5t-46 32t-59.5 11.5zM320 -52q29 0 49 -20.5t20 -49.5t-20 -49.5t-49 -20.5t-49 20.5t-20 49.5t20 49.5t49 20.5z" />
    <glyph glyph-name="uni1EDA" unicode="&#x1eda;" horiz-adv-x="840" 
d="M470 793h-86l66 112h108zM637 666q71 -51 114 -130t43 -179q0 -79 -29 -147.5t-79 -118.5t-118 -79t-145 -29q-80 0 -148.5 29.5t-119 80.5t-79.5 120t-29 147q0 80 30 148.5t81 119t119 79.5t144 29q28 0 55 -4t53 -12q24 3 39.5 21.5t17.5 45.5h112q-2 -34 -18 -66
t-43 -55zM422 114q49 0 91.5 19t74 52t50 77.5t18.5 95.5q0 50 -17.5 94.5t-49 78.5t-75 54t-94.5 20q-48 0 -91 -18t-75 -50.5t-50.5 -78t-18.5 -101.5q0 -55 19 -99.5t51.5 -76.5t75.5 -49.5t91 -17.5z" />
    <glyph glyph-name="uni1EDB" unicode="&#x1edb;" 
d="M370 605h-86l66 112h108zM505 475q43 -38 68.5 -92t25.5 -117q0 -58 -21 -109t-58.5 -89t-89 -60t-112.5 -22q-58 0 -108 21.5t-87.5 59.5t-59 89t-21.5 109q0 60 22.5 111.5t60.5 89t88 58.5t104 21q23 0 44.5 -3.5t41.5 -9.5q23 4 37.5 22t16.5 45h112
q-2 -35 -18.5 -67.5t-45.5 -56.5zM319 112q31 0 57.5 11t46 31t31 48t11.5 63q0 34 -10.5 62t-30 48.5t-46 32t-59.5 11.5q-31 0 -57.5 -11.5t-45.5 -32t-29.5 -48.5t-10.5 -61q0 -34 10.5 -62t29 -48.5t45 -32t58.5 -11.5z" />
    <glyph glyph-name="uni1EDC" unicode="&#x1edc;" horiz-adv-x="840" 
d="M381 793l-88 112h108l66 -112h-86zM637 666q71 -51 114 -130t43 -179q0 -79 -29 -147.5t-79 -118.5t-118 -79t-145 -29q-80 0 -148.5 29.5t-119 80.5t-79.5 120t-29 147q0 80 30 148.5t81 119t119 79.5t144 29q28 0 55 -4t53 -12q24 3 39.5 21.5t17.5 45.5h112
q-2 -34 -18 -66t-43 -55zM422 114q49 0 91.5 19t74 52t50 77.5t18.5 95.5q0 50 -17.5 94.5t-49 78.5t-75 54t-94.5 20q-48 0 -91 -18t-75 -50.5t-50.5 -78t-18.5 -101.5q0 -55 19 -99.5t51.5 -76.5t75.5 -49.5t91 -17.5z" />
    <glyph glyph-name="uni1EDD" unicode="&#x1edd;" 
d="M281 605l-88 112h108l66 -112h-86zM505 475q43 -38 68.5 -92t25.5 -117q0 -58 -21 -109t-58.5 -89t-89 -60t-112.5 -22q-58 0 -108 21.5t-87.5 59.5t-59 89t-21.5 109q0 60 22.5 111.5t60.5 89t88 58.5t104 21q23 0 44.5 -3.5t41.5 -9.5q23 4 37.5 22t16.5 45h112
q-2 -35 -18.5 -67.5t-45.5 -56.5zM319 112q31 0 57.5 11t46 31t31 48t11.5 63q0 34 -10.5 62t-30 48.5t-46 32t-59.5 11.5q-31 0 -57.5 -11.5t-45.5 -32t-29.5 -48.5t-10.5 -61q0 -34 10.5 -62t29 -48.5t45 -32t58.5 -11.5z" />
    <glyph glyph-name="uni1EDE" unicode="&#x1ede;" horiz-adv-x="840" 
d="M420 892q-9 0 -12 -6t-2 -25h-74v13q0 38 26 62.5t65 24.5q35 0 60 -21.5t25 -53.5q0 -35 -37 -66q-17 -14 -21 -22t-2 -17h-71q-4 34 30 64q14 13 19.5 20.5t5.5 13.5q0 13 -12 13zM637 666q71 -51 114 -130t43 -179q0 -79 -29 -147.5t-79 -118.5t-118 -79t-145 -29
q-80 0 -148.5 29.5t-119 80.5t-79.5 120t-29 147q0 80 30 148.5t81 119t119 79.5t144 29q28 0 55 -4t53 -12q24 3 39.5 21.5t17.5 45.5h112q-2 -34 -18 -66t-43 -55zM422 114q49 0 91.5 19t74 52t50 77.5t18.5 95.5q0 50 -17.5 94.5t-49 78.5t-75 54t-94.5 20q-48 0 -91 -18
t-75 -50.5t-50.5 -78t-18.5 -101.5q0 -55 19 -99.5t51.5 -76.5t75.5 -49.5t91 -17.5z" />
    <glyph glyph-name="uni1EDF" unicode="&#x1edf;" 
d="M320 704q-9 0 -12 -6t-2 -25h-74v13q0 38 26 62.5t65 24.5q35 0 60 -21.5t25 -53.5q0 -35 -37 -66q-17 -14 -21 -22t-2 -17h-71q-4 34 30 64q14 13 19.5 20.5t5.5 13.5q0 13 -12 13zM505 475q43 -38 68.5 -92t25.5 -117q0 -58 -21 -109t-58.5 -89t-89 -60t-112.5 -22
q-58 0 -108 21.5t-87.5 59.5t-59 89t-21.5 109q0 60 22.5 111.5t60.5 89t88 58.5t104 21q23 0 44.5 -3.5t41.5 -9.5q23 4 37.5 22t16.5 45h112q-2 -35 -18.5 -67.5t-45.5 -56.5zM319 112q31 0 57.5 11t46 31t31 48t11.5 63q0 34 -10.5 62t-30 48.5t-46 32t-59.5 11.5
q-31 0 -57.5 -11.5t-45.5 -32t-29.5 -48.5t-10.5 -61q0 -34 10.5 -62t29 -48.5t45 -32t58.5 -11.5z" />
    <glyph glyph-name="uni1EE0" unicode="&#x1ee0;" horiz-adv-x="840" 
d="M413 813q-27 20 -39.5 19t-12.5 -38h-73q0 46 12.5 72.5t32.5 36.5t45 5t49 -23q27 -20 39.5 -19t12.5 38h73q0 -45 -12.5 -71.5t-32.5 -37t-45 -5.5t-49 23zM637 666q71 -51 114 -130t43 -179q0 -79 -29 -147.5t-79 -118.5t-118 -79t-145 -29q-80 0 -148.5 29.5
t-119 80.5t-79.5 120t-29 147q0 80 30 148.5t81 119t119 79.5t144 29q28 0 55 -4t53 -12q24 3 39.5 21.5t17.5 45.5h112q-2 -34 -18 -66t-43 -55zM422 114q49 0 91.5 19t74 52t50 77.5t18.5 95.5q0 50 -17.5 94.5t-49 78.5t-75 54t-94.5 20q-48 0 -91 -18t-75 -50.5
t-50.5 -78t-18.5 -101.5q0 -55 19 -99.5t51.5 -76.5t75.5 -49.5t91 -17.5z" />
    <glyph glyph-name="uni1EE1" unicode="&#x1ee1;" 
d="M313 625q-27 20 -39.5 19t-12.5 -38h-73q0 46 12.5 72.5t32.5 36.5t45 5t49 -23q27 -20 39.5 -19t12.5 38h73q0 -45 -12.5 -71.5t-32.5 -37t-45 -5.5t-49 23zM505 475q43 -38 68.5 -92t25.5 -117q0 -58 -21 -109t-58.5 -89t-89 -60t-112.5 -22q-58 0 -108 21.5
t-87.5 59.5t-59 89t-21.5 109q0 60 22.5 111.5t60.5 89t88 58.5t104 21q23 0 44.5 -3.5t41.5 -9.5q23 4 37.5 22t16.5 45h112q-2 -35 -18.5 -67.5t-45.5 -56.5zM319 112q31 0 57.5 11t46 31t31 48t11.5 63q0 34 -10.5 62t-30 48.5t-46 32t-59.5 11.5q-31 0 -57.5 -11.5
t-45.5 -32t-29.5 -48.5t-10.5 -61q0 -34 10.5 -62t29 -48.5t45 -32t58.5 -11.5z" />
    <glyph glyph-name="uni1EE2" unicode="&#x1ee2;" horiz-adv-x="840" 
d="M637 666q71 -51 114 -130t43 -179q0 -79 -29 -147.5t-79 -118.5t-118 -79t-145 -29q-80 0 -148.5 29.5t-119 80.5t-79.5 120t-29 147q0 80 30 148.5t81 119t119 79.5t144 29q28 0 55 -4t53 -12q24 3 39.5 21.5t17.5 45.5h112q-2 -34 -18 -66t-43 -55zM422 114
q49 0 91.5 19t74 52t50 77.5t18.5 95.5q0 50 -17.5 94.5t-49 78.5t-75 54t-94.5 20q-48 0 -91 -18t-75 -50.5t-50.5 -78t-18.5 -101.5q0 -55 19 -99.5t51.5 -76.5t75.5 -49.5t91 -17.5zM420 -52q29 0 49 -20.5t20 -49.5t-20 -49.5t-49 -20.5t-49 20.5t-20 49.5t20 49.5
t49 20.5z" />
    <glyph glyph-name="uni1EE3" unicode="&#x1ee3;" 
d="M505 475q43 -38 68.5 -92t25.5 -117q0 -58 -21 -109t-58.5 -89t-89 -60t-112.5 -22q-58 0 -108 21.5t-87.5 59.5t-59 89t-21.5 109q0 60 22.5 111.5t60.5 89t88 58.5t104 21q23 0 44.5 -3.5t41.5 -9.5q23 4 37.5 22t16.5 45h112q-2 -35 -18.5 -67.5t-45.5 -56.5zM319 112
q31 0 57.5 11t46 31t31 48t11.5 63q0 34 -10.5 62t-30 48.5t-46 32t-59.5 11.5q-31 0 -57.5 -11.5t-45.5 -32t-29.5 -48.5t-10.5 -61q0 -34 10.5 -62t29 -48.5t45 -32t58.5 -11.5zM320 -52q29 0 49 -20.5t20 -49.5t-20 -49.5t-49 -20.5t-49 20.5t-20 49.5t20 49.5t49 20.5z
" />
    <glyph glyph-name="uni1EE4" unicode="&#x1ee4;" 
d="M214 718v-486q0 -59 27 -88.5t77 -29.5q29 0 53.5 11.5t37.5 31.5q11 17 14 41t3 53v467h137v-457q0 -30 -1.5 -56t-7.5 -51t-17.5 -48t-31.5 -47q-35 -40 -80 -58t-104 -18q-56 0 -100 16.5t-78 51.5q-22 23 -35 46.5t-20 50t-9 56.5t-2 65v449h137zM320 -52
q29 0 49 -20.5t20 -49.5t-20 -49.5t-49 -20.5t-49 20.5t-20 49.5t20 49.5t49 20.5z" />
    <glyph glyph-name="uni1EE5" unicode="&#x1ee5;" horiz-adv-x="600" 
d="M201 531v-277q0 -72 23.5 -108.5t76.5 -36.5q54 0 77 35.5t23 103.5v283h133v-245q0 -37 -2 -69t-8 -60.5t-18.5 -54t-33.5 -48.5q-32 -35 -73.5 -51t-97.5 -16q-97 0 -154.5 47.5t-73.5 141.5q-5 32 -5 55.5v56.5v243h133zM300 -52q29 0 49 -20.5t20 -49.5t-20 -49.5
t-49 -20.5t-49 20.5t-20 49.5t20 49.5t49 20.5z" />
    <glyph glyph-name="uni1EE6" unicode="&#x1ee6;" 
d="M323 961q35 0 60 -21.5t25 -53.5q0 -35 -37 -66q-17 -14 -21 -22t-2 -17h-71q-4 34 30 64q14 13 19.5 20.5t5.5 13.5q0 13 -12 13q-9 0 -12 -6t-2 -25h-74v13q0 38 26 62.5t65 24.5zM214 718v-486q0 -59 27 -88.5t77 -29.5q29 0 53.5 11.5t37.5 31.5q11 17 14 41t3 53
v467h137v-457q0 -30 -1.5 -56t-7.5 -51t-17.5 -48t-31.5 -47q-35 -40 -80 -58t-104 -18q-56 0 -100 16.5t-78 51.5q-22 23 -35 46.5t-20 50t-9 56.5t-2 65v449h137z" />
    <glyph glyph-name="uni1EE7" unicode="&#x1ee7;" horiz-adv-x="600" 
d="M303 773q35 0 60 -21.5t25 -53.5q0 -35 -37 -66q-17 -14 -21 -22t-2 -17h-71q-4 34 30 64q14 13 19.5 20.5t5.5 13.5q0 13 -12 13q-9 0 -12 -6t-2 -25h-74v13q0 38 26 62.5t65 24.5zM201 531v-277q0 -72 23.5 -108.5t76.5 -36.5q54 0 77 35.5t23 103.5v283h133v-245
q0 -37 -2 -69t-8 -60.5t-18.5 -54t-33.5 -48.5q-32 -35 -73.5 -51t-97.5 -16q-97 0 -154.5 47.5t-73.5 141.5q-5 32 -5 55.5v56.5v243h133z" />
    <glyph glyph-name="uni1EE8" unicode="&#x1ee8;" 
d="M370 793h-86l66 112h108zM652 787q-2 -42 -26 -80t-63 -61v-385q0 -30 -1.5 -56t-7.5 -51t-17.5 -48t-31.5 -47q-35 -40 -80 -58t-104 -18q-56 0 -100 16.5t-78 51.5q-22 23 -35 46.5t-20 50t-9 56.5t-2 65v449h137v-486q0 -59 27 -88.5t77 -29.5q29 0 53.5 11.5
t37.5 31.5q11 17 14 41t3 53v467h48v1q27 0 45.5 19t20.5 49h112z" />
    <glyph glyph-name="uni1EE9" unicode="&#x1ee9;" horiz-adv-x="600" 
d="M350 605h-86l66 112h108zM609 599q-2 -38 -22 -73.5t-53 -58.5v-181q0 -37 -2 -69t-8 -60.5t-18.5 -54t-33.5 -48.5q-32 -35 -73.5 -51t-97.5 -16q-97 0 -154.5 47.5t-73.5 141.5q-5 32 -5 55.5v56.5v243h133v-277q0 -72 23.5 -108.5t76.5 -36.5q54 0 77 35.5t23 103.5
v283h30q27 0 45.5 19t20.5 49h112z" />
    <glyph glyph-name="uni1EEA" unicode="&#x1eea;" 
d="M281 793l-88 112h108l66 -112h-86zM652 787q-2 -42 -26 -80t-63 -61v-385q0 -30 -1.5 -56t-7.5 -51t-17.5 -48t-31.5 -47q-35 -40 -80 -58t-104 -18q-56 0 -100 16.5t-78 51.5q-22 23 -35 46.5t-20 50t-9 56.5t-2 65v449h137v-486q0 -59 27 -88.5t77 -29.5
q29 0 53.5 11.5t37.5 31.5q11 17 14 41t3 53v467h48v1q27 0 45.5 19t20.5 49h112z" />
    <glyph glyph-name="uni1EEB" unicode="&#x1eeb;" horiz-adv-x="600" 
d="M261 605l-88 112h108l66 -112h-86zM609 599q-2 -38 -22 -73.5t-53 -58.5v-181q0 -37 -2 -69t-8 -60.5t-18.5 -54t-33.5 -48.5q-32 -35 -73.5 -51t-97.5 -16q-97 0 -154.5 47.5t-73.5 141.5q-5 32 -5 55.5v56.5v243h133v-277q0 -72 23.5 -108.5t76.5 -36.5q54 0 77 35.5
t23 103.5v283h30q27 0 45.5 19t20.5 49h112z" />
    <glyph glyph-name="uni1EEC" unicode="&#x1eec;" 
d="M320 892q-9 0 -12 -6t-2 -25h-74v13q0 38 26 62.5t65 24.5q35 0 60 -21.5t25 -53.5q0 -35 -37 -66q-17 -14 -21 -22t-2 -17h-71q-4 34 30 64q14 13 19.5 20.5t5.5 13.5q0 13 -12 13zM652 787q-2 -42 -26 -80t-63 -61v-385q0 -30 -1.5 -56t-7.5 -51t-17.5 -48t-31.5 -47
q-35 -40 -80 -58t-104 -18q-56 0 -100 16.5t-78 51.5q-22 23 -35 46.5t-20 50t-9 56.5t-2 65v449h137v-486q0 -59 27 -88.5t77 -29.5q29 0 53.5 11.5t37.5 31.5q11 17 14 41t3 53v467h48v1q27 0 45.5 19t20.5 49h112z" />
    <glyph glyph-name="uni1EED" unicode="&#x1eed;" horiz-adv-x="600" 
d="M300 704q-9 0 -12 -6t-2 -25h-74v13q0 38 26 62.5t65 24.5q35 0 60 -21.5t25 -53.5q0 -35 -37 -66q-17 -14 -21 -22t-2 -17h-71q-4 34 30 64q14 13 19.5 20.5t5.5 13.5q0 13 -12 13zM609 599q-2 -38 -22 -73.5t-53 -58.5v-181q0 -37 -2 -69t-8 -60.5t-18.5 -54
t-33.5 -48.5q-32 -35 -73.5 -51t-97.5 -16q-97 0 -154.5 47.5t-73.5 141.5q-5 32 -5 55.5v56.5v243h133v-277q0 -72 23.5 -108.5t76.5 -36.5q54 0 77 35.5t23 103.5v283h30q27 0 45.5 19t20.5 49h112z" />
    <glyph glyph-name="uni1EEE" unicode="&#x1eee;" 
d="M313 813q-27 20 -39.5 19t-12.5 -38h-73q0 46 12.5 72.5t32.5 36.5t45 5t49 -23q27 -20 39.5 -19t12.5 38h73q0 -45 -12.5 -71.5t-32.5 -37t-45 -5.5t-49 23zM652 787q-2 -42 -26 -80t-63 -61v-385q0 -30 -1.5 -56t-7.5 -51t-17.5 -48t-31.5 -47q-35 -40 -80 -58
t-104 -18q-56 0 -100 16.5t-78 51.5q-22 23 -35 46.5t-20 50t-9 56.5t-2 65v449h137v-486q0 -59 27 -88.5t77 -29.5q29 0 53.5 11.5t37.5 31.5q11 17 14 41t3 53v467h48v1q27 0 45.5 19t20.5 49h112z" />
    <glyph glyph-name="uni1EEF" unicode="&#x1eef;" horiz-adv-x="600" 
d="M293 625q-27 20 -39.5 19t-12.5 -38h-73q0 46 12.5 72.5t32.5 36.5t45 5t49 -23q27 -20 39.5 -19t12.5 38h73q0 -45 -12.5 -71.5t-32.5 -37t-45 -5.5t-49 23zM609 599q-2 -38 -22 -73.5t-53 -58.5v-181q0 -37 -2 -69t-8 -60.5t-18.5 -54t-33.5 -48.5q-32 -35 -73.5 -51
t-97.5 -16q-97 0 -154.5 47.5t-73.5 141.5q-5 32 -5 55.5v56.5v243h133v-277q0 -72 23.5 -108.5t76.5 -36.5q54 0 77 35.5t23 103.5v283h30q27 0 45.5 19t20.5 49h112z" />
    <glyph glyph-name="uni1EF0" unicode="&#x1ef0;" 
d="M652 787q-2 -42 -26 -80t-63 -61v-385q0 -30 -1.5 -56t-7.5 -51t-17.5 -48t-31.5 -47q-35 -40 -80 -58t-104 -18q-56 0 -100 16.5t-78 51.5q-22 23 -35 46.5t-20 50t-9 56.5t-2 65v449h137v-486q0 -59 27 -88.5t77 -29.5q29 0 53.5 11.5t37.5 31.5q11 17 14 41t3 53v467
h48v1q27 0 45.5 19t20.5 49h112zM320 -52q29 0 49 -20.5t20 -49.5t-20 -49.5t-49 -20.5t-49 20.5t-20 49.5t20 49.5t49 20.5z" />
    <glyph glyph-name="uni1EF1" unicode="&#x1ef1;" horiz-adv-x="600" 
d="M609 599q-2 -38 -22 -73.5t-53 -58.5v-181q0 -37 -2 -69t-8 -60.5t-18.5 -54t-33.5 -48.5q-32 -35 -73.5 -51t-97.5 -16q-97 0 -154.5 47.5t-73.5 141.5q-5 32 -5 55.5v56.5v243h133v-277q0 -72 23.5 -108.5t76.5 -36.5q54 0 77 35.5t23 103.5v283h30q27 0 45.5 19
t20.5 49h112zM300 -52q29 0 49 -20.5t20 -49.5t-20 -49.5t-49 -20.5t-49 20.5t-20 49.5t20 49.5t49 20.5z" />
    <glyph glyph-name="Ygrave" unicode="&#x1ef2;" horiz-adv-x="620" 
d="M271 793h86l-66 112h-108zM178 718l134 -257l132 257h146l-210 -407v-311h-137v311l-212 407h147z" />
    <glyph glyph-name="ygrave" unicode="&#x1ef3;" horiz-adv-x="580" 
d="M251 605h86l-66 112h-108zM145 531l138 -333l153 333h137l-334 -725h-137l109 234l-202 491h136z" />
    <glyph glyph-name="uni1EF4" unicode="&#x1ef4;" horiz-adv-x="620" 
d="M178 718l134 -257l132 257h146l-210 -407v-311h-137v311l-212 407h147zM310 -52q29 0 49 -20.5t20 -49.5t-20 -49.5t-49 -20.5t-49 20.5t-20 49.5t20 49.5t49 20.5z" />
    <glyph glyph-name="uni1EF5" unicode="&#x1ef5;" horiz-adv-x="580" 
d="M145 531l138 -333l153 333h137l-334 -725h-137l109 234l-202 491h136zM426 -52q29 0 49 -20.5t20 -49.5t-20 -49.5t-49 -20.5t-49 20.5t-20 49.5t20 49.5t49 20.5z" />
    <glyph glyph-name="uni1EF6" unicode="&#x1ef6;" horiz-adv-x="620" 
d="M313 961q35 0 60 -21.5t25 -53.5q0 -35 -37 -66q-17 -14 -21 -22t-2 -17h-71q-4 34 30 64q14 13 19.5 20.5t5.5 13.5q0 13 -12 13q-9 0 -12 -6t-2 -25h-74v13q0 38 26 62.5t65 24.5zM178 718l134 -257l132 257h146l-210 -407v-311h-137v311l-212 407h147z" />
    <glyph glyph-name="uni1EF7" unicode="&#x1ef7;" horiz-adv-x="580" 
d="M293 773q35 0 60 -21.5t25 -53.5q0 -35 -37 -66q-17 -14 -21 -22t-2 -17h-71q-4 34 30 64q14 13 19.5 20.5t5.5 13.5q0 13 -12 13q-9 0 -12 -6t-2 -25h-74v13q0 38 26 62.5t65 24.5zM145 531l138 -333l153 333h137l-334 -725h-137l109 234l-202 491h136z" />
    <glyph glyph-name="uni1EF8" unicode="&#x1ef8;" horiz-adv-x="620" 
d="M178 794q0 46 12.5 72.5t32.5 36.5t45 5t49 -23q27 -20 39.5 -19t12.5 38h73q0 -45 -12.5 -71.5t-32.5 -37t-45 -5.5t-49 23q-27 20 -39.5 19t-12.5 -38h-73zM178 718l134 -257l132 257h146l-210 -407v-311h-137v311l-212 407h147z" />
    <glyph glyph-name="uni1EF9" unicode="&#x1ef9;" horiz-adv-x="580" 
d="M158 606q0 46 12.5 72.5t32.5 36.5t45 5t49 -23q27 -20 39.5 -19t12.5 38h73q0 -45 -12.5 -71.5t-32.5 -37t-45 -5.5t-49 23q-27 20 -39.5 19t-12.5 -38h-73zM145 531l138 -333l153 333h137l-334 -725h-137l109 234l-202 491h136z" />
    <glyph glyph-name="endash" unicode="&#x2013;" horiz-adv-x="500" 
d="M-6 347h512v-117h-512v117z" />
    <glyph glyph-name="emdash" unicode="&#x2014;" horiz-adv-x="1000" 
d="M-6 347h1012v-117h-1012v117z" />
    <glyph glyph-name="quoteleft" unicode="&#x2018;" horiz-adv-x="280" 
d="M81 463v67q0 65 16.5 111.5t53.5 94.5l47 -37q-9 -14 -20.5 -34.5t-22.5 -62.5h49v-139h-123z" />
    <glyph glyph-name="quoteright" unicode="&#x2019;" horiz-adv-x="280" 
d="M199 736v-67q0 -65 -16 -111.5t-53 -94.5l-48 37q23 34 30.5 57t12.5 40h-49v139h123z" />
    <glyph glyph-name="quotesinglbase" unicode="&#x201a;" horiz-adv-x="280" 
d="M199 139v-67q0 -65 -16 -111.5t-53 -94.5l-48 37q23 34 30.5 57t12.5 40h-49v139h123z" />
    <glyph glyph-name="quotedblleft" unicode="&#x201c;" horiz-adv-x="480" 
d="M80 463v67q0 65 16.5 111.5t53.5 94.5l47 -37q-9 -14 -20.5 -34.5t-22.5 -62.5h49v-139h-123zM279 463v67q0 65 16.5 111.5t53.5 94.5l47 -37q-9 -14 -20.5 -34.5t-22.5 -62.5h49v-139h-123z" />
    <glyph glyph-name="quotedblright" unicode="&#x201d;" horiz-adv-x="480" 
d="M201 736v-67q0 -65 -16 -111.5t-53 -94.5l-48 37q23 34 30.5 57t12.5 40h-49v139h123zM400 736v-67q0 -65 -16 -111.5t-53 -94.5l-48 37q23 34 30.5 57t12.5 40h-49v139h123z" />
    <glyph glyph-name="quotedblbase" unicode="&#x201e;" horiz-adv-x="480" 
d="M201 139v-67q0 -65 -16 -111.5t-53 -94.5l-48 37q23 34 30.5 57t12.5 40h-49v139h123zM400 139v-67q0 -65 -16 -111.5t-53 -94.5l-48 37q23 34 30.5 57t12.5 40h-49v139h123z" />
    <glyph glyph-name="dagger" unicode="&#x2020;" horiz-adv-x="560" 
d="M346 736l-24 -267l221 24v-133l-221 27l24 -581h-131l25 581l-221 -27v133l221 -24l-25 267h131z" />
    <glyph glyph-name="daggerdbl" unicode="&#x2021;" horiz-adv-x="560" 
d="M346 736l-25 -228l222 23v-131l-222 26l25 -158l-25 -157l222 27v-134l-222 26l25 -224h-132l24 224l-219 -26v134l219 -27l-24 157l24 158l-219 -26v131l219 -23l-24 228h132z" />
    <glyph glyph-name="bullet" unicode="&#x2022;" horiz-adv-x="600" 
d="M300 514q31 0 58.5 -12t47.5 -32t32 -47.5t12 -58.5t-12 -58t-32 -47.5t-47.5 -32.5t-58.5 -12t-58.5 12t-48 32.5t-32 47.5t-11.5 58t12 58.5t32 47.5t47.5 32t58.5 12z" />
    <glyph glyph-name="ellipsis" unicode="&#x2026;" horiz-adv-x="1000" 
d="M167 139q32 0 54 -22t22 -54t-22 -54.5t-54 -22.5t-54.5 22.5t-22.5 54.5t22.5 54t54.5 22zM500 139q32 0 54.5 -22t22.5 -54t-22.5 -54.5t-54.5 -22.5t-54 22.5t-22 54.5t22 54t54 22zM833 139q32 0 54.5 -22t22.5 -54t-22.5 -54.5t-54.5 -22.5t-54 22.5t-22 54.5t22 54
t54 22z" />
    <glyph glyph-name="perthousand" unicode="&#x2030;" horiz-adv-x="1280" 
d="M436 704q64 0 120 11.5t104 34.5h98l-569 -799h-98l486 686q-29 -5 -67 -9.5t-87 -4.5q-36 0 -71 3q4 -12 7.5 -27.5t3.5 -34.5q0 -35 -13 -66t-36 -54.5t-54.5 -37t-67.5 -13.5t-67 13t-54.5 36t-37 54t-13.5 67q0 38 14.5 69.5t38.5 54.5t54 36t61 13q21 0 47 -5
t57 -11t66.5 -11t77.5 -5zM191 647q-35 0 -58.5 -24t-23.5 -58t23.5 -58.5t58.5 -24.5q34 0 58.5 24.5t24.5 58.5q0 35 -24.5 58.5t-58.5 23.5zM667 324q35 0 66.5 -13.5t55 -37t37 -54.5t13.5 -67t-13.5 -67t-37 -54t-55 -36.5t-66.5 -13.5q-36 0 -67 13.5t-54 36.5
t-36.5 54t-13.5 67t13.5 67t36.5 54.5t54 37t67 13.5zM1089 324q35 0 66.5 -13.5t54.5 -37t36.5 -54.5t13.5 -67t-13.5 -67t-36.5 -54t-54.5 -36.5t-66.5 -13.5q-36 0 -67 13.5t-54.5 36.5t-37 54t-13.5 67t13.5 67t37 54.5t54.5 37t67 13.5zM667 235q-35 0 -58.5 -24
t-23.5 -59t23.5 -58.5t58.5 -23.5t59 23.5t24 58.5t-24 59t-59 24zM1088 235q-35 0 -58.5 -24.5t-23.5 -58.5q0 -35 23.5 -58.5t58.5 -23.5q34 0 58.5 23.5t24.5 58.5t-24 59t-59 24z" />
    <glyph glyph-name="guilsinglleft" unicode="&#x2039;" horiz-adv-x="240" 
d="M227 531l-90 -267l90 -264h-124l-90 264l90 267h124z" />
    <glyph glyph-name="guilsinglright" unicode="&#x203a;" horiz-adv-x="240" 
d="M13 0l90 267l-90 264h125l89 -264l-89 -267h-125z" />
    <glyph glyph-name="fraction" unicode="&#x2044;" horiz-adv-x="160" 
d="M191 736h83l-305 -754h-84z" />
    <glyph glyph-name="Euro" unicode="&#x20ac;" horiz-adv-x="600" 
d="M251 248q30 -65 89 -100q58 -35 135 -35q50 0 99 20v-138q-23 -7 -48.5 -10t-53.5 -3q-133 0 -231 70t-134 196h-70l19 80h38q-1 5 -1 13v19v18t1 12h-57l20 80h51q38 125 138 195q103 71 229 71q50 0 99 -15l-30 -128q-37 12 -72 12q-70 0 -129 -36q-29 -18 -52 -42.5
t-39 -56.5h263l-18 -80h-268q-2 -10 -2 -17.5v-12.5v-14t2 -18h253l-19 -80h-212z" />
    <glyph glyph-name="uni2113" unicode="&#x2113;" horiz-adv-x="498" 
d="M436 43q-23 -20 -59.5 -39.5t-81.5 -19.5q-35 0 -59 9.5t-42 29.5q-23 22 -33 59t-10 75v65q-14 -13 -26.5 -26t-26.5 -26l-36 58q22 23 44 44.5t45 43.5v205q0 103 42 155t111 52q33 0 55.5 -11.5t36 -29.5t19.5 -40t6 -42q0 -74 -33 -135.5t-84 -121.5q-8 -8 -17.5 -19
t-14.5 -18v-139q0 -54 16 -74.5t42 -20.5q21 0 39 12.5t32 25.5q8 -18 17 -35.5t18 -36.5zM349 589q0 18 -7.5 32t-25.5 14q-21 0 -32.5 -21.5t-11.5 -69.5v-132q4 4 8 9t7 10q28 36 45 79.5t17 78.5z" />
    <glyph glyph-name="trademark" unicode="&#x2122;" horiz-adv-x="1000" 
d="M395 646h-128v-338h-89v338h-129v72h346v-72zM930 308h-86v338l-134 -338h-43l-130 338v-338h-86v410h130l107 -263l112 263h130v-410z" />
    <glyph glyph-name="uni2126" unicode="&#x2126;" horiz-adv-x="716" 
d="M411 109q19 19 38.5 43.5t35.5 56.5t26.5 72.5t10.5 90.5q0 49 -10.5 89.5t-31 70t-51 46t-69.5 16.5q-38 0 -69 -16.5t-53 -46t-34 -71t-12 -91.5t10.5 -90t26.5 -71.5t36 -56t39 -42.5v-109h-255v109h145q-24 19 -49.5 44.5t-47.5 60.5t-36 80.5t-14 104.5
q0 68 23 125.5t64.5 99t100 65t128.5 23.5q75 0 132 -23.5t95.5 -65.5t58 -98.5t19.5 -122.5q0 -53 -12.5 -97t-33 -80t-47.5 -64.5t-56 -51.5h147v-109h-255v109z" />
    <glyph glyph-name="estimated" unicode="&#x212e;" horiz-adv-x="664" 
d="M173 88q65 -63 156 -63q72 0 122 34t86 95l36 -22q-22 -33 -46.5 -59.5t-53.5 -45.5t-64.5 -29t-79.5 -10q-64 0 -115.5 23t-87.5 63.5t-55 94.5t-19 115q0 62 19 115.5t54.5 93.5t87 63t116.5 23q66 0 117.5 -23t87.5 -62.5t55.5 -93.5t21.5 -116h-438v-196zM485 478
q-32 31 -72 48t-85 17q-92 0 -155 -64v-158h312v157z" />
    <glyph glyph-name="uni2153" unicode="&#x2153;" horiz-adv-x="840" 
d="M519 736h84l-306 -754h-84zM230 727v-369h-91v292h-95l57 77h129zM529 268q20 110 139 110q53 0 91 -29q37 -28 37 -69q0 -48 -46 -73q32 -12 50.5 -38t18.5 -56q0 -48 -44 -86q-43 -36 -113 -36q-67 0 -106.5 35t-41.5 95h90q7 -55 62 -55q23 0 42 12.5t19 32.5
q0 51 -97 51v68q76 0 76 40q0 13 -10 22.5t-27 9.5q-34 0 -50 -34h-90z" />
    <glyph glyph-name="uni2154" unicode="&#x2154;" horiz-adv-x="840" 
d="M25 599q0 33 12 59t32.5 43t48 26t59.5 9q64 0 101 -35q37 -34 37 -77q0 -69 -101 -159l-34 -30h139v-77h-305v43l132 113q77 66 77 105q0 18 -14.5 29t-37.5 11q-54 0 -56 -60h-90zM532 736h83l-306 -754h-83zM530 268q20 110 138 110q53 0 91 -29q37 -28 37 -69
q0 -48 -46 -73q32 -12 50.5 -38t18.5 -56q0 -48 -44 -86q-43 -36 -112 -36q-67 0 -107 35t-41 95h89q7 -55 63 -55q23 0 41.5 12.5t18.5 32.5q0 51 -97 51v68q76 0 76 40q0 13 -10 22.5t-27 9.5q-32 0 -50 -34h-89z" />
    <glyph glyph-name="oneeighth" unicode="&#x215b;" horiz-adv-x="840" 
d="M519 736h84l-306 -754h-84zM230 727v-369h-91v292h-95l57 77h129zM762 200q59 -36 59 -95q0 -46 -38 -80t-113 -34q-41 0 -70.5 9t-48 25t-27.5 36.5t-9 43.5q0 58 57 95q-37 31 -37 74q0 45 36.5 74.5t96.5 29.5t96 -31t36 -74q0 -38 -38 -73zM710 269q0 34 -44 34
q-20 0 -30.5 -10t-10.5 -24q0 -17 11.5 -28t30.5 -11q20 0 31.5 11t11.5 28zM729 110q0 22 -18.5 34.5t-41.5 12.5q-25 0 -44.5 -13t-19.5 -32q0 -18 16.5 -31.5t45.5 -13.5q62 0 62 43z" />
    <glyph glyph-name="threeeighths" unicode="&#x215c;" horiz-adv-x="840" 
d="M34 626q20 110 138 110q53 0 91 -29q37 -28 37 -69q0 -48 -46 -73q32 -12 50.5 -38t18.5 -55q0 -49 -44 -87q-43 -36 -112 -36q-67 0 -107 35t-41 95h89q8 -54 62 -54q24 0 42.5 12t18.5 32q0 51 -96 52v67q75 0 75 40q0 13 -10 23t-27 10q-32 0 -50 -35h-89zM532 736h83
l-306 -754h-83zM762 200q59 -36 59 -95q0 -46 -38 -80t-113 -34q-41 0 -70.5 9t-48 25t-27.5 36.5t-9 43.5q0 58 57 95q-37 31 -37 74q0 45 36.5 74.5t96.5 29.5q61 0 96.5 -31t35.5 -74q0 -38 -38 -73zM710 269q0 34 -44 34q-20 0 -30.5 -10t-10.5 -24q0 -17 11.5 -28
t30.5 -11q20 0 31.5 11t11.5 28zM729 110q0 21 -17.5 34t-42.5 13t-44 -13t-19 -32q0 -17 15.5 -31t46.5 -14q61 0 61 43z" />
    <glyph glyph-name="fiveeighths" unicode="&#x215d;" horiz-adv-x="840" 
d="M531 736h84l-306 -754h-84zM310 727v-74h-141l-14 -53q8 1 14.5 1h11.5q53 0 93 -34q41 -33 41 -89q0 -54 -44 -92q-43 -37 -106 -37q-55 0 -97.5 27t-53.5 78h95q20 -30 57 -30q24 0 41.5 14t17.5 38q0 22 -16 35.5t-38 13.5q-26 0 -49 -19l-75 15l53 206h210zM762 200
q59 -36 59 -95q0 -23 -9.5 -43.5t-28.5 -36.5t-47.5 -25t-65.5 -9q-73 0 -114 30t-41 84q0 58 57 95q-37 31 -37 74q0 45 36.5 74.5t96.5 29.5t96 -31t36 -74q0 -38 -38 -73zM710 269q0 34 -45 34q-19 0 -30 -10t-11 -24q0 -17 12 -28t31 -11q20 0 31.5 11t11.5 28zM729 110
q0 22 -18.5 34.5t-42.5 12.5t-43.5 -13t-19.5 -32q0 -18 16.5 -31.5t45.5 -13.5q62 0 62 43z" />
    <glyph glyph-name="seveneighths" unicode="&#x215e;" horiz-adv-x="840" 
d="M500 736h84l-306 -754h-83zM326 727v-40l-194 -338l-73 39l151 265h-174v74h290zM762 200q59 -36 59 -95q0 -23 -9.5 -43.5t-28.5 -36.5t-47.5 -25t-65.5 -9q-41 0 -70.5 9t-48 25t-27.5 36.5t-9 43.5q0 58 57 95q-37 31 -37 74q0 45 36.5 74.5t96.5 29.5t96 -31t36 -74
q0 -38 -38 -73zM710 269q0 34 -45 34q-19 0 -30 -10t-11 -24q0 -17 12 -28t31 -11q20 0 31.5 11t11.5 28zM729 110q0 22 -18.5 34.5t-42.5 12.5t-43.5 -13t-19.5 -32q0 -17 16 -31t46 -14q62 0 62 43z" />
    <glyph glyph-name="partialdiff" unicode="&#x2202;" horiz-adv-x="582" 
d="M548 462q0 -94 -23 -188q-16 -58 -42 -110t-62 -91t-81.5 -61.5t-99.5 -22.5q-46 0 -84 15t-65.5 42t-42.5 64t-15 81q0 76 23 132.5t59.5 94t82.5 56t91 18.5t77 -17.5t46 -40.5h2q2 14 3 26.5t1 28.5q0 69 -33.5 106t-90.5 37q-25 0 -50 -7.5t-45 -18.5l-27 88
q23 16 60 26.5t82 10.5q108 0 171 -69.5t63 -199.5zM400 336q-11 29 -32 47t-54 18q-28 0 -54.5 -17t-47 -46t-32.5 -69t-12 -86q0 -42 19 -67.5t54 -25.5q30 0 56 20.5t46.5 55t35 78.5t21.5 92z" />
    <glyph glyph-name="uni2206" unicode="&#x2206;" horiz-adv-x="616" 
d="M1 57q54 162 107 321.5t107 321.5h189q52 -162 104.5 -321.5t105.5 -321.5v-57h-613v57zM321 528q-6 21 -10 38t-6 25h-4q-2 -8 -5.5 -24t-8.5 -36q-33 -106 -66.5 -210.5t-66.5 -210.5h299z" />
    <glyph glyph-name="product" unicode="&#x220f;" horiz-adv-x="726" 
d="M516 582h-306v-812h-137v930h580v-930h-137v812z" />
    <glyph glyph-name="summation" unicode="&#x2211;" horiz-adv-x="637" 
d="M41 -158l281 398q-66 96 -131.5 191t-131.5 191v78h516v-109h-352q60 -88 120 -174t120 -174l-255 -364h387v-109h-554v72z" />
    <glyph glyph-name="minus" unicode="&#x2212;" horiz-adv-x="600" 
d="M544 420v-122h-488v122h488z" />
    <glyph glyph-name="uni2215" unicode="&#x2215;" horiz-adv-x="160" 
d="M191 736h83l-305 -754h-84z" />
    <glyph glyph-name="uni2219" unicode="&#x2219;" horiz-adv-x="280" 
d="M140 436q32 0 54 -22.5t22 -54.5t-22 -54t-54 -22t-54.5 22t-22.5 54t22.5 54.5t54.5 22.5z" />
    <glyph glyph-name="radical" unicode="&#x221a;" horiz-adv-x="522" 
d="M512 729q-45 -186 -88 -370.5t-88 -370.5h-108q-31 76 -61 151.5t-60 151.5q-14 -9 -27.5 -18t-27.5 -18l-42 65q78 52 153 103q30 -75 59.5 -149.5t58.5 -149.5q35 152 71 302.5t71 302.5h89z" />
    <glyph glyph-name="infinity" unicode="&#x221e;" horiz-adv-x="792" 
d="M754 294q0 -39 -13.5 -72.5t-37.5 -58t-56.5 -38t-70.5 -13.5q-54 0 -101 27.5t-78 75.5h-2q-32 -44 -76.5 -73.5t-101.5 -29.5q-34 0 -66.5 11.5t-57.5 34.5t-40 56.5t-15 76.5t15 76t40 56t57 35t66 12q60 0 105 -30t74 -73h2q11 17 28 35t39.5 33t50 25t59.5 10
q39 0 72 -13.5t57 -37t37.5 -55.5t13.5 -70zM346 292q-23 37 -53.5 62.5t-67.5 25.5q-41 0 -63.5 -27t-22.5 -62q0 -37 24 -63t63 -26q38 0 68.5 27t51.5 63zM652 293q0 35 -21.5 60.5t-65.5 25.5q-38 0 -66 -23.5t-54 -63.5q23 -41 53.5 -65.5t67.5 -24.5q43 0 64.5 28
t21.5 63z" />
    <glyph glyph-name="integral" unicode="&#x222b;" horiz-adv-x="495" 
d="M423 640q-7 3 -18.5 5.5t-22.5 2.5q-32 0 -50 -21t-18 -64v-595q0 -44 -10.5 -81t-33 -64t-56.5 -42t-82 -15q-22 0 -48 4t-39 10q5 24 11 48l12 48q18 -8 42 -8q68 0 68 85v593q0 45 10.5 82.5t33 64.5t57 42t82.5 15q26 0 52 -5t37 -11q-7 -24 -13 -47.5t-14 -46.5z
" />
    <glyph glyph-name="approxequal" unicode="&#x2248;" horiz-adv-x="600" 
d="M563 424q-33 -48 -68.5 -72t-88.5 -24q-26 0 -55 6.5t-58 23.5q-22 14 -44.5 23.5t-48.5 9.5q-16 0 -29 -7.5t-22.5 -18t-17 -22t-12.5 -20.5l-81 94q29 41 64.5 69t91.5 28q60 0 113 -31q27 -16 49 -24t45 -8q15 0 27.5 6.5t22.5 16.5t17.5 22t13.5 22zM563 182
q-33 -48 -68.5 -72t-88.5 -24q-26 0 -55 6.5t-58 23.5q-22 14 -44.5 23.5t-48.5 9.5q-16 0 -29 -7.5t-22.5 -18t-17 -22t-12.5 -20.5l-81 94q29 41 64.5 69t91.5 28q32 0 59.5 -8t53.5 -22q27 -17 49 -25t45 -8q15 0 27.5 6.5t22.5 16.5t17.5 22t13.5 22z" />
    <glyph glyph-name="notequal" unicode="&#x2260;" horiz-adv-x="600" 
d="M244 22h-136l43 97h-75v123h130l54 120h-184v123h240l53 118h136l-53 -118h73v-123h-129l-53 -120h182v-123h-237z" />
    <glyph glyph-name="lessequal" unicode="&#x2264;" horiz-adv-x="600" 
d="M76 438l449 171v-126l-298 -105v-2l298 -104v-125l-449 172v119zM76 123h449v-123h-449v123z" />
    <glyph glyph-name="greaterequal" unicode="&#x2265;" horiz-adv-x="600" 
d="M76 275l298 104v2l-298 104v125l449 -172v-119l-449 -171v127zM76 123h448v-123h-448v123z" />
    <glyph glyph-name="lozenge" unicode="&#x25ca;" horiz-adv-x="566" 
d="M514 350q-51 -88 -100.5 -175t-99.5 -175h-63l-199 349q50 88 99.5 175.5t99.5 175.5h63q50 -88 99.5 -175t100.5 -175zM283 587q-34 -60 -67.5 -118.5t-66.5 -118.5l133 -237q34 60 67.5 118.5t66.5 118.5z" />
    <glyph glyph-name="uniE000" unicode="&#xe000;" horiz-adv-x="234" 
d="M174 737v-67q0 -33 -3.5 -60t-12 -51t-21.5 -47.5t-32 -48.5l-48 38q18 26 26.5 45.5t17.5 51.5h-50v139h123z" />
    <glyph glyph-name="uniE001" unicode="&#xe001;" horiz-adv-x="200" 
d="M33 626l101 152l57 -24l-78 -163z" />
    <glyph glyph-name="zero.denominator" unicode="&#xf655;" horiz-adv-x="336" 
d="M323 186q0 -195 -154 -195q-76 0 -116 45.5t-40 136.5q0 120 44 162q44 43 110 43q156 0 156 -192zM230 184q0 119 -62 119q-32 0 -47 -27t-15 -96q0 -114 62 -114t62 118z" />
    <glyph glyph-name="one.denominator" unicode="&#xf656;" horiz-adv-x="336" 
d="M227 369v-369h-92v292h-94l56 77h130z" />
    <glyph glyph-name="two.denominator" unicode="&#xf657;" horiz-adv-x="336" 
d="M21 241q0 33 12 59t32.5 43t48 26t58.5 9q65 0 102 -35q37 -34 37 -77q0 -69 -102 -159l-34 -30h139v-77h-305v43l133 113q77 66 77 105q0 18 -15 29t-37 11q-54 0 -56 -60h-90z" />
    <glyph glyph-name="three.denominator" unicode="&#xf658;" horiz-adv-x="336" 
d="M30 268q20 110 138 110q53 0 91 -29q37 -28 37 -69q0 -48 -46 -73q32 -12 50.5 -38t18.5 -56q0 -48 -44 -86q-43 -36 -112 -36q-67 0 -107 35t-41 95h89q7 -55 63 -55q23 0 41.5 12.5t18.5 32.5q0 51 -96 51v68q75 0 75 40q0 13 -10 22.5t-27 9.5q-32 0 -50 -34h-89z" />
    <glyph glyph-name="four.denominator" unicode="&#xf659;" horiz-adv-x="336" 
d="M284 378v-237h38v-68h-38v-73h-82v73h-193v72l186 233h89zM202 273l-106 -132h106v132z" />
    <glyph glyph-name="five.denominator" unicode="&#xf65a;" horiz-adv-x="336" 
d="M306 369v-74h-140l-15 -54q8 1 14.5 1.5t11.5 0.5q53 0 94 -35t41 -88q0 -54 -44 -92q-43 -37 -107 -37q-55 0 -97.5 27t-53.5 78h95q19 -31 57 -31q24 0 41.5 14t17.5 38q0 23 -16 36.5t-38 13.5q-26 0 -49 -19l-75 15l53 206h210z" />
    <glyph glyph-name="six.denominator" unicode="&#xf65b;" horiz-adv-x="336" 
d="M245 340l-66 -114q44 0 84 -33q41 -33 41 -86q0 -50 -42 -83t-96 -33q-60 0 -100 34t-40 83q0 29 35 87l110 183zM213 108q0 17 -13 29.5t-36 12.5q-21 0 -34 -12.5t-13 -29.5q0 -19 14.5 -30.5t32.5 -11.5q20 0 34.5 12t14.5 30z" />
    <glyph glyph-name="seven.denominator" unicode="&#xf65c;" horiz-adv-x="336" 
d="M322 369v-39l-194 -339l-73 39l151 265h-174v74h290z" />
    <glyph glyph-name="eight.denominator" unicode="&#xf65d;" horiz-adv-x="336" 
d="M262 200q59 -36 59 -95q0 -46 -38 -80t-113 -34q-41 0 -70.5 9t-48 25t-27.5 36.5t-9 43.5q0 58 57 95q-37 31 -37 74q0 45 36.5 74.5t96.5 29.5q61 0 96.5 -31t35.5 -74q0 -38 -38 -73zM210 269q0 34 -44 34q-20 0 -30.5 -10t-10.5 -24q0 -17 11.5 -28t30.5 -11
q20 0 31.5 11t11.5 28zM229 110q0 22 -18.5 34.5t-41.5 12.5q-25 0 -44 -13t-19 -32q0 -18 16 -31.5t46 -13.5q61 0 61 43z" />
    <glyph glyph-name="nine.denominator" unicode="&#xf65e;" horiz-adv-x="336" 
d="M91 29l66 115q-44 0 -85 32q-40 33 -40 86q0 50 42 83t96 33q58 0 99 -35t41 -82q0 -29 -35 -87l-110 -183zM123 261q0 -16 12.5 -29t36.5 -13q21 0 34 12.5t13 29.5q0 19 -15 30.5t-33 11.5q-20 0 -34 -12t-14 -30z" />
    <glyph glyph-name="zero.numerator" unicode="&#xf661;" horiz-adv-x="336" 
d="M323 544q0 -195 -154 -195q-76 0 -116 45.5t-40 136.5q0 120 44 162q44 43 110 43q156 0 156 -192zM230 542q0 119 -62 119q-32 0 -47 -27t-15 -96q0 -114 62 -114t62 118z" />
    <glyph glyph-name="one.numerator" unicode="&#xf662;" horiz-adv-x="336" 
d="M227 727v-369h-92v292h-94l56 77h130z" />
    <glyph glyph-name="two.numerator" unicode="&#xf663;" horiz-adv-x="336" 
d="M21 599q0 33 12 59t32.5 43t48 26t58.5 9q65 0 102 -35q37 -34 37 -77q0 -69 -102 -159l-34 -30h139v-77h-305v43l133 113q77 66 77 105q0 18 -15 29t-37 11q-54 0 -56 -60h-90z" />
    <glyph glyph-name="three.numerator" unicode="&#xf664;" horiz-adv-x="336" 
d="M30 626q20 110 138 110q53 0 91 -29q37 -28 37 -69q0 -48 -46 -73q32 -12 50.5 -38t18.5 -55q0 -49 -44 -87q-43 -36 -112 -36q-67 0 -107 35t-41 95h89q8 -54 63 -54q23 0 41.5 12t18.5 32q0 51 -96 52v67q75 0 75 40q0 13 -10 23t-27 10q-32 0 -50 -35h-89z" />
    <glyph glyph-name="four.numerator" unicode="&#xf665;" horiz-adv-x="336" 
d="M284 736v-236h38v-69h-38v-73h-82v73h-193v72l186 233h89zM202 631l-106 -131h106v131z" />
    <glyph glyph-name="five.numerator" unicode="&#xf666;" horiz-adv-x="336" 
d="M306 727v-74h-140l-15 -53q8 1 14.5 1h11.5q53 0 93 -34q42 -33 42 -89q0 -54 -44 -92q-43 -37 -107 -37q-55 0 -97.5 27t-53.5 78h95q20 -30 57 -30q24 0 41.5 14t17.5 38q0 22 -16 35.5t-38 13.5q-26 0 -49 -19l-75 15l53 206h210z" />
    <glyph glyph-name="six.numerator" unicode="&#xf667;" horiz-adv-x="336" 
d="M245 698l-66 -115q43 0 84 -32t41 -85q0 -51 -42 -84t-96 -33q-59 0 -100 35q-40 34 -40 82q0 31 35 87l110 183zM213 466q0 16 -13 29t-36 13q-21 0 -34 -12.5t-13 -29.5q0 -18 14.5 -30t32.5 -12q20 0 34.5 12t14.5 30z" />
    <glyph glyph-name="seven.numerator" unicode="&#xf668;" horiz-adv-x="336" 
d="M322 727v-40l-194 -338l-73 39l151 265h-174v74h290z" />
    <glyph glyph-name="eight.numerator" unicode="&#xf669;" horiz-adv-x="336" 
d="M262 559q59 -38 59 -95q0 -48 -38 -81.5t-113 -33.5q-82 0 -118.5 34t-36.5 81q0 57 57 94q-37 31 -37 74q0 46 36.5 75t96.5 29q63 0 97.5 -31.5t34.5 -73.5q0 -37 -38 -72zM210 627q0 34 -44 34q-20 0 -30.5 -10t-10.5 -25q0 -16 12 -27t30 -11q20 0 31.5 11.5
t11.5 27.5zM229 469q0 21 -18.5 33.5t-41.5 12.5q-25 0 -44 -12.5t-19 -32.5q0 -18 16 -31.5t46 -13.5q61 0 61 44z" />
    <glyph glyph-name="nine.numerator" unicode="&#xf66a;" horiz-adv-x="336" 
d="M91 387l66 115q-41 0 -83 30q-42 32 -42 88q0 50 42 83t96 33q58 0 99 -35t41 -81q0 -30 -35 -88l-110 -183zM123 619q0 -16 13 -29t36 -13q21 0 34 12.5t13 29.5q0 20 -15 31.5t-33 11.5q-20 0 -34 -12.5t-14 -30.5z" />
    <glyph glyph-name="uniF6C3" unicode="&#xf6c3;" horiz-adv-x="0" 
d="M-356 -39q15 1 27 1.5t20 0.5q57 0 85.5 -25.5t28.5 -59.5q0 -37 -31.5 -66.5t-93.5 -29.5q-39 0 -95 17l17 64q37 -8 54 -8q52 0 52 35q0 28 -40 28q-6 0 -15 -0.5t-22 -1.5z" />
    <glyph glyph-name="uni03020300" horiz-adv-x="0" 
d="M-186 661h86l-66 112h-108zM-371 600h-91l88 116h93l88 -116h-91l-43 61z" />
    <glyph glyph-name="uni03020301" horiz-adv-x="0" 
d="M-208 764l-66 -112h86l88 112h-108zM-441 600h-91l88 116h93l88 -116h-91l-43 61z" />
    <glyph glyph-name="uni03020303" horiz-adv-x="0" 
d="M-367 735q0 46 12.5 72t32.5 36t44.5 5t49.5 -22q27 -20 39.5 -19t12.5 38h73q0 -45 -12.5 -71.5t-32 -36.5t-44.5 -5t-50 22q-27 20 -39.5 19t-12.5 -38h-73zM-278 600h-91l88 116h93l88 -116h-91l-43 61z" />
    <glyph glyph-name="uni03020309" horiz-adv-x="0" 
d="M-185 824q35 0 60 -21.5t25 -53.5q0 -35 -37 -66q-17 -14 -21 -22t-2 -17h-71q-4 34 30 64q14 13 19.5 20.5t5.5 13.5q0 13 -12 13q-9 0 -12 -6t-2 -25h-74v13q0 38 26 62.5t65 24.5zM-407 600h-91l88 116h93l88 -116h-91l-43 61z" />
    <glyph glyph-name="uni03060300" horiz-adv-x="0" 
d="M-277 723h86l-66 112h-108zM-230 592q-62 0 -96.5 30t-34.5 86h81q0 -49 50 -49q49 0 49 49h81q0 -56 -34 -86t-96 -30z" />
    <glyph glyph-name="uni03060301" horiz-adv-x="0" 
d="M-208 836l-66 -112h86l88 112h-108zM-231 592q-62 0 -96.5 30t-34.5 86h81q0 -49 50 -49q49 0 49 49h81q0 -56 -34 -86t-96 -30z" />
    <glyph glyph-name="uni03060303" horiz-adv-x="0" 
d="M-364 733q0 46 12.5 72t32.5 36t44.5 5t49.5 -22q27 -20 39.5 -19t12.5 38h73q0 -45 -12.5 -71.5t-32 -36.5t-44.5 -5t-50 22q-27 20 -39.5 19t-12.5 -38h-73zM-231 592q-62 0 -96.5 30t-34.5 86h81q0 -49 50 -49q49 0 49 49h81q0 -56 -34 -86t-96 -30z" />
    <glyph glyph-name="uni03060309" horiz-adv-x="0" 
d="M-219 901q35 0 60 -21.5t25 -53.5q0 -35 -37 -66q-17 -14 -21 -22t-2 -17h-71q-4 34 30 64q14 13 19.5 20.5t5.5 13.5q0 13 -12 13q-9 0 -12 -6t-2 -25h-74v13q0 38 26 62.5t65 24.5zM-230 592q-62 0 -96.5 30t-34.5 86h81q0 -49 50 -49q49 0 49 49h81q0 -56 -34 -86
t-96 -30z" />
    </font>
</defs>
</svg>
