<?xml version="1.0" standalone="no"?>
<!DOCTYPE svg PUBLIC "-//W3C//DTD SVG 1.1//EN" "http://www.w3.org/Graphics/SVG/1.1/DTD/svg11.dtd" >
<svg xmlns="http://www.w3.org/2000/svg" xmlns:xlink="http://www.w3.org/1999/xlink" version="1.1">
<metadata>
Created by FontForge 20190801 at Mon May 13 02:56:24 2019
 By Unknown
Copyright The Monotype Corporation. All rights reserved.
</metadata>
<defs>
<font id="iCielCenturyGothicPro-Italic" horiz-adv-x="655" >
  <font-face 
    font-family="iCiel Century Gothic Pro Italic"
    font-weight="400"
    font-style="italic"
    font-stretch="normal"
    units-per-em="1000"
    panose-1="2 11 5 2 2 2 2 9 2 4"
    ascent="736"
    descent="-264"
    x-height="531"
    cap-height="718"
    bbox="-499 -230 1172 1080"
    underline-thickness="50"
    underline-position="-100"
    slope="-8.05"
    unicode-range="U+000D-FB04"
  />
<missing-glyph horiz-adv-x="500" 
d="M487 665v-665h-475v665h475zM411 618h-323l162 -243zM60 91l7 10t18 27t25.5 39t30.5 45q35 53 80 121l-161 242v-484zM440 90v485l-162 -242zM88 48h323l-161 242z" />
    <glyph glyph-name="f_f" unicode="ff" horiz-adv-x="553" 
d="M111 0h-68l65 471h-68l9 60h70l7 52q23 167 169 167q68 0 105 -40q36 40 90 40q48 0 92 -32l-9 -64q-44 35 -78 35q-53 0 -67 -101l-8 -57h109l-7 -60h-109l-66 -471h-68l68 471h-169zM354 531l6 47l7 43q-12 64 -74 64q-37 0 -62.5 -21t-35.5 -85l-8 -48h167z" />
    <glyph glyph-name="fi" unicode="fi" horiz-adv-x="487" 
d="M290 471h-110l-67 -471h-69l65 471h-68l9 60h70l8 53q25 165 169 165q62 0 99 -33.5t43 -97.5h-70q-5 33 -24 50.5t-50 17.5q-48 0 -69.5 -28t-29.5 -80l-7 -47h108zM350 0h-67l75 531h69z" />
    <glyph glyph-name="fl" unicode="fl" horiz-adv-x="485" 
d="M291 471h-109l-67 -471h-66l66 471h-73l7 60h73q8 50 19 90.5t30 69t48.5 44t72.5 15.5q62 0 101.5 -37.5t39.5 -110.5q0 -16 -2 -32.5t-4 -31.5l-74 -538h-70l79 555q2 11 2.5 24.5t0.5 24.5q0 79 -75 79q-42 0 -63.5 -27t-29.5 -83l-6 -42h109z" />
    <glyph glyph-name="f_f_i" unicode="ffi" horiz-adv-x="727" 
d="M113 0h-68l65 472h-68l9 59h70l7 52q23 167 170 167q75 0 114 -52q46 52 124 52q64 0 100.5 -36t41.5 -96h-70q-9 67 -75 67q-18 0 -33.5 -4.5t-28.5 -16t-22 -32t-14 -53.5l-7 -48h109l-8 -59h-110l-67 -472h-68l65 472h-168zM360 531l7 52l4 27q-9 75 -75 75
q-34 0 -62 -20q-27 -21 -37 -86l-8 -48h171zM589 0h-67l75 531h69z" />
    <glyph glyph-name="f_f_l" unicode="ffl" horiz-adv-x="724" 
d="M117 0h-68l65 472h-69l9 59h71l7 52q23 167 169 167q74 0 113 -49q42 49 113 49q60 0 100.5 -37t40.5 -109q0 -15 -1.5 -31.5t-3.5 -34.5l-75 -538h-69l78 555l3.5 28t1.5 22q0 78 -77 78q-78 0 -92 -111l-6 -41h109l-9 -59h-109l-67 -472h-66l66 472h-167zM358 531
q4 28 8 49t8 37q-11 68 -74 68q-34 0 -62 -20t-38 -86l-7 -48h165z" />
    <glyph glyph-name=".notdef" horiz-adv-x="500" 
d="M487 665v-665h-475v665h475zM411 618h-323l162 -243zM60 91l7 10t18 27t25.5 39t30.5 45q35 53 80 121l-161 242v-484zM440 90v485l-162 -242zM88 48h323l-161 242z" />
    <glyph glyph-name=".null" horiz-adv-x="0" 
 />
    <glyph glyph-name=".null" horiz-adv-x="0" 
 />
    <glyph glyph-name="nonmarkingreturn" unicode="&#xd;" horiz-adv-x="250" 
 />
    <glyph glyph-name="space" unicode=" " horiz-adv-x="277" 
 />
    <glyph glyph-name="exclam" unicode="!" horiz-adv-x="295" 
d="M222 736l-73 -557h-68l74 557h67zM101 105q25 0 42 -17t17 -42t-16.5 -42.5t-42.5 -17.5t-43 18t-17 42q0 25 17.5 42t42.5 17z" />
    <glyph glyph-name="quotedbl" unicode="&#x22;" horiz-adv-x="309" 
d="M61 510l-11 226h72l-11 -226h-50zM251 510l-11 226h72l-11 -226h-50z" />
    <glyph glyph-name="numbersign" unicode="#" horiz-adv-x="720" 
d="M602 241h-121l-35 -241h-54l35 241h-163l-37 -241h-54l37 241h-120v53h128l25 163h-123v53h131l34 229h53l-34 -229h163l33 229h54l-33 -229h109v-53h-117l-23 -163h112v-53zM296 457l-24 -163h162l25 163h-163z" />
    <glyph glyph-name="dollar" unicode="$" horiz-adv-x="554" 
d="M364 713q49 -14 79.5 -36.5t60.5 -63.5l-56 -41q-25 29 -44 45.5t-49 27.5l-36 -246q39 -22 69.5 -43.5t51.5 -46t32 -53.5t11 -65q0 -40 -15 -76t-44 -64.5t-70.5 -47t-94.5 -22.5l-22 -152h-65l23 156q-66 13 -112 48t-74 98l63 32q23 -47 53 -73t80 -39l44 304
q-64 35 -106 78.5t-42 106.5q0 35 15.5 67t42.5 56t63.5 39t78.5 16l8 54h64zM291 652q-60 -9 -91 -40t-31 -71q0 -43 27 -68t63 -43zM269 48q77 11 111.5 51t34.5 87q0 25 -8.5 44.5t-23 35.5t-34 30t-41.5 28z" />
    <glyph glyph-name="percent" unicode="%" horiz-adv-x="775" 
d="M431 713q60 0 121.5 9t124.5 28h51l-638 -800h-57l587 738q-41 -10 -90 -16.5t-99 -6.5q-14 0 -31 1.5t-31 2.5q9 -15 16.5 -33.5t7.5 -47.5q0 -39 -14 -74t-39.5 -61t-60.5 -41.5t-78 -15.5q-34 0 -62 11.5t-47.5 31t-30 47t-10.5 58.5q0 40 16 75t42.5 61t60 41
t69.5 15q17 0 36 -3.5t42.5 -8t51.5 -8t62 -3.5zM240 684q-28 0 -52 -11.5t-41 -30.5t-27 -43.5t-10 -49.5q0 -42 26 -71.5t71 -29.5q27 0 50.5 11t40.5 30t26.5 44t9.5 53q0 41 -25.5 69.5t-68.5 28.5zM579 322q30 0 57.5 -11t48.5 -30.5t33.5 -47t12.5 -60.5
q0 -39 -14 -73.5t-39.5 -61t-61 -41.5t-77.5 -15q-35 0 -63 11.5t-47.5 31.5t-30 47t-10.5 58q0 39 15.5 74t42 61t61 41.5t72.5 15.5zM577 270q-28 0 -52 -11.5t-41 -30.5t-27 -43.5t-10 -49.5q0 -42 26 -71.5t71 -29.5q27 0 50.5 11t41 30t27 43.5t9.5 52.5q0 41 -26 70
t-69 29z" />
    <glyph glyph-name="ampersand" unicode="&#x26;" horiz-adv-x="757" 
d="M508 97q-76 -57 -144.5 -85.5t-128.5 -28.5q-43 0 -76.5 14t-56.5 37t-34.5 53t-11.5 62q0 40 15.5 72t43.5 61t66.5 56.5t84.5 58.5q-62 89 -62 153q0 32 13.5 58t36.5 44.5t53.5 28.5t64.5 10q32 0 58 -9.5t45.5 -25.5t30 -37.5t10.5 -46.5q0 -56 -39 -101t-108 -93
q57 -75 96 -119.5t55 -64.5q6 5 31.5 23.5t68.5 51.5l45 -55q-23 -19 -47 -38t-50 -37q18 -23 50.5 -59t76.5 -80h-98q-22 24 -45.5 47.5t-43.5 49.5zM328 435q51 36 83 66.5t32 65.5q0 22 -21 39.5t-57 17.5q-42 0 -65 -21.5t-23 -50.5q0 -23 14 -52t37 -65zM308 339
q-92 -55 -135.5 -98t-43.5 -92q0 -22 8.5 -40.5t23 -31.5t33 -20t39.5 -7q45 0 101.5 28t127.5 73q-14 14 -53.5 61.5t-100.5 126.5z" />
    <glyph glyph-name="quotesingle" unicode="'" horiz-adv-x="198" 
d="M100 510l-11 226h72l-11 -226h-50z" />
    <glyph glyph-name="parenleft" unicode="(" horiz-adv-x="369" 
d="M115 -208q-14 49 -21.5 113t-7.5 134q0 93 12 187.5t35.5 185t58 176.5t78.5 162h79q-43 -69 -78 -149t-60 -169t-38.5 -185t-13.5 -197q0 -65 7 -128.5t25 -129.5h-76z" />
    <glyph glyph-name="parenright" unicode=")" horiz-adv-x="369" 
d="M200 750q16 -57 22.5 -119.5t6.5 -130.5q0 -190 -48 -372.5t-136 -335.5h-79q43 68 78 149t60 170.5t38.5 185t13.5 192.5q0 72 -7 137t-24 124h75z" />
    <glyph glyph-name="asterisk" unicode="*" horiz-adv-x="425" 
d="M259 736l-14 -145l120 86l32 -54l-135 -61l135 -60l-32 -56l-120 85l14 -145h-64l16 145l-121 -85l-32 56l137 60l-137 61l32 54l121 -86l-16 145h64z" />
    <glyph glyph-name="plus" unicode="+" horiz-adv-x="606" 
d="M270 605h67v-211h213v-69h-213v-211h-67v211h-214v69h214v211z" />
    <glyph glyph-name="comma" unicode="," horiz-adv-x="277" 
d="M153 101l-125 -184l-46 20l109 195z" />
    <glyph glyph-name="hyphen" unicode="-" horiz-adv-x="332" 
d="M279 300l-8 -60h-269l8 60h269z" />
    <glyph glyph-name="period" unicode="." horiz-adv-x="277" 
d="M90 105q25 0 42 -17t17 -42t-16.5 -42.5t-42.5 -17.5t-43 18t-17 42q0 25 17.5 42t42.5 17z" />
    <glyph glyph-name="slash" unicode="/" horiz-adv-x="437" 
d="M110 -98h-75l298 834h75z" />
    <glyph glyph-name="zero" unicode="0" horiz-adv-x="554" 
d="M309 736q42 0 77 -18.5t61 -53t40.5 -85t14.5 -114.5q0 -30 -1 -54.5t-4 -47.5t-8 -47t-13 -53q-35 -138 -105 -209t-159 -71q-85 0 -137.5 69.5t-52.5 199.5q0 112 22 201.5t61 152.5t91.5 96.5t112.5 33.5zM302 669q-39 0 -76 -28t-66.5 -82t-47 -133t-17.5 -181
q0 -98 33.5 -146.5t86.5 -48.5q35 0 72 24t66 69q14 21 27.5 54.5t24 77t17.5 94.5t7 106q0 95 -35 144.5t-92 49.5z" />
    <glyph glyph-name="one" unicode="1" horiz-adv-x="554" 
d="M370 718l-95 -718h-71l87 649h-97l26 69h150z" />
    <glyph glyph-name="two" unicode="2" horiz-adv-x="554" 
d="M217 263q45 50 80 89.5t59 73.5t37 64t13 61q0 24 -9.5 45.5t-26.5 37.5t-40.5 25.5t-51.5 9.5q-62 0 -101 -43.5t-43 -124.5h-73q6 114 67 174.5t158 60.5q42 0 77 -14t61 -39t40.5 -59.5t14.5 -74.5q0 -39 -12.5 -73.5t-35 -69t-55 -70.5t-71.5 -80l-168 -187h308
l-8 -69h-457z" />
    <glyph glyph-name="three" unicode="3" horiz-adv-x="554" 
d="M238 422q37 0 68.5 9.5t55 27t36.5 41.5t13 53q0 25 -9.5 46t-26 36t-38.5 23t-46 8q-46 0 -80.5 -27t-42.5 -75h-72q6 40 24 72t44.5 54t60.5 34t71 12q40 0 74 -13.5t59.5 -38t40 -59t14.5 -76.5q0 -60 -29.5 -96t-88.5 -65q50 -29 76 -71.5t26 -96.5q0 -51 -19.5 -94
t-53 -75t-78.5 -50t-96 -18q-42 0 -78.5 13.5t-65 40t-47.5 65t-25 88.5h72q3 -20 8.5 -40.5t18.5 -39.5q18 -26 50.5 -43t68.5 -17q32 0 63 14t55 37t39 53t15 62q0 64 -45.5 103.5t-136.5 39.5l7 64q5 0 9 -0.5t9 -0.5z" />
    <glyph glyph-name="four" unicode="4" horiz-adv-x="554" 
d="M368 222h101l-9 -69h-101l-20 -153h-69l20 153h-315l447 583h14zM107 222h192l47 322z" />
    <glyph glyph-name="five" unicode="5" horiz-adv-x="554" 
d="M513 718l-9 -69h-231l-51 -175q11 1 19 1.5t19 0.5q42 0 79 -17.5t65 -48.5t44 -73t16 -92q0 -53 -18 -100.5t-50.5 -83.5t-78 -57t-101.5 -21q-77 0 -131 38.5t-90 117.5l66 29q25 -59 67 -88.5t90 -29.5q33 0 64 14t55.5 39.5t39 61t14.5 79.5q0 36 -11 67t-31 53.5
t-48.5 35.5t-64.5 13q-31 0 -58.5 -7.5t-54.5 -18.5l99 331h291z" />
    <glyph glyph-name="six" unicode="6" horiz-adv-x="554" 
d="M400 694l-193 -229q11 4 26 7t35 3q43 0 83 -17t70.5 -48.5t49 -75.5t18.5 -97q0 -52 -18 -98.5t-51 -81.5t-78 -55t-99 -20q-51 0 -93.5 18t-74 50t-49 75t-17.5 94q0 39 10 74t29 69.5t46.5 70.5t62.5 77l192 226zM253 412q-37 0 -68 -15t-54 -40.5t-36 -60t-13 -73.5
q0 -38 13 -69.5t34.5 -54t50.5 -35t60 -12.5q35 0 66.5 13.5t56 38.5t39 59t14.5 75q0 37 -12.5 68.5t-34.5 55t-51.5 37t-64.5 13.5z" />
    <glyph glyph-name="seven" unicode="7" horiz-adv-x="554" 
d="M541 718l-465 -736l-57 36l400 631h-343l11 69h454z" />
    <glyph glyph-name="eight" unicode="8" horiz-adv-x="554" 
d="M3 181q0 142 161 216q-42 28 -62.5 60t-20.5 77q0 40 18 76.5t48.5 64.5t71.5 44.5t86 16.5q41 0 75.5 -14t59 -38t38 -55.5t13.5 -66.5q0 -54 -31.5 -98t-94.5 -76q111 -58 111 -170q0 -49 -19 -92t-52.5 -75t-80.5 -50.5t-103 -18.5q-48 0 -88.5 16t-69 43t-44.5 63.5
t-16 76.5zM303 666q-32 0 -59 -11t-47 -29t-31.5 -42t-11.5 -50q0 -48 34 -78t87 -30q30 0 56.5 11t45.5 29.5t30 42.5t11 50q0 45 -32.5 76t-82.5 31zM265 356q-39 0 -73 -13t-60 -36.5t-41 -55t-15 -69.5q0 -30 11.5 -55t31 -42t47 -26.5t58.5 -9.5q40 0 73.5 13.5t58 36
t38.5 52.5t14 63q0 28 -10 53.5t-29 45t-45.5 31.5t-58.5 12z" />
    <glyph glyph-name="nine" unicode="9" horiz-adv-x="554" 
d="M120 24l193 229q-11 -4 -26 -7t-35 -3q-43 0 -83 17t-70.5 48.5t-49 75.5t-18.5 97t18 99t50.5 81t78 55t99.5 20q51 0 93.5 -18t74 -49.5t49 -74.5t17.5 -94q0 -39 -10 -74.5t-29 -70t-46.5 -70.5t-62.5 -77l-192 -226zM267 306q37 0 68 15t54 40.5t36 60t13 73.5
q0 38 -12.5 69.5t-34.5 54t-50.5 35t-60.5 12.5q-34 0 -66 -13.5t-56.5 -38t-39 -59t-14.5 -75.5q0 -37 12.5 -68.5t34.5 -55t52 -37t64 -13.5z" />
    <glyph glyph-name="colon" unicode=":" horiz-adv-x="277" 
d="M150 545q25 0 42 -17.5t17 -42.5t-17 -42t-42 -17t-42.5 17t-17.5 42t17.5 42.5t42.5 17.5zM90 105q25 0 42 -17t17 -42t-16.5 -42.5t-42.5 -17.5t-43 18t-17 42q0 25 17.5 42t42.5 17z" />
    <glyph glyph-name="semicolon" unicode=";" horiz-adv-x="277" 
d="M149 545q25 0 42.5 -17.5t17.5 -42.5t-17.5 -42t-42.5 -17t-42 17t-17 42t17 42.5t42 17.5zM153 101l-125 -184l-46 20l109 195z" />
    <glyph glyph-name="less" unicode="&#x3c;" horiz-adv-x="606" 
d="M555 98l-504 229v64l504 230v-72l-409 -191l409 -188v-72z" />
    <glyph glyph-name="equal" unicode="=" horiz-adv-x="606" 
d="M550 432h-494v69h494v-69zM550 217h-494v69h494v-69z" />
    <glyph glyph-name="greater" unicode="&#x3e;" horiz-adv-x="606" 
d="M461 358l-410 191v72l504 -230v-64l-504 -229v72z" />
    <glyph glyph-name="question" unicode="?" horiz-adv-x="591" 
d="M462 341q-7 -83 -56.5 -127t-131.5 -44q-36 0 -64.5 10.5t-49 28t-31.5 41.5t-11 51q0 54 35.5 88t101.5 60q49 20 86.5 33.5t62.5 28t37.5 33.5t12.5 49q0 44 -33 67.5t-92 23.5q-139 0 -157 -147h-66q11 106 72.5 160t157.5 54q39 0 73 -11t59 -31t39.5 -49t14.5 -64
q0 -57 -33 -99.5t-91 -62.5q-48 -17 -87 -31t-66.5 -29.5t-43 -34t-15.5 -43.5q0 -26 25 -44.5t64 -18.5q101 0 120 108h67zM246 105q25 0 42.5 -17t17.5 -42t-17 -42.5t-43 -17.5t-42.5 17.5t-16.5 42.5t17 42t42 17z" />
    <glyph glyph-name="at" unicode="@" horiz-adv-x="867" 
d="M431 560q49 0 77 -18.5t51 -53.5l13 67h52l-56 -319q-1 -3 -2 -9.5t-1 -10.5q0 -12 7.5 -18t18.5 -6q18 0 47 15t56.5 45t47.5 74t20 101q0 60 -24 112t-66.5 89.5t-100 59t-125.5 21.5q-75 0 -137.5 -26.5t-108 -72.5t-70.5 -107t-25 -130q0 -73 26.5 -136t73 -109
t110.5 -72t139 -26q42 0 76 8t64 23.5t57 37t54 48.5h52q-30 -37 -60.5 -66.5t-66.5 -50.5t-79 -32t-96 -11q-82 0 -153 29t-123 80t-82 120t-30 148q0 83 29 153.5t80.5 123t121.5 82t151 29.5q72 0 136 -24.5t111.5 -67.5t75.5 -100t28 -122q0 -126 -82 -207
q-20 -19 -43 -34.5t-46 -26t-44 -16t-37 -5.5q-29 0 -42.5 13.5t-14.5 40.5q-17 -21 -45 -35t-61 -14q-34 0 -63.5 12.5t-51.5 35.5t-34 56t-12 73q0 45 15 86.5t42 73t65.5 50.5t84.5 19zM409 209q29 0 52 14.5t40 40t26 59.5t9 74q0 45 -25 78t-73 33q-32 0 -58.5 -14
t-46 -37t-30.5 -53.5t-11 -63.5q0 -60 32.5 -95.5t84.5 -35.5z" />
    <glyph glyph-name="A" unicode="A" horiz-adv-x="740" 
d="M657 0h-74l-78 235h-304l-135 -235h-80l413 718h17zM240 304h242l-89 264z" />
    <glyph glyph-name="B" unicode="B" horiz-adv-x="574" 
d="M120 718h112q71 0 123.5 -6.5t93.5 -41.5q54 -45 54 -120q0 -59 -31 -104t-85 -65q63 -20 99.5 -65.5t36.5 -112.5q0 -94 -60 -148q-40 -36 -92 -45.5t-123 -9.5h-224zM150 411q11 -1 23 -1h23q57 0 100 5t75 25q28 18 43.5 47t15.5 61q0 33 -13 53t-37.5 31t-61 15
t-84.5 4h-26t-26 -1zM223 69q55 0 97.5 6t71 21t43.5 41t15 66q0 76 -61.5 108t-188.5 32q-14 0 -29.5 -1t-29.5 -1l-36 -272h118z" />
    <glyph glyph-name="C" unicode="C" horiz-adv-x="813" 
d="M696 77q-33 -22 -64.5 -39.5t-65.5 -29.5t-73 -18.5t-87 -6.5q-86 0 -154 26t-115.5 71.5t-72.5 108t-25 135.5q0 87 33 162t91.5 130.5t138 87.5t171.5 32q89 0 158.5 -28.5t138.5 -88.5l-44 -60q-57 54 -122.5 80.5t-137.5 26.5q-73 0 -137.5 -26.5t-112.5 -72.5
t-76 -108t-28 -133q0 -63 21.5 -114t60 -87t93 -55.5t120.5 -19.5t128.5 21t119.5 63z" />
    <glyph glyph-name="D" unicode="D" horiz-adv-x="744" 
d="M289 718q58 0 109 -8t99 -31q83 -40 129 -120t46 -180q0 -45 -9.5 -88.5t-27.5 -83t-42.5 -73t-54.5 -57.5q-57 -48 -124 -62.5t-148 -14.5h-243l95 718h171zM103 69h81q85 0 149.5 5t116.5 31q33 17 60.5 44.5t47 62.5t30.5 77t11 88q0 79 -34.5 141t-99.5 96
q-48 25 -95.5 30t-101.5 5h-88z" />
    <glyph glyph-name="E" unicode="E" horiz-adv-x="536" 
d="M506 649h-323l-32 -236h323l-9 -69h-323l-37 -275h323l-8 -69h-396l96 718h396z" />
    <glyph glyph-name="F" unicode="F" horiz-adv-x="485" 
d="M458 649h-276l-32 -236h276l-9 -69h-276l-47 -344h-71l97 718h346z" />
    <glyph glyph-name="G" unicode="G" horiz-adv-x="872" 
d="M797 351q-6 -82 -36.5 -150t-81.5 -116.5t-119.5 -75t-149.5 -26.5q-84 0 -152.5 27t-117 74.5t-75 111.5t-26.5 138q0 84 32 157t87 127.5t129.5 86t159.5 31.5q99 0 182.5 -42.5t150.5 -129.5l-58 -43q-56 73 -128 110.5t-149 37.5q-65 0 -125.5 -26t-106.5 -71
t-73.5 -106t-27.5 -130q0 -60 22.5 -112t61.5 -91t92 -61t114 -22q53 0 102.5 15t90 44.5t70.5 72.5t45 100h-263v69h350z" />
    <glyph glyph-name="H" unicode="H" horiz-adv-x="683" 
d="M190 718l-39 -291h368l39 291h70l-94 -718h-70l47 358h-370l-46 -358h-72l96 718h71z" />
    <glyph glyph-name="I" unicode="I" horiz-adv-x="226" 
d="M188 718l-96 -718h-73l97 718h72z" />
    <glyph glyph-name="J" unicode="J" horiz-adv-x="482" 
d="M403 718l-65 -495q-8 -63 -18.5 -110t-36.5 -78q-21 -26 -52.5 -39.5t-69.5 -13.5q-49 0 -91 21.5t-82 64.5l55 40q29 -28 58 -43.5t61 -15.5q27 0 45 12t29.5 34t18.5 53.5t12 69.5l65 500h71z" />
    <glyph glyph-name="K" unicode="K" horiz-adv-x="591" 
d="M190 718l-39 -291l336 291h104l-390 -336l337 -382h-92l-305 347l-47 -347h-71l96 718h71z" />
    <glyph glyph-name="L" unicode="L" horiz-adv-x="463" 
d="M194 718l-86 -649h310l-8 -69h-383l95 718h72z" />
    <glyph glyph-name="M" unicode="M" horiz-adv-x="919" 
d="M802 0h-67v495l-312 -495h-18l-186 513l-147 -513h-73l207 718h12l210 -583l363 583h11v-718z" />
    <glyph glyph-name="N" unicode="N" horiz-adv-x="740" 
d="M688 718l-98 -718h-15l-404 557l-76 -557h-71l97 718h16l405 -557l75 557h71z" />
    <glyph glyph-name="O" unicode="O" horiz-adv-x="869" 
d="M466 736q70 0 131.5 -24t107.5 -68t73 -106t27 -138q0 -88 -32 -164t-89 -132.5t-135.5 -89t-171.5 -32.5q-79 0 -143 25t-108 69.5t-68 106t-24 135.5q0 89 32 165t89.5 132.5t137 88.5t173.5 32zM465 669q-81 0 -147 -28t-113 -76t-72.5 -111.5t-25.5 -133.5
q0 -60 18.5 -109.5t53.5 -85.5t84.5 -56t112.5 -20q76 0 141 27.5t113 75.5t75 112.5t27 139.5q0 60 -21 109t-57 83.5t-84.5 53.5t-104.5 19z" />
    <glyph glyph-name="P" unicode="P" horiz-adv-x="592" 
d="M344 718q50 0 88 -8t69 -34q56 -47 56 -127q0 -53 -24 -98.5t-65 -72.5q-38 -25 -85 -31t-106 -6h-127l-46 -341h-72l96 718h216zM159 410h124q47 0 84 5t64 25q25 18 39 47t14 61q0 57 -36 79t-107 22h-149z" />
    <glyph glyph-name="Q" unicode="Q" horiz-adv-x="871" 
d="M631 59q-56 -40 -118.5 -58.5t-134.5 -18.5q-79 0 -143 25t-108 69.5t-68 106t-24 135.5q0 89 32 165t89.5 132.5t137 88.5t173.5 32q70 0 131.5 -24t107.5 -68t73 -106t27 -138q0 -88 -31.5 -163t-92.5 -135l124 -131h-92zM633 154q48 49 74 114t26 136q0 60 -21 109
t-57 83.5t-84.5 53.5t-104.5 19q-81 0 -147 -28t-113 -76t-72.5 -111.5t-25.5 -133.5q0 -60 18.5 -109.5t53.5 -85.5t84.5 -56t112.5 -20q55 0 107.5 16t97.5 46l-121 128h93z" />
    <glyph glyph-name="R" unicode="R" horiz-adv-x="607" 
d="M333 718q44 0 80 -6t68 -29t49 -57.5t17 -77.5q0 -45 -19 -86.5t-51 -68.5q-34 -29 -79 -41t-104 -12l217 -340h-81l-216 341h-57l-47 -341h-72l98 718h197zM166 410h83q19 0 42 1t47 2q29 1 54 11.5t43 28.5t28.5 42.5t10.5 52.5q0 54 -33.5 77.5t-102.5 23.5h-139z" />
    <glyph glyph-name="S" unicode="S" horiz-adv-x="498" 
d="M74 177q16 -66 51 -96.5t80 -30.5q25 0 48.5 10t41.5 27.5t28.5 42t10.5 54.5q0 32 -10 57t-30.5 50.5t-51 55.5t-72.5 70q-26 26 -43.5 67t-17.5 83q0 39 13.5 70t36.5 53t53.5 34t64.5 12q60 0 106 -37t69 -113l-67 -18q-14 45 -44.5 73t-68.5 28q-42 0 -66 -29
t-24 -73q0 -29 14 -61t37 -53q43 -39 75.5 -72t54.5 -64.5t33 -63t11 -66.5q0 -40 -16 -77t-44.5 -65.5t-66 -45t-81.5 -16.5q-70 0 -120 43.5t-72 128.5z" />
    <glyph glyph-name="T" unicode="T" horiz-adv-x="426" 
d="M465 718l-9 -69h-183l-86 -649h-72l86 649h-174l9 69h429z" />
    <glyph glyph-name="U" unicode="U" 
d="M184 718l-54 -411q-3 -23 -6.5 -52t-3.5 -62q0 -72 38 -107.5t109 -35.5q43 0 79.5 13.5t61.5 39.5q38 38 54.5 104.5t28.5 163.5l44 347h71l-48 -362q-5 -38 -10.5 -84t-21.5 -97q-30 -99 -92 -145.5t-166 -46.5q-106 0 -163.5 52.5t-57.5 145.5q0 37 5 71.5t9 65.5
l52 400h71z" />
    <glyph glyph-name="V" unicode="V" horiz-adv-x="702" 
d="M132 718l179 -569l333 569h79l-420 -718h-17l-226 718h72z" />
    <glyph glyph-name="W" unicode="W" horiz-adv-x="960" 
d="M131 718l99 -533l278 533h14l126 -533l253 533h76l-343 -718h-13l-127 541l-285 -541h-14l-134 718h70z" />
    <glyph glyph-name="X" unicode="X" horiz-adv-x="609" 
d="M183 718l127 -279l211 279h84l-263 -348l169 -370h-75l-141 306l-232 -306h-85l285 377l-156 341h76z" />
    <glyph glyph-name="Y" unicode="Y" horiz-adv-x="592" 
d="M116 718l154 -326l259 326h87l-318 -400l-44 -318h-70l44 322l-187 396h75z" />
    <glyph glyph-name="Z" unicode="Z" horiz-adv-x="480" 
d="M476 718l-353 -649h269l-9 -69h-376l354 649h-264l10 69h369z" />
    <glyph glyph-name="bracketleft" unicode="[" horiz-adv-x="351" 
d="M345 736l-10 -69h-95l-112 -795h95l-9 -66h-164l131 930h164z" />
    <glyph glyph-name="backslash" unicode="\" horiz-adv-x="605" 
d="M572 -98h-74l-466 834h75z" />
    <glyph glyph-name="bracketright" unicode="]" horiz-adv-x="351" 
d="M-47 -194l10 69h95l112 795h-96l10 66h164l-131 -930h-164z" />
    <glyph glyph-name="asciicircum" unicode="^" horiz-adv-x="672" 
d="M365 718l249 -540h-64l-215 465l-213 -465h-63l249 540h57z" />
    <glyph glyph-name="underscore" unicode="_" horiz-adv-x="500" 
d="M506 -76v-48h-512v48h512z" />
    <glyph glyph-name="grave" unicode="`" horiz-adv-x="378" 
d="M295 630h-67l-123 151h105z" />
    <glyph glyph-name="a" unicode="a" horiz-adv-x="683" 
d="M618 531l-71 -531h-69l10 80q-92 -94 -211 -94q-54 0 -99.5 18.5t-78.5 51.5t-51.5 79t-18.5 101q0 66 25.5 122.5t67.5 98t97 65t114 23.5q70 0 118.5 -29t83.5 -86l12 101h71zM285 49q53 0 96.5 19t74.5 52t48.5 78t17.5 97q0 43 -14 77.5t-39.5 59t-59.5 37.5t-75 13
q-48 0 -91 -18.5t-75.5 -51t-51.5 -77.5t-19 -98q0 -43 14 -78t39 -59.5t59.5 -37.5t75.5 -13z" />
    <glyph glyph-name="b" unicode="b" horiz-adv-x="682" 
d="M29 0l98 736h69l-37 -284q92 93 211 93q54 0 99.5 -18t78.5 -51t51.5 -78.5t18.5 -101.5q0 -66 -25 -122.5t-67 -98t-96.5 -65t-114.5 -23.5q-70 0 -119 28.5t-84 85.5l-12 -101h-71zM363 482q-52 0 -96 -19t-75.5 -52t-49 -78t-17.5 -97q0 -43 14 -77.5t39.5 -58.5
t60 -37t74.5 -13q48 0 91 18t75.5 50.5t51.5 77.5t19 98q0 44 -14 78.5t-38.5 59t-59 37.5t-75.5 13z" />
    <glyph glyph-name="c" unicode="c" horiz-adv-x="647" 
d="M554 97q-52 -57 -114.5 -84t-143.5 -27q-64 0 -113.5 18.5t-83.5 51.5t-52 79.5t-18 102.5q0 65 25 121t68 97t101.5 65t125.5 24q80 0 141.5 -33.5t94.5 -94.5l-57 -33q-59 94 -180 94q-55 0 -101.5 -18.5t-79.5 -50.5t-51.5 -75t-18.5 -92q0 -43 13.5 -78.5t39 -61
t61.5 -39.5t82 -14q61 0 117 24.5t88 63.5z" />
    <glyph glyph-name="d" unicode="d" horiz-adv-x="685" 
d="M489 80q-92 -94 -211 -94q-54 0 -99.5 18.5t-78.5 51.5t-51.5 79t-18.5 101q0 66 25.5 122.5t67.5 98t97 65t114 23.5q70 0 118.5 -29t83.5 -86l40 306h70l-98 -736h-69zM286 49q53 0 96.5 19t74.5 52t48.5 78t17.5 97q0 43 -14 77.5t-39.5 59t-59.5 37.5t-75 13
q-48 0 -91 -18.5t-75.5 -51t-51.5 -77.5t-19 -98q0 -43 14 -78t39 -59.5t59.5 -37.5t75.5 -13z" />
    <glyph glyph-name="e" unicode="e" horiz-adv-x="650" 
d="M515 95q-39 -49 -100 -79t-136 -30q-60 0 -106.5 20t-78.5 54.5t-48.5 80.5t-16.5 97q0 61 23.5 116.5t65 98t98 68t122.5 25.5q53 0 96.5 -19t74.5 -52.5t48 -78.5t17 -96q0 -11 -1 -24t-3 -24h-473v-14q0 -41 13 -76t37 -60t58 -39t76 -14q56 0 103.5 22.5t79.5 64.5z
M508 312q-1 38 -15 69t-37 53t-54.5 33.5t-67.5 11.5q-77 0 -138.5 -43t-87.5 -124h400z" />
    <glyph glyph-name="f" unicode="f" horiz-adv-x="314" 
d="M120 578q4 33 11 64t20.5 55t35.5 39t56 15q26 0 46 -10t37 -23l-9 -64q-17 16 -34 25t-32 9q-31 0 -43 -29.5t-18 -70.5l-8 -57h109l-7 -60h-109l-66 -471h-70l67 471h-67l8 60h67z" />
    <glyph glyph-name="g" unicode="g" horiz-adv-x="673" 
d="M611 531l-61 -449q-4 -33 -9.5 -63t-14.5 -57t-23 -51t-37 -46q-35 -34 -89 -53.5t-117 -19.5q-89 0 -152 35.5t-97 107.5l61 21q27 -50 75 -75.5t112 -25.5q42 0 77.5 10.5t62.5 28.5t44 42t22 50q5 23 9 45t7 42l3 21q-87 -94 -211 -94q-57 0 -102 18.5t-76.5 51
t-48.5 77t-17 95.5q0 64 26 119t68 96t95.5 64.5t109.5 23.5q66 0 115.5 -29t87.5 -86l13 101h67zM341 482q-51 0 -95.5 -18t-77.5 -50.5t-52 -77t-19 -97.5q0 -81 50 -128.5t133 -47.5q50 0 93.5 17.5t75 49t49.5 74.5t18 94q0 43 -14.5 77t-38.5 58t-55.5 36.5t-66.5 12.5
z" />
    <glyph glyph-name="h" unicode="h" horiz-adv-x="610" 
d="M188 736l-39 -285q83 95 188 95q38 0 71 -12.5t57.5 -36t39 -57.5t14.5 -78q0 -35 -4 -64.5t-7 -53.5l-33 -244h-67l33 244q5 32 7.5 61t2.5 54q0 57 -33.5 90.5t-89.5 33.5q-50 0 -93.5 -24t-69.5 -66q-18 -29 -28.5 -70.5t-17.5 -92.5l-32 -230h-68l101 736h68z" />
    <glyph glyph-name="i" unicode="i" horiz-adv-x="200" 
d="M134 750q23 0 39 -16t16 -39t-16 -39t-39 -16t-39 16t-16 39t16 39t39 16zM145 531l-71 -531h-67l73 531h65z" />
    <glyph glyph-name="j" unicode="j" horiz-adv-x="203" 
d="M137 750q23 0 39 -16t16 -39t-16 -39t-39 -16t-39 16t-16 39t16 39t39 16zM150 531l-78 -565q-11 -82 -34 -128.5t-76 -46.5q-15 0 -30 5t-28 10l8 58q6 -4 15 -7t20 -3q23 0 35.5 21.5t19.5 69.5l81 586h67z" />
    <glyph glyph-name="k" unicode="k" horiz-adv-x="502" 
d="M190 736l-57 -401l256 196h106l-308 -237l272 -294h-91l-245 264l-36 -264h-68l104 736h67z" />
    <glyph glyph-name="l" unicode="l" horiz-adv-x="200" 
d="M177 736l-102 -736h-68l103 736h67z" />
    <glyph glyph-name="m" unicode="m" horiz-adv-x="938" 
d="M149 456q33 45 81 67t94 22q55 0 97.5 -29.5t61.5 -89.5q36 57 88.5 88t108.5 31q35 0 66 -11.5t54 -33.5t36.5 -54t13.5 -73q0 -21 -3 -42t-5 -39l-39 -292h-67l36 255q5 34 7.5 62.5t2.5 50.5q0 49 -28.5 79.5t-80.5 30.5q-32 0 -60 -10t-53 -33q-38 -35 -54.5 -78.5
t-24.5 -101.5l-36 -255h-68l40 292q2 17 4.5 36.5t2.5 38.5q0 54 -31 84.5t-78 30.5q-32 0 -62.5 -12.5t-54.5 -33.5q-35 -31 -52 -77t-26 -109l-35 -250h-68l76 531h66z" />
    <glyph glyph-name="n" unicode="n" horiz-adv-x="610" 
d="M149 450q81 95 188 95q39 0 72.5 -12.5t58 -36t38 -57.5t13.5 -77q0 -38 -4 -68t-7 -50l-33 -244h-67l33 244q3 25 6.5 53.5t3.5 60.5q0 57 -32.5 90.5t-89.5 33.5q-51 0 -94.5 -23t-69.5 -65q-19 -29 -28.5 -70.5t-17.5 -93.5l-32 -230h-67l74 531h65z" />
    <glyph glyph-name="o" unicode="o" 
d="M332 545q52 0 96.5 -18.5t77.5 -52t52 -80t19 -103.5q0 -63 -22 -118t-62 -96.5t-96.5 -65.5t-124.5 -24q-55 0 -100 18.5t-77.5 51.5t-50 78.5t-17.5 99.5q0 65 23.5 121.5t65 98.5t97 66t119.5 24zM330 482q-49 0 -92 -18t-74.5 -50.5t-50 -77t-18.5 -97.5
q0 -41 13.5 -76t37.5 -60t58.5 -39t76.5 -14q51 0 93 19.5t72 52.5t46.5 77t16.5 93q0 43 -13.5 78t-37.5 60t-57 38.5t-71 13.5z" />
    <glyph glyph-name="p" unicode="p" horiz-adv-x="682" 
d="M159 452q92 93 211 93q54 0 99.5 -18t78.5 -51t51.5 -78.5t18.5 -101.5q0 -66 -25 -122.5t-67 -98t-97 -65t-115 -23.5q-70 0 -119 28.5t-83 85.5l-38 -295h-71l97 725h69zM362 482q-52 0 -95.5 -19t-75 -52t-49 -78t-17.5 -97q0 -43 14 -77.5t39.5 -58.5t60 -37
t74.5 -13q48 0 91 18t75.5 50.5t51.5 77.5t19 98q0 44 -14 78.5t-39 59t-59.5 37.5t-75.5 13z" />
    <glyph glyph-name="q" unicode="q" horiz-adv-x="682" 
d="M618 531l-97 -725h-69l36 274q-92 -94 -211 -94q-54 0 -99.5 18.5t-78.5 51.5t-51.5 79t-18.5 101q0 66 25.5 122.5t67.5 98t97 65t114 23.5q70 0 118.5 -29t83.5 -86l12 101h71zM285 49q53 0 96.5 19t74.5 52t48.5 78t17.5 97q0 43 -14 77.5t-39.5 59t-59.5 37.5t-75 13
q-48 0 -91 -18.5t-75.5 -51t-51.5 -77.5t-19 -98q0 -43 14 -78t39 -59.5t59.5 -37.5t75.5 -13z" />
    <glyph glyph-name="r" unicode="r" horiz-adv-x="301" 
d="M124 465q28 38 65.5 59t79.5 21q21 0 35.5 -4.5t25.5 -9.5l-33 -62q-8 3 -18.5 6t-23.5 3q-26 0 -52 -13t-46 -37q-30 -36 -43.5 -86.5t-22.5 -116.5l-31 -225h-67l72 531h68z" />
    <glyph glyph-name="s" unicode="s" horiz-adv-x="388" 
d="M24 122q60 -72 128 -72q18 0 35.5 7t31.5 19.5t22.5 29.5t8.5 37q0 22 -11 42.5t-31 34.5q-40 29 -71 50.5t-52 41.5t-31.5 41.5t-10.5 49.5q0 30 12.5 56t33.5 45t50 30t62 11q50 0 81 -20.5t57 -52.5l-37 -56q-22 31 -48 48.5t-58 17.5q-19 0 -34.5 -7t-26.5 -18
t-17.5 -24.5t-6.5 -26.5q0 -18 12 -36.5t34 -32.5q36 -24 65.5 -44t51 -42t33 -48.5t11.5 -61.5q0 -34 -13 -62.5t-35.5 -49t-53.5 -31.5t-67 -11q-48 0 -90.5 22.5t-75.5 64.5z" />
    <glyph glyph-name="t" unicode="t" horiz-adv-x="339" 
d="M244 730l-26 -199h105l-7 -60h-106l-64 -471h-69l65 471h-92l8 60h91l28 199h67z" />
    <glyph glyph-name="u" unicode="u" horiz-adv-x="608" 
d="M160 531l-30 -222q-5 -34 -9 -64.5t-4 -56.5q0 -31 11 -56.5t31 -43.5t47 -28t59 -10q40 0 75 16.5t57 45.5q25 32 32 71t13 83l38 265h66l-27 -201q-12 -89 -26 -152.5t-41 -101.5q-30 -42 -80 -65.5t-110 -23.5q-46 0 -85 15t-66.5 41t-43 62.5t-15.5 79.5q0 17 3 54.5
t10 89.5l27 202h68z" />
    <glyph glyph-name="v" unicode="v" horiz-adv-x="554" 
d="M97 531l134 -389l224 389h74l-306 -531h-13l-183 531h70z" />
    <glyph glyph-name="w" unicode="w" horiz-adv-x="831" 
d="M102 531l109 -375l200 375h12l121 -378l195 378h74l-275 -531h-14l-123 375l-199 -375h-13l-155 531h68z" />
    <glyph glyph-name="x" unicode="x" horiz-adv-x="480" 
d="M94 531l130 -207l152 207h82l-197 -267l161 -264h-78l-126 204l-150 -204h-82l195 264l-164 267h77z" />
    <glyph glyph-name="y" unicode="y" horiz-adv-x="536" 
d="M94 531l137 -392l228 392h75l-420 -725h-77l150 259l-164 466h71z" />
    <glyph glyph-name="z" unicode="z" horiz-adv-x="425" 
d="M410 531l-317 -471h288l-8 -60h-401l319 471h-254l8 60h365z" />
    <glyph glyph-name="braceleft" unicode="{" horiz-adv-x="351" 
d="M103 115q0 93 -84 94l11 80q40 1 63 18t37 49t21.5 78t15.5 106q7 51 21 85.5t36 55t52.5 29t69.5 8.5h27l-10 -76h-16q-25 0 -42 -4t-28 -15t-17 -30.5t-11 -51.5q-9 -61 -16 -107t-21 -80.5t-38.5 -60t-67.5 -44.5q42 -19 60 -51.5t18 -84.5q0 -57 -10.5 -109
t-10.5 -94q0 -35 19 -44.5t55 -9.5h15l-11 -76h-27q-64 0 -98.5 24.5t-34.5 92.5q0 26 3.5 53.5t7.5 55.5t7.5 55.5t3.5 53.5z" />
    <glyph glyph-name="bar" unicode="|" horiz-adv-x="672" 
d="M371 736v-930h-70v930h70z" />
    <glyph glyph-name="braceright" unicode="}" horiz-adv-x="351" 
d="M189 383q0 -93 83 -94l-11 -80q-40 -1 -63 -18.5t-37 -49.5t-21.5 -78.5t-15.5 -105.5q-7 -51 -21.5 -85.5t-36.5 -54.5t-52 -28.5t-69 -8.5h-27l11 76h15q25 0 42 4t28 15t17.5 30.5t10.5 51.5q9 61 16 107t21 81t38.5 60t67.5 44q-42 19 -60 51.5t-18 84.5
q0 57 10.5 109t10.5 94q0 35 -19 44.5t-55 9.5h-15l11 76h27q65 0 99.5 -24.5t34.5 -92.5q0 -26 -3.5 -53.5t-7.5 -55.5t-7.5 -55.5t-3.5 -53.5z" />
    <glyph glyph-name="asciitilde" unicode="~" horiz-adv-x="606" 
d="M55 388q33 19 62.5 33t61.5 14q33 0 66.5 -12.5t65.5 -28t61.5 -28t54.5 -12.5q30 0 59.5 16.5t64.5 38.5v-79q-35 -20 -64.5 -33t-58.5 -13q-33 0 -66.5 12t-65 26.5t-60.5 26.5t-53 12q-29 0 -60 -14.5t-68 -36.5v78z" />
    <glyph glyph-name="uni00A0" unicode="&#xa0;" horiz-adv-x="277" 
 />
    <glyph glyph-name="exclamdown" unicode="&#xa1;" horiz-adv-x="295" 
d="M151 423q-25 0 -42.5 17.5t-17.5 42.5q0 24 17.5 41.5t42.5 17.5t42 -17t17 -42t-17 -42.5t-42 -17.5zM29 -208l74 557h68l-75 -557h-67z" />
    <glyph glyph-name="cent" unicode="&#xa2;" horiz-adv-x="554" 
d="M550 627l-82 -127q11 -8 21.5 -16t23.5 -20l-42 -54q-10 9 -20.5 17.5t-19.5 15.5l-244 -375q14 -5 32 -10t47 -5q98 0 175 68l38 -53q-46 -40 -101 -61t-118 -21q-40 0 -65 7.5t-45 17.5l-97 -150l-53 34l100 151q-40 42 -58.5 85.5t-18.5 99.5q0 65 25 122.5t67 100
t96 67t112 24.5q23 0 46 -4t45 -12l86 131zM376 471q-9 3 -22 7t-29 4q-46 0 -88.5 -20t-74.5 -53.5t-51.5 -78.5t-19.5 -96q0 -38 11 -70.5t35 -59.5z" />
    <glyph glyph-name="sterling" unicode="&#xa3;" horiz-adv-x="554" 
d="M406 344h-138q1 -13 1.5 -27t0.5 -26q0 -44 -6 -84t-21 -81q42 -31 69 -50.5t50 -19.5q26 0 44.5 30.5t25.5 81.5h71q-3 -32 -13 -65t-28 -60t-43.5 -44t-58.5 -17q-35 0 -70.5 19.5t-79.5 58.5q-27 -38 -57 -58t-67 -20q-41 0 -67 25.5t-26 67.5q0 22 8.5 42.5t24 36
t36 25t44.5 9.5q22 0 40.5 -5.5t35.5 -14.5q6 20 10.5 45.5t4.5 62.5q0 35 -3 68h-141l10 69h123q-6 37 -10.5 68.5t-4.5 58.5q0 48 15.5 85t42 61.5t62 37t74.5 12.5q73 0 116 -45t43 -127v-15h-70q-2 56 -21 88t-72 32q-49 0 -83 -33t-34 -88q0 -23 4 -56.5t12 -78.5h156z
M155 103q-10 7 -22.5 12.5t-26.5 5.5q-20 0 -32.5 -11t-12.5 -28q0 -14 8 -23.5t22 -9.5q18 0 34 14.5t30 39.5z" />
    <glyph glyph-name="currency" unicode="&#xa4;" horiz-adv-x="614" 
d="M491 137q-17 17 -33.5 33t-33.5 33q-24 -19 -54 -29.5t-63 -10.5q-26 0 -57.5 8.5t-60.5 31.5l-66 -66q-10 9 -18.5 18t-17.5 19l67 64q-17 24 -28 53.5t-11 62.5t10 63t29 53q-17 17 -33.5 32.5t-33.5 32.5q9 10 17.5 19t18.5 18l66 -66q31 23 61.5 31.5t56.5 8.5
q28 0 60 -10t56 -30q17 17 34 33t34 33l36 -37q-17 -17 -34 -32.5t-34 -32.5q21 -26 30.5 -56.5t9.5 -59.5q0 -32 -10.5 -61t-29.5 -55l34 -32l34 -32zM448 355q0 31 -12 57t-32 44.5t-45 28.5t-51 10q-31 0 -57 -11.5t-45 -30.5t-29.5 -44.5t-10.5 -53.5t11 -54t30 -45.5
t45 -31t55 -11.5t54.5 11.5t45 31t30.5 45t11 54.5z" />
    <glyph glyph-name="yen" unicode="&#xa5;" horiz-adv-x="554" 
d="M71 718h75l123 -294l201 294h82l-252 -374h179l-9 -56h-179l-10 -75h179l-9 -56h-179l-21 -157h-71l23 157h-180l7 56h180l10 75h-179l7 56h179z" />
    <glyph glyph-name="brokenbar" unicode="&#xa6;" horiz-adv-x="672" 
d="M301 426v310h70v-310h-70zM301 -194v310h70v-310h-70z" />
    <glyph glyph-name="section" unicode="&#xa7;" horiz-adv-x="615" 
d="M101 -68q12 -38 38 -57t73 -19q27 0 50 8t40 22t26.5 33t9.5 41q0 56 -80 111q-48 33 -83 59t-58.5 50t-34.5 49.5t-11 57.5q0 54 39.5 97.5t111.5 60.5q-36 28 -54.5 59.5t-18.5 72.5q0 35 14 66t39.5 54.5t60.5 37.5t78 14q72 0 119.5 -42.5t50.5 -122.5h-68
q-12 98 -101 98q-28 0 -51 -9t-39.5 -23.5t-25.5 -33t-9 -37.5q0 -27 21.5 -54.5t50.5 -46.5q43 -28 79 -52t62 -48t40.5 -50t14.5 -57q0 -26 -10.5 -51.5t-31.5 -47t-51.5 -38t-71.5 -24.5q38 -30 64.5 -64t26.5 -85q0 -34 -14.5 -64.5t-41.5 -53.5t-64 -36.5t-82 -13.5
q-74 0 -119 34t-58 105h69zM270 410q-61 -9 -96 -41t-35 -74q0 -23 10 -41.5t28 -35t42 -33t51 -36.5q33 3 60.5 14.5t46.5 27.5t29.5 35.5t10.5 38.5q0 22 -11.5 39t-31 33t-46.5 33.5t-58 39.5z" />
    <glyph glyph-name="dieresis" unicode="&#xa8;" horiz-adv-x="369" 
d="M136 741q23 0 36 -14t13 -43q0 -9 -5 -18.5t-13.5 -18t-20 -14t-25.5 -5.5q-22 0 -35.5 13.5t-13.5 42.5q0 9 5 19t14 18.5t20.5 14t24.5 5.5zM336 741q23 0 35.5 -14t12.5 -43q0 -8 -5 -18t-13.5 -18.5t-20 -14t-25.5 -5.5q-23 0 -36 13.5t-13 42.5q0 8 5 18t14 18.5
t21 14.5t25 6z" />
    <glyph glyph-name="copyright" unicode="&#xa9;" horiz-adv-x="747" 
d="M738 373q0 -76 -28.5 -142t-78 -115t-116 -77t-141.5 -28t-141.5 28.5t-116 77.5t-78.5 115t-29 141q0 76 29 142t78.5 115t116 77.5t141.5 28.5t141.5 -28t116 -77t78 -115.5t28.5 -142.5zM687 373q0 65 -24.5 122.5t-67 100.5t-99.5 67.5t-122 24.5t-122.5 -24.5
t-100 -67.5t-67.5 -100.5t-25 -122.5t25 -122.5t67.5 -100t100 -67t122.5 -24.5t121.5 24.5t99.5 67t67.5 100t24.5 122.5zM552 325q-9 -75 -56 -120.5t-125 -45.5q-40 0 -75 13.5t-60 41t-39.5 68.5t-14.5 96q0 49 14.5 89t40.5 68t61.5 43t77.5 15q75 0 122 -37t54 -106
h-63q-10 41 -36.5 62t-74.5 21q-61 0 -94.5 -43t-33.5 -117q0 -79 33 -120.5t93 -41.5q43 0 74 28t39 86h63z" />
    <glyph glyph-name="ordfeminine" unicode="&#xaa;" horiz-adv-x="369" 
d="M250 396l6 38q-20 -19 -42 -32.5t-55 -13.5q-54 0 -89 42.5t-35 113.5q0 42 13 77.5t34 61t48 39.5t56 14q34 0 56.5 -16.5t47.5 -42.5l7 51h58l-48 -332h-57zM173 440q46 0 76.5 39t30.5 101q0 49 -24.5 76.5t-59.5 27.5q-21 0 -40 -10t-33.5 -28.5t-23.5 -44t-9 -56.5
q0 -50 23.5 -77.5t59.5 -27.5z" />
    <glyph glyph-name="guillemotleft" unicode="&#xab;" horiz-adv-x="425" 
d="M217 531l-147 -268l69 -263h-66l-73 272l143 259h74zM442 531l-148 -268l70 -263h-67l-72 272l143 259h74z" />
    <glyph glyph-name="logicalnot" unicode="&#xac;" horiz-adv-x="606" 
d="M550 218h-67v214h-427v69h494v-283z" />
    <glyph glyph-name="uni00AD" unicode="&#xad;" horiz-adv-x="332" 
d="M279 300l-8 -60h-269l8 60h269z" />
    <glyph glyph-name="registered" unicode="&#xae;" horiz-adv-x="747" 
d="M738 372q0 -76 -29 -142.5t-79 -115.5t-116 -77t-140 -28q-75 0 -141.5 28t-116 77t-78.5 115.5t-29 142.5q0 74 28 140t77 115.5t115.5 79t144.5 29.5q76 0 142.5 -29t115.5 -78.5t77.5 -116t28.5 -140.5zM687 372q0 64 -24.5 121t-66.5 100.5t-99 69t-123 25.5
t-123 -25t-100 -68t-67.5 -100.5t-24.5 -122.5q0 -67 25.5 -124.5t68.5 -100t100 -66.5t121 -24t121 24.5t99.5 67t67.5 100t25 123.5zM397 584q21 0 41 -1t35 -6q34 -11 54 -40t20 -67q0 -22 -4 -37t-11.5 -25.5t-17.5 -18t-21 -15.5q28 -14 38 -33t10 -62v-47
q0 -30 8.5 -44t13.5 -23h-74q-5 20 -7 35.5t-3 26.5l-3 51q-2 34 -15 48t-51 14h-121v-175h-67v419h175zM289 400h118q72 0 72 62q0 21 -7 33.5t-18.5 19t-26.5 8t-32 1.5h-106v-124z" />
    <glyph glyph-name="macron" unicode="&#xaf;" horiz-adv-x="485" 
d="M459 723l-8 -60h-337l8 60h337z" />
    <glyph glyph-name="degree" unicode="&#xb0;" horiz-adv-x="400" 
d="M390 569q0 -37 -14 -68t-37 -53.5t-54 -35t-64 -12.5q-36 0 -66.5 13.5t-53.5 36t-36 52.5t-13 62q0 41 14.5 72.5t38 54t54 34t62.5 11.5q34 0 64.5 -12.5t54 -34.5t37 -53t13.5 -67zM331 567q0 24 -8.5 45.5t-23 37.5t-35 25t-44.5 9q-22 0 -41.5 -8.5t-34.5 -24.5
t-24 -38t-9 -48q0 -22 9 -42.5t23.5 -36t34 -25t40.5 -9.5q26 0 46.5 9.5t35.5 25.5t23 37t8 43z" />
    <glyph glyph-name="plusminus" unicode="&#xb1;" horiz-adv-x="606" 
d="M270 658h67v-211h213v-69h-213v-211h-67v211h-214v69h214v211zM550 11h-494v69h494v-69z" />
    <glyph glyph-name="two.superior" unicode="&#xb2;" horiz-adv-x="332" 
d="M160 500q52 48 81 79t29 59q0 21 -19 35.5t-50 14.5q-36 0 -57 -20t-23 -62h-55q4 65 41 97.5t98 32.5q53 0 86.5 -28t33.5 -71q0 -41 -28 -73.5t-76 -76.5l-87 -80h172l-7 -48h-291z" />
    <glyph glyph-name="three.superior" unicode="&#xb3;" horiz-adv-x="332" 
d="M170 581q42 0 69.5 16.5t27.5 41.5q0 21 -19.5 35t-45.5 14t-44.5 -12.5t-23.5 -38.5h-55q8 51 43 75t83 24q51 0 84 -27.5t33 -71.5q0 -31 -16 -49t-44 -32q23 -16 36.5 -34.5t13.5 -47.5q0 -26 -11.5 -48.5t-32 -39.5t-48.5 -27t-60 -10q-54 0 -90 29t-44 88h54
q5 -33 24 -51t57 -18q18 0 35.5 6.5t31 17t21.5 24t8 27.5q0 30 -27 47.5t-81 16.5l6 45h15z" />
    <glyph glyph-name="acute" unicode="&#xb4;" horiz-adv-x="375" 
d="M389 781l-166 -151h-67l128 151h105z" />
    <glyph glyph-name="uni00B5" unicode="&#xb5;" horiz-adv-x="608" 
d="M402 58q-33 -35 -71 -52.5t-86 -17.5q-92 0 -139 68l-34 -250h-68l100 725h68l-39 -280q-2 -16 -4 -33t-2 -28q0 -62 38 -95t92 -33q52 0 95.5 31.5t60.5 82.5q6 17 9.5 38.5t6.5 44.5l38 272h69l-73 -531h-69z" />
    <glyph glyph-name="paragraph" unicode="&#xb6;" horiz-adv-x="564" 
d="M236 345q-46 -1 -81.5 13t-59.5 40t-36.5 62.5t-12.5 79.5q0 89 51 144t152 55h250v-37h-41v-815h-58v815h-106v-815h-58v458z" />
    <glyph glyph-name="periodcentered" unicode="&#xb7;" horiz-adv-x="277" 
d="M124 419q25 0 42 -18t17 -42q0 -25 -17 -42t-42 -17t-42.5 17t-17.5 42q0 24 17 42t43 18z" />
    <glyph glyph-name="cedilla" unicode="&#xb8;" horiz-adv-x="324" 
d="M130 0l-17 -58q5 1 9.5 1.5t9.5 0.5q49 0 49 -52q0 -11 -7.5 -24.5t-23 -25.5t-38.5 -20t-54 -8q-41 0 -79 15l15 34q13 -5 28.5 -7.5t29.5 -2.5q37 0 53.5 10.5t16.5 21.5t-8 16t-20 5q-8 0 -17.5 -1.5t-16.5 -3.5l27 99h43z" />
    <glyph glyph-name="one.superior" unicode="&#xb9;" horiz-adv-x="332" 
d="M244 727l-59 -369h-53l51 321h-60l21 48h100z" />
    <glyph glyph-name="ordmasculine" unicode="&#xba;" horiz-adv-x="369" 
d="M205 736q29 0 54.5 -11.5t44.5 -32.5t30 -50t11 -65q0 -39 -12.5 -73.5t-35.5 -60t-54.5 -40.5t-69.5 -15q-31 0 -56.5 11.5t-44 32.5t-28.5 49.5t-10 62.5q0 41 13 76t36.5 61t54.5 40.5t67 14.5zM203 684q-24 0 -44.5 -10t-36 -28t-24.5 -43.5t-9 -56.5q0 -48 24.5 -77
t64.5 -29q25 0 45.5 10.5t35.5 29.5t23 44t8 54q0 50 -25.5 78t-61.5 28z" />
    <glyph glyph-name="guillemotright" unicode="&#xbb;" horiz-adv-x="425" 
d="M-39 0l148 269l-70 262h67l72 -272l-143 -259h-74zM186 0l147 269l-69 262h66l73 -272l-143 -259h-74z" />
    <glyph glyph-name="onequarter" unicode="&#xbc;" horiz-adv-x="831" 
d="M111 -18l455 754h55l-456 -754h-54zM109 727h100l-59 -369h-53l51 321h-60zM728 390l-42 -266h59l-8 -48h-59l-12 -76h-52l11 76h-194zM656 245l-116 -121h93z" />
    <glyph glyph-name="onehalf" unicode="&#xbd;" horiz-adv-x="831" 
d="M548 736h55l-456 -754h-54zM209 727l-59 -369h-53l51 321h-60l21 48h100zM585 142q53 49 82 79.5t29 58.5q0 21 -19.5 36t-50.5 15q-36 0 -57 -20.5t-23 -62.5h-55q4 65 41.5 98t98.5 33q53 0 86.5 -28.5t33.5 -71.5q0 -20 -7.5 -37.5t-21.5 -35t-33 -36t-43 -41.5
l-86 -81h172l-7 -48h-292z" />
    <glyph glyph-name="threequarters" unicode="&#xbe;" horiz-adv-x="831" 
d="M161 581q42 0 69.5 16.5t27.5 41.5q0 21 -19.5 35t-45.5 14t-44.5 -12.5t-23.5 -38.5h-55q8 51 43 75t83 24q51 0 84 -27.5t33 -71.5q0 -31 -16 -49t-44 -32q23 -16 36.5 -34.5t13.5 -47.5q0 -26 -11.5 -48.5t-32 -39.5t-48.5 -27t-60 -10q-54 0 -90 29t-44 88h54
q5 -33 24 -51t57 -18q18 0 35.5 6.5t31 17t21.5 24t8 27.5q0 30 -27 47.5t-81 16.5l6 45h15zM169 -18l455 754h55l-456 -754h-54zM768 390l-42 -266h59l-7 -48h-59l-12 -76h-53l12 76h-194zM696 245l-116 -121h94z" />
    <glyph glyph-name="questiondown" unicode="&#xbf;" horiz-adv-x="591" 
d="M316 437q-25 0 -42 17t-17 42t17 42.5t42 17.5t42.5 -17.5t17.5 -42.5t-17.5 -42t-42.5 -17zM101 202q7 84 56.5 127.5t131.5 43.5q36 0 64.5 -10t48.5 -28t30.5 -42t10.5 -51q0 -54 -35 -88.5t-101 -60.5q-49 -19 -86 -32.5t-62 -28.5t-37.5 -34.5t-12.5 -49.5
q0 -43 32.5 -66t92.5 -23q138 0 156 146h67q-11 -106 -73 -159.5t-158 -53.5q-39 0 -73 11t-59 31t-39 48.5t-14 63.5q0 57 33 99t91 63q48 17 87 31.5t67 30t43.5 33.5t15.5 43q0 27 -26 45.5t-64 18.5q-101 0 -121 -108h-66z" />
    <glyph glyph-name="Agrave" unicode="&#xc0;" horiz-adv-x="740" 
d="M407 777h58l-56 118h-73zM657 0h-74l-78 235h-304l-135 -235h-80l413 718h17zM240 304h242l-89 264z" />
    <glyph glyph-name="Aacute" unicode="&#xc1;" horiz-adv-x="740" 
d="M509 895l-90 -118h58l105 118h-73zM657 0h-74l-78 235h-304l-135 -235h-80l413 718h17zM240 304h242l-89 264z" />
    <glyph glyph-name="Acircumflex" unicode="&#xc2;" horiz-adv-x="740" 
d="M378 777h-68l114 118h70l80 -118h-68l-53 79zM657 0h-74l-78 235h-304l-135 -235h-80l413 718h17zM240 304h242l-89 264z" />
    <glyph glyph-name="Atilde" unicode="&#xc3;" horiz-adv-x="740" 
d="M317 787q6 42 20.5 66t34 33t41.5 3.5t43 -23.5q16 -14 28.5 -22.5t22 -8t16 12.5t10.5 39h52q-6 -42 -20.5 -66.5t-33.5 -33.5t-41 -3.5t-43 23.5q-16 14 -29 22.5t-22.5 8t-16 -12t-10.5 -38.5h-52zM657 0h-74l-78 235h-304l-135 -235h-80l413 718h17zM240 304h242
l-89 264z" />
    <glyph glyph-name="Adieresis" unicode="&#xc4;" horiz-adv-x="740" 
d="M334 884q23 0 36 -14t13 -43q0 -9 -5 -18.5t-13.5 -18t-20 -14t-25.5 -5.5q-22 0 -35.5 13.5t-13.5 42.5q0 9 5 19t14 18.5t20.5 14t24.5 5.5zM534 884q23 0 35.5 -14t12.5 -43q0 -8 -5 -18t-13.5 -18.5t-20 -14t-25.5 -5.5q-23 0 -36 13.5t-13 42.5q0 8 5 18t14 18.5
t21 14.5t25 6zM657 0h-74l-78 235h-304l-135 -235h-80l413 718h17zM240 304h242l-89 264z" />
    <glyph glyph-name="Aring" unicode="&#xc5;" horiz-adv-x="740" 
d="M398 958q42 0 71.5 -29t29.5 -72q0 -21 -8 -39.5t-21.5 -32.5t-32 -22t-39.5 -8t-39.5 8t-32.5 22t-22 32.5t-8 39.5q0 42 29.5 71.5t72.5 29.5zM398 916q-26 1 -42.5 -16.5t-16.5 -42.5q0 -26 18 -42.5t41 -16.5q25 0 42 17.5t17 41.5q1 25 -17 42t-42 17zM657 0h-74
l-78 235h-304l-135 -235h-80l413 718h17zM240 304h242l-89 264z" />
    <glyph glyph-name="AE" unicode="&#xc6;" horiz-adv-x="992" 
d="M445 0l32 234h-247l-168 -234h-78l517 718h437l-10 -69h-323l-32 -236h323l-9 -69h-323l-37 -275h332l-8 -69h-406zM280 303h206l47 353z" />
    <glyph glyph-name="Ccedilla" unicode="&#xc7;" horiz-adv-x="813" 
d="M466 666q-73 0 -137.5 -26.5t-112.5 -72.5t-76 -108t-28 -133q0 -63 21.5 -114t60 -87t93 -55.5t120.5 -19.5t128.5 21t119.5 63l41 -57q-33 -22 -64.5 -39.5t-65.5 -29.5t-73 -18.5t-87 -6.5h-18.5t-18.5 1l-12 -42q5 1 9.5 1.5t9.5 0.5q49 0 49 -52q0 -11 -7.5 -24.5
t-23 -25.5t-38.5 -20t-54 -8q-41 0 -79 15l15 34q13 -5 28.5 -7.5t29.5 -2.5q37 0 53.5 10.5t16.5 21.5t-8 16t-20 5q-8 0 -17.5 -1.5t-16.5 -3.5l24 88q-68 11 -122 40.5t-91 73.5t-56.5 100.5t-19.5 120.5q0 87 33 162t91.5 130.5t138 87.5t171.5 32q89 0 158.5 -28.5
t138.5 -88.5l-44 -60q-57 54 -122.5 80.5t-137.5 26.5z" />
    <glyph glyph-name="Egrave" unicode="&#xc8;" horiz-adv-x="536" 
d="M305 777h58l-56 118h-73zM506 649h-323l-32 -236h323l-9 -69h-323l-37 -275h323l-8 -69h-396l96 718h396z" />
    <glyph glyph-name="Eacute" unicode="&#xc9;" horiz-adv-x="536" 
d="M407 895l-90 -118h58l105 118h-73zM506 649h-323l-32 -236h323l-9 -69h-323l-37 -275h323l-8 -69h-396l96 718h396z" />
    <glyph glyph-name="Ecircumflex" unicode="&#xca;" horiz-adv-x="536" 
d="M276 777h-68l114 118h70l80 -118h-68l-53 79zM506 649h-323l-32 -236h323l-9 -69h-323l-37 -275h323l-8 -69h-396l96 718h396z" />
    <glyph glyph-name="Edieresis" unicode="&#xcb;" horiz-adv-x="536" 
d="M249 884q23 0 36 -14t13 -43q0 -9 -5 -18.5t-13.5 -18t-20 -14t-25.5 -5.5q-22 0 -35.5 13.5t-13.5 42.5q0 9 5 19t14 18.5t20.5 14t24.5 5.5zM449 884q23 0 35.5 -14t12.5 -43q0 -8 -5 -18t-13.5 -18.5t-20 -14t-25.5 -5.5q-23 0 -36 13.5t-13 42.5q0 8 5 18t14 18.5
t21 14.5t25 6zM506 649h-323l-32 -236h323l-9 -69h-323l-37 -275h323l-8 -69h-396l96 718h396z" />
    <glyph glyph-name="Igrave" unicode="&#xcc;" horiz-adv-x="226" 
d="M150 777h58l-56 118h-73zM188 718l-96 -718h-73l97 718h72z" />
    <glyph glyph-name="Iacute" unicode="&#xcd;" horiz-adv-x="226" 
d="M252 895l-90 -118h58l105 118h-73zM188 718l-96 -718h-73l97 718h72z" />
    <glyph glyph-name="Icircumflex" unicode="&#xce;" horiz-adv-x="226" 
d="M212 896l124 -125h-89l-75 74l-100 -74h-91l163 125h68zM188 718l-96 -718h-73l97 718h72z" />
    <glyph glyph-name="Idieresis" unicode="&#xcf;" horiz-adv-x="226" 
d="M75 884q23 0 36 -14t13 -43q0 -9 -5 -18.5t-13.5 -18t-20 -14t-25.5 -5.5q-22 0 -35.5 13.5t-13.5 42.5q0 9 5 19t14 18.5t20.5 14t24.5 5.5zM275 884q23 0 35.5 -14t12.5 -43q0 -8 -5 -18t-13.5 -18.5t-20 -14t-25.5 -5.5q-23 0 -36 13.5t-13 42.5q0 8 5 18t14 18.5
t21 14.5t25 6zM188 718l-96 -718h-73l97 718h72z" />
    <glyph glyph-name="Eth" unicode="&#xd0;" horiz-adv-x="790" 
d="M21 327l9 64h90l44 327h170q88 0 155 -18t119 -64q51 -45 79 -112t28 -145q0 -45 -9.5 -88.5t-26.5 -83t-41.5 -73t-54.5 -57.5q-57 -46 -122 -61.5t-150 -15.5h-243l44 327h-91zM149 69h80q84 0 149.5 5t116.5 31q33 17 61 45t48.5 63.5t31.5 77t11 86.5
q0 102 -55.5 171.5t-152.5 90.5q-36 8 -62.5 9t-63.5 1h-87l-35 -258h175l-8 -64h-175z" />
    <glyph glyph-name="Ntilde" unicode="&#xd1;" horiz-adv-x="740" 
d="M510 845q21 0 40 8t38 18l27 -47q-28 -18 -54.5 -30t-61.5 -12q-24 0 -41 6t-32 13.5t-29 13.5t-31 6q-23 0 -42.5 -10t-39.5 -24l-25 50q52 47 116 47q21 0 38.5 -6t33 -13.5t31 -13.5t32.5 -6zM688 718l-98 -718h-15l-404 557l-76 -557h-71l97 718h16l405 -557l75 557
h71z" />
    <glyph glyph-name="Ograve" unicode="&#xd2;" horiz-adv-x="869" 
d="M440 777h58l-56 118h-73zM466 736q70 0 131.5 -24t107.5 -68t73 -106t27 -138q0 -88 -32 -164t-89 -132.5t-135.5 -89t-171.5 -32.5q-79 0 -143 25t-108 69.5t-68 106t-24 135.5q0 89 32 165t89.5 132.5t137 88.5t173.5 32zM465 669q-81 0 -147 -28t-113 -76
t-72.5 -111.5t-25.5 -133.5q0 -60 18.5 -109.5t53.5 -85.5t84.5 -56t112.5 -20q76 0 141 27.5t113 75.5t75 112.5t27 139.5q0 60 -21 109t-57 83.5t-84.5 53.5t-104.5 19z" />
    <glyph glyph-name="Oacute" unicode="&#xd3;" horiz-adv-x="869" 
d="M542 895l-90 -118h58l105 118h-73zM466 736q70 0 131.5 -24t107.5 -68t73 -106t27 -138q0 -88 -32 -164t-89 -132.5t-135.5 -89t-171.5 -32.5q-79 0 -143 25t-108 69.5t-68 106t-24 135.5q0 89 32 165t89.5 132.5t137 88.5t173.5 32zM465 669q-81 0 -147 -28t-113 -76
t-72.5 -111.5t-25.5 -133.5q0 -60 18.5 -109.5t53.5 -85.5t84.5 -56t112.5 -20q76 0 141 27.5t113 75.5t75 112.5t27 139.5q0 60 -21 109t-57 83.5t-84.5 53.5t-104.5 19z" />
    <glyph glyph-name="Ocircumflex" unicode="&#xd4;" horiz-adv-x="869" 
d="M411 777h-68l114 118h70l80 -118h-68l-53 79zM466 736q70 0 131.5 -24t107.5 -68t73 -106t27 -138q0 -88 -32 -164t-89 -132.5t-135.5 -89t-171.5 -32.5q-79 0 -143 25t-108 69.5t-68 106t-24 135.5q0 89 32 165t89.5 132.5t137 88.5t173.5 32zM465 669q-81 0 -147 -28
t-113 -76t-72.5 -111.5t-25.5 -133.5q0 -60 18.5 -109.5t53.5 -85.5t84.5 -56t112.5 -20q76 0 141 27.5t113 75.5t75 112.5t27 139.5q0 60 -21 109t-57 83.5t-84.5 53.5t-104.5 19z" />
    <glyph glyph-name="Otilde" unicode="&#xd5;" horiz-adv-x="869" 
d="M350 787q6 42 20.5 66t34 33t41.5 3.5t43 -23.5q16 -14 28.5 -22.5t22 -8t16 12.5t10.5 39h52q-6 -42 -20.5 -66.5t-33.5 -33.5t-41 -3.5t-43 23.5q-16 14 -29 22.5t-22.5 8t-16 -12t-10.5 -38.5h-52zM466 736q70 0 131.5 -24t107.5 -68t73 -106t27 -138q0 -88 -32 -164
t-89 -132.5t-135.5 -89t-171.5 -32.5q-79 0 -143 25t-108 69.5t-68 106t-24 135.5q0 89 32 165t89.5 132.5t137 88.5t173.5 32zM465 669q-81 0 -147 -28t-113 -76t-72.5 -111.5t-25.5 -133.5q0 -60 18.5 -109.5t53.5 -85.5t84.5 -56t112.5 -20q76 0 141 27.5t113 75.5
t75 112.5t27 139.5q0 60 -21 109t-57 83.5t-84.5 53.5t-104.5 19z" />
    <glyph glyph-name="Odieresis" unicode="&#xd6;" horiz-adv-x="869" 
d="M415 884q23 0 36 -14t13 -43q0 -9 -5 -18.5t-13.5 -18t-20 -14t-25.5 -5.5q-22 0 -35.5 13.5t-13.5 42.5q0 9 5 19t14 18.5t20.5 14t24.5 5.5zM615 884q23 0 35.5 -14t12.5 -43q0 -8 -5 -18t-13.5 -18.5t-20 -14t-25.5 -5.5q-23 0 -36 13.5t-13 42.5q0 8 5 18t14 18.5
t21 14.5t25 6zM466 736q70 0 131.5 -24t107.5 -68t73 -106t27 -138q0 -88 -32 -164t-89 -132.5t-135.5 -89t-171.5 -32.5q-79 0 -143 25t-108 69.5t-68 106t-24 135.5q0 89 32 165t89.5 132.5t137 88.5t173.5 32zM465 669q-81 0 -147 -28t-113 -76t-72.5 -111.5
t-25.5 -133.5q0 -60 18.5 -109.5t53.5 -85.5t84.5 -56t112.5 -20q76 0 141 27.5t113 75.5t75 112.5t27 139.5q0 60 -21 109t-57 83.5t-84.5 53.5t-104.5 19z" />
    <glyph glyph-name="multiply" unicode="&#xd7;" horiz-adv-x="606" 
d="M510 197l-45 -45l-162 162l-162 -162l-45 45l162 162l-162 162l45 45l162 -162l162 162l45 -45l-162 -162z" />
    <glyph glyph-name="Oslash" unicode="&#xd8;" horiz-adv-x="868" 
d="M713 635q92 -93 92 -235q0 -88 -32 -164t-89 -132.5t-135.5 -89t-171.5 -32.5q-56 0 -104 11.5t-90 37.5l-64 -74l-48 43l62 71q-48 46 -73.5 109t-25.5 138q0 89 32 165t89.5 132.5t137 88.5t173.5 32q111 0 197 -58l59 67l50 -42zM618 625q-31 20 -71 32t-82 12
q-81 0 -147 -28t-113 -76t-72.5 -111.5t-25.5 -133.5q0 -58 18.5 -108.5t53.5 -87.5zM231 85q65 -36 145 -36q76 0 141 27.5t113 75.5t75 112.5t27 139.5q0 107 -65 179z" />
    <glyph glyph-name="Ugrave" unicode="&#xd9;" 
d="M327 777h58l-56 118h-73zM184 718l-54 -411q-3 -23 -6.5 -52t-3.5 -62q0 -72 38 -107.5t109 -35.5q43 0 79.5 13.5t61.5 39.5q38 38 54.5 104.5t28.5 163.5l44 347h71l-48 -362q-5 -38 -10.5 -84t-21.5 -97q-30 -99 -92 -145.5t-166 -46.5q-106 0 -163.5 52.5
t-57.5 145.5q0 37 5 71.5t9 65.5l52 400h71z" />
    <glyph glyph-name="Uacute" unicode="&#xda;" 
d="M429 895l-90 -118h58l105 118h-73zM184 718l-54 -411q-3 -23 -6.5 -52t-3.5 -62q0 -72 38 -107.5t109 -35.5q43 0 79.5 13.5t61.5 39.5q38 38 54.5 104.5t28.5 163.5l44 347h71l-48 -362q-5 -38 -10.5 -84t-21.5 -97q-30 -99 -92 -145.5t-166 -46.5q-106 0 -163.5 52.5
t-57.5 145.5q0 37 5 71.5t9 65.5l52 400h71z" />
    <glyph glyph-name="Ucircumflex" unicode="&#xdb;" 
d="M446 896l124 -125h-89l-75 74l-100 -74h-91l163 125h68zM184 718l-54 -411q-3 -23 -6.5 -52t-3.5 -62q0 -72 38 -107.5t109 -35.5q43 0 79.5 13.5t61.5 39.5q38 38 54.5 104.5t28.5 163.5l44 347h71l-48 -362q-5 -38 -10.5 -84t-21.5 -97q-30 -99 -92 -145.5t-166 -46.5
q-106 0 -163.5 52.5t-57.5 145.5q0 37 5 71.5t9 65.5l52 400h71z" />
    <glyph glyph-name="Udieresis" unicode="&#xdc;" 
d="M309 884q23 0 36 -14t13 -43q0 -9 -5 -18.5t-13.5 -18t-20 -14t-25.5 -5.5q-22 0 -35.5 13.5t-13.5 42.5q0 9 5 19t14 18.5t20.5 14t24.5 5.5zM509 884q23 0 35.5 -14t12.5 -43q0 -8 -5 -18t-13.5 -18.5t-20 -14t-25.5 -5.5q-23 0 -36 13.5t-13 42.5q0 8 5 18t14 18.5
t21 14.5t25 6zM184 718l-54 -411q-3 -23 -6.5 -52t-3.5 -62q0 -72 38 -107.5t109 -35.5q43 0 79.5 13.5t61.5 39.5q38 38 54.5 104.5t28.5 163.5l44 347h71l-48 -362q-5 -38 -10.5 -84t-21.5 -97q-30 -99 -92 -145.5t-166 -46.5q-106 0 -163.5 52.5t-57.5 145.5q0 37 5 71.5
t9 65.5l52 400h71z" />
    <glyph glyph-name="Yacute" unicode="&#xdd;" horiz-adv-x="592" 
d="M390 895l-90 -118h58l105 118h-73zM116 718l154 -326l259 326h87l-318 -400l-44 -318h-70l44 322l-187 396h75z" />
    <glyph glyph-name="Thorn" unicode="&#xde;" horiz-adv-x="592" 
d="M200 718l-23 -170h124q32 0 59 -1t47 -6q60 -14 93.5 -57t33.5 -105q0 -53 -24 -98.5t-65 -72.5q-38 -25 -85 -31t-106 -6h-127l-23 -171h-72l96 718h72zM136 240h124q47 0 84 5.5t64 25.5q25 18 39 46.5t14 60.5q0 57 -36.5 79t-107.5 22h-148z" />
    <glyph glyph-name="germandbls" unicode="&#xdf;" horiz-adv-x="554" 
d="M426 589q0 39 -27 66.5t-74 27.5q-34 0 -64.5 -14.5t-52.5 -40.5q-26 -31 -34.5 -66t-14.5 -77l-68 -485h-69l69 485q9 64 25 113.5t54 87.5q30 30 71 47t86 17q36 0 66 -12t52 -33t34 -49.5t12 -62.5q0 -69 -35 -117.5t-104 -72.5q61 -29 91.5 -74t30.5 -104
q0 -49 -16.5 -92.5t-46 -76t-70.5 -51.5t-91 -19q-29 0 -55.5 6t-47.5 20l9 67q22 -11 44 -18.5t47 -7.5q30 0 58.5 12t51 33.5t36 52t13.5 66.5q0 127 -168 154l10 74q88 2 133 43.5t45 100.5z" />
    <glyph glyph-name="agrave" unicode="&#xe0;" horiz-adv-x="683" 
d="M353 591h58l-56 118h-73zM618 531l-71 -531h-69l10 80q-92 -94 -211 -94q-54 0 -99.5 18.5t-78.5 51.5t-51.5 79t-18.5 101q0 66 25.5 122.5t67.5 98t97 65t114 23.5q70 0 118.5 -29t83.5 -86l12 101h71zM285 49q53 0 96.5 19t74.5 52t48.5 78t17.5 97q0 43 -14 77.5
t-39.5 59t-59.5 37.5t-75 13q-48 0 -91 -18.5t-75.5 -51t-51.5 -77.5t-19 -98q0 -43 14 -78t39 -59.5t59.5 -37.5t75.5 -13z" />
    <glyph glyph-name="aacute" unicode="&#xe1;" horiz-adv-x="683" 
d="M455 709l-90 -118h58l105 118h-73zM618 531l-71 -531h-69l10 80q-92 -94 -211 -94q-54 0 -99.5 18.5t-78.5 51.5t-51.5 79t-18.5 101q0 66 25.5 122.5t67.5 98t97 65t114 23.5q70 0 118.5 -29t83.5 -86l12 101h71zM285 49q53 0 96.5 19t74.5 52t48.5 78t17.5 97
q0 43 -14 77.5t-39.5 59t-59.5 37.5t-75 13q-48 0 -91 -18.5t-75.5 -51t-51.5 -77.5t-19 -98q0 -43 14 -78t39 -59.5t59.5 -37.5t75.5 -13z" />
    <glyph glyph-name="acircumflex" unicode="&#xe2;" horiz-adv-x="683" 
d="M324 591h-68l114 118h70l80 -118h-68l-53 79zM618 531l-71 -531h-69l10 80q-92 -94 -211 -94q-54 0 -99.5 18.5t-78.5 51.5t-51.5 79t-18.5 101q0 66 25.5 122.5t67.5 98t97 65t114 23.5q70 0 118.5 -29t83.5 -86l12 101h71zM285 49q53 0 96.5 19t74.5 52t48.5 78
t17.5 97q0 43 -14 77.5t-39.5 59t-59.5 37.5t-75 13q-48 0 -91 -18.5t-75.5 -51t-51.5 -77.5t-19 -98q0 -43 14 -78t39 -59.5t59.5 -37.5t75.5 -13z" />
    <glyph glyph-name="atilde" unicode="&#xe3;" horiz-adv-x="683" 
d="M263 601q6 42 20.5 66t34 33t41.5 3.5t43 -23.5q16 -14 28.5 -22.5t22 -8t16 12.5t10.5 39h52q-6 -42 -20.5 -66.5t-33.5 -33.5t-41 -3.5t-43 23.5q-16 14 -29 22.5t-22.5 8t-16 -12t-10.5 -38.5h-52zM618 531l-71 -531h-69l10 80q-92 -94 -211 -94q-54 0 -99.5 18.5
t-78.5 51.5t-51.5 79t-18.5 101q0 66 25.5 122.5t67.5 98t97 65t114 23.5q70 0 118.5 -29t83.5 -86l12 101h71zM285 49q53 0 96.5 19t74.5 52t48.5 78t17.5 97q0 43 -14 77.5t-39.5 59t-59.5 37.5t-75 13q-48 0 -91 -18.5t-75.5 -51t-51.5 -77.5t-19 -98q0 -43 14 -78
t39 -59.5t59.5 -37.5t75.5 -13z" />
    <glyph glyph-name="adieresis" unicode="&#xe4;" horiz-adv-x="683" 
d="M293 741q23 0 36 -14t13 -43q0 -9 -5 -18.5t-13.5 -18t-20 -14t-25.5 -5.5q-22 0 -35.5 13.5t-13.5 42.5q0 9 5 19t14 18.5t20.5 14t24.5 5.5zM493 741q23 0 35.5 -14t12.5 -43q0 -8 -5 -18t-13.5 -18.5t-20 -14t-25.5 -5.5q-23 0 -36 13.5t-13 42.5q0 8 5 18t14 18.5
t21 14.5t25 6zM618 531l-71 -531h-69l10 80q-92 -94 -211 -94q-54 0 -99.5 18.5t-78.5 51.5t-51.5 79t-18.5 101q0 66 25.5 122.5t67.5 98t97 65t114 23.5q70 0 118.5 -29t83.5 -86l12 101h71zM285 49q53 0 96.5 19t74.5 52t48.5 78t17.5 97q0 43 -14 77.5t-39.5 59
t-59.5 37.5t-75 13q-48 0 -91 -18.5t-75.5 -51t-51.5 -77.5t-19 -98q0 -43 14 -78t39 -59.5t59.5 -37.5t75.5 -13z" />
    <glyph glyph-name="aring" unicode="&#xe5;" horiz-adv-x="683" 
d="M358 815q42 0 71.5 -29t29.5 -72q0 -21 -8 -39.5t-21.5 -32.5t-32 -22t-39.5 -8t-39.5 8t-32.5 22t-22 32.5t-8 39.5q0 42 29.5 71.5t72.5 29.5zM358 773q-26 1 -42.5 -16.5t-16.5 -42.5q0 -26 18 -42.5t41 -16.5q25 0 42 17.5t17 41.5q1 25 -17 42t-42 17zM618 531
l-71 -531h-69l10 80q-92 -94 -211 -94q-54 0 -99.5 18.5t-78.5 51.5t-51.5 79t-18.5 101q0 66 25.5 122.5t67.5 98t97 65t114 23.5q70 0 118.5 -29t83.5 -86l12 101h71zM285 49q53 0 96.5 19t74.5 52t48.5 78t17.5 97q0 43 -14 77.5t-39.5 59t-59.5 37.5t-75 13
q-48 0 -91 -18.5t-75.5 -51t-51.5 -77.5t-19 -98q0 -43 14 -78t39 -59.5t59.5 -37.5t75.5 -13z" />
    <glyph glyph-name="ae" unicode="&#xe6;" horiz-adv-x="1157" 
d="M500 83q-49 -49 -102 -72.5t-121 -23.5q-58 0 -104 19.5t-78.5 54t-49.5 80.5t-17 100q0 63 24 118t65.5 96.5t97 65.5t118.5 24q74 0 123.5 -29t89.5 -91l15 106h61l-11 -87q89 101 222 101q53 0 98 -17.5t78 -49.5t52 -77.5t19 -101.5q0 -12 -1 -24.5t-3 -23.5h-481
q-1 -6 -1 -10v-11q0 -37 13.5 -70t38.5 -57.5t60.5 -38.5t80.5 -14q110 0 183 84l52 -38q-88 -109 -242 -109q-75 0 -127 26.5t-89 84.5l-13 -98h-61zM333 482q-53 0 -96.5 -19.5t-75 -53t-48.5 -78t-17 -93.5q0 -43 14 -77.5t39.5 -59t61 -38t78.5 -13.5q53 0 97.5 19.5
t76.5 52.5t49.5 76t17.5 89q0 39 -13.5 74.5t-39 62.5t-62 42.5t-82.5 15.5zM1016 311q-1 37 -14 68.5t-37 54t-57 35.5t-75 13q-82 0 -141.5 -45.5t-83.5 -125.5h408z" />
    <glyph glyph-name="ccedilla" unicode="&#xe7;" horiz-adv-x="647" 
d="M293 49q61 0 117 24.5t88 63.5l56 -40q-52 -57 -114.5 -84t-143.5 -27h-9l-13 -44q5 1 9.5 1.5t9.5 0.5q49 0 49 -52q0 -11 -7.5 -24.5t-23 -25.5t-38.5 -20t-54 -8q-41 0 -79 15l15 34q13 -5 28.5 -7.5t29.5 -2.5q37 0 53.5 10.5t16.5 21.5t-8 16t-20 5q-8 0 -17.5 -1.5
t-16.5 -3.5l24 88q-104 14 -160 81.5t-56 167.5q0 65 25 121t68 97t101.5 65t125.5 24q80 0 141.5 -33.5t94.5 -94.5l-57 -33q-59 94 -180 94q-55 0 -101.5 -18.5t-79.5 -50.5t-51.5 -75t-18.5 -92q0 -43 13.5 -78.5t39 -61t61.5 -39.5t82 -14z" />
    <glyph glyph-name="egrave" unicode="&#xe8;" horiz-adv-x="650" 
d="M311 591h58l-56 118h-73zM515 95q-39 -49 -100 -79t-136 -30q-60 0 -106.5 20t-78.5 54.5t-48.5 80.5t-16.5 97q0 61 23.5 116.5t65 98t98 68t122.5 25.5q53 0 96.5 -19t74.5 -52.5t48 -78.5t17 -96q0 -11 -1 -24t-3 -24h-473v-14q0 -41 13 -76t37 -60t58 -39t76 -14
q56 0 103.5 22.5t79.5 64.5zM508 312q-1 38 -15 69t-37 53t-54.5 33.5t-67.5 11.5q-77 0 -138.5 -43t-87.5 -124h400z" />
    <glyph glyph-name="eacute" unicode="&#xe9;" horiz-adv-x="650" 
d="M413 709l-90 -118h58l105 118h-73zM515 95q-39 -49 -100 -79t-136 -30q-60 0 -106.5 20t-78.5 54.5t-48.5 80.5t-16.5 97q0 61 23.5 116.5t65 98t98 68t122.5 25.5q53 0 96.5 -19t74.5 -52.5t48 -78.5t17 -96q0 -11 -1 -24t-3 -24h-473v-14q0 -41 13 -76t37 -60t58 -39
t76 -14q56 0 103.5 22.5t79.5 64.5zM508 312q-1 38 -15 69t-37 53t-54.5 33.5t-67.5 11.5q-77 0 -138.5 -43t-87.5 -124h400z" />
    <glyph glyph-name="ecircumflex" unicode="&#xea;" horiz-adv-x="650" 
d="M282 591h-68l114 118h70l80 -118h-68l-53 79zM515 95q-39 -49 -100 -79t-136 -30q-60 0 -106.5 20t-78.5 54.5t-48.5 80.5t-16.5 97q0 61 23.5 116.5t65 98t98 68t122.5 25.5q53 0 96.5 -19t74.5 -52.5t48 -78.5t17 -96q0 -11 -1 -24t-3 -24h-473v-14q0 -41 13 -76
t37 -60t58 -39t76 -14q56 0 103.5 22.5t79.5 64.5zM508 312q-1 38 -15 69t-37 53t-54.5 33.5t-67.5 11.5q-77 0 -138.5 -43t-87.5 -124h400z" />
    <glyph glyph-name="edieresis" unicode="&#xeb;" horiz-adv-x="650" 
d="M277 741q23 0 36 -14t13 -43q0 -9 -5 -18.5t-13.5 -18t-20 -14t-25.5 -5.5q-22 0 -35.5 13.5t-13.5 42.5q0 9 5 19t14 18.5t20.5 14t24.5 5.5zM477 741q23 0 35.5 -14t12.5 -43q0 -8 -5 -18t-13.5 -18.5t-20 -14t-25.5 -5.5q-23 0 -36 13.5t-13 42.5q0 8 5 18t14 18.5
t21 14.5t25 6zM515 95q-39 -49 -100 -79t-136 -30q-60 0 -106.5 20t-78.5 54.5t-48.5 80.5t-16.5 97q0 61 23.5 116.5t65 98t98 68t122.5 25.5q53 0 96.5 -19t74.5 -52.5t48 -78.5t17 -96q0 -11 -1 -24t-3 -24h-473v-14q0 -41 13 -76t37 -60t58 -39t76 -14q56 0 103.5 22.5
t79.5 64.5zM508 312q-1 38 -15 69t-37 53t-54.5 33.5t-67.5 11.5q-77 0 -138.5 -43t-87.5 -124h400z" />
    <glyph glyph-name="igrave" unicode="&#xec;" horiz-adv-x="200" 
d="M91 591h58l-56 118h-73zM145 531l-71 -531h-67l73 531h65z" />
    <glyph glyph-name="iacute" unicode="&#xed;" horiz-adv-x="200" 
d="M193 709l-90 -118h58l105 118h-73zM145 531l-71 -531h-67l73 531h65z" />
    <glyph glyph-name="icircumflex" unicode="&#xee;" horiz-adv-x="200" 
d="M190 753l124 -125h-89l-75 74l-100 -74h-91l163 125h68zM145 531l-71 -531h-67l73 531h65z" />
    <glyph glyph-name="idieresis" unicode="&#xef;" horiz-adv-x="200" 
d="M53 741q23 0 36 -14t13 -43q0 -9 -5 -18.5t-13.5 -18t-20 -14t-25.5 -5.5q-22 0 -35.5 13.5t-13.5 42.5q0 9 5 19t14 18.5t20.5 14t24.5 5.5zM253 741q23 0 35.5 -14t12.5 -43q0 -8 -5 -18t-13.5 -18.5t-20 -14t-25.5 -5.5q-23 0 -36 13.5t-13 42.5q0 8 5 18t14 18.5
t21 14.5t25 6zM145 531l-71 -531h-67l73 531h65z" />
    <glyph glyph-name="eth" unicode="&#xf0;" 
d="M326 670q-35 26 -58.5 41.5t-37.5 24.5h92q17 -9 33.5 -20.5t30.5 -22.5l90 33l17 -49l-62 -23q69 -68 107.5 -155.5t38.5 -181.5q0 -75 -26 -136.5t-68.5 -104.5t-97.5 -66.5t-114 -23.5q-55 0 -99.5 20.5t-76 55t-49 80t-17.5 96.5q0 60 25.5 115.5t67 97.5t95 67.5
t110.5 25.5q40 0 75 -12t64 -38q-13 26 -33.5 59.5t-62.5 77.5l-111 -42l-19 49zM338 477q-48 0 -92 -19.5t-77 -52.5t-52.5 -76.5t-19.5 -91.5q0 -40 12.5 -73.5t36 -58t56 -38.5t71.5 -14q44 0 86 19t75.5 52t54 78.5t20.5 97.5q0 41 -13.5 73.5t-36.5 55.5t-54.5 35.5
t-66.5 12.5z" />
    <glyph glyph-name="ntilde" unicode="&#xf1;" horiz-adv-x="610" 
d="M416 702q21 0 40 8t38 18l27 -47q-28 -18 -54.5 -30t-61.5 -12q-24 0 -41 6t-32 13.5t-29 13.5t-31 6q-23 0 -42.5 -10t-39.5 -24l-25 50q52 47 116 47q21 0 38.5 -6t33 -13.5t31 -13.5t32.5 -6zM149 450q81 95 188 95q39 0 72.5 -12.5t58 -36t38 -57.5t13.5 -77
q0 -38 -4 -68t-7 -50l-33 -244h-67l33 244q3 25 6.5 53.5t3.5 60.5q0 57 -32.5 90.5t-89.5 33.5q-51 0 -94.5 -23t-69.5 -65q-19 -29 -28.5 -70.5t-17.5 -93.5l-32 -230h-67l74 531h65z" />
    <glyph glyph-name="ograve" unicode="&#xf2;" 
d="M305 591h58l-56 118h-73zM332 545q52 0 96.5 -18.5t77.5 -52t52 -80t19 -103.5q0 -63 -22 -118t-62 -96.5t-96.5 -65.5t-124.5 -24q-55 0 -100 18.5t-77.5 51.5t-50 78.5t-17.5 99.5q0 65 23.5 121.5t65 98.5t97 66t119.5 24zM330 482q-49 0 -92 -18t-74.5 -50.5t-50 -77
t-18.5 -97.5q0 -41 13.5 -76t37.5 -60t58.5 -39t76.5 -14q51 0 93 19.5t72 52.5t46.5 77t16.5 93q0 43 -13.5 78t-37.5 60t-57 38.5t-71 13.5z" />
    <glyph glyph-name="oacute" unicode="&#xf3;" 
d="M407 709l-90 -118h58l105 118h-73zM332 545q52 0 96.5 -18.5t77.5 -52t52 -80t19 -103.5q0 -63 -22 -118t-62 -96.5t-96.5 -65.5t-124.5 -24q-55 0 -100 18.5t-77.5 51.5t-50 78.5t-17.5 99.5q0 65 23.5 121.5t65 98.5t97 66t119.5 24zM330 482q-49 0 -92 -18
t-74.5 -50.5t-50 -77t-18.5 -97.5q0 -41 13.5 -76t37.5 -60t58.5 -39t76.5 -14q51 0 93 19.5t72 52.5t46.5 77t16.5 93q0 43 -13.5 78t-37.5 60t-57 38.5t-71 13.5z" />
    <glyph glyph-name="ocircumflex" unicode="&#xf4;" 
d="M276 591h-68l114 118h70l80 -118h-68l-53 79zM332 545q52 0 96.5 -18.5t77.5 -52t52 -80t19 -103.5q0 -63 -22 -118t-62 -96.5t-96.5 -65.5t-124.5 -24q-55 0 -100 18.5t-77.5 51.5t-50 78.5t-17.5 99.5q0 65 23.5 121.5t65 98.5t97 66t119.5 24zM330 482q-49 0 -92 -18
t-74.5 -50.5t-50 -77t-18.5 -97.5q0 -41 13.5 -76t37.5 -60t58.5 -39t76.5 -14q51 0 93 19.5t72 52.5t46.5 77t16.5 93q0 43 -13.5 78t-37.5 60t-57 38.5t-71 13.5z" />
    <glyph glyph-name="otilde" unicode="&#xf5;" 
d="M215 601q6 42 20.5 66t34 33t41.5 3.5t43 -23.5q16 -14 28.5 -22.5t22 -8t16 12.5t10.5 39h52q-6 -42 -20.5 -66.5t-33.5 -33.5t-41 -3.5t-43 23.5q-16 14 -29 22.5t-22.5 8t-16 -12t-10.5 -38.5h-52zM332 545q52 0 96.5 -18.5t77.5 -52t52 -80t19 -103.5q0 -63 -22 -118
t-62 -96.5t-96.5 -65.5t-124.5 -24q-55 0 -100 18.5t-77.5 51.5t-50 78.5t-17.5 99.5q0 65 23.5 121.5t65 98.5t97 66t119.5 24zM330 482q-49 0 -92 -18t-74.5 -50.5t-50 -77t-18.5 -97.5q0 -41 13.5 -76t37.5 -60t58.5 -39t76.5 -14q51 0 93 19.5t72 52.5t46.5 77t16.5 93
q0 43 -13.5 78t-37.5 60t-57 38.5t-71 13.5z" />
    <glyph glyph-name="odieresis" unicode="&#xf6;" 
d="M279 741q23 0 36 -14t13 -43q0 -9 -5 -18.5t-13.5 -18t-20 -14t-25.5 -5.5q-22 0 -35.5 13.5t-13.5 42.5q0 9 5 19t14 18.5t20.5 14t24.5 5.5zM479 741q23 0 35.5 -14t12.5 -43q0 -8 -5 -18t-13.5 -18.5t-20 -14t-25.5 -5.5q-23 0 -36 13.5t-13 42.5q0 8 5 18t14 18.5
t21 14.5t25 6zM332 545q52 0 96.5 -18.5t77.5 -52t52 -80t19 -103.5q0 -63 -22 -118t-62 -96.5t-96.5 -65.5t-124.5 -24q-55 0 -100 18.5t-77.5 51.5t-50 78.5t-17.5 99.5q0 65 23.5 121.5t65 98.5t97 66t119.5 24zM330 482q-49 0 -92 -18t-74.5 -50.5t-50 -77t-18.5 -97.5
q0 -41 13.5 -76t37.5 -60t58.5 -39t76.5 -14q51 0 93 19.5t72 52.5t46.5 77t16.5 93q0 43 -13.5 78t-37.5 60t-57 38.5t-71 13.5z" />
    <glyph glyph-name="divide" unicode="&#xf7;" horiz-adv-x="606" 
d="M352 590v-99h-98v99h98zM550 394v-69h-494v69h494zM352 228v-100h-98v100h98z" />
    <glyph glyph-name="oslash" unicode="&#xf8;" horiz-adv-x="653" 
d="M522 455q54 -73 54 -164q0 -63 -22 -118t-62.5 -96.5t-96 -65.5t-123.5 -24q-75 0 -129 32l-63 -73l-50 42l62 71q-66 72 -66 176q0 66 24 123t65.5 98.5t96 65t115.5 23.5q42 0 81 -12t68 -33l59 68l50 -41zM432 450q-22 14 -50 23t-57 9q-46 0 -88 -18t-73.5 -50
t-50.5 -76.5t-19 -98.5q0 -76 43 -128zM188 71q22 -11 44.5 -16t47.5 -5q51 0 93 19.5t72 52.5t46.5 77t16.5 93q0 31 -7 58.5t-23 53.5z" />
    <glyph glyph-name="ugrave" unicode="&#xf9;" horiz-adv-x="608" 
d="M315 591h58l-56 118h-73zM160 531l-30 -222q-5 -34 -9 -64.5t-4 -56.5q0 -31 11 -56.5t31 -43.5t47 -28t59 -10q40 0 75 16.5t57 45.5q25 32 32 71t13 83l38 265h66l-27 -201q-12 -89 -26 -152.5t-41 -101.5q-30 -42 -80 -65.5t-110 -23.5q-46 0 -85 15t-66.5 41
t-43 62.5t-15.5 79.5q0 17 3 54.5t10 89.5l27 202h68z" />
    <glyph glyph-name="uacute" unicode="&#xfa;" horiz-adv-x="608" 
d="M417 709l-90 -118h58l105 118h-73zM160 531l-30 -222q-5 -34 -9 -64.5t-4 -56.5q0 -31 11 -56.5t31 -43.5t47 -28t59 -10q40 0 75 16.5t57 45.5q25 32 32 71t13 83l38 265h66l-27 -201q-12 -89 -26 -152.5t-41 -101.5q-30 -42 -80 -65.5t-110 -23.5q-46 0 -85 15
t-66.5 41t-43 62.5t-15.5 79.5q0 17 3 54.5t10 89.5l27 202h68z" />
    <glyph glyph-name="ucircumflex" unicode="&#xfb;" horiz-adv-x="608" 
d="M393 753l124 -125h-89l-75 74l-100 -74h-91l163 125h68zM160 531l-30 -222q-5 -34 -9 -64.5t-4 -56.5q0 -31 11 -56.5t31 -43.5t47 -28t59 -10q40 0 75 16.5t57 45.5q25 32 32 71t13 83l38 265h66l-27 -201q-12 -89 -26 -152.5t-41 -101.5q-30 -42 -80 -65.5t-110 -23.5
q-46 0 -85 15t-66.5 41t-43 62.5t-15.5 79.5q0 17 3 54.5t10 89.5l27 202h68z" />
    <glyph glyph-name="udieresis" unicode="&#xfc;" horiz-adv-x="608" 
d="M256 741q23 0 36 -14t13 -43q0 -9 -5 -18.5t-13.5 -18t-20 -14t-25.5 -5.5q-22 0 -35.5 13.5t-13.5 42.5q0 9 5 19t14 18.5t20.5 14t24.5 5.5zM456 741q23 0 35.5 -14t12.5 -43q0 -8 -5 -18t-13.5 -18.5t-20 -14t-25.5 -5.5q-23 0 -36 13.5t-13 42.5q0 8 5 18t14 18.5
t21 14.5t25 6zM160 531l-30 -222q-5 -34 -9 -64.5t-4 -56.5q0 -31 11 -56.5t31 -43.5t47 -28t59 -10q40 0 75 16.5t57 45.5q25 32 32 71t13 83l38 265h66l-27 -201q-12 -89 -26 -152.5t-41 -101.5q-30 -42 -80 -65.5t-110 -23.5q-46 0 -85 15t-66.5 41t-43 62.5t-15.5 79.5
q0 17 3 54.5t10 89.5l27 202h68z" />
    <glyph glyph-name="yacute" unicode="&#xfd;" horiz-adv-x="536" 
d="M381 709l-90 -118h58l105 118h-73zM94 531l137 -392l228 392h75l-420 -725h-77l150 259l-164 466h71z" />
    <glyph glyph-name="thorn" unicode="&#xfe;" horiz-adv-x="682" 
d="M196 736l-37 -284q92 93 211 93q54 0 99.5 -18t78.5 -51t51.5 -78.5t18.5 -101.5q0 -66 -25 -122.5t-67 -98t-97 -65t-115 -23.5q-70 0 -119 28.5t-83 85.5l-38 -295h-71l124 930h69zM362 482q-52 0 -95.5 -19t-75 -52t-49 -78t-17.5 -97q0 -43 14 -77.5t39.5 -58.5
t60 -37t74.5 -13q48 0 91 18t75.5 50.5t51.5 77.5t19 98q0 44 -14 78.5t-39 59t-59.5 37.5t-75.5 13z" />
    <glyph glyph-name="ydieresis" unicode="&#xff;" horiz-adv-x="536" 
d="M220 741q23 0 36 -14t13 -43q0 -9 -5 -18.5t-13.5 -18t-20 -14t-25.5 -5.5q-22 0 -35.5 13.5t-13.5 42.5q0 9 5 19t14 18.5t20.5 14t24.5 5.5zM420 741q23 0 35.5 -14t12.5 -43q0 -8 -5 -18t-13.5 -18.5t-20 -14t-25.5 -5.5q-23 0 -36 13.5t-13 42.5q0 8 5 18t14 18.5
t21 14.5t25 6zM94 531l137 -392l228 392h75l-420 -725h-77l150 259l-164 466h71z" />
    <glyph glyph-name="Amacron" unicode="&#x100;" horiz-adv-x="740" 
d="M604 866l-8 -60h-337l8 60h337zM657 0h-74l-78 235h-304l-135 -235h-80l413 718h17zM240 304h242l-89 264z" />
    <glyph glyph-name="amacron" unicode="&#x101;" horiz-adv-x="683" 
d="M559 723l-8 -60h-337l8 60h337zM618 531l-71 -531h-69l10 80q-92 -94 -211 -94q-54 0 -99.5 18.5t-78.5 51.5t-51.5 79t-18.5 101q0 66 25.5 122.5t67.5 98t97 65t114 23.5q70 0 118.5 -29t83.5 -86l12 101h71zM285 49q53 0 96.5 19t74.5 52t48.5 78t17.5 97
q0 43 -14 77.5t-39.5 59t-59.5 37.5t-75 13q-48 0 -91 -18.5t-75.5 -51t-51.5 -77.5t-19 -98q0 -43 14 -78t39 -59.5t59.5 -37.5t75.5 -13z" />
    <glyph glyph-name="Abreve" unicode="&#x102;" horiz-adv-x="740" 
d="M443 779q-57 0 -87.5 30.5t-22.5 87.5h58q-5 -35 10 -50t49 -15t54 15t25 50h58q-8 -57 -46.5 -87.5t-97.5 -30.5zM657 0h-74l-78 235h-304l-135 -235h-80l413 718h17zM240 304h242l-89 264z" />
    <glyph glyph-name="abreve" unicode="&#x103;" horiz-adv-x="683" 
d="M389 593q-57 0 -87.5 30.5t-22.5 87.5h58q-5 -35 10 -50t49 -15t54 15t25 50h58q-8 -57 -46.5 -87.5t-97.5 -30.5zM618 531l-71 -531h-69l10 80q-92 -94 -211 -94q-54 0 -99.5 18.5t-78.5 51.5t-51.5 79t-18.5 101q0 66 25.5 122.5t67.5 98t97 65t114 23.5
q70 0 118.5 -29t83.5 -86l12 101h71zM285 49q53 0 96.5 19t74.5 52t48.5 78t17.5 97q0 43 -14 77.5t-39.5 59t-59.5 37.5t-75 13q-48 0 -91 -18.5t-75.5 -51t-51.5 -77.5t-19 -98q0 -43 14 -78t39 -59.5t59.5 -37.5t75.5 -13z" />
    <glyph glyph-name="Aogonek" unicode="&#x104;" horiz-adv-x="740" 
d="M663 -187q-11 -2 -21.5 -3t-20.5 -1q-52 0 -75.5 20t-23.5 67q0 21 19.5 52t53.5 52h-12l-78 235h-304l-135 -235h-80l413 718h17l241 -718h-9q-71 -54 -71 -93q0 -29 14 -42t48 -13q8 0 18 1t17 2zM240 304h242l-89 264z" />
    <glyph glyph-name="aogonek" unicode="&#x105;" horiz-adv-x="683" 
d="M555 -187q-11 -2 -21.5 -3t-20.5 -1q-52 0 -75.5 20t-23.5 67q0 21 19.5 52t53.5 52h-9l10 80q-92 -94 -211 -94q-54 0 -99.5 18.5t-78.5 51.5t-51.5 79t-18.5 101q0 66 25.5 122.5t67.5 98t97 65t114 23.5q70 0 118.5 -29t83.5 -86l12 101h71l-71 -531h-7
q-71 -54 -71 -93q0 -29 14 -42t48 -13q8 0 18 1t17 2zM285 49q53 0 96.5 19t74.5 52t48.5 78t17.5 97q0 43 -14 77.5t-39.5 59t-59.5 37.5t-75 13q-48 0 -91 -18.5t-75.5 -51t-51.5 -77.5t-19 -98q0 -43 14 -78t39 -59.5t59.5 -37.5t75.5 -13z" />
    <glyph glyph-name="Cacute" unicode="&#x106;" horiz-adv-x="813" 
d="M659 924l-166 -151h-67l128 151h105zM696 77q-33 -22 -64.5 -39.5t-65.5 -29.5t-73 -18.5t-87 -6.5q-86 0 -154 26t-115.5 71.5t-72.5 108t-25 135.5q0 87 33 162t91.5 130.5t138 87.5t171.5 32q89 0 158.5 -28.5t138.5 -88.5l-44 -60q-57 54 -122.5 80.5t-137.5 26.5
q-73 0 -137.5 -26.5t-112.5 -72.5t-76 -108t-28 -133q0 -63 21.5 -114t60 -87t93 -55.5t120.5 -19.5t128.5 21t119.5 63z" />
    <glyph glyph-name="cacute" unicode="&#x107;" horiz-adv-x="647" 
d="M544 781l-166 -151h-67l128 151h105zM554 97q-52 -57 -114.5 -84t-143.5 -27q-64 0 -113.5 18.5t-83.5 51.5t-52 79.5t-18 102.5q0 65 25 121t68 97t101.5 65t125.5 24q80 0 141.5 -33.5t94.5 -94.5l-57 -33q-59 94 -180 94q-55 0 -101.5 -18.5t-79.5 -50.5t-51.5 -75
t-18.5 -92q0 -43 13.5 -78.5t39 -61t61.5 -39.5t82 -14q61 0 117 24.5t88 63.5z" />
    <glyph glyph-name="Ccircumflex" unicode="&#x108;" horiz-adv-x="813" 
d="M549 896l124 -125h-89l-75 74l-100 -74h-91l163 125h68zM696 77q-33 -22 -64.5 -39.5t-65.5 -29.5t-73 -18.5t-87 -6.5q-86 0 -154 26t-115.5 71.5t-72.5 108t-25 135.5q0 87 33 162t91.5 130.5t138 87.5t171.5 32q89 0 158.5 -28.5t138.5 -88.5l-44 -60
q-57 54 -122.5 80.5t-137.5 26.5q-73 0 -137.5 -26.5t-112.5 -72.5t-76 -108t-28 -133q0 -63 21.5 -114t60 -87t93 -55.5t120.5 -19.5t128.5 21t119.5 63z" />
    <glyph glyph-name="ccircumflex" unicode="&#x109;" horiz-adv-x="647" 
d="M434 753l124 -125h-89l-75 74l-100 -74h-91l163 125h68zM554 97q-52 -57 -114.5 -84t-143.5 -27q-64 0 -113.5 18.5t-83.5 51.5t-52 79.5t-18 102.5q0 65 25 121t68 97t101.5 65t125.5 24q80 0 141.5 -33.5t94.5 -94.5l-57 -33q-59 94 -180 94q-55 0 -101.5 -18.5
t-79.5 -50.5t-51.5 -75t-18.5 -92q0 -43 13.5 -78.5t39 -61t61.5 -39.5t82 -14q61 0 117 24.5t88 63.5z" />
    <glyph glyph-name="Cdotaccent" unicode="&#x10a;" horiz-adv-x="813" 
d="M511 884q23 0 36 -14t13 -43q0 -9 -5 -18.5t-13.5 -18t-20 -14t-25.5 -5.5q-22 0 -35.5 13.5t-13.5 42.5q0 9 5 19t14 18.5t20.5 14t24.5 5.5zM696 77q-33 -22 -64.5 -39.5t-65.5 -29.5t-73 -18.5t-87 -6.5q-86 0 -154 26t-115.5 71.5t-72.5 108t-25 135.5q0 87 33 162
t91.5 130.5t138 87.5t171.5 32q89 0 158.5 -28.5t138.5 -88.5l-44 -60q-57 54 -122.5 80.5t-137.5 26.5q-73 0 -137.5 -26.5t-112.5 -72.5t-76 -108t-28 -133q0 -63 21.5 -114t60 -87t93 -55.5t120.5 -19.5t128.5 21t119.5 63z" />
    <glyph glyph-name="cdotaccent" unicode="&#x10b;" horiz-adv-x="647" 
d="M396 741q23 0 36 -14t13 -43q0 -9 -5 -18.5t-13.5 -18t-20 -14t-25.5 -5.5q-22 0 -35.5 13.5t-13.5 42.5q0 9 5 19t14 18.5t20.5 14t24.5 5.5zM554 97q-52 -57 -114.5 -84t-143.5 -27q-64 0 -113.5 18.5t-83.5 51.5t-52 79.5t-18 102.5q0 65 25 121t68 97t101.5 65
t125.5 24q80 0 141.5 -33.5t94.5 -94.5l-57 -33q-59 94 -180 94q-55 0 -101.5 -18.5t-79.5 -50.5t-51.5 -75t-18.5 -92q0 -43 13.5 -78.5t39 -61t61.5 -39.5t82 -14q61 0 117 24.5t88 63.5z" />
    <glyph glyph-name="Ccaron" unicode="&#x10c;" horiz-adv-x="813" 
d="M460 771l-124 125h88l76 -74l100 74h91l-163 -125h-68zM696 77q-33 -22 -64.5 -39.5t-65.5 -29.5t-73 -18.5t-87 -6.5q-86 0 -154 26t-115.5 71.5t-72.5 108t-25 135.5q0 87 33 162t91.5 130.5t138 87.5t171.5 32q89 0 158.5 -28.5t138.5 -88.5l-44 -60
q-57 54 -122.5 80.5t-137.5 26.5q-73 0 -137.5 -26.5t-112.5 -72.5t-76 -108t-28 -133q0 -63 21.5 -114t60 -87t93 -55.5t120.5 -19.5t128.5 21t119.5 63z" />
    <glyph glyph-name="ccaron" unicode="&#x10d;" horiz-adv-x="647" 
d="M345 628l-124 125h88l76 -74l100 74h91l-163 -125h-68zM554 97q-52 -57 -114.5 -84t-143.5 -27q-64 0 -113.5 18.5t-83.5 51.5t-52 79.5t-18 102.5q0 65 25 121t68 97t101.5 65t125.5 24q80 0 141.5 -33.5t94.5 -94.5l-57 -33q-59 94 -180 94q-55 0 -101.5 -18.5
t-79.5 -50.5t-51.5 -75t-18.5 -92q0 -43 13.5 -78.5t39 -61t61.5 -39.5t82 -14q61 0 117 24.5t88 63.5z" />
    <glyph glyph-name="Dcaron" unicode="&#x10e;" horiz-adv-x="744" 
d="M367 771l-124 125h88l76 -74l100 74h91l-163 -125h-68zM289 718q58 0 109 -8t99 -31q83 -40 129 -120t46 -180q0 -45 -9.5 -88.5t-27.5 -83t-42.5 -73t-54.5 -57.5q-57 -48 -124 -62.5t-148 -14.5h-243l95 718h171zM103 69h81q85 0 149.5 5t116.5 31q33 17 60.5 44.5
t47 62.5t30.5 77t11 88q0 79 -34.5 141t-99.5 96q-48 25 -95.5 30t-101.5 5h-88z" />
    <glyph glyph-name="dcaron" unicode="&#x10f;" horiz-adv-x="689" 
d="M479 0l11 80q-93 -94 -212 -94q-101 0 -175 66q-73 67 -73 184q-1 64 24.5 120.5t68 98.5t98 66t113.5 24q138 0 202 -115l40 306h70l-98 -736h-69zM662 526q35 56 42 96h-37l16 114h73l-5 -51q-6 -66 -20 -105q-7 -19 -17 -37t-23 -35zM286 49q104 0 170 71
q67 70 67 175q0 86 -54 135q-52 51 -134 51q-96 0 -166 -70q-71 -69 -71 -174q0 -87 53 -138q55 -50 135 -50z" />
    <glyph glyph-name="Dcroat" unicode="&#x110;" horiz-adv-x="790" 
d="M21 327l9 64h90l44 327h170q88 0 155 -18t119 -64q51 -45 79 -112t28 -145q0 -45 -9.5 -88.5t-26.5 -83t-41.5 -73t-54.5 -57.5q-57 -46 -122 -61.5t-150 -15.5h-243l44 327h-91zM149 69h80q84 0 149.5 5t116.5 31q33 17 61 45t48.5 63.5t31.5 77t11 86.5
q0 102 -55.5 171.5t-152.5 90.5q-36 8 -62.5 9t-63.5 1h-87l-35 -258h175l-8 -64h-175z" />
    <glyph glyph-name="dcroat" unicode="&#x111;" horiz-adv-x="685" 
d="M358 608l10 65h199l9 63h70l-8 -63h70l-9 -65h-70l-81 -608h-69l11 80q-93 -94 -212 -94q-108 0 -178 70t-70 180q0 127 90 218q91 91 214 91q66 0 116 -27.5t86 -87.5l23 178h-201zM286 49q49 -2 92.5 17t76 52.5t51 79t17.5 97.5q0 83 -52 134q-52 52 -136 52
q-97 0 -168 -71q-69 -70 -69 -173q0 -85 52 -137q53 -51 136 -51z" />
    <glyph glyph-name="Emacron" unicode="&#x112;" horiz-adv-x="536" 
d="M505 866l-8 -60h-337l8 60h337zM506 649h-323l-32 -236h323l-9 -69h-323l-37 -275h323l-8 -69h-396l96 718h396z" />
    <glyph glyph-name="emacron" unicode="&#x113;" horiz-adv-x="650" 
d="M542 723l-8 -60h-337l8 60h337zM515 95q-39 -49 -100 -79t-136 -30q-60 0 -106.5 20t-78.5 54.5t-48.5 80.5t-16.5 97q0 61 23.5 116.5t65 98t98 68t122.5 25.5q53 0 96.5 -19t74.5 -52.5t48 -78.5t17 -96q0 -11 -1 -24t-3 -24h-473v-14q0 -41 13 -76t37 -60t58 -39
t76 -14q56 0 103.5 22.5t79.5 64.5zM508 312q-1 38 -15 69t-37 53t-54.5 33.5t-67.5 11.5q-77 0 -138.5 -43t-87.5 -124h400z" />
    <glyph glyph-name="Ebreve" unicode="&#x114;" horiz-adv-x="536" 
d="M513 888q-17 -44 -64 -73.5t-121 -29.5q-72 0 -113.5 28t-47.5 75h64q26 -51 104 -51q39 0 65 11t51 40h62zM506 649h-323l-32 -236h323l-9 -69h-323l-37 -275h323l-8 -69h-396l96 718h396z" />
    <glyph glyph-name="ebreve" unicode="&#x115;" horiz-adv-x="650" 
d="M550 745q-17 -44 -64 -73.5t-121 -29.5q-72 0 -113.5 28t-47.5 75h64q26 -51 104 -51q39 0 65 11t51 40h62zM515 95q-39 -49 -100 -79t-136 -30q-60 0 -106.5 20t-78.5 54.5t-48.5 80.5t-16.5 97q0 61 23.5 116.5t65 98t98 68t122.5 25.5q53 0 96.5 -19t74.5 -52.5
t48 -78.5t17 -96q0 -11 -1 -24t-3 -24h-473v-14q0 -41 13 -76t37 -60t58 -39t76 -14q56 0 103.5 22.5t79.5 64.5zM508 312q-1 38 -15 69t-37 53t-54.5 33.5t-67.5 11.5q-77 0 -138.5 -43t-87.5 -124h400z" />
    <glyph glyph-name="Edotaccent" unicode="&#x116;" horiz-adv-x="536" 
d="M339 884q23 0 36 -14t13 -43q0 -9 -5 -18.5t-13.5 -18t-20 -14t-25.5 -5.5q-22 0 -35.5 13.5t-13.5 42.5q0 9 5 19t14 18.5t20.5 14t24.5 5.5zM506 649h-323l-32 -236h323l-9 -69h-323l-37 -275h323l-8 -69h-396l96 718h396z" />
    <glyph glyph-name="edotaccent" unicode="&#x117;" horiz-adv-x="650" 
d="M376 741q23 0 36 -14t13 -43q0 -9 -5 -18.5t-13.5 -18t-20 -14t-25.5 -5.5q-22 0 -35.5 13.5t-13.5 42.5q0 9 5 19t14 18.5t20.5 14t24.5 5.5zM515 95q-39 -49 -100 -79t-136 -30q-60 0 -106.5 20t-78.5 54.5t-48.5 80.5t-16.5 97q0 61 23.5 116.5t65 98t98 68
t122.5 25.5q53 0 96.5 -19t74.5 -52.5t48 -78.5t17 -96q0 -11 -1 -24t-3 -24h-473v-14q0 -41 13 -76t37 -60t58 -39t76 -14q56 0 103.5 22.5t79.5 64.5zM508 312q-1 38 -15 69t-37 53t-54.5 33.5t-67.5 11.5q-77 0 -138.5 -43t-87.5 -124h400z" />
    <glyph glyph-name="Eogonek" unicode="&#x118;" horiz-adv-x="536" 
d="M396 -187q-11 -2 -21.5 -3t-20.5 -1q-52 0 -75.5 20t-23.5 67q0 21 19.5 52t53.5 52h-304l96 718h396l-10 -69h-323l-32 -236h323l-9 -69h-323l-37 -275h323l-8 -69h-39q-71 -54 -71 -93q0 -29 14 -42t48 -13q8 0 18 1t17 2z" />
    <glyph glyph-name="eogonek" unicode="&#x119;" horiz-adv-x="650" 
d="M382 -187q-11 -2 -21.5 -3t-20.5 -1q-52 0 -75.5 20t-23.5 67q0 18 14 44t40 47q-4 -1 -8 -1h-8q-60 0 -106.5 20t-78.5 54.5t-48.5 80.5t-16.5 97q0 61 23.5 116.5t65 98t98 68t122.5 25.5q53 0 96.5 -19t74.5 -52.5t48 -78.5t17 -96q0 -11 -1 -24t-3 -24h-473v-14
q0 -41 13 -76t37 -60t58 -39t76 -14q56 0 103.5 22.5t79.5 64.5l51 -41q-28 -35 -66.5 -60t-85.5 -38q-67 -52 -67 -90q0 -29 14 -42t48 -13q8 0 18 1t17 2zM508 312q-1 38 -15 69t-37 53t-54.5 33.5t-67.5 11.5q-77 0 -138.5 -43t-87.5 -124h400z" />
    <glyph glyph-name="Ecaron" unicode="&#x11a;" horiz-adv-x="536" 
d="M288 771l-124 125h88l76 -74l100 74h91l-163 -125h-68zM506 649h-323l-32 -236h323l-9 -69h-323l-37 -275h323l-8 -69h-396l96 718h396z" />
    <glyph glyph-name="ecaron" unicode="&#x11b;" horiz-adv-x="650" 
d="M325 628l-124 125h88l76 -74l100 74h91l-163 -125h-68zM515 95q-39 -49 -100 -79t-136 -30q-60 0 -106.5 20t-78.5 54.5t-48.5 80.5t-16.5 97q0 61 23.5 116.5t65 98t98 68t122.5 25.5q53 0 96.5 -19t74.5 -52.5t48 -78.5t17 -96q0 -11 -1 -24t-3 -24h-473v-14
q0 -41 13 -76t37 -60t58 -39t76 -14q56 0 103.5 22.5t79.5 64.5zM508 312q-1 38 -15 69t-37 53t-54.5 33.5t-67.5 11.5q-77 0 -138.5 -43t-87.5 -124h400z" />
    <glyph glyph-name="Gcircumflex" unicode="&#x11c;" horiz-adv-x="872" 
d="M545 896l124 -125h-89l-75 74l-100 -74h-91l163 125h68zM797 351q-6 -82 -36.5 -150t-81.5 -116.5t-119.5 -75t-149.5 -26.5q-84 0 -152.5 27t-117 74.5t-75 111.5t-26.5 138q0 84 32 157t87 127.5t129.5 86t159.5 31.5q99 0 182.5 -42.5t150.5 -129.5l-58 -43
q-56 73 -128 110.5t-149 37.5q-65 0 -125.5 -26t-106.5 -71t-73.5 -106t-27.5 -130q0 -60 22.5 -112t61.5 -91t92 -61t114 -22q53 0 102.5 15t90 44.5t70.5 72.5t45 100h-263v69h350z" />
    <glyph glyph-name="gcircumflex" unicode="&#x11d;" horiz-adv-x="673" 
d="M425 753l124 -125h-89l-75 74l-100 -74h-91l163 125h68zM611 531l-61 -449q-4 -33 -9.5 -63t-14.5 -57t-23 -51t-37 -46q-35 -34 -89 -53.5t-117 -19.5q-89 0 -152 35.5t-97 107.5l61 21q27 -50 75 -75.5t112 -25.5q42 0 77.5 10.5t62.5 28.5t44 42t22 50q5 23 9 45t7 42
l3 21q-87 -94 -211 -94q-57 0 -102 18.5t-76.5 51t-48.5 77t-17 95.5q0 64 26 119t68 96t95.5 64.5t109.5 23.5q66 0 115.5 -29t87.5 -86l13 101h67zM341 482q-51 0 -95.5 -18t-77.5 -50.5t-52 -77t-19 -97.5q0 -81 50 -128.5t133 -47.5q50 0 93.5 17.5t75 49t49.5 74.5
t18 94q0 43 -14.5 77t-38.5 58t-55.5 36.5t-66.5 12.5z" />
    <glyph glyph-name="Gbreve" unicode="&#x11e;" horiz-adv-x="872" 
d="M681 888q-17 -44 -64 -73.5t-121 -29.5q-72 0 -113.5 28t-47.5 75h64q26 -51 104 -51q39 0 65 11t51 40h62zM797 351q-6 -82 -36.5 -150t-81.5 -116.5t-119.5 -75t-149.5 -26.5q-84 0 -152.5 27t-117 74.5t-75 111.5t-26.5 138q0 84 32 157t87 127.5t129.5 86t159.5 31.5
q99 0 182.5 -42.5t150.5 -129.5l-58 -43q-56 73 -128 110.5t-149 37.5q-65 0 -125.5 -26t-106.5 -71t-73.5 -106t-27.5 -130q0 -60 22.5 -112t61.5 -91t92 -61t114 -22q53 0 102.5 15t90 44.5t70.5 72.5t45 100h-263v69h350z" />
    <glyph glyph-name="gbreve" unicode="&#x11f;" horiz-adv-x="673" 
d="M562 745q-17 -44 -64 -73.5t-121 -29.5q-72 0 -113.5 28t-47.5 75h64q26 -51 104 -51q39 0 65 11t51 40h62zM611 531l-61 -449q-4 -33 -9.5 -63t-14.5 -57t-23 -51t-37 -46q-35 -34 -89 -53.5t-117 -19.5q-89 0 -152 35.5t-97 107.5l61 21q27 -50 75 -75.5t112 -25.5
q42 0 77.5 10.5t62.5 28.5t44 42t22 50q5 23 9 45t7 42l3 21q-87 -94 -211 -94q-57 0 -102 18.5t-76.5 51t-48.5 77t-17 95.5q0 64 26 119t68 96t95.5 64.5t109.5 23.5q66 0 115.5 -29t87.5 -86l13 101h67zM341 482q-51 0 -95.5 -18t-77.5 -50.5t-52 -77t-19 -97.5
q0 -81 50 -128.5t133 -47.5q50 0 93.5 17.5t75 49t49.5 74.5t18 94q0 43 -14.5 77t-38.5 58t-55.5 36.5t-66.5 12.5z" />
    <glyph glyph-name="Gdotaccent" unicode="&#x120;" horiz-adv-x="872" 
d="M507 884q23 0 36 -14t13 -43q0 -9 -5 -18.5t-13.5 -18t-20 -14t-25.5 -5.5q-22 0 -35.5 13.5t-13.5 42.5q0 9 5 19t14 18.5t20.5 14t24.5 5.5zM797 351q-6 -82 -36.5 -150t-81.5 -116.5t-119.5 -75t-149.5 -26.5q-84 0 -152.5 27t-117 74.5t-75 111.5t-26.5 138
q0 84 32 157t87 127.5t129.5 86t159.5 31.5q99 0 182.5 -42.5t150.5 -129.5l-58 -43q-56 73 -128 110.5t-149 37.5q-65 0 -125.5 -26t-106.5 -71t-73.5 -106t-27.5 -130q0 -60 22.5 -112t61.5 -91t92 -61t114 -22q53 0 102.5 15t90 44.5t70.5 72.5t45 100h-263v69h350z" />
    <glyph glyph-name="gdotaccent" unicode="&#x121;" horiz-adv-x="673" 
d="M387 741q23 0 36 -14t13 -43q0 -9 -5 -18.5t-13.5 -18t-20 -14t-25.5 -5.5q-22 0 -35.5 13.5t-13.5 42.5q0 9 5 19t14 18.5t20.5 14t24.5 5.5zM611 531l-61 -449q-4 -33 -9.5 -63t-14.5 -57t-23 -51t-37 -46q-35 -34 -89 -53.5t-117 -19.5q-89 0 -152 35.5t-97 107.5
l61 21q27 -50 75 -75.5t112 -25.5q42 0 77.5 10.5t62.5 28.5t44 42t22 50q5 23 9 45t7 42l3 21q-87 -94 -211 -94q-57 0 -102 18.5t-76.5 51t-48.5 77t-17 95.5q0 64 26 119t68 96t95.5 64.5t109.5 23.5q66 0 115.5 -29t87.5 -86l13 101h67zM341 482q-51 0 -95.5 -18
t-77.5 -50.5t-52 -77t-19 -97.5q0 -81 50 -128.5t133 -47.5q50 0 93.5 17.5t75 49t49.5 74.5t18 94q0 43 -14.5 77t-38.5 58t-55.5 36.5t-66.5 12.5z" />
    <glyph glyph-name="uni0122" unicode="&#x122;" horiz-adv-x="872" 
d="M797 351q-6 -82 -36.5 -150t-81.5 -116.5t-119.5 -75t-149.5 -26.5q-84 0 -152.5 27t-117 74.5t-75 111.5t-26.5 138q0 84 32 157t87 127.5t129.5 86t159.5 31.5q99 0 182.5 -42.5t150.5 -129.5l-58 -43q-56 73 -128 110.5t-149 37.5q-65 0 -125.5 -26t-106.5 -71
t-73.5 -106t-27.5 -130q0 -60 22.5 -112t61.5 -91t92 -61t114 -22q53 0 102.5 15t90 44.5t70.5 72.5t45 100h-263v69h350zM331 -62q21 7 46 7q77 0 77 -53q0 -34 -30.5 -56t-81.5 -22q-16 0 -33.5 3t-37.5 8l11 35q31 -7 50 -7q64 0 64 32q0 21 -36 21q-14 0 -35 -7z" />
    <glyph glyph-name="uni0123" unicode="&#x123;" horiz-adv-x="673" 
d="M319 644l111 139l37 -15l-98 -147zM611 531l-61 -449q-4 -33 -9.5 -63t-14.5 -57t-23 -51t-37 -46q-35 -34 -89 -53.5t-117 -19.5q-89 0 -152 35.5t-97 107.5l61 21q27 -50 75 -75.5t112 -25.5q42 0 77.5 10.5t62.5 28.5t44 42t22 50q5 23 9 45t7 42l3 21
q-87 -94 -211 -94q-57 0 -102 18.5t-76.5 51t-48.5 77t-17 95.5q0 64 26 119t68 96t95.5 64.5t109.5 23.5q66 0 115.5 -29t87.5 -86l13 101h67zM341 482q-51 0 -95.5 -18t-77.5 -50.5t-52 -77t-19 -97.5q0 -81 50 -128.5t133 -47.5q50 0 93.5 17.5t75 49t49.5 74.5t18 94
q0 43 -14.5 77t-38.5 58t-55.5 36.5t-66.5 12.5z" />
    <glyph glyph-name="Hcircumflex" unicode="&#x124;" horiz-adv-x="683" 
d="M450 896l124 -125h-89l-75 74l-100 -74h-91l163 125h68zM190 718l-39 -291h368l39 291h70l-94 -718h-70l47 358h-370l-46 -358h-72l96 718h71z" />
    <glyph glyph-name="hcircumflex" unicode="&#x125;" horiz-adv-x="610" 
d="M220 905l124 -125h-89l-75 74l-100 -74h-91l163 125h68zM188 736l-39 -285q83 95 188 95q38 0 71 -12.5t57.5 -36t39 -57.5t14.5 -78q0 -35 -4 -64.5t-7 -53.5l-33 -244h-67l33 244q5 32 7.5 61t2.5 54q0 57 -33.5 90.5t-89.5 33.5q-50 0 -93.5 -24t-69.5 -66
q-18 -29 -28.5 -70.5t-17.5 -92.5l-32 -230h-68l101 736h68z" />
    <glyph glyph-name="Hbar" unicode="&#x126;" horiz-adv-x="683" 
d="M534 0h-70l47 358h-369l-47 -358h-72l72 538h-65l10 67h64l16 113h70l-15 -113h368l16 113h69l-14 -113h65l-9 -67h-65zM167 538l-15 -112h368l15 112h-368z" />
    <glyph glyph-name="hbar" unicode="&#x127;" horiz-adv-x="610" 
d="M27 605l8 57h76l10 74h66l-10 -74h183l-7 -57h-184l-21 -154q82 94 188 94q77 0 129 -48q54 -48 54 -130q0 -23 -3 -54t-8 -69l-33 -244h-68l33 244q5 37 8 66t3 51q0 54 -33.5 88t-90.5 34q-49 0 -95 -26q-45 -25 -72 -72q-27 -46 -42 -155l-32 -230h-66l83 605h-76z
" />
    <glyph glyph-name="Itilde" unicode="&#x128;" horiz-adv-x="226" 
d="M60 787q6 42 20.5 66t34 33t41.5 3.5t43 -23.5q16 -14 28.5 -22.5t22 -8t16 12.5t10.5 39h52q-6 -42 -20.5 -66.5t-33.5 -33.5t-41 -3.5t-43 23.5q-16 14 -29 22.5t-22.5 8t-16 -12t-10.5 -38.5h-52zM188 718l-96 -718h-73l97 718h72z" />
    <glyph glyph-name="itilde" unicode="&#x129;" horiz-adv-x="200" 
d="M1 601q6 42 20.5 66t34 33t41.5 3.5t43 -23.5q16 -14 28.5 -22.5t22 -8t16 12.5t10.5 39h52q-6 -42 -20.5 -66.5t-33.5 -33.5t-41 -3.5t-43 23.5q-16 14 -29 22.5t-22.5 8t-16 -12t-10.5 -38.5h-52zM145 531l-71 -531h-67l73 531h65z" />
    <glyph glyph-name="Imacron" unicode="&#x12a;" horiz-adv-x="226" 
d="M321 866l-8 -60h-337l8 60h337zM188 718l-96 -718h-73l97 718h72z" />
    <glyph glyph-name="imacron" unicode="&#x12b;" horiz-adv-x="200" 
d="M295 723l-8 -60h-337l8 60h337zM145 531l-71 -531h-67l73 531h65z" />
    <glyph glyph-name="Ibreve" unicode="&#x12c;" horiz-adv-x="226" 
d="M341 888q-17 -44 -64 -73.5t-121 -29.5q-72 0 -113.5 28t-47.5 75h64q26 -51 104 -51q39 0 65 11t51 40h62zM188 718l-96 -718h-73l97 718h72z" />
    <glyph glyph-name="ibreve" unicode="&#x12d;" horiz-adv-x="200" 
d="M313 745q-17 -44 -64 -73.5t-121 -29.5q-72 0 -113.5 28t-47.5 75h64q26 -51 104 -51q39 0 65 11t51 40h62zM145 531l-71 -531h-67l73 531h65z" />
    <glyph glyph-name="Iogonek" unicode="&#x12e;" horiz-adv-x="226" 
d="M188 718l-96 -718h-10q-71 -54 -71 -93q0 -29 14 -42t48 -13q8 0 18 1t17 2l-11 -42q-11 -2 -21.5 -3t-20.5 -1q-52 0 -75.5 20t-23.5 67q0 21 19.5 52t53.5 52h-10l97 718h72z" />
    <glyph glyph-name="iogonek" unicode="&#x12f;" horiz-adv-x="200" 
d="M134 750q23 0 39 -16t16 -39t-16 -39t-39 -16t-39 16t-16 39t16 39t39 16zM145 531l-71 -531h-8q-71 -54 -71 -93q0 -29 14 -42t48 -13q8 0 18 1t17 2l-11 -42q-11 -2 -21.5 -3t-20.5 -1q-52 0 -75.5 20t-23.5 67q0 21 19.5 52t53.5 52h-6l73 531h65z" />
    <glyph glyph-name="Idotaccent" unicode="&#x130;" horiz-adv-x="226" 
d="M184 884q23 0 36 -14t13 -43q0 -9 -5 -18.5t-13.5 -18t-20 -14t-25.5 -5.5q-22 0 -35.5 13.5t-13.5 42.5q0 9 5 19t14 18.5t20.5 14t24.5 5.5zM188 718l-96 -718h-73l97 718h72z" />
    <glyph glyph-name="dotlessi" unicode="&#x131;" horiz-adv-x="200" 
d="M145 531l-71 -531h-67l73 531h65z" />
    <glyph glyph-name="IJ" unicode="&#x132;" horiz-adv-x="708" 
d="M188 718l-96 -718h-73l97 718h72zM630 718l-65 -495q-8 -63 -18.5 -110t-36.5 -78q-21 -26 -52.5 -39.5t-69.5 -13.5q-49 0 -91 21.5t-82 64.5l55 40q29 -28 58 -43.5t61 -15.5q27 0 45 12t29.5 34t18.5 53.5t12 69.5l65 500h71z" />
    <glyph glyph-name="ij" unicode="&#x133;" horiz-adv-x="403" 
d="M134 750q23 0 39 -16t16 -39t-16 -39t-39 -16t-39 16t-16 39t16 39t39 16zM337 750q23 0 39 -16t16 -39t-16 -39t-39 -16t-39 16t-16 39t16 39t39 16zM145 531l-71 -531h-67l73 531h65zM350 531l-78 -565q-11 -82 -34 -128.5t-76 -46.5q-15 0 -30 5t-28 10l8 58
q6 -4 15 -7t20 -3q23 0 35.5 21.5t19.5 69.5l81 586h67z" />
    <glyph glyph-name="Jcircumflex" unicode="&#x134;" horiz-adv-x="482" 
d="M429 896l124 -125h-89l-75 74l-100 -74h-91l163 125h68zM403 718l-65 -495q-8 -63 -18.5 -110t-36.5 -78q-21 -26 -52.5 -39.5t-69.5 -13.5q-49 0 -91 21.5t-82 64.5l55 40q29 -28 58 -43.5t61 -15.5q27 0 45 12t29.5 34t18.5 53.5t12 69.5l65 500h71z" />
    <glyph glyph-name="jcircumflex" unicode="&#x135;" horiz-adv-x="203" 
d="M171 753l124 -125h-89l-75 74l-100 -74h-91l163 125h68zM150 531l-78 -565q-11 -82 -34 -128.5t-76 -46.5q-15 0 -30 5t-28 10l8 58q6 -4 15 -7t20 -3q23 0 35.5 21.5t19.5 69.5l81 586h67z" />
    <glyph glyph-name="uni0136" unicode="&#x136;" horiz-adv-x="591" 
d="M190 718l-39 -291l336 291h104l-390 -336l337 -382h-92l-305 347l-47 -347h-71l96 718h71zM191 -62q21 7 46 7q77 0 77 -53q0 -34 -30.5 -56t-81.5 -22q-16 0 -33.5 3t-37.5 8l11 35q31 -7 50 -7q64 0 64 32q0 21 -36 21q-14 0 -35 -7z" />
    <glyph glyph-name="uni0137" unicode="&#x137;" horiz-adv-x="502" 
d="M190 736l-57 -401l256 196h106l-308 -237l272 -294h-91l-245 264l-36 -264h-68l104 736h67zM146 -62q21 7 46 7q77 0 77 -53q0 -34 -30.5 -56t-81.5 -22q-16 0 -33.5 3t-37.5 8l11 35q31 -7 50 -7q64 0 64 32q0 21 -36 21q-14 0 -35 -7z" />
    <glyph glyph-name="kgreenlandic" unicode="&#x138;" horiz-adv-x="502" 
d="M161 531l-28 -197l256 197h107l-309 -237l272 -294h-91l-245 264l-36 -264h-68l75 531h67z" />
    <glyph glyph-name="Lacute" unicode="&#x139;" horiz-adv-x="463" 
d="M450 924l-166 -151h-67l128 151h105zM194 718l-86 -649h310l-8 -69h-383l95 718h72z" />
    <glyph glyph-name="lacute" unicode="&#x13a;" horiz-adv-x="200" 
d="M320 942l-166 -151h-67l128 151h105zM177 736l-102 -736h-68l103 736h67z" />
    <glyph glyph-name="uni013B" unicode="&#x13b;" horiz-adv-x="463" 
d="M194 718l-86 -649h310l-8 -69h-383l95 718h72zM127 -62q21 7 46 7q77 0 77 -53q0 -34 -30.5 -56t-81.5 -22q-16 0 -33.5 3t-37.5 8l11 35q31 -7 50 -7q64 0 64 32q0 21 -36 21q-14 0 -35 -7z" />
    <glyph glyph-name="uni013C" unicode="&#x13c;" horiz-adv-x="200" 
d="M177 736l-102 -736h-68l103 736h67zM-17 -62q21 7 46 7q77 0 77 -53q0 -34 -30.5 -56t-81.5 -22q-16 0 -33.5 3t-37.5 8l11 35q31 -7 50 -7q64 0 64 32q0 21 -36 21q-14 0 -35 -7z" />
    <glyph glyph-name="Lcaron" unicode="&#x13d;" horiz-adv-x="462" 
d="M192 718l-86 -651h311l-9 -67h-383l95 718h72zM236 471q28 46 35 63q9 19 15 49h-43l19 135h86l-6 -60q-7 -76 -24 -120q-8 -22 -19.5 -44t-27.5 -45z" />
    <glyph glyph-name="lcaron" unicode="&#x13e;" horiz-adv-x="202" 
d="M177 736l-103 -736h-67l103 736h67zM191 526q35 54 43 96h-37l16 114h74l-6 -51q-7 -67 -21 -105q-13 -37 -39 -72z" />
    <glyph glyph-name="Ldot" unicode="&#x13f;" horiz-adv-x="462" 
d="M192 718l-86 -651h311l-9 -67h-383l95 718h72zM293 425q21 0 35 -14t14 -35q0 -25 -19.5 -44.5t-46.5 -19.5q-20 0 -34 14t-14 34q0 26 19.5 45.5t45.5 19.5z" />
    <glyph glyph-name="ldot" unicode="&#x140;" horiz-adv-x="264" 
d="M177 736l-103 -736h-67l103 736h67zM230 425q21 0 35.5 -14t14.5 -35q0 -25 -20 -44.5t-46 -19.5q-21 0 -34.5 14t-13.5 34q0 26 19.5 45.5t44.5 19.5z" />
    <glyph glyph-name="Lslash" unicode="&#x141;" horiz-adv-x="517" 
d="M317 476l-11 -78l-137 -69l-35 -260h310l-8 -69h-383l39 291l-88 -44l11 78l87 44l46 349h72l-41 -311z" />
    <glyph glyph-name="lslash" unicode="&#x142;" horiz-adv-x="300" 
d="M296 508l-11 -78l-109 -62l-52 -368h-67l46 327l-98 -56l11 78l98 56l46 331h67l-41 -290z" />
    <glyph glyph-name="Nacute" unicode="&#x143;" horiz-adv-x="740" 
d="M588 924l-166 -151h-67l128 151h105zM688 718l-98 -718h-15l-404 557l-76 -557h-71l97 718h16l405 -557l75 557h71z" />
    <glyph glyph-name="nacute" unicode="&#x144;" horiz-adv-x="610" 
d="M503 781l-166 -151h-67l128 151h105zM149 450q81 95 188 95q39 0 72.5 -12.5t58 -36t38 -57.5t13.5 -77q0 -38 -4 -68t-7 -50l-33 -244h-67l33 244q3 25 6.5 53.5t3.5 60.5q0 57 -32.5 90.5t-89.5 33.5q-51 0 -94.5 -23t-69.5 -65q-19 -29 -28.5 -70.5t-17.5 -93.5
l-32 -230h-67l74 531h65z" />
    <glyph glyph-name="uni0145" unicode="&#x145;" horiz-adv-x="740" 
d="M688 718l-98 -718h-15l-404 557l-76 -557h-71l97 718h16l405 -557l75 557h71zM265 -62q21 7 46 7q77 0 77 -53q0 -34 -30.5 -56t-81.5 -22q-16 0 -33.5 3t-37.5 8l11 35q31 -7 50 -7q64 0 64 32q0 21 -36 21q-14 0 -35 -7z" />
    <glyph glyph-name="uni0146" unicode="&#x146;" horiz-adv-x="610" 
d="M149 450q81 95 188 95q39 0 72.5 -12.5t58 -36t38 -57.5t13.5 -77q0 -38 -4 -68t-7 -50l-33 -244h-67l33 244q3 25 6.5 53.5t3.5 60.5q0 57 -32.5 90.5t-89.5 33.5q-51 0 -94.5 -23t-69.5 -65q-19 -29 -28.5 -70.5t-17.5 -93.5l-32 -230h-67l74 531h65zM200 -62
q21 7 46 7q77 0 77 -53q0 -34 -30.5 -56t-81.5 -22q-16 0 -33.5 3t-37.5 8l11 35q31 -7 50 -7q64 0 64 32q0 21 -36 21q-14 0 -35 -7z" />
    <glyph glyph-name="Ncaron" unicode="&#x147;" horiz-adv-x="740" 
d="M390 771l-124 125h88l76 -74l100 74h91l-163 -125h-68zM688 718l-98 -718h-15l-404 557l-76 -557h-71l97 718h16l405 -557l75 557h71z" />
    <glyph glyph-name="ncaron" unicode="&#x148;" horiz-adv-x="610" 
d="M305 628l-124 125h88l76 -74l100 74h91l-163 -125h-68zM149 450q81 95 188 95q39 0 72.5 -12.5t58 -36t38 -57.5t13.5 -77q0 -38 -4 -68t-7 -50l-33 -244h-67l33 244q3 25 6.5 53.5t3.5 60.5q0 57 -32.5 90.5t-89.5 33.5q-51 0 -94.5 -23t-69.5 -65q-19 -29 -28.5 -70.5
t-17.5 -93.5l-32 -230h-67l74 531h65z" />
    <glyph glyph-name="napostrophe" unicode="&#x149;" horiz-adv-x="610" 
d="M-23 489q13 22 21.5 37.5t12.5 25.5q9 19 15 49h-43l19 135h86l-6 -60q-7 -76 -24 -120q-15 -43 -46 -89zM156 531l-10 -81q81 95 187 95q84 0 133.5 -50t49.5 -137q0 -17 -3 -45.5t-8 -68.5l-33 -244h-67l32 244q5 39 8 67.5t3 47.5q0 57 -33.5 90.5t-88.5 33.5
q-54 0 -100 -28q-46 -27 -72 -75q-13 -23 -22 -61t-16 -90l-32 -229h-67l74 531h65z" />
    <glyph glyph-name="Eng" unicode="&#x14a;" horiz-adv-x="777" 
d="M95 0h-72l97 718h70l-11 -86q112 104 245 104q130 0 206 -87q78 -87 78 -231q0 -172 -99 -304t-240 -132q-57 0 -95.5 19.5t-67.5 74.5l54 42q39 -68 119 -68q105 0 180 113q76 113 76 246q0 117 -63 187q-63 72 -165 72q-131 0 -240 -121z" />
    <glyph glyph-name="eng" unicode="&#x14b;" horiz-adv-x="610" 
d="M310 -136q17 -11 35 -11q41 0 55 92l39 292q12 84 12 122q0 54 -32.5 89t-89.5 35q-61 0 -109 -33q-48 -34 -68 -82q-21 -48 -33 -139l-32 -229h-67l74 531h65l-10 -81q80 95 187 95q78 0 130 -49q53 -48 53 -134q0 -42 -12 -128l-37 -268q-16 -117 -46 -145
q-29 -29 -63 -29q-26 0 -59 14z" />
    <glyph glyph-name="Omacron" unicode="&#x14c;" horiz-adv-x="869" 
d="M672 866l-8 -60h-337l8 60h337zM466 736q70 0 131.5 -24t107.5 -68t73 -106t27 -138q0 -88 -32 -164t-89 -132.5t-135.5 -89t-171.5 -32.5q-79 0 -143 25t-108 69.5t-68 106t-24 135.5q0 89 32 165t89.5 132.5t137 88.5t173.5 32zM465 669q-81 0 -147 -28t-113 -76
t-72.5 -111.5t-25.5 -133.5q0 -60 18.5 -109.5t53.5 -85.5t84.5 -56t112.5 -20q76 0 141 27.5t113 75.5t75 112.5t27 139.5q0 60 -21 109t-57 83.5t-84.5 53.5t-104.5 19z" />
    <glyph glyph-name="omacron" unicode="&#x14d;" 
d="M545 723l-8 -60h-337l8 60h337zM332 545q52 0 96.5 -18.5t77.5 -52t52 -80t19 -103.5q0 -63 -22 -118t-62 -96.5t-96.5 -65.5t-124.5 -24q-55 0 -100 18.5t-77.5 51.5t-50 78.5t-17.5 99.5q0 65 23.5 121.5t65 98.5t97 66t119.5 24zM330 482q-49 0 -92 -18t-74.5 -50.5
t-50 -77t-18.5 -97.5q0 -41 13.5 -76t37.5 -60t58.5 -39t76.5 -14q51 0 93 19.5t72 52.5t46.5 77t16.5 93q0 43 -13.5 78t-37.5 60t-57 38.5t-71 13.5z" />
    <glyph glyph-name="Obreve" unicode="&#x14e;" horiz-adv-x="869" 
d="M680 888q-17 -44 -64 -73.5t-121 -29.5q-72 0 -113.5 28t-47.5 75h64q26 -51 104 -51q39 0 65 11t51 40h62zM466 736q70 0 131.5 -24t107.5 -68t73 -106t27 -138q0 -88 -32 -164t-89 -132.5t-135.5 -89t-171.5 -32.5q-79 0 -143 25t-108 69.5t-68 106t-24 135.5
q0 89 32 165t89.5 132.5t137 88.5t173.5 32zM465 669q-81 0 -147 -28t-113 -76t-72.5 -111.5t-25.5 -133.5q0 -60 18.5 -109.5t53.5 -85.5t84.5 -56t112.5 -20q76 0 141 27.5t113 75.5t75 112.5t27 139.5q0 60 -21 109t-57 83.5t-84.5 53.5t-104.5 19z" />
    <glyph glyph-name="obreve" unicode="&#x14f;" 
d="M553 745q-17 -44 -64 -73.5t-121 -29.5q-72 0 -113.5 28t-47.5 75h64q26 -51 104 -51q39 0 65 11t51 40h62zM332 545q52 0 96.5 -18.5t77.5 -52t52 -80t19 -103.5q0 -63 -22 -118t-62 -96.5t-96.5 -65.5t-124.5 -24q-55 0 -100 18.5t-77.5 51.5t-50 78.5t-17.5 99.5
q0 65 23.5 121.5t65 98.5t97 66t119.5 24zM330 482q-49 0 -92 -18t-74.5 -50.5t-50 -77t-18.5 -97.5q0 -41 13.5 -76t37.5 -60t58.5 -39t76.5 -14q51 0 93 19.5t72 52.5t46.5 77t16.5 93q0 43 -13.5 78t-37.5 60t-57 38.5t-71 13.5z" />
    <glyph glyph-name="Ohungarumlaut" unicode="&#x150;" horiz-adv-x="869" 
d="M576 924l-166 -151h-67l128 151h105zM730 924l-165 -151h-68l128 151h105zM466 736q70 0 131.5 -24t107.5 -68t73 -106t27 -138q0 -88 -32 -164t-89 -132.5t-135.5 -89t-171.5 -32.5q-79 0 -143 25t-108 69.5t-68 106t-24 135.5q0 89 32 165t89.5 132.5t137 88.5
t173.5 32zM465 669q-81 0 -147 -28t-113 -76t-72.5 -111.5t-25.5 -133.5q0 -60 18.5 -109.5t53.5 -85.5t84.5 -56t112.5 -20q76 0 141 27.5t113 75.5t75 112.5t27 139.5q0 60 -21 109t-57 83.5t-84.5 53.5t-104.5 19z" />
    <glyph glyph-name="ohungarumlaut" unicode="&#x151;" 
d="M449 781l-166 -151h-67l128 151h105zM603 781l-165 -151h-68l128 151h105zM332 545q52 0 96.5 -18.5t77.5 -52t52 -80t19 -103.5q0 -63 -22 -118t-62 -96.5t-96.5 -65.5t-124.5 -24q-55 0 -100 18.5t-77.5 51.5t-50 78.5t-17.5 99.5q0 65 23.5 121.5t65 98.5t97 66
t119.5 24zM330 482q-49 0 -92 -18t-74.5 -50.5t-50 -77t-18.5 -97.5q0 -41 13.5 -76t37.5 -60t58.5 -39t76.5 -14q51 0 93 19.5t72 52.5t46.5 77t16.5 93q0 43 -13.5 78t-37.5 60t-57 38.5t-71 13.5z" />
    <glyph glyph-name="OE" unicode="&#x152;" horiz-adv-x="1194" 
d="M697 117q-64 -66 -141 -100.5t-178 -34.5q-80 0 -143 25.5t-107 71t-67 107.5t-23 135q0 87 32.5 163t89 132t133 88t164.5 32q207 0 301 -166l20 148h394l-8 -69h-325l-32 -236h325l-9 -69h-324l-37 -275h324l-9 -69h-396zM454 669q-57 0 -117.5 -22.5t-111 -67
t-82.5 -110.5t-32 -152q0 -61 20.5 -111.5t56.5 -86t85 -55t106 -19.5q71 0 135.5 27.5t113 75.5t77.5 112.5t29 137.5q0 62 -21 112t-58.5 85.5t-88.5 54.5t-112 19z" />
    <glyph glyph-name="oe" unicode="&#x153;" horiz-adv-x="1138" 
d="M819 544q54 0 97.5 -18t74.5 -50t48 -77.5t17 -99.5q0 -11 -1 -23.5t-3 -23.5h-472q-1 -8 -1 -13.5v-13.5q0 -36 13 -68t37 -56t58 -37.5t77 -13.5q110 0 183 86l51 -41q-42 -54 -102 -81t-134 -27q-81 0 -136 33.5t-91 103.5q-46 -66 -106.5 -101.5t-151.5 -35.5
q-59 0 -104.5 19t-77 52.5t-47.5 79t-16 97.5q0 62 22.5 118t62.5 98.5t95 67.5t119 25q79 0 139 -37t89 -106q50 72 116 107.5t144 35.5zM334 481q-49 0 -91.5 -17.5t-74 -50t-50 -77.5t-18.5 -100q0 -46 14 -80.5t38.5 -58t58.5 -35.5t74 -12q48 0 90 18.5t73.5 50.5
t49.5 76.5t18 96.5q0 44 -14 79t-38 59.5t-57.5 37.5t-72.5 13zM991 312q0 34 -12.5 64.5t-35 54t-54 37t-69.5 13.5q-42 0 -79.5 -13t-68 -36t-51.5 -53.5t-30 -66.5h400z" />
    <glyph glyph-name="Racute" unicode="&#x154;" horiz-adv-x="607" 
d="M522 924l-166 -151h-67l128 151h105zM333 718q44 0 80 -6t68 -29t49 -57.5t17 -77.5q0 -45 -19 -86.5t-51 -68.5q-34 -29 -79 -41t-104 -12l217 -340h-81l-216 341h-57l-47 -341h-72l98 718h197zM166 410h83q19 0 42 1t47 2q29 1 54 11.5t43 28.5t28.5 42.5t10.5 52.5
q0 54 -33.5 77.5t-102.5 23.5h-139z" />
    <glyph glyph-name="racute" unicode="&#x155;" horiz-adv-x="301" 
d="M361 781l-166 -151h-67l128 151h105zM124 465q28 38 65.5 59t79.5 21q21 0 35.5 -4.5t25.5 -9.5l-33 -62q-8 3 -18.5 6t-23.5 3q-26 0 -52 -13t-46 -37q-30 -36 -43.5 -86.5t-22.5 -116.5l-31 -225h-67l72 531h68z" />
    <glyph glyph-name="uni0156" unicode="&#x156;" horiz-adv-x="607" 
d="M333 718q44 0 80 -6t68 -29t49 -57.5t17 -77.5q0 -45 -19 -86.5t-51 -68.5q-34 -29 -79 -41t-104 -12l217 -340h-81l-216 341h-57l-47 -341h-72l98 718h197zM166 410h83q19 0 42 1t47 2q29 1 54 11.5t43 28.5t28.5 42.5t10.5 52.5q0 54 -33.5 77.5t-102.5 23.5h-139z
M199 -62q21 7 46 7q77 0 77 -53q0 -34 -30.5 -56t-81.5 -22q-16 0 -33.5 3t-37.5 8l11 35q31 -7 50 -7q64 0 64 32q0 21 -36 21q-14 0 -35 -7z" />
    <glyph glyph-name="uni0157" unicode="&#x157;" horiz-adv-x="301" 
d="M124 465q28 38 65.5 59t79.5 21q21 0 35.5 -4.5t25.5 -9.5l-33 -62q-8 3 -18.5 6t-23.5 3q-26 0 -52 -13t-46 -37q-30 -36 -43.5 -86.5t-22.5 -116.5l-31 -225h-67l72 531h68zM-21 -62q21 7 46 7q77 0 77 -53q0 -34 -30.5 -56t-81.5 -22q-16 0 -33.5 3t-37.5 8l11 35
q31 -7 50 -7q64 0 64 32q0 21 -36 21q-14 0 -35 -7z" />
    <glyph glyph-name="Rcaron" unicode="&#x158;" horiz-adv-x="607" 
d="M293 771l-124 125h88l76 -74l100 74h91l-163 -125h-68zM333 718q44 0 80 -6t68 -29t49 -57.5t17 -77.5q0 -45 -19 -86.5t-51 -68.5q-34 -29 -79 -41t-104 -12l217 -340h-81l-216 341h-57l-47 -341h-72l98 718h197zM166 410h83q19 0 42 1t47 2q29 1 54 11.5t43 28.5
t28.5 42.5t10.5 52.5q0 54 -33.5 77.5t-102.5 23.5h-139z" />
    <glyph glyph-name="rcaron" unicode="&#x159;" horiz-adv-x="301" 
d="M172 628l-124 125h88l76 -74l100 74h91l-163 -125h-68zM124 465q28 38 65.5 59t79.5 21q21 0 35.5 -4.5t25.5 -9.5l-33 -62q-8 3 -18.5 6t-23.5 3q-26 0 -52 -13t-46 -37q-30 -36 -43.5 -86.5t-22.5 -116.5l-31 -225h-67l72 531h68z" />
    <glyph glyph-name="Sacute" unicode="&#x15a;" horiz-adv-x="498" 
d="M467 924l-166 -151h-67l128 151h105zM74 177q16 -66 51 -96.5t80 -30.5q25 0 48.5 10t41.5 27.5t28.5 42t10.5 54.5q0 32 -10 57t-30.5 50.5t-51 55.5t-72.5 70q-26 26 -43.5 67t-17.5 83q0 39 13.5 70t36.5 53t53.5 34t64.5 12q60 0 106 -37t69 -113l-67 -18
q-14 45 -44.5 73t-68.5 28q-42 0 -66 -29t-24 -73q0 -29 14 -61t37 -53q43 -39 75.5 -72t54.5 -64.5t33 -63t11 -66.5q0 -40 -16 -77t-44.5 -65.5t-66 -45t-81.5 -16.5q-70 0 -120 43.5t-72 128.5z" />
    <glyph glyph-name="sacute" unicode="&#x15b;" horiz-adv-x="388" 
d="M392 781l-166 -151h-67l128 151h105zM24 122q60 -72 128 -72q18 0 35.5 7t31.5 19.5t22.5 29.5t8.5 37q0 22 -11 42.5t-31 34.5q-40 29 -71 50.5t-52 41.5t-31.5 41.5t-10.5 49.5q0 30 12.5 56t33.5 45t50 30t62 11q50 0 81 -20.5t57 -52.5l-37 -56q-22 31 -48 48.5
t-58 17.5q-19 0 -34.5 -7t-26.5 -18t-17.5 -24.5t-6.5 -26.5q0 -18 12 -36.5t34 -32.5q36 -24 65.5 -44t51 -42t33 -48.5t11.5 -61.5q0 -34 -13 -62.5t-35.5 -49t-53.5 -31.5t-67 -11q-48 0 -90.5 22.5t-75.5 64.5z" />
    <glyph glyph-name="Scircumflex" unicode="&#x15c;" horiz-adv-x="498" 
d="M358 896l124 -125h-89l-75 74l-100 -74h-91l163 125h68zM74 177q16 -66 51 -96.5t80 -30.5q25 0 48.5 10t41.5 27.5t28.5 42t10.5 54.5q0 32 -10 57t-30.5 50.5t-51 55.5t-72.5 70q-26 26 -43.5 67t-17.5 83q0 39 13.5 70t36.5 53t53.5 34t64.5 12q60 0 106 -37t69 -113
l-67 -18q-14 45 -44.5 73t-68.5 28q-42 0 -66 -29t-24 -73q0 -29 14 -61t37 -53q43 -39 75.5 -72t54.5 -64.5t33 -63t11 -66.5q0 -40 -16 -77t-44.5 -65.5t-66 -45t-81.5 -16.5q-70 0 -120 43.5t-72 128.5z" />
    <glyph glyph-name="scircumflex" unicode="&#x15d;" horiz-adv-x="388" 
d="M283 753l124 -125h-89l-75 74l-100 -74h-91l163 125h68zM24 122q60 -72 128 -72q18 0 35.5 7t31.5 19.5t22.5 29.5t8.5 37q0 22 -11 42.5t-31 34.5q-40 29 -71 50.5t-52 41.5t-31.5 41.5t-10.5 49.5q0 30 12.5 56t33.5 45t50 30t62 11q50 0 81 -20.5t57 -52.5l-37 -56
q-22 31 -48 48.5t-58 17.5q-19 0 -34.5 -7t-26.5 -18t-17.5 -24.5t-6.5 -26.5q0 -18 12 -36.5t34 -32.5q36 -24 65.5 -44t51 -42t33 -48.5t11.5 -61.5q0 -34 -13 -62.5t-35.5 -49t-53.5 -31.5t-67 -11q-48 0 -90.5 22.5t-75.5 64.5z" />
    <glyph glyph-name="uni015E" unicode="&#x15e;" horiz-adv-x="498" 
d="M178 -16q-62 7 -106.5 50t-64.5 121l67 22q16 -66 51 -96.5t80 -30.5q25 0 48.5 10t41.5 27.5t28.5 42t10.5 54.5q0 32 -10 57t-30.5 50.5t-51 55.5t-72.5 70q-26 26 -43.5 67t-17.5 83q0 39 13.5 70t36.5 53t53.5 34t64.5 12q60 0 106 -37t69 -113l-67 -18
q-14 45 -44.5 73t-68.5 28q-42 0 -66 -29t-24 -73q0 -29 14 -61t37 -53q43 -39 75.5 -72t54.5 -64.5t33 -63t11 -66.5q0 -38 -14.5 -72.5t-39.5 -62t-59 -46t-73 -22.5l-12 -42q5 1 9.5 1.5t9.5 0.5q49 0 49 -52q0 -11 -7.5 -24.5t-23 -25.5t-38.5 -20t-54 -8q-41 0 -79 15
l15 34q13 -5 28.5 -7.5t29.5 -2.5q37 0 53.5 10.5t16.5 21.5t-8 16t-20 5q-8 0 -17.5 -1.5t-16.5 -3.5z" />
    <glyph glyph-name="uni015F" unicode="&#x15f;" horiz-adv-x="388" 
d="M125 -11q-42 5 -77.5 26.5t-64.5 58.5l41 48q60 -72 128 -72q18 0 35.5 7t31.5 19.5t22.5 29.5t8.5 37q0 22 -11 42.5t-31 34.5q-40 29 -71 50.5t-52 41.5t-31.5 41.5t-10.5 49.5q0 30 12.5 56t33.5 45t50 30t62 11q50 0 81 -20.5t57 -52.5l-37 -56q-22 31 -48 48.5
t-58 17.5q-19 0 -34.5 -7t-26.5 -18t-17.5 -24.5t-6.5 -26.5q0 -18 12 -36.5t34 -32.5q36 -24 65.5 -44t51 -42t33 -48.5t11.5 -61.5q0 -32 -11.5 -59t-31.5 -47t-47.5 -32t-60.5 -15l-13 -46q5 1 9.5 1.5t9.5 0.5q49 0 49 -52q0 -11 -7.5 -24.5t-23 -25.5t-38.5 -20t-54 -8
q-41 0 -79 15l15 34q13 -5 28.5 -7.5t29.5 -2.5q37 0 53.5 10.5t16.5 21.5t-8 16t-20 5q-8 0 -17.5 -1.5t-16.5 -3.5z" />
    <glyph glyph-name="Scaron" unicode="&#x160;" horiz-adv-x="498" 
d="M278 771l-124 125h88l76 -74l100 74h91l-163 -125h-68zM74 177q16 -66 51 -96.5t80 -30.5q25 0 48.5 10t41.5 27.5t28.5 42t10.5 54.5q0 32 -10 57t-30.5 50.5t-51 55.5t-72.5 70q-26 26 -43.5 67t-17.5 83q0 39 13.5 70t36.5 53t53.5 34t64.5 12q60 0 106 -37t69 -113
l-67 -18q-14 45 -44.5 73t-68.5 28q-42 0 -66 -29t-24 -73q0 -29 14 -61t37 -53q43 -39 75.5 -72t54.5 -64.5t33 -63t11 -66.5q0 -40 -16 -77t-44.5 -65.5t-66 -45t-81.5 -16.5q-70 0 -120 43.5t-72 128.5z" />
    <glyph glyph-name="scaron" unicode="&#x161;" horiz-adv-x="388" 
d="M195 628l-124 125h88l76 -74l100 74h91l-163 -125h-68zM24 122q60 -72 128 -72q18 0 35.5 7t31.5 19.5t22.5 29.5t8.5 37q0 22 -11 42.5t-31 34.5q-40 29 -71 50.5t-52 41.5t-31.5 41.5t-10.5 49.5q0 30 12.5 56t33.5 45t50 30t62 11q50 0 81 -20.5t57 -52.5l-37 -56
q-22 31 -48 48.5t-58 17.5q-19 0 -34.5 -7t-26.5 -18t-17.5 -24.5t-6.5 -26.5q0 -18 12 -36.5t34 -32.5q36 -24 65.5 -44t51 -42t33 -48.5t11.5 -61.5q0 -34 -13 -62.5t-35.5 -49t-53.5 -31.5t-67 -11q-48 0 -90.5 22.5t-75.5 64.5z" />
    <glyph glyph-name="uni0162" unicode="&#x162;" horiz-adv-x="426" 
d="M465 718l-9 -69h-183l-86 -649h-72l86 649h-174l9 69h429zM98 -62q21 7 46 7q77 0 77 -53q0 -34 -30.5 -56t-81.5 -22q-16 0 -33.5 3t-37.5 8l11 35q31 -7 50 -7q64 0 64 32q0 21 -36 21q-14 0 -35 -7z" />
    <glyph glyph-name="uni0163" unicode="&#x163;" horiz-adv-x="339" 
d="M244 730l-26 -199h105l-7 -60h-106l-64 -471h-69l65 471h-92l8 60h91l28 199h67zM57 -62q21 7 46 7q77 0 77 -53q0 -34 -30.5 -56t-81.5 -22q-16 0 -33.5 3t-37.5 8l11 35q31 -7 50 -7q64 0 64 32q0 21 -36 21q-14 0 -35 -7z" />
    <glyph glyph-name="Tcaron" unicode="&#x164;" horiz-adv-x="426" 
d="M233 771l-124 125h88l76 -74l100 74h91l-163 -125h-68zM465 718l-9 -69h-183l-86 -649h-72l86 649h-174l9 69h429z" />
    <glyph glyph-name="tcaron" unicode="&#x165;" horiz-adv-x="339" 
d="M272 581q37 44 41 75h-33l14 80h66l-5 -35q-3 -24 -6.5 -41.5t-9.5 -32.5t-15.5 -29t-24.5 -30zM244 730l-26 -199h105l-8 -59h-105l-64 -472h-69l64 472h-91l8 59h91l28 199h67z" />
    <glyph glyph-name="Tbar" unicode="&#x166;" horiz-adv-x="426" 
d="M19 312l9 67h137l36 271h-175l10 68h429l-9 -68h-184l-36 -271h139l-9 -67h-138l-42 -312h-71l41 312h-137z" />
    <glyph glyph-name="tbar" unicode="&#x167;" horiz-adv-x="339" 
d="M307 296l-8 -56h-121l-32 -240h-69l33 240h-105l7 56h105l24 176h-91l8 59h91l28 199h67l-26 -199h105l-8 -59h-105l-24 -176h121z" />
    <glyph glyph-name="Utilde" unicode="&#x168;" 
d="M237 787q6 42 20.5 66t34 33t41.5 3.5t43 -23.5q16 -14 28.5 -22.5t22 -8t16 12.5t10.5 39h52q-6 -42 -20.5 -66.5t-33.5 -33.5t-41 -3.5t-43 23.5q-16 14 -29 22.5t-22.5 8t-16 -12t-10.5 -38.5h-52zM184 718l-54 -411q-3 -23 -6.5 -52t-3.5 -62q0 -72 38 -107.5
t109 -35.5q43 0 79.5 13.5t61.5 39.5q38 38 54.5 104.5t28.5 163.5l44 347h71l-48 -362q-5 -38 -10.5 -84t-21.5 -97q-30 -99 -92 -145.5t-166 -46.5q-106 0 -163.5 52.5t-57.5 145.5q0 37 5 71.5t9 65.5l52 400h71z" />
    <glyph glyph-name="utilde" unicode="&#x169;" horiz-adv-x="608" 
d="M225 601q6 42 20.5 66t34 33t41.5 3.5t43 -23.5q16 -14 28.5 -22.5t22 -8t16 12.5t10.5 39h52q-6 -42 -20.5 -66.5t-33.5 -33.5t-41 -3.5t-43 23.5q-16 14 -29 22.5t-22.5 8t-16 -12t-10.5 -38.5h-52zM160 531l-30 -222q-5 -34 -9 -64.5t-4 -56.5q0 -31 11 -56.5
t31 -43.5t47 -28t59 -10q40 0 75 16.5t57 45.5q25 32 32 71t13 83l38 265h66l-27 -201q-12 -89 -26 -152.5t-41 -101.5q-30 -42 -80 -65.5t-110 -23.5q-46 0 -85 15t-66.5 41t-43 62.5t-15.5 79.5q0 17 3 54.5t10 89.5l27 202h68z" />
    <glyph glyph-name="Umacron" unicode="&#x16a;" 
d="M565 866l-8 -60h-337l8 60h337zM184 718l-54 -411q-3 -23 -6.5 -52t-3.5 -62q0 -72 38 -107.5t109 -35.5q43 0 79.5 13.5t61.5 39.5q38 38 54.5 104.5t28.5 163.5l44 347h71l-48 -362q-5 -38 -10.5 -84t-21.5 -97q-30 -99 -92 -145.5t-166 -46.5q-106 0 -163.5 52.5
t-57.5 145.5q0 37 5 71.5t9 65.5l52 400h71z" />
    <glyph glyph-name="umacron" unicode="&#x16b;" horiz-adv-x="608" 
d="M521 723l-8 -60h-337l8 60h337zM160 531l-30 -222q-5 -34 -9 -64.5t-4 -56.5q0 -31 11 -56.5t31 -43.5t47 -28t59 -10q40 0 75 16.5t57 45.5q25 32 32 71t13 83l38 265h66l-27 -201q-12 -89 -26 -152.5t-41 -101.5q-30 -42 -80 -65.5t-110 -23.5q-46 0 -85 15t-66.5 41
t-43 62.5t-15.5 79.5q0 17 3 54.5t10 89.5l27 202h68z" />
    <glyph glyph-name="Ubreve" unicode="&#x16c;" 
d="M573 888q-17 -44 -64 -73.5t-121 -29.5q-72 0 -113.5 28t-47.5 75h64q26 -51 104 -51q39 0 65 11t51 40h62zM184 718l-54 -411q-3 -23 -6.5 -52t-3.5 -62q0 -72 38 -107.5t109 -35.5q43 0 79.5 13.5t61.5 39.5q38 38 54.5 104.5t28.5 163.5l44 347h71l-48 -362
q-5 -38 -10.5 -84t-21.5 -97q-30 -99 -92 -145.5t-166 -46.5q-106 0 -163.5 52.5t-57.5 145.5q0 37 5 71.5t9 65.5l52 400h71z" />
    <glyph glyph-name="ubreve" unicode="&#x16d;" horiz-adv-x="608" 
d="M529 745q-17 -44 -64 -73.5t-121 -29.5q-72 0 -113.5 28t-47.5 75h64q26 -51 104 -51q39 0 65 11t51 40h62zM160 531l-30 -222q-5 -34 -9 -64.5t-4 -56.5q0 -31 11 -56.5t31 -43.5t47 -28t59 -10q40 0 75 16.5t57 45.5q25 32 32 71t13 83l38 265h66l-27 -201
q-12 -89 -26 -152.5t-41 -101.5q-30 -42 -80 -65.5t-110 -23.5q-46 0 -85 15t-66.5 41t-43 62.5t-15.5 79.5q0 17 3 54.5t10 89.5l27 202h68z" />
    <glyph glyph-name="Uring" unicode="&#x16e;" 
d="M395 958q42 0 71.5 -29t29.5 -72q0 -21 -8 -39.5t-21.5 -32.5t-32 -22t-39.5 -8t-39.5 8t-32.5 22t-22 32.5t-8 39.5q0 42 29.5 71.5t72.5 29.5zM395 916q-26 1 -42.5 -16.5t-16.5 -42.5q0 -26 18 -42.5t41 -16.5q25 0 42 17.5t17 41.5q1 25 -17 42t-42 17zM184 718
l-54 -411q-3 -23 -6.5 -52t-3.5 -62q0 -72 38 -107.5t109 -35.5q43 0 79.5 13.5t61.5 39.5q38 38 54.5 104.5t28.5 163.5l44 347h71l-48 -362q-5 -38 -10.5 -84t-21.5 -97q-30 -99 -92 -145.5t-166 -46.5q-106 0 -163.5 52.5t-57.5 145.5q0 37 5 71.5t9 65.5l52 400h71z" />
    <glyph glyph-name="uring" unicode="&#x16f;" horiz-adv-x="608" 
d="M352 815q42 0 71.5 -29t29.5 -72q0 -21 -8 -39.5t-21.5 -32.5t-32 -22t-39.5 -8t-39.5 8t-32.5 22t-22 32.5t-8 39.5q0 42 29.5 71.5t72.5 29.5zM352 773q-26 1 -42.5 -16.5t-16.5 -42.5q0 -26 18 -42.5t41 -16.5q25 0 42 17.5t17 41.5q1 25 -17 42t-42 17zM160 531
l-30 -222q-5 -34 -9 -64.5t-4 -56.5q0 -31 11 -56.5t31 -43.5t47 -28t59 -10q40 0 75 16.5t57 45.5q25 32 32 71t13 83l38 265h66l-27 -201q-12 -89 -26 -152.5t-41 -101.5q-30 -42 -80 -65.5t-110 -23.5q-46 0 -85 15t-66.5 41t-43 62.5t-15.5 79.5q0 17 3 54.5t10 89.5
l27 202h68z" />
    <glyph glyph-name="Uhungarumlaut" unicode="&#x170;" 
d="M469 924l-166 -151h-67l128 151h105zM623 924l-165 -151h-68l128 151h105zM184 718l-54 -411q-3 -23 -6.5 -52t-3.5 -62q0 -72 38 -107.5t109 -35.5q43 0 79.5 13.5t61.5 39.5q38 38 54.5 104.5t28.5 163.5l44 347h71l-48 -362q-5 -38 -10.5 -84t-21.5 -97
q-30 -99 -92 -145.5t-166 -46.5q-106 0 -163.5 52.5t-57.5 145.5q0 37 5 71.5t9 65.5l52 400h71z" />
    <glyph glyph-name="uhungarumlaut" unicode="&#x171;" horiz-adv-x="608" 
d="M425 781l-166 -151h-67l128 151h105zM579 781l-165 -151h-68l128 151h105zM160 531l-30 -222q-5 -34 -9 -64.5t-4 -56.5q0 -31 11 -56.5t31 -43.5t47 -28t59 -10q40 0 75 16.5t57 45.5q25 32 32 71t13 83l38 265h66l-27 -201q-12 -89 -26 -152.5t-41 -101.5
q-30 -42 -80 -65.5t-110 -23.5q-46 0 -85 15t-66.5 41t-43 62.5t-15.5 79.5q0 17 3 54.5t10 89.5l27 202h68z" />
    <glyph glyph-name="Uogonek" unicode="&#x172;" 
d="M338 -187q-11 -2 -21.5 -3t-20.5 -1q-52 0 -75.5 20t-23.5 67q0 17 13.5 42t37.5 46q-97 5 -149 57t-52 140q0 37 5 71.5t9 65.5l52 400h71l-54 -411q-3 -23 -6.5 -52t-3.5 -62q0 -72 38 -107.5t109 -35.5q43 0 79.5 13.5t61.5 39.5q38 38 54.5 104.5t28.5 163.5l44 347
h71l-48 -362q-5 -38 -10.5 -84t-21.5 -97q-28 -91 -81.5 -136.5t-141.5 -53.5q-51 -45 -51 -78q0 -29 14 -42t48 -13q8 0 18 1t17 2z" />
    <glyph glyph-name="uogonek" unicode="&#x173;" horiz-adv-x="608" 
d="M351 -187q-11 -2 -21.5 -3t-20.5 -1q-52 0 -75.5 20t-23.5 67q0 18 14.5 44t40.5 47h-3q-46 0 -85 15t-66.5 41t-43 62.5t-15.5 79.5q0 17 3 54.5t10 89.5l27 202h68l-30 -222q-5 -34 -9 -64.5t-4 -56.5q0 -31 11 -56.5t31 -43.5t47 -28t59 -10q40 0 75 16.5t57 45.5
q25 32 32 71t13 83l38 265h66l-27 -201q-12 -89 -26 -152.5t-41 -101.5q-43 -60 -122 -80q-65 -51 -65 -89q0 -29 14 -42t48 -13q8 0 18 1t17 2z" />
    <glyph glyph-name="Wcircumflex" unicode="&#x174;" horiz-adv-x="960" 
d="M562 896l124 -125h-89l-75 74l-100 -74h-91l163 125h68zM131 718l99 -533l278 533h14l126 -533l253 533h76l-343 -718h-13l-127 541l-285 -541h-14l-134 718h70z" />
    <glyph glyph-name="wcircumflex" unicode="&#x175;" horiz-adv-x="831" 
d="M464 753l124 -125h-89l-75 74l-100 -74h-91l163 125h68zM102 531l109 -375l200 375h12l121 -378l195 378h74l-275 -531h-14l-123 375l-199 -375h-13l-155 531h68z" />
    <glyph glyph-name="Ycircumflex" unicode="&#x176;" horiz-adv-x="592" 
d="M405 896l124 -125h-89l-75 74l-100 -74h-91l163 125h68zM116 718l154 -326l259 326h87l-318 -400l-44 -318h-70l44 322l-187 396h75z" />
    <glyph glyph-name="ycircumflex" unicode="&#x177;" horiz-adv-x="536" 
d="M357 753l124 -125h-89l-75 74l-100 -74h-91l163 125h68zM94 531l137 -392l228 392h75l-420 -725h-77l150 259l-164 466h71z" />
    <glyph glyph-name="Ydieresis" unicode="&#x178;" horiz-adv-x="592" 
d="M277 884q23 0 36 -14t13 -43q0 -9 -5 -18.5t-13.5 -18t-20 -14t-25.5 -5.5q-22 0 -35.5 13.5t-13.5 42.5q0 9 5 19t14 18.5t20.5 14t24.5 5.5zM477 884q23 0 35.5 -14t12.5 -43q0 -8 -5 -18t-13.5 -18.5t-20 -14t-25.5 -5.5q-23 0 -36 13.5t-13 42.5q0 8 5 18t14 18.5
t21 14.5t25 6zM116 718l154 -326l259 326h87l-318 -400l-44 -318h-70l44 322l-187 396h75z" />
    <glyph glyph-name="Zacute" unicode="&#x179;" horiz-adv-x="480" 
d="M458 924l-166 -151h-67l128 151h105zM476 718l-353 -649h269l-9 -69h-376l354 649h-264l10 69h369z" />
    <glyph glyph-name="zacute" unicode="&#x17a;" horiz-adv-x="425" 
d="M411 781l-166 -151h-67l128 151h105zM410 531l-317 -471h288l-8 -60h-401l319 471h-254l8 60h365z" />
    <glyph glyph-name="Zdotaccent" unicode="&#x17b;" horiz-adv-x="480" 
d="M311 884q23 0 36 -14t13 -43q0 -9 -5 -18.5t-13.5 -18t-20 -14t-25.5 -5.5q-22 0 -35.5 13.5t-13.5 42.5q0 9 5 19t14 18.5t20.5 14t24.5 5.5zM476 718l-353 -649h269l-9 -69h-376l354 649h-264l10 69h369z" />
    <glyph glyph-name="zdotaccent" unicode="&#x17c;" horiz-adv-x="425" 
d="M263 741q23 0 36 -14t13 -43q0 -9 -5 -18.5t-13.5 -18t-20 -14t-25.5 -5.5q-22 0 -35.5 13.5t-13.5 42.5q0 9 5 19t14 18.5t20.5 14t24.5 5.5zM410 531l-317 -471h288l-8 -60h-401l319 471h-254l8 60h365z" />
    <glyph glyph-name="Zcaron" unicode="&#x17d;" horiz-adv-x="480" 
d="M269 771l-124 125h88l76 -74l100 74h91l-163 -125h-68zM476 718l-353 -649h269l-9 -69h-376l354 649h-264l10 69h369z" />
    <glyph glyph-name="zcaron" unicode="&#x17e;" horiz-adv-x="425" 
d="M213 628l-124 125h88l76 -74l100 74h91l-163 -125h-68zM410 531l-317 -471h288l-8 -60h-401l319 471h-254l8 60h365z" />
    <glyph glyph-name="florin" unicode="&#x192;" horiz-adv-x="554" 
d="M404 431l-8 -60h-113l-53 -347q-17 -115 -54 -173.5t-102 -58.5q-23 0 -39.5 7.5t-30.5 16.5l9 60q11 -8 23 -14.5t31 -6.5q42 0 64.5 43.5t36.5 136.5l49 336h-69l8 60h69l24 156q7 42 14.5 75t31.5 58q14 14 31 22.5t36 8.5q23 0 44 -9.5t42 -23.5l-9 -65
q-17 17 -34.5 26t-32.5 9q-16 0 -26 -8.5t-16.5 -24t-10.5 -36.5t-7 -45l-20 -143h112z" />
    <glyph glyph-name="Ohorn" unicode="&#x1a0;" horiz-adv-x="869" 
d="M657 682q67 -43 107.5 -115t40.5 -167q0 -88 -32 -164t-89 -132.5t-135.5 -89t-171.5 -32.5q-79 0 -143 25t-108 69.5t-68 106t-24 135.5q0 89 32 165t89.5 132.5t137 88.5t173.5 32q60 0 114 -18q44 2 61.5 25.5t24.5 65.5h64q-8 -46 -25.5 -78t-47.5 -49zM376 49
q76 0 141 27.5t113 75.5t75 112.5t27 139.5q0 60 -21 109t-57 83.5t-84.5 53.5t-104.5 19q-81 0 -147 -28t-113 -76t-72.5 -111.5t-25.5 -133.5q0 -60 18.5 -109.5t53.5 -85.5t84.5 -56t112.5 -20z" />
    <glyph glyph-name="ohorn" unicode="&#x1a1;" 
d="M487 492q42 -34 66 -85t24 -116q0 -63 -22 -118t-62 -96.5t-96.5 -65.5t-124.5 -24q-55 0 -100 18.5t-77.5 51.5t-50 78.5t-17.5 99.5q0 65 23.5 121.5t65 98.5t97 66t119.5 24q44 0 84 -14q44 2 61.5 25.5t24.5 65.5h64q-9 -48 -27.5 -80.5t-51.5 -49.5zM281 50
q51 0 93 19.5t72 52.5t46.5 77t16.5 93q0 43 -13.5 78t-37.5 60t-57 38.5t-71 13.5q-49 0 -92 -18t-74.5 -50.5t-50 -77t-18.5 -97.5q0 -41 13.5 -76t37.5 -60t58.5 -39t76.5 -14z" />
    <glyph glyph-name="Uhorn" unicode="&#x1af;" 
d="M707 809q-11 -58 -35.5 -93t-72.5 -48l-41 -312q-5 -38 -10.5 -84t-21.5 -97q-30 -99 -92 -145.5t-166 -46.5q-106 0 -163.5 52.5t-57.5 145.5q0 37 5 71.5t9 65.5l52 400h71l-54 -411q-3 -23 -6.5 -52t-3.5 -62q0 -72 38 -107.5t109 -35.5q43 0 79.5 13.5t61.5 39.5
q38 38 54.5 104.5t28.5 163.5l44 347h14q48 0 67.5 23t26.5 68h64z" />
    <glyph glyph-name="uhorn" unicode="&#x1b0;" horiz-adv-x="608" 
d="M647 622q-11 -58 -35.5 -93t-72.5 -48l-20 -151q-12 -89 -26 -152.5t-41 -101.5q-30 -42 -80 -65.5t-110 -23.5q-46 0 -85 15t-66.5 41t-43 62.5t-15.5 79.5q0 17 3 54.5t10 89.5l27 202h68l-30 -222q-5 -34 -9 -64.5t-4 -56.5q0 -31 11 -56.5t31 -43.5t47 -28t59 -10
q40 0 75 16.5t57 45.5q25 32 32 71t13 83l38 265h9q48 0 67.5 23t26.5 68h64z" />
    <glyph glyph-name="AEacute" unicode="&#x1fc;" horiz-adv-x="992" 
d="M833 924l-166 -151h-67l128 151h105zM445 0l32 234h-247l-168 -234h-78l517 718h437l-10 -69h-323l-32 -236h323l-9 -69h-323l-37 -275h332l-8 -69h-406zM280 303h206l47 353z" />
    <glyph glyph-name="aeacute" unicode="&#x1fd;" horiz-adv-x="1157" 
d="M777 781l-166 -151h-67l128 151h105zM500 83q-49 -49 -102 -72.5t-121 -23.5q-58 0 -104 19.5t-78.5 54t-49.5 80.5t-17 100q0 63 24 118t65.5 96.5t97 65.5t118.5 24q74 0 123.5 -29t89.5 -91l15 106h61l-11 -87q89 101 222 101q53 0 98 -17.5t78 -49.5t52 -77.5
t19 -101.5q0 -12 -1 -24.5t-3 -23.5h-481q-1 -6 -1 -10v-11q0 -37 13.5 -70t38.5 -57.5t60.5 -38.5t80.5 -14q110 0 183 84l52 -38q-88 -109 -242 -109q-75 0 -127 26.5t-89 84.5l-13 -98h-61zM333 482q-53 0 -96.5 -19.5t-75 -53t-48.5 -78t-17 -93.5q0 -43 14 -77.5
t39.5 -59t61 -38t78.5 -13.5q53 0 97.5 19.5t76.5 52.5t49.5 76t17.5 89q0 39 -13.5 74.5t-39 62.5t-62 42.5t-82.5 15.5zM1016 311q-1 37 -14 68.5t-37 54t-57 35.5t-75 13q-82 0 -141.5 -45.5t-83.5 -125.5h408z" />
    <glyph glyph-name="Oslashacute" unicode="&#x1fe;" horiz-adv-x="868" 
d="M652 924l-166 -151h-67l128 151h105zM713 635q92 -93 92 -235q0 -88 -32 -164t-89 -132.5t-135.5 -89t-171.5 -32.5q-56 0 -104 11.5t-90 37.5l-64 -74l-48 43l62 71q-48 46 -73.5 109t-25.5 138q0 89 32 165t89.5 132.5t137 88.5t173.5 32q111 0 197 -58l59 67l50 -42z
M618 625q-31 20 -71 32t-82 12q-81 0 -147 -28t-113 -76t-72.5 -111.5t-25.5 -133.5q0 -58 18.5 -108.5t53.5 -87.5zM231 85q65 -36 145 -36q76 0 141 27.5t113 75.5t75 112.5t27 139.5q0 107 -65 179z" />
    <glyph glyph-name="oslashacute" unicode="&#x1ff;" horiz-adv-x="653" 
d="M525 781l-166 -151h-67l128 151h105zM522 455q54 -73 54 -164q0 -63 -22 -118t-62.5 -96.5t-96 -65.5t-123.5 -24q-75 0 -129 32l-63 -73l-50 42l62 71q-66 72 -66 176q0 66 24 123t65.5 98.5t96 65t115.5 23.5q42 0 81 -12t68 -33l59 68l50 -41zM432 450q-22 14 -50 23
t-57 9q-46 0 -88 -18t-73.5 -50t-50.5 -76.5t-19 -98.5q0 -76 43 -128zM188 71q22 -11 44.5 -16t47.5 -5q51 0 93 19.5t72 52.5t46.5 77t16.5 93q0 31 -7 58.5t-23 53.5z" />
    <glyph glyph-name="uni0218" unicode="&#x218;" horiz-adv-x="498" 
d="M74 177q16 -66 51 -96.5t80 -30.5q25 0 48.5 10t41.5 27.5t28.5 42t10.5 54.5q0 32 -10 57t-30.5 50.5t-51 55.5t-72.5 70q-26 26 -43.5 67t-17.5 83q0 39 13.5 70t36.5 53t53.5 34t64.5 12q60 0 106 -37t69 -113l-67 -18q-14 45 -44.5 73t-68.5 28q-42 0 -66 -29
t-24 -73q0 -29 14 -61t37 -53q43 -39 75.5 -72t54.5 -64.5t33 -63t11 -66.5q0 -40 -16 -77t-44.5 -65.5t-66 -45t-81.5 -16.5q-70 0 -120 43.5t-72 128.5zM98 -62q21 7 46 7q77 0 77 -53q0 -34 -30.5 -56t-81.5 -22q-16 0 -33.5 3t-37.5 8l11 35q31 -7 50 -7q64 0 64 32
q0 21 -36 21q-14 0 -35 -7z" />
    <glyph glyph-name="uni0219" unicode="&#x219;" horiz-adv-x="388" 
d="M24 122q60 -72 128 -72q18 0 35.5 7t31.5 19.5t22.5 29.5t8.5 37q0 22 -11 42.5t-31 34.5q-40 29 -71 50.5t-52 41.5t-31.5 41.5t-10.5 49.5q0 30 12.5 56t33.5 45t50 30t62 11q50 0 81 -20.5t57 -52.5l-37 -56q-22 31 -48 48.5t-58 17.5q-19 0 -34.5 -7t-26.5 -18
t-17.5 -24.5t-6.5 -26.5q0 -18 12 -36.5t34 -32.5q36 -24 65.5 -44t51 -42t33 -48.5t11.5 -61.5q0 -34 -13 -62.5t-35.5 -49t-53.5 -31.5t-67 -11q-48 0 -90.5 22.5t-75.5 64.5zM93 -62q21 7 46 7q77 0 77 -53q0 -34 -30.5 -56t-81.5 -22q-16 0 -33.5 3t-37.5 8l11 35
q31 -7 50 -7q64 0 64 32q0 21 -36 21q-14 0 -35 -7z" />
    <glyph glyph-name="uni021A" unicode="&#x21a;" horiz-adv-x="426" 
d="M465 718l-9 -69h-183l-86 -649h-72l86 649h-174l9 69h429zM98 -62q21 7 46 7q77 0 77 -53q0 -34 -30.5 -56t-81.5 -22q-16 0 -33.5 3t-37.5 8l11 35q31 -7 50 -7q64 0 64 32q0 21 -36 21q-14 0 -35 -7z" />
    <glyph glyph-name="uni021B" unicode="&#x21b;" horiz-adv-x="339" 
d="M244 730l-26 -199h105l-7 -60h-106l-64 -471h-69l65 471h-92l8 60h91l28 199h67zM57 -62q21 7 46 7q77 0 77 -53q0 -34 -30.5 -56t-81.5 -22q-16 0 -33.5 3t-37.5 8l11 35q31 -7 50 -7q64 0 64 32q0 21 -36 21q-14 0 -35 -7z" />
    <glyph glyph-name="circumflex" unicode="&#x2c6;" horiz-adv-x="502" 
d="M340 753l124 -125h-89l-75 74l-100 -74h-91l163 125h68z" />
    <glyph glyph-name="caron" unicode="&#x2c7;" horiz-adv-x="502" 
d="M251 628l-124 125h88l76 -74l100 74h91l-163 -125h-68z" />
    <glyph glyph-name="uni02C9" unicode="&#x2c9;" horiz-adv-x="485" 
d="M459 723l-8 -60h-337l8 60h337z" />
    <glyph glyph-name="breve" unicode="&#x2d8;" horiz-adv-x="453" 
d="M451 745q-17 -44 -64 -73.5t-121 -29.5q-72 0 -113.5 28t-47.5 75h64q26 -51 104 -51q39 0 65 11t51 40h62z" />
    <glyph glyph-name="dotaccent" unicode="&#x2d9;" horiz-adv-x="222" 
d="M162 741q23 0 36 -14t13 -43q0 -9 -5 -18.5t-13.5 -18t-20 -14t-25.5 -5.5q-22 0 -35.5 13.5t-13.5 42.5q0 9 5 19t14 18.5t20.5 14t24.5 5.5z" />
    <glyph glyph-name="ring" unicode="&#x2da;" horiz-adv-x="332" 
d="M182 815q42 0 71.5 -29t29.5 -72q0 -21 -8 -39.5t-21.5 -32.5t-32 -22t-39.5 -8t-39.5 8t-32.5 22t-22 32.5t-8 39.5q0 42 29.5 71.5t72.5 29.5zM182 773q-26 1 -42.5 -16.5t-16.5 -42.5q0 -26 18 -42.5t41 -16.5q25 0 42 17.5t17 41.5q1 25 -17 42t-42 17z" />
    <glyph glyph-name="ogonek" unicode="&#x2db;" horiz-adv-x="302" 
d="M219 -187q-11 -2 -21.5 -3t-20.5 -1q-52 0 -75.5 20t-23.5 67q0 21 19.5 52t53.5 52h53q-71 -54 -71 -93q0 -29 14 -42t48 -13q8 0 18 1t17 2z" />
    <glyph glyph-name="tilde" unicode="&#x2dc;" horiz-adv-x="439" 
d="M330 702q21 0 40 8t38 18l27 -47q-28 -18 -54.5 -30t-61.5 -12q-24 0 -41 6t-32 13.5t-29 13.5t-31 6q-23 0 -42.5 -10t-39.5 -24l-25 50q52 47 116 47q21 0 38.5 -6t33 -13.5t31 -13.5t32.5 -6z" />
    <glyph glyph-name="hungarumlaut" unicode="&#x2dd;" horiz-adv-x="552" 
d="M394 781l-166 -151h-67l128 151h105zM548 781l-165 -151h-68l128 151h105z" />
    <glyph glyph-name="gravecomb" unicode="&#x300;" horiz-adv-x="0" 
d="M-229 728h73l56 -118h-58z" />
    <glyph glyph-name="acutecomb" unicode="&#x301;" horiz-adv-x="0" 
d="M-83 728l-105 -118h-58l90 118h73z" />
    <glyph glyph-name="uni0302" unicode="&#x302;" horiz-adv-x="0" 
d="M-296 610h-68l114 118h70l80 -118h-68l-53 79z" />
    <glyph glyph-name="tildecomb" unicode="&#x303;" horiz-adv-x="0" 
d="M-353 620q6 42 20.5 66t34 33t41.5 3.5t43 -23.5q16 -14 28.5 -22.5t22 -8t16 12.5t10.5 39h52q-6 -42 -20.5 -66.5t-33.5 -33.5t-41 -3.5t-43 23.5q-16 14 -29 22.5t-22.5 8t-16 -12t-10.5 -38.5h-52z" />
    <glyph glyph-name="uni0306" unicode="&#x306;" horiz-adv-x="0" 
d="M-227 602q-57 0 -87.5 30.5t-22.5 87.5h58q-5 -35 10 -50t49 -15t54 15t25 50h58q-8 -57 -46.5 -87.5t-97.5 -30.5z" />
    <glyph glyph-name="hookabovecomb" unicode="&#x309;" horiz-adv-x="0" 
d="M-85 688q-2 -17 -9 -29t-29 -29q-7 -5 -15 -15t-10 -20l-2 -12h-47q2 26 14.5 43t34.5 35q7 5 10.5 13t4.5 14q1 8 -4.5 15.5t-18.5 7.5q-30 0 -36 -42h-46q5 37 28.5 62.5t60.5 25.5q30 0 49.5 -19.5t14.5 -49.5z" />
    <glyph glyph-name="uni031B" unicode="&#x31b;" horiz-adv-x="0" 
d="M-257 531q48 0 67.5 23t26.5 68h64q-14 -74 -51.5 -111t-116.5 -37z" />
    <glyph glyph-name="dotbelowcomb" unicode="&#x323;" horiz-adv-x="0" 
d="M-60 -70q23 0 36 -14t13 -43q0 -9 -5 -18.5t-13.5 -18t-20.5 -14t-25 -5.5q-22 0 -35.5 13.5t-13.5 42.5q0 9 5 19t14 18.5t20.5 14t24.5 5.5z" />
    <glyph glyph-name="uni03A9" unicode="&#x3a9;" horiz-adv-x="712" 
d="M436 57q23 20 50.5 48t50.5 67t38.5 89.5t15.5 115.5q0 59 -15 109t-44.5 87.5t-72.5 58.5t-100 21q-53 0 -97 -20.5t-75.5 -57t-48.5 -87.5t-17 -111q0 -63 15 -113t37.5 -89t50.5 -68t53 -50v-57h-225v57h156q-24 19 -52 48t-51 69.5t-38.5 92.5t-15.5 118
q0 70 22.5 130t63 103.5t97.5 68.5t125 25q72 0 128 -24t95 -67t59 -102.5t20 -131.5q0 -60 -14.5 -110.5t-37 -92t-51 -73.5t-55.5 -54h158v-57h-225v57z" />
    <glyph glyph-name="uni03BC" unicode="&#x3bc;" horiz-adv-x="608" 
d="M402 58q-33 -35 -71 -52.5t-86 -17.5q-92 0 -139 68l-34 -250h-68l100 725h68l-39 -280q-2 -16 -4 -33t-2 -28q0 -62 38 -95t92 -33q52 0 95.5 31.5t60.5 82.5q6 17 9.5 38.5t6.5 44.5l38 272h69l-73 -531h-69z" />
    <glyph glyph-name="pi" unicode="&#x3c0;" 
d="M611 6q-23 -13 -61 -13q-61 0 -88.5 37t-27.5 92v324h-199v-314q0 -82 -14 -132h-68q8 29 11.5 64.5t3.5 70.5v311q-23 0 -53 -6.5t-51 -16.5q-5 13 -10 25t-10 25q20 10 56 18.5t84 8.5h426v-54h-108v-318q0 -37 14.5 -59t49.5 -22q14 0 31 7z" />
    <glyph glyph-name="Wgrave" unicode="&#x1e80;" horiz-adv-x="960" 
d="M607 773h-67l-123 151h105zM131 718l99 -533l278 533h14l126 -533l253 533h76l-343 -718h-13l-127 541l-285 -541h-14l-134 718h70z" />
    <glyph glyph-name="wgrave" unicode="&#x1e81;" horiz-adv-x="831" 
d="M522 630h-67l-123 151h105zM102 531l109 -375l200 375h12l121 -378l195 378h74l-275 -531h-14l-123 375l-199 -375h-13l-155 531h68z" />
    <glyph glyph-name="Wacute" unicode="&#x1e82;" horiz-adv-x="960" 
d="M698 924l-166 -151h-67l128 151h105zM131 718l99 -533l278 533h14l126 -533l253 533h76l-343 -718h-13l-127 541l-285 -541h-14l-134 718h70z" />
    <glyph glyph-name="wacute" unicode="&#x1e83;" horiz-adv-x="831" 
d="M614 781l-166 -151h-67l128 151h105zM102 531l109 -375l200 375h12l121 -378l195 378h74l-275 -531h-14l-123 375l-199 -375h-13l-155 531h68z" />
    <glyph glyph-name="Wdieresis" unicode="&#x1e84;" horiz-adv-x="960" 
d="M451 884q23 0 36 -14t13 -43q0 -9 -5 -18.5t-13.5 -18t-20 -14t-25.5 -5.5q-22 0 -35.5 13.5t-13.5 42.5q0 9 5 19t14 18.5t20.5 14t24.5 5.5zM651 884q23 0 35.5 -14t12.5 -43q0 -8 -5 -18t-13.5 -18.5t-20 -14t-25.5 -5.5q-23 0 -36 13.5t-13 42.5q0 8 5 18t14 18.5
t21 14.5t25 6zM131 718l99 -533l278 533h14l126 -533l253 533h76l-343 -718h-13l-127 541l-285 -541h-14l-134 718h70z" />
    <glyph glyph-name="wdieresis" unicode="&#x1e85;" horiz-adv-x="831" 
d="M367 741q23 0 36 -14t13 -43q0 -9 -5 -18.5t-13.5 -18t-20 -14t-25.5 -5.5q-22 0 -35.5 13.5t-13.5 42.5q0 9 5 19t14 18.5t20.5 14t24.5 5.5zM567 741q23 0 35.5 -14t12.5 -43q0 -8 -5 -18t-13.5 -18.5t-20 -14t-25.5 -5.5q-23 0 -36 13.5t-13 42.5q0 8 5 18t14 18.5
t21 14.5t25 6zM102 531l109 -375l200 375h12l121 -378l195 378h74l-275 -531h-14l-123 375l-199 -375h-13l-155 531h68z" />
    <glyph glyph-name="uni1EA0" unicode="&#x1ea0;" horiz-adv-x="740" 
d="M657 0h-74l-78 235h-304l-135 -235h-80l413 718h17zM240 304h242l-89 264zM329 -70q23 0 36 -14t13 -43q0 -9 -5 -18.5t-13.5 -18t-20 -14t-25.5 -5.5q-22 0 -35.5 13.5t-13.5 42.5q0 9 5 19t14 18.5t20.5 14t24.5 5.5z" />
    <glyph glyph-name="uni1EA1" unicode="&#x1ea1;" horiz-adv-x="683" 
d="M618 531l-71 -531h-69l10 80q-92 -94 -211 -94q-54 0 -99.5 18.5t-78.5 51.5t-51.5 79t-18.5 101q0 66 25.5 122.5t67.5 98t97 65t114 23.5q70 0 118.5 -29t83.5 -86l12 101h71zM285 49q53 0 96.5 19t74.5 52t48.5 78t17.5 97q0 43 -14 77.5t-39.5 59t-59.5 37.5t-75 13
q-48 0 -91 -18.5t-75.5 -51t-51.5 -77.5t-19 -98q0 -43 14 -78t39 -59.5t59.5 -37.5t75.5 -13zM301 -70q23 0 36 -14t13 -43q0 -9 -5 -18.5t-13.5 -18t-20 -14t-25.5 -5.5q-22 0 -35.5 13.5t-13.5 42.5q0 9 5 19t14 18.5t20.5 14t24.5 5.5z" />
    <glyph glyph-name="uni1EA2" unicode="&#x1ea2;" horiz-adv-x="740" 
d="M531 875q-2 -17 -9 -29t-29 -29q-7 -5 -15 -15t-10 -20l-2 -12h-47q2 26 14.5 43t34.5 35q7 5 10.5 13t4.5 14q1 8 -4.5 15.5t-18.5 7.5q-30 0 -36 -42h-46q5 37 28.5 62.5t60.5 25.5q30 0 49.5 -19.5t14.5 -49.5zM657 0h-74l-78 235h-304l-135 -235h-80l413 718h17z
M240 304h242l-89 264z" />
    <glyph glyph-name="uni1EA3" unicode="&#x1ea3;" horiz-adv-x="683" 
d="M477 689q-2 -17 -9 -29t-29 -29q-7 -5 -15 -15t-10 -20l-2 -12h-47q2 26 14.5 43t34.5 35q7 5 10.5 13t4.5 14q1 8 -4.5 15.5t-18.5 7.5q-30 0 -36 -42h-46q5 37 28.5 62.5t60.5 25.5q30 0 49.5 -19.5t14.5 -49.5zM618 531l-71 -531h-69l10 80q-92 -94 -211 -94
q-54 0 -99.5 18.5t-78.5 51.5t-51.5 79t-18.5 101q0 66 25.5 122.5t67.5 98t97 65t114 23.5q70 0 118.5 -29t83.5 -86l12 101h71zM285 49q53 0 96.5 19t74.5 52t48.5 78t17.5 97q0 43 -14 77.5t-39.5 59t-59.5 37.5t-75 13q-48 0 -91 -18.5t-75.5 -51t-51.5 -77.5t-19 -98
q0 -43 14 -78t39 -59.5t59.5 -37.5t75.5 -13z" />
    <glyph glyph-name="uni1EA4" unicode="&#x1ea4;" horiz-adv-x="740" 
d="M656 944l-90 -118h58l105 118h-73zM374 777h-68l114 118h70l80 -118h-68l-53 79zM657 0h-74l-78 235h-304l-135 -235h-80l413 718h17zM240 304h242l-89 264z" />
    <glyph glyph-name="uni1EA5" unicode="&#x1ea5;" horiz-adv-x="683" 
d="M602 758l-90 -118h58l105 118h-73zM320 591h-68l114 118h70l80 -118h-68l-53 79zM618 531l-71 -531h-69l10 80q-92 -94 -211 -94q-54 0 -99.5 18.5t-78.5 51.5t-51.5 79t-18.5 101q0 66 25.5 122.5t67.5 98t97 65t114 23.5q70 0 118.5 -29t83.5 -86l12 101h71zM285 49
q53 0 96.5 19t74.5 52t48.5 78t17.5 97q0 43 -14 77.5t-39.5 59t-59.5 37.5t-75 13q-48 0 -91 -18.5t-75.5 -51t-51.5 -77.5t-19 -98q0 -43 14 -78t39 -59.5t59.5 -37.5t75.5 -13z" />
    <glyph glyph-name="uni1EA6" unicode="&#x1ea6;" horiz-adv-x="740" 
d="M579 837h58l-56 118h-73zM369 777h-68l114 118h70l80 -118h-68l-53 79zM657 0h-74l-78 235h-304l-135 -235h-80l413 718h17zM240 304h242l-89 264z" />
    <glyph glyph-name="uni1EA7" unicode="&#x1ea7;" horiz-adv-x="683" 
d="M525 651h58l-56 118h-73zM315 591h-68l114 118h70l80 -118h-68l-53 79zM618 531l-71 -531h-69l10 80q-92 -94 -211 -94q-54 0 -99.5 18.5t-78.5 51.5t-51.5 79t-18.5 101q0 66 25.5 122.5t67.5 98t97 65t114 23.5q70 0 118.5 -29t83.5 -86l12 101h71zM285 49
q53 0 96.5 19t74.5 52t48.5 78t17.5 97q0 43 -14 77.5t-39.5 59t-59.5 37.5t-75 13q-48 0 -91 -18.5t-75.5 -51t-51.5 -77.5t-19 -98q0 -43 14 -78t39 -59.5t59.5 -37.5t75.5 -13z" />
    <glyph glyph-name="uni1EA8" unicode="&#x1ea8;" horiz-adv-x="740" 
d="M677 943q-2 -17 -8.5 -29t-29.5 -29q-7 -5 -15 -15t-10 -20l-1 -12h-47q2 26 14 43t35 35q7 5 10 13t4 14q2 8 -3.5 15.5t-18.5 7.5q-30 0 -36 -42h-46q5 37 28 62.5t60 25.5q30 0 49.5 -19.5t14.5 -49.5zM372 777h-68l114 118h70l80 -118h-68l-53 79zM657 0h-74l-78 235
h-304l-135 -235h-80l413 718h17zM240 304h242l-89 264z" />
    <glyph glyph-name="uni1EA9" unicode="&#x1ea9;" horiz-adv-x="683" 
d="M623 757q-2 -17 -8.5 -29t-29.5 -29q-7 -5 -15 -15t-10 -20l-1 -12h-47q2 26 14 43t35 35q7 5 10 13t4 14q2 8 -3.5 15.5t-18.5 7.5q-30 0 -36 -42h-46q5 37 28 62.5t60 25.5q30 0 49.5 -19.5t14.5 -49.5zM318 591h-68l114 118h70l80 -118h-68l-53 79zM618 531l-71 -531
h-69l10 80q-92 -94 -211 -94q-54 0 -99.5 18.5t-78.5 51.5t-51.5 79t-18.5 101q0 66 25.5 122.5t67.5 98t97 65t114 23.5q70 0 118.5 -29t83.5 -86l12 101h71zM285 49q53 0 96.5 19t74.5 52t48.5 78t17.5 97q0 43 -14 77.5t-39.5 59t-59.5 37.5t-75 13q-48 0 -91 -18.5
t-75.5 -51t-51.5 -77.5t-19 -98q0 -43 14 -78t39 -59.5t59.5 -37.5t75.5 -13z" />
    <glyph glyph-name="uni1EAA" unicode="&#x1eaa;" horiz-adv-x="740" 
d="M334 909q6 42 20 66t33.5 33t42 3.5t43.5 -23.5q16 -14 28.5 -22.5t22 -8t16 12.5t10.5 39h52q-6 -42 -20.5 -66.5t-33.5 -33.5t-41.5 -3.5t-43.5 23.5q-16 14 -28.5 22.5t-22 8t-16 -12t-10.5 -38.5h-52zM378 777h-68l114 118h70l80 -118h-68l-53 79zM657 0h-74l-78 235
h-304l-135 -235h-80l413 718h17zM240 304h242l-89 264z" />
    <glyph glyph-name="uni1EAB" unicode="&#x1eab;" horiz-adv-x="683" 
d="M280 723q6 42 20 66t33.5 33t42 3.5t43.5 -23.5q16 -14 28.5 -22.5t22 -8t16 12.5t10.5 39h52q-6 -42 -20.5 -66.5t-33.5 -33.5t-41.5 -3.5t-43.5 23.5q-16 14 -28.5 22.5t-22 8t-16 -12t-10.5 -38.5h-52zM324 591h-68l114 118h70l80 -118h-68l-53 79zM618 531l-71 -531
h-69l10 80q-92 -94 -211 -94q-54 0 -99.5 18.5t-78.5 51.5t-51.5 79t-18.5 101q0 66 25.5 122.5t67.5 98t97 65t114 23.5q70 0 118.5 -29t83.5 -86l12 101h71zM285 49q53 0 96.5 19t74.5 52t48.5 78t17.5 97q0 43 -14 77.5t-39.5 59t-59.5 37.5t-75 13q-48 0 -91 -18.5
t-75.5 -51t-51.5 -77.5t-19 -98q0 -43 14 -78t39 -59.5t59.5 -37.5t75.5 -13z" />
    <glyph glyph-name="uni1EAC" unicode="&#x1eac;" horiz-adv-x="740" 
d="M378 777h-68l114 118h70l80 -118h-68l-53 79zM657 0h-74l-78 235h-304l-135 -235h-80l413 718h17zM240 304h242l-89 264zM329 -70q23 0 36 -14t13 -43q0 -9 -5 -18.5t-13.5 -18t-20 -14t-25.5 -5.5q-22 0 -35.5 13.5t-13.5 42.5q0 9 5 19t14 18.5t20.5 14t24.5 5.5z" />
    <glyph glyph-name="uni1EAD" unicode="&#x1ead;" horiz-adv-x="683" 
d="M324 591h-68l114 118h70l80 -118h-68l-53 79zM618 531l-71 -531h-69l10 80q-92 -94 -211 -94q-54 0 -99.5 18.5t-78.5 51.5t-51.5 79t-18.5 101q0 66 25.5 122.5t67.5 98t97 65t114 23.5q70 0 118.5 -29t83.5 -86l12 101h71zM285 49q53 0 96.5 19t74.5 52t48.5 78
t17.5 97q0 43 -14 77.5t-39.5 59t-59.5 37.5t-75 13q-48 0 -91 -18.5t-75.5 -51t-51.5 -77.5t-19 -98q0 -43 14 -78t39 -59.5t59.5 -37.5t75.5 -13zM301 -70q23 0 36 -14t13 -43q0 -9 -5 -18.5t-13.5 -18t-20 -14t-25.5 -5.5q-22 0 -35.5 13.5t-13.5 42.5q0 9 5 19t14 18.5
t20.5 14t24.5 5.5z" />
    <glyph glyph-name="uni1EAE" unicode="&#x1eae;" horiz-adv-x="740" 
d="M518 1031l-89 -118h58l104 118h-73zM444 789q-57 0 -87.5 30.5t-22.5 87.5h58q-5 -35 10 -50t49 -15t54 15t25 50h58q-8 -57 -46.5 -87.5t-97.5 -30.5zM657 0h-74l-78 235h-304l-135 -235h-80l413 718h17zM240 304h242l-89 264z" />
    <glyph glyph-name="uni1EAF" unicode="&#x1eaf;" horiz-adv-x="683" 
d="M464 845l-89 -118h58l104 118h-73zM390 603q-57 0 -87.5 30.5t-22.5 87.5h58q-5 -35 10 -50t49 -15t54 15t25 50h58q-8 -57 -46.5 -87.5t-97.5 -30.5zM618 531l-71 -531h-69l10 80q-92 -94 -211 -94q-54 0 -99.5 18.5t-78.5 51.5t-51.5 79t-18.5 101q0 66 25.5 122.5
t67.5 98t97 65t114 23.5q70 0 118.5 -29t83.5 -86l12 101h71zM285 49q53 0 96.5 19t74.5 52t48.5 78t17.5 97q0 43 -14 77.5t-39.5 59t-59.5 37.5t-75 13q-48 0 -91 -18.5t-75.5 -51t-51.5 -77.5t-19 -98q0 -43 14 -78t39 -59.5t59.5 -37.5t75.5 -13z" />
    <glyph glyph-name="uni1EB0" unicode="&#x1eb0;" horiz-adv-x="740" 
d="M433 911h58l-56 118h-73zM444 789q-57 0 -87.5 30.5t-22.5 87.5h58q-5 -35 10 -50t49 -15t54 15t25 50h58q-8 -57 -46.5 -87.5t-97.5 -30.5zM657 0h-74l-78 235h-304l-135 -235h-80l413 718h17zM240 304h242l-89 264z" />
    <glyph glyph-name="uni1EB1" unicode="&#x1eb1;" horiz-adv-x="683" 
d="M379 725h58l-56 118h-73zM390 603q-57 0 -87.5 30.5t-22.5 87.5h58q-5 -35 10 -50t49 -15t54 15t25 50h58q-8 -57 -46.5 -87.5t-97.5 -30.5zM618 531l-71 -531h-69l10 80q-92 -94 -211 -94q-54 0 -99.5 18.5t-78.5 51.5t-51.5 79t-18.5 101q0 66 25.5 122.5t67.5 98
t97 65t114 23.5q70 0 118.5 -29t83.5 -86l12 101h71zM285 49q53 0 96.5 19t74.5 52t48.5 78t17.5 97q0 43 -14 77.5t-39.5 59t-59.5 37.5t-75 13q-48 0 -91 -18.5t-75.5 -51t-51.5 -77.5t-19 -98q0 -43 14 -78t39 -59.5t59.5 -37.5t75.5 -13z" />
    <glyph glyph-name="uni1EB2" unicode="&#x1eb2;" horiz-adv-x="740" 
d="M550 1011q-2 -17 -9 -29t-29 -29q-7 -5 -15 -15t-10 -20l-1 -12h-47q2 26 14 43t35 35q7 5 10 13t4 14q2 8 -3.5 15.5t-18.5 7.5q-30 0 -36 -42h-46q5 37 28 62.5t60 25.5q30 0 49.5 -19.5t14.5 -49.5zM444 789q-57 0 -87.5 30.5t-22.5 87.5h58q-5 -35 10 -50t49 -15
t54 15t25 50h58q-8 -57 -46.5 -87.5t-97.5 -30.5zM657 0h-74l-78 235h-304l-135 -235h-80l413 718h17zM240 304h242l-89 264z" />
    <glyph glyph-name="uni1EB3" unicode="&#x1eb3;" horiz-adv-x="683" 
d="M496 825q-2 -17 -9 -29t-29 -29q-7 -5 -15 -15t-10 -20l-1 -12h-47q2 26 14 43t35 35q7 5 10 13t4 14q2 8 -3.5 15.5t-18.5 7.5q-30 0 -36 -42h-46q5 37 28 62.5t60 25.5q30 0 49.5 -19.5t14.5 -49.5zM390 603q-57 0 -87.5 30.5t-22.5 87.5h58q-5 -35 10 -50t49 -15
t54 15t25 50h58q-8 -57 -46.5 -87.5t-97.5 -30.5zM618 531l-71 -531h-69l10 80q-92 -94 -211 -94q-54 0 -99.5 18.5t-78.5 51.5t-51.5 79t-18.5 101q0 66 25.5 122.5t67.5 98t97 65t114 23.5q70 0 118.5 -29t83.5 -86l12 101h71zM285 49q53 0 96.5 19t74.5 52t48.5 78
t17.5 97q0 43 -14 77.5t-39.5 59t-59.5 37.5t-75 13q-48 0 -91 -18.5t-75.5 -51t-51.5 -77.5t-19 -98q0 -43 14 -78t39 -59.5t59.5 -37.5t75.5 -13z" />
    <glyph glyph-name="uni1EB4" unicode="&#x1eb4;" horiz-adv-x="740" 
d="M338 934q6 42 20 66t33.5 33t42 3.5t43.5 -23.5q16 -14 28.5 -22.5t22 -8t16 12.5t10.5 39h52q-6 -42 -20.5 -66.5t-33.5 -33.5t-41.5 -3.5t-43.5 23.5q-16 14 -28.5 22.5t-22 8t-16 -12t-10.5 -38.5h-52zM444 789q-57 0 -87.5 30.5t-22.5 87.5h58q-5 -35 10 -50t49 -15
t54 15t25 50h58q-8 -57 -46.5 -87.5t-97.5 -30.5zM657 0h-74l-78 235h-304l-135 -235h-80l413 718h17zM240 304h242l-89 264z" />
    <glyph glyph-name="uni1EB5" unicode="&#x1eb5;" horiz-adv-x="683" 
d="M284 748q6 42 20 66t33.5 33t42 3.5t43.5 -23.5q16 -14 28.5 -22.5t22 -8t16 12.5t10.5 39h52q-6 -42 -20.5 -66.5t-33.5 -33.5t-41.5 -3.5t-43.5 23.5q-16 14 -28.5 22.5t-22 8t-16 -12t-10.5 -38.5h-52zM390 603q-57 0 -87.5 30.5t-22.5 87.5h58q-5 -35 10 -50t49 -15
t54 15t25 50h58q-8 -57 -46.5 -87.5t-97.5 -30.5zM618 531l-71 -531h-69l10 80q-92 -94 -211 -94q-54 0 -99.5 18.5t-78.5 51.5t-51.5 79t-18.5 101q0 66 25.5 122.5t67.5 98t97 65t114 23.5q70 0 118.5 -29t83.5 -86l12 101h71zM285 49q53 0 96.5 19t74.5 52t48.5 78
t17.5 97q0 43 -14 77.5t-39.5 59t-59.5 37.5t-75 13q-48 0 -91 -18.5t-75.5 -51t-51.5 -77.5t-19 -98q0 -43 14 -78t39 -59.5t59.5 -37.5t75.5 -13z" />
    <glyph glyph-name="uni1EB6" unicode="&#x1eb6;" horiz-adv-x="740" 
d="M443 779q-57 0 -87.5 30.5t-22.5 87.5h58q-5 -35 10 -50t49 -15t54 15t25 50h58q-8 -57 -46.5 -87.5t-97.5 -30.5zM657 0h-74l-78 235h-304l-135 -235h-80l413 718h17zM240 304h242l-89 264zM329 -70q23 0 36 -14t13 -43q0 -9 -5 -18.5t-13.5 -18t-20 -14t-25.5 -5.5
q-22 0 -35.5 13.5t-13.5 42.5q0 9 5 19t14 18.5t20.5 14t24.5 5.5z" />
    <glyph glyph-name="uni1EB7" unicode="&#x1eb7;" horiz-adv-x="683" 
d="M389 593q-57 0 -87.5 30.5t-22.5 87.5h58q-5 -35 10 -50t49 -15t54 15t25 50h58q-8 -57 -46.5 -87.5t-97.5 -30.5zM618 531l-71 -531h-69l10 80q-92 -94 -211 -94q-54 0 -99.5 18.5t-78.5 51.5t-51.5 79t-18.5 101q0 66 25.5 122.5t67.5 98t97 65t114 23.5
q70 0 118.5 -29t83.5 -86l12 101h71zM285 49q53 0 96.5 19t74.5 52t48.5 78t17.5 97q0 43 -14 77.5t-39.5 59t-59.5 37.5t-75 13q-48 0 -91 -18.5t-75.5 -51t-51.5 -77.5t-19 -98q0 -43 14 -78t39 -59.5t59.5 -37.5t75.5 -13zM301 -70q23 0 36 -14t13 -43q0 -9 -5 -18.5
t-13.5 -18t-20 -14t-25.5 -5.5q-22 0 -35.5 13.5t-13.5 42.5q0 9 5 19t14 18.5t20.5 14t24.5 5.5z" />
    <glyph glyph-name="uni1EB8" unicode="&#x1eb8;" horiz-adv-x="536" 
d="M506 649h-323l-32 -236h323l-9 -69h-323l-37 -275h323l-8 -69h-396l96 718h396zM227 -70q23 0 36 -14t13 -43q0 -9 -5 -18.5t-13.5 -18t-20 -14t-25.5 -5.5q-22 0 -35.5 13.5t-13.5 42.5q0 9 5 19t14 18.5t20.5 14t24.5 5.5z" />
    <glyph glyph-name="uni1EB9" unicode="&#x1eb9;" horiz-adv-x="650" 
d="M515 95q-39 -49 -100 -79t-136 -30q-60 0 -106.5 20t-78.5 54.5t-48.5 80.5t-16.5 97q0 61 23.5 116.5t65 98t98 68t122.5 25.5q53 0 96.5 -19t74.5 -52.5t48 -78.5t17 -96q0 -11 -1 -24t-3 -24h-473v-14q0 -41 13 -76t37 -60t58 -39t76 -14q56 0 103.5 22.5t79.5 64.5z
M508 312q-1 38 -15 69t-37 53t-54.5 33.5t-67.5 11.5q-77 0 -138.5 -43t-87.5 -124h400zM284 -70q23 0 36 -14t13 -43q0 -9 -5 -18.5t-13.5 -18t-20 -14t-25.5 -5.5q-22 0 -35.5 13.5t-13.5 42.5q0 9 5 19t14 18.5t20.5 14t24.5 5.5z" />
    <glyph glyph-name="uni1EBA" unicode="&#x1eba;" horiz-adv-x="536" 
d="M429 875q-2 -17 -9 -29t-29 -29q-7 -5 -15 -15t-10 -20l-2 -12h-47q2 26 14.5 43t34.5 35q7 5 10.5 13t4.5 14q1 8 -4.5 15.5t-18.5 7.5q-30 0 -36 -42h-46q5 37 28.5 62.5t60.5 25.5q30 0 49.5 -19.5t14.5 -49.5zM506 649h-323l-32 -236h323l-9 -69h-323l-37 -275h323
l-8 -69h-396l96 718h396z" />
    <glyph glyph-name="uni1EBB" unicode="&#x1ebb;" horiz-adv-x="650" 
d="M435 689q-2 -17 -9 -29t-29 -29q-7 -5 -15 -15t-10 -20l-2 -12h-47q2 26 14.5 43t34.5 35q7 5 10.5 13t4.5 14q1 8 -4.5 15.5t-18.5 7.5q-30 0 -36 -42h-46q5 37 28.5 62.5t60.5 25.5q30 0 49.5 -19.5t14.5 -49.5zM515 95q-39 -49 -100 -79t-136 -30q-60 0 -106.5 20
t-78.5 54.5t-48.5 80.5t-16.5 97q0 61 23.5 116.5t65 98t98 68t122.5 25.5q53 0 96.5 -19t74.5 -52.5t48 -78.5t17 -96q0 -11 -1 -24t-3 -24h-473v-14q0 -41 13 -76t37 -60t58 -39t76 -14q56 0 103.5 22.5t79.5 64.5zM508 312q-1 38 -15 69t-37 53t-54.5 33.5t-67.5 11.5
q-77 0 -138.5 -43t-87.5 -124h400z" />
    <glyph glyph-name="uni1EBC" unicode="&#x1ebc;" horiz-adv-x="536" 
d="M215 787q6 42 20.5 66t34 33t41.5 3.5t43 -23.5q16 -14 28.5 -22.5t22 -8t16 12.5t10.5 39h52q-6 -42 -20.5 -66.5t-33.5 -33.5t-41 -3.5t-43 23.5q-16 14 -29 22.5t-22.5 8t-16 -12t-10.5 -38.5h-52zM506 649h-323l-32 -236h323l-9 -69h-323l-37 -275h323l-8 -69h-396
l96 718h396z" />
    <glyph glyph-name="uni1EBD" unicode="&#x1ebd;" horiz-adv-x="650" 
d="M221 601q6 42 20.5 66t34 33t41.5 3.5t43 -23.5q16 -14 28.5 -22.5t22 -8t16 12.5t10.5 39h52q-6 -42 -20.5 -66.5t-33.5 -33.5t-41 -3.5t-43 23.5q-16 14 -29 22.5t-22.5 8t-16 -12t-10.5 -38.5h-52zM515 95q-39 -49 -100 -79t-136 -30q-60 0 -106.5 20t-78.5 54.5
t-48.5 80.5t-16.5 97q0 61 23.5 116.5t65 98t98 68t122.5 25.5q53 0 96.5 -19t74.5 -52.5t48 -78.5t17 -96q0 -11 -1 -24t-3 -24h-473v-14q0 -41 13 -76t37 -60t58 -39t76 -14q56 0 103.5 22.5t79.5 64.5zM508 312q-1 38 -15 69t-37 53t-54.5 33.5t-67.5 11.5
q-77 0 -138.5 -43t-87.5 -124h400z" />
    <glyph glyph-name="uni1EBE" unicode="&#x1ebe;" horiz-adv-x="536" 
d="M554 944l-90 -118h58l105 118h-73zM272 777h-68l114 118h70l80 -118h-68l-53 79zM506 649h-323l-32 -236h323l-9 -69h-323l-37 -275h323l-8 -69h-396l96 718h396z" />
    <glyph glyph-name="uni1EBF" unicode="&#x1ebf;" horiz-adv-x="650" 
d="M560 758l-90 -118h58l105 118h-73zM278 591h-68l114 118h70l80 -118h-68l-53 79zM515 95q-39 -49 -100 -79t-136 -30q-60 0 -106.5 20t-78.5 54.5t-48.5 80.5t-16.5 97q0 61 23.5 116.5t65 98t98 68t122.5 25.5q53 0 96.5 -19t74.5 -52.5t48 -78.5t17 -96q0 -11 -1 -24
t-3 -24h-473v-14q0 -41 13 -76t37 -60t58 -39t76 -14q56 0 103.5 22.5t79.5 64.5zM508 312q-1 38 -15 69t-37 53t-54.5 33.5t-67.5 11.5q-77 0 -138.5 -43t-87.5 -124h400z" />
    <glyph glyph-name="uni1EC0" unicode="&#x1ec0;" horiz-adv-x="536" 
d="M477 837h58l-56 118h-73zM267 777h-68l114 118h70l80 -118h-68l-53 79zM506 649h-323l-32 -236h323l-9 -69h-323l-37 -275h323l-8 -69h-396l96 718h396z" />
    <glyph glyph-name="uni1EC1" unicode="&#x1ec1;" horiz-adv-x="650" 
d="M483 651h58l-56 118h-73zM273 591h-68l114 118h70l80 -118h-68l-53 79zM515 95q-39 -49 -100 -79t-136 -30q-60 0 -106.5 20t-78.5 54.5t-48.5 80.5t-16.5 97q0 61 23.5 116.5t65 98t98 68t122.5 25.5q53 0 96.5 -19t74.5 -52.5t48 -78.5t17 -96q0 -11 -1 -24t-3 -24
h-473v-14q0 -41 13 -76t37 -60t58 -39t76 -14q56 0 103.5 22.5t79.5 64.5zM508 312q-1 38 -15 69t-37 53t-54.5 33.5t-67.5 11.5q-77 0 -138.5 -43t-87.5 -124h400z" />
    <glyph glyph-name="uni1EC2" unicode="&#x1ec2;" horiz-adv-x="536" 
d="M575 943q-2 -17 -8.5 -29t-29.5 -29q-7 -5 -15 -15t-10 -20l-1 -12h-47q2 26 14 43t35 35q7 5 10 13t4 14q2 8 -3.5 15.5t-18.5 7.5q-30 0 -36 -42h-46q5 37 28 62.5t60 25.5q30 0 49.5 -19.5t14.5 -49.5zM270 777h-68l114 118h70l80 -118h-68l-53 79zM506 649h-323
l-32 -236h323l-9 -69h-323l-37 -275h323l-8 -69h-396l96 718h396z" />
    <glyph glyph-name="uni1EC3" unicode="&#x1ec3;" horiz-adv-x="650" 
d="M581 757q-2 -17 -8.5 -29t-29.5 -29q-7 -5 -15 -15t-10 -20l-1 -12h-47q2 26 14 43t35 35q7 5 10 13t4 14q2 8 -3.5 15.5t-18.5 7.5q-30 0 -36 -42h-46q5 37 28 62.5t60 25.5q30 0 49.5 -19.5t14.5 -49.5zM276 591h-68l114 118h70l80 -118h-68l-53 79zM515 95
q-39 -49 -100 -79t-136 -30q-60 0 -106.5 20t-78.5 54.5t-48.5 80.5t-16.5 97q0 61 23.5 116.5t65 98t98 68t122.5 25.5q53 0 96.5 -19t74.5 -52.5t48 -78.5t17 -96q0 -11 -1 -24t-3 -24h-473v-14q0 -41 13 -76t37 -60t58 -39t76 -14q56 0 103.5 22.5t79.5 64.5zM508 312
q-1 38 -15 69t-37 53t-54.5 33.5t-67.5 11.5q-77 0 -138.5 -43t-87.5 -124h400z" />
    <glyph glyph-name="uni1EC4" unicode="&#x1ec4;" horiz-adv-x="536" 
d="M232 909q6 42 20 66t33.5 33t42 3.5t43.5 -23.5q16 -14 28.5 -22.5t22 -8t16 12.5t10.5 39h52q-6 -42 -20.5 -66.5t-33.5 -33.5t-41.5 -3.5t-43.5 23.5q-16 14 -28.5 22.5t-22 8t-16 -12t-10.5 -38.5h-52zM276 777h-68l114 118h70l80 -118h-68l-53 79zM506 649h-323
l-32 -236h323l-9 -69h-323l-37 -275h323l-8 -69h-396l96 718h396z" />
    <glyph glyph-name="uni1EC5" unicode="&#x1ec5;" horiz-adv-x="650" 
d="M238 723q6 42 20 66t33.5 33t42 3.5t43.5 -23.5q16 -14 28.5 -22.5t22 -8t16 12.5t10.5 39h52q-6 -42 -20.5 -66.5t-33.5 -33.5t-41.5 -3.5t-43.5 23.5q-16 14 -28.5 22.5t-22 8t-16 -12t-10.5 -38.5h-52zM282 591h-68l114 118h70l80 -118h-68l-53 79zM515 95
q-39 -49 -100 -79t-136 -30q-60 0 -106.5 20t-78.5 54.5t-48.5 80.5t-16.5 97q0 61 23.5 116.5t65 98t98 68t122.5 25.5q53 0 96.5 -19t74.5 -52.5t48 -78.5t17 -96q0 -11 -1 -24t-3 -24h-473v-14q0 -41 13 -76t37 -60t58 -39t76 -14q56 0 103.5 22.5t79.5 64.5zM508 312
q-1 38 -15 69t-37 53t-54.5 33.5t-67.5 11.5q-77 0 -138.5 -43t-87.5 -124h400z" />
    <glyph glyph-name="uni1EC6" unicode="&#x1ec6;" horiz-adv-x="536" 
d="M276 777h-68l114 118h70l80 -118h-68l-53 79zM506 649h-323l-32 -236h323l-9 -69h-323l-37 -275h323l-8 -69h-396l96 718h396zM227 -70q23 0 36 -14t13 -43q0 -9 -5 -18.5t-13.5 -18t-20 -14t-25.5 -5.5q-22 0 -35.5 13.5t-13.5 42.5q0 9 5 19t14 18.5t20.5 14t24.5 5.5z
" />
    <glyph glyph-name="uni1EC7" unicode="&#x1ec7;" horiz-adv-x="650" 
d="M282 591h-68l114 118h70l80 -118h-68l-53 79zM515 95q-39 -49 -100 -79t-136 -30q-60 0 -106.5 20t-78.5 54.5t-48.5 80.5t-16.5 97q0 61 23.5 116.5t65 98t98 68t122.5 25.5q53 0 96.5 -19t74.5 -52.5t48 -78.5t17 -96q0 -11 -1 -24t-3 -24h-473v-14q0 -41 13 -76
t37 -60t58 -39t76 -14q56 0 103.5 22.5t79.5 64.5zM508 312q-1 38 -15 69t-37 53t-54.5 33.5t-67.5 11.5q-77 0 -138.5 -43t-87.5 -124h400zM284 -70q23 0 36 -14t13 -43q0 -9 -5 -18.5t-13.5 -18t-20 -14t-25.5 -5.5q-22 0 -35.5 13.5t-13.5 42.5q0 9 5 19t14 18.5t20.5 14
t24.5 5.5z" />
    <glyph glyph-name="uni1EC8" unicode="&#x1ec8;" horiz-adv-x="226" 
d="M274 875q-2 -17 -9 -29t-29 -29q-7 -5 -15 -15t-10 -20l-2 -12h-47q2 26 14.5 43t34.5 35q7 5 10.5 13t4.5 14q1 8 -4.5 15.5t-18.5 7.5q-30 0 -36 -42h-46q5 37 28.5 62.5t60.5 25.5q30 0 49.5 -19.5t14.5 -49.5zM188 718l-96 -718h-73l97 718h72z" />
    <glyph glyph-name="uni1EC9" unicode="&#x1ec9;" horiz-adv-x="200" 
d="M215 689q-2 -17 -9 -29t-29 -29q-7 -5 -15 -15t-10 -20l-2 -12h-47q2 26 14.5 43t34.5 35q7 5 10.5 13t4.5 14q1 8 -4.5 15.5t-18.5 7.5q-30 0 -36 -42h-46q5 37 28.5 62.5t60.5 25.5q30 0 49.5 -19.5t14.5 -49.5zM145 531l-71 -531h-67l73 531h65z" />
    <glyph glyph-name="uni1ECA" unicode="&#x1eca;" horiz-adv-x="226" 
d="M188 718l-96 -718h-73l97 718h72zM72 -70q23 0 36 -14t13 -43q0 -9 -5 -18.5t-13.5 -18t-20 -14t-25.5 -5.5q-22 0 -35.5 13.5t-13.5 42.5q0 9 5 19t14 18.5t20.5 14t24.5 5.5z" />
    <glyph glyph-name="uni1ECB" unicode="&#x1ecb;" horiz-adv-x="200" 
d="M134 750q23 0 39 -16t16 -39t-16 -39t-39 -16t-39 16t-16 39t16 39t39 16zM145 531l-71 -531h-67l73 531h65zM59 -70q23 0 36 -14t13 -43q0 -9 -5 -18.5t-13.5 -18t-20 -14t-25.5 -5.5q-22 0 -35.5 13.5t-13.5 42.5q0 9 5 19t14 18.5t20.5 14t24.5 5.5z" />
    <glyph glyph-name="uni1ECC" unicode="&#x1ecc;" horiz-adv-x="869" 
d="M466 736q70 0 131.5 -24t107.5 -68t73 -106t27 -138q0 -88 -32 -164t-89 -132.5t-135.5 -89t-171.5 -32.5q-79 0 -143 25t-108 69.5t-68 106t-24 135.5q0 89 32 165t89.5 132.5t137 88.5t173.5 32zM465 669q-81 0 -147 -28t-113 -76t-72.5 -111.5t-25.5 -133.5
q0 -60 18.5 -109.5t53.5 -85.5t84.5 -56t112.5 -20q76 0 141 27.5t113 75.5t75 112.5t27 139.5q0 60 -21 109t-57 83.5t-84.5 53.5t-104.5 19zM375 -70q23 0 36 -14t13 -43q0 -9 -5 -18.5t-13.5 -18t-20 -14t-25.5 -5.5q-22 0 -35.5 13.5t-13.5 42.5q0 9 5 19t14 18.5
t20.5 14t24.5 5.5z" />
    <glyph glyph-name="uni1ECD" unicode="&#x1ecd;" 
d="M332 545q52 0 96.5 -18.5t77.5 -52t52 -80t19 -103.5q0 -63 -22 -118t-62 -96.5t-96.5 -65.5t-124.5 -24q-55 0 -100 18.5t-77.5 51.5t-50 78.5t-17.5 99.5q0 65 23.5 121.5t65 98.5t97 66t119.5 24zM330 482q-49 0 -92 -18t-74.5 -50.5t-50 -77t-18.5 -97.5
q0 -41 13.5 -76t37.5 -60t58.5 -39t76.5 -14q51 0 93 19.5t72 52.5t46.5 77t16.5 93q0 43 -13.5 78t-37.5 60t-57 38.5t-71 13.5zM287 -70q23 0 36 -14t13 -43q0 -9 -5 -18.5t-13.5 -18t-20 -14t-25.5 -5.5q-22 0 -35.5 13.5t-13.5 42.5q0 9 5 19t14 18.5t20.5 14t24.5 5.5z
" />
    <glyph glyph-name="uni1ECE" unicode="&#x1ece;" horiz-adv-x="869" 
d="M564 875q-2 -17 -9 -29t-29 -29q-7 -5 -15 -15t-10 -20l-2 -12h-47q2 26 14.5 43t34.5 35q7 5 10.5 13t4.5 14q1 8 -4.5 15.5t-18.5 7.5q-30 0 -36 -42h-46q5 37 28.5 62.5t60.5 25.5q30 0 49.5 -19.5t14.5 -49.5zM466 736q70 0 131.5 -24t107.5 -68t73 -106t27 -138
q0 -88 -32 -164t-89 -132.5t-135.5 -89t-171.5 -32.5q-79 0 -143 25t-108 69.5t-68 106t-24 135.5q0 89 32 165t89.5 132.5t137 88.5t173.5 32zM465 669q-81 0 -147 -28t-113 -76t-72.5 -111.5t-25.5 -133.5q0 -60 18.5 -109.5t53.5 -85.5t84.5 -56t112.5 -20q76 0 141 27.5
t113 75.5t75 112.5t27 139.5q0 60 -21 109t-57 83.5t-84.5 53.5t-104.5 19z" />
    <glyph glyph-name="uni1ECF" unicode="&#x1ecf;" 
d="M429 689q-2 -17 -9 -29t-29 -29q-7 -5 -15 -15t-10 -20l-2 -12h-47q2 26 14.5 43t34.5 35q7 5 10.5 13t4.5 14q1 8 -4.5 15.5t-18.5 7.5q-30 0 -36 -42h-46q5 37 28.5 62.5t60.5 25.5q30 0 49.5 -19.5t14.5 -49.5zM332 545q52 0 96.5 -18.5t77.5 -52t52 -80t19 -103.5
q0 -63 -22 -118t-62 -96.5t-96.5 -65.5t-124.5 -24q-55 0 -100 18.5t-77.5 51.5t-50 78.5t-17.5 99.5q0 65 23.5 121.5t65 98.5t97 66t119.5 24zM330 482q-49 0 -92 -18t-74.5 -50.5t-50 -77t-18.5 -97.5q0 -41 13.5 -76t37.5 -60t58.5 -39t76.5 -14q51 0 93 19.5t72 52.5
t46.5 77t16.5 93q0 43 -13.5 78t-37.5 60t-57 38.5t-71 13.5z" />
    <glyph glyph-name="uni1ED0" unicode="&#x1ed0;" horiz-adv-x="869" 
d="M689 944l-90 -118h58l105 118h-73zM407 777h-68l114 118h70l80 -118h-68l-53 79zM466 736q70 0 131.5 -24t107.5 -68t73 -106t27 -138q0 -88 -32 -164t-89 -132.5t-135.5 -89t-171.5 -32.5q-79 0 -143 25t-108 69.5t-68 106t-24 135.5q0 89 32 165t89.5 132.5t137 88.5
t173.5 32zM465 669q-81 0 -147 -28t-113 -76t-72.5 -111.5t-25.5 -133.5q0 -60 18.5 -109.5t53.5 -85.5t84.5 -56t112.5 -20q76 0 141 27.5t113 75.5t75 112.5t27 139.5q0 60 -21 109t-57 83.5t-84.5 53.5t-104.5 19z" />
    <glyph glyph-name="uni1ED1" unicode="&#x1ed1;" 
d="M554 758l-90 -118h58l105 118h-73zM272 591h-68l114 118h70l80 -118h-68l-53 79zM332 545q52 0 96.5 -18.5t77.5 -52t52 -80t19 -103.5q0 -63 -22 -118t-62 -96.5t-96.5 -65.5t-124.5 -24q-55 0 -100 18.5t-77.5 51.5t-50 78.5t-17.5 99.5q0 65 23.5 121.5t65 98.5t97 66
t119.5 24zM330 482q-49 0 -92 -18t-74.5 -50.5t-50 -77t-18.5 -97.5q0 -41 13.5 -76t37.5 -60t58.5 -39t76.5 -14q51 0 93 19.5t72 52.5t46.5 77t16.5 93q0 43 -13.5 78t-37.5 60t-57 38.5t-71 13.5z" />
    <glyph glyph-name="uni1ED2" unicode="&#x1ed2;" horiz-adv-x="869" 
d="M612 837h58l-56 118h-73zM402 777h-68l114 118h70l80 -118h-68l-53 79zM466 736q70 0 131.5 -24t107.5 -68t73 -106t27 -138q0 -88 -32 -164t-89 -132.5t-135.5 -89t-171.5 -32.5q-79 0 -143 25t-108 69.5t-68 106t-24 135.5q0 89 32 165t89.5 132.5t137 88.5t173.5 32z
M465 669q-81 0 -147 -28t-113 -76t-72.5 -111.5t-25.5 -133.5q0 -60 18.5 -109.5t53.5 -85.5t84.5 -56t112.5 -20q76 0 141 27.5t113 75.5t75 112.5t27 139.5q0 60 -21 109t-57 83.5t-84.5 53.5t-104.5 19z" />
    <glyph glyph-name="uni1ED3" unicode="&#x1ed3;" 
d="M477 651h58l-56 118h-73zM267 591h-68l114 118h70l80 -118h-68l-53 79zM332 545q52 0 96.5 -18.5t77.5 -52t52 -80t19 -103.5q0 -63 -22 -118t-62 -96.5t-96.5 -65.5t-124.5 -24q-55 0 -100 18.5t-77.5 51.5t-50 78.5t-17.5 99.5q0 65 23.5 121.5t65 98.5t97 66t119.5 24
zM330 482q-49 0 -92 -18t-74.5 -50.5t-50 -77t-18.5 -97.5q0 -41 13.5 -76t37.5 -60t58.5 -39t76.5 -14q51 0 93 19.5t72 52.5t46.5 77t16.5 93q0 43 -13.5 78t-37.5 60t-57 38.5t-71 13.5z" />
    <glyph glyph-name="uni1ED4" unicode="&#x1ed4;" horiz-adv-x="869" 
d="M710 943q-2 -17 -8.5 -29t-29.5 -29q-7 -5 -15 -15t-10 -20l-1 -12h-47q2 26 14 43t35 35q7 5 10 13t4 14q2 8 -3.5 15.5t-18.5 7.5q-30 0 -36 -42h-46q5 37 28 62.5t60 25.5q30 0 49.5 -19.5t14.5 -49.5zM405 777h-68l114 118h70l80 -118h-68l-53 79zM466 736
q70 0 131.5 -24t107.5 -68t73 -106t27 -138q0 -88 -32 -164t-89 -132.5t-135.5 -89t-171.5 -32.5q-79 0 -143 25t-108 69.5t-68 106t-24 135.5q0 89 32 165t89.5 132.5t137 88.5t173.5 32zM465 669q-81 0 -147 -28t-113 -76t-72.5 -111.5t-25.5 -133.5q0 -60 18.5 -109.5
t53.5 -85.5t84.5 -56t112.5 -20q76 0 141 27.5t113 75.5t75 112.5t27 139.5q0 60 -21 109t-57 83.5t-84.5 53.5t-104.5 19z" />
    <glyph glyph-name="uni1ED5" unicode="&#x1ed5;" 
d="M575 757q-2 -17 -8.5 -29t-29.5 -29q-7 -5 -15 -15t-10 -20l-1 -12h-47q2 26 14 43t35 35q7 5 10 13t4 14q2 8 -3.5 15.5t-18.5 7.5q-30 0 -36 -42h-46q5 37 28 62.5t60 25.5q30 0 49.5 -19.5t14.5 -49.5zM270 591h-68l114 118h70l80 -118h-68l-53 79zM332 545
q52 0 96.5 -18.5t77.5 -52t52 -80t19 -103.5q0 -63 -22 -118t-62 -96.5t-96.5 -65.5t-124.5 -24q-55 0 -100 18.5t-77.5 51.5t-50 78.5t-17.5 99.5q0 65 23.5 121.5t65 98.5t97 66t119.5 24zM330 482q-49 0 -92 -18t-74.5 -50.5t-50 -77t-18.5 -97.5q0 -41 13.5 -76
t37.5 -60t58.5 -39t76.5 -14q51 0 93 19.5t72 52.5t46.5 77t16.5 93q0 43 -13.5 78t-37.5 60t-57 38.5t-71 13.5z" />
    <glyph glyph-name="uni1ED6" unicode="&#x1ed6;" horiz-adv-x="869" 
d="M367 909q6 42 20 66t33.5 33t42 3.5t43.5 -23.5q16 -14 28.5 -22.5t22 -8t16 12.5t10.5 39h52q-6 -42 -20.5 -66.5t-33.5 -33.5t-41.5 -3.5t-43.5 23.5q-16 14 -28.5 22.5t-22 8t-16 -12t-10.5 -38.5h-52zM411 777h-68l114 118h70l80 -118h-68l-53 79zM466 736
q70 0 131.5 -24t107.5 -68t73 -106t27 -138q0 -88 -32 -164t-89 -132.5t-135.5 -89t-171.5 -32.5q-79 0 -143 25t-108 69.5t-68 106t-24 135.5q0 89 32 165t89.5 132.5t137 88.5t173.5 32zM465 669q-81 0 -147 -28t-113 -76t-72.5 -111.5t-25.5 -133.5q0 -60 18.5 -109.5
t53.5 -85.5t84.5 -56t112.5 -20q76 0 141 27.5t113 75.5t75 112.5t27 139.5q0 60 -21 109t-57 83.5t-84.5 53.5t-104.5 19z" />
    <glyph glyph-name="uni1ED7" unicode="&#x1ed7;" 
d="M232 723q6 42 20 66t33.5 33t42 3.5t43.5 -23.5q16 -14 28.5 -22.5t22 -8t16 12.5t10.5 39h52q-6 -42 -20.5 -66.5t-33.5 -33.5t-41.5 -3.5t-43.5 23.5q-16 14 -28.5 22.5t-22 8t-16 -12t-10.5 -38.5h-52zM276 591h-68l114 118h70l80 -118h-68l-53 79zM332 545
q52 0 96.5 -18.5t77.5 -52t52 -80t19 -103.5q0 -63 -22 -118t-62 -96.5t-96.5 -65.5t-124.5 -24q-55 0 -100 18.5t-77.5 51.5t-50 78.5t-17.5 99.5q0 65 23.5 121.5t65 98.5t97 66t119.5 24zM330 482q-49 0 -92 -18t-74.5 -50.5t-50 -77t-18.5 -97.5q0 -41 13.5 -76
t37.5 -60t58.5 -39t76.5 -14q51 0 93 19.5t72 52.5t46.5 77t16.5 93q0 43 -13.5 78t-37.5 60t-57 38.5t-71 13.5z" />
    <glyph glyph-name="uni1ED8" unicode="&#x1ed8;" horiz-adv-x="869" 
d="M411 777h-68l114 118h70l80 -118h-68l-53 79zM466 736q70 0 131.5 -24t107.5 -68t73 -106t27 -138q0 -88 -32 -164t-89 -132.5t-135.5 -89t-171.5 -32.5q-79 0 -143 25t-108 69.5t-68 106t-24 135.5q0 89 32 165t89.5 132.5t137 88.5t173.5 32zM465 669q-81 0 -147 -28
t-113 -76t-72.5 -111.5t-25.5 -133.5q0 -60 18.5 -109.5t53.5 -85.5t84.5 -56t112.5 -20q76 0 141 27.5t113 75.5t75 112.5t27 139.5q0 60 -21 109t-57 83.5t-84.5 53.5t-104.5 19zM375 -70q23 0 36 -14t13 -43q0 -9 -5 -18.5t-13.5 -18t-20 -14t-25.5 -5.5
q-22 0 -35.5 13.5t-13.5 42.5q0 9 5 19t14 18.5t20.5 14t24.5 5.5z" />
    <glyph glyph-name="uni1ED9" unicode="&#x1ed9;" 
d="M276 591h-68l114 118h70l80 -118h-68l-53 79zM332 545q52 0 96.5 -18.5t77.5 -52t52 -80t19 -103.5q0 -63 -22 -118t-62 -96.5t-96.5 -65.5t-124.5 -24q-55 0 -100 18.5t-77.5 51.5t-50 78.5t-17.5 99.5q0 65 23.5 121.5t65 98.5t97 66t119.5 24zM330 482q-49 0 -92 -18
t-74.5 -50.5t-50 -77t-18.5 -97.5q0 -41 13.5 -76t37.5 -60t58.5 -39t76.5 -14q51 0 93 19.5t72 52.5t46.5 77t16.5 93q0 43 -13.5 78t-37.5 60t-57 38.5t-71 13.5zM287 -70q23 0 36 -14t13 -43q0 -9 -5 -18.5t-13.5 -18t-20 -14t-25.5 -5.5q-22 0 -35.5 13.5t-13.5 42.5
q0 9 5 19t14 18.5t20.5 14t24.5 5.5z" />
    <glyph glyph-name="uni1EDA" unicode="&#x1eda;" horiz-adv-x="869" 
d="M510 777h-58l90 118h73zM657 682q67 -43 107.5 -115t40.5 -167q0 -88 -32 -164t-89 -132.5t-135.5 -89t-171.5 -32.5q-79 0 -143 25t-108 69.5t-68 106t-24 135.5q0 89 32 165t89.5 132.5t137 88.5t173.5 32q60 0 114 -18q44 2 61.5 25.5t24.5 65.5h64q-8 -46 -25.5 -78
t-47.5 -49zM376 49q76 0 141 27.5t113 75.5t75 112.5t27 139.5q0 60 -21 109t-57 83.5t-84.5 53.5t-104.5 19q-81 0 -147 -28t-113 -76t-72.5 -111.5t-25.5 -133.5q0 -60 18.5 -109.5t53.5 -85.5t84.5 -56t112.5 -20z" />
    <glyph glyph-name="uni1EDB" unicode="&#x1edb;" 
d="M375 591h-58l90 118h73zM487 492q42 -34 66 -85t24 -116q0 -63 -22 -118t-62 -96.5t-96.5 -65.5t-124.5 -24q-55 0 -100 18.5t-77.5 51.5t-50 78.5t-17.5 99.5q0 65 23.5 121.5t65 98.5t97 66t119.5 24q44 0 84 -14q44 2 61.5 25.5t24.5 65.5h64q-9 -48 -27.5 -80.5
t-51.5 -49.5zM281 50q51 0 93 19.5t72 52.5t46.5 77t16.5 93q0 43 -13.5 78t-37.5 60t-57 38.5t-71 13.5q-49 0 -92 -18t-74.5 -50.5t-50 -77t-18.5 -97.5q0 -41 13.5 -76t37.5 -60t58.5 -39t76.5 -14z" />
    <glyph glyph-name="uni1EDC" unicode="&#x1edc;" horiz-adv-x="869" 
d="M440 777l-71 118h73l56 -118h-58zM657 682q67 -43 107.5 -115t40.5 -167q0 -88 -32 -164t-89 -132.5t-135.5 -89t-171.5 -32.5q-79 0 -143 25t-108 69.5t-68 106t-24 135.5q0 89 32 165t89.5 132.5t137 88.5t173.5 32q60 0 114 -18q44 2 61.5 25.5t24.5 65.5h64
q-8 -46 -25.5 -78t-47.5 -49zM376 49q76 0 141 27.5t113 75.5t75 112.5t27 139.5q0 60 -21 109t-57 83.5t-84.5 53.5t-104.5 19q-81 0 -147 -28t-113 -76t-72.5 -111.5t-25.5 -133.5q0 -60 18.5 -109.5t53.5 -85.5t84.5 -56t112.5 -20z" />
    <glyph glyph-name="uni1EDD" unicode="&#x1edd;" 
d="M305 591l-71 118h73l56 -118h-58zM487 492q42 -34 66 -85t24 -116q0 -63 -22 -118t-62 -96.5t-96.5 -65.5t-124.5 -24q-55 0 -100 18.5t-77.5 51.5t-50 78.5t-17.5 99.5q0 65 23.5 121.5t65 98.5t97 66t119.5 24q44 0 84 -14q44 2 61.5 25.5t24.5 65.5h64
q-9 -48 -27.5 -80.5t-51.5 -49.5zM281 50q51 0 93 19.5t72 52.5t46.5 77t16.5 93q0 43 -13.5 78t-37.5 60t-57 38.5t-71 13.5q-49 0 -92 -18t-74.5 -50.5t-50 -77t-18.5 -97.5q0 -41 13.5 -76t37.5 -60t58.5 -39t76.5 -14z" />
    <glyph glyph-name="uni1EDE" unicode="&#x1ede;" horiz-adv-x="869" 
d="M493 898q-30 0 -36 -42h-46q5 37 28.5 62.5t60.5 25.5q30 0 49.5 -19.5t14.5 -49.5q-2 -17 -9 -29t-29 -29q-7 -5 -15 -15t-10 -20l-2 -12h-47q2 26 14.5 43t34.5 35q7 5 10.5 13t4.5 14q1 8 -4.5 15.5t-18.5 7.5zM657 682q67 -43 107.5 -115t40.5 -167q0 -88 -32 -164
t-89 -132.5t-135.5 -89t-171.5 -32.5q-79 0 -143 25t-108 69.5t-68 106t-24 135.5q0 89 32 165t89.5 132.5t137 88.5t173.5 32q60 0 114 -18q44 2 61.5 25.5t24.5 65.5h64q-8 -46 -25.5 -78t-47.5 -49zM376 49q76 0 141 27.5t113 75.5t75 112.5t27 139.5q0 60 -21 109
t-57 83.5t-84.5 53.5t-104.5 19q-81 0 -147 -28t-113 -76t-72.5 -111.5t-25.5 -133.5q0 -60 18.5 -109.5t53.5 -85.5t84.5 -56t112.5 -20z" />
    <glyph glyph-name="uni1EDF" unicode="&#x1edf;" 
d="M358 712q-30 0 -36 -42h-46q5 37 28.5 62.5t60.5 25.5q30 0 49.5 -19.5t14.5 -49.5q-2 -17 -9 -29t-29 -29q-7 -5 -15 -15t-10 -20l-2 -12h-47q2 26 14.5 43t34.5 35q7 5 10.5 13t4.5 14q1 8 -4.5 15.5t-18.5 7.5zM487 492q42 -34 66 -85t24 -116q0 -63 -22 -118
t-62 -96.5t-96.5 -65.5t-124.5 -24q-55 0 -100 18.5t-77.5 51.5t-50 78.5t-17.5 99.5q0 65 23.5 121.5t65 98.5t97 66t119.5 24q44 0 84 -14q44 2 61.5 25.5t24.5 65.5h64q-9 -48 -27.5 -80.5t-51.5 -49.5zM281 50q51 0 93 19.5t72 52.5t46.5 77t16.5 93q0 43 -13.5 78
t-37.5 60t-57 38.5t-71 13.5q-49 0 -92 -18t-74.5 -50.5t-50 -77t-18.5 -97.5q0 -41 13.5 -76t37.5 -60t58.5 -39t76.5 -14z" />
    <glyph glyph-name="uni1EE0" unicode="&#x1ee0;" horiz-adv-x="869" 
d="M480 807q-16 14 -29 22.5t-22.5 8t-16 -12t-10.5 -38.5h-52q6 42 20.5 66t34 33t41.5 3.5t43 -23.5q16 -14 28.5 -22.5t22 -8t16 12.5t10.5 39h52q-6 -42 -20.5 -66.5t-33.5 -33.5t-41 -3.5t-43 23.5zM657 682q67 -43 107.5 -115t40.5 -167q0 -88 -32 -164t-89 -132.5
t-135.5 -89t-171.5 -32.5q-79 0 -143 25t-108 69.5t-68 106t-24 135.5q0 89 32 165t89.5 132.5t137 88.5t173.5 32q60 0 114 -18q44 2 61.5 25.5t24.5 65.5h64q-8 -46 -25.5 -78t-47.5 -49zM376 49q76 0 141 27.5t113 75.5t75 112.5t27 139.5q0 60 -21 109t-57 83.5
t-84.5 53.5t-104.5 19q-81 0 -147 -28t-113 -76t-72.5 -111.5t-25.5 -133.5q0 -60 18.5 -109.5t53.5 -85.5t84.5 -56t112.5 -20z" />
    <glyph glyph-name="uni1EE1" unicode="&#x1ee1;" 
d="M345 621q-16 14 -29 22.5t-22.5 8t-16 -12t-10.5 -38.5h-52q6 42 20.5 66t34 33t41.5 3.5t43 -23.5q16 -14 28.5 -22.5t22 -8t16 12.5t10.5 39h52q-6 -42 -20.5 -66.5t-33.5 -33.5t-41 -3.5t-43 23.5zM487 492q42 -34 66 -85t24 -116q0 -63 -22 -118t-62 -96.5
t-96.5 -65.5t-124.5 -24q-55 0 -100 18.5t-77.5 51.5t-50 78.5t-17.5 99.5q0 65 23.5 121.5t65 98.5t97 66t119.5 24q44 0 84 -14q44 2 61.5 25.5t24.5 65.5h64q-9 -48 -27.5 -80.5t-51.5 -49.5zM281 50q51 0 93 19.5t72 52.5t46.5 77t16.5 93q0 43 -13.5 78t-37.5 60
t-57 38.5t-71 13.5q-49 0 -92 -18t-74.5 -50.5t-50 -77t-18.5 -97.5q0 -41 13.5 -76t37.5 -60t58.5 -39t76.5 -14z" />
    <glyph glyph-name="uni1EE2" unicode="&#x1ee2;" horiz-adv-x="869" 
d="M657 682q67 -43 107.5 -115t40.5 -167q0 -88 -32 -164t-89 -132.5t-135.5 -89t-171.5 -32.5q-79 0 -143 25t-108 69.5t-68 106t-24 135.5q0 89 32 165t89.5 132.5t137 88.5t173.5 32q60 0 114 -18q44 2 61.5 25.5t24.5 65.5h64q-8 -46 -25.5 -78t-47.5 -49zM376 49
q76 0 141 27.5t113 75.5t75 112.5t27 139.5q0 60 -21 109t-57 83.5t-84.5 53.5t-104.5 19q-81 0 -147 -28t-113 -76t-72.5 -111.5t-25.5 -133.5q0 -60 18.5 -109.5t53.5 -85.5t84.5 -56t112.5 -20zM375 -70q23 0 36 -14t13 -43q0 -9 -5 -18.5t-13.5 -18t-20 -14t-25.5 -5.5
q-22 0 -35.5 13.5t-13.5 42.5q0 9 5 19t14 18.5t20.5 14t24.5 5.5z" />
    <glyph glyph-name="uni1EE3" unicode="&#x1ee3;" 
d="M487 492q42 -34 66 -85t24 -116q0 -63 -22 -118t-62 -96.5t-96.5 -65.5t-124.5 -24q-55 0 -100 18.5t-77.5 51.5t-50 78.5t-17.5 99.5q0 65 23.5 121.5t65 98.5t97 66t119.5 24q44 0 84 -14q44 2 61.5 25.5t24.5 65.5h64q-9 -48 -27.5 -80.5t-51.5 -49.5zM281 50
q51 0 93 19.5t72 52.5t46.5 77t16.5 93q0 43 -13.5 78t-37.5 60t-57 38.5t-71 13.5q-49 0 -92 -18t-74.5 -50.5t-50 -77t-18.5 -97.5q0 -41 13.5 -76t37.5 -60t58.5 -39t76.5 -14zM287 -70q23 0 36 -14t13 -43q0 -9 -5 -18.5t-13.5 -18t-20 -14t-25.5 -5.5q-22 0 -35.5 13.5
t-13.5 42.5q0 9 5 19t14 18.5t20.5 14t24.5 5.5z" />
    <glyph glyph-name="uni1EE4" unicode="&#x1ee4;" 
d="M184 718l-54 -411q-3 -23 -6.5 -52t-3.5 -62q0 -72 38 -107.5t109 -35.5q43 0 79.5 13.5t61.5 39.5q38 38 54.5 104.5t28.5 163.5l44 347h71l-48 -362q-5 -38 -10.5 -84t-21.5 -97q-30 -99 -92 -145.5t-166 -46.5q-106 0 -163.5 52.5t-57.5 145.5q0 37 5 71.5t9 65.5
l52 400h71zM264 -70q23 0 36 -14t13 -43q0 -9 -5 -18.5t-13.5 -18t-20 -14t-25.5 -5.5q-22 0 -35.5 13.5t-13.5 42.5q0 9 5 19t14 18.5t20.5 14t24.5 5.5z" />
    <glyph glyph-name="uni1EE5" unicode="&#x1ee5;" horiz-adv-x="608" 
d="M160 531l-30 -222q-5 -34 -9 -64.5t-4 -56.5q0 -31 11 -56.5t31 -43.5t47 -28t59 -10q40 0 75 16.5t57 45.5q25 32 32 71t13 83l38 265h66l-27 -201q-12 -89 -26 -152.5t-41 -101.5q-30 -42 -80 -65.5t-110 -23.5q-46 0 -85 15t-66.5 41t-43 62.5t-15.5 79.5q0 17 3 54.5
t10 89.5l27 202h68zM263 -70q23 0 36 -14t13 -43q0 -9 -5 -18.5t-13.5 -18t-20 -14t-25.5 -5.5q-22 0 -35.5 13.5t-13.5 42.5q0 9 5 19t14 18.5t20.5 14t24.5 5.5z" />
    <glyph glyph-name="uni1EE6" unicode="&#x1ee6;" 
d="M451 875q-2 -17 -9 -29t-29 -29q-7 -5 -15 -15t-10 -20l-2 -12h-47q2 26 14.5 43t34.5 35q7 5 10.5 13t4.5 14q1 8 -4.5 15.5t-18.5 7.5q-30 0 -36 -42h-46q5 37 28.5 62.5t60.5 25.5q30 0 49.5 -19.5t14.5 -49.5zM184 718l-54 -411q-3 -23 -6.5 -52t-3.5 -62
q0 -72 38 -107.5t109 -35.5q43 0 79.5 13.5t61.5 39.5q38 38 54.5 104.5t28.5 163.5l44 347h71l-48 -362q-5 -38 -10.5 -84t-21.5 -97q-30 -99 -92 -145.5t-166 -46.5q-106 0 -163.5 52.5t-57.5 145.5q0 37 5 71.5t9 65.5l52 400h71z" />
    <glyph glyph-name="uni1EE7" unicode="&#x1ee7;" horiz-adv-x="608" 
d="M439 689q-2 -17 -9 -29t-29 -29q-7 -5 -15 -15t-10 -20l-2 -12h-47q2 26 14.5 43t34.5 35q7 5 10.5 13t4.5 14q1 8 -4.5 15.5t-18.5 7.5q-30 0 -36 -42h-46q5 37 28.5 62.5t60.5 25.5q30 0 49.5 -19.5t14.5 -49.5zM160 531l-30 -222q-5 -34 -9 -64.5t-4 -56.5
q0 -31 11 -56.5t31 -43.5t47 -28t59 -10q40 0 75 16.5t57 45.5q25 32 32 71t13 83l38 265h66l-27 -201q-12 -89 -26 -152.5t-41 -101.5q-30 -42 -80 -65.5t-110 -23.5q-46 0 -85 15t-66.5 41t-43 62.5t-15.5 79.5q0 17 3 54.5t10 89.5l27 202h68z" />
    <glyph glyph-name="uni1EE8" unicode="&#x1ee8;" 
d="M397 777h-58l90 118h73zM707 809q-11 -58 -35.5 -93t-72.5 -48l-41 -312q-5 -38 -10.5 -84t-21.5 -97q-30 -99 -92 -145.5t-166 -46.5q-106 0 -163.5 52.5t-57.5 145.5q0 37 5 71.5t9 65.5l52 400h71l-54 -411q-3 -23 -6.5 -52t-3.5 -62q0 -72 38 -107.5t109 -35.5
q43 0 79.5 13.5t61.5 39.5q38 38 54.5 104.5t28.5 163.5l44 347h14q48 0 67.5 23t26.5 68h64z" />
    <glyph glyph-name="uni1EE9" unicode="&#x1ee9;" horiz-adv-x="608" 
d="M385 591h-58l90 118h73zM647 622q-11 -58 -35.5 -93t-72.5 -48l-20 -151q-12 -89 -26 -152.5t-41 -101.5q-30 -42 -80 -65.5t-110 -23.5q-46 0 -85 15t-66.5 41t-43 62.5t-15.5 79.5q0 17 3 54.5t10 89.5l27 202h68l-30 -222q-5 -34 -9 -64.5t-4 -56.5q0 -31 11 -56.5
t31 -43.5t47 -28t59 -10q40 0 75 16.5t57 45.5q25 32 32 71t13 83l38 265h9q48 0 67.5 23t26.5 68h64z" />
    <glyph glyph-name="uni1EEA" unicode="&#x1eea;" 
d="M327 777l-71 118h73l56 -118h-58zM707 809q-11 -58 -35.5 -93t-72.5 -48l-41 -312q-5 -38 -10.5 -84t-21.5 -97q-30 -99 -92 -145.5t-166 -46.5q-106 0 -163.5 52.5t-57.5 145.5q0 37 5 71.5t9 65.5l52 400h71l-54 -411q-3 -23 -6.5 -52t-3.5 -62q0 -72 38 -107.5
t109 -35.5q43 0 79.5 13.5t61.5 39.5q38 38 54.5 104.5t28.5 163.5l44 347h14q48 0 67.5 23t26.5 68h64z" />
    <glyph glyph-name="uni1EEB" unicode="&#x1eeb;" horiz-adv-x="608" 
d="M315 591l-71 118h73l56 -118h-58zM647 622q-11 -58 -35.5 -93t-72.5 -48l-20 -151q-12 -89 -26 -152.5t-41 -101.5q-30 -42 -80 -65.5t-110 -23.5q-46 0 -85 15t-66.5 41t-43 62.5t-15.5 79.5q0 17 3 54.5t10 89.5l27 202h68l-30 -222q-5 -34 -9 -64.5t-4 -56.5
q0 -31 11 -56.5t31 -43.5t47 -28t59 -10q40 0 75 16.5t57 45.5q25 32 32 71t13 83l38 265h9q48 0 67.5 23t26.5 68h64z" />
    <glyph glyph-name="uni1EEC" unicode="&#x1eec;" 
d="M380 898q-30 0 -36 -42h-46q5 37 28.5 62.5t60.5 25.5q30 0 49.5 -19.5t14.5 -49.5q-2 -17 -9 -29t-29 -29q-7 -5 -15 -15t-10 -20l-2 -12h-47q2 26 14.5 43t34.5 35q7 5 10.5 13t4.5 14q1 8 -4.5 15.5t-18.5 7.5zM707 809q-11 -58 -35.5 -93t-72.5 -48l-41 -312
q-5 -38 -10.5 -84t-21.5 -97q-30 -99 -92 -145.5t-166 -46.5q-106 0 -163.5 52.5t-57.5 145.5q0 37 5 71.5t9 65.5l52 400h71l-54 -411q-3 -23 -6.5 -52t-3.5 -62q0 -72 38 -107.5t109 -35.5q43 0 79.5 13.5t61.5 39.5q38 38 54.5 104.5t28.5 163.5l44 347h14q48 0 67.5 23
t26.5 68h64z" />
    <glyph glyph-name="uni1EED" unicode="&#x1eed;" horiz-adv-x="608" 
d="M368 712q-30 0 -36 -42h-46q5 37 28.5 62.5t60.5 25.5q30 0 49.5 -19.5t14.5 -49.5q-2 -17 -9 -29t-29 -29q-7 -5 -15 -15t-10 -20l-2 -12h-47q2 26 14.5 43t34.5 35q7 5 10.5 13t4.5 14q1 8 -4.5 15.5t-18.5 7.5zM647 622q-11 -58 -35.5 -93t-72.5 -48l-20 -151
q-12 -89 -26 -152.5t-41 -101.5q-30 -42 -80 -65.5t-110 -23.5q-46 0 -85 15t-66.5 41t-43 62.5t-15.5 79.5q0 17 3 54.5t10 89.5l27 202h68l-30 -222q-5 -34 -9 -64.5t-4 -56.5q0 -31 11 -56.5t31 -43.5t47 -28t59 -10q40 0 75 16.5t57 45.5q25 32 32 71t13 83l38 265h9
q48 0 67.5 23t26.5 68h64z" />
    <glyph glyph-name="uni1EEE" unicode="&#x1eee;" 
d="M367 807q-16 14 -29 22.5t-22.5 8t-16 -12t-10.5 -38.5h-52q6 42 20.5 66t34 33t41.5 3.5t43 -23.5q16 -14 28.5 -22.5t22 -8t16 12.5t10.5 39h52q-6 -42 -20.5 -66.5t-33.5 -33.5t-41 -3.5t-43 23.5zM707 809q-11 -58 -35.5 -93t-72.5 -48l-41 -312q-5 -38 -10.5 -84
t-21.5 -97q-30 -99 -92 -145.5t-166 -46.5q-106 0 -163.5 52.5t-57.5 145.5q0 37 5 71.5t9 65.5l52 400h71l-54 -411q-3 -23 -6.5 -52t-3.5 -62q0 -72 38 -107.5t109 -35.5q43 0 79.5 13.5t61.5 39.5q38 38 54.5 104.5t28.5 163.5l44 347h14q48 0 67.5 23t26.5 68h64z" />
    <glyph glyph-name="uni1EEF" unicode="&#x1eef;" horiz-adv-x="608" 
d="M355 621q-16 14 -29 22.5t-22.5 8t-16 -12t-10.5 -38.5h-52q6 42 20.5 66t34 33t41.5 3.5t43 -23.5q16 -14 28.5 -22.5t22 -8t16 12.5t10.5 39h52q-6 -42 -20.5 -66.5t-33.5 -33.5t-41 -3.5t-43 23.5zM647 622q-11 -58 -35.5 -93t-72.5 -48l-20 -151q-12 -89 -26 -152.5
t-41 -101.5q-30 -42 -80 -65.5t-110 -23.5q-46 0 -85 15t-66.5 41t-43 62.5t-15.5 79.5q0 17 3 54.5t10 89.5l27 202h68l-30 -222q-5 -34 -9 -64.5t-4 -56.5q0 -31 11 -56.5t31 -43.5t47 -28t59 -10q40 0 75 16.5t57 45.5q25 32 32 71t13 83l38 265h9q48 0 67.5 23t26.5 68
h64z" />
    <glyph glyph-name="uni1EF0" unicode="&#x1ef0;" 
d="M707 809q-11 -58 -35.5 -93t-72.5 -48l-41 -312q-5 -38 -10.5 -84t-21.5 -97q-30 -99 -92 -145.5t-166 -46.5q-106 0 -163.5 52.5t-57.5 145.5q0 37 5 71.5t9 65.5l52 400h71l-54 -411q-3 -23 -6.5 -52t-3.5 -62q0 -72 38 -107.5t109 -35.5q43 0 79.5 13.5t61.5 39.5
q38 38 54.5 104.5t28.5 163.5l44 347h14q48 0 67.5 23t26.5 68h64zM264 -70q23 0 36 -14t13 -43q0 -9 -5 -18.5t-13.5 -18t-20 -14t-25.5 -5.5q-22 0 -35.5 13.5t-13.5 42.5q0 9 5 19t14 18.5t20.5 14t24.5 5.5z" />
    <glyph glyph-name="uni1EF1" unicode="&#x1ef1;" horiz-adv-x="608" 
d="M647 622q-11 -58 -35.5 -93t-72.5 -48l-20 -151q-12 -89 -26 -152.5t-41 -101.5q-30 -42 -80 -65.5t-110 -23.5q-46 0 -85 15t-66.5 41t-43 62.5t-15.5 79.5q0 17 3 54.5t10 89.5l27 202h68l-30 -222q-5 -34 -9 -64.5t-4 -56.5q0 -31 11 -56.5t31 -43.5t47 -28t59 -10
q40 0 75 16.5t57 45.5q25 32 32 71t13 83l38 265h9q48 0 67.5 23t26.5 68h64zM263 -70q23 0 36 -14t13 -43q0 -9 -5 -18.5t-13.5 -18t-20 -14t-25.5 -5.5q-22 0 -35.5 13.5t-13.5 42.5q0 9 5 19t14 18.5t20.5 14t24.5 5.5z" />
    <glyph glyph-name="Ygrave" unicode="&#x1ef2;" horiz-adv-x="592" 
d="M288 777h58l-56 118h-73zM116 718l154 -326l259 326h87l-318 -400l-44 -318h-70l44 322l-187 396h75z" />
    <glyph glyph-name="ygrave" unicode="&#x1ef3;" horiz-adv-x="536" 
d="M279 591h58l-56 118h-73zM94 531l137 -392l228 392h75l-420 -725h-77l150 259l-164 466h71z" />
    <glyph glyph-name="uni1EF4" unicode="&#x1ef4;" horiz-adv-x="592" 
d="M116 718l154 -326l259 326h87l-318 -400l-44 -318h-70l44 322l-187 396h75zM217 -70q23 0 36 -14t13 -43q0 -9 -5 -18.5t-13.5 -18t-20 -14t-25.5 -5.5q-22 0 -35.5 13.5t-13.5 42.5q0 9 5 19t14 18.5t20.5 14t24.5 5.5z" />
    <glyph glyph-name="uni1EF5" unicode="&#x1ef5;" horiz-adv-x="536" 
d="M94 531l137 -392l228 392h75l-420 -725h-77l150 259l-164 466h71zM294 -70q23 0 36 -14t13 -43q0 -9 -5 -18.5t-13.5 -18t-20 -14t-25.5 -5.5q-22 0 -35.5 13.5t-13.5 42.5q0 9 5 19t14 18.5t20.5 14t24.5 5.5z" />
    <glyph glyph-name="uni1EF6" unicode="&#x1ef6;" horiz-adv-x="592" 
d="M412 875q-2 -17 -9 -29t-29 -29q-7 -5 -15 -15t-10 -20l-2 -12h-47q2 26 14.5 43t34.5 35q7 5 10.5 13t4.5 14q1 8 -4.5 15.5t-18.5 7.5q-30 0 -36 -42h-46q5 37 28.5 62.5t60.5 25.5q30 0 49.5 -19.5t14.5 -49.5zM116 718l154 -326l259 326h87l-318 -400l-44 -318h-70
l44 322l-187 396h75z" />
    <glyph glyph-name="uni1EF7" unicode="&#x1ef7;" horiz-adv-x="536" 
d="M403 689q-2 -17 -9 -29t-29 -29q-7 -5 -15 -15t-10 -20l-2 -12h-47q2 26 14.5 43t34.5 35q7 5 10.5 13t4.5 14q1 8 -4.5 15.5t-18.5 7.5q-30 0 -36 -42h-46q5 37 28.5 62.5t60.5 25.5q30 0 49.5 -19.5t14.5 -49.5zM94 531l137 -392l228 392h75l-420 -725h-77l150 259
l-164 466h71z" />
    <glyph glyph-name="uni1EF8" unicode="&#x1ef8;" horiz-adv-x="592" 
d="M198 787q6 42 20.5 66t34 33t41.5 3.5t43 -23.5q16 -14 28.5 -22.5t22 -8t16 12.5t10.5 39h52q-6 -42 -20.5 -66.5t-33.5 -33.5t-41 -3.5t-43 23.5q-16 14 -29 22.5t-22.5 8t-16 -12t-10.5 -38.5h-52zM116 718l154 -326l259 326h87l-318 -400l-44 -318h-70l44 322
l-187 396h75z" />
    <glyph glyph-name="uni1EF9" unicode="&#x1ef9;" horiz-adv-x="536" 
d="M189 601q6 42 20.5 66t34 33t41.5 3.5t43 -23.5q16 -14 28.5 -22.5t22 -8t16 12.5t10.5 39h52q-6 -42 -20.5 -66.5t-33.5 -33.5t-41 -3.5t-43 23.5q-16 14 -29 22.5t-22.5 8t-16 -12t-10.5 -38.5h-52zM94 531l137 -392l228 392h75l-420 -725h-77l150 259l-164 466h71z
" />
    <glyph glyph-name="endash" unicode="&#x2013;" horiz-adv-x="500" 
d="M506 311v-63h-512v63h512z" />
    <glyph glyph-name="emdash" unicode="&#x2014;" horiz-adv-x="1000" 
d="M1006 311v-63h-1012v63h1012z" />
    <glyph glyph-name="quoteleft" unicode="&#x2018;" horiz-adv-x="351" 
d="M146 527q3 26 6.5 51t11 50.5t20.5 52t33 55.5l35 -21q-13 -21 -27.5 -46.5t-22.5 -66.5h43l-19 -135h-86z" />
    <glyph glyph-name="quoteright" unicode="&#x2019;" horiz-adv-x="351" 
d="M246 676q-5 -53 -18 -102.5t-53 -106.5l-35 22q12 20 26.5 45.5t23.5 66.5h-43l19 135h86z" />
    <glyph glyph-name="quotesinglbase" unicode="&#x201a;" horiz-adv-x="354" 
d="M183 75q-3 -27 -7 -52.5t-11.5 -50.5t-20 -51.5t-32.5 -54.5l-35 22q12 20 26.5 45t23.5 67h-43l19 135h86z" />
    <glyph glyph-name="quotedblleft" unicode="&#x201c;" horiz-adv-x="502" 
d="M100 527q3 26 6.5 51t11 50.5t20.5 52t33 55.5l35 -21q-13 -21 -27.5 -46.5t-22.5 -66.5h43l-19 -135h-86zM316 527q3 27 7 52t11.5 50.5t19.5 52t32 54.5l35 -21q-12 -20 -26.5 -45.5t-23.5 -67.5h43l-19 -135h-86z" />
    <glyph glyph-name="quotedblright" unicode="&#x201d;" horiz-adv-x="484" 
d="M191 676q-5 -53 -18 -102.5t-53 -106.5l-35 22q12 20 26.5 45.5t23.5 66.5h-43l19 135h86zM406 676q-5 -52 -18 -102t-53 -107l-35 22q13 21 27.5 46.5t22.5 65.5h-43l19 135h86z" />
    <glyph glyph-name="quotedblbase" unicode="&#x201e;" horiz-adv-x="502" 
d="M150 75q-3 -27 -7 -52.5t-11.5 -50.5t-20 -51.5t-32.5 -54.5l-35 22q12 20 26.5 45t23.5 67h-43l19 135h86zM365 75q-5 -53 -18 -102.5t-53 -106.5l-35 22q12 20 27 45.5t23 66.5h-43l19 135h86z" />
    <glyph glyph-name="dagger" unicode="&#x2020;" horiz-adv-x="553" 
d="M353 736l-43 -223l178 11l-11 -73l-174 12l-73 -616h-74l100 616l-178 -12l10 73l175 -11l18 223h72z" />
    <glyph glyph-name="daggerdbl" unicode="&#x2021;" horiz-adv-x="553" 
d="M354 736l-36 -173l176 12l-10 -72l-173 12l-20 -223l-42 -221l176 10l-10 -73l-173 14l-13 -175h-72l36 175l-176 -14l10 73l173 -10l19 221l44 223l-176 -12l10 72l173 -12l12 173h72z" />
    <glyph glyph-name="bullet" unicode="&#x2022;" horiz-adv-x="606" 
d="M303 514q31 0 58.5 -12t47.5 -32t32 -47.5t12 -58.5t-12 -58t-32 -47.5t-47.5 -32.5t-58.5 -12t-58.5 12t-48 32.5t-32 47.5t-11.5 58t12 58.5t32 47.5t47.5 32t58.5 12z" />
    <glyph glyph-name="ellipsis" unicode="&#x2026;" horiz-adv-x="1000" 
d="M167 105q25 0 42 -17t17 -42t-16.5 -42.5t-42.5 -17.5t-43 18t-17 42q0 25 17.5 42t42.5 17zM500 105q25 0 42.5 -17t17.5 -42t-17 -42.5t-43 -17.5t-42.5 17.5t-16.5 42.5t17 42t42 17zM833 105q25 0 42.5 -17t17.5 -42t-17 -42.5t-43 -17.5t-42.5 18t-16.5 42
q0 25 17 42t42 17z" />
    <glyph glyph-name="perthousand" unicode="&#x2030;" horiz-adv-x="1174" 
d="M432 713q60 0 121.5 9t124.5 28h51l-638 -800h-57l587 738q-41 -10 -90 -16.5t-99 -6.5q-14 0 -31 1.5t-31 2.5q9 -15 16.5 -33.5t7.5 -47.5q0 -39 -14 -74t-39.5 -61t-60.5 -41.5t-78 -15.5q-34 0 -62 11.5t-47.5 31t-30 47t-10.5 58.5q0 40 16 75t42.5 61t60 41
t69.5 15q17 0 36 -3.5t42.5 -8t51.5 -8t62 -3.5zM241 684q-28 0 -52 -11.5t-41 -30.5t-27 -43.5t-10 -49.5q0 -42 26 -71.5t71 -29.5q27 0 50.5 11t40.5 30t26.5 44t9.5 53q0 41 -25.5 69.5t-68.5 28.5zM580 322q30 0 57.5 -11t48.5 -30.5t33.5 -47t12.5 -60.5
q0 -39 -14 -73.5t-39.5 -61t-61 -41.5t-77.5 -15q-35 0 -63 11.5t-47.5 31.5t-30 47t-10.5 58q0 39 15.5 74t42 61t61 41.5t72.5 15.5zM967 322q30 0 57.5 -11t48 -30.5t33 -47t12.5 -60.5q0 -39 -14 -73.5t-39.5 -60.5t-60.5 -41.5t-78 -15.5q-34 0 -62 11.5t-47.5 31
t-30 47t-10.5 58.5q0 39 15.5 74t42 61t61 41.5t72.5 15.5zM578 270q-28 0 -52 -11.5t-41 -30.5t-27 -43.5t-10 -49.5q0 -42 26 -71.5t71 -29.5q27 0 50.5 11t41 30t27 43.5t9.5 52.5q0 41 -26 70t-69 29zM965 270q-28 0 -52 -11.5t-41 -30.5t-27 -43.5t-10 -49.5
q0 -42 26 -71.5t71 -29.5q27 0 50.5 11t40.5 30t26.5 43.5t9.5 52.5q0 41 -25.5 70t-68.5 29z" />
    <glyph glyph-name="guilsinglleft" unicode="&#x2039;" horiz-adv-x="251" 
d="M233 531l-147 -268l69 -263h-66l-73 272l143 259h74z" />
    <glyph glyph-name="guilsinglright" unicode="&#x203a;" horiz-adv-x="251" 
d="M-2 0l148 269l-70 262h67l72 -272l-143 -259h-74z" />
    <glyph glyph-name="fraction" unicode="&#x2044;" horiz-adv-x="166" 
d="M263 736h55l-456 -754h-54z" />
    <glyph glyph-name="Euro" unicode="&#x20ac;" horiz-adv-x="554" 
d="M74 472q51 126 160 195t258 69q40 0 76 -7l-28 -69q-24 6 -51 6q-111 0 -199 -50q-87 -50 -136 -144h320l-28 -69h-316q-10 -33 -10 -83h291l-27 -69h-255q19 -92 99 -146q79 -55 185 -55q43 0 72 7l-9 -68q-28 -6 -60 -6q-141 0 -240 72q-100 73 -122 196h-71l26 69h37
q4 65 9 83h-51l28 69h42z" />
    <glyph glyph-name="uni2113" unicode="&#x2113;" horiz-adv-x="494" 
d="M416 55q-10 -10 -23 -22t-29.5 -22.5t-36 -17t-42.5 -6.5q-26 0 -46 8.5t-34 22.5q-17 19 -26 48.5t-9 66.5v121q-16 -17 -30.5 -33.5t-30.5 -33.5q-8 9 -15.5 17.5t-15.5 17.5q23 26 46 51t46 51v235q0 85 31 127t85 42q26 0 44 -10t29 -25.5t16 -33.5t5 -34
q0 -72 -32 -135.5t-80 -128.5q-8 -9 -17.5 -21.5t-16.5 -20.5v-188q0 -49 18 -70t46 -21t50.5 17t39.5 36q7 -10 14 -19t14 -19zM327 618q0 22 -9 39.5t-30 17.5q-25 0 -39.5 -25.5t-14.5 -90.5v-165q5 6 11 14.5t11 15.5q32 48 51.5 98.5t19.5 95.5z" />
    <glyph glyph-name="trademark" unicode="&#x2122;" horiz-adv-x="1000" 
d="M376 671h-149v-353h-73v353h-148v69h370v-69zM960 318h-73v347l-157 -347h-48l-152 347v-347h-73v422h119l130 -293l138 293h116v-422z" />
    <glyph glyph-name="uni2126" unicode="&#x2126;" horiz-adv-x="712" 
d="M436 57q23 20 50.5 48t50.5 67t38.5 89.5t15.5 115.5q0 59 -15 109t-44.5 87.5t-72.5 58.5t-100 21q-53 0 -97 -20.5t-75.5 -57t-48.5 -87.5t-17 -111q0 -63 15 -113t37.5 -89t50.5 -68t53 -50v-57h-225v57h156q-24 19 -52 48t-51 69.5t-38.5 92.5t-15.5 118
q0 70 22.5 130t63 103.5t97.5 68.5t125 25q72 0 128 -24t95 -67t59 -102.5t20 -131.5q0 -60 -14.5 -110.5t-37 -92t-51 -73.5t-55.5 -54h158v-57h-225v57z" />
    <glyph glyph-name="estimated" unicode="&#x212e;" horiz-adv-x="662" 
d="M166 92q68 -66 162 -66q78 0 129 36t89 98q9 -5 18 -11t19 -11q-23 -34 -48 -62t-55.5 -47.5t-67.5 -30t-84 -10.5q-66 0 -119 24t-90.5 66t-58 98t-20.5 119q0 64 20 120t57 98t91 66t121 24q69 0 122.5 -24t90.5 -66t57.5 -98t21.5 -120h-455v-203zM492 498
q-32 32 -74 50t-90 18t-89 -16.5t-73 -50.5v-166h326v165z" />
    <glyph glyph-name="uni2153" unicode="&#x2153;" horiz-adv-x="831" 
d="M595 736h55l-456 -754h-54zM244 727l-59 -369h-53l51 321h-60l22 48h99zM530 279q3 24 14 42.5t28.5 31t39 19t43.5 6.5q51 0 83.5 -27t32.5 -72q0 -54 -59 -81q50 -33 50 -82q0 -53 -45 -89q-43 -36 -107 -36q-52 0 -90 29.5t-43 86.5h53q12 -68 82 -68q18 0 35.5 6
t31 16t21.5 23.5t8 28.5q0 65 -109 65l6 45h16q39 0 67.5 16t28.5 42q0 21 -19.5 35t-45.5 14q-57 0 -68 -51h-54z" />
    <glyph glyph-name="uni2154" unicode="&#x2154;" horiz-adv-x="831" 
d="M67 606q2 64 40.5 97t98.5 33q52 0 86 -28t34 -71q0 -26 -13 -51t-67 -76l-111 -103h172l-7 -49h-291l194 182q68 63 68 97q0 22 -20 37t-49 15q-77 0 -80 -83h-55zM620 736h54l-455 -754h-54zM530 279q3 24 14.5 42.5t28.5 31t38.5 19t44.5 6.5q49 0 82 -27t33 -72
q0 -54 -59 -81q50 -33 50 -82q0 -53 -45 -89q-43 -36 -106 -36q-54 0 -91.5 29.5t-42.5 86.5h53q12 -68 82 -68q18 0 35.5 6t31 16t21.5 23.5t8 28.5q0 65 -109 65l6 45h16q39 0 67.5 16t28.5 42q0 21 -19.5 35t-45.5 14q-57 0 -68 -51h-54z" />
    <glyph glyph-name="oneeighth" unicode="&#x215b;" horiz-adv-x="831" 
d="M577 736h55l-455 -754h-55zM244 727l-58 -369h-54l51 321h-59l21 48h99zM701 199q63 -30 63 -85q0 -51 -45 -87q-43 -36 -111 -36q-30 0 -54.5 8t-42.5 22.5t-28 33t-10 39.5q0 72 92 110q-45 27 -45 69q0 41 41 73q43 32 96 32q51 0 83.5 -27t32.5 -64q0 -53 -72 -88z
M718 283q0 19 -17.5 33t-44.5 14q-34 0 -58.5 -18t-24.5 -42q0 -20 18.5 -32.5t48.5 -12.5q32 0 55 17t23 41zM711 115q0 22 -20 41.5t-58 19.5q-21 0 -40 -6t-33.5 -16.5t-23 -24.5t-8.5 -31q0 -28 23.5 -44.5t58.5 -16.5q45 0 73 23.5t28 54.5z" />
    <glyph glyph-name="threeeighths" unicode="&#x215c;" horiz-adv-x="831" 
d="M80 637q4 47 42 73t84 26q48 0 81.5 -27t33.5 -72q0 -54 -59 -81q50 -33 50 -82q0 -53 -45 -89q-43 -36 -106 -36q-54 0 -91.5 30t-43.5 87h54q11 -69 82 -69q18 0 35.5 6t30.5 16.5t21 24t8 28.5q0 64 -108 64l6 46q5 -1 9 -1h7q38 0 67 16t29 42q0 22 -19.5 35.5
t-45.5 13.5q-57 0 -68 -51h-54zM607 736h55l-455 -754h-55zM701 199q63 -30 63 -85q0 -51 -45 -87q-43 -36 -111 -36q-30 0 -54.5 8t-42.5 22.5t-28 33t-10 39.5q0 72 92 110q-45 27 -45 69q0 41 41 73q43 32 96 32q51 0 83.5 -27t32.5 -64q0 -53 -72 -88zM718 283
q0 19 -18 33t-44 14q-34 0 -58.5 -18t-24.5 -42q0 -20 18.5 -32.5t48.5 -12.5q32 0 55 17t23 41zM711 115q0 24 -21 42.5t-57 18.5q-21 0 -40 -6t-33.5 -16.5t-23 -24.5t-8.5 -31q0 -28 23.5 -44.5t58.5 -16.5q45 0 73 23.5t28 54.5z" />
    <glyph glyph-name="fiveeighths" unicode="&#x215d;" horiz-adv-x="831" 
d="M602 736h54l-455 -754h-55zM336 727l-8 -48h-137l-26 -75q5 1 9.5 1h7.5q50 0 88 -35q37 -34 37 -85q0 -55 -43 -95q-43 -41 -110 -41q-95 0 -137 84l49 18q29 -54 89 -54q38 0 67 24.5t29 62.5q0 33 -21.5 55t-63.5 22q-31 0 -76 -17l63 183h183zM701 199q63 -30 63 -85
q0 -51 -45 -87q-43 -36 -111 -36q-58 0 -97 30q-38 32 -38 73q0 72 92 110q-45 27 -45 69q0 41 41 73q43 32 96 32q51 0 83.5 -27.5t32.5 -63.5q0 -53 -72 -88zM718 283q0 19 -17.5 33t-44.5 14q-34 0 -58.5 -18t-24.5 -42q0 -20 19 -32.5t48 -12.5q33 0 55.5 17t22.5 41z
M712 115q0 24 -21.5 42.5t-57.5 18.5q-21 0 -40 -6t-33.5 -16.5t-23 -24.5t-8.5 -31q0 -28 23.5 -44.5t58.5 -16.5q45 0 73.5 23.5t28.5 54.5z" />
    <glyph glyph-name="seveneighths" unicode="&#x215e;" horiz-adv-x="831" 
d="M565 736h55l-455 -754h-55zM354 727l-278 -378l-46 26l225 304h-192l10 48h281zM701 199q63 -30 63 -85q0 -51 -45 -87q-43 -36 -111 -36q-30 0 -54.5 8t-42.5 22.5t-28 33t-10 39.5q0 72 92 110q-45 27 -45 69q0 41 41 73q43 32 96 32q51 0 83.5 -27t32.5 -64
q0 -53 -72 -88zM718 283q0 19 -17.5 33t-44.5 14q-34 0 -58.5 -18t-24.5 -42q0 -20 18.5 -32.5t48.5 -12.5q32 0 55 17t23 41zM711 115q0 24 -21 42.5t-57 18.5q-21 0 -40 -6t-33.5 -16.5t-23 -24.5t-8.5 -31q0 -28 23.5 -44.5t58.5 -16.5q45 0 73 23.5t28 54.5z" />
    <glyph glyph-name="partialdiff" unicode="&#x2202;" horiz-adv-x="577" 
d="M527 490q0 -44 -6.5 -93.5t-19.5 -100.5q-14 -54 -38 -109t-58.5 -98.5t-80 -71t-101.5 -27.5q-39 0 -70.5 13t-54.5 37.5t-35.5 59t-12.5 76.5q0 73 23 132.5t60.5 102t85.5 65.5t97 23q54 0 88.5 -23.5t49.5 -52.5h2q2 16 3 33.5t1 39.5q0 88 -37.5 132t-104.5 44
q-23 0 -49 -7t-48 -20l-18 49q18 11 52 21.5t71 10.5q90 0 145.5 -60t55.5 -176zM445 354q-11 38 -41.5 65t-83.5 27q-40 0 -77 -21t-65 -58t-44.5 -86.5t-16.5 -106.5q0 -60 30 -95t78 -35q38 0 72 22t62.5 62.5t50.5 98t35 127.5z" />
    <glyph glyph-name="uni2206" unicode="&#x2206;" horiz-adv-x="610" 
d="M22 35q62 168 122.5 332.5t121.5 332.5h80q60 -168 120.5 -332.5t120.5 -332.5v-35h-565v35zM321 575q-6 17 -9 30.5t-7 24.5h-3q-2 -11 -6 -25.5t-9 -28.5q-47 -131 -93.5 -259t-93.5 -259h407z" />
    <glyph glyph-name="product" unicode="&#x220f;" horiz-adv-x="721" 
d="M565 641h-409v-871h-68v930h545v-930h-68v871z" />
    <glyph glyph-name="summation" unicode="&#x2211;" horiz-adv-x="632" 
d="M28 -200q85 111 169.5 219.5t170.5 219.5q-80 107 -158 213t-158 212v36h527v-57h-436q75 -101 149.5 -201t149.5 -202q-80 -104 -159.5 -206.5t-159.5 -206.5h481v-57h-576v30z" />
    <glyph glyph-name="minus" unicode="&#x2212;" horiz-adv-x="606" 
d="M550 394v-69h-494v69h494z" />
    <glyph glyph-name="uni2215" unicode="&#x2215;" horiz-adv-x="166" 
d="M263 736h55l-456 -754h-54z" />
    <glyph glyph-name="uni2219" unicode="&#x2219;" horiz-adv-x="277" 
d="M124 419q25 0 42 -18t17 -42q0 -25 -17 -42t-42 -17t-42.5 17t-17.5 42q0 24 17 42t43 18z" />
    <glyph glyph-name="radical" unicode="&#x221a;" horiz-adv-x="515" 
d="M494 728q-50 -186 -98.5 -370t-99.5 -370h-56q-35 88 -70.5 174t-71.5 174q-29 -16 -55 -32l-23 42q28 16 55.5 32t54.5 33q35 -84 68.5 -166.5t68.5 -166.5q44 163 86.5 325t86.5 325h54z" />
    <glyph glyph-name="infinity" unicode="&#x221e;" horiz-adv-x="785" 
d="M733 294q0 -33 -11 -62.5t-31.5 -51.5t-49.5 -35t-66 -13q-61 0 -107 33.5t-75 80.5h-2q-32 -48 -78 -81t-101 -33q-37 0 -66.5 12t-50.5 33t-32.5 50t-11.5 63q0 35 11 64.5t32 51t50 33.5t65 12q33 0 60.5 -10t50 -25.5t40.5 -36t31 -41.5h2q12 19 29.5 39t40 36.5
t49.5 27t59 10.5q35 0 65 -11t51.5 -31.5t33.5 -49.5t12 -65zM364 292q-29 48 -69 77.5t-82 29.5q-53 0 -78 -32.5t-25 -76.5q0 -47 29 -76.5t74 -29.5q48 0 85.5 32t65.5 76zM673 293q0 43 -25 74.5t-78 31.5q-48 0 -84 -30t-66 -77q30 -51 68.5 -79t80.5 -28q27 0 47 9
t32.5 24t18.5 34.5t6 40.5z" />
    <glyph glyph-name="integral" unicode="&#x222b;" horiz-adv-x="492" 
d="M411 684q-7 3 -19.5 6t-26.5 3q-43 0 -64.5 -26.5t-21.5 -75.5v-657q0 -76 -39 -118t-108 -42q-17 0 -36.5 3t-30.5 8l14 53q9 -4 20.5 -6.5t26.5 -2.5q43 0 64.5 26t21.5 76v658q0 74 38.5 117t109.5 43q19 0 38.5 -4t27.5 -9z" />
    <glyph glyph-name="approxequal" unicode="&#x2248;" horiz-adv-x="606" 
d="M531 420q-23 -35 -54 -59t-76 -24q-28 0 -54.5 8.5t-50.5 23.5q-20 13 -42.5 22.5t-45.5 9.5q-27 0 -49.5 -19.5t-37.5 -45.5l-45 50q23 34 53 58.5t78 24.5q29 0 54.5 -8.5t48.5 -22.5q24 -15 45 -24t44 -9q26 0 48.5 19t38.5 46zM531 203q-23 -35 -54 -59t-76 -24
q-28 0 -54.5 8.5t-50.5 23.5q-20 13 -42.5 22.5t-45.5 9.5q-27 0 -49.5 -19.5t-37.5 -45.5l-45 51q23 34 53 58t78 24q29 0 54.5 -8.5t48.5 -22.5q24 -15 45 -24t44 -9q26 0 48.5 19t38.5 46z" />
    <glyph glyph-name="notequal" unicode="&#x2260;" horiz-adv-x="606" 
d="M213 26h-73l59 126h-105v68h137l69 150h-206v68h238l61 131h72l-61 -131h109v-68h-141l-70 -150h211v-68h-242z" />
    <glyph glyph-name="lessequal" unicode="&#x2264;" horiz-adv-x="606" 
d="M94 379l419 194v-74l-321 -144v-2l321 -145v-73l-419 194v50zM94 68h419v-68h-419v68z" />
    <glyph glyph-name="greaterequal" unicode="&#x2265;" horiz-adv-x="606" 
d="M94 209l321 144v2l-321 145v73l419 -193v-51l-419 -194v74zM94 68h418v-68h-418v68z" />
    <glyph glyph-name="lozenge" unicode="&#x25ca;" horiz-adv-x="561" 
d="M505 350q-51 -88 -102.5 -175t-103.5 -175h-37q-51 88 -102.5 174.5t-103.5 174.5q52 88 103.5 175.5t102.5 175.5h37q52 -88 103.5 -175t102.5 -175zM445 350q-42 69 -82.5 138.5t-81.5 139.5q-42 -70 -82.5 -139.5t-82.5 -138.5l164 -278q42 70 82.5 139t82.5 139z" />
    <glyph glyph-name="uniE000" unicode="&#xe000;" horiz-adv-x="120" 
d="M-4 527q35 56 42 96h-37l16 114h73l-5 -51q-6 -66 -20 -105q-7 -19 -17 -37t-23 -35z" />
    <glyph glyph-name="uniE001" unicode="&#xe001;" horiz-adv-x="235" 
d="M155 527l111 139l37 -15l-98 -147z" />
    <glyph glyph-name="zero.denominator" unicode="&#xf655;" horiz-adv-x="332" 
d="M280 238q0 -100 -48 -174q-48 -73 -129 -73q-51 0 -84 35t-33 104q0 112 49 179q50 69 126 69q51 0 85 -36.5t34 -103.5zM226 244q0 42 -19.5 64.5t-49.5 22.5q-47 0 -81 -55q-35 -56 -35 -149q0 -46 19 -67.5t45 -21.5q49 0 85 57t36 149z" />
    <glyph glyph-name="one.denominator" unicode="&#xf656;" horiz-adv-x="332" 
d="M196 369l-59 -369h-53l51 321h-60l22 48h99z" />
    <glyph glyph-name="two.denominator" unicode="&#xf657;" horiz-adv-x="332" 
d="M26 248q2 64 41 97t99 33q51 0 85 -28t34 -71q0 -26 -13 -51q-12 -25 -66 -76l-111 -103h172l-8 -49h-291l195 182q68 63 68 97q0 22 -20.5 37t-49.5 15q-75 0 -80 -83h-55z" />
    <glyph glyph-name="three.denominator" unicode="&#xf658;" horiz-adv-x="332" 
d="M32 279q3 24 14 42.5t28 31t38.5 19t44.5 6.5q49 0 82.5 -27t33.5 -72q0 -54 -60 -81q51 -33 51 -82q0 -53 -45 -89q-43 -36 -107 -36q-52 0 -90.5 29.5t-43.5 86.5h54q11 -68 81 -68q19 0 36.5 6t30.5 16t21 23.5t8 28.5q0 65 -108 65l6 45h16q39 0 67.5 16t28.5 42
q0 21 -20 35t-45 14q-59 0 -68 -51h-54z" />
    <glyph glyph-name="four.denominator" unicode="&#xf659;" horiz-adv-x="332" 
d="M213 125h59l-7 -49h-59l-12 -76h-53l12 76h-194l296 314zM74 125h87l17 110z" />
    <glyph glyph-name="five.denominator" unicode="&#xf65a;" horiz-adv-x="332" 
d="M288 369l-8 -48h-137l-26 -74h17q50 0 87 -35q37 -34 37 -85q0 -54 -42 -95q-43 -41 -110 -41q-96 0 -137 84l49 18q29 -54 89 -54q18 0 35.5 6t31 17.5t21.5 27.5t8 36q0 32 -21.5 54t-63.5 22q-32 0 -76 -15l62 182h184z" />
    <glyph glyph-name="six.denominator" unicode="&#xf65b;" horiz-adv-x="332" 
d="M219 350l-99 -99q7 1 12.5 1h9.5q50 0 90 -36t40 -93q0 -54 -43 -93q-42 -39 -107 -39q-66 0 -104.5 34.5t-38.5 88.5q0 36 17.5 69.5t65.5 80.5l115 114zM218 126q0 35 -26 58.5t-65 23.5q-42 0 -68.5 -26.5t-26.5 -62.5q0 -35 25.5 -57.5t63.5 -22.5q40 0 68.5 25
t28.5 62z" />
    <glyph glyph-name="seven.denominator" unicode="&#xf65c;" horiz-adv-x="332" 
d="M306 369l-279 -378l-45 26l225 304h-192l9 48h282z" />
    <glyph glyph-name="eight.denominator" unicode="&#xf65d;" horiz-adv-x="332" 
d="M203 199q63 -30 63 -85q0 -51 -45 -87q-43 -36 -112 -36q-55 0 -95 29q-39 30 -39 74q0 72 92 110q-46 27 -46 69q0 41 41 73q43 32 97 32q51 0 83 -27.5t32 -63.5q0 -53 -71 -88zM220 283q0 19 -17.5 33t-45.5 14q-34 0 -58 -18t-24 -42q0 -20 18.5 -32.5t47.5 -12.5
q33 0 56 17t23 41zM213 115q0 22 -20.5 41.5t-57.5 19.5q-21 0 -40.5 -6t-34 -16.5t-23 -24.5t-8.5 -31q0 -28 23.5 -44.5t59.5 -16.5q45 0 73 23.5t28 54.5z" />
    <glyph glyph-name="nine.denominator" unicode="&#xf65e;" horiz-adv-x="332" 
d="M45 20l99 98q-7 -1 -12 -1h-9q-48 0 -89 34q-42 35 -42 95q0 54 42 93t108 39t105 -34.5t39 -88.5q0 -36 -18 -69.5t-66 -80.5l-116 -114zM45 243q0 -35 26.5 -58t64.5 -23q42 0 69 26t27 62q0 35 -25.5 57.5t-62.5 22.5q-42 0 -70.5 -25t-28.5 -62z" />
    <glyph glyph-name="zero.numerator" unicode="&#xf661;" horiz-adv-x="332" 
d="M325 597q0 -100 -48 -174q-48 -73 -129 -73q-51 0 -84 35t-33 104q0 112 49 179q50 69 126 69q51 0 85 -36.5t34 -103.5zM271 603q0 42 -19.5 64.5t-49.5 22.5q-47 0 -81 -55q-35 -56 -35 -149q0 -46 19 -67.5t45 -21.5q49 0 85 57t36 149z" />
    <glyph glyph-name="one.numerator" unicode="&#xf662;" horiz-adv-x="332" 
d="M243 727l-58 -369h-54l51 321h-59l21 48h99z" />
    <glyph glyph-name="two.numerator" unicode="&#xf663;" horiz-adv-x="332" 
d="M66 606q2 64 41 97t99 33q51 0 85 -28t34 -71q0 -26 -13 -51q-12 -25 -66 -76l-111 -103h172l-8 -49h-291l195 182q68 63 68 97q0 22 -20.5 37t-49.5 15q-75 0 -80 -83h-55z" />
    <glyph glyph-name="three.numerator" unicode="&#xf664;" horiz-adv-x="332" 
d="M80 637q3 24 14 42.5t28 31t38.5 19t44.5 6.5q49 0 82.5 -27t33.5 -72q0 -54 -60 -81q51 -33 51 -82q0 -53 -45 -89q-43 -36 -107 -36q-54 0 -91.5 30t-42.5 87h54q11 -69 81 -69q19 0 36.5 6t30.5 16.5t21 24t8 28.5q0 64 -109 64l7 46q5 -1 9 -1h6q38 0 67.5 16
t29.5 42q0 22 -20 35.5t-45 13.5q-59 0 -68 -51h-54z" />
    <glyph glyph-name="four.numerator" unicode="&#xf665;" horiz-adv-x="332" 
d="M260 482h60l-8 -48h-59l-12 -76h-53l12 76h-194l297 314zM122 482h86l18 111z" />
    <glyph glyph-name="five.numerator" unicode="&#xf666;" horiz-adv-x="332" 
d="M335 727l-8 -48h-137l-26 -75q5 1 9.5 1h7.5q50 0 88 -35q37 -34 37 -85q0 -55 -43 -95q-43 -41 -110 -41q-95 0 -137 84l49 18q29 -54 89 -54q38 0 67 24.5t29 62.5q0 33 -21.5 55t-63.5 22q-31 0 -76 -17l63 183h183z" />
    <glyph glyph-name="six.numerator" unicode="&#xf667;" horiz-adv-x="332" 
d="M267 708l-100 -99q8 1 13 1.5t9 0.5q46 0 89 -35q42 -34 42 -95q0 -53 -43 -93q-42 -39 -108 -39t-104.5 34.5t-38.5 88.5q0 37 18 70t66 80l115 114zM266 485q0 34 -25.5 57.5t-65.5 23.5q-42 0 -68.5 -26.5t-26.5 -62.5q0 -35 25.5 -57.5t62.5 -22.5q42 0 70 25.5
t28 62.5z" />
    <glyph glyph-name="seven.numerator" unicode="&#xf668;" horiz-adv-x="332" 
d="M354 727l-279 -378l-45 26l225 304h-193l10 48h282z" />
    <glyph glyph-name="eight.numerator" unicode="&#xf669;" horiz-adv-x="332" 
d="M250 557q63 -28 63 -85q0 -51 -45 -87q-43 -36 -111 -36q-55 0 -96 30q-39 30 -39 74q0 71 92 109q-46 27 -46 69q0 41 41 73q43 32 97 32q51 0 83.5 -27t32.5 -64q0 -53 -72 -88zM267 641q0 19 -17.5 33t-44.5 14q-35 0 -59 -18t-24 -42q0 -19 17.5 -32t48.5 -13
q33 0 56 17.5t23 40.5zM260 473q0 24 -21 42.5t-57 18.5q-21 0 -40 -5.5t-33.5 -16t-23 -24.5t-8.5 -31q0 -29 23.5 -45t58.5 -16q45 0 73 23t28 54z" />
    <glyph glyph-name="nine.numerator" unicode="&#xf66a;" horiz-adv-x="332" 
d="M93 378l98 98q-7 -1 -12 -1h-9q-48 0 -89 34q-42 35 -42 95q0 54 42 93q44 39 108 39q66 0 105 -35t39 -87q0 -37 -18 -70t-65 -81l-116 -114zM93 601q0 -35 26 -58t65 -23q42 0 68.5 26t26.5 62q0 35 -25 57.5t-63 22.5q-42 0 -70 -25t-28 -62z" />
    <glyph glyph-name="uniF6C3" unicode="&#xf6c3;" horiz-adv-x="0" 
d="M-192 -62q21 7 46 7q77 0 77 -53q0 -34 -30.5 -56t-81.5 -22q-16 0 -33.5 3t-37.5 8l11 35q31 -7 50 -7q64 0 64 32q0 21 -36 21q-14 0 -35 -7z" />
    <glyph glyph-name="uni03020300" horiz-adv-x="0" 
d="M-150 670h58l-56 118h-73zM-360 610h-68l114 118h70l80 -118h-68l-53 79z" />
    <glyph glyph-name="uni03020301" horiz-adv-x="0" 
d="M-149 777l-90 -118h58l105 118h-73zM-431 610h-68l114 118h70l80 -118h-68l-53 79z" />
    <glyph glyph-name="uni03020303" horiz-adv-x="0" 
d="M-340 742q6 42 20 66t33.5 33t42 3.5t43.5 -23.5q16 -14 28.5 -22.5t22 -8t16 12.5t10.5 39h52q-6 -42 -20.5 -66.5t-33.5 -33.5t-41.5 -3.5t-43.5 23.5q-16 14 -28.5 22.5t-22 8t-16 -12t-10.5 -38.5h-52zM-296 610h-68l114 118h70l80 -118h-68l-53 79z" />
    <glyph glyph-name="uni03020309" horiz-adv-x="0" 
d="M-77 776q-2 -17 -8.5 -29t-29.5 -29q-7 -5 -15 -15t-10 -20l-1 -12h-47q2 26 14 43t35 35q7 5 10 13t4 14q2 8 -3.5 15.5t-18.5 7.5q-30 0 -36 -42h-46q5 37 28 62.5t60 25.5q30 0 49.5 -19.5t14.5 -49.5zM-382 610h-68l114 118h70l80 -118h-68l-53 79z" />
    <glyph glyph-name="uni03060300" horiz-adv-x="0" 
d="M-238 724h58l-56 118h-73zM-227 602q-57 0 -87.5 30.5t-22.5 87.5h58q-5 -35 10 -50t49 -15t54 15t25 50h58q-8 -57 -46.5 -87.5t-97.5 -30.5z" />
    <glyph glyph-name="uni03060301" horiz-adv-x="0" 
d="M-153 844l-89 -118h58l104 118h-73zM-227 602q-57 0 -87.5 30.5t-22.5 87.5h58q-5 -35 10 -50t49 -15t54 15t25 50h58q-8 -57 -46.5 -87.5t-97.5 -30.5z" />
    <glyph glyph-name="uni03060303" horiz-adv-x="0" 
d="M-333 747q6 42 20 66t33.5 33t42 3.5t43.5 -23.5q16 -14 28.5 -22.5t22 -8t16 12.5t10.5 39h52q-6 -42 -20.5 -66.5t-33.5 -33.5t-41.5 -3.5t-43.5 23.5q-16 14 -28.5 22.5t-22 8t-16 -12t-10.5 -38.5h-52zM-227 602q-57 0 -87.5 30.5t-22.5 87.5h58q-5 -35 10 -50
t49 -15t54 15t25 50h58q-8 -57 -46.5 -87.5t-97.5 -30.5z" />
    <glyph glyph-name="uni03060309" horiz-adv-x="0" 
d="M-121 824q-2 -17 -9 -29t-29 -29q-7 -5 -15 -15t-10 -20l-1 -12h-47q2 26 14 43t35 35q7 5 10 13t4 14q2 8 -3.5 15.5t-18.5 7.5q-30 0 -36 -42h-46q5 37 28 62.5t60 25.5q30 0 49.5 -19.5t14.5 -49.5zM-227 602q-57 0 -87.5 30.5t-22.5 87.5h58q-5 -35 10 -50t49 -15
t54 15t25 50h58q-8 -57 -46.5 -87.5t-97.5 -30.5z" />
    </font>
</defs>
</svg>
