<?xml version="1.0" standalone="no"?>
<!DOCTYPE svg PUBLIC "-//W3C//DTD SVG 1.1//EN" "http://www.w3.org/Graphics/SVG/1.1/DTD/svg11.dtd" >
<svg xmlns="http://www.w3.org/2000/svg" xmlns:xlink="http://www.w3.org/1999/xlink" version="1.1">
<metadata>
Created by FontForge 20190801 at Mon May 13 02:56:24 2019
 By Unknown
Copyright The Monotype Corporation. All rights reserved.
</metadata>
<defs>
<font id="iCielCenturyGothicPro-Regular" horiz-adv-x="655" >
  <font-face 
    font-family="iCiel Century Gothic Pro"
    font-weight="400"
    font-stretch="normal"
    units-per-em="1000"
    panose-1="2 11 5 2 2 2 2 2 2 4"
    ascent="736"
    descent="-264"
    x-height="531"
    cap-height="718"
    bbox="-499 -230 1153 1080"
    underline-thickness="50"
    underline-position="-100"
    unicode-range="U+000D-FB04"
  />
<missing-glyph horiz-adv-x="500" 
d="M487 665v-665h-475v665h475zM411 618h-323l162 -243zM60 91l7 10t18 27t25.5 39t30.5 45q35 53 80 121l-161 242v-484zM440 90v485l-162 -242zM88 48h323l-161 242z" />
    <glyph glyph-name="f_f" unicode="ff" horiz-adv-x="553" 
d="M177 0h-69v473h-69v58h69v24q0 77 16 110q17 36 51.5 60.5t91.5 24.5q62 0 102 -35q33 35 94 35q37 0 88 -14v-67q-42 17 -73 17q-36 0 -49 -17.5t-13 -65.5v-72h111v-58h-111v-473h-69v473h-170v-473zM347 531v86q-12 68 -81 68q-33 0 -53 -15q-19 -14 -28 -36
q-8 -22 -8 -79v-24h170z" />
    <glyph glyph-name="fi" unicode="fi" horiz-adv-x="487" 
d="M109 566q0 94 42.5 139.5t117.5 45.5q66 0 106 -38t44 -96h-69q-14 68 -82 68q-51 0 -69 -31.5t-18 -87.5v-35h109v-60h-109v-471h-72v471h-68v60h68v35zM419 531v-531h-68v531h68z" />
    <glyph glyph-name="fl" unicode="fl" horiz-adv-x="485" 
d="M295 471h-109v-471h-72v471h-69v60h69v35q0 21 1 35.5t6 34.5q13 54 52.5 84t96.5 30q45 0 79 -19.5t54 -54.5q13 -23 17 -53t4 -68v-555h-72v557q0 25 -2.5 48.5t-11 42t-25 29.5t-44.5 11q-48 0 -65.5 -33t-17.5 -90v-34h109v-60z" />
    <glyph glyph-name="f_f_i" unicode="ffi" horiz-adv-x="727" 
d="M180 0h-70v471h-69v60h69v24q0 75 17 111t52 60t90 24q76 0 119 -51q44 51 120 51q34 0 61.5 -10.5t47 -29t30.5 -42.5t12 -51h-70q-14 68 -81 68q-29 0 -51 -14q-10 -6 -17.5 -14.5t-12 -21t-6.5 -32t-2 -48.5v-24h110v-60h-110v-471h-69v471h-170v-471zM350 531v24
q0 14 0.5 26.5t1.5 24.5q-12 79 -84 79q-33 0 -53 -15t-27 -37q-8 -22 -8 -78v-24h170zM659 531v-531h-70v531h70z" />
    <glyph glyph-name="f_f_l" unicode="ffl" horiz-adv-x="724" 
d="M184 0h-70v471h-69v60h69v24q0 78 16 111q17 35 51.5 59.5t91.5 24.5q74 0 118 -50q45 50 117 50q54 0 92 -29q39 -29 49 -63q12 -34 12 -117v-541h-70v544q0 60 -6 84q-5 25 -25.5 42t-51.5 17q-29 0 -51 -17q-19 -16 -27 -39q-6 -22 -6 -82v-18h109v-60h-109v-471h-70
v471h-170v-471zM354 531v18v31.5t1 25.5q-9 79 -83 79q-33 0 -53 -15t-27 -37q-8 -22 -8 -78v-24h170z" />
    <glyph glyph-name=".notdef" horiz-adv-x="500" 
d="M487 665v-665h-475v665h475zM411 618h-323l162 -243zM60 91l7 10t18 27t25.5 39t30.5 45q35 53 80 121l-161 242v-484zM440 90v485l-162 -242zM88 48h323l-161 242z" />
    <glyph glyph-name=".null" horiz-adv-x="0" 
 />
    <glyph glyph-name=".null" horiz-adv-x="0" 
 />
    <glyph glyph-name="nonmarkingreturn" unicode="&#xd;" horiz-adv-x="250" 
 />
    <glyph glyph-name="space" unicode=" " horiz-adv-x="277" 
 />
    <glyph glyph-name="exclam" unicode="!" horiz-adv-x="295" 
d="M181 180h-69v556h69v-556zM147 108q24 0 42 -17.5t18 -43.5t-17.5 -43.5t-42.5 -17.5q-26 0 -43 18t-17 43t17.5 43t42.5 18z" />
    <glyph glyph-name="quotedbl" unicode="&#x22;" horiz-adv-x="309" 
d="M35 510l-11 226h72l-11 -226h-50zM225 510l-11 226h72l-11 -226h-50z" />
    <glyph glyph-name="numbersign" unicode="#" horiz-adv-x="720" 
d="M602 241h-121l-35 -241h-54l35 241h-163l-37 -241h-54l37 241h-120v53h128l25 163h-123v53h131l34 229h53l-34 -229h163l33 229h54l-33 -229h109v-53h-117l-23 -163h112v-53zM296 457l-24 -163h162l25 163h-163z" />
    <glyph glyph-name="dollar" unicode="$" horiz-adv-x="554" 
d="M323 768v-53q45 -8 79.5 -29t67.5 -68l-53 -43q-20 31 -41.5 47t-52.5 23v-243q42 -22 78.5 -43.5t63.5 -47.5t42.5 -59t15.5 -78q0 -34 -12 -65.5t-36.5 -57.5t-62.5 -44t-89 -25v-153h-64v153q-71 6 -127.5 34.5t-96.5 94.5l52 39q67 -89 172 -100v302q-35 17 -67.5 34
t-57 39t-39 51t-14.5 70q0 30 11 59t33 52.5t55.5 39.5t78.5 21v50h64zM259 650q-55 -5 -81.5 -34t-26.5 -68q0 -38 26.5 -66t81.5 -54v222zM323 52q59 8 94.5 41.5t35.5 78.5q0 51 -34.5 86.5t-95.5 67.5v-274z" />
    <glyph glyph-name="percent" unicode="%" horiz-adv-x="775" 
d="M152 -50h-65l476 729q-51 -12 -103.5 -16.5t-109.5 -4.5l-19 1q14 -20 22 -41t8 -51q0 -31 -12 -61.5t-34.5 -54.5t-54 -38.5t-70.5 -14.5q-36 0 -67 13.5t-53 36.5t-34.5 53.5t-12.5 64.5q0 39 14.5 70t38.5 53.5t54 34.5t61 12q14 0 30.5 -3.5t39.5 -7.5t53.5 -7.5
t73.5 -3.5q81 0 136 12.5t93 23.5h58zM192 674q-22 0 -41.5 -8.5t-34 -23t-23 -34t-8.5 -41.5q0 -27 9.5 -47t24.5 -33.5t34 -20t39 -6.5t39.5 6.5t34.5 20t24 33.5t9 47q0 20 -9 39.5t-24 34.5t-34.5 24t-39.5 9zM415 148q0 42 14.5 74t38.5 53t54.5 31.5t61.5 10.5
q32 0 62.5 -10.5t54 -31.5t38 -53t14.5 -74q0 -32 -14.5 -62.5t-38 -54t-54 -38t-62.5 -14.5q-35 0 -65.5 13.5t-53.5 36.5t-36.5 53.5t-13.5 65.5zM691 148q0 25 -10.5 44.5t-27 33.5t-38 21.5t-42.5 7.5q-18 0 -35.5 -6t-31 -19t-21.5 -33t-8 -49q0 -22 8.5 -41.5
t23 -33.5t34 -22.5t41.5 -8.5t41.5 8.5t34 22.5t23 33.5t8.5 41.5z" />
    <glyph glyph-name="ampersand" unicode="&#x26;" horiz-adv-x="757" 
d="M539 96q-31 -24 -61.5 -44.5t-62 -35.5t-66.5 -24t-77 -9q-45 0 -79 13.5t-57 36t-35 53t-12 63.5q0 36 12.5 67t35 60t54 57.5t70.5 59.5q-43 51 -67.5 89t-24.5 80q0 29 12.5 52.5t34 40.5t50.5 26.5t62 9.5q35 0 64 -10t49.5 -27.5t32 -41t11.5 -51.5
q0 -46 -32.5 -88.5t-91.5 -92.5q91 -97 136.5 -142t47.5 -47q24 20 46.5 39t40.5 36l48 -52q-19 -17 -40 -35t-44 -37q35 -38 70 -72t66 -70h-100q-37 40 -60.5 63t-32.5 33zM317 434q98 77 98 128q0 26 -25.5 44.5t-63.5 18.5q-16 0 -31.5 -4.5t-28 -12.5t-20 -20t-7.5 -27
q0 -40 78 -127zM308 338q-69 -52 -109 -94.5t-40 -90.5q0 -19 8.5 -37.5t24.5 -33.5t38 -24t49 -9q50 0 101 27t111 70q-38 39 -84.5 85.5t-98.5 106.5z" />
    <glyph glyph-name="quotesingle" unicode="'" horiz-adv-x="198" 
d="M74 510l-11 226h72l-11 -226h-50z" />
    <glyph glyph-name="parenleft" unicode="(" horiz-adv-x="369" 
d="M209 -208q-37 88 -58.5 204t-21.5 247q0 137 25 265.5t75 241.5h79q-48 -97 -76 -226t-28 -273q0 -131 21 -249.5t59 -209.5h-75z" />
    <glyph glyph-name="parenright" unicode=")" horiz-adv-x="369" 
d="M159 750q36 -87 57 -203t21 -247q0 -137 -24.5 -266t-73.5 -242h-79q48 97 77.5 225.5t29.5 273.5q0 132 -22.5 250t-60.5 209h75z" />
    <glyph glyph-name="asterisk" unicode="*" horiz-adv-x="425" 
d="M244 736l-14 -145l120 86l32 -54l-135 -61l135 -60l-32 -56l-120 85l14 -145h-64l16 145l-121 -85l-32 56l137 60l-137 61l32 54l121 -86l-16 145h64z" />
    <glyph glyph-name="plus" unicode="+" horiz-adv-x="606" 
d="M270 605h68v-212h212v-67h-212v-212h-68v212h-214v67h214v212z" />
    <glyph glyph-name="comma" unicode="," horiz-adv-x="277" 
d="M210 101l-99 -185l-48 20l82 196z" />
    <glyph glyph-name="hyphen" unicode="-" horiz-adv-x="332" 
d="M301 300v-60h-269v60h269z" />
    <glyph glyph-name="period" unicode="." horiz-adv-x="277" 
d="M151 108q24 0 42 -17.5t18 -43.5t-17.5 -43.5t-42.5 -17.5q-26 0 -43 18t-17 43t17.5 43t42.5 18z" />
    <glyph glyph-name="slash" unicode="/" horiz-adv-x="437" 
d="M110 -98h-75l298 834h75z" />
    <glyph glyph-name="zero" unicode="0" horiz-adv-x="554" 
d="M31 360q0 38 2 75.5t10 75.5q21 109 82.5 167t149.5 58q68 0 123.5 -39t87.5 -113q21 -48 28.5 -103.5t7.5 -120.5t-8 -121t-28 -104q-32 -74 -87.5 -113.5t-123.5 -39.5q-60 0 -108.5 28t-81.5 83q-32 52 -43 118t-11 149zM101 359q0 -75 8 -131.5t33 -98.5
q23 -39 59 -60t75 -21t72 19t56.5 57.5t37 97t13.5 137.5q0 158 -50 234.5t-129 76.5q-40 0 -75.5 -22t-58.5 -61q-25 -42 -33 -98t-8 -130z" />
    <glyph glyph-name="one" unicode="1" horiz-adv-x="554" 
d="M185 718h142v-718h-72v648h-113z" />
    <glyph glyph-name="two" unicode="2" horiz-adv-x="554" 
d="M305 296q32 34 56.5 62.5t41.5 54.5t26 52t9 55q0 31 -12 58.5t-33 47.5t-49 32t-61 12q-69 0 -114.5 -47t-52.5 -130h-69q2 53 20.5 97.5t50.5 76.5t75 50.5t93 18.5q49 0 89.5 -17t70 -46t46 -68.5t16.5 -84.5q0 -37 -10.5 -69t-29 -62.5t-45 -61t-58.5 -65.5
l-179 -192h332v-70h-488z" />
    <glyph glyph-name="three" unicode="3" horiz-adv-x="554" 
d="M401 551q0 23 -9.5 44t-26.5 36.5t-41.5 25t-53.5 9.5q-53 0 -85 -28.5t-53 -85.5h-73q20 93 77.5 138.5t132.5 45.5q44 0 81.5 -14.5t65.5 -39.5t44 -59t16 -72q0 -93 -92 -147q64 -26 97.5 -78t33.5 -112q0 -45 -17 -87t-49 -74t-77 -51.5t-101 -19.5q-94 0 -155 52.5
t-81 157.5h71q18 -69 57 -104.5t109 -35.5q39 0 71 13t54.5 34.5t35 50t12.5 59.5q0 40 -21 74.5t-59 54.5q-31 17 -63 21t-67 6v66q86 5 126 37.5t40 82.5z" />
    <glyph glyph-name="four" unicode="4" horiz-adv-x="554" 
d="M441 736v-499h87v-70h-87v-167h-72v167h-343l400 569h15zM369 535l-211 -298h211v298z" />
    <glyph glyph-name="five" unicode="5" horiz-adv-x="554" 
d="M492 648h-256l-35 -194q14 4 34 8.5t50 4.5q51 0 92.5 -18t71.5 -49t46.5 -73.5t16.5 -92.5q0 -52 -17.5 -97.5t-50 -79.5t-79 -54t-105.5 -20q-46 0 -83.5 14.5t-66 40t-46 60.5t-23.5 76h74q7 -33 22 -56.5t35.5 -39t44.5 -22.5t48 -7q35 0 66 14t54.5 39t37.5 59.5
t14 75.5q0 73 -45.5 118.5t-123.5 45.5q-42 0 -79.5 -12t-73.5 -27l66 356h311v-70z" />
    <glyph glyph-name="six" unicode="6" horiz-adv-x="554" 
d="M426 698l-193 -294q13 5 30 9t43 4q45 0 82.5 -17t64.5 -46.5t42 -68t15 -82.5q0 -50 -18.5 -91t-49.5 -70t-71.5 -44.5t-84.5 -15.5q-49 0 -89 18t-68.5 48t-44.5 69.5t-16 81.5q0 53 21.5 104t59.5 108l219 325zM289 354q-31 0 -58.5 -12t-48 -32.5t-32.5 -48
t-12 -58.5t12 -58.5t32.5 -48t48 -32.5t58.5 -12t58.5 12t48 32.5t32.5 48t12 58.5t-12 58.5t-32 48t-47.5 32.5t-59.5 12z" />
    <glyph glyph-name="seven" unicode="7" horiz-adv-x="554" 
d="M527 718l-384 -736l-59 30l332 636h-344v70h455z" />
    <glyph glyph-name="eight" unicode="8" horiz-adv-x="554" 
d="M67 549q0 37 16.5 71t45 59.5t67.5 41t85 15.5q44 0 81.5 -15.5t65 -41.5t43 -60t15.5 -72q0 -98 -101 -153q66 -33 100.5 -77.5t34.5 -110.5q0 -43 -15.5 -83t-46 -71t-76.5 -50t-106 -19q-59 0 -104 18.5t-75.5 48.5t-46 69t-15.5 81q0 69 36.5 115t102.5 79
q-54 28 -80.5 68t-26.5 87zM278 666q-29 0 -54 -9.5t-43 -25.5t-28.5 -37.5t-10.5 -45.5q0 -25 11.5 -47.5t31 -39.5t44 -27t51.5 -10q30 0 55 11t43 29t28 40.5t10 45.5q0 21 -9 41.5t-26 37t-43 27t-60 10.5zM281 358q-39 0 -71 -13.5t-55.5 -36t-36.5 -51.5t-13 -59
t12 -57t34 -47.5t54 -32.5t72 -12q39 0 71 12.5t54.5 34t35 50t12.5 59.5q0 29 -12.5 56t-35 49t-53.5 35t-68 13z" />
    <glyph glyph-name="nine" unicode="9" horiz-adv-x="554" 
d="M133 20l194 294q-15 -5 -33 -9t-41 -4q-45 0 -82 17t-64 46t-42 68t-15 83q0 50 18 90.5t49 69.5t71 45t85 16q49 0 89 -18t68.5 -48t44.5 -69t16 -82q0 -52 -21.5 -103.5t-59.5 -108.5l-218 -325zM270 364q31 0 58.5 12t48 32.5t32.5 48t12 58.5t-12 58.5t-32 48
t-47.5 32.5t-59.5 12q-31 0 -58.5 -12t-47.5 -32t-32 -47.5t-12 -59.5q0 -31 12 -58.5t32 -48t47.5 -32.5t58.5 -12z" />
    <glyph glyph-name="colon" unicode=":" horiz-adv-x="277" 
d="M151 545q24 0 42 -17.5t18 -43.5t-17.5 -43.5t-42.5 -17.5q-26 0 -43 18t-17 43t17.5 43t42.5 18zM151 108q24 0 42 -17.5t18 -43.5t-17.5 -43.5t-42.5 -17.5q-26 0 -43 18t-17 43t17.5 43t42.5 18z" />
    <glyph glyph-name="semicolon" unicode=";" horiz-adv-x="277" 
d="M152 545q25 0 42.5 -17.5t17.5 -43.5t-17.5 -43.5t-42.5 -17.5t-42.5 17.5t-17.5 43.5t17.5 43.5t42.5 17.5zM210 101l-99 -185l-48 20l82 196z" />
    <glyph glyph-name="less" unicode="&#x3c;" horiz-adv-x="606" 
d="M555 98l-504 229v64l504 230v-72l-409 -191l409 -188v-72z" />
    <glyph glyph-name="equal" unicode="=" horiz-adv-x="606" 
d="M550 433h-494v67h494v-67zM550 218h-494v67h494v-67z" />
    <glyph glyph-name="greater" unicode="&#x3e;" horiz-adv-x="606" 
d="M461 358l-410 191v72l504 -230v-64l-504 -229v72z" />
    <glyph glyph-name="question" unicode="?" horiz-adv-x="591" 
d="M477 327q-4 -86 -52.5 -129t-124.5 -43q-39 0 -71.5 11t-55 30t-35 45t-12.5 56q0 47 27.5 78.5t80.5 52.5q50 21 87 36t61.5 29.5t36.5 31.5t12 42q0 45 -38 74t-95 29q-63 0 -102.5 -36.5t-41.5 -110.5h-71q0 51 16 90.5t44 67t67.5 41.5t86.5 14q49 0 87 -13t64 -36
t39.5 -53.5t13.5 -65.5q0 -40 -16.5 -68t-46.5 -49t-70.5 -38.5t-88.5 -36.5q-39 -16 -58.5 -34.5t-19.5 -44.5q0 -27 25.5 -49.5t73.5 -22.5q52 0 76 25.5t29 76.5h72zM297 108q24 0 42 -17.5t18 -43.5t-17.5 -43.5t-42.5 -17.5q-26 0 -43 18t-17 43t17.5 43t42.5 18z" />
    <glyph glyph-name="at" unicode="@" horiz-adv-x="867" 
d="M431 560q52 0 80 -20t48 -52l13 67h52l-56 -319q-1 -3 -2 -9.5t-1 -10.5q0 -12 7.5 -18t18.5 -6q15 0 44 14t57 43t49 73.5t21 104.5q0 61 -24 112.5t-66.5 89t-100.5 59t-125 21.5q-75 0 -138 -27t-108 -73t-70 -107t-25 -129q0 -73 26.5 -136t73 -109t110.5 -72
t139 -26q44 0 79.5 9t65.5 25t56 37.5t50 45.5h52q-27 -34 -56 -63t-65 -50.5t-80 -34t-101 -12.5q-82 0 -152.5 29t-123 80t-82.5 120t-30 148q0 82 29 153t80 123t121 82t152 30q71 0 134.5 -24.5t111.5 -66.5t76.5 -99.5t28.5 -123.5q0 -75 -28 -130t-67.5 -90t-83 -52
t-73.5 -17t-43 14t-14 40q-17 -22 -45.5 -35.5t-60.5 -13.5q-34 0 -63.5 12t-51.5 35t-34.5 56t-12.5 74q0 44 14.5 85.5t41.5 73.5t65.5 51t86.5 19zM409 209q30 0 53.5 15.5t40 41t25 60t8.5 71.5q0 44 -25 77.5t-73 33.5q-33 0 -59.5 -14t-45.5 -37.5t-29.5 -54
t-10.5 -62.5q0 -60 32 -95.5t84 -35.5z" />
    <glyph glyph-name="A" unicode="A" horiz-adv-x="740" 
d="M716 0h-77l-113 236h-310l-112 -236h-80l340 718h17zM248 306h246l-122 260z" />
    <glyph glyph-name="B" unicode="B" horiz-adv-x="574" 
d="M89 718h152q57 0 98.5 -13t68.5 -36.5t40 -55.5t13 -70q0 -48 -22.5 -86.5t-69.5 -64.5q151 -51 151 -186q0 -40 -15.5 -77.5t-45 -66t-73 -45.5t-100.5 -17h-197v718zM209 417q41 0 72 6t54 21q24 16 37.5 42.5t13.5 56.5q0 48 -34 76.5t-97 28.5h-94v-231h48zM248 70
q23 0 45.5 2.5l40.5 4.5t37.5 12t36 26.5t27 39.5t10.5 50q0 35 -18.5 66t-51.5 49q-32 17 -73 22t-92 5h-49v-277h87z" />
    <glyph glyph-name="C" unicode="C" horiz-adv-x="813" 
d="M699 542q-48 63 -113 93.5t-143 30.5q-64 0 -120.5 -22.5t-99.5 -63.5t-68 -97.5t-25 -125.5q0 -67 24 -123.5t66.5 -97.5t100.5 -64t126 -23q150 0 252 119l57 -43q-56 -70 -135.5 -106t-178.5 -36q-90 0 -161.5 29.5t-122 81t-77 121t-26.5 148.5q0 80 29 148t81 118
t122.5 78.5t154.5 28.5q100 0 180 -38t134 -113z" />
    <glyph glyph-name="D" unicode="D" horiz-adv-x="744" 
d="M264 718q60 0 114.5 -5.5t108.5 -27.5q97 -39 151.5 -127t54.5 -207q0 -77 -23 -141.5t-68 -111t-111 -72.5t-153 -26h-251v718h177zM265 70q51 0 93.5 3t78.5 12.5t65 27.5t53 47q63 77 63 190q0 112 -60 190q-25 33 -57.5 54t-72.5 33t-88.5 16.5t-107.5 4.5h-73v-578
h106z" />
    <glyph glyph-name="E" unicode="E" horiz-adv-x="536" 
d="M498 718v-70h-338v-225h338v-70h-338v-283h338v-70h-410v718h410z" />
    <glyph glyph-name="F" unicode="F" horiz-adv-x="485" 
d="M447 718v-70h-288v-225h288v-70h-288v-353h-72v718h360z" />
    <glyph glyph-name="G" unicode="G" horiz-adv-x="872" 
d="M823 345q0 -85 -26.5 -152.5t-74 -114t-113.5 -71t-147 -24.5q-93 0 -168 31t-127.5 83t-81 120t-28.5 142q0 76 28.5 144.5t80 120t124.5 82t161 30.5q100 0 178.5 -35t150.5 -104l-55 -52q-61 60 -131.5 90.5t-140.5 30.5q-64 0 -122.5 -23.5t-102.5 -64.5t-70 -96.5
t-26 -120.5q0 -62 24.5 -118.5t69 -99.5t105.5 -68.5t133 -25.5q51 0 98 15t84.5 43.5t63 71t32.5 96.5h-229v70h310z" />
    <glyph glyph-name="H" unicode="H" horiz-adv-x="683" 
d="M159 718v-301h366v301h72v-718h-72v347h-366v-347h-72v718h72z" />
    <glyph glyph-name="I" unicode="I" horiz-adv-x="226" 
d="M149 718v-718h-72v718h72z" />
    <glyph glyph-name="J" unicode="J" horiz-adv-x="482" 
d="M80 115q40 -29 74.5 -47.5t66.5 -18.5q47 0 75 38q17 23 21.5 54t4.5 69v508h72v-510q0 -57 -8 -100t-37 -75q-22 -24 -55.5 -37t-72.5 -13q-54 0 -95.5 20t-83.5 55z" />
    <glyph glyph-name="K" unicode="K" horiz-adv-x="591" 
d="M160 718v-269l287 269h97l-345 -322l372 -396h-95l-316 335v-335h-72v718h72z" />
    <glyph glyph-name="L" unicode="L" horiz-adv-x="463" 
d="M160 718v-648h276v-70h-348v718h72z" />
    <glyph glyph-name="M" unicode="M" horiz-adv-x="919" 
d="M157 718h12l292 -589l289 589h12l102 -718h-70l-70 514l-254 -514h-18l-258 518l-69 -518h-70z" />
    <glyph glyph-name="N" unicode="N" horiz-adv-x="740" 
d="M89 718h15l476 -550v550h72v-718h-16l-475 543v-543h-72v718z" />
    <glyph glyph-name="O" unicode="O" horiz-adv-x="869" 
d="M429 736q82 0 152 -29t121.5 -79.5t81 -119.5t29.5 -149q0 -79 -29 -148t-80 -120t-120 -80t-149 -29q-83 0 -152.5 30t-120 81.5t-78.5 119.5t-28 143q0 80 29 149.5t79.5 120.5t118.5 80.5t146 29.5zM433 666q-59 0 -113.5 -22.5t-96.5 -63.5t-67 -98t-25 -126
q0 -66 24.5 -122t66 -96.5t96 -63t115.5 -22.5q63 0 118.5 23t97 63.5t65.5 97.5t24 124q0 68 -25.5 124.5t-67.5 97t-97 62.5t-115 22z" />
    <glyph glyph-name="P" unicode="P" horiz-adv-x="592" 
d="M253 718q57 0 98.5 -4t67.5 -14q55 -21 86.5 -66.5t31.5 -106.5q0 -51 -22.5 -92t-60.5 -65t-93.5 -30t-130.5 -6h-71v-334h-72v718h166zM159 404q31 -1 61 -0.5t58 0.5q47 0 82.5 5t59.5 25q19 15 30.5 40.5t11.5 52.5q0 28 -12.5 53t-32.5 41q-24 18 -56.5 22.5
t-74.5 4.5h-127v-244z" />
    <glyph glyph-name="Q" unicode="Q" horiz-adv-x="871" 
d="M635 36q-45 -28 -94 -41t-105 -13q-83 0 -152.5 30t-120 81.5t-78.5 119.5t-28 143q0 79 28.5 148t79 120.5t119.5 81.5t150 30q79 0 148 -28.5t120.5 -78.5t81.5 -119.5t30 -150.5q0 -86 -30.5 -154t-93.5 -127l106 -135h-88zM645 134q94 91 94 226q0 68 -25.5 124.5
t-67.5 97t-97 62.5t-114 22q-60 0 -115 -23t-96.5 -64t-66.5 -98t-25 -125q0 -67 24.5 -122.5t66.5 -96t96.5 -63t114.5 -22.5q42 0 82 10.5t74 30.5l-161 204h88z" />
    <glyph glyph-name="R" unicode="R" horiz-adv-x="607" 
d="M256 718q57 0 99 -4t68 -14q56 -21 87 -66.5t31 -106.5q0 -27 -4.5 -46t-16.5 -43q-28 -57 -83 -80.5t-145 -23.5l259 -334h-89l-258 334h-41v-334h-72v718h165zM163 404q30 0 60 -0.5t59 -0.5q47 0 82.5 6t58.5 25q20 16 31.5 40.5t11.5 52.5q0 53 -37.5 87t-118.5 34
h-147v-244z" />
    <glyph glyph-name="S" unicode="S" horiz-adv-x="498" 
d="M363 574q-29 38 -58 63t-74 25q-47 0 -72 -28t-25 -63q0 -29 16.5 -58.5t47.5 -52.5q51 -37 93.5 -70t74 -66.5t49 -69t17.5 -79.5q0 -38 -15 -73t-42 -61.5t-64 -42.5t-81 -16q-75 0 -126 39.5t-91 112.5l61 37q65 -119 150 -119q28 0 52.5 9.5t42.5 26t28 39t10 47.5
q0 30 -14 55t-43.5 53t-74 63.5t-105.5 84.5q-26 20 -43.5 58.5t-17.5 79.5q0 37 13.5 68t37 53t55.5 34.5t68 12.5q33 0 60 -9.5t49.5 -25t41.5 -37t37 -45.5z" />
    <glyph glyph-name="T" unicode="T" horiz-adv-x="426" 
d="M16 718h394v-70h-160v-648h-72v648h-162v70z" />
    <glyph glyph-name="U" unicode="U" 
d="M566 718v-467q0 -128 -63.5 -198.5t-174.5 -70.5t-174.5 70.5t-63.5 198.5v467h72v-456q0 -42 4.5 -80t33.5 -73q45 -57 128 -57t128 57q29 35 33.5 73t4.5 80v456h72z" />
    <glyph glyph-name="V" unicode="V" horiz-adv-x="702" 
d="M111 718l238 -555l242 555h78l-312 -718h-16l-308 718h78z" />
    <glyph glyph-name="W" unicode="W" horiz-adv-x="960" 
d="M121 718l146 -517l206 517h15l203 -517l149 517h73l-206 -718h-14l-212 543l-218 -543h-13l-203 718h74z" />
    <glyph glyph-name="X" unicode="X" horiz-adv-x="609" 
d="M134 718l172 -280l173 280h83l-214 -348l228 -370h-84l-186 301l-188 -301h-84l229 370l-213 348h84z" />
    <glyph glyph-name="Y" unicode="Y" horiz-adv-x="592" 
d="M31 718h83l184 -296l181 296h83l-228 -375v-343h-72v343z" />
    <glyph glyph-name="Z" unicode="Z" horiz-adv-x="480" 
d="M59 718h379l-300 -648h285v-70h-396l302 648h-270v70z" />
    <glyph glyph-name="bracketleft" unicode="[" horiz-adv-x="351" 
d="M306 736v-70h-95v-794h95v-66h-163v930h163z" />
    <glyph glyph-name="backslash" unicode="\" horiz-adv-x="605" 
d="M572 -98h-74l-466 834h75z" />
    <glyph glyph-name="bracketright" unicode="]" horiz-adv-x="351" 
d="M45 -194v70h96v794h-96v66h164v-930h-164z" />
    <glyph glyph-name="asciicircum" unicode="^" horiz-adv-x="672" 
d="M365 718l249 -540h-64l-215 465l-213 -465h-63l249 540h57z" />
    <glyph glyph-name="underscore" unicode="_" horiz-adv-x="500" 
d="M506 -76v-48h-512v48h512z" />
    <glyph glyph-name="grave" unicode="`" horiz-adv-x="378" 
d="M266 630h-68l-144 151h105z" />
    <glyph glyph-name="a" unicode="a" horiz-adv-x="683" 
d="M605 531v-531h-67v91q-44 -53 -97.5 -78.5t-116.5 -25.5q-58 0 -108 22.5t-86.5 61t-57 89t-20.5 107.5t21 107.5t58 88.5t87 60t108 22q65 0 118.5 -27.5t93.5 -83.5v97h67zM332 479q-46 0 -84.5 -17.5t-66.5 -47t-43.5 -68t-15.5 -81.5t16 -82t44 -69t66 -47.5
t83 -17.5q41 0 79 15t67.5 42.5t47.5 67.5t18 89q0 46 -16 85.5t-44.5 68.5t-67 45.5t-83.5 16.5z" />
    <glyph glyph-name="b" unicode="b" horiz-adv-x="682" 
d="M81 0v736h68v-296q87 105 213 105q58 0 108 -22.5t86.5 -61t57.5 -89t21 -107.5q0 -56 -21 -106.5t-58 -89t-87.5 -61t-108.5 -22.5q-129 0 -211 112v-98h-68zM355 52q46 0 84.5 17.5t66.5 47t43.5 68.5t15.5 82t-16 82t-44.5 69t-66.5 47.5t-83 17.5q-41 0 -79 -14.5
t-67.5 -42.5t-47 -67.5t-17.5 -89.5q0 -46 16 -85.5t44.5 -69t67 -46t83.5 -16.5z" />
    <glyph glyph-name="c" unicode="c" horiz-adv-x="647" 
d="M592 107q-39 -60 -103.5 -90t-145.5 -30q-66 0 -119.5 22t-92 59.5t-59.5 87.5t-21 105q0 59 22 110.5t61 90t93.5 61t120.5 22.5q77 0 142 -31t102 -93l-55 -34q-70 92 -192 92q-51 0 -92 -17t-70.5 -46.5t-45.5 -68t-16 -81.5t16 -82.5t45 -69.5t71 -47.5t93 -17.5
q116 0 191 93z" />
    <glyph glyph-name="d" unicode="d" horiz-adv-x="685" 
d="M539 91q-44 -53 -97.5 -78.5t-116.5 -25.5q-58 0 -108 22.5t-86.5 61t-57 89t-20.5 107.5t21 107.5t58 88.5t87 60t108 22q65 0 118.5 -27.5t93.5 -83.5v302h68v-736h-68v91zM333 479q-46 0 -84.5 -17.5t-66.5 -47t-43.5 -68t-15.5 -81.5t16 -82t44 -69t66 -47.5
t83 -17.5q41 0 79 15t67.5 42.5t47 67.5t17.5 89q0 46 -16 85.5t-44.5 68.5t-66.5 45.5t-83 16.5z" />
    <glyph glyph-name="e" unicode="e" horiz-adv-x="650" 
d="M121 260q1 -46 16.5 -84.5t42 -66.5t62.5 -44t79 -16q42 0 73.5 11t55.5 28.5t41.5 40.5t32.5 47l57 -30q-81 -159 -253 -159q-66 0 -117.5 23.5t-87 62t-54 88.5t-18.5 103q0 54 19.5 105t55 90t86 62.5t112.5 23.5q57 0 106.5 -20t87 -56.5t59 -89.5t22.5 -119h-478z
M524 320q-21 83 -75.5 121t-123.5 38q-72 0 -123 -39t-74 -120h396z" />
    <glyph glyph-name="f" unicode="f" horiz-adv-x="314" 
d="M108 614q0 32 4.5 57.5t16.5 43t33 27t54 9.5q22 0 41.5 -5t36.5 -10v-67q-12 5 -28 10.5t-36 5.5q-21 0 -32 -6t-16 -17t-5.5 -26t-0.5 -33v-72h112v-60h-112v-471h-68v471h-70v60h70v83z" />
    <glyph glyph-name="g" unicode="g" horiz-adv-x="673" 
d="M603 108q0 -66 -8 -119.5t-40 -98.5q-34 -46 -91.5 -71.5t-133.5 -25.5q-57 0 -100.5 11.5t-76 32.5t-56 51.5t-41.5 69.5h74q30 -53 77.5 -78t118.5 -25q66 0 113.5 23t71.5 67q15 28 19 56.5t4 59.5v40q-40 -51 -95 -76t-118 -25q-55 0 -104.5 20t-86.5 55.5t-59 85
t-22 108.5t22.5 109.5t60.5 87.5t87 58t102 21q71 0 121 -28t92 -78v92h69v-423zM332 479q-45 0 -83.5 -16t-67.5 -44.5t-45.5 -68t-16.5 -85.5q0 -40 14 -76t41 -63.5t67.5 -43.5t92.5 -16q44 0 81 14.5t64 41t42.5 64.5t15.5 84q0 48 -16.5 86.5t-44.5 66t-65.5 42
t-78.5 14.5z" />
    <glyph glyph-name="h" unicode="h" horiz-adv-x="610" 
d="M144 736v-300q83 109 199 109q43 0 79 -15t62 -45t40.5 -75t14.5 -105v-305h-68v289q0 94 -31.5 144t-109.5 50q-85 0 -140 -72q-29 -38 -37.5 -81t-8.5 -107v-223h-68v736h68z" />
    <glyph glyph-name="i" unicode="i" horiz-adv-x="200" 
d="M100 750q23 0 40 -16.5t17 -39.5t-17 -40t-40 -17t-39.5 17t-16.5 40q0 24 16.5 40t39.5 16zM135 531v-531h-68v531h68z" />
    <glyph glyph-name="j" unicode="j" horiz-adv-x="203" 
d="M102 750q23 0 40 -16.5t17 -39.5t-17 -40t-40 -17t-39.5 17t-16.5 40t16.5 39.5t39.5 16.5zM137 531v-611q0 -129 -91 -129q-23 0 -42 5.5t-35 11.5v62q9 -5 21 -9t28 -4q24 0 37.5 15.5t13.5 47.5v611h68z" />
    <glyph glyph-name="k" unicode="k" horiz-adv-x="502" 
d="M145 736v-419l245 214h101l-291 -253l308 -278h-97l-266 239v-239h-68v736h68z" />
    <glyph glyph-name="l" unicode="l" horiz-adv-x="200" 
d="M134 736v-736h-68v736h68z" />
    <glyph glyph-name="m" unicode="m" horiz-adv-x="938" 
d="M437 0v272q0 31 -2 56t-3 43q-1 22 -10 41.5t-25 34.5t-37.5 23.5t-47.5 8.5q-35 0 -68 -16.5t-56 -45.5q-29 -37 -37 -84.5t-8 -107.5v-225h-68v531h68v-91q35 51 80 78t102 27q61 0 103.5 -31.5t64.5 -96.5q35 64 85.5 96t109.5 32q83 0 132 -58t49 -172v-315h-68v290
q0 29 -2.5 52t-3.5 38q-1 18 -10 35.5t-24.5 31.5t-37 23t-48.5 9q-50 0 -90.5 -28.5t-60.5 -79.5q-13 -32 -16 -67t-3 -72v-232h-68z" />
    <glyph glyph-name="n" unicode="n" horiz-adv-x="610" 
d="M144 436q83 109 199 109q44 0 80 -15t62 -46t40.5 -77t14.5 -109v-298h-68v289q0 94 -32 144t-110 50q-85 0 -140 -72q-30 -39 -38 -82t-8 -106v-223h-68v531h68v-95z" />
    <glyph glyph-name="o" unicode="o" 
d="M328 545q60 0 110.5 -22.5t87.5 -61t58 -89.5t21 -108t-21 -107.5t-57.5 -88.5t-87.5 -60t-111 -22t-111 22t-87.5 60t-57.5 88.5t-21 107.5t21 108t58 89.5t87.5 61t110.5 22.5zM328 479q-43 0 -80.5 -17t-65.5 -46.5t-44.5 -69t-16.5 -83.5q0 -43 15.5 -81.5t43 -67.5
t65.5 -45.5t83 -16.5t82.5 16.5t65.5 45.5t43.5 67.5t15.5 81.5q0 44 -16.5 83.5t-44.5 69t-66 46.5t-80 17z" />
    <glyph glyph-name="p" unicode="p" horiz-adv-x="682" 
d="M145 434q40 56 93.5 83.5t117.5 27.5q58 0 108.5 -22t87.5 -60t58 -88.5t21 -107.5t-20.5 -107.5t-57.5 -89t-86.5 -61t-108.5 -22.5q-127 0 -213 104v-285h-68v725h68v-97zM351 479q-45 0 -83.5 -16.5t-67 -45.5t-44.5 -68.5t-16 -85.5q0 -49 17.5 -89t47 -67.5
t67.5 -42.5t79 -15q44 0 82.5 17.5t67 47t44.5 69t16 82.5t-15.5 81.5t-43.5 68t-66.5 47t-84.5 17.5z" />
    <glyph glyph-name="q" unicode="q" horiz-adv-x="682" 
d="M606 531v-725h-68v285q-44 -53 -97.5 -78.5t-116.5 -25.5q-58 0 -108 22.5t-86.5 61t-57 89t-20.5 107.5t21 107.5t58 88.5t87 60t108 22q65 0 118.5 -27.5t93.5 -83.5v97h68zM332 479q-46 0 -84.5 -17.5t-66.5 -47t-43.5 -68t-15.5 -81.5t16 -82t44 -69t66 -47.5
t83 -17.5q41 0 79 15t67.5 42.5t47 67.5t17.5 89q0 46 -16 85.5t-44.5 68.5t-66.5 45.5t-83 16.5z" />
    <glyph glyph-name="r" unicode="r" horiz-adv-x="301" 
d="M121 454q30 44 63 67.5t74 23.5q23 0 36.5 -6t24.5 -12l-36 -58q-6 3 -15.5 6.5t-20.5 3.5q-38 0 -69 -30.5t-46 -85.5q-7 -26 -9 -66.5t-2 -94.5v-202h-72v531h72v-77z" />
    <glyph glyph-name="s" unicode="s" horiz-adv-x="388" 
d="M69 111q53 -59 111 -59q20 0 37.5 6.5t31 18.5t21.5 28t8 35q0 23 -12 43t-32 31l-80.5 45.5t-57.5 40t-34.5 45t-11.5 59.5q0 32 11.5 57.5t31 44.5t46.5 29t57 10q44 0 78.5 -19.5t68.5 -52.5l-44 -45q-24 23 -49.5 37t-57.5 14q-33 0 -56.5 -20.5t-23.5 -50.5
q0 -20 11.5 -40t29.5 -31q46 -27 81.5 -47t59.5 -40.5t36.5 -45.5t12.5 -61q0 -31 -11.5 -59.5t-32.5 -50t-50.5 -34.5t-65.5 -13q-45 0 -86.5 19.5t-70.5 56.5z" />
    <glyph glyph-name="t" unicode="t" horiz-adv-x="339" 
d="M205 729v-198h109v-60h-109v-471h-68v471h-94v60h94v198h68z" />
    <glyph glyph-name="u" unicode="u" horiz-adv-x="608" 
d="M534 531v-275q0 -135 -59 -202t-174 -67t-174.5 67t-59.5 202v275h72v-259q0 -42 2 -76t13 -58q19 -41 57.5 -63t89.5 -22q37 0 68 12.5t52 34.5q16 17 24.5 35t12 39t4 45.5t0.5 52.5v259h72z" />
    <glyph glyph-name="v" unicode="v" horiz-adv-x="554" 
d="M99 531l178 -386l176 386h73l-243 -531h-12l-245 531h73z" />
    <glyph glyph-name="w" unicode="w" horiz-adv-x="831" 
d="M75 531l162 -385l170 385h12l171 -385l165 385h71l-230 -531h-13l-169 380l-170 -380h-14l-226 531h71z" />
    <glyph glyph-name="x" unicode="x" horiz-adv-x="480" 
d="M97 531l141 -196l141 196h81l-181 -252l204 -279h-83l-162 223l-160 -223h-82l201 279l-182 252h82z" />
    <glyph glyph-name="y" unicode="y" horiz-adv-x="536" 
d="M91 531l183 -409l177 409h73l-317 -725h-72l102 234l-218 491h72z" />
    <glyph glyph-name="z" unicode="z" horiz-adv-x="425" 
d="M423 531l-301 -471h291v-60h-409l301 471h-273v60h391z" />
    <glyph glyph-name="braceleft" unicode="{" horiz-adv-x="351" 
d="M37 289q41 1 62 19.5t30 51t9.5 78.5t0.5 102q0 66 17 107t56 59q21 10 41 11t40 1h27v-76h-15q-25 0 -41 -3.5t-25.5 -14.5t-13.5 -30.5t-4 -52.5v-72q0 -50 -5 -85.5t-17 -61t-32 -42.5t-49 -31q32 -13 52 -33t31 -47t15.5 -62t4.5 -79v-71q0 -33 4 -52.5t13.5 -30.5
t25.5 -14.5t41 -3.5h15v-76h-27q-19 0 -39 0.5t-42 11.5q-39 18 -56 58.5t-17 106.5q0 56 -0.5 102t-9.5 79t-30 51.5t-62 19.5v80z" />
    <glyph glyph-name="bar" unicode="|" horiz-adv-x="672" 
d="M371 736v-930h-69v930h69z" />
    <glyph glyph-name="braceright" unicode="}" horiz-adv-x="351" 
d="M59 718q27 0 52.5 -3t50.5 -23q28 -22 39.5 -59.5t11.5 -92.5q0 -56 1 -102t10 -78.5t30 -51t61 -19.5v-80q-40 -1 -61 -19.5t-30 -51t-10 -78.5t-1 -103q0 -66 -17 -106.5t-56 -58.5q-21 -10 -41 -11t-40 -1h-27v76h15q25 0 41 3.5t25.5 14.5t13.5 31t4 52v71q0 44 4 79
t15.5 62t31.5 47t51 33q-29 14 -48.5 31t-31.5 42.5t-17 61t-5 85.5v72q0 32 -4 52t-13.5 31t-25.5 14.5t-41 3.5h-15v76h27z" />
    <glyph glyph-name="asciitilde" unicode="~" horiz-adv-x="606" 
d="M55 388q32 19 62 33t62 14t65.5 -12.5t66 -28t62.5 -28t54 -12.5q27 0 55.5 15.5t68.5 39.5v-79q-33 -19 -63 -32.5t-60 -13.5q-32 0 -65.5 12t-66 26.5t-61.5 26.5t-52 12q-29 0 -60 -14.5t-68 -36.5v78z" />
    <glyph glyph-name="uni00A0" unicode="&#xa0;" horiz-adv-x="277" 
 />
    <glyph glyph-name="exclamdown" unicode="&#xa1;" horiz-adv-x="295" 
d="M147 543q25 0 42.5 -18t17.5 -44t-18 -43t-42 -17q-25 0 -42.5 17t-17.5 43q0 25 17 43.5t43 18.5zM114 349h69v-557h-69v557z" />
    <glyph glyph-name="cent" unicode="&#xa2;" horiz-adv-x="554" 
d="M528 625l-64 -125q11 -8 25 -18t31 -28l-41 -52q-8 8 -18 16.5t-29 20.5l-192 -373q15 -6 32 -10.5t38 -4.5q42 0 78 16t72 45l44 -51q-38 -35 -89 -55.5t-104 -20.5q-31 0 -56.5 6.5t-45.5 13.5l-74 -144l-57 30l74 148q-51 45 -76.5 98t-25.5 124q0 60 19.5 111.5
t55 90t84 60.5t106.5 22q25 0 47 -4t42 -12l65 125zM373 469q-11 4 -25.5 7t-33.5 3q-39 0 -74.5 -14.5t-62 -42t-42 -67.5t-15.5 -90q0 -54 16 -93.5t48 -69.5z" />
    <glyph glyph-name="sterling" unicode="&#xa3;" horiz-adv-x="554" 
d="M130 -18q-20 0 -38.5 5.5t-32.5 17t-22.5 28.5t-8.5 41t9 45t24 36t35 23.5t41 8.5q23 0 39.5 -6t30.5 -13q1 11 2 25t1 28q0 31 -5.5 64.5t-16.5 63.5h-139v63h124q-13 46 -24.5 85.5t-11.5 77.5q0 33 13.5 62.5t37.5 51t56.5 34.5t69.5 13q72 0 116.5 -46.5
t52.5 -140.5h-66q-2 56 -27.5 88.5t-73.5 32.5q-45 0 -77 -25t-32 -73q0 -31 6 -53t11 -36l22 -71h156v-63h-140q5 -18 11.5 -48t6.5 -81q0 -19 -1 -41t-9 -50q40 -34 78.5 -54t55.5 -20q26 0 37.5 28t14.5 85h69v-9q0 -36 -7.5 -68t-22 -56.5t-35.5 -38.5t-48 -14
q-33 0 -78 20.5t-88 57.5q-40 -78 -116 -78zM188 101q-12 8 -25 14t-30 6t-27.5 -10.5t-10.5 -26.5t9.5 -26t23.5 -10q21 0 35 14.5t25 38.5z" />
    <glyph glyph-name="currency" unicode="&#xa4;" horiz-adv-x="614" 
d="M491 137q-17 17 -33.5 33t-33.5 33q-24 -19 -54 -29.5t-63 -10.5q-26 0 -57.5 8.5t-60.5 31.5l-66 -66q-10 9 -18.5 18t-17.5 19l67 64q-17 24 -28 53.5t-11 62.5t10 63t29 53q-17 17 -33.5 32.5t-33.5 32.5q9 10 17.5 19t18.5 18l66 -66q31 23 61.5 31.5t56.5 8.5
q28 0 60 -10t56 -30q17 17 34 33t34 33l36 -37q-17 -17 -34 -32.5t-34 -32.5q21 -26 30.5 -56.5t9.5 -59.5q0 -32 -10.5 -61t-29.5 -55l34 -32l34 -32zM448 355q0 31 -12 57t-32 44.5t-45 28.5t-51 10q-31 0 -57 -11.5t-45 -30.5t-29.5 -44.5t-10.5 -53.5t11 -54t30 -45.5
t45 -31t55 -11.5t54.5 11.5t45 31t30.5 45t11 54.5z" />
    <glyph glyph-name="yen" unicode="&#xa5;" horiz-adv-x="554" 
d="M523 718l-204 -359h174v-57h-181v-75h181v-57h-181v-170h-72v170h-180v57h180v75h-180v57h172l-202 359h82l164 -294l166 294h81z" />
    <glyph glyph-name="brokenbar" unicode="&#xa6;" horiz-adv-x="672" 
d="M302 426v310h69v-310h-69zM302 -194v310h69v-310h-69z" />
    <glyph glyph-name="section" unicode="&#xa7;" horiz-adv-x="615" 
d="M104 595q0 35 13 64t37 49.5t57.5 31.5t73.5 11q81 0 129 -43.5t56 -124.5h-71q-5 48 -35 73t-78 25q-51 0 -81.5 -25t-30.5 -63q0 -34 23 -61t58 -50.5t75.5 -46.5t75.5 -49t58 -58t23 -74q0 -23 -9 -46t-26 -42.5t-43 -34t-61 -21.5q52 -32 78.5 -76t26.5 -89
q0 -34 -13.5 -62t-37.5 -48.5t-56.5 -32t-71.5 -11.5q-40 0 -73.5 11t-58.5 30.5t-41.5 45t-21.5 55.5h72q14 -40 45.5 -58t72.5 -18q50 0 82 24.5t32 62.5q0 35 -23.5 63t-59 53t-77 49.5t-77 52.5t-59 62t-23.5 77q0 45 31 86t95 60q-38 28 -62 61.5t-24 86.5zM247 410
q-51 -8 -82 -35.5t-31 -70.5q0 -19 8 -37t26 -36.5t48 -38.5t74 -43q60 8 93.5 37.5t33.5 68.5q0 21 -10.5 38.5t-31.5 34.5t-53 37t-75 45z" />
    <glyph glyph-name="dieresis" unicode="&#xa8;" horiz-adv-x="369" 
d="M85 741q23 0 39.5 -17t16.5 -40t-16.5 -39.5t-39.5 -16.5t-40 16.5t-17 39.5t17 40t40 17zM284 741q23 0 39.5 -17t16.5 -40t-16.5 -39.5t-39.5 -16.5t-40 16.5t-17 39.5t17 40t40 17z" />
    <glyph glyph-name="copyright" unicode="&#xa9;" horiz-adv-x="747" 
d="M738 373q0 -76 -28.5 -142t-78 -115t-116 -77t-141.5 -28t-141.5 28.5t-116 77.5t-78.5 115t-29 141q0 76 29 142t78.5 115t116 77.5t141.5 28.5t141.5 -28t116 -77t78 -115.5t28.5 -142.5zM687 373q0 65 -24.5 122.5t-67 100.5t-99.5 67.5t-122 24.5t-122.5 -24.5
t-100 -67.5t-67.5 -100.5t-25 -122.5t25 -122.5t67.5 -100t100 -67t122.5 -24.5t121.5 24.5t99.5 67t67.5 100t24.5 122.5zM552 325q-9 -75 -56 -120.5t-125 -45.5q-40 0 -74.5 13.5t-60 41t-39.5 68.5t-14 96q0 49 14.5 89t40.5 68t61 43.5t77 15.5q75 0 122 -37.5
t54 -106.5h-63q-10 41 -36.5 61.5t-74.5 20.5q-61 0 -95 -42.5t-34 -116.5q0 -79 33.5 -120.5t93.5 -41.5q43 0 74 28t39 86h63z" />
    <glyph glyph-name="ordfeminine" unicode="&#xaa;" horiz-adv-x="369" 
d="M325 396h-56v46q-20 -26 -46 -40t-55 -14t-54.5 13.5t-44.5 37.5t-30 56t-11 68t11 67.5t30 55t45 37t55 13.5q59 0 100 -56v48h56v-332zM178 684q-20 0 -37 -10t-29.5 -26.5t-19.5 -39t-7 -47.5t7 -47t20 -38.5t30 -26t36 -9.5q18 0 34.5 8t30 23t21.5 37.5t8 51.5
q0 27 -7.5 49.5t-20 39t-29.5 26t-37 9.5z" />
    <glyph glyph-name="guillemotleft" unicode="&#xab;" horiz-adv-x="425" 
d="M82 265l109 -265h-72l-109 265l109 266h72zM305 265l109 -265h-72l-109 265l109 266h72z" />
    <glyph glyph-name="logicalnot" unicode="&#xac;" horiz-adv-x="606" 
d="M551 218h-68v215h-427v67h495v-282z" />
    <glyph glyph-name="uni00AD" unicode="&#xad;" horiz-adv-x="332" 
d="M301 300v-60h-269v60h269z" />
    <glyph glyph-name="registered" unicode="&#xae;" horiz-adv-x="747" 
d="M738 372q0 -76 -29 -142.5t-79 -115.5t-116 -77t-140 -28q-75 0 -141.5 28t-116 77t-78.5 115.5t-29 142.5q0 74 28 140t77 115.5t115.5 79t144.5 29.5q76 0 142.5 -29t115.5 -78.5t77.5 -116t28.5 -140.5zM687 372q0 64 -24.5 121t-66.5 100.5t-99 69t-123 25.5
t-123 -25t-100 -68t-67.5 -100.5t-24.5 -122.5q0 -67 25.5 -124.5t68.5 -100t100 -66.5t121 -24t121 24.5t99.5 67t67.5 100t25 123.5zM397 584q21 0 41 -1t35 -6q34 -11 53.5 -40t19.5 -67q0 -43 -15 -62t-38 -34q28 -14 38 -33t10 -62v-47q0 -30 8.5 -44t13.5 -23h-74
q-5 20 -7 35.5t-3 26.5l-3 51q-2 34 -15 48t-51 14h-121v-175h-68v419h176zM289 400h118q72 0 72 62q0 21 -7 33.5t-18.5 19t-26.5 8t-32 1.5h-106v-124z" />
    <glyph glyph-name="macron" unicode="&#xaf;" horiz-adv-x="485" 
d="M411 723v-60h-337v60h337z" />
    <glyph glyph-name="degree" unicode="&#xb0;" horiz-adv-x="400" 
d="M369 569q0 -37 -14 -68.5t-37.5 -53.5t-53.5 -34.5t-63 -12.5q-36 0 -67 13.5t-53.5 36.5t-35.5 52.5t-13 61.5q0 41 14.5 73t38.5 54t54.5 33.5t61.5 11.5q33 0 63.5 -12.5t54 -34.5t37 -52.5t13.5 -67.5zM311 567q0 24 -8 45.5t-23 37.5t-35.5 25t-44.5 9
q-21 0 -41 -8.5t-35.5 -24.5t-24.5 -37.5t-9 -48.5q0 -22 9 -42.5t24 -36t34.5 -25t40.5 -9.5q26 0 47 10t35.5 26t22.5 36.5t8 42.5z" />
    <glyph glyph-name="plusminus" unicode="&#xb1;" horiz-adv-x="606" 
d="M271 658h68v-212h212v-67h-212v-212h-68v212h-214v67h214v212zM551 12h-494v67h494v-67z" />
    <glyph glyph-name="two.superior" unicode="&#xb2;" horiz-adv-x="332" 
d="M178 516q36 32 56.5 55.5t20.5 50.5t-24.5 46.5t-61.5 19.5q-39 0 -64 -21t-29 -65h-52q0 32 12 56.5t32 42t46.5 26.5t56.5 9q31 0 56 -9t43 -24.5t28 -36t10 -43.5q0 -38 -23.5 -68t-62.5 -65l-93 -84h185v-48h-311z" />
    <glyph glyph-name="three.superior" unicode="&#xb3;" horiz-adv-x="332" 
d="M234 638q0 20 -20 35t-52 15t-49 -15.5t-28 -41.5h-55q14 54 48 79.5t84 25.5q28 0 51.5 -8t40.5 -21.5t26.5 -31t9.5 -37.5q0 -42 -44 -72q33 -16 50 -41t17 -54q0 -23 -10 -45t-29.5 -39t-47.5 -27.5t-63 -10.5q-60 0 -98 29t-49 89h53q9 -33 30.5 -51.5t63.5 -18.5
q45 0 70.5 21.5t25.5 49.5q0 35 -32.5 52t-91.5 19v46q99 5 99 53z" />
    <glyph glyph-name="acute" unicode="&#xb4;" horiz-adv-x="375" 
d="M326 781l-145 -151h-67l107 151h105z" />
    <glyph glyph-name="uni00B5" unicode="&#xb5;" horiz-adv-x="608" 
d="M453 58q-27 -34 -62 -52t-86 -18q-48 0 -84 17t-64 51v-250h-68v725h68v-293q0 -28 2.5 -51.5t10.5 -41.5q18 -38 55 -60.5t82 -22.5q51 0 89.5 31t50.5 83q5 20 5.5 34.5t0.5 34.5v286h68v-531h-68v58z" />
    <glyph glyph-name="paragraph" unicode="&#xb6;" horiz-adv-x="564" 
d="M236 345h-25q-30 0 -59.5 13t-53 37.5t-38 61t-14.5 83.5q0 42 12 78.5t37 63.5t63.5 42t90.5 15h250v-37h-41v-815h-58v815h-106v-815h-58v458z" />
    <glyph glyph-name="periodcentered" unicode="&#xb7;" horiz-adv-x="277" 
d="M138 421q24 0 42 -18t18 -44t-17.5 -43t-42.5 -17q-26 0 -43 17.5t-17 42.5t17.5 43.5t42.5 18.5z" />
    <glyph glyph-name="cedilla" unicode="&#xb8;" horiz-adv-x="324" 
d="M195 0l-8 -58q5 1 8.5 1.5t8.5 0.5q23 0 40 -13.5t17 -38.5q0 -33 -29.5 -55.5t-82.5 -22.5q-42 0 -81 15l11 34q14 -5 28.5 -7.5t29.5 -2.5q32 0 49 8t17 24q0 9 -8 15t-22 6q-8 0 -17.5 -1.5t-16.5 -3.5l13 99h43z" />
    <glyph glyph-name="one.superior" unicode="&#xb9;" horiz-adv-x="332" 
d="M201 727v-369h-54v321h-73l35 48h92z" />
    <glyph glyph-name="ordmasculine" unicode="&#xba;" horiz-adv-x="369" 
d="M184 736q34 0 63 -14t50 -37.5t33 -55.5t12 -68t-12 -67.5t-33 -55t-50 -37t-63 -13.5t-63 13.5t-50 37t-32.5 55t-11.5 67.5t12 68t33 55.5t49.5 37.5t62.5 14zM185 684q-20 0 -38 -9.5t-32 -26.5t-22.5 -39.5t-8.5 -48.5q0 -25 8 -47t21.5 -38t32 -25.5t39.5 -9.5
t39.5 9.5t32 25.5t21 38t7.5 47q0 26 -8 48.5t-22 39.5t-32 26.5t-38 9.5z" />
    <glyph glyph-name="guillemotright" unicode="&#xbb;" horiz-adv-x="425" 
d="M119 266l-109 265h72l109 -265l-109 -266h-72zM342 266l-109 265h73l108 -265l-108 -266h-73z" />
    <glyph glyph-name="onequarter" unicode="&#xbc;" horiz-adv-x="831" 
d="M596 736h54l-451 -754h-54zM183 727v-369h-54v321h-73l35 48h92zM743 131h51v-48h-51v-83h-54v83h-211l265 305v-257zM689 251l-105 -120h105v120z" />
    <glyph glyph-name="onehalf" unicode="&#xbd;" horiz-adv-x="831" 
d="M570 736h54l-451 -754h-54zM178 727v-369h-54v321h-73l35 48h92zM653 158q36 33 56.5 56t20.5 50q0 28 -24.5 47.5t-61.5 19.5q-39 0 -64 -21.5t-29 -65.5h-51q0 32 12 57t32 42t46.5 26.5t56.5 9.5t55 -9t43 -25t28 -37t10 -44q0 -38 -23.5 -67.5t-62.5 -64.5l-92 -84
h184v-48h-311z" />
    <glyph glyph-name="threequarters" unicode="&#xbe;" horiz-adv-x="831" 
d="M252 638q0 20 -20 35t-52 15t-49 -15.5t-28 -41.5h-55q14 54 48 79.5t84 25.5q28 0 51.5 -8t40.5 -21.5t26.5 -31t9.5 -37.5q0 -42 -44 -72q33 -16 50 -41t17 -54q0 -23 -10 -45t-29.5 -39t-47.5 -27.5t-63 -10.5q-60 0 -98 29t-49 89h53q9 -33 30.5 -51.5t63.5 -18.5
q45 0 70.5 21.5t25.5 49.5q0 35 -32.5 52t-91.5 19v46q99 5 99 53zM649 736h55l-452 -754h-53zM773 131h52v-48h-52v-83h-54v83h-211l265 305v-257zM719 251l-105 -120h105v120z" />
    <glyph glyph-name="questiondown" unicode="&#xbf;" horiz-adv-x="591" 
d="M295 543q25 0 42.5 -18t17.5 -44t-18 -43t-42 -17t-42 17t-18 43t17.5 44t42.5 18zM114 201q4 86 53 128.5t125 42.5q39 0 71 -10.5t55 -29.5t35.5 -45t12.5 -56q0 -48 -28 -79t-81 -52q-50 -21 -87 -35.5t-61.5 -29t-36.5 -31.5t-12 -42q0 -45 38 -72.5t95 -27.5
q63 0 102.5 34.5t41.5 108.5h71q0 -51 -16 -90.5t-44 -67t-67.5 -41.5t-86.5 -14q-49 0 -87 13.5t-64 36t-39.5 53t-13.5 65.5q0 41 16.5 69t46.5 49t70.5 38.5t88.5 36.5q39 16 59 34.5t20 44.5q0 27 -25.5 50.5t-73.5 23.5q-51 0 -76 -26.5t-30 -78.5h-72z" />
    <glyph glyph-name="Agrave" unicode="&#xc0;" horiz-adv-x="740" 
d="M335 777h58l-73 118h-73zM716 0h-77l-113 236h-310l-112 -236h-80l340 718h17zM248 306h246l-122 260z" />
    <glyph glyph-name="Aacute" unicode="&#xc1;" horiz-adv-x="740" 
d="M420 895l-73 -118h58l88 118h-73zM716 0h-77l-113 236h-310l-112 -236h-80l340 718h17zM248 306h246l-122 260z" />
    <glyph glyph-name="Acircumflex" unicode="&#xc2;" horiz-adv-x="740" 
d="M306 777h-68l97 118h70l97 -118h-68l-64 79zM716 0h-77l-113 236h-310l-112 -236h-80l340 718h17zM248 306h246l-122 260z" />
    <glyph glyph-name="Atilde" unicode="&#xc3;" horiz-adv-x="740" 
d="M243 787q0 42 11 66t29 33t41 3.5t47 -23.5q18 -14 32 -22.5t23 -8t14 12.5t5 39h52q0 -42 -11 -66.5t-29 -33.5t-40.5 -3.5t-46.5 23.5q-18 14 -32 22.5t-23.5 8t-14.5 -12t-5 -38.5h-52zM716 0h-77l-113 236h-310l-112 -236h-80l340 718h17zM248 306h246l-122 260z" />
    <glyph glyph-name="Adieresis" unicode="&#xc4;" horiz-adv-x="740" 
d="M270 891q23 0 39.5 -17t16.5 -40t-16.5 -39.5t-39.5 -16.5t-40 16.5t-17 39.5t17 40t40 17zM469 891q23 0 39.5 -17t16.5 -40t-16.5 -39.5t-39.5 -16.5t-40 16.5t-17 39.5t17 40t40 17zM716 0h-77l-113 236h-310l-112 -236h-80l340 718h17zM248 306h246l-122 260z" />
    <glyph glyph-name="Aring" unicode="&#xc5;" horiz-adv-x="740" 
d="M371 970q42 0 71.5 -29t29.5 -72q0 -21 -8 -39.5t-21.5 -32.5t-32 -22t-39.5 -8t-39.5 8t-32.5 22t-22 32.5t-8 39.5q0 42 29.5 71.5t72.5 29.5zM371 928q-26 1 -42.5 -16.5t-16.5 -42.5q0 -26 18 -42.5t41 -16.5q25 0 42 17.5t17 41.5q1 25 -17 42t-42 17zM716 0h-77
l-113 236h-310l-112 -236h-80l340 718h17zM248 306h246l-122 260z" />
    <glyph glyph-name="AE" unicode="&#xc6;" horiz-adv-x="992" 
d="M1 0l464 718h444v-70h-338v-224h338v-70h-338v-284h338v-70h-410v236h-262l-152 -236h-84zM283 303h216v332z" />
    <glyph glyph-name="Ccedilla" unicode="&#xc7;" horiz-adv-x="813" 
d="M447 49q150 0 252 119l57 -43q-56 -70 -135.5 -106t-178.5 -36h-5l-6 -41q5 1 8.5 1.5t8.5 0.5q23 0 40 -13.5t17 -38.5q0 -33 -29.5 -55.5t-82.5 -22.5q-42 0 -81 15l11 34q14 -5 28.5 -7.5t29.5 -2.5q32 0 49 8t17 24q0 9 -8 15t-22 6q-8 0 -17.5 -1.5t-16.5 -3.5
l11 84q-79 8 -142 40.5t-106.5 82.5t-67 115.5t-23.5 139.5q0 80 29 148t81 118t122.5 78.5t154.5 28.5q100 0 180 -38t134 -113l-57 -43q-48 63 -113 93.5t-143 30.5q-64 0 -120.5 -22.5t-99.5 -63.5t-68 -97.5t-25 -125.5q0 -67 24 -123.5t66.5 -97.5t100.5 -64t126 -23z
" />
    <glyph glyph-name="Egrave" unicode="&#xc8;" horiz-adv-x="536" 
d="M264 777h58l-73 118h-73zM498 718v-70h-338v-225h338v-70h-338v-283h338v-70h-410v718h410z" />
    <glyph glyph-name="Eacute" unicode="&#xc9;" horiz-adv-x="536" 
d="M349 895l-73 -118h58l88 118h-73zM498 718v-70h-338v-225h338v-70h-338v-283h338v-70h-410v718h410z" />
    <glyph glyph-name="Ecircumflex" unicode="&#xca;" horiz-adv-x="536" 
d="M235 777h-68l97 118h70l97 -118h-68l-64 79zM498 718v-70h-338v-225h338v-70h-338v-283h338v-70h-410v718h410z" />
    <glyph glyph-name="Edieresis" unicode="&#xcb;" horiz-adv-x="536" 
d="M199 891q23 0 39.5 -17t16.5 -40t-16.5 -39.5t-39.5 -16.5t-40 16.5t-17 39.5t17 40t40 17zM398 891q23 0 39.5 -17t16.5 -40t-16.5 -39.5t-39.5 -16.5t-40 16.5t-17 39.5t17 40t40 17zM498 718v-70h-338v-225h338v-70h-338v-283h338v-70h-410v718h410z" />
    <glyph glyph-name="Igrave" unicode="&#xcc;" horiz-adv-x="226" 
d="M78 777h58l-73 118h-73zM149 718v-718h-72v718h72z" />
    <glyph glyph-name="Iacute" unicode="&#xcd;" horiz-adv-x="226" 
d="M163 895l-73 -118h58l88 118h-73zM149 718v-718h-72v718h72z" />
    <glyph glyph-name="Icircumflex" unicode="&#xce;" horiz-adv-x="226" 
d="M150 903l142 -125h-89l-86 74l-89 -74h-91l145 125h68zM149 718v-718h-72v718h72z" />
    <glyph glyph-name="Idieresis" unicode="&#xcf;" horiz-adv-x="226" 
d="M15 891q23 0 39.5 -17t16.5 -40t-16.5 -39.5t-39.5 -16.5t-40 16.5t-17 39.5t17 40t40 17zM214 891q23 0 39.5 -17t16.5 -40t-16.5 -39.5t-39.5 -16.5t-40 16.5t-17 39.5t17 40t40 17zM149 718v-718h-72v718h72z" />
    <glyph glyph-name="Eth" unicode="&#xd0;" horiz-adv-x="790" 
d="M17 326v67h88v325h206q60 0 114.5 -5.5t108.5 -27.5q97 -39 151.5 -127.5t54.5 -206.5q0 -76 -23 -140.5t-68 -111.5t-111 -73t-153 -26h-280v326h-88zM173 70h139q51 0 94 3t78.5 12.5t65 27.5t53.5 47q32 38 47 85.5t15 104.5q0 113 -59 190q-26 33 -58.5 54t-73 33
t-89 16.5t-107.5 4.5h-105v-255h189v-67h-189v-256z" />
    <glyph glyph-name="Ntilde" unicode="&#xd1;" horiz-adv-x="740" 
d="M441 854q20 0 38.5 7t35.5 17l34 -47q-25 -18 -50 -30.5t-60 -12.5q-24 0 -42 6.5t-34 14t-31 14t-32 6.5q-24 0 -41.5 -11t-35.5 -24l-32 50q44 47 110 47q21 0 39 -6t35 -12.5t33 -12.5t33 -6zM89 718h15l476 -550v550h72v-718h-16l-475 543v-543h-72v718z" />
    <glyph glyph-name="Ograve" unicode="&#xd2;" horiz-adv-x="869" 
d="M400 777h58l-73 118h-73zM429 736q82 0 152 -29t121.5 -79.5t81 -119.5t29.5 -149q0 -79 -29 -148t-80 -120t-120 -80t-149 -29q-83 0 -152.5 30t-120 81.5t-78.5 119.5t-28 143q0 80 29 149.5t79.5 120.5t118.5 80.5t146 29.5zM433 666q-59 0 -113.5 -22.5t-96.5 -63.5
t-67 -98t-25 -126q0 -66 24.5 -122t66 -96.5t96 -63t115.5 -22.5q63 0 118.5 23t97 63.5t65.5 97.5t24 124q0 68 -25.5 124.5t-67.5 97t-97 62.5t-115 22z" />
    <glyph glyph-name="Oacute" unicode="&#xd3;" horiz-adv-x="869" 
d="M485 895l-73 -118h58l88 118h-73zM429 736q82 0 152 -29t121.5 -79.5t81 -119.5t29.5 -149q0 -79 -29 -148t-80 -120t-120 -80t-149 -29q-83 0 -152.5 30t-120 81.5t-78.5 119.5t-28 143q0 80 29 149.5t79.5 120.5t118.5 80.5t146 29.5zM433 666q-59 0 -113.5 -22.5
t-96.5 -63.5t-67 -98t-25 -126q0 -66 24.5 -122t66 -96.5t96 -63t115.5 -22.5q63 0 118.5 23t97 63.5t65.5 97.5t24 124q0 68 -25.5 124.5t-67.5 97t-97 62.5t-115 22z" />
    <glyph glyph-name="Ocircumflex" unicode="&#xd4;" horiz-adv-x="869" 
d="M371 777h-68l97 118h70l97 -118h-68l-64 79zM429 736q82 0 152 -29t121.5 -79.5t81 -119.5t29.5 -149q0 -79 -29 -148t-80 -120t-120 -80t-149 -29q-83 0 -152.5 30t-120 81.5t-78.5 119.5t-28 143q0 80 29 149.5t79.5 120.5t118.5 80.5t146 29.5zM433 666
q-59 0 -113.5 -22.5t-96.5 -63.5t-67 -98t-25 -126q0 -66 24.5 -122t66 -96.5t96 -63t115.5 -22.5q63 0 118.5 23t97 63.5t65.5 97.5t24 124q0 68 -25.5 124.5t-67.5 97t-97 62.5t-115 22z" />
    <glyph glyph-name="Otilde" unicode="&#xd5;" horiz-adv-x="869" 
d="M308 787q0 42 11 66t29 33t41 3.5t47 -23.5q18 -14 32 -22.5t23 -8t14 12.5t5 39h52q0 -42 -11 -66.5t-29 -33.5t-40.5 -3.5t-46.5 23.5q-18 14 -32 22.5t-23.5 8t-14.5 -12t-5 -38.5h-52zM429 736q82 0 152 -29t121.5 -79.5t81 -119.5t29.5 -149q0 -79 -29 -148
t-80 -120t-120 -80t-149 -29q-83 0 -152.5 30t-120 81.5t-78.5 119.5t-28 143q0 80 29 149.5t79.5 120.5t118.5 80.5t146 29.5zM433 666q-59 0 -113.5 -22.5t-96.5 -63.5t-67 -98t-25 -126q0 -66 24.5 -122t66 -96.5t96 -63t115.5 -22.5q63 0 118.5 23t97 63.5t65.5 97.5
t24 124q0 68 -25.5 124.5t-67.5 97t-97 62.5t-115 22z" />
    <glyph glyph-name="Odieresis" unicode="&#xd6;" horiz-adv-x="869" 
d="M335 891q23 0 39.5 -17t16.5 -40t-16.5 -39.5t-39.5 -16.5t-40 16.5t-17 39.5t17 40t40 17zM534 891q23 0 39.5 -17t16.5 -40t-16.5 -39.5t-39.5 -16.5t-40 16.5t-17 39.5t17 40t40 17zM429 736q82 0 152 -29t121.5 -79.5t81 -119.5t29.5 -149q0 -79 -29 -148t-80 -120
t-120 -80t-149 -29q-83 0 -152.5 30t-120 81.5t-78.5 119.5t-28 143q0 80 29 149.5t79.5 120.5t118.5 80.5t146 29.5zM433 666q-59 0 -113.5 -22.5t-96.5 -63.5t-67 -98t-25 -126q0 -66 24.5 -122t66 -96.5t96 -63t115.5 -22.5q63 0 118.5 23t97 63.5t65.5 97.5t24 124
q0 68 -25.5 124.5t-67.5 97t-97 62.5t-115 22z" />
    <glyph glyph-name="multiply" unicode="&#xd7;" horiz-adv-x="606" 
d="M510 197l-45 -45l-162 162l-162 -162l-45 45l162 162l-162 162l45 45l162 -162l162 162l45 -45l-162 -162z" />
    <glyph glyph-name="Oslash" unicode="&#xd8;" horiz-adv-x="868" 
d="M710 620q48 -49 75.5 -115.5t27.5 -144.5q0 -79 -29 -148t-80 -120t-120 -80.5t-149 -29.5q-60 0 -112.5 15t-100.5 47l-80 -94l-52 42l80 95q-56 54 -85 122.5t-29 146.5q0 79 28.5 148t79 120.5t120 81.5t150.5 30q127 0 228 -72l71 85l51 -42zM613 608
q-40 29 -86 43.5t-94 14.5q-59 0 -113.5 -22.5t-96.5 -63.5t-67 -98t-25 -126q0 -125 86 -214zM269 100q75 -48 164 -48q63 0 118.5 23t97 63.5t65.5 97.5t24 124q0 118 -76 203z" />
    <glyph glyph-name="Ugrave" unicode="&#xd9;" 
d="M293 777h58l-73 118h-73zM566 718v-467q0 -128 -63.5 -198.5t-174.5 -70.5t-174.5 70.5t-63.5 198.5v467h72v-456q0 -42 4.5 -80t33.5 -73q45 -57 128 -57t128 57q29 35 33.5 73t4.5 80v456h72z" />
    <glyph glyph-name="Uacute" unicode="&#xda;" 
d="M378 895l-73 -118h58l88 118h-73zM566 718v-467q0 -128 -63.5 -198.5t-174.5 -70.5t-174.5 70.5t-63.5 198.5v467h72v-456q0 -42 4.5 -80t33.5 -73q45 -57 128 -57t128 57q29 35 33.5 73t4.5 80v456h72z" />
    <glyph glyph-name="Ucircumflex" unicode="&#xdb;" 
d="M364 903l142 -125h-89l-86 74l-89 -74h-91l145 125h68zM566 718v-467q0 -128 -63.5 -198.5t-174.5 -70.5t-174.5 70.5t-63.5 198.5v467h72v-456q0 -42 4.5 -80t33.5 -73q45 -57 128 -57t128 57q29 35 33.5 73t4.5 80v456h72z" />
    <glyph glyph-name="Udieresis" unicode="&#xdc;" 
d="M228 891q23 0 39.5 -17t16.5 -40t-16.5 -39.5t-39.5 -16.5t-40 16.5t-17 39.5t17 40t40 17zM427 891q23 0 39.5 -17t16.5 -40t-16.5 -39.5t-39.5 -16.5t-40 16.5t-17 39.5t17 40t40 17zM566 718v-467q0 -128 -63.5 -198.5t-174.5 -70.5t-174.5 70.5t-63.5 198.5v467h72
v-456q0 -42 4.5 -80t33.5 -73q45 -57 128 -57t128 57q29 35 33.5 73t4.5 80v456h72z" />
    <glyph glyph-name="Yacute" unicode="&#xdd;" horiz-adv-x="592" 
d="M346 895l-73 -118h58l88 118h-73zM31 718h83l184 -296l181 296h83l-228 -375v-343h-72v343z" />
    <glyph glyph-name="Thorn" unicode="&#xde;" horiz-adv-x="592" 
d="M159 718v-167h71q72 0 119.5 -5t69.5 -13q55 -22 86.5 -67.5t31.5 -106.5q0 -51 -22.5 -92t-60.5 -65t-93.5 -30t-130.5 -6h-71v-166h-72v718h72zM159 237q31 -1 61 -1h58q47 0 82.5 5t59.5 25q19 16 30.5 41t11.5 52q0 28 -12.5 53t-32.5 41q-24 18 -56.5 23t-74.5 5
h-127v-244z" />
    <glyph glyph-name="germandbls" unicode="&#xdf;" horiz-adv-x="554" 
d="M257 447q35 0 62.5 10t47 26.5t30 39t10.5 47.5q0 26 -9.5 47t-26 36t-38 23t-46.5 8q-27 0 -50.5 -9t-42 -25t-30 -38t-13.5 -47q-2 -17 -2.5 -37t-0.5 -37v-491h-68v499q0 51 5 89t20 64q27 47 73 72.5t107 25.5q44 0 79 -13.5t60.5 -37t39 -55.5t13.5 -70
q0 -61 -39.5 -107.5t-119.5 -57.5q20 -3 42.5 -8t51.5 -25q45 -30 68.5 -75t23.5 -102q0 -44 -14.5 -83t-41 -68t-64.5 -45.5t-85 -16.5q-29 0 -52 4.5t-49 19.5v65q21 -10 43 -16.5t48 -6.5q30 0 56.5 10.5t46 30t31 47t11.5 61.5q0 35 -11.5 65.5t-35.5 53t-60 36.5
t-85 15v76h15z" />
    <glyph glyph-name="agrave" unicode="&#xe0;" horiz-adv-x="683" 
d="M307 590h58l-73 118h-73zM605 531v-531h-67v91q-44 -53 -97.5 -78.5t-116.5 -25.5q-58 0 -108 22.5t-86.5 61t-57 89t-20.5 107.5t21 107.5t58 88.5t87 60t108 22q65 0 118.5 -27.5t93.5 -83.5v97h67zM332 479q-46 0 -84.5 -17.5t-66.5 -47t-43.5 -68t-15.5 -81.5t16 -82
t44 -69t66 -47.5t83 -17.5q41 0 79 15t67.5 42.5t47.5 67.5t18 89q0 46 -16 85.5t-44.5 68.5t-67 45.5t-83.5 16.5z" />
    <glyph glyph-name="aacute" unicode="&#xe1;" horiz-adv-x="683" 
d="M392 708l-73 -118h58l88 118h-73zM605 531v-531h-67v91q-44 -53 -97.5 -78.5t-116.5 -25.5q-58 0 -108 22.5t-86.5 61t-57 89t-20.5 107.5t21 107.5t58 88.5t87 60t108 22q65 0 118.5 -27.5t93.5 -83.5v97h67zM332 479q-46 0 -84.5 -17.5t-66.5 -47t-43.5 -68
t-15.5 -81.5t16 -82t44 -69t66 -47.5t83 -17.5q41 0 79 15t67.5 42.5t47.5 67.5t18 89q0 46 -16 85.5t-44.5 68.5t-67 45.5t-83.5 16.5z" />
    <glyph glyph-name="acircumflex" unicode="&#xe2;" horiz-adv-x="683" 
d="M278 590h-68l97 118h70l97 -118h-68l-64 79zM605 531v-531h-67v91q-44 -53 -97.5 -78.5t-116.5 -25.5q-58 0 -108 22.5t-86.5 61t-57 89t-20.5 107.5t21 107.5t58 88.5t87 60t108 22q65 0 118.5 -27.5t93.5 -83.5v97h67zM332 479q-46 0 -84.5 -17.5t-66.5 -47t-43.5 -68
t-15.5 -81.5t16 -82t44 -69t66 -47.5t83 -17.5q41 0 79 15t67.5 42.5t47.5 67.5t18 89q0 46 -16 85.5t-44.5 68.5t-67 45.5t-83.5 16.5z" />
    <glyph glyph-name="atilde" unicode="&#xe3;" horiz-adv-x="683" 
d="M215 600q0 42 11 66t29 33t41 3.5t47 -23.5q18 -14 32 -22.5t23 -8t14 12.5t5 39h52q0 -42 -11 -66.5t-29 -33.5t-40.5 -3.5t-46.5 23.5q-18 14 -32 22.5t-23.5 8t-14.5 -12t-5 -38.5h-52zM605 531v-531h-67v91q-44 -53 -97.5 -78.5t-116.5 -25.5q-58 0 -108 22.5
t-86.5 61t-57 89t-20.5 107.5t21 107.5t58 88.5t87 60t108 22q65 0 118.5 -27.5t93.5 -83.5v97h67zM332 479q-46 0 -84.5 -17.5t-66.5 -47t-43.5 -68t-15.5 -81.5t16 -82t44 -69t66 -47.5t83 -17.5q41 0 79 15t67.5 42.5t47.5 67.5t18 89q0 46 -16 85.5t-44.5 68.5t-67 45.5
t-83.5 16.5z" />
    <glyph glyph-name="adieresis" unicode="&#xe4;" horiz-adv-x="683" 
d="M242 741q23 0 39.5 -17t16.5 -40t-16.5 -39.5t-39.5 -16.5t-40 16.5t-17 39.5t17 40t40 17zM441 741q23 0 39.5 -17t16.5 -40t-16.5 -39.5t-39.5 -16.5t-40 16.5t-17 39.5t17 40t40 17zM605 531v-531h-67v91q-44 -53 -97.5 -78.5t-116.5 -25.5q-58 0 -108 22.5t-86.5 61
t-57 89t-20.5 107.5t21 107.5t58 88.5t87 60t108 22q65 0 118.5 -27.5t93.5 -83.5v97h67zM332 479q-46 0 -84.5 -17.5t-66.5 -47t-43.5 -68t-15.5 -81.5t16 -82t44 -69t66 -47.5t83 -17.5q41 0 79 15t67.5 42.5t47.5 67.5t18 89q0 46 -16 85.5t-44.5 68.5t-67 45.5
t-83.5 16.5z" />
    <glyph glyph-name="aring" unicode="&#xe5;" horiz-adv-x="683" 
d="M343 820q42 0 71.5 -29t29.5 -72q0 -21 -8 -39.5t-21.5 -32.5t-32 -22t-39.5 -8t-39.5 8t-32.5 22t-22 32.5t-8 39.5q0 42 29.5 71.5t72.5 29.5zM343 778q-26 1 -42.5 -16.5t-16.5 -42.5q0 -26 18 -42.5t41 -16.5q25 0 42 17.5t17 41.5q1 25 -17 42t-42 17zM605 531v-531
h-67v91q-44 -53 -97.5 -78.5t-116.5 -25.5q-58 0 -108 22.5t-86.5 61t-57 89t-20.5 107.5t21 107.5t58 88.5t87 60t108 22q65 0 118.5 -27.5t93.5 -83.5v97h67zM332 479q-46 0 -84.5 -17.5t-66.5 -47t-43.5 -68t-15.5 -81.5t16 -82t44 -69t66 -47.5t83 -17.5q41 0 79 15
t67.5 42.5t47.5 67.5t18 89q0 46 -16 85.5t-44.5 68.5t-67 45.5t-83.5 16.5z" />
    <glyph glyph-name="ae" unicode="&#xe6;" horiz-adv-x="1157" 
d="M607 531v-96q22 26 43.5 46.5t47 34.5t55.5 21.5t68 7.5q60 0 110.5 -21.5t87 -58.5t57.5 -87t21 -107v-12h-478q1 -42 16.5 -80.5t43 -67t65.5 -45.5t84 -17q65 0 112 31t82 94l58 -29q-37 -78 -104.5 -118t-152.5 -40q-72 0 -123.5 27t-92.5 81v-95h-62v98
q-44 -54 -93 -83t-120 -29q-56 0 -106 22t-87.5 60t-59 89.5t-21.5 110.5q0 60 22.5 111t60 87.5t86.5 57.5t103 21q69 0 119.5 -28.5t95.5 -82.5v97h62zM335 479q-42 0 -80 -15.5t-66 -44t-44.5 -68t-16.5 -86.5q0 -46 16 -85t44.5 -67.5t66.5 -44.5t82 -16q42 0 80.5 15.5
t67 43.5t45.5 67t17 87q0 51 -17 91t-46 67t-67.5 41.5t-81.5 14.5zM1022 319q-10 42 -30 72.5t-46 50t-57.5 28.5t-64.5 9q-31 0 -63 -9.5t-59 -29t-48 -49.5t-31 -72h399z" />
    <glyph glyph-name="ccedilla" unicode="&#xe7;" horiz-adv-x="647" 
d="M346 49q116 0 191 93l55 -35q-38 -57 -99.5 -87.5t-138.5 -32.5l-6 -45q5 1 8.5 1.5t8.5 0.5q23 0 40 -13.5t17 -38.5q0 -33 -29.5 -55.5t-82.5 -22.5q-42 0 -81 15l11 34q14 -5 28.5 -7.5t29.5 -2.5q32 0 49 8t17 24q0 9 -8 15t-22 6q-8 0 -17.5 -1.5t-16.5 -3.5l11 87
q-59 6 -107 29.5t-82 60.5t-52.5 84t-18.5 99q0 59 22 110.5t61 90t93.5 61t120.5 22.5q77 0 142 -31t102 -93l-55 -34q-70 92 -192 92q-51 0 -92 -17t-70.5 -46.5t-45.5 -68t-16 -81.5t16 -82.5t45 -69.5t71 -47.5t93 -17.5z" />
    <glyph glyph-name="egrave" unicode="&#xe8;" horiz-adv-x="650" 
d="M290 590h58l-73 118h-73zM121 260q1 -46 16.5 -84.5t42 -66.5t62.5 -44t79 -16q42 0 73.5 11t55.5 28.5t41.5 40.5t32.5 47l57 -30q-81 -159 -253 -159q-66 0 -117.5 23.5t-87 62t-54 88.5t-18.5 103q0 54 19.5 105t55 90t86 62.5t112.5 23.5q57 0 106.5 -20t87 -56.5
t59 -89.5t22.5 -119h-478zM524 320q-21 83 -75.5 121t-123.5 38q-72 0 -123 -39t-74 -120h396z" />
    <glyph glyph-name="eacute" unicode="&#xe9;" horiz-adv-x="650" 
d="M375 708l-73 -118h58l88 118h-73zM121 260q1 -46 16.5 -84.5t42 -66.5t62.5 -44t79 -16q42 0 73.5 11t55.5 28.5t41.5 40.5t32.5 47l57 -30q-81 -159 -253 -159q-66 0 -117.5 23.5t-87 62t-54 88.5t-18.5 103q0 54 19.5 105t55 90t86 62.5t112.5 23.5q57 0 106.5 -20
t87 -56.5t59 -89.5t22.5 -119h-478zM524 320q-21 83 -75.5 121t-123.5 38q-72 0 -123 -39t-74 -120h396z" />
    <glyph glyph-name="ecircumflex" unicode="&#xea;" horiz-adv-x="650" 
d="M261 590h-68l97 118h70l97 -118h-68l-64 79zM121 260q1 -46 16.5 -84.5t42 -66.5t62.5 -44t79 -16q42 0 73.5 11t55.5 28.5t41.5 40.5t32.5 47l57 -30q-81 -159 -253 -159q-66 0 -117.5 23.5t-87 62t-54 88.5t-18.5 103q0 54 19.5 105t55 90t86 62.5t112.5 23.5
q57 0 106.5 -20t87 -56.5t59 -89.5t22.5 -119h-478zM524 320q-21 83 -75.5 121t-123.5 38q-72 0 -123 -39t-74 -120h396z" />
    <glyph glyph-name="edieresis" unicode="&#xeb;" horiz-adv-x="650" 
d="M226 741q23 0 39.5 -17t16.5 -40t-16.5 -39.5t-39.5 -16.5t-40 16.5t-17 39.5t17 40t40 17zM425 741q23 0 39.5 -17t16.5 -40t-16.5 -39.5t-39.5 -16.5t-40 16.5t-17 39.5t17 40t40 17zM121 260q1 -46 16.5 -84.5t42 -66.5t62.5 -44t79 -16q42 0 73.5 11t55.5 28.5
t41.5 40.5t32.5 47l57 -30q-81 -159 -253 -159q-66 0 -117.5 23.5t-87 62t-54 88.5t-18.5 103q0 54 19.5 105t55 90t86 62.5t112.5 23.5q57 0 106.5 -20t87 -56.5t59 -89.5t22.5 -119h-478zM524 320q-21 83 -75.5 121t-123.5 38q-72 0 -123 -39t-74 -120h396z" />
    <glyph glyph-name="igrave" unicode="&#xec;" horiz-adv-x="200" 
d="M65 590h58l-73 118h-73zM135 531v-531h-68v531h68z" />
    <glyph glyph-name="iacute" unicode="&#xed;" horiz-adv-x="200" 
d="M150 708l-73 -118h58l88 118h-73zM135 531v-531h-68v531h68z" />
    <glyph glyph-name="icircumflex" unicode="&#xee;" horiz-adv-x="200" 
d="M137 753l142 -125h-89l-86 74l-89 -74h-91l145 125h68zM135 531v-531h-68v531h68z" />
    <glyph glyph-name="idieresis" unicode="&#xef;" horiz-adv-x="200" 
d="M2 741q23 0 39.5 -17t16.5 -40t-16.5 -39.5t-39.5 -16.5t-40 16.5t-17 39.5t17 40t40 17zM201 741q23 0 39.5 -17t16.5 -40t-16.5 -39.5t-39.5 -16.5t-40 16.5t-17 39.5t17 40t40 17zM135 531v-531h-68v531h68z" />
    <glyph glyph-name="eth" unicode="&#xf0;" 
d="M291 671q-22 19 -44 36.5t-37 28.5h96q12 -9 25 -18.5t25 -19.5l80 33l25 -52l-57 -23q201 -195 201 -379q0 -61 -20.5 -114t-58 -92.5t-88.5 -62t-113 -22.5q-57 0 -106.5 21.5t-87 59.5t-59 89t-21.5 111q0 62 23 113t60.5 87.5t85.5 56.5t99 20q41 0 70 -10t52 -21
q-35 48 -61 74t-43 41l-106 -44l-25 52zM332 481q-40 0 -78 -14.5t-67.5 -41.5t-47.5 -66.5t-18 -89.5q0 -48 16.5 -88t45 -68.5t66 -44.5t78.5 -16q42 0 80 15.5t66.5 44t45 68t16.5 87.5t-15.5 87t-43 67.5t-64.5 44t-80 15.5z" />
    <glyph glyph-name="ntilde" unicode="&#xf1;" horiz-adv-x="610" 
d="M376 704q20 0 38.5 7t35.5 17l34 -47q-25 -18 -50 -30.5t-60 -12.5q-24 0 -42 6.5t-34 14t-31 14t-32 6.5q-24 0 -41.5 -11t-35.5 -24l-32 50q44 47 110 47q21 0 39 -6t35 -12.5t33 -12.5t33 -6zM144 436q83 109 199 109q44 0 80 -15t62 -46t40.5 -77t14.5 -109v-298h-68
v289q0 94 -32 144t-110 50q-85 0 -140 -72q-30 -39 -38 -82t-8 -106v-223h-68v531h68v-95z" />
    <glyph glyph-name="ograve" unicode="&#xf2;" 
d="M293 590h58l-73 118h-73zM328 545q60 0 110.5 -22.5t87.5 -61t58 -89.5t21 -108t-21 -107.5t-57.5 -88.5t-87.5 -60t-111 -22t-111 22t-87.5 60t-57.5 88.5t-21 107.5t21 108t58 89.5t87.5 61t110.5 22.5zM328 479q-43 0 -80.5 -17t-65.5 -46.5t-44.5 -69t-16.5 -83.5
q0 -43 15.5 -81.5t43 -67.5t65.5 -45.5t83 -16.5t82.5 16.5t65.5 45.5t43.5 67.5t15.5 81.5q0 44 -16.5 83.5t-44.5 69t-66 46.5t-80 17z" />
    <glyph glyph-name="oacute" unicode="&#xf3;" 
d="M378 708l-73 -118h58l88 118h-73zM328 545q60 0 110.5 -22.5t87.5 -61t58 -89.5t21 -108t-21 -107.5t-57.5 -88.5t-87.5 -60t-111 -22t-111 22t-87.5 60t-57.5 88.5t-21 107.5t21 108t58 89.5t87.5 61t110.5 22.5zM328 479q-43 0 -80.5 -17t-65.5 -46.5t-44.5 -69
t-16.5 -83.5q0 -43 15.5 -81.5t43 -67.5t65.5 -45.5t83 -16.5t82.5 16.5t65.5 45.5t43.5 67.5t15.5 81.5q0 44 -16.5 83.5t-44.5 69t-66 46.5t-80 17z" />
    <glyph glyph-name="ocircumflex" unicode="&#xf4;" 
d="M264 590h-68l97 118h70l97 -118h-68l-64 79zM328 545q60 0 110.5 -22.5t87.5 -61t58 -89.5t21 -108t-21 -107.5t-57.5 -88.5t-87.5 -60t-111 -22t-111 22t-87.5 60t-57.5 88.5t-21 107.5t21 108t58 89.5t87.5 61t110.5 22.5zM328 479q-43 0 -80.5 -17t-65.5 -46.5
t-44.5 -69t-16.5 -83.5q0 -43 15.5 -81.5t43 -67.5t65.5 -45.5t83 -16.5t82.5 16.5t65.5 45.5t43.5 67.5t15.5 81.5q0 44 -16.5 83.5t-44.5 69t-66 46.5t-80 17z" />
    <glyph glyph-name="otilde" unicode="&#xf5;" 
d="M201 600q0 42 11 66t29 33t41 3.5t47 -23.5q18 -14 32 -22.5t23 -8t14 12.5t5 39h52q0 -42 -11 -66.5t-29 -33.5t-40.5 -3.5t-46.5 23.5q-18 14 -32 22.5t-23.5 8t-14.5 -12t-5 -38.5h-52zM328 545q60 0 110.5 -22.5t87.5 -61t58 -89.5t21 -108t-21 -107.5t-57.5 -88.5
t-87.5 -60t-111 -22t-111 22t-87.5 60t-57.5 88.5t-21 107.5t21 108t58 89.5t87.5 61t110.5 22.5zM328 479q-43 0 -80.5 -17t-65.5 -46.5t-44.5 -69t-16.5 -83.5q0 -43 15.5 -81.5t43 -67.5t65.5 -45.5t83 -16.5t82.5 16.5t65.5 45.5t43.5 67.5t15.5 81.5q0 44 -16.5 83.5
t-44.5 69t-66 46.5t-80 17z" />
    <glyph glyph-name="odieresis" unicode="&#xf6;" 
d="M228 741q23 0 39.5 -17t16.5 -40t-16.5 -39.5t-39.5 -16.5t-40 16.5t-17 39.5t17 40t40 17zM427 741q23 0 39.5 -17t16.5 -40t-16.5 -39.5t-39.5 -16.5t-40 16.5t-17 39.5t17 40t40 17zM328 545q60 0 110.5 -22.5t87.5 -61t58 -89.5t21 -108t-21 -107.5t-57.5 -88.5
t-87.5 -60t-111 -22t-111 22t-87.5 60t-57.5 88.5t-21 107.5t21 108t58 89.5t87.5 61t110.5 22.5zM328 479q-43 0 -80.5 -17t-65.5 -46.5t-44.5 -69t-16.5 -83.5q0 -43 15.5 -81.5t43 -67.5t65.5 -45.5t83 -16.5t82.5 16.5t65.5 45.5t43.5 67.5t15.5 81.5q0 44 -16.5 83.5
t-44.5 69t-66 46.5t-80 17z" />
    <glyph glyph-name="divide" unicode="&#xf7;" horiz-adv-x="606" 
d="M353 590v-99h-98v99h98zM551 393v-67h-494v67h494zM353 228v-100h-98v100h98z" />
    <glyph glyph-name="oslash" unicode="&#xf8;" horiz-adv-x="653" 
d="M539 446q32 -38 48.5 -84.5t16.5 -97.5q0 -57 -21 -107.5t-57.5 -88.5t-87.5 -60t-111 -22q-81 0 -146 40l-57 -66l-43 35l55 66q-42 42 -64 93.5t-22 109.5q0 57 21 108.5t58 89.5t87.5 60.5t109.5 22.5q99 0 172 -58l57 66l44 -36zM453 433q-28 22 -60 34t-66 12
q-42 0 -80 -17t-66 -46.5t-44.5 -69t-16.5 -83.5q0 -42 16 -82t44 -69zM225 77q47 -25 102 -25q45 0 83 16.5t65.5 45t43 67t15.5 81.5q0 69 -42 130z" />
    <glyph glyph-name="ugrave" unicode="&#xf9;" horiz-adv-x="608" 
d="M269 590h58l-73 118h-73zM534 531v-275q0 -135 -59 -202t-174 -67t-174.5 67t-59.5 202v275h72v-259q0 -42 2 -76t13 -58q19 -41 57.5 -63t89.5 -22q37 0 68 12.5t52 34.5q16 17 24.5 35t12 39t4 45.5t0.5 52.5v259h72z" />
    <glyph glyph-name="uacute" unicode="&#xfa;" horiz-adv-x="608" 
d="M354 708l-73 -118h58l88 118h-73zM534 531v-275q0 -135 -59 -202t-174 -67t-174.5 67t-59.5 202v275h72v-259q0 -42 2 -76t13 -58q19 -41 57.5 -63t89.5 -22q37 0 68 12.5t52 34.5q16 17 24.5 35t12 39t4 45.5t0.5 52.5v259h72z" />
    <glyph glyph-name="ucircumflex" unicode="&#xfb;" horiz-adv-x="608" 
d="M340 753l142 -125h-89l-86 74l-89 -74h-91l145 125h68zM534 531v-275q0 -135 -59 -202t-174 -67t-174.5 67t-59.5 202v275h72v-259q0 -42 2 -76t13 -58q19 -41 57.5 -63t89.5 -22q37 0 68 12.5t52 34.5q16 17 24.5 35t12 39t4 45.5t0.5 52.5v259h72z" />
    <glyph glyph-name="udieresis" unicode="&#xfc;" horiz-adv-x="608" 
d="M205 741q23 0 39.5 -17t16.5 -40t-16.5 -39.5t-39.5 -16.5t-40 16.5t-17 39.5t17 40t40 17zM404 741q23 0 39.5 -17t16.5 -40t-16.5 -39.5t-39.5 -16.5t-40 16.5t-17 39.5t17 40t40 17zM534 531v-275q0 -135 -59 -202t-174 -67t-174.5 67t-59.5 202v275h72v-259
q0 -42 2 -76t13 -58q19 -41 57.5 -63t89.5 -22q37 0 68 12.5t52 34.5q16 17 24.5 35t12 39t4 45.5t0.5 52.5v259h72z" />
    <glyph glyph-name="yacute" unicode="&#xfd;" horiz-adv-x="536" 
d="M318 708l-73 -118h58l88 118h-73zM91 531l183 -409l177 409h73l-317 -725h-72l102 234l-218 491h72z" />
    <glyph glyph-name="thorn" unicode="&#xfe;" horiz-adv-x="682" 
d="M146 736v-302q40 56 93 83.5t117 27.5q58 0 108.5 -22t87.5 -60t58 -88.5t21 -107.5t-20.5 -108t-57.5 -89.5t-86.5 -61t-108.5 -22.5q-125 0 -212 105v-285h-69v930h69zM351 479q-45 0 -83.5 -16.5t-67 -45.5t-44.5 -68.5t-16 -85.5q0 -49 17.5 -89t47 -67.5t67.5 -42.5
t79 -15q44 0 82.5 17.5t67 47t44.5 69t16 82.5t-15.5 81.5t-43.5 68t-66.5 47t-84.5 17.5z" />
    <glyph glyph-name="ydieresis" unicode="&#xff;" horiz-adv-x="536" 
d="M169 741q23 0 39.5 -17t16.5 -40t-16.5 -39.5t-39.5 -16.5t-40 16.5t-17 39.5t17 40t40 17zM368 741q23 0 39.5 -17t16.5 -40t-16.5 -39.5t-39.5 -16.5t-40 16.5t-17 39.5t17 40t40 17zM91 531l183 -409l177 409h73l-317 -725h-72l102 234l-218 491h72z" />
    <glyph glyph-name="Amacron" unicode="&#x100;" horiz-adv-x="740" 
d="M533 873v-60h-337v60h337zM716 0h-77l-113 236h-310l-112 -236h-80l340 718h17zM248 306h246l-122 260z" />
    <glyph glyph-name="amacron" unicode="&#x101;" horiz-adv-x="683" 
d="M516 723v-60h-337v60h337zM605 531v-531h-67v91q-44 -53 -97.5 -78.5t-116.5 -25.5q-58 0 -108 22.5t-86.5 61t-57 89t-20.5 107.5t21 107.5t58 88.5t87 60t108 22q65 0 118.5 -27.5t93.5 -83.5v97h67zM332 479q-46 0 -84.5 -17.5t-66.5 -47t-43.5 -68t-15.5 -81.5
t16 -82t44 -69t66 -47.5t83 -17.5q41 0 79 15t67.5 42.5t47.5 67.5t18 89q0 46 -16 85.5t-44.5 68.5t-67 45.5t-83.5 16.5z" />
    <glyph glyph-name="Abreve" unicode="&#x102;" horiz-adv-x="740" 
d="M370 779q-57 0 -92 30.5t-35 87.5h58q0 -35 17.5 -50t51.5 -15t51.5 15t17.5 50h58q0 -57 -34 -87.5t-93 -30.5zM716 0h-77l-113 236h-310l-112 -236h-80l340 718h17zM248 306h246l-122 260z" />
    <glyph glyph-name="abreve" unicode="&#x103;" horiz-adv-x="683" 
d="M342 592q-57 0 -92 30.5t-35 87.5h58q0 -35 17.5 -50t51.5 -15t51.5 15t17.5 50h58q0 -57 -34 -87.5t-93 -30.5zM605 531v-531h-67v91q-44 -53 -97.5 -78.5t-116.5 -25.5q-58 0 -108 22.5t-86.5 61t-57 89t-20.5 107.5t21 107.5t58 88.5t87 60t108 22q65 0 118.5 -27.5
t93.5 -83.5v97h67zM332 479q-46 0 -84.5 -17.5t-66.5 -47t-43.5 -68t-15.5 -81.5t16 -82t44 -69t66 -47.5t83 -17.5q41 0 79 15t67.5 42.5t47.5 67.5t18 89q0 46 -16 85.5t-44.5 68.5t-67 45.5t-83.5 16.5z" />
    <glyph glyph-name="Aogonek" unicode="&#x104;" horiz-adv-x="740" 
d="M746 -187q-11 -2 -21.5 -3t-20.5 -1q-31 0 -52.5 8t-34.5 21t-18.5 28.5t-5.5 29.5q0 29 14.5 56.5t43.5 47.5h-12l-113 236h-310l-112 -236h-80l340 718h17l335 -718h-12q-27 -23 -43 -45t-16 -48q0 -20 16.5 -37.5t55.5 -17.5q8 0 17.5 1t16.5 2zM248 306h246l-122 260
z" />
    <glyph glyph-name="aogonek" unicode="&#x105;" horiz-adv-x="683" 
d="M638 -187q-11 -2 -21.5 -3t-20.5 -1q-31 0 -52.5 8t-34.5 21t-18.5 28.5t-5.5 29.5q0 29 14.5 56.5t43.5 47.5h-5v91q-44 -53 -97.5 -78.5t-116.5 -25.5q-58 0 -108 22.5t-86.5 61t-57 89t-20.5 107.5t21 107.5t58 88.5t87 60t108 22q65 0 118.5 -27.5t93.5 -83.5v97h67
v-531h-9q-27 -23 -43 -45t-16 -48q0 -20 16.5 -37.5t55.5 -17.5q8 0 17.5 1t16.5 2zM332 479q-46 0 -84.5 -17.5t-66.5 -47t-43.5 -68t-15.5 -81.5t16 -82t44 -69t66 -47.5t83 -17.5q41 0 79 15t67.5 42.5t47.5 67.5t18 89q0 46 -16 85.5t-44.5 68.5t-67 45.5t-83.5 16.5z
" />
    <glyph glyph-name="Cacute" unicode="&#x106;" horiz-adv-x="813" 
d="M576 931l-145 -151h-67l107 151h105zM699 542q-48 63 -113 93.5t-143 30.5q-64 0 -120.5 -22.5t-99.5 -63.5t-68 -97.5t-25 -125.5q0 -67 24 -123.5t66.5 -97.5t100.5 -64t126 -23q150 0 252 119l57 -43q-56 -70 -135.5 -106t-178.5 -36q-90 0 -161.5 29.5t-122 81
t-77 121t-26.5 148.5q0 80 29 148t81 118t122.5 78.5t154.5 28.5q100 0 180 -38t134 -113z" />
    <glyph glyph-name="cacute" unicode="&#x107;" horiz-adv-x="647" 
d="M492 781l-145 -151h-67l107 151h105zM592 107q-39 -60 -103.5 -90t-145.5 -30q-66 0 -119.5 22t-92 59.5t-59.5 87.5t-21 105q0 59 22 110.5t61 90t93.5 61t120.5 22.5q77 0 142 -31t102 -93l-55 -34q-70 92 -192 92q-51 0 -92 -17t-70.5 -46.5t-45.5 -68t-16 -81.5
t16 -82.5t45 -69.5t71 -47.5t93 -17.5q116 0 191 93z" />
    <glyph glyph-name="Ccircumflex" unicode="&#x108;" horiz-adv-x="813" 
d="M479 903l142 -125h-89l-86 74l-89 -74h-91l145 125h68zM699 542q-48 63 -113 93.5t-143 30.5q-64 0 -120.5 -22.5t-99.5 -63.5t-68 -97.5t-25 -125.5q0 -67 24 -123.5t66.5 -97.5t100.5 -64t126 -23q150 0 252 119l57 -43q-56 -70 -135.5 -106t-178.5 -36
q-90 0 -161.5 29.5t-122 81t-77 121t-26.5 148.5q0 80 29 148t81 118t122.5 78.5t154.5 28.5q100 0 180 -38t134 -113z" />
    <glyph glyph-name="ccircumflex" unicode="&#x109;" horiz-adv-x="647" 
d="M387 753l142 -125h-89l-86 74l-89 -74h-91l145 125h68zM592 107q-39 -60 -103.5 -90t-145.5 -30q-66 0 -119.5 22t-92 59.5t-59.5 87.5t-21 105q0 59 22 110.5t61 90t93.5 61t120.5 22.5q77 0 142 -31t102 -93l-55 -34q-70 92 -192 92q-51 0 -92 -17t-70.5 -46.5
t-45.5 -68t-16 -81.5t16 -82.5t45 -69.5t71 -47.5t93 -17.5q116 0 191 93z" />
    <glyph glyph-name="Cdotaccent" unicode="&#x10a;" horiz-adv-x="813" 
d="M441 891q23 0 39.5 -17t16.5 -40t-16.5 -39.5t-39.5 -16.5t-40 16.5t-17 39.5t17 40t40 17zM699 542q-48 63 -113 93.5t-143 30.5q-64 0 -120.5 -22.5t-99.5 -63.5t-68 -97.5t-25 -125.5q0 -67 24 -123.5t66.5 -97.5t100.5 -64t126 -23q150 0 252 119l57 -43
q-56 -70 -135.5 -106t-178.5 -36q-90 0 -161.5 29.5t-122 81t-77 121t-26.5 148.5q0 80 29 148t81 118t122.5 78.5t154.5 28.5q100 0 180 -38t134 -113z" />
    <glyph glyph-name="cdotaccent" unicode="&#x10b;" horiz-adv-x="647" 
d="M344 741q23 0 39.5 -17t16.5 -40t-16.5 -39.5t-39.5 -16.5t-40 16.5t-17 39.5t17 40t40 17zM592 107q-39 -60 -103.5 -90t-145.5 -30q-66 0 -119.5 22t-92 59.5t-59.5 87.5t-21 105q0 59 22 110.5t61 90t93.5 61t120.5 22.5q77 0 142 -31t102 -93l-55 -34q-70 92 -192 92
q-51 0 -92 -17t-70.5 -46.5t-45.5 -68t-16 -81.5t16 -82.5t45 -69.5t71 -47.5t93 -17.5q116 0 191 93z" />
    <glyph glyph-name="Ccaron" unicode="&#x10c;" horiz-adv-x="813" 
d="M410 778l-142 125h88l86 -74l90 74h91l-145 -125h-68zM699 542q-48 63 -113 93.5t-143 30.5q-64 0 -120.5 -22.5t-99.5 -63.5t-68 -97.5t-25 -125.5q0 -67 24 -123.5t66.5 -97.5t100.5 -64t126 -23q150 0 252 119l57 -43q-56 -70 -135.5 -106t-178.5 -36
q-90 0 -161.5 29.5t-122 81t-77 121t-26.5 148.5q0 80 29 148t81 118t122.5 78.5t154.5 28.5q100 0 180 -38t134 -113z" />
    <glyph glyph-name="ccaron" unicode="&#x10d;" horiz-adv-x="647" 
d="M310 628l-142 125h88l86 -74l90 74h91l-145 -125h-68zM592 107q-39 -60 -103.5 -90t-145.5 -30q-66 0 -119.5 22t-92 59.5t-59.5 87.5t-21 105q0 59 22 110.5t61 90t93.5 61t120.5 22.5q77 0 142 -31t102 -93l-55 -34q-70 92 -192 92q-51 0 -92 -17t-70.5 -46.5
t-45.5 -68t-16 -81.5t16 -82.5t45 -69.5t71 -47.5t93 -17.5q116 0 191 93z" />
    <glyph glyph-name="Dcaron" unicode="&#x10e;" horiz-adv-x="744" 
d="M283 778l-142 125h88l86 -74l90 74h91l-145 -125h-68zM264 718q60 0 114.5 -5.5t108.5 -27.5q97 -39 151.5 -127t54.5 -207q0 -77 -23 -141.5t-68 -111t-111 -72.5t-153 -26h-251v718h177zM265 70q51 0 93.5 3t78.5 12.5t65 27.5t53 47q63 77 63 190q0 112 -60 190
q-25 33 -57.5 54t-72.5 33t-88.5 16.5t-107.5 4.5h-73v-578h106z" />
    <glyph glyph-name="dcaron" unicode="&#x10f;" horiz-adv-x="685" 
d="M539 91q-44 -53 -97.5 -78.5t-116.5 -25.5q-58 0 -108 22.5t-86.5 61t-57 89t-20.5 107.5t21 107.5t58 88.5t87 60t108 22q65 0 118.5 -27.5t93.5 -83.5v302h68v-736h-68v91zM683 508q22 42 28 74q7 29 7 83v71h-75v-114h37q-3 -43 -29 -95zM333 479q-46 0 -84.5 -17.5
t-66.5 -47t-43.5 -68t-15.5 -81.5t16 -82t44 -69t66 -47.5t83 -17.5q41 0 79 15t67.5 42.5t47 67.5t17.5 89q0 46 -16 85.5t-44.5 68.5t-66.5 45.5t-83 16.5z" />
    <glyph glyph-name="Dcroat" unicode="&#x110;" horiz-adv-x="790" 
d="M17 326v67h88v325h206q60 0 114.5 -5.5t108.5 -27.5q97 -39 151.5 -127.5t54.5 -206.5q0 -76 -23 -140.5t-68 -111.5t-111 -73t-153 -26h-280v326h-88zM173 70h139q51 0 94 3t78.5 12.5t65 27.5t53.5 47q32 38 47 85.5t15 104.5q0 113 -59 190q-26 33 -58.5 54t-73 33
t-89 16.5t-107.5 4.5h-105v-255h189v-67h-189v-256z" />
    <glyph glyph-name="dcroat" unicode="&#x111;" horiz-adv-x="685" 
d="M685 650v-56h-79v-594h-67v91q-87 -105 -213 -105q-114 0 -193 82q-80 83 -80 199q0 114 80 196q81 82 195 82q130 0 211 -111v160h-149v56h149v86h67v-86h79zM333 479q-42 2 -80.5 -15.5t-68 -47.5t-46.5 -69.5t-16 -81.5q-1 -43 16.5 -83t46.5 -70t67.5 -47t80.5 -16
q42 0 81 16t68.5 45t46 68.5t14.5 84.5q0 93 -61 154q-60 62 -149 62z" />
    <glyph glyph-name="Emacron" unicode="&#x112;" horiz-adv-x="536" 
d="M451 873v-60h-337v60h337zM498 718v-70h-338v-225h338v-70h-338v-283h338v-70h-410v718h410z" />
    <glyph glyph-name="emacron" unicode="&#x113;" horiz-adv-x="650" 
d="M489 723v-60h-337v60h337zM121 260q1 -46 16.5 -84.5t42 -66.5t62.5 -44t79 -16q42 0 73.5 11t55.5 28.5t41.5 40.5t32.5 47l57 -30q-81 -159 -253 -159q-66 0 -117.5 23.5t-87 62t-54 88.5t-18.5 103q0 54 19.5 105t55 90t86 62.5t112.5 23.5q57 0 106.5 -20t87 -56.5
t59 -89.5t22.5 -119h-478zM524 320q-21 83 -75.5 121t-123.5 38q-72 0 -123 -39t-74 -120h396z" />
    <glyph glyph-name="Ebreve" unicode="&#x114;" horiz-adv-x="536" 
d="M464 895q-11 -43 -53.5 -73t-117.5 -30q-71 0 -116.5 27.5t-58.5 75.5h64q34 -51 111 -51q38 0 62.5 11t46.5 40h62zM498 718v-70h-338v-225h338v-70h-338v-283h338v-70h-410v718h410z" />
    <glyph glyph-name="ebreve" unicode="&#x115;" horiz-adv-x="650" 
d="M493 745q-11 -43 -53.5 -73t-117.5 -30q-71 0 -116.5 27.5t-58.5 75.5h64q34 -51 111 -51q38 0 62.5 11t46.5 40h62zM121 260q1 -46 16.5 -84.5t42 -66.5t62.5 -44t79 -16q42 0 73.5 11t55.5 28.5t41.5 40.5t32.5 47l57 -30q-81 -159 -253 -159q-66 0 -117.5 23.5t-87 62
t-54 88.5t-18.5 103q0 54 19.5 105t55 90t86 62.5t112.5 23.5q57 0 106.5 -20t87 -56.5t59 -89.5t22.5 -119h-478zM524 320q-21 83 -75.5 121t-123.5 38q-72 0 -123 -39t-74 -120h396z" />
    <glyph glyph-name="Edotaccent" unicode="&#x116;" horiz-adv-x="536" 
d="M295 891q23 0 39.5 -17t16.5 -40t-16.5 -39.5t-39.5 -16.5t-40 16.5t-17 39.5t17 40t40 17zM498 718v-70h-338v-225h338v-70h-338v-283h338v-70h-410v718h410z" />
    <glyph glyph-name="edotaccent" unicode="&#x117;" horiz-adv-x="650" 
d="M315 741q23 0 39.5 -17t16.5 -40t-16.5 -39.5t-39.5 -16.5t-40 16.5t-17 39.5t17 40t40 17zM121 260q1 -46 16.5 -84.5t42 -66.5t62.5 -44t79 -16q42 0 73.5 11t55.5 28.5t41.5 40.5t32.5 47l57 -30q-81 -159 -253 -159q-66 0 -117.5 23.5t-87 62t-54 88.5t-18.5 103
q0 54 19.5 105t55 90t86 62.5t112.5 23.5q57 0 106.5 -20t87 -56.5t59 -89.5t22.5 -119h-478zM524 320q-21 83 -75.5 121t-123.5 38q-72 0 -123 -39t-74 -120h396z" />
    <glyph glyph-name="Eogonek" unicode="&#x118;" horiz-adv-x="536" 
d="M498 718v-70h-338v-225h338v-70h-338v-283h338v-70h-44q-27 -23 -43 -45t-16 -48q0 -20 16.5 -37.5t55.5 -17.5q8 0 17.5 1t16.5 2l-5 -42q-11 -2 -21.5 -3t-20.5 -1q-31 0 -52.5 8t-34.5 21t-18.5 28.5t-5.5 29.5q0 29 14.5 56.5t43.5 47.5h-313v718h410z" />
    <glyph glyph-name="eogonek" unicode="&#x119;" horiz-adv-x="650" 
d="M453 -187q-11 -2 -21.5 -3t-20.5 -1q-31 0 -52.5 8t-34.5 21t-18.5 28.5t-5.5 29.5q0 25 10.5 48.5t31.5 43.5q-4 0 -7 -0.5t-7 -0.5q-66 0 -117.5 23.5t-87 62t-54 88.5t-18.5 103q0 54 19.5 105t55 90t86 62.5t112.5 23.5q57 0 106.5 -20t87 -56.5t59 -89.5t22.5 -119
h-478q1 -46 16.5 -84.5t42 -66.5t62.5 -44t79 -16q42 0 73.5 11t55.5 28.5t41.5 40.5t32.5 47l57 -30q-61 -120 -175 -149q-25 -23 -39.5 -44t-14.5 -46q0 -20 16.5 -37.5t55.5 -17.5q8 0 17.5 1t16.5 2zM524 320q-21 83 -75.5 121t-123.5 38q-72 0 -123 -39t-74 -120h396z
" />
    <glyph glyph-name="Ecaron" unicode="&#x11a;" horiz-adv-x="536" 
d="M260 778l-142 125h88l86 -74l90 74h91l-145 -125h-68zM498 718v-70h-338v-225h338v-70h-338v-283h338v-70h-410v718h410z" />
    <glyph glyph-name="ecaron" unicode="&#x11b;" horiz-adv-x="650" 
d="M295 628l-142 125h88l86 -74l90 74h91l-145 -125h-68zM121 260q1 -46 16.5 -84.5t42 -66.5t62.5 -44t79 -16q42 0 73.5 11t55.5 28.5t41.5 40.5t32.5 47l57 -30q-81 -159 -253 -159q-66 0 -117.5 23.5t-87 62t-54 88.5t-18.5 103q0 54 19.5 105t55 90t86 62.5t112.5 23.5
q57 0 106.5 -20t87 -56.5t59 -89.5t22.5 -119h-478zM524 320q-21 83 -75.5 121t-123.5 38q-72 0 -123 -39t-74 -120h396z" />
    <glyph glyph-name="Gcircumflex" unicode="&#x11c;" horiz-adv-x="872" 
d="M485 903l142 -125h-89l-86 74l-89 -74h-91l145 125h68zM823 345q0 -85 -26.5 -152.5t-74 -114t-113.5 -71t-147 -24.5q-93 0 -168 31t-127.5 83t-81 120t-28.5 142q0 76 28.5 144.5t80 120t124.5 82t161 30.5q100 0 178.5 -35t150.5 -104l-55 -52q-61 60 -131.5 90.5
t-140.5 30.5q-64 0 -122.5 -23.5t-102.5 -64.5t-70 -96.5t-26 -120.5q0 -62 24.5 -118.5t69 -99.5t105.5 -68.5t133 -25.5q51 0 98 15t84.5 43.5t63 71t32.5 96.5h-229v70h310z" />
    <glyph glyph-name="gcircumflex" unicode="&#x11d;" horiz-adv-x="673" 
d="M385 753l142 -125h-89l-86 74l-89 -74h-91l145 125h68zM603 108q0 -66 -8 -119.5t-40 -98.5q-34 -46 -91.5 -71.5t-133.5 -25.5q-57 0 -100.5 11.5t-76 32.5t-56 51.5t-41.5 69.5h74q30 -53 77.5 -78t118.5 -25q66 0 113.5 23t71.5 67q15 28 19 56.5t4 59.5v40
q-40 -51 -95 -76t-118 -25q-55 0 -104.5 20t-86.5 55.5t-59 85t-22 108.5t22.5 109.5t60.5 87.5t87 58t102 21q71 0 121 -28t92 -78v92h69v-423zM332 479q-45 0 -83.5 -16t-67.5 -44.5t-45.5 -68t-16.5 -85.5q0 -40 14 -76t41 -63.5t67.5 -43.5t92.5 -16q44 0 81 14.5t64 41
t42.5 64.5t15.5 84q0 48 -16.5 86.5t-44.5 66t-65.5 42t-78.5 14.5z" />
    <glyph glyph-name="Gbreve" unicode="&#x11e;" horiz-adv-x="872" 
d="M625 895q-11 -43 -53.5 -73t-117.5 -30q-71 0 -116.5 27.5t-58.5 75.5h64q34 -51 111 -51q38 0 62.5 11t46.5 40h62zM823 345q0 -85 -26.5 -152.5t-74 -114t-113.5 -71t-147 -24.5q-93 0 -168 31t-127.5 83t-81 120t-28.5 142q0 76 28.5 144.5t80 120t124.5 82t161 30.5
q100 0 178.5 -35t150.5 -104l-55 -52q-61 60 -131.5 90.5t-140.5 30.5q-64 0 -122.5 -23.5t-102.5 -64.5t-70 -96.5t-26 -120.5q0 -62 24.5 -118.5t69 -99.5t105.5 -68.5t133 -25.5q51 0 98 15t84.5 43.5t63 71t32.5 96.5h-229v70h310z" />
    <glyph glyph-name="gbreve" unicode="&#x11f;" horiz-adv-x="673" 
d="M525 745q-11 -43 -53.5 -73t-117.5 -30q-71 0 -116.5 27.5t-58.5 75.5h64q34 -51 111 -51q38 0 62.5 11t46.5 40h62zM603 108q0 -66 -8 -119.5t-40 -98.5q-34 -46 -91.5 -71.5t-133.5 -25.5q-57 0 -100.5 11.5t-76 32.5t-56 51.5t-41.5 69.5h74q30 -53 77.5 -78
t118.5 -25q66 0 113.5 23t71.5 67q15 28 19 56.5t4 59.5v40q-40 -51 -95 -76t-118 -25q-55 0 -104.5 20t-86.5 55.5t-59 85t-22 108.5t22.5 109.5t60.5 87.5t87 58t102 21q71 0 121 -28t92 -78v92h69v-423zM332 479q-45 0 -83.5 -16t-67.5 -44.5t-45.5 -68t-16.5 -85.5
q0 -40 14 -76t41 -63.5t67.5 -43.5t92.5 -16q44 0 81 14.5t64 41t42.5 64.5t15.5 84q0 48 -16.5 86.5t-44.5 66t-65.5 42t-78.5 14.5z" />
    <glyph glyph-name="Gdotaccent" unicode="&#x120;" horiz-adv-x="872" 
d="M452 891q23 0 39.5 -17t16.5 -40t-16.5 -39.5t-39.5 -16.5t-40 16.5t-17 39.5t17 40t40 17zM823 345q0 -85 -26.5 -152.5t-74 -114t-113.5 -71t-147 -24.5q-93 0 -168 31t-127.5 83t-81 120t-28.5 142q0 76 28.5 144.5t80 120t124.5 82t161 30.5q100 0 178.5 -35
t150.5 -104l-55 -52q-61 60 -131.5 90.5t-140.5 30.5q-64 0 -122.5 -23.5t-102.5 -64.5t-70 -96.5t-26 -120.5q0 -62 24.5 -118.5t69 -99.5t105.5 -68.5t133 -25.5q51 0 98 15t84.5 43.5t63 71t32.5 96.5h-229v70h310z" />
    <glyph glyph-name="gdotaccent" unicode="&#x121;" horiz-adv-x="673" 
d="M327 741q23 0 39.5 -17t16.5 -40t-16.5 -39.5t-39.5 -16.5t-40 16.5t-17 39.5t17 40t40 17zM603 108q0 -66 -8 -119.5t-40 -98.5q-34 -46 -91.5 -71.5t-133.5 -25.5q-57 0 -100.5 11.5t-76 32.5t-56 51.5t-41.5 69.5h74q30 -53 77.5 -78t118.5 -25q66 0 113.5 23t71.5 67
q15 28 19 56.5t4 59.5v40q-40 -51 -95 -76t-118 -25q-55 0 -104.5 20t-86.5 55.5t-59 85t-22 108.5t22.5 109.5t60.5 87.5t87 58t102 21q71 0 121 -28t92 -78v92h69v-423zM332 479q-45 0 -83.5 -16t-67.5 -44.5t-45.5 -68t-16.5 -85.5q0 -40 14 -76t41 -63.5t67.5 -43.5
t92.5 -16q44 0 81 14.5t64 41t42.5 64.5t15.5 84q0 48 -16.5 86.5t-44.5 66t-65.5 42t-78.5 14.5z" />
    <glyph glyph-name="uni0122" unicode="&#x122;" horiz-adv-x="872" 
d="M823 345q0 -85 -26.5 -152.5t-74 -114t-113.5 -71t-147 -24.5q-93 0 -168 31t-127.5 83t-81 120t-28.5 142q0 76 28.5 144.5t80 120t124.5 82t161 30.5q100 0 178.5 -35t150.5 -104l-55 -52q-61 60 -131.5 90.5t-140.5 30.5q-64 0 -122.5 -23.5t-102.5 -64.5t-70 -96.5
t-26 -120.5q0 -62 24.5 -118.5t69 -99.5t105.5 -68.5t133 -25.5q51 0 98 15t84.5 43.5t63 71t32.5 96.5h-229v70h310zM415 -62q21 7 46 7q77 0 77 -53q0 -34 -30.5 -56t-81.5 -22q-16 0 -33.5 3t-37.5 8l11 35q31 -7 50 -7q64 0 64 32q0 21 -36 21q-14 0 -35 -7z" />
    <glyph glyph-name="uni0123" unicode="&#x123;" horiz-adv-x="673" 
d="M272 644l84 139l40 -15l-69 -147zM603 108q0 -66 -8 -119.5t-40 -98.5q-34 -46 -91.5 -71.5t-133.5 -25.5q-57 0 -100.5 11.5t-76 32.5t-56 51.5t-41.5 69.5h74q30 -53 77.5 -78t118.5 -25q66 0 113.5 23t71.5 67q15 28 19 56.5t4 59.5v40q-40 -51 -95 -76t-118 -25
q-55 0 -104.5 20t-86.5 55.5t-59 85t-22 108.5t22.5 109.5t60.5 87.5t87 58t102 21q71 0 121 -28t92 -78v92h69v-423zM332 479q-45 0 -83.5 -16t-67.5 -44.5t-45.5 -68t-16.5 -85.5q0 -40 14 -76t41 -63.5t67.5 -43.5t92.5 -16q44 0 81 14.5t64 41t42.5 64.5t15.5 84
q0 48 -16.5 86.5t-44.5 66t-65.5 42t-78.5 14.5z" />
    <glyph glyph-name="Hcircumflex" unicode="&#x124;" horiz-adv-x="683" 
d="M377 903l142 -125h-89l-86 74l-89 -74h-91l145 125h68zM159 718v-301h366v301h72v-718h-72v347h-366v-347h-72v718h72z" />
    <glyph glyph-name="hcircumflex" unicode="&#x125;" horiz-adv-x="610" 
d="M153 908l142 -125h-89l-86 74l-89 -74h-91l145 125h68zM144 736v-300q83 109 199 109q43 0 79 -15t62 -45t40.5 -75t14.5 -105v-305h-68v289q0 94 -31.5 144t-109.5 50q-85 0 -140 -72q-29 -38 -37.5 -81t-8.5 -107v-223h-68v736h68z" />
    <glyph glyph-name="Hbar" unicode="&#x126;" horiz-adv-x="683" 
d="M524 605v113h72v-113h65v-67h-65v-538h-72v347h-365v-347h-72v538h-65v67h65v113h72v-113h365zM159 417h365v121h-365v-121z" />
    <glyph glyph-name="hbar" unicode="&#x127;" horiz-adv-x="610" 
d="M327 662v-57h-182v-169q82 109 198 109q70 0 118 -39q48 -37 63 -90q16 -49 16 -143v-273h-69v253q0 95 -10 134q-10 42 -43.5 68.5t-87.5 26.5q-48 0 -84.5 -21.5t-61.5 -57.5q-25 -37 -32 -75q-4 -19 -5.5 -52t-1.5 -81v-195h-69v605h-74v57h74v74h69v-74h182z" />
    <glyph glyph-name="Itilde" unicode="&#x128;" horiz-adv-x="226" 
d="M-14 787q0 42 11 66t29 33t41 3.5t47 -23.5q18 -14 32 -22.5t23 -8t14 12.5t5 39h52q0 -42 -11 -66.5t-29 -33.5t-40.5 -3.5t-46.5 23.5q-18 14 -32 22.5t-23.5 8t-14.5 -12t-5 -38.5h-52zM149 718v-718h-72v718h72z" />
    <glyph glyph-name="itilde" unicode="&#x129;" horiz-adv-x="200" 
d="M-27 600q0 42 11 66t29 33t41 3.5t47 -23.5q18 -14 32 -22.5t23 -8t14 12.5t5 39h52q0 -42 -11 -66.5t-29 -33.5t-40.5 -3.5t-46.5 23.5q-18 14 -32 22.5t-23.5 8t-14.5 -12t-5 -38.5h-52zM135 531v-531h-68v531h68z" />
    <glyph glyph-name="Imacron" unicode="&#x12a;" horiz-adv-x="226" 
d="M281 873v-60h-337v60h337zM149 718v-718h-72v718h72z" />
    <glyph glyph-name="imacron" unicode="&#x12b;" horiz-adv-x="200" 
d="M263 723v-60h-337v60h337zM135 531v-531h-68v531h68z" />
    <glyph glyph-name="Ibreve" unicode="&#x12c;" horiz-adv-x="226" 
d="M291 895q-11 -43 -53.5 -73t-117.5 -30q-71 0 -116.5 27.5t-58.5 75.5h64q34 -51 111 -51q38 0 62.5 11t46.5 40h62zM149 718v-718h-72v718h72z" />
    <glyph glyph-name="ibreve" unicode="&#x12d;" horiz-adv-x="200" 
d="M271 745q-11 -43 -53.5 -73t-117.5 -30q-71 0 -116.5 27.5t-58.5 75.5h64q34 -51 111 -51q38 0 62.5 11t46.5 40h62zM135 531v-531h-68v531h68z" />
    <glyph glyph-name="Iogonek" unicode="&#x12e;" horiz-adv-x="226" 
d="M149 718v-718h-5q-27 -23 -43 -45t-16 -48q0 -20 16.5 -37.5t55.5 -17.5q8 0 17.5 1t16.5 2l-5 -42q-11 -2 -21.5 -3t-20.5 -1q-31 0 -52.5 8t-34.5 21t-18.5 28.5t-5.5 29.5q0 29 14.5 56.5t43.5 47.5h-14v718h72z" />
    <glyph glyph-name="iogonek" unicode="&#x12f;" horiz-adv-x="200" 
d="M100 750q23 0 40 -16.5t17 -39.5t-17 -40t-40 -17t-39.5 17t-16.5 40q0 24 16.5 40t39.5 16zM135 531v-531h-6q-27 -23 -43 -45t-16 -48q0 -20 16.5 -37.5t55.5 -17.5q8 0 17.5 1t16.5 2l-5 -42q-11 -2 -21.5 -3t-20.5 -1q-31 0 -52.5 8t-34.5 21t-18.5 28.5t-5.5 29.5
q0 29 14.5 56.5t43.5 47.5h-9v531h68z" />
    <glyph glyph-name="Idotaccent" unicode="&#x130;" horiz-adv-x="226" 
d="M112 891q23 0 39.5 -17t16.5 -40t-16.5 -39.5t-39.5 -16.5t-40 16.5t-17 39.5t17 40t40 17zM149 718v-718h-72v718h72z" />
    <glyph glyph-name="dotlessi" unicode="&#x131;" horiz-adv-x="200" 
d="M135 531v-531h-68v531h68z" />
    <glyph glyph-name="IJ" unicode="&#x132;" horiz-adv-x="708" 
d="M149 718v-718h-72v718h72zM296 115q40 -29 74.5 -47.5t66.5 -18.5q47 0 75 38q17 23 21.5 54t4.5 69v508h72v-510q0 -57 -8 -100t-37 -75q-22 -24 -55.5 -37t-72.5 -13q-54 0 -95.5 20t-83.5 55z" />
    <glyph glyph-name="ij" unicode="&#x133;" horiz-adv-x="403" 
d="M100 750q23 0 40 -16.5t17 -39.5t-17 -40t-40 -17t-39.5 17t-16.5 40q0 24 16.5 40t39.5 16zM302 750q23 0 40 -16.5t17 -39.5t-17 -40t-40 -17t-39.5 17t-16.5 40t16.5 39.5t39.5 16.5zM135 531v-531h-68v531h68zM337 531v-611q0 -129 -91 -129q-23 0 -42 5.5t-35 11.5
v62q9 -5 21 -9t28 -4q24 0 37.5 15.5t13.5 47.5v611h68z" />
    <glyph glyph-name="Jcircumflex" unicode="&#x134;" horiz-adv-x="482" 
d="M397 903l142 -125h-89l-86 74l-89 -74h-91l145 125h68zM80 115q40 -29 74.5 -47.5t66.5 -18.5q47 0 75 38q17 23 21.5 54t4.5 69v508h72v-510q0 -57 -8 -100t-37 -75q-22 -24 -55.5 -37t-72.5 -13q-54 0 -95.5 20t-83.5 55z" />
    <glyph glyph-name="jcircumflex" unicode="&#x135;" horiz-adv-x="203" 
d="M140 753l142 -125h-89l-86 74l-89 -74h-91l145 125h68zM137 531v-611q0 -129 -91 -129q-23 0 -42 5.5t-35 11.5v62q9 -5 21 -9t28 -4q24 0 37.5 15.5t13.5 47.5v611h68z" />
    <glyph glyph-name="uni0136" unicode="&#x136;" horiz-adv-x="591" 
d="M160 718v-269l287 269h97l-345 -322l372 -396h-95l-316 335v-335h-72v718h72zM265 -62q21 7 46 7q77 0 77 -53q0 -34 -30.5 -56t-81.5 -22q-16 0 -33.5 3t-37.5 8l11 35q31 -7 50 -7q64 0 64 32q0 21 -36 21q-14 0 -35 -7z" />
    <glyph glyph-name="uni0137" unicode="&#x137;" horiz-adv-x="502" 
d="M145 736v-419l245 214h101l-291 -253l308 -278h-97l-266 239v-239h-68v736h68zM221 -62q21 7 46 7q77 0 77 -53q0 -34 -30.5 -56t-81.5 -22q-16 0 -33.5 3t-37.5 8l11 35q31 -7 50 -7q64 0 64 32q0 21 -36 21q-14 0 -35 -7z" />
    <glyph glyph-name="kgreenlandic" unicode="&#x138;" horiz-adv-x="502" 
d="M145 531v-214l245 214h101l-291 -253l308 -278h-97l-266 239v-239h-68v531h68z" />
    <glyph glyph-name="Lacute" unicode="&#x139;" horiz-adv-x="463" 
d="M375 931l-145 -151h-67l107 151h105zM160 718v-648h276v-70h-348v718h72z" />
    <glyph glyph-name="lacute" unicode="&#x13a;" horiz-adv-x="200" 
d="M261 949l-145 -151h-67l107 151h105zM134 736v-736h-68v736h68z" />
    <glyph glyph-name="uni013B" unicode="&#x13b;" horiz-adv-x="463" 
d="M160 718v-648h276v-70h-348v718h72zM215 -62q21 7 46 7q77 0 77 -53q0 -34 -30.5 -56t-81.5 -22q-16 0 -33.5 3t-37.5 8l11 35q31 -7 50 -7q64 0 64 32q0 21 -36 21q-14 0 -35 -7z" />
    <glyph glyph-name="uni013C" unicode="&#x13c;" horiz-adv-x="200" 
d="M134 736v-736h-68v736h68zM61 -62q21 7 46 7q77 0 77 -53q0 -34 -30.5 -56t-81.5 -22q-16 0 -33.5 3t-37.5 8l11 35q31 -7 50 -7q64 0 64 32q0 21 -36 21q-14 0 -35 -7z" />
    <glyph glyph-name="Lcaron" unicode="&#x13d;" horiz-adv-x="463" 
d="M160 718v-648h276v-70h-348v718h72zM276 490q22 42 28 74q7 29 7 83v71h-75v-114h37q-3 -43 -29 -95z" />
    <glyph glyph-name="lcaron" unicode="&#x13e;" horiz-adv-x="200" 
d="M134 736v-736h-68v736h68zM210 508q22 42 28 74q7 29 7 83v71h-75v-114h37q-3 -43 -29 -95z" />
    <glyph glyph-name="Ldot" unicode="&#x13f;" horiz-adv-x="463" 
d="M160 718v-648h276v-70h-348v718h72zM290 449q24 0 42 -18t18 -44t-17.5 -43t-42.5 -17q-26 0 -43 17.5t-17 42.5t17.5 43.5t42.5 18.5z" />
    <glyph glyph-name="ldot" unicode="&#x140;" horiz-adv-x="298" 
d="M134 736v-736h-68v736h68zM254 458q24 0 42 -18t18 -44t-17.5 -43t-42.5 -17q-26 0 -43 17.5t-17 42.5t17.5 43.5t42.5 18.5z" />
    <glyph glyph-name="Lslash" unicode="&#x141;" horiz-adv-x="517" 
d="M344 527v-86l-129 -108v-263h276v-70h-348v273l-99 -82v85l99 82v360h72v-299z" />
    <glyph glyph-name="lslash" unicode="&#x142;" horiz-adv-x="300" 
d="M282 537v-68l-98 -63v-406h-68v362l-90 -58v68l90 58v306h68v-262z" />
    <glyph glyph-name="Nacute" unicode="&#x143;" horiz-adv-x="740" 
d="M553 931l-145 -151h-67l107 151h105zM89 718h15l476 -550v550h72v-718h-16l-475 543v-543h-72v718z" />
    <glyph glyph-name="nacute" unicode="&#x144;" horiz-adv-x="610" 
d="M461 781l-145 -151h-67l107 151h105zM144 436q83 109 199 109q44 0 80 -15t62 -46t40.5 -77t14.5 -109v-298h-68v289q0 94 -32 144t-110 50q-85 0 -140 -72q-30 -39 -38 -82t-8 -106v-223h-68v531h68v-95z" />
    <glyph glyph-name="uni0145" unicode="&#x145;" horiz-adv-x="740" 
d="M89 718h15l476 -550v550h72v-718h-16l-475 543v-543h-72v718zM340 -62q21 7 46 7q77 0 77 -53q0 -34 -30.5 -56t-81.5 -22q-16 0 -33.5 3t-37.5 8l11 35q31 -7 50 -7q64 0 64 32q0 21 -36 21q-14 0 -35 -7z" />
    <glyph glyph-name="uni0146" unicode="&#x146;" horiz-adv-x="610" 
d="M144 436q83 109 199 109q44 0 80 -15t62 -46t40.5 -77t14.5 -109v-298h-68v289q0 94 -32 144t-110 50q-85 0 -140 -72q-30 -39 -38 -82t-8 -106v-223h-68v531h68v-95zM256 -62q21 7 46 7q77 0 77 -53q0 -34 -30.5 -56t-81.5 -22q-16 0 -33.5 3t-37.5 8l11 35q31 -7 50 -7
q64 0 64 32q0 21 -36 21q-14 0 -35 -7z" />
    <glyph glyph-name="Ncaron" unicode="&#x147;" horiz-adv-x="740" 
d="M335 778l-142 125h88l86 -74l90 74h91l-145 -125h-68zM89 718h15l476 -550v550h72v-718h-16l-475 543v-543h-72v718z" />
    <glyph glyph-name="ncaron" unicode="&#x148;" horiz-adv-x="610" 
d="M286 628l-142 125h88l86 -74l90 74h91l-145 -125h-68zM144 436q83 109 199 109q44 0 80 -15t62 -46t40.5 -77t14.5 -109v-298h-68v289q0 94 -32 144t-110 50q-85 0 -140 -72q-30 -39 -38 -82t-8 -106v-223h-68v531h68v-95z" />
    <glyph glyph-name="napostrophe" unicode="&#x149;" horiz-adv-x="612" 
d="M-25 490q19 36 25 58q6 21 9 54h-43v134h89v-84q0 -63 -9 -99q-8 -36 -33 -85zM147 531v-95q82 109 199 109q60 0 106 -31q45 -29 68 -81q22 -50 22 -160v-273h-68v253q0 89 -8 123q-24 106 -133 106q-62 0 -112 -41q-49 -40 -64 -102q-10 -37 -10 -144v-195h-68v531h68z
" />
    <glyph glyph-name="Eng" unicode="&#x14a;" horiz-adv-x="777" 
d="M310 118q50 -68 127 -68q91 0 150 89q59 91 59 222q0 135 -76 220q-76 87 -187 87q-67 0 -126 -34t-98 -88v-546h-72v718h72v-87q96 105 234 105q144 0 236 -110t92 -271q0 -165 -82 -269q-81 -104 -204 -104q-106 0 -177 92z" />
    <glyph glyph-name="eng" unicode="&#x14b;" horiz-adv-x="610" 
d="M540 -80q0 -128 -92 -128q-34 0 -76 17v61q26 -14 49 -14q20 0 31 10q12 10 16 23.5t4 50.5v313q0 92 -11 134q-10 42 -43.5 68.5t-87.5 26.5q-48 0 -84.5 -21.5t-61.5 -57.5q-25 -37 -32 -75q-4 -19 -5.5 -52t-1.5 -81v-195h-69v531h69v-95q82 109 198 109q68 0 117 -38
q47 -37 64 -90q16 -49 16 -144v-353z" />
    <glyph glyph-name="Omacron" unicode="&#x14c;" horiz-adv-x="869" 
d="M600 873v-60h-337v60h337zM429 736q82 0 152 -29t121.5 -79.5t81 -119.5t29.5 -149q0 -79 -29 -148t-80 -120t-120 -80t-149 -29q-83 0 -152.5 30t-120 81.5t-78.5 119.5t-28 143q0 80 29 149.5t79.5 120.5t118.5 80.5t146 29.5zM433 666q-59 0 -113.5 -22.5t-96.5 -63.5
t-67 -98t-25 -126q0 -66 24.5 -122t66 -96.5t96 -63t115.5 -22.5q63 0 118.5 23t97 63.5t65.5 97.5t24 124q0 68 -25.5 124.5t-67.5 97t-97 62.5t-115 22z" />
    <glyph glyph-name="omacron" unicode="&#x14d;" 
d="M493 723v-60h-337v60h337zM328 545q60 0 110.5 -22.5t87.5 -61t58 -89.5t21 -108t-21 -107.5t-57.5 -88.5t-87.5 -60t-111 -22t-111 22t-87.5 60t-57.5 88.5t-21 107.5t21 108t58 89.5t87.5 61t110.5 22.5zM328 479q-43 0 -80.5 -17t-65.5 -46.5t-44.5 -69t-16.5 -83.5
q0 -43 15.5 -81.5t43 -67.5t65.5 -45.5t83 -16.5t82.5 16.5t65.5 45.5t43.5 67.5t15.5 81.5q0 44 -16.5 83.5t-44.5 69t-66 46.5t-80 17z" />
    <glyph glyph-name="Obreve" unicode="&#x14e;" horiz-adv-x="869" 
d="M601 895q-11 -43 -53.5 -73t-117.5 -30q-71 0 -116.5 27.5t-58.5 75.5h64q34 -51 111 -51q38 0 62.5 11t46.5 40h62zM429 736q82 0 152 -29t121.5 -79.5t81 -119.5t29.5 -149q0 -79 -29 -148t-80 -120t-120 -80t-149 -29q-83 0 -152.5 30t-120 81.5t-78.5 119.5t-28 143
q0 80 29 149.5t79.5 120.5t118.5 80.5t146 29.5zM433 666q-59 0 -113.5 -22.5t-96.5 -63.5t-67 -98t-25 -126q0 -66 24.5 -122t66 -96.5t96 -63t115.5 -22.5q63 0 118.5 23t97 63.5t65.5 97.5t24 124q0 68 -25.5 124.5t-67.5 97t-97 62.5t-115 22z" />
    <glyph glyph-name="obreve" unicode="&#x14f;" 
d="M496 745q-11 -43 -53.5 -73t-117.5 -30q-71 0 -116.5 27.5t-58.5 75.5h64q34 -51 111 -51q38 0 62.5 11t46.5 40h62zM328 545q60 0 110.5 -22.5t87.5 -61t58 -89.5t21 -108t-21 -107.5t-57.5 -88.5t-87.5 -60t-111 -22t-111 22t-87.5 60t-57.5 88.5t-21 107.5t21 108
t58 89.5t87.5 61t110.5 22.5zM328 479q-43 0 -80.5 -17t-65.5 -46.5t-44.5 -69t-16.5 -83.5q0 -43 15.5 -81.5t43 -67.5t65.5 -45.5t83 -16.5t82.5 16.5t65.5 45.5t43.5 67.5t15.5 81.5q0 44 -16.5 83.5t-44.5 69t-66 46.5t-80 17z" />
    <glyph glyph-name="Ohungarumlaut" unicode="&#x150;" horiz-adv-x="869" 
d="M518 931l-145 -151h-67l107 151h105zM672 931l-144 -151h-68l107 151h105zM429 736q82 0 152 -29t121.5 -79.5t81 -119.5t29.5 -149q0 -79 -29 -148t-80 -120t-120 -80t-149 -29q-83 0 -152.5 30t-120 81.5t-78.5 119.5t-28 143q0 80 29 149.5t79.5 120.5t118.5 80.5
t146 29.5zM433 666q-59 0 -113.5 -22.5t-96.5 -63.5t-67 -98t-25 -126q0 -66 24.5 -122t66 -96.5t96 -63t115.5 -22.5q63 0 118.5 23t97 63.5t65.5 97.5t24 124q0 68 -25.5 124.5t-67.5 97t-97 62.5t-115 22z" />
    <glyph glyph-name="ohungarumlaut" unicode="&#x151;" 
d="M416 781l-145 -151h-67l107 151h105zM570 781l-144 -151h-68l107 151h105zM328 545q60 0 110.5 -22.5t87.5 -61t58 -89.5t21 -108t-21 -107.5t-57.5 -88.5t-87.5 -60t-111 -22t-111 22t-87.5 60t-57.5 88.5t-21 107.5t21 108t58 89.5t87.5 61t110.5 22.5zM328 479
q-43 0 -80.5 -17t-65.5 -46.5t-44.5 -69t-16.5 -83.5q0 -43 15.5 -81.5t43 -67.5t65.5 -45.5t83 -16.5t82.5 16.5t65.5 45.5t43.5 67.5t15.5 81.5q0 44 -16.5 83.5t-44.5 69t-66 46.5t-80 17z" />
    <glyph glyph-name="OE" unicode="&#x152;" horiz-adv-x="1194" 
d="M743 139q-28 -36 -59 -65t-67.5 -49.5t-80.5 -31.5t-99 -11q-86 0 -156 31.5t-120 83.5t-77 119.5t-27 139.5q0 80 29.5 149.5t81.5 120.5t121.5 80.5t148.5 29.5q85 0 165 -39.5t140 -117.5v139h410v-70h-339v-224h339v-70h-339v-284h339v-70h-410v139zM435 666
q-60 0 -115 -24t-96.5 -65.5t-66.5 -97t-25 -118.5t23.5 -119.5t65 -98.5t98 -66.5t122.5 -24.5q64 0 119.5 24.5t96 66.5t64 98t23.5 119q0 68 -26.5 124t-69.5 96.5t-98.5 63t-114.5 22.5z" />
    <glyph glyph-name="oe" unicode="&#x153;" horiz-adv-x="1138" 
d="M810 545q60 0 110 -22.5t86.5 -59.5t56.5 -85.5t20 -101.5l-1 -17h-476q3 -53 21 -92t46 -65t64 -38.5t76 -12.5q64 0 115 31t80 94l58 -30q-45 -82 -105.5 -121.5t-149.5 -39.5q-51 0 -88 12t-65 31.5t-49 44t-38 48.5q-45 -67 -105 -101.5t-134 -34.5q-58 0 -108.5 22
t-88 60.5t-59 90t-21.5 110.5q0 62 23.5 113t62 87.5t88.5 56.5t103 20q80 0 137 -36.5t102 -104.5q43 68 99 104.5t140 36.5zM329 479q-43 0 -80 -17t-64.5 -46t-43.5 -68t-16 -83q0 -46 17 -85.5t45.5 -68t66.5 -44.5t80 -16q41 0 77.5 15.5t65 43t45 66.5t16.5 87
q0 45 -16 84t-43.5 68.5t-66 46.5t-83.5 17zM1008 319q-21 81 -74.5 120.5t-122.5 39.5q-67 0 -121.5 -38t-77.5 -122h396z" />
    <glyph glyph-name="Racute" unicode="&#x154;" horiz-adv-x="607" 
d="M409 931l-145 -151h-67l107 151h105zM256 718q57 0 99 -4t68 -14q56 -21 87 -66.5t31 -106.5q0 -27 -4.5 -46t-16.5 -43q-28 -57 -83 -80.5t-145 -23.5l259 -334h-89l-258 334h-41v-334h-72v718h165zM163 404q30 0 60 -0.5t59 -0.5q47 0 82.5 6t58.5 25q20 16 31.5 40.5
t11.5 52.5q0 53 -37.5 87t-118.5 34h-147v-244z" />
    <glyph glyph-name="racute" unicode="&#x155;" horiz-adv-x="301" 
d="M296 781l-145 -151h-67l107 151h105zM121 454q30 44 63 67.5t74 23.5q23 0 36.5 -6t24.5 -12l-36 -58q-6 3 -15.5 6.5t-20.5 3.5q-38 0 -69 -30.5t-46 -85.5q-7 -26 -9 -66.5t-2 -94.5v-202h-72v531h72v-77z" />
    <glyph glyph-name="uni0156" unicode="&#x156;" horiz-adv-x="607" 
d="M256 718q57 0 99 -4t68 -14q56 -21 87 -66.5t31 -106.5q0 -27 -4.5 -46t-16.5 -43q-28 -57 -83 -80.5t-145 -23.5l259 -334h-89l-258 334h-41v-334h-72v718h165zM163 404q30 0 60 -0.5t59 -0.5q47 0 82.5 6t58.5 25q20 16 31.5 40.5t11.5 52.5q0 53 -37.5 87t-118.5 34
h-147v-244zM257 -62q21 7 46 7q77 0 77 -53q0 -34 -30.5 -56t-81.5 -22q-16 0 -33.5 3t-37.5 8l11 35q31 -7 50 -7q64 0 64 32q0 21 -36 21q-14 0 -35 -7z" />
    <glyph glyph-name="uni0157" unicode="&#x157;" horiz-adv-x="301" 
d="M121 454q30 44 63 67.5t74 23.5q23 0 36.5 -6t24.5 -12l-36 -58q-6 3 -15.5 6.5t-20.5 3.5q-38 0 -69 -30.5t-46 -85.5q-7 -26 -9 -66.5t-2 -94.5v-202h-72v531h72v-77zM66 -62q21 7 46 7q77 0 77 -53q0 -34 -30.5 -56t-81.5 -22q-16 0 -33.5 3t-37.5 8l11 35
q31 -7 50 -7q64 0 64 32q0 21 -36 21q-14 0 -35 -7z" />
    <glyph glyph-name="Rcaron" unicode="&#x158;" horiz-adv-x="607" 
d="M232 778l-142 125h88l86 -74l90 74h91l-145 -125h-68zM256 718q57 0 99 -4t68 -14q56 -21 87 -66.5t31 -106.5q0 -27 -4.5 -46t-16.5 -43q-28 -57 -83 -80.5t-145 -23.5l259 -334h-89l-258 334h-41v-334h-72v718h165zM163 404q30 0 60 -0.5t59 -0.5q47 0 82.5 6t58.5 25
q20 16 31.5 40.5t11.5 52.5q0 53 -37.5 87t-118.5 34h-147v-244z" />
    <glyph glyph-name="rcaron" unicode="&#x159;" horiz-adv-x="301" 
d="M123 628l-142 125h88l86 -74l90 74h91l-145 -125h-68zM121 454q30 44 63 67.5t74 23.5q23 0 36.5 -6t24.5 -12l-36 -58q-6 3 -15.5 6.5t-20.5 3.5q-38 0 -69 -30.5t-46 -85.5q-7 -26 -9 -66.5t-2 -94.5v-202h-72v531h72v-77z" />
    <glyph glyph-name="Sacute" unicode="&#x15a;" horiz-adv-x="498" 
d="M373 931l-145 -151h-67l107 151h105zM363 574q-29 38 -58 63t-74 25q-47 0 -72 -28t-25 -63q0 -29 16.5 -58.5t47.5 -52.5q51 -37 93.5 -70t74 -66.5t49 -69t17.5 -79.5q0 -38 -15 -73t-42 -61.5t-64 -42.5t-81 -16q-75 0 -126 39.5t-91 112.5l61 37q65 -119 150 -119
q28 0 52.5 9.5t42.5 26t28 39t10 47.5q0 30 -14 55t-43.5 53t-74 63.5t-105.5 84.5q-26 20 -43.5 58.5t-17.5 79.5q0 37 13.5 68t37 53t55.5 34.5t68 12.5q33 0 60 -9.5t49.5 -25t41.5 -37t37 -45.5z" />
    <glyph glyph-name="sacute" unicode="&#x15b;" horiz-adv-x="388" 
d="M332 781l-145 -151h-67l107 151h105zM69 111q53 -59 111 -59q20 0 37.5 6.5t31 18.5t21.5 28t8 35q0 23 -12 43t-32 31l-80.5 45.5t-57.5 40t-34.5 45t-11.5 59.5q0 32 11.5 57.5t31 44.5t46.5 29t57 10q44 0 78.5 -19.5t68.5 -52.5l-44 -45q-24 23 -49.5 37t-57.5 14
q-33 0 -56.5 -20.5t-23.5 -50.5q0 -20 11.5 -40t29.5 -31q46 -27 81.5 -47t59.5 -40.5t36.5 -45.5t12.5 -61q0 -31 -11.5 -59.5t-32.5 -50t-50.5 -34.5t-65.5 -13q-45 0 -86.5 19.5t-70.5 56.5z" />
    <glyph glyph-name="Scircumflex" unicode="&#x15c;" horiz-adv-x="498" 
d="M266 903l142 -125h-89l-86 74l-89 -74h-91l145 125h68zM363 574q-29 38 -58 63t-74 25q-47 0 -72 -28t-25 -63q0 -29 16.5 -58.5t47.5 -52.5q51 -37 93.5 -70t74 -66.5t49 -69t17.5 -79.5q0 -38 -15 -73t-42 -61.5t-64 -42.5t-81 -16q-75 0 -126 39.5t-91 112.5l61 37
q65 -119 150 -119q28 0 52.5 9.5t42.5 26t28 39t10 47.5q0 30 -14 55t-43.5 53t-74 63.5t-105.5 84.5q-26 20 -43.5 58.5t-17.5 79.5q0 37 13.5 68t37 53t55.5 34.5t68 12.5q33 0 60 -9.5t49.5 -25t41.5 -37t37 -45.5z" />
    <glyph glyph-name="scircumflex" unicode="&#x15d;" horiz-adv-x="388" 
d="M236 753l142 -125h-89l-86 74l-89 -74h-91l145 125h68zM69 111q53 -59 111 -59q20 0 37.5 6.5t31 18.5t21.5 28t8 35q0 23 -12 43t-32 31l-80.5 45.5t-57.5 40t-34.5 45t-11.5 59.5q0 32 11.5 57.5t31 44.5t46.5 29t57 10q44 0 78.5 -19.5t68.5 -52.5l-44 -45
q-24 23 -49.5 37t-57.5 14q-33 0 -56.5 -20.5t-23.5 -50.5q0 -20 11.5 -40t29.5 -31q46 -27 81.5 -47t59.5 -40.5t36.5 -45.5t12.5 -61q0 -31 -11.5 -59.5t-32.5 -50t-50.5 -34.5t-65.5 -13q-45 0 -86.5 19.5t-70.5 56.5z" />
    <glyph glyph-name="uni015E" unicode="&#x15e;" horiz-adv-x="498" 
d="M207 -17q-65 6 -111.5 45t-82.5 106l61 37q65 -119 150 -119q28 0 52.5 9.5t42.5 26t28 39t10 47.5q0 30 -14 55t-43.5 53t-74 63.5t-105.5 84.5q-26 20 -43.5 58.5t-17.5 79.5q0 37 13.5 68t37 53t55.5 34.5t68 12.5q33 0 60 -9.5t49.5 -25t41.5 -37t37 -45.5l-58 -45
q-29 38 -58 63t-74 25q-47 0 -72 -28t-25 -63q0 -29 16.5 -58.5t47.5 -52.5q51 -37 93.5 -70t74 -66.5t49 -69t17.5 -79.5q0 -36 -13.5 -69t-38 -59.5t-58 -43.5t-73.5 -20l-5 -41q5 1 8.5 1.5t8.5 0.5q23 0 40 -13.5t17 -38.5q0 -33 -29.5 -55.5t-82.5 -22.5q-42 0 -81 15
l11 34q14 -5 28.5 -7.5t29.5 -2.5q32 0 49 8t17 24q0 9 -8 15t-22 6q-8 0 -17.5 -1.5t-16.5 -3.5z" />
    <glyph glyph-name="uni015F" unicode="&#x15f;" horiz-adv-x="388" 
d="M158 -12q-38 5 -72.5 23.5t-59.5 50.5l43 49q53 -59 111 -59q20 0 37.5 6.5t31 18.5t21.5 28t8 35q0 23 -12 43t-32 31l-80.5 45.5t-57.5 40t-34.5 45t-11.5 59.5q0 32 11.5 57.5t31 44.5t46.5 29t57 10q44 0 78.5 -19.5t68.5 -52.5l-44 -45q-24 23 -49.5 37t-57.5 14
q-33 0 -56.5 -20.5t-23.5 -50.5q0 -20 11.5 -40t29.5 -31q46 -27 81.5 -47t59.5 -40.5t36.5 -45.5t12.5 -61q0 -29 -10 -56t-28.5 -48t-45 -35t-58.5 -17l-6 -45q5 1 8.5 1.5t8.5 0.5q23 0 40 -13.5t17 -38.5q0 -33 -29.5 -55.5t-82.5 -22.5q-42 0 -81 15l11 34
q14 -5 28.5 -7.5t29.5 -2.5q32 0 49 8t17 24q0 9 -8 15t-22 6q-8 0 -17.5 -1.5t-16.5 -3.5z" />
    <glyph glyph-name="Scaron" unicode="&#x160;" horiz-adv-x="498" 
d="M215 778l-142 125h88l86 -74l90 74h91l-145 -125h-68zM363 574q-29 38 -58 63t-74 25q-47 0 -72 -28t-25 -63q0 -29 16.5 -58.5t47.5 -52.5q51 -37 93.5 -70t74 -66.5t49 -69t17.5 -79.5q0 -38 -15 -73t-42 -61.5t-64 -42.5t-81 -16q-75 0 -126 39.5t-91 112.5l61 37
q65 -119 150 -119q28 0 52.5 9.5t42.5 26t28 39t10 47.5q0 30 -14 55t-43.5 53t-74 63.5t-105.5 84.5q-26 20 -43.5 58.5t-17.5 79.5q0 37 13.5 68t37 53t55.5 34.5t68 12.5q33 0 60 -9.5t49.5 -25t41.5 -37t37 -45.5z" />
    <glyph glyph-name="scaron" unicode="&#x161;" horiz-adv-x="388" 
d="M160 628l-142 125h88l86 -74l90 74h91l-145 -125h-68zM69 111q53 -59 111 -59q20 0 37.5 6.5t31 18.5t21.5 28t8 35q0 23 -12 43t-32 31l-80.5 45.5t-57.5 40t-34.5 45t-11.5 59.5q0 32 11.5 57.5t31 44.5t46.5 29t57 10q44 0 78.5 -19.5t68.5 -52.5l-44 -45
q-24 23 -49.5 37t-57.5 14q-33 0 -56.5 -20.5t-23.5 -50.5q0 -20 11.5 -40t29.5 -31q46 -27 81.5 -47t59.5 -40.5t36.5 -45.5t12.5 -61q0 -31 -11.5 -59.5t-32.5 -50t-50.5 -34.5t-65.5 -13q-45 0 -86.5 19.5t-70.5 56.5z" />
    <glyph glyph-name="uni0162" unicode="&#x162;" horiz-adv-x="426" 
d="M16 718h394v-70h-160v-648h-72v648h-162v70zM179 -62q21 7 46 7q77 0 77 -53q0 -34 -30.5 -56t-81.5 -22q-16 0 -33.5 3t-37.5 8l11 35q31 -7 50 -7q64 0 64 32q0 21 -36 21q-14 0 -35 -7z" />
    <glyph glyph-name="uni0163" unicode="&#x163;" horiz-adv-x="339" 
d="M205 729v-198h109v-60h-109v-471h-68v471h-94v60h94v198h68zM133 -62q21 7 46 7q77 0 77 -53q0 -34 -30.5 -56t-81.5 -22q-16 0 -33.5 3t-37.5 8l11 35q31 -7 50 -7q64 0 64 32q0 21 -36 21q-14 0 -35 -7z" />
    <glyph glyph-name="Tcaron" unicode="&#x164;" horiz-adv-x="426" 
d="M183 778l-142 125h88l86 -74l90 74h91l-145 -125h-68zM16 718h394v-70h-160v-648h-72v648h-162v70z" />
    <glyph glyph-name="tcaron" unicode="&#x165;" horiz-adv-x="339" 
d="M260 581q27 42 28 75h-34v80h68v-50q0 -40 -6 -63q-4 -22 -27 -55zM205 729v-198h108v-58h-108v-473h-69v473h-94v58h94v198h69z" />
    <glyph glyph-name="Tbar" unicode="&#x166;" horiz-adv-x="426" 
d="M387 379v-67h-137v-312h-73v312h-137v67h137v269h-161v70h394v-70h-160v-269h137z" />
    <glyph glyph-name="tbar" unicode="&#x167;" horiz-adv-x="339" 
d="M325 296v-56h-120v-240h-69v240h-105v56h105v177h-94v58h94v198h69v-198h108v-58h-108v-177h120z" />
    <glyph glyph-name="Utilde" unicode="&#x168;" 
d="M201 787q0 42 11 66t29 33t41 3.5t47 -23.5q18 -14 32 -22.5t23 -8t14 12.5t5 39h52q0 -42 -11 -66.5t-29 -33.5t-40.5 -3.5t-46.5 23.5q-18 14 -32 22.5t-23.5 8t-14.5 -12t-5 -38.5h-52zM566 718v-467q0 -128 -63.5 -198.5t-174.5 -70.5t-174.5 70.5t-63.5 198.5v467
h72v-456q0 -42 4.5 -80t33.5 -73q45 -57 128 -57t128 57q29 35 33.5 73t4.5 80v456h72z" />
    <glyph glyph-name="utilde" unicode="&#x169;" horiz-adv-x="608" 
d="M177 600q0 42 11 66t29 33t41 3.5t47 -23.5q18 -14 32 -22.5t23 -8t14 12.5t5 39h52q0 -42 -11 -66.5t-29 -33.5t-40.5 -3.5t-46.5 23.5q-18 14 -32 22.5t-23.5 8t-14.5 -12t-5 -38.5h-52zM534 531v-275q0 -135 -59 -202t-174 -67t-174.5 67t-59.5 202v275h72v-259
q0 -42 2 -76t13 -58q19 -41 57.5 -63t89.5 -22q37 0 68 12.5t52 34.5q16 17 24.5 35t12 39t4 45.5t0.5 52.5v259h72z" />
    <glyph glyph-name="Umacron" unicode="&#x16a;" 
d="M501 873v-60h-337v60h337zM566 718v-467q0 -128 -63.5 -198.5t-174.5 -70.5t-174.5 70.5t-63.5 198.5v467h72v-456q0 -42 4.5 -80t33.5 -73q45 -57 128 -57t128 57q29 35 33.5 73t4.5 80v456h72z" />
    <glyph glyph-name="umacron" unicode="&#x16b;" horiz-adv-x="608" 
d="M475 723v-60h-337v60h337zM534 531v-275q0 -135 -59 -202t-174 -67t-174.5 67t-59.5 202v275h72v-259q0 -42 2 -76t13 -58q19 -41 57.5 -63t89.5 -22q37 0 68 12.5t52 34.5q16 17 24.5 35t12 39t4 45.5t0.5 52.5v259h72z" />
    <glyph glyph-name="Ubreve" unicode="&#x16c;" 
d="M503 895q-11 -43 -53.5 -73t-117.5 -30q-71 0 -116.5 27.5t-58.5 75.5h64q34 -51 111 -51q38 0 62.5 11t46.5 40h62zM566 718v-467q0 -128 -63.5 -198.5t-174.5 -70.5t-174.5 70.5t-63.5 198.5v467h72v-456q0 -42 4.5 -80t33.5 -73q45 -57 128 -57t128 57q29 35 33.5 73
t4.5 80v456h72z" />
    <glyph glyph-name="ubreve" unicode="&#x16d;" horiz-adv-x="608" 
d="M470 745q-11 -43 -53.5 -73t-117.5 -30q-71 0 -116.5 27.5t-58.5 75.5h64q34 -51 111 -51q38 0 62.5 11t46.5 40h62zM534 531v-275q0 -135 -59 -202t-174 -67t-174.5 67t-59.5 202v275h72v-259q0 -42 2 -76t13 -58q19 -41 57.5 -63t89.5 -22q37 0 68 12.5t52 34.5
q16 17 24.5 35t12 39t4 45.5t0.5 52.5v259h72z" />
    <glyph glyph-name="Uring" unicode="&#x16e;" 
d="M330 970q42 0 71.5 -29t29.5 -72q0 -21 -8 -39.5t-21.5 -32.5t-32 -22t-39.5 -8t-39.5 8t-32.5 22t-22 32.5t-8 39.5q0 42 29.5 71.5t72.5 29.5zM330 928q-26 1 -42.5 -16.5t-16.5 -42.5q0 -26 18 -42.5t41 -16.5q25 0 42 17.5t17 41.5q1 25 -17 42t-42 17zM566 718v-467
q0 -128 -63.5 -198.5t-174.5 -70.5t-174.5 70.5t-63.5 198.5v467h72v-456q0 -42 4.5 -80t33.5 -73q45 -57 128 -57t128 57q29 35 33.5 73t4.5 80v456h72z" />
    <glyph glyph-name="uring" unicode="&#x16f;" horiz-adv-x="608" 
d="M300 820q42 0 71.5 -29t29.5 -72q0 -21 -8 -39.5t-21.5 -32.5t-32 -22t-39.5 -8t-39.5 8t-32.5 22t-22 32.5t-8 39.5q0 42 29.5 71.5t72.5 29.5zM300 778q-26 1 -42.5 -16.5t-16.5 -42.5q0 -26 18 -42.5t41 -16.5q25 0 42 17.5t17 41.5q1 25 -17 42t-42 17zM534 531v-275
q0 -135 -59 -202t-174 -67t-174.5 67t-59.5 202v275h72v-259q0 -42 2 -76t13 -58q19 -41 57.5 -63t89.5 -22q37 0 68 12.5t52 34.5q16 17 24.5 35t12 39t4 45.5t0.5 52.5v259h72z" />
    <glyph glyph-name="Uhungarumlaut" unicode="&#x170;" 
d="M400 931l-145 -151h-67l107 151h105zM554 931l-144 -151h-68l107 151h105zM566 718v-467q0 -128 -63.5 -198.5t-174.5 -70.5t-174.5 70.5t-63.5 198.5v467h72v-456q0 -42 4.5 -80t33.5 -73q45 -57 128 -57t128 57q29 35 33.5 73t4.5 80v456h72z" />
    <glyph glyph-name="uhungarumlaut" unicode="&#x171;" horiz-adv-x="608" 
d="M378 781l-145 -151h-67l107 151h105zM532 781l-144 -151h-68l107 151h105zM534 531v-275q0 -135 -59 -202t-174 -67t-174.5 67t-59.5 202v275h72v-259q0 -42 2 -76t13 -58q19 -41 57.5 -63t89.5 -22q37 0 68 12.5t52 34.5q16 17 24.5 35t12 39t4 45.5t0.5 52.5v259h72z
" />
    <glyph glyph-name="Uogonek" unicode="&#x172;" 
d="M421 -187q-11 -2 -21.5 -3t-20.5 -1q-31 0 -52.5 8t-34.5 21t-18.5 28.5t-5.5 29.5q0 48 37 87q-100 8 -157.5 77.5t-57.5 190.5v467h72v-456q0 -42 4.5 -80t33.5 -73q45 -57 128 -57t128 57q29 35 33.5 73t4.5 80v456h72v-467q0 -118 -54.5 -187t-150.5 -80
q-20 -19 -30.5 -37.5t-10.5 -39.5q0 -20 16.5 -37.5t55.5 -17.5q8 0 17.5 1t16.5 2z" />
    <glyph glyph-name="uogonek" unicode="&#x173;" horiz-adv-x="608" 
d="M384 -187q-11 -2 -21.5 -3t-20.5 -1q-31 0 -52.5 8t-34.5 21t-18.5 28.5t-5.5 29.5q0 26 10.5 49.5t32.5 42.5q-102 8 -154.5 74.5t-52.5 193.5v275h72v-259q0 -42 2 -76t13 -58q19 -41 57.5 -63t89.5 -22q37 0 68 12.5t52 34.5q16 17 24.5 35t12 39t4 45.5t0.5 52.5v259
h72v-275q0 -127 -52 -193.5t-154 -74.5q-21 -20 -33 -39t-12 -42q0 -20 16.5 -37.5t55.5 -17.5q8 0 17.5 1t16.5 2z" />
    <glyph glyph-name="Wcircumflex" unicode="&#x174;" horiz-adv-x="960" 
d="M515 903l142 -125h-89l-86 74l-89 -74h-91l145 125h68zM121 718l146 -517l206 517h15l203 -517l149 517h73l-206 -718h-14l-212 543l-218 -543h-13l-203 718h74z" />
    <glyph glyph-name="wcircumflex" unicode="&#x175;" horiz-adv-x="831" 
d="M441 753l142 -125h-89l-86 74l-89 -74h-91l145 125h68zM75 531l162 -385l170 385h12l171 -385l165 385h71l-230 -531h-13l-169 380l-170 -380h-14l-226 531h71z" />
    <glyph glyph-name="Ycircumflex" unicode="&#x176;" horiz-adv-x="592" 
d="M327 903l142 -125h-89l-86 74l-89 -74h-91l145 125h68zM31 718h83l184 -296l181 296h83l-228 -375v-343h-72v343z" />
    <glyph glyph-name="ycircumflex" unicode="&#x177;" horiz-adv-x="536" 
d="M308 753l142 -125h-89l-86 74l-89 -74h-91l145 125h68zM91 531l183 -409l177 409h73l-317 -725h-72l102 234l-218 491h72z" />
    <glyph glyph-name="Ydieresis" unicode="&#x178;" horiz-adv-x="592" 
d="M196 891q23 0 39.5 -17t16.5 -40t-16.5 -39.5t-39.5 -16.5t-40 16.5t-17 39.5t17 40t40 17zM395 891q23 0 39.5 -17t16.5 -40t-16.5 -39.5t-39.5 -16.5t-40 16.5t-17 39.5t17 40t40 17zM31 718h83l184 -296l181 296h83l-228 -375v-343h-72v343z" />
    <glyph glyph-name="Zacute" unicode="&#x179;" horiz-adv-x="480" 
d="M391 931l-145 -151h-67l107 151h105zM59 718h379l-300 -648h285v-70h-396l302 648h-270v70z" />
    <glyph glyph-name="zacute" unicode="&#x17a;" horiz-adv-x="425" 
d="M380 781l-145 -151h-67l107 151h105zM423 531l-301 -471h291v-60h-409l301 471h-273v60h391z" />
    <glyph glyph-name="Zdotaccent" unicode="&#x17b;" horiz-adv-x="480" 
d="M246 891q23 0 39.5 -17t16.5 -40t-16.5 -39.5t-39.5 -16.5t-40 16.5t-17 39.5t17 40t40 17zM59 718h379l-300 -648h285v-70h-396l302 648h-270v70z" />
    <glyph glyph-name="zdotaccent" unicode="&#x17c;" horiz-adv-x="425" 
d="M217 741q23 0 39.5 -17t16.5 -40t-16.5 -39.5t-39.5 -16.5t-40 16.5t-17 39.5t17 40t40 17zM423 531l-301 -471h291v-60h-409l301 471h-273v60h391z" />
    <glyph glyph-name="Zcaron" unicode="&#x17d;" horiz-adv-x="480" 
d="M206 778l-142 125h88l86 -74l90 74h91l-145 -125h-68zM59 718h379l-300 -648h285v-70h-396l302 648h-270v70z" />
    <glyph glyph-name="zcaron" unicode="&#x17e;" horiz-adv-x="425" 
d="M178 628l-142 125h88l86 -74l90 74h91l-145 -125h-68zM423 531l-301 -471h291v-60h-409l301 471h-273v60h391z" />
    <glyph glyph-name="florin" unicode="&#x192;" horiz-adv-x="554" 
d="M416 431l-8 -60h-113l-53 -347q-17 -112 -53.5 -171.5t-102.5 -59.5q-23 0 -39.5 7t-30.5 16l9 60q11 -8 22.5 -14.5t31.5 -6.5q41 0 64 43t37 137l49 336h-69l8 60h69l24 156q5 32 10.5 55t8.5 36q2 11 10 23.5t20.5 23.5t29 18.5t34.5 7.5q24 0 45 -9.5t41 -23.5
l-9 -65q-17 17 -34 26.5t-33 9.5t-26.5 -10t-17 -26t-10 -36.5t-6.5 -42.5l-20 -143h112z" />
    <glyph glyph-name="Ohorn" unicode="&#x1a0;" horiz-adv-x="869" 
d="M633 682q82 -50 131 -133.5t49 -189.5q0 -79 -29 -148t-80 -120t-120 -80t-149 -29q-83 0 -152.5 30t-120 81.5t-78.5 119.5t-28 143q0 80 29 149.5t79.5 120.5t118.5 80.5t146 29.5q64 0 121 -18q45 2 59.5 25t15.5 66h64q-2 -47 -14.5 -78.5t-41.5 -48.5zM433 52
q63 0 118.5 23t97 63.5t65.5 97.5t24 124q0 68 -25.5 124.5t-67.5 97t-97 62.5t-115 22q-59 0 -113.5 -22.5t-96.5 -63.5t-67 -98t-25 -126q0 -66 24.5 -122t66 -96.5t96 -63t115.5 -22.5z" />
    <glyph glyph-name="ohorn" unicode="&#x1a1;" 
d="M491 493q53 -39 83.5 -99t30.5 -130q0 -57 -21 -107.5t-57.5 -88.5t-87.5 -60t-111 -22t-111 22t-87.5 60t-57.5 88.5t-21 107.5t21 108t58 89.5t87.5 61t110.5 22.5q45 0 87 -14q42 3 56 26t15 65h64q-2 -48 -15.5 -80t-43.5 -49zM328 52q45 0 82.5 16.5t65.5 45.5
t43.5 67.5t15.5 81.5q0 44 -16.5 83.5t-44.5 69t-66 46.5t-80 17q-43 0 -80.5 -17t-65.5 -46.5t-44.5 -69t-16.5 -83.5q0 -43 15.5 -81.5t43 -67.5t65.5 -45.5t83 -16.5z" />
    <glyph glyph-name="Uhorn" unicode="&#x1af;" 
d="M657 809q-2 -59 -22.5 -94.5t-68.5 -47.5v-416q0 -128 -63.5 -198.5t-174.5 -70.5t-174.5 70.5t-63.5 198.5v467h72v-456q0 -42 4.5 -80t33.5 -73q45 -57 128 -57t128 57q29 35 33.5 73t4.5 80v456h18q48 0 64 23t17 68h64z" />
    <glyph glyph-name="uhorn" unicode="&#x1b0;" horiz-adv-x="608" 
d="M614 622q-2 -55 -20 -90t-60 -49v-227q0 -135 -59 -202t-174 -67t-174.5 67t-59.5 202v275h72v-259q0 -42 2 -76t13 -58q19 -41 57.5 -63t89.5 -22q37 0 68 12.5t52 34.5q16 17 24.5 35t12 39t4 45.5t0.5 52.5v259h7q48 0 64 23t17 68h64z" />
    <glyph glyph-name="AEacute" unicode="&#x1fc;" horiz-adv-x="992" 
d="M732 931l-145 -151h-67l107 151h105zM1 0l464 718h444v-70h-338v-224h338v-70h-338v-284h338v-70h-410v236h-262l-152 -236h-84zM283 303h216v332z" />
    <glyph glyph-name="aeacute" unicode="&#x1fd;" horiz-adv-x="1157" 
d="M746 781l-145 -151h-67l107 151h105zM607 531v-96q22 26 43.5 46.5t47 34.5t55.5 21.5t68 7.5q60 0 110.5 -21.5t87 -58.5t57.5 -87t21 -107v-12h-478q1 -42 16.5 -80.5t43 -67t65.5 -45.5t84 -17q65 0 112 31t82 94l58 -29q-37 -78 -104.5 -118t-152.5 -40
q-72 0 -123.5 27t-92.5 81v-95h-62v98q-44 -54 -93 -83t-120 -29q-56 0 -106 22t-87.5 60t-59 89.5t-21.5 110.5q0 60 22.5 111t60 87.5t86.5 57.5t103 21q69 0 119.5 -28.5t95.5 -82.5v97h62zM335 479q-42 0 -80 -15.5t-66 -44t-44.5 -68t-16.5 -86.5q0 -46 16 -85
t44.5 -67.5t66.5 -44.5t82 -16q42 0 80.5 15.5t67 43.5t45.5 67t17 87q0 51 -17 91t-46 67t-67.5 41.5t-81.5 14.5zM1022 319q-10 42 -30 72.5t-46 50t-57.5 28.5t-64.5 9q-31 0 -63 -9.5t-59 -29t-48 -49.5t-31 -72h399z" />
    <glyph glyph-name="Oslashacute" unicode="&#x1fe;" horiz-adv-x="868" 
d="M565 931l-145 -151h-67l107 151h105zM710 620q48 -49 75.5 -115.5t27.5 -144.5q0 -79 -29 -148t-80 -120t-120 -80.5t-149 -29.5q-60 0 -112.5 15t-100.5 47l-80 -94l-52 42l80 95q-56 54 -85 122.5t-29 146.5q0 79 28.5 148t79 120.5t120 81.5t150.5 30q127 0 228 -72
l71 85l51 -42zM613 608q-40 29 -86 43.5t-94 14.5q-59 0 -113.5 -22.5t-96.5 -63.5t-67 -98t-25 -126q0 -125 86 -214zM269 100q75 -48 164 -48q63 0 118.5 23t97 63.5t65.5 97.5t24 124q0 118 -76 203z" />
    <glyph glyph-name="oslashacute" unicode="&#x1ff;" horiz-adv-x="653" 
d="M464 781l-145 -151h-67l107 151h105zM539 446q32 -38 48.5 -84.5t16.5 -97.5q0 -57 -21 -107.5t-57.5 -88.5t-87.5 -60t-111 -22q-81 0 -146 40l-57 -66l-43 35l55 66q-42 42 -64 93.5t-22 109.5q0 57 21 108.5t58 89.5t87.5 60.5t109.5 22.5q99 0 172 -58l57 66l44 -36z
M453 433q-28 22 -60 34t-66 12q-42 0 -80 -17t-66 -46.5t-44.5 -69t-16.5 -83.5q0 -42 16 -82t44 -69zM225 77q47 -25 102 -25q45 0 83 16.5t65.5 45t43 67t15.5 81.5q0 69 -42 130z" />
    <glyph glyph-name="uni0218" unicode="&#x218;" horiz-adv-x="498" 
d="M363 574q-29 38 -58 63t-74 25q-47 0 -72 -28t-25 -63q0 -29 16.5 -58.5t47.5 -52.5q51 -37 93.5 -70t74 -66.5t49 -69t17.5 -79.5q0 -38 -15 -73t-42 -61.5t-64 -42.5t-81 -16q-75 0 -126 39.5t-91 112.5l61 37q65 -119 150 -119q28 0 52.5 9.5t42.5 26t28 39t10 47.5
q0 30 -14 55t-43.5 53t-74 63.5t-105.5 84.5q-26 20 -43.5 58.5t-17.5 79.5q0 37 13.5 68t37 53t55.5 34.5t68 12.5q33 0 60 -9.5t49.5 -25t41.5 -37t37 -45.5zM183 -62q21 7 46 7q77 0 77 -53q0 -34 -30.5 -56t-81.5 -22q-16 0 -33.5 3t-37.5 8l11 35q31 -7 50 -7
q64 0 64 32q0 21 -36 21q-14 0 -35 -7z" />
    <glyph glyph-name="uni0219" unicode="&#x219;" horiz-adv-x="388" 
d="M69 111q53 -59 111 -59q20 0 37.5 6.5t31 18.5t21.5 28t8 35q0 23 -12 43t-32 31l-80.5 45.5t-57.5 40t-34.5 45t-11.5 59.5q0 32 11.5 57.5t31 44.5t46.5 29t57 10q44 0 78.5 -19.5t68.5 -52.5l-44 -45q-24 23 -49.5 37t-57.5 14q-33 0 -56.5 -20.5t-23.5 -50.5
q0 -20 11.5 -40t29.5 -31q46 -27 81.5 -47t59.5 -40.5t36.5 -45.5t12.5 -61q0 -31 -11.5 -59.5t-32.5 -50t-50.5 -34.5t-65.5 -13q-45 0 -86.5 19.5t-70.5 56.5zM130 -62q21 7 46 7q77 0 77 -53q0 -34 -30.5 -56t-81.5 -22q-16 0 -33.5 3t-37.5 8l11 35q31 -7 50 -7
q64 0 64 32q0 21 -36 21q-14 0 -35 -7z" />
    <glyph glyph-name="uni021A" unicode="&#x21a;" horiz-adv-x="426" 
d="M16 718h394v-70h-160v-648h-72v648h-162v70zM179 -62q21 7 46 7q77 0 77 -53q0 -34 -30.5 -56t-81.5 -22q-16 0 -33.5 3t-37.5 8l11 35q31 -7 50 -7q64 0 64 32q0 21 -36 21q-14 0 -35 -7z" />
    <glyph glyph-name="uni021B" unicode="&#x21b;" horiz-adv-x="339" 
d="M205 729v-198h109v-60h-109v-471h-68v471h-94v60h94v198h68zM133 -62q21 7 46 7q77 0 77 -53q0 -34 -30.5 -56t-81.5 -22q-16 0 -33.5 3t-37.5 8l11 35q31 -7 50 -7q64 0 64 32q0 21 -36 21q-14 0 -35 -7z" />
    <glyph glyph-name="circumflex" unicode="&#x2c6;" horiz-adv-x="502" 
d="M287 753l142 -125h-89l-86 74l-89 -74h-91l145 125h68z" />
    <glyph glyph-name="caron" unicode="&#x2c7;" horiz-adv-x="502" 
d="M216 628l-142 125h88l86 -74l90 74h91l-145 -125h-68z" />
    <glyph glyph-name="uni02C9" unicode="&#x2c9;" horiz-adv-x="485" 
d="M411 723v-60h-337v60h337z" />
    <glyph glyph-name="breve" unicode="&#x2d8;" horiz-adv-x="453" 
d="M399 745q-11 -43 -53.5 -73t-117.5 -30q-71 0 -116.5 27.5t-58.5 75.5h64q34 -51 111 -51q38 0 62.5 11t46.5 40h62z" />
    <glyph glyph-name="dotaccent" unicode="&#x2d9;" horiz-adv-x="222" 
d="M111 741q23 0 39.5 -17t16.5 -40t-16.5 -39.5t-39.5 -16.5t-40 16.5t-17 39.5t17 40t40 17z" />
    <glyph glyph-name="ring" unicode="&#x2da;" horiz-adv-x="332" 
d="M167 820q42 0 71.5 -29t29.5 -72q0 -21 -8 -39.5t-21.5 -32.5t-32 -22t-39.5 -8t-39.5 8t-32.5 22t-22 32.5t-8 39.5q0 42 29.5 71.5t72.5 29.5zM167 778q-26 1 -42.5 -16.5t-16.5 -42.5q0 -26 18 -42.5t41 -16.5q25 0 42 17.5t17 41.5q1 25 -17 42t-42 17z" />
    <glyph glyph-name="ogonek" unicode="&#x2db;" horiz-adv-x="302" 
d="M246 -187q-11 -2 -21.5 -3t-20.5 -1q-31 0 -52.5 8t-34.5 21t-18.5 28.5t-5.5 29.5q0 29 14.5 56.5t43.5 47.5h53q-27 -23 -43 -45t-16 -48q0 -20 16.5 -37.5t55.5 -17.5q8 0 17.5 1t16.5 2z" />
    <glyph glyph-name="tilde" unicode="&#x2dc;" horiz-adv-x="439" 
d="M290 704q20 0 38.5 7t35.5 17l34 -47q-25 -18 -50 -30.5t-60 -12.5q-24 0 -42 6.5t-34 14t-31 14t-32 6.5q-24 0 -41.5 -11t-35.5 -24l-32 50q44 47 110 47q21 0 39 -6t35 -12.5t33 -12.5t33 -6z" />
    <glyph glyph-name="hungarumlaut" unicode="&#x2dd;" horiz-adv-x="552" 
d="M338 781l-145 -151h-67l107 151h105zM492 781l-144 -151h-68l107 151h105z" />
    <glyph glyph-name="gravecomb" unicode="&#x300;" horiz-adv-x="0" 
d="M-246 728h73l73 -118h-58z" />
    <glyph glyph-name="acutecomb" unicode="&#x301;" horiz-adv-x="0" 
d="M-100 728l-88 -118h-58l73 118h73z" />
    <glyph glyph-name="uni0302" unicode="&#x302;" horiz-adv-x="0" 
d="M-296 610h-68l97 118h70l97 -118h-68l-64 79z" />
    <glyph glyph-name="tildecomb" unicode="&#x303;" horiz-adv-x="0" 
d="M-354 620q0 42 11 66t29 33t41 3.5t47 -23.5q18 -14 32 -22.5t23 -8t14 12.5t5 39h52q0 -42 -11 -66.5t-29 -33.5t-40.5 -3.5t-46.5 23.5q-18 14 -32 22.5t-23.5 8t-14.5 -12t-5 -38.5h-52z" />
    <glyph glyph-name="uni0306" unicode="&#x306;" horiz-adv-x="0" 
d="M-227 602q-57 0 -92 30.5t-35 87.5h58q0 -35 17.5 -50t51.5 -15t51.5 15t17.5 50h58q0 -57 -34 -87.5t-93 -30.5z" />
    <glyph glyph-name="hookabovecomb" unicode="&#x309;" horiz-adv-x="0" 
d="M-100 688q0 -17 -5 -29t-25 -29q-6 -5 -13 -15t-7 -20v-12h-47q-2 26 8 43t30 35q6 5 8.5 13t2.5 14q0 8 -6.5 15.5t-19.5 7.5q-14 0 -22 -11t-8 -31h-46q0 37 19.5 62.5t56.5 25.5q30 0 52 -19.5t22 -49.5z" />
    <glyph glyph-name="uni031B" unicode="&#x31b;" horiz-adv-x="0" 
d="M-265 531q48 0 64 23t17 68h64q-3 -74 -35.5 -111t-111.5 -37z" />
    <glyph glyph-name="dotbelowcomb" unicode="&#x323;" horiz-adv-x="0" 
d="M-111 -54q23 0 39.5 -17t16.5 -40t-16.5 -39.5t-39.5 -16.5t-40 16.5t-17 39.5t17 40t40 17z" />
    <glyph glyph-name="uni03A9" unicode="&#x3a9;" horiz-adv-x="712" 
d="M436 57q23 20 50.5 48t50.5 67t38.5 89.5t15.5 115.5q0 59 -15 109t-44.5 87.5t-72.5 58.5t-100 21q-53 0 -97 -20.5t-75.5 -57t-48.5 -87.5t-17 -111q0 -63 15 -113t37.5 -89t50.5 -68t53 -50v-57h-225v57h156q-24 19 -52 48t-51 69.5t-38.5 92.5t-15.5 118
q0 70 22.5 130t63 103.5t97.5 68.5t125 25q72 0 128 -24t95 -67t59 -102.5t20 -131.5q0 -60 -14.5 -110.5t-37 -92t-51 -73.5t-55.5 -54h158v-57h-225v57z" />
    <glyph glyph-name="uni03BC" unicode="&#x3bc;" horiz-adv-x="608" 
d="M453 58q-27 -34 -62 -52t-86 -18q-48 0 -84 17t-64 51v-250h-68v725h68v-293q0 -28 2.5 -51.5t10.5 -41.5q18 -38 55 -60.5t82 -22.5q51 0 89.5 31t50.5 83q5 20 5.5 34.5t0.5 34.5v286h68v-531h-68v58z" />
    <glyph glyph-name="pi" unicode="&#x3c0;" 
d="M611 6q-23 -13 -61 -13q-61 0 -88.5 37t-27.5 92v324h-199v-314q0 -82 -14 -132h-68q8 29 11.5 64.5t3.5 70.5v311q-23 0 -53 -6.5t-51 -16.5q-5 13 -10 25t-10 25q20 10 56 18.5t84 8.5h426v-54h-108v-318q0 -37 14.5 -59t49.5 -22q14 0 31 7z" />
    <glyph glyph-name="Wgrave" unicode="&#x1e80;" horiz-adv-x="960" 
d="M550 780h-68l-144 151h105zM121 718l146 -517l206 517h15l203 -517l149 517h73l-206 -718h-14l-212 543l-218 -543h-13l-203 718h74z" />
    <glyph glyph-name="wgrave" unicode="&#x1e81;" horiz-adv-x="831" 
d="M473 630h-68l-144 151h105zM75 531l162 -385l170 385h12l171 -385l165 385h71l-230 -531h-13l-169 380l-170 -380h-14l-226 531h71z" />
    <glyph glyph-name="Wacute" unicode="&#x1e82;" horiz-adv-x="960" 
d="M614 931l-145 -151h-67l107 151h105zM121 718l146 -517l206 517h15l203 -517l149 517h73l-206 -718h-14l-212 543l-218 -543h-13l-203 718h74z" />
    <glyph glyph-name="wacute" unicode="&#x1e83;" horiz-adv-x="831" 
d="M548 781l-145 -151h-67l107 151h105zM75 531l162 -385l170 385h12l171 -385l165 385h71l-230 -531h-13l-169 380l-170 -380h-14l-226 531h71z" />
    <glyph glyph-name="Wdieresis" unicode="&#x1e84;" horiz-adv-x="960" 
d="M380 891q23 0 39.5 -17t16.5 -40t-16.5 -39.5t-39.5 -16.5t-40 16.5t-17 39.5t17 40t40 17zM579 891q23 0 39.5 -17t16.5 -40t-16.5 -39.5t-39.5 -16.5t-40 16.5t-17 39.5t17 40t40 17zM121 718l146 -517l206 517h15l203 -517l149 517h73l-206 -718h-14l-212 543
l-218 -543h-13l-203 718h74z" />
    <glyph glyph-name="wdieresis" unicode="&#x1e85;" horiz-adv-x="831" 
d="M317 741q23 0 39.5 -17t16.5 -40t-16.5 -39.5t-39.5 -16.5t-40 16.5t-17 39.5t17 40t40 17zM516 741q23 0 39.5 -17t16.5 -40t-16.5 -39.5t-39.5 -16.5t-40 16.5t-17 39.5t17 40t40 17zM75 531l162 -385l170 385h12l171 -385l165 385h71l-230 -531h-13l-169 380
l-170 -380h-14l-226 531h71z" />
    <glyph glyph-name="uni1EA0" unicode="&#x1ea0;" horiz-adv-x="740" 
d="M716 0h-77l-113 236h-310l-112 -236h-80l340 718h17zM248 306h246l-122 260zM370 -54q23 0 39.5 -17t16.5 -40t-16.5 -39.5t-39.5 -16.5t-40 16.5t-17 39.5t17 40t40 17z" />
    <glyph glyph-name="uni1EA1" unicode="&#x1ea1;" horiz-adv-x="683" 
d="M605 531v-531h-67v91q-44 -53 -97.5 -78.5t-116.5 -25.5q-58 0 -108 22.5t-86.5 61t-57 89t-20.5 107.5t21 107.5t58 88.5t87 60t108 22q65 0 118.5 -27.5t93.5 -83.5v97h67zM332 479q-46 0 -84.5 -17.5t-66.5 -47t-43.5 -68t-15.5 -81.5t16 -82t44 -69t66 -47.5
t83 -17.5q41 0 79 15t67.5 42.5t47.5 67.5t18 89q0 46 -16 85.5t-44.5 68.5t-67 45.5t-83.5 16.5zM342 -54q23 0 39.5 -17t16.5 -40t-16.5 -39.5t-39.5 -16.5t-40 16.5t-17 39.5t17 40t40 17z" />
    <glyph glyph-name="uni1EA2" unicode="&#x1ea2;" horiz-adv-x="740" 
d="M445 875q0 -17 -5 -29t-25 -29q-6 -5 -13 -15t-7 -20v-12h-47q-2 26 8 43t30 35q6 5 8.5 13t2.5 14q0 8 -6.5 15.5t-19.5 7.5q-14 0 -22 -11t-8 -31h-46q0 37 19.5 62.5t56.5 25.5q30 0 52 -19.5t22 -49.5zM716 0h-77l-113 236h-310l-112 -236h-80l340 718h17zM248 306
h246l-122 260z" />
    <glyph glyph-name="uni1EA3" unicode="&#x1ea3;" horiz-adv-x="683" 
d="M417 688q0 -17 -5 -29t-25 -29q-6 -5 -13 -15t-7 -20v-12h-47q-2 26 8 43t30 35q6 5 8.5 13t2.5 14q0 8 -6.5 15.5t-19.5 7.5q-14 0 -22 -11t-8 -31h-46q0 37 19.5 62.5t56.5 25.5q30 0 52 -19.5t22 -49.5zM605 531v-531h-67v91q-44 -53 -97.5 -78.5t-116.5 -25.5
q-58 0 -108 22.5t-86.5 61t-57 89t-20.5 107.5t21 107.5t58 88.5t87 60t108 22q65 0 118.5 -27.5t93.5 -83.5v97h67zM332 479q-46 0 -84.5 -17.5t-66.5 -47t-43.5 -68t-15.5 -81.5t16 -82t44 -69t66 -47.5t83 -17.5q41 0 79 15t67.5 42.5t47.5 67.5t18 89q0 46 -16 85.5
t-44.5 68.5t-67 45.5t-83.5 16.5z" />
    <glyph glyph-name="uni1EA4" unicode="&#x1ea4;" horiz-adv-x="740" 
d="M560 944l-73 -118h58l88 118h-73zM302 777h-68l97 118h70l97 -118h-68l-64 79zM716 0h-77l-113 236h-310l-112 -236h-80l340 718h17zM248 306h246l-122 260z" />
    <glyph glyph-name="uni1EA5" unicode="&#x1ea5;" horiz-adv-x="683" 
d="M532 757l-73 -118h58l88 118h-73zM274 590h-68l97 118h70l97 -118h-68l-64 79zM605 531v-531h-67v91q-44 -53 -97.5 -78.5t-116.5 -25.5q-58 0 -108 22.5t-86.5 61t-57 89t-20.5 107.5t21 107.5t58 88.5t87 60t108 22q65 0 118.5 -27.5t93.5 -83.5v97h67zM332 479
q-46 0 -84.5 -17.5t-66.5 -47t-43.5 -68t-15.5 -81.5t16 -82t44 -69t66 -47.5t83 -17.5q41 0 79 15t67.5 42.5t47.5 67.5t18 89q0 46 -16 85.5t-44.5 68.5t-67 45.5t-83.5 16.5z" />
    <glyph glyph-name="uni1EA6" unicode="&#x1ea6;" horiz-adv-x="740" 
d="M499 837h58l-73 118h-73zM297 777h-68l97 118h70l97 -118h-68l-64 79zM716 0h-77l-113 236h-310l-112 -236h-80l340 718h17zM248 306h246l-122 260z" />
    <glyph glyph-name="uni1EA7" unicode="&#x1ea7;" horiz-adv-x="683" 
d="M471 650h58l-73 118h-73zM269 590h-68l97 118h70l97 -118h-68l-64 79zM605 531v-531h-67v91q-44 -53 -97.5 -78.5t-116.5 -25.5q-58 0 -108 22.5t-86.5 61t-57 89t-20.5 107.5t21 107.5t58 88.5t87 60t108 22q65 0 118.5 -27.5t93.5 -83.5v97h67zM332 479
q-46 0 -84.5 -17.5t-66.5 -47t-43.5 -68t-15.5 -81.5t16 -82t44 -69t66 -47.5t83 -17.5q41 0 79 15t67.5 42.5t47.5 67.5t18 89q0 46 -16 85.5t-44.5 68.5t-67 45.5t-83.5 16.5z" />
    <glyph glyph-name="uni1EA8" unicode="&#x1ea8;" horiz-adv-x="740" 
d="M582 943q0 -17 -5 -29t-25 -29q-6 -5 -13 -15t-7 -20v-12h-47q-2 26 8 43t30 35q6 5 8.5 13t2.5 14q0 8 -6.5 15.5t-19.5 7.5q-14 0 -22 -11t-8 -31h-46q0 37 19.5 62.5t56.5 25.5q30 0 52 -19.5t22 -49.5zM300 777h-68l97 118h70l97 -118h-68l-64 79zM716 0h-77
l-113 236h-310l-112 -236h-80l340 718h17zM248 306h246l-122 260z" />
    <glyph glyph-name="uni1EA9" unicode="&#x1ea9;" horiz-adv-x="683" 
d="M554 756q0 -17 -5 -29t-25 -29q-6 -5 -13 -15t-7 -20v-12h-47q-2 26 8 43t30 35q6 5 8.5 13t2.5 14q0 8 -6.5 15.5t-19.5 7.5q-14 0 -22 -11t-8 -31h-46q0 37 19.5 62.5t56.5 25.5q30 0 52 -19.5t22 -49.5zM272 590h-68l97 118h70l97 -118h-68l-64 79zM605 531v-531h-67
v91q-44 -53 -97.5 -78.5t-116.5 -25.5q-58 0 -108 22.5t-86.5 61t-57 89t-20.5 107.5t21 107.5t58 88.5t87 60t108 22q65 0 118.5 -27.5t93.5 -83.5v97h67zM332 479q-46 0 -84.5 -17.5t-66.5 -47t-43.5 -68t-15.5 -81.5t16 -82t44 -69t66 -47.5t83 -17.5q41 0 79 15
t67.5 42.5t47.5 67.5t18 89q0 46 -16 85.5t-44.5 68.5t-67 45.5t-83.5 16.5z" />
    <glyph glyph-name="uni1EAA" unicode="&#x1eaa;" horiz-adv-x="740" 
d="M243 909q0 42 11 66t29 33t41 3.5t47 -23.5q18 -14 32 -22.5t23 -8t14 12.5t5 39h52q0 -42 -11 -66.5t-29 -33.5t-40.5 -3.5t-46.5 23.5q-18 14 -32 22.5t-23.5 8t-14.5 -12t-5 -38.5h-52zM306 777h-68l97 118h70l97 -118h-68l-64 79zM716 0h-77l-113 236h-310l-112 -236
h-80l340 718h17zM248 306h246l-122 260z" />
    <glyph glyph-name="uni1EAB" unicode="&#x1eab;" horiz-adv-x="683" 
d="M215 722q0 42 11 66t29 33t41 3.5t47 -23.5q18 -14 32 -22.5t23 -8t14 12.5t5 39h52q0 -42 -11 -66.5t-29 -33.5t-40.5 -3.5t-46.5 23.5q-18 14 -32 22.5t-23.5 8t-14.5 -12t-5 -38.5h-52zM278 590h-68l97 118h70l97 -118h-68l-64 79zM605 531v-531h-67v91
q-44 -53 -97.5 -78.5t-116.5 -25.5q-58 0 -108 22.5t-86.5 61t-57 89t-20.5 107.5t21 107.5t58 88.5t87 60t108 22q65 0 118.5 -27.5t93.5 -83.5v97h67zM332 479q-46 0 -84.5 -17.5t-66.5 -47t-43.5 -68t-15.5 -81.5t16 -82t44 -69t66 -47.5t83 -17.5q41 0 79 15t67.5 42.5
t47.5 67.5t18 89q0 46 -16 85.5t-44.5 68.5t-67 45.5t-83.5 16.5z" />
    <glyph glyph-name="uni1EAC" unicode="&#x1eac;" horiz-adv-x="740" 
d="M306 777h-68l97 118h70l97 -118h-68l-64 79zM716 0h-77l-113 236h-310l-112 -236h-80l340 718h17zM248 306h246l-122 260zM370 -54q23 0 39.5 -17t16.5 -40t-16.5 -39.5t-39.5 -16.5t-40 16.5t-17 39.5t17 40t40 17z" />
    <glyph glyph-name="uni1EAD" unicode="&#x1ead;" horiz-adv-x="683" 
d="M278 590h-68l97 118h70l97 -118h-68l-64 79zM605 531v-531h-67v91q-44 -53 -97.5 -78.5t-116.5 -25.5q-58 0 -108 22.5t-86.5 61t-57 89t-20.5 107.5t21 107.5t58 88.5t87 60t108 22q65 0 118.5 -27.5t93.5 -83.5v97h67zM332 479q-46 0 -84.5 -17.5t-66.5 -47t-43.5 -68
t-15.5 -81.5t16 -82t44 -69t66 -47.5t83 -17.5q41 0 79 15t67.5 42.5t47.5 67.5t18 89q0 46 -16 85.5t-44.5 68.5t-67 45.5t-83.5 16.5zM342 -54q23 0 39.5 -17t16.5 -40t-16.5 -39.5t-39.5 -16.5t-40 16.5t-17 39.5t17 40t40 17z" />
    <glyph glyph-name="uni1EAE" unicode="&#x1eae;" horiz-adv-x="740" 
d="M410 1031l-73 -118h58l88 118h-73zM370 789q-57 0 -92 30.5t-35 87.5h58q0 -35 17.5 -50t51.5 -15t51.5 15t17.5 50h58q0 -57 -34 -87.5t-93 -30.5zM716 0h-77l-113 236h-310l-112 -236h-80l340 718h17zM248 306h246l-122 260z" />
    <glyph glyph-name="uni1EAF" unicode="&#x1eaf;" horiz-adv-x="683" 
d="M382 844l-73 -118h58l88 118h-73zM342 602q-57 0 -92 30.5t-35 87.5h58q0 -35 17.5 -50t51.5 -15t51.5 15t17.5 50h58q0 -57 -34 -87.5t-93 -30.5zM605 531v-531h-67v91q-44 -53 -97.5 -78.5t-116.5 -25.5q-58 0 -108 22.5t-86.5 61t-57 89t-20.5 107.5t21 107.5t58 88.5
t87 60t108 22q65 0 118.5 -27.5t93.5 -83.5v97h67zM332 479q-46 0 -84.5 -17.5t-66.5 -47t-43.5 -68t-15.5 -81.5t16 -82t44 -69t66 -47.5t83 -17.5q41 0 79 15t67.5 42.5t47.5 67.5t18 89q0 46 -16 85.5t-44.5 68.5t-67 45.5t-83.5 16.5z" />
    <glyph glyph-name="uni1EB0" unicode="&#x1eb0;" horiz-adv-x="740" 
d="M342 911h58l-73 118h-73zM370 789q-57 0 -92 30.5t-35 87.5h58q0 -35 17.5 -50t51.5 -15t51.5 15t17.5 50h58q0 -57 -34 -87.5t-93 -30.5zM716 0h-77l-113 236h-310l-112 -236h-80l340 718h17zM248 306h246l-122 260z" />
    <glyph glyph-name="uni1EB1" unicode="&#x1eb1;" horiz-adv-x="683" 
d="M314 724h58l-73 118h-73zM342 602q-57 0 -92 30.5t-35 87.5h58q0 -35 17.5 -50t51.5 -15t51.5 15t17.5 50h58q0 -57 -34 -87.5t-93 -30.5zM605 531v-531h-67v91q-44 -53 -97.5 -78.5t-116.5 -25.5q-58 0 -108 22.5t-86.5 61t-57 89t-20.5 107.5t21 107.5t58 88.5t87 60
t108 22q65 0 118.5 -27.5t93.5 -83.5v97h67zM332 479q-46 0 -84.5 -17.5t-66.5 -47t-43.5 -68t-15.5 -81.5t16 -82t44 -69t66 -47.5t83 -17.5q41 0 79 15t67.5 42.5t47.5 67.5t18 89q0 46 -16 85.5t-44.5 68.5t-67 45.5t-83.5 16.5z" />
    <glyph glyph-name="uni1EB2" unicode="&#x1eb2;" horiz-adv-x="740" 
d="M445 1011q0 -17 -5 -29t-25 -29q-6 -5 -13 -15t-7 -20v-12h-47q-2 26 8 43t30 35q6 5 8.5 13t2.5 14q0 8 -6.5 15.5t-19.5 7.5q-14 0 -22 -11t-8 -31h-46q0 37 19.5 62.5t56.5 25.5q30 0 52 -19.5t22 -49.5zM370 789q-57 0 -92 30.5t-35 87.5h58q0 -35 17.5 -50t51.5 -15
t51.5 15t17.5 50h58q0 -57 -34 -87.5t-93 -30.5zM716 0h-77l-113 236h-310l-112 -236h-80l340 718h17zM248 306h246l-122 260z" />
    <glyph glyph-name="uni1EB3" unicode="&#x1eb3;" horiz-adv-x="683" 
d="M417 824q0 -17 -5 -29t-25 -29q-6 -5 -13 -15t-7 -20v-12h-47q-2 26 8 43t30 35q6 5 8.5 13t2.5 14q0 8 -6.5 15.5t-19.5 7.5q-14 0 -22 -11t-8 -31h-46q0 37 19.5 62.5t56.5 25.5q30 0 52 -19.5t22 -49.5zM342 602q-57 0 -92 30.5t-35 87.5h58q0 -35 17.5 -50t51.5 -15
t51.5 15t17.5 50h58q0 -57 -34 -87.5t-93 -30.5zM605 531v-531h-67v91q-44 -53 -97.5 -78.5t-116.5 -25.5q-58 0 -108 22.5t-86.5 61t-57 89t-20.5 107.5t21 107.5t58 88.5t87 60t108 22q65 0 118.5 -27.5t93.5 -83.5v97h67zM332 479q-46 0 -84.5 -17.5t-66.5 -47t-43.5 -68
t-15.5 -81.5t16 -82t44 -69t66 -47.5t83 -17.5q41 0 79 15t67.5 42.5t47.5 67.5t18 89q0 46 -16 85.5t-44.5 68.5t-67 45.5t-83.5 16.5z" />
    <glyph glyph-name="uni1EB4" unicode="&#x1eb4;" horiz-adv-x="740" 
d="M243 934q0 42 11 66t29 33t41 3.5t47 -23.5q18 -14 32 -22.5t23 -8t14 12.5t5 39h52q0 -42 -11 -66.5t-29 -33.5t-40.5 -3.5t-46.5 23.5q-18 14 -32 22.5t-23.5 8t-14.5 -12t-5 -38.5h-52zM370 789q-57 0 -92 30.5t-35 87.5h58q0 -35 17.5 -50t51.5 -15t51.5 15t17.5 50
h58q0 -57 -34 -87.5t-93 -30.5zM716 0h-77l-113 236h-310l-112 -236h-80l340 718h17zM248 306h246l-122 260z" />
    <glyph glyph-name="uni1EB5" unicode="&#x1eb5;" horiz-adv-x="683" 
d="M215 747q0 42 11 66t29 33t41 3.5t47 -23.5q18 -14 32 -22.5t23 -8t14 12.5t5 39h52q0 -42 -11 -66.5t-29 -33.5t-40.5 -3.5t-46.5 23.5q-18 14 -32 22.5t-23.5 8t-14.5 -12t-5 -38.5h-52zM342 602q-57 0 -92 30.5t-35 87.5h58q0 -35 17.5 -50t51.5 -15t51.5 15t17.5 50
h58q0 -57 -34 -87.5t-93 -30.5zM605 531v-531h-67v91q-44 -53 -97.5 -78.5t-116.5 -25.5q-58 0 -108 22.5t-86.5 61t-57 89t-20.5 107.5t21 107.5t58 88.5t87 60t108 22q65 0 118.5 -27.5t93.5 -83.5v97h67zM332 479q-46 0 -84.5 -17.5t-66.5 -47t-43.5 -68t-15.5 -81.5
t16 -82t44 -69t66 -47.5t83 -17.5q41 0 79 15t67.5 42.5t47.5 67.5t18 89q0 46 -16 85.5t-44.5 68.5t-67 45.5t-83.5 16.5z" />
    <glyph glyph-name="uni1EB6" unicode="&#x1eb6;" horiz-adv-x="740" 
d="M370 779q-57 0 -92 30.5t-35 87.5h58q0 -35 17.5 -50t51.5 -15t51.5 15t17.5 50h58q0 -57 -34 -87.5t-93 -30.5zM716 0h-77l-113 236h-310l-112 -236h-80l340 718h17zM248 306h246l-122 260zM370 -54q23 0 39.5 -17t16.5 -40t-16.5 -39.5t-39.5 -16.5t-40 16.5t-17 39.5
t17 40t40 17z" />
    <glyph glyph-name="uni1EB7" unicode="&#x1eb7;" horiz-adv-x="683" 
d="M342 592q-57 0 -92 30.5t-35 87.5h58q0 -35 17.5 -50t51.5 -15t51.5 15t17.5 50h58q0 -57 -34 -87.5t-93 -30.5zM605 531v-531h-67v91q-44 -53 -97.5 -78.5t-116.5 -25.5q-58 0 -108 22.5t-86.5 61t-57 89t-20.5 107.5t21 107.5t58 88.5t87 60t108 22q65 0 118.5 -27.5
t93.5 -83.5v97h67zM332 479q-46 0 -84.5 -17.5t-66.5 -47t-43.5 -68t-15.5 -81.5t16 -82t44 -69t66 -47.5t83 -17.5q41 0 79 15t67.5 42.5t47.5 67.5t18 89q0 46 -16 85.5t-44.5 68.5t-67 45.5t-83.5 16.5zM342 -54q23 0 39.5 -17t16.5 -40t-16.5 -39.5t-39.5 -16.5
t-40 16.5t-17 39.5t17 40t40 17z" />
    <glyph glyph-name="uni1EB8" unicode="&#x1eb8;" horiz-adv-x="536" 
d="M498 718v-70h-338v-225h338v-70h-338v-283h338v-70h-410v718h410zM268 -54q23 0 39.5 -17t16.5 -40t-16.5 -39.5t-39.5 -16.5t-40 16.5t-17 39.5t17 40t40 17z" />
    <glyph glyph-name="uni1EB9" unicode="&#x1eb9;" horiz-adv-x="650" 
d="M121 260q1 -46 16.5 -84.5t42 -66.5t62.5 -44t79 -16q42 0 73.5 11t55.5 28.5t41.5 40.5t32.5 47l57 -30q-81 -159 -253 -159q-66 0 -117.5 23.5t-87 62t-54 88.5t-18.5 103q0 54 19.5 105t55 90t86 62.5t112.5 23.5q57 0 106.5 -20t87 -56.5t59 -89.5t22.5 -119h-478z
M524 320q-21 83 -75.5 121t-123.5 38q-72 0 -123 -39t-74 -120h396zM325 -54q23 0 39.5 -17t16.5 -40t-16.5 -39.5t-39.5 -16.5t-40 16.5t-17 39.5t17 40t40 17z" />
    <glyph glyph-name="uni1EBA" unicode="&#x1eba;" horiz-adv-x="536" 
d="M374 875q0 -17 -5 -29t-25 -29q-6 -5 -13 -15t-7 -20v-12h-47q-2 26 8 43t30 35q6 5 8.5 13t2.5 14q0 8 -6.5 15.5t-19.5 7.5q-14 0 -22 -11t-8 -31h-46q0 37 19.5 62.5t56.5 25.5q30 0 52 -19.5t22 -49.5zM498 718v-70h-338v-225h338v-70h-338v-283h338v-70h-410v718
h410z" />
    <glyph glyph-name="uni1EBB" unicode="&#x1ebb;" horiz-adv-x="650" 
d="M400 688q0 -17 -5 -29t-25 -29q-6 -5 -13 -15t-7 -20v-12h-47q-2 26 8 43t30 35q6 5 8.5 13t2.5 14q0 8 -6.5 15.5t-19.5 7.5q-14 0 -22 -11t-8 -31h-46q0 37 19.5 62.5t56.5 25.5q30 0 52 -19.5t22 -49.5zM121 260q1 -46 16.5 -84.5t42 -66.5t62.5 -44t79 -16
q42 0 73.5 11t55.5 28.5t41.5 40.5t32.5 47l57 -30q-81 -159 -253 -159q-66 0 -117.5 23.5t-87 62t-54 88.5t-18.5 103q0 54 19.5 105t55 90t86 62.5t112.5 23.5q57 0 106.5 -20t87 -56.5t59 -89.5t22.5 -119h-478zM524 320q-21 83 -75.5 121t-123.5 38q-72 0 -123 -39
t-74 -120h396z" />
    <glyph glyph-name="uni1EBC" unicode="&#x1ebc;" horiz-adv-x="536" 
d="M172 787q0 42 11 66t29 33t41 3.5t47 -23.5q18 -14 32 -22.5t23 -8t14 12.5t5 39h52q0 -42 -11 -66.5t-29 -33.5t-40.5 -3.5t-46.5 23.5q-18 14 -32 22.5t-23.5 8t-14.5 -12t-5 -38.5h-52zM498 718v-70h-338v-225h338v-70h-338v-283h338v-70h-410v718h410z" />
    <glyph glyph-name="uni1EBD" unicode="&#x1ebd;" horiz-adv-x="650" 
d="M198 600q0 42 11 66t29 33t41 3.5t47 -23.5q18 -14 32 -22.5t23 -8t14 12.5t5 39h52q0 -42 -11 -66.5t-29 -33.5t-40.5 -3.5t-46.5 23.5q-18 14 -32 22.5t-23.5 8t-14.5 -12t-5 -38.5h-52zM121 260q1 -46 16.5 -84.5t42 -66.5t62.5 -44t79 -16q42 0 73.5 11t55.5 28.5
t41.5 40.5t32.5 47l57 -30q-81 -159 -253 -159q-66 0 -117.5 23.5t-87 62t-54 88.5t-18.5 103q0 54 19.5 105t55 90t86 62.5t112.5 23.5q57 0 106.5 -20t87 -56.5t59 -89.5t22.5 -119h-478zM524 320q-21 83 -75.5 121t-123.5 38q-72 0 -123 -39t-74 -120h396z" />
    <glyph glyph-name="uni1EBE" unicode="&#x1ebe;" horiz-adv-x="536" 
d="M489 944l-73 -118h58l88 118h-73zM231 777h-68l97 118h70l97 -118h-68l-64 79zM498 718v-70h-338v-225h338v-70h-338v-283h338v-70h-410v718h410z" />
    <glyph glyph-name="uni1EBF" unicode="&#x1ebf;" horiz-adv-x="650" 
d="M515 757l-73 -118h58l88 118h-73zM257 590h-68l97 118h70l97 -118h-68l-64 79zM121 260q1 -46 16.5 -84.5t42 -66.5t62.5 -44t79 -16q42 0 73.5 11t55.5 28.5t41.5 40.5t32.5 47l57 -30q-81 -159 -253 -159q-66 0 -117.5 23.5t-87 62t-54 88.5t-18.5 103q0 54 19.5 105
t55 90t86 62.5t112.5 23.5q57 0 106.5 -20t87 -56.5t59 -89.5t22.5 -119h-478zM524 320q-21 83 -75.5 121t-123.5 38q-72 0 -123 -39t-74 -120h396z" />
    <glyph glyph-name="uni1EC0" unicode="&#x1ec0;" horiz-adv-x="536" 
d="M428 837h58l-73 118h-73zM226 777h-68l97 118h70l97 -118h-68l-64 79zM498 718v-70h-338v-225h338v-70h-338v-283h338v-70h-410v718h410z" />
    <glyph glyph-name="uni1EC1" unicode="&#x1ec1;" horiz-adv-x="650" 
d="M454 650h58l-73 118h-73zM252 590h-68l97 118h70l97 -118h-68l-64 79zM121 260q1 -46 16.5 -84.5t42 -66.5t62.5 -44t79 -16q42 0 73.5 11t55.5 28.5t41.5 40.5t32.5 47l57 -30q-81 -159 -253 -159q-66 0 -117.5 23.5t-87 62t-54 88.5t-18.5 103q0 54 19.5 105t55 90
t86 62.5t112.5 23.5q57 0 106.5 -20t87 -56.5t59 -89.5t22.5 -119h-478zM524 320q-21 83 -75.5 121t-123.5 38q-72 0 -123 -39t-74 -120h396z" />
    <glyph glyph-name="uni1EC2" unicode="&#x1ec2;" horiz-adv-x="536" 
d="M511 943q0 -17 -5 -29t-25 -29q-6 -5 -13 -15t-7 -20v-12h-47q-2 26 8 43t30 35q6 5 8.5 13t2.5 14q0 8 -6.5 15.5t-19.5 7.5q-14 0 -22 -11t-8 -31h-46q0 37 19.5 62.5t56.5 25.5q30 0 52 -19.5t22 -49.5zM229 777h-68l97 118h70l97 -118h-68l-64 79zM498 718v-70h-338
v-225h338v-70h-338v-283h338v-70h-410v718h410z" />
    <glyph glyph-name="uni1EC3" unicode="&#x1ec3;" horiz-adv-x="650" 
d="M537 756q0 -17 -5 -29t-25 -29q-6 -5 -13 -15t-7 -20v-12h-47q-2 26 8 43t30 35q6 5 8.5 13t2.5 14q0 8 -6.5 15.5t-19.5 7.5q-14 0 -22 -11t-8 -31h-46q0 37 19.5 62.5t56.5 25.5q30 0 52 -19.5t22 -49.5zM255 590h-68l97 118h70l97 -118h-68l-64 79zM121 260
q1 -46 16.5 -84.5t42 -66.5t62.5 -44t79 -16q42 0 73.5 11t55.5 28.5t41.5 40.5t32.5 47l57 -30q-81 -159 -253 -159q-66 0 -117.5 23.5t-87 62t-54 88.5t-18.5 103q0 54 19.5 105t55 90t86 62.5t112.5 23.5q57 0 106.5 -20t87 -56.5t59 -89.5t22.5 -119h-478zM524 320
q-21 83 -75.5 121t-123.5 38q-72 0 -123 -39t-74 -120h396z" />
    <glyph glyph-name="uni1EC4" unicode="&#x1ec4;" horiz-adv-x="536" 
d="M172 909q0 42 11 66t29 33t41 3.5t47 -23.5q18 -14 32 -22.5t23 -8t14 12.5t5 39h52q0 -42 -11 -66.5t-29 -33.5t-40.5 -3.5t-46.5 23.5q-18 14 -32 22.5t-23.5 8t-14.5 -12t-5 -38.5h-52zM235 777h-68l97 118h70l97 -118h-68l-64 79zM498 718v-70h-338v-225h338v-70
h-338v-283h338v-70h-410v718h410z" />
    <glyph glyph-name="uni1EC5" unicode="&#x1ec5;" horiz-adv-x="650" 
d="M198 722q0 42 11 66t29 33t41 3.5t47 -23.5q18 -14 32 -22.5t23 -8t14 12.5t5 39h52q0 -42 -11 -66.5t-29 -33.5t-40.5 -3.5t-46.5 23.5q-18 14 -32 22.5t-23.5 8t-14.5 -12t-5 -38.5h-52zM261 590h-68l97 118h70l97 -118h-68l-64 79zM121 260q1 -46 16.5 -84.5t42 -66.5
t62.5 -44t79 -16q42 0 73.5 11t55.5 28.5t41.5 40.5t32.5 47l57 -30q-81 -159 -253 -159q-66 0 -117.5 23.5t-87 62t-54 88.5t-18.5 103q0 54 19.5 105t55 90t86 62.5t112.5 23.5q57 0 106.5 -20t87 -56.5t59 -89.5t22.5 -119h-478zM524 320q-21 83 -75.5 121t-123.5 38
q-72 0 -123 -39t-74 -120h396z" />
    <glyph glyph-name="uni1EC6" unicode="&#x1ec6;" horiz-adv-x="536" 
d="M235 777h-68l97 118h70l97 -118h-68l-64 79zM498 718v-70h-338v-225h338v-70h-338v-283h338v-70h-410v718h410zM268 -54q23 0 39.5 -17t16.5 -40t-16.5 -39.5t-39.5 -16.5t-40 16.5t-17 39.5t17 40t40 17z" />
    <glyph glyph-name="uni1EC7" unicode="&#x1ec7;" horiz-adv-x="650" 
d="M261 590h-68l97 118h70l97 -118h-68l-64 79zM121 260q1 -46 16.5 -84.5t42 -66.5t62.5 -44t79 -16q42 0 73.5 11t55.5 28.5t41.5 40.5t32.5 47l57 -30q-81 -159 -253 -159q-66 0 -117.5 23.5t-87 62t-54 88.5t-18.5 103q0 54 19.5 105t55 90t86 62.5t112.5 23.5
q57 0 106.5 -20t87 -56.5t59 -89.5t22.5 -119h-478zM524 320q-21 83 -75.5 121t-123.5 38q-72 0 -123 -39t-74 -120h396zM325 -54q23 0 39.5 -17t16.5 -40t-16.5 -39.5t-39.5 -16.5t-40 16.5t-17 39.5t17 40t40 17z" />
    <glyph glyph-name="uni1EC8" unicode="&#x1ec8;" horiz-adv-x="226" 
d="M188 875q0 -17 -5 -29t-25 -29q-6 -5 -13 -15t-7 -20v-12h-47q-2 26 8 43t30 35q6 5 8.5 13t2.5 14q0 8 -6.5 15.5t-19.5 7.5q-14 0 -22 -11t-8 -31h-46q0 37 19.5 62.5t56.5 25.5q30 0 52 -19.5t22 -49.5zM149 718v-718h-72v718h72z" />
    <glyph glyph-name="uni1EC9" unicode="&#x1ec9;" horiz-adv-x="200" 
d="M175 688q0 -17 -5 -29t-25 -29q-6 -5 -13 -15t-7 -20v-12h-47q-2 26 8 43t30 35q6 5 8.5 13t2.5 14q0 8 -6.5 15.5t-19.5 7.5q-14 0 -22 -11t-8 -31h-46q0 37 19.5 62.5t56.5 25.5q30 0 52 -19.5t22 -49.5zM135 531v-531h-68v531h68z" />
    <glyph glyph-name="uni1ECA" unicode="&#x1eca;" horiz-adv-x="226" 
d="M149 718v-718h-72v718h72zM113 -54q23 0 39.5 -17t16.5 -40t-16.5 -39.5t-39.5 -16.5t-40 16.5t-17 39.5t17 40t40 17z" />
    <glyph glyph-name="uni1ECB" unicode="&#x1ecb;" horiz-adv-x="200" 
d="M100 750q23 0 40 -16.5t17 -39.5t-17 -40t-40 -17t-39.5 17t-16.5 40q0 24 16.5 40t39.5 16zM135 531v-531h-68v531h68zM100 -54q23 0 39.5 -17t16.5 -40t-16.5 -39.5t-39.5 -16.5t-40 16.5t-17 39.5t17 40t40 17z" />
    <glyph glyph-name="uni1ECC" unicode="&#x1ecc;" horiz-adv-x="869" 
d="M429 736q82 0 152 -29t121.5 -79.5t81 -119.5t29.5 -149q0 -79 -29 -148t-80 -120t-120 -80t-149 -29q-83 0 -152.5 30t-120 81.5t-78.5 119.5t-28 143q0 80 29 149.5t79.5 120.5t118.5 80.5t146 29.5zM433 666q-59 0 -113.5 -22.5t-96.5 -63.5t-67 -98t-25 -126
q0 -66 24.5 -122t66 -96.5t96 -63t115.5 -22.5q63 0 118.5 23t97 63.5t65.5 97.5t24 124q0 68 -25.5 124.5t-67.5 97t-97 62.5t-115 22zM435 -54q23 0 39.5 -17t16.5 -40t-16.5 -39.5t-39.5 -16.5t-40 16.5t-17 39.5t17 40t40 17z" />
    <glyph glyph-name="uni1ECD" unicode="&#x1ecd;" 
d="M328 545q60 0 110.5 -22.5t87.5 -61t58 -89.5t21 -108t-21 -107.5t-57.5 -88.5t-87.5 -60t-111 -22t-111 22t-87.5 60t-57.5 88.5t-21 107.5t21 108t58 89.5t87.5 61t110.5 22.5zM328 479q-43 0 -80.5 -17t-65.5 -46.5t-44.5 -69t-16.5 -83.5q0 -43 15.5 -81.5t43 -67.5
t65.5 -45.5t83 -16.5t82.5 16.5t65.5 45.5t43.5 67.5t15.5 81.5q0 44 -16.5 83.5t-44.5 69t-66 46.5t-80 17zM328 -54q23 0 39.5 -17t16.5 -40t-16.5 -39.5t-39.5 -16.5t-40 16.5t-17 39.5t17 40t40 17z" />
    <glyph glyph-name="uni1ECE" unicode="&#x1ece;" horiz-adv-x="869" 
d="M510 875q0 -17 -5 -29t-25 -29q-6 -5 -13 -15t-7 -20v-12h-47q-2 26 8 43t30 35q6 5 8.5 13t2.5 14q0 8 -6.5 15.5t-19.5 7.5q-14 0 -22 -11t-8 -31h-46q0 37 19.5 62.5t56.5 25.5q30 0 52 -19.5t22 -49.5zM429 736q82 0 152 -29t121.5 -79.5t81 -119.5t29.5 -149
q0 -79 -29 -148t-80 -120t-120 -80t-149 -29q-83 0 -152.5 30t-120 81.5t-78.5 119.5t-28 143q0 80 29 149.5t79.5 120.5t118.5 80.5t146 29.5zM433 666q-59 0 -113.5 -22.5t-96.5 -63.5t-67 -98t-25 -126q0 -66 24.5 -122t66 -96.5t96 -63t115.5 -22.5q63 0 118.5 23
t97 63.5t65.5 97.5t24 124q0 68 -25.5 124.5t-67.5 97t-97 62.5t-115 22z" />
    <glyph glyph-name="uni1ECF" unicode="&#x1ecf;" 
d="M403 688q0 -17 -5 -29t-25 -29q-6 -5 -13 -15t-7 -20v-12h-47q-2 26 8 43t30 35q6 5 8.5 13t2.5 14q0 8 -6.5 15.5t-19.5 7.5q-14 0 -22 -11t-8 -31h-46q0 37 19.5 62.5t56.5 25.5q30 0 52 -19.5t22 -49.5zM328 545q60 0 110.5 -22.5t87.5 -61t58 -89.5t21 -108
t-21 -107.5t-57.5 -88.5t-87.5 -60t-111 -22t-111 22t-87.5 60t-57.5 88.5t-21 107.5t21 108t58 89.5t87.5 61t110.5 22.5zM328 479q-43 0 -80.5 -17t-65.5 -46.5t-44.5 -69t-16.5 -83.5q0 -43 15.5 -81.5t43 -67.5t65.5 -45.5t83 -16.5t82.5 16.5t65.5 45.5t43.5 67.5
t15.5 81.5q0 44 -16.5 83.5t-44.5 69t-66 46.5t-80 17z" />
    <glyph glyph-name="uni1ED0" unicode="&#x1ed0;" horiz-adv-x="869" 
d="M625 944l-73 -118h58l88 118h-73zM367 777h-68l97 118h70l97 -118h-68l-64 79zM429 736q82 0 152 -29t121.5 -79.5t81 -119.5t29.5 -149q0 -79 -29 -148t-80 -120t-120 -80t-149 -29q-83 0 -152.5 30t-120 81.5t-78.5 119.5t-28 143q0 80 29 149.5t79.5 120.5t118.5 80.5
t146 29.5zM433 666q-59 0 -113.5 -22.5t-96.5 -63.5t-67 -98t-25 -126q0 -66 24.5 -122t66 -96.5t96 -63t115.5 -22.5q63 0 118.5 23t97 63.5t65.5 97.5t24 124q0 68 -25.5 124.5t-67.5 97t-97 62.5t-115 22z" />
    <glyph glyph-name="uni1ED1" unicode="&#x1ed1;" 
d="M518 757l-73 -118h58l88 118h-73zM260 590h-68l97 118h70l97 -118h-68l-64 79zM328 545q60 0 110.5 -22.5t87.5 -61t58 -89.5t21 -108t-21 -107.5t-57.5 -88.5t-87.5 -60t-111 -22t-111 22t-87.5 60t-57.5 88.5t-21 107.5t21 108t58 89.5t87.5 61t110.5 22.5zM328 479
q-43 0 -80.5 -17t-65.5 -46.5t-44.5 -69t-16.5 -83.5q0 -43 15.5 -81.5t43 -67.5t65.5 -45.5t83 -16.5t82.5 16.5t65.5 45.5t43.5 67.5t15.5 81.5q0 44 -16.5 83.5t-44.5 69t-66 46.5t-80 17z" />
    <glyph glyph-name="uni1ED2" unicode="&#x1ed2;" horiz-adv-x="869" 
d="M564 837h58l-73 118h-73zM362 777h-68l97 118h70l97 -118h-68l-64 79zM429 736q82 0 152 -29t121.5 -79.5t81 -119.5t29.5 -149q0 -79 -29 -148t-80 -120t-120 -80t-149 -29q-83 0 -152.5 30t-120 81.5t-78.5 119.5t-28 143q0 80 29 149.5t79.5 120.5t118.5 80.5
t146 29.5zM433 666q-59 0 -113.5 -22.5t-96.5 -63.5t-67 -98t-25 -126q0 -66 24.5 -122t66 -96.5t96 -63t115.5 -22.5q63 0 118.5 23t97 63.5t65.5 97.5t24 124q0 68 -25.5 124.5t-67.5 97t-97 62.5t-115 22z" />
    <glyph glyph-name="uni1ED3" unicode="&#x1ed3;" 
d="M457 650h58l-73 118h-73zM255 590h-68l97 118h70l97 -118h-68l-64 79zM328 545q60 0 110.5 -22.5t87.5 -61t58 -89.5t21 -108t-21 -107.5t-57.5 -88.5t-87.5 -60t-111 -22t-111 22t-87.5 60t-57.5 88.5t-21 107.5t21 108t58 89.5t87.5 61t110.5 22.5zM328 479
q-43 0 -80.5 -17t-65.5 -46.5t-44.5 -69t-16.5 -83.5q0 -43 15.5 -81.5t43 -67.5t65.5 -45.5t83 -16.5t82.5 16.5t65.5 45.5t43.5 67.5t15.5 81.5q0 44 -16.5 83.5t-44.5 69t-66 46.5t-80 17z" />
    <glyph glyph-name="uni1ED4" unicode="&#x1ed4;" horiz-adv-x="869" 
d="M647 943q0 -17 -5 -29t-25 -29q-6 -5 -13 -15t-7 -20v-12h-47q-2 26 8 43t30 35q6 5 8.5 13t2.5 14q0 8 -6.5 15.5t-19.5 7.5q-14 0 -22 -11t-8 -31h-46q0 37 19.5 62.5t56.5 25.5q30 0 52 -19.5t22 -49.5zM365 777h-68l97 118h70l97 -118h-68l-64 79zM429 736
q82 0 152 -29t121.5 -79.5t81 -119.5t29.5 -149q0 -79 -29 -148t-80 -120t-120 -80t-149 -29q-83 0 -152.5 30t-120 81.5t-78.5 119.5t-28 143q0 80 29 149.5t79.5 120.5t118.5 80.5t146 29.5zM433 666q-59 0 -113.5 -22.5t-96.5 -63.5t-67 -98t-25 -126q0 -66 24.5 -122
t66 -96.5t96 -63t115.5 -22.5q63 0 118.5 23t97 63.5t65.5 97.5t24 124q0 68 -25.5 124.5t-67.5 97t-97 62.5t-115 22z" />
    <glyph glyph-name="uni1ED5" unicode="&#x1ed5;" 
d="M540 756q0 -17 -5 -29t-25 -29q-6 -5 -13 -15t-7 -20v-12h-47q-2 26 8 43t30 35q6 5 8.5 13t2.5 14q0 8 -6.5 15.5t-19.5 7.5q-14 0 -22 -11t-8 -31h-46q0 37 19.5 62.5t56.5 25.5q30 0 52 -19.5t22 -49.5zM258 590h-68l97 118h70l97 -118h-68l-64 79zM328 545
q60 0 110.5 -22.5t87.5 -61t58 -89.5t21 -108t-21 -107.5t-57.5 -88.5t-87.5 -60t-111 -22t-111 22t-87.5 60t-57.5 88.5t-21 107.5t21 108t58 89.5t87.5 61t110.5 22.5zM328 479q-43 0 -80.5 -17t-65.5 -46.5t-44.5 -69t-16.5 -83.5q0 -43 15.5 -81.5t43 -67.5t65.5 -45.5
t83 -16.5t82.5 16.5t65.5 45.5t43.5 67.5t15.5 81.5q0 44 -16.5 83.5t-44.5 69t-66 46.5t-80 17z" />
    <glyph glyph-name="uni1ED6" unicode="&#x1ed6;" horiz-adv-x="869" 
d="M308 909q0 42 11 66t29 33t41 3.5t47 -23.5q18 -14 32 -22.5t23 -8t14 12.5t5 39h52q0 -42 -11 -66.5t-29 -33.5t-40.5 -3.5t-46.5 23.5q-18 14 -32 22.5t-23.5 8t-14.5 -12t-5 -38.5h-52zM371 777h-68l97 118h70l97 -118h-68l-64 79zM429 736q82 0 152 -29t121.5 -79.5
t81 -119.5t29.5 -149q0 -79 -29 -148t-80 -120t-120 -80t-149 -29q-83 0 -152.5 30t-120 81.5t-78.5 119.5t-28 143q0 80 29 149.5t79.5 120.5t118.5 80.5t146 29.5zM433 666q-59 0 -113.5 -22.5t-96.5 -63.5t-67 -98t-25 -126q0 -66 24.5 -122t66 -96.5t96 -63t115.5 -22.5
q63 0 118.5 23t97 63.5t65.5 97.5t24 124q0 68 -25.5 124.5t-67.5 97t-97 62.5t-115 22z" />
    <glyph glyph-name="uni1ED7" unicode="&#x1ed7;" 
d="M201 722q0 42 11 66t29 33t41 3.5t47 -23.5q18 -14 32 -22.5t23 -8t14 12.5t5 39h52q0 -42 -11 -66.5t-29 -33.5t-40.5 -3.5t-46.5 23.5q-18 14 -32 22.5t-23.5 8t-14.5 -12t-5 -38.5h-52zM264 590h-68l97 118h70l97 -118h-68l-64 79zM328 545q60 0 110.5 -22.5t87.5 -61
t58 -89.5t21 -108t-21 -107.5t-57.5 -88.5t-87.5 -60t-111 -22t-111 22t-87.5 60t-57.5 88.5t-21 107.5t21 108t58 89.5t87.5 61t110.5 22.5zM328 479q-43 0 -80.5 -17t-65.5 -46.5t-44.5 -69t-16.5 -83.5q0 -43 15.5 -81.5t43 -67.5t65.5 -45.5t83 -16.5t82.5 16.5
t65.5 45.5t43.5 67.5t15.5 81.5q0 44 -16.5 83.5t-44.5 69t-66 46.5t-80 17z" />
    <glyph glyph-name="uni1ED8" unicode="&#x1ed8;" horiz-adv-x="869" 
d="M371 777h-68l97 118h70l97 -118h-68l-64 79zM429 736q82 0 152 -29t121.5 -79.5t81 -119.5t29.5 -149q0 -79 -29 -148t-80 -120t-120 -80t-149 -29q-83 0 -152.5 30t-120 81.5t-78.5 119.5t-28 143q0 80 29 149.5t79.5 120.5t118.5 80.5t146 29.5zM433 666
q-59 0 -113.5 -22.5t-96.5 -63.5t-67 -98t-25 -126q0 -66 24.5 -122t66 -96.5t96 -63t115.5 -22.5q63 0 118.5 23t97 63.5t65.5 97.5t24 124q0 68 -25.5 124.5t-67.5 97t-97 62.5t-115 22zM435 -54q23 0 39.5 -17t16.5 -40t-16.5 -39.5t-39.5 -16.5t-40 16.5t-17 39.5t17 40
t40 17z" />
    <glyph glyph-name="uni1ED9" unicode="&#x1ed9;" 
d="M264 590h-68l97 118h70l97 -118h-68l-64 79zM328 545q60 0 110.5 -22.5t87.5 -61t58 -89.5t21 -108t-21 -107.5t-57.5 -88.5t-87.5 -60t-111 -22t-111 22t-87.5 60t-57.5 88.5t-21 107.5t21 108t58 89.5t87.5 61t110.5 22.5zM328 479q-43 0 -80.5 -17t-65.5 -46.5
t-44.5 -69t-16.5 -83.5q0 -43 15.5 -81.5t43 -67.5t65.5 -45.5t83 -16.5t82.5 16.5t65.5 45.5t43.5 67.5t15.5 81.5q0 44 -16.5 83.5t-44.5 69t-66 46.5t-80 17zM328 -54q23 0 39.5 -17t16.5 -40t-16.5 -39.5t-39.5 -16.5t-40 16.5t-17 39.5t17 40t40 17z" />
    <glyph glyph-name="uni1EDA" unicode="&#x1eda;" horiz-adv-x="869" 
d="M470 777h-58l73 118h73zM633 682q82 -50 131 -133.5t49 -189.5q0 -79 -29 -148t-80 -120t-120 -80t-149 -29q-83 0 -152.5 30t-120 81.5t-78.5 119.5t-28 143q0 80 29 149.5t79.5 120.5t118.5 80.5t146 29.5q64 0 121 -18q45 2 59.5 25t15.5 66h64q-2 -47 -14.5 -78.5
t-41.5 -48.5zM433 52q63 0 118.5 23t97 63.5t65.5 97.5t24 124q0 68 -25.5 124.5t-67.5 97t-97 62.5t-115 22q-59 0 -113.5 -22.5t-96.5 -63.5t-67 -98t-25 -126q0 -66 24.5 -122t66 -96.5t96 -63t115.5 -22.5z" />
    <glyph glyph-name="uni1EDB" unicode="&#x1edb;" 
d="M363 590h-58l73 118h73zM491 493q53 -39 83.5 -99t30.5 -130q0 -57 -21 -107.5t-57.5 -88.5t-87.5 -60t-111 -22t-111 22t-87.5 60t-57.5 88.5t-21 107.5t21 108t58 89.5t87.5 61t110.5 22.5q45 0 87 -14q42 3 56 26t15 65h64q-2 -48 -15.5 -80t-43.5 -49zM328 52
q45 0 82.5 16.5t65.5 45.5t43.5 67.5t15.5 81.5q0 44 -16.5 83.5t-44.5 69t-66 46.5t-80 17q-43 0 -80.5 -17t-65.5 -46.5t-44.5 -69t-16.5 -83.5q0 -43 15.5 -81.5t43 -67.5t65.5 -45.5t83 -16.5z" />
    <glyph glyph-name="uni1EDC" unicode="&#x1edc;" horiz-adv-x="869" 
d="M400 777l-88 118h73l73 -118h-58zM633 682q82 -50 131 -133.5t49 -189.5q0 -79 -29 -148t-80 -120t-120 -80t-149 -29q-83 0 -152.5 30t-120 81.5t-78.5 119.5t-28 143q0 80 29 149.5t79.5 120.5t118.5 80.5t146 29.5q64 0 121 -18q45 2 59.5 25t15.5 66h64
q-2 -47 -14.5 -78.5t-41.5 -48.5zM433 52q63 0 118.5 23t97 63.5t65.5 97.5t24 124q0 68 -25.5 124.5t-67.5 97t-97 62.5t-115 22q-59 0 -113.5 -22.5t-96.5 -63.5t-67 -98t-25 -126q0 -66 24.5 -122t66 -96.5t96 -63t115.5 -22.5z" />
    <glyph glyph-name="uni1EDD" unicode="&#x1edd;" 
d="M293 590l-88 118h73l73 -118h-58zM491 493q53 -39 83.5 -99t30.5 -130q0 -57 -21 -107.5t-57.5 -88.5t-87.5 -60t-111 -22t-111 22t-87.5 60t-57.5 88.5t-21 107.5t21 108t58 89.5t87.5 61t110.5 22.5q45 0 87 -14q42 3 56 26t15 65h64q-2 -48 -15.5 -80t-43.5 -49z
M328 52q45 0 82.5 16.5t65.5 45.5t43.5 67.5t15.5 81.5q0 44 -16.5 83.5t-44.5 69t-66 46.5t-80 17q-43 0 -80.5 -17t-65.5 -46.5t-44.5 -69t-16.5 -83.5q0 -43 15.5 -81.5t43 -67.5t65.5 -45.5t83 -16.5z" />
    <glyph glyph-name="uni1EDE" unicode="&#x1ede;" horiz-adv-x="869" 
d="M436 898q-14 0 -22 -11t-8 -31h-46q0 37 19.5 62.5t56.5 25.5q30 0 52 -19.5t22 -49.5q0 -17 -5 -29t-25 -29q-6 -5 -13 -15t-7 -20v-12h-47q-2 26 8 43t30 35q6 5 8.5 13t2.5 14q0 8 -6.5 15.5t-19.5 7.5zM633 682q82 -50 131 -133.5t49 -189.5q0 -79 -29 -148t-80 -120
t-120 -80t-149 -29q-83 0 -152.5 30t-120 81.5t-78.5 119.5t-28 143q0 80 29 149.5t79.5 120.5t118.5 80.5t146 29.5q64 0 121 -18q45 2 59.5 25t15.5 66h64q-2 -47 -14.5 -78.5t-41.5 -48.5zM433 52q63 0 118.5 23t97 63.5t65.5 97.5t24 124q0 68 -25.5 124.5t-67.5 97
t-97 62.5t-115 22q-59 0 -113.5 -22.5t-96.5 -63.5t-67 -98t-25 -126q0 -66 24.5 -122t66 -96.5t96 -63t115.5 -22.5z" />
    <glyph glyph-name="uni1EDF" unicode="&#x1edf;" 
d="M329 711q-14 0 -22 -11t-8 -31h-46q0 37 19.5 62.5t56.5 25.5q30 0 52 -19.5t22 -49.5q0 -17 -5 -29t-25 -29q-6 -5 -13 -15t-7 -20v-12h-47q-2 26 8 43t30 35q6 5 8.5 13t2.5 14q0 8 -6.5 15.5t-19.5 7.5zM491 493q53 -39 83.5 -99t30.5 -130q0 -57 -21 -107.5
t-57.5 -88.5t-87.5 -60t-111 -22t-111 22t-87.5 60t-57.5 88.5t-21 107.5t21 108t58 89.5t87.5 61t110.5 22.5q45 0 87 -14q42 3 56 26t15 65h64q-2 -48 -15.5 -80t-43.5 -49zM328 52q45 0 82.5 16.5t65.5 45.5t43.5 67.5t15.5 81.5q0 44 -16.5 83.5t-44.5 69t-66 46.5
t-80 17q-43 0 -80.5 -17t-65.5 -46.5t-44.5 -69t-16.5 -83.5q0 -43 15.5 -81.5t43 -67.5t65.5 -45.5t83 -16.5z" />
    <glyph glyph-name="uni1EE0" unicode="&#x1ee0;" horiz-adv-x="869" 
d="M435 807q-18 14 -32 22.5t-23.5 8t-14.5 -12t-5 -38.5h-52q0 42 11 66t29 33t41 3.5t47 -23.5q18 -14 32 -22.5t23 -8t14 12.5t5 39h52q0 -42 -11 -66.5t-29 -33.5t-40.5 -3.5t-46.5 23.5zM633 682q82 -50 131 -133.5t49 -189.5q0 -79 -29 -148t-80 -120t-120 -80
t-149 -29q-83 0 -152.5 30t-120 81.5t-78.5 119.5t-28 143q0 80 29 149.5t79.5 120.5t118.5 80.5t146 29.5q64 0 121 -18q45 2 59.5 25t15.5 66h64q-2 -47 -14.5 -78.5t-41.5 -48.5zM433 52q63 0 118.5 23t97 63.5t65.5 97.5t24 124q0 68 -25.5 124.5t-67.5 97t-97 62.5
t-115 22q-59 0 -113.5 -22.5t-96.5 -63.5t-67 -98t-25 -126q0 -66 24.5 -122t66 -96.5t96 -63t115.5 -22.5z" />
    <glyph glyph-name="uni1EE1" unicode="&#x1ee1;" 
d="M328 620q-18 14 -32 22.5t-23.5 8t-14.5 -12t-5 -38.5h-52q0 42 11 66t29 33t41 3.5t47 -23.5q18 -14 32 -22.5t23 -8t14 12.5t5 39h52q0 -42 -11 -66.5t-29 -33.5t-40.5 -3.5t-46.5 23.5zM491 493q53 -39 83.5 -99t30.5 -130q0 -57 -21 -107.5t-57.5 -88.5t-87.5 -60
t-111 -22t-111 22t-87.5 60t-57.5 88.5t-21 107.5t21 108t58 89.5t87.5 61t110.5 22.5q45 0 87 -14q42 3 56 26t15 65h64q-2 -48 -15.5 -80t-43.5 -49zM328 52q45 0 82.5 16.5t65.5 45.5t43.5 67.5t15.5 81.5q0 44 -16.5 83.5t-44.5 69t-66 46.5t-80 17q-43 0 -80.5 -17
t-65.5 -46.5t-44.5 -69t-16.5 -83.5q0 -43 15.5 -81.5t43 -67.5t65.5 -45.5t83 -16.5z" />
    <glyph glyph-name="uni1EE2" unicode="&#x1ee2;" horiz-adv-x="869" 
d="M633 682q82 -50 131 -133.5t49 -189.5q0 -79 -29 -148t-80 -120t-120 -80t-149 -29q-83 0 -152.5 30t-120 81.5t-78.5 119.5t-28 143q0 80 29 149.5t79.5 120.5t118.5 80.5t146 29.5q64 0 121 -18q45 2 59.5 25t15.5 66h64q-2 -47 -14.5 -78.5t-41.5 -48.5zM433 52
q63 0 118.5 23t97 63.5t65.5 97.5t24 124q0 68 -25.5 124.5t-67.5 97t-97 62.5t-115 22q-59 0 -113.5 -22.5t-96.5 -63.5t-67 -98t-25 -126q0 -66 24.5 -122t66 -96.5t96 -63t115.5 -22.5zM435 -54q23 0 39.5 -17t16.5 -40t-16.5 -39.5t-39.5 -16.5t-40 16.5t-17 39.5t17 40
t40 17z" />
    <glyph glyph-name="uni1EE3" unicode="&#x1ee3;" 
d="M491 493q53 -39 83.5 -99t30.5 -130q0 -57 -21 -107.5t-57.5 -88.5t-87.5 -60t-111 -22t-111 22t-87.5 60t-57.5 88.5t-21 107.5t21 108t58 89.5t87.5 61t110.5 22.5q45 0 87 -14q42 3 56 26t15 65h64q-2 -48 -15.5 -80t-43.5 -49zM328 52q45 0 82.5 16.5t65.5 45.5
t43.5 67.5t15.5 81.5q0 44 -16.5 83.5t-44.5 69t-66 46.5t-80 17q-43 0 -80.5 -17t-65.5 -46.5t-44.5 -69t-16.5 -83.5q0 -43 15.5 -81.5t43 -67.5t65.5 -45.5t83 -16.5zM328 -54q23 0 39.5 -17t16.5 -40t-16.5 -39.5t-39.5 -16.5t-40 16.5t-17 39.5t17 40t40 17z" />
    <glyph glyph-name="uni1EE4" unicode="&#x1ee4;" 
d="M566 718v-467q0 -128 -63.5 -198.5t-174.5 -70.5t-174.5 70.5t-63.5 198.5v467h72v-456q0 -42 4.5 -80t33.5 -73q45 -57 128 -57t128 57q29 35 33.5 73t4.5 80v456h72zM328 -54q23 0 39.5 -17t16.5 -40t-16.5 -39.5t-39.5 -16.5t-40 16.5t-17 39.5t17 40t40 17z" />
    <glyph glyph-name="uni1EE5" unicode="&#x1ee5;" horiz-adv-x="608" 
d="M534 531v-275q0 -135 -59 -202t-174 -67t-174.5 67t-59.5 202v275h72v-259q0 -42 2 -76t13 -58q19 -41 57.5 -63t89.5 -22q37 0 68 12.5t52 34.5q16 17 24.5 35t12 39t4 45.5t0.5 52.5v259h72zM304 -54q23 0 39.5 -17t16.5 -40t-16.5 -39.5t-39.5 -16.5t-40 16.5
t-17 39.5t17 40t40 17z" />
    <glyph glyph-name="uni1EE6" unicode="&#x1ee6;" 
d="M403 875q0 -17 -5 -29t-25 -29q-6 -5 -13 -15t-7 -20v-12h-47q-2 26 8 43t30 35q6 5 8.5 13t2.5 14q0 8 -6.5 15.5t-19.5 7.5q-14 0 -22 -11t-8 -31h-46q0 37 19.5 62.5t56.5 25.5q30 0 52 -19.5t22 -49.5zM566 718v-467q0 -128 -63.5 -198.5t-174.5 -70.5t-174.5 70.5
t-63.5 198.5v467h72v-456q0 -42 4.5 -80t33.5 -73q45 -57 128 -57t128 57q29 35 33.5 73t4.5 80v456h72z" />
    <glyph glyph-name="uni1EE7" unicode="&#x1ee7;" horiz-adv-x="608" 
d="M379 688q0 -17 -5 -29t-25 -29q-6 -5 -13 -15t-7 -20v-12h-47q-2 26 8 43t30 35q6 5 8.5 13t2.5 14q0 8 -6.5 15.5t-19.5 7.5q-14 0 -22 -11t-8 -31h-46q0 37 19.5 62.5t56.5 25.5q30 0 52 -19.5t22 -49.5zM534 531v-275q0 -135 -59 -202t-174 -67t-174.5 67t-59.5 202
v275h72v-259q0 -42 2 -76t13 -58q19 -41 57.5 -63t89.5 -22q37 0 68 12.5t52 34.5q16 17 24.5 35t12 39t4 45.5t0.5 52.5v259h72z" />
    <glyph glyph-name="uni1EE8" unicode="&#x1ee8;" 
d="M363 777h-58l73 118h73zM657 809q-2 -59 -22.5 -94.5t-68.5 -47.5v-416q0 -128 -63.5 -198.5t-174.5 -70.5t-174.5 70.5t-63.5 198.5v467h72v-456q0 -42 4.5 -80t33.5 -73q45 -57 128 -57t128 57q29 35 33.5 73t4.5 80v456h18q48 0 64 23t17 68h64z" />
    <glyph glyph-name="uni1EE9" unicode="&#x1ee9;" horiz-adv-x="608" 
d="M339 590h-58l73 118h73zM614 622q-2 -55 -20 -90t-60 -49v-227q0 -135 -59 -202t-174 -67t-174.5 67t-59.5 202v275h72v-259q0 -42 2 -76t13 -58q19 -41 57.5 -63t89.5 -22q37 0 68 12.5t52 34.5q16 17 24.5 35t12 39t4 45.5t0.5 52.5v259h7q48 0 64 23t17 68h64z" />
    <glyph glyph-name="uni1EEA" unicode="&#x1eea;" 
d="M293 777l-88 118h73l73 -118h-58zM657 809q-2 -59 -22.5 -94.5t-68.5 -47.5v-416q0 -128 -63.5 -198.5t-174.5 -70.5t-174.5 70.5t-63.5 198.5v467h72v-456q0 -42 4.5 -80t33.5 -73q45 -57 128 -57t128 57q29 35 33.5 73t4.5 80v456h18q48 0 64 23t17 68h64z" />
    <glyph glyph-name="uni1EEB" unicode="&#x1eeb;" horiz-adv-x="608" 
d="M269 590l-88 118h73l73 -118h-58zM614 622q-2 -55 -20 -90t-60 -49v-227q0 -135 -59 -202t-174 -67t-174.5 67t-59.5 202v275h72v-259q0 -42 2 -76t13 -58q19 -41 57.5 -63t89.5 -22q37 0 68 12.5t52 34.5q16 17 24.5 35t12 39t4 45.5t0.5 52.5v259h7q48 0 64 23t17 68
h64z" />
    <glyph glyph-name="uni1EEC" unicode="&#x1eec;" 
d="M329 898q-14 0 -22 -11t-8 -31h-46q0 37 19.5 62.5t56.5 25.5q30 0 52 -19.5t22 -49.5q0 -17 -5 -29t-25 -29q-6 -5 -13 -15t-7 -20v-12h-47q-2 26 8 43t30 35q6 5 8.5 13t2.5 14q0 8 -6.5 15.5t-19.5 7.5zM657 809q-2 -59 -22.5 -94.5t-68.5 -47.5v-416
q0 -128 -63.5 -198.5t-174.5 -70.5t-174.5 70.5t-63.5 198.5v467h72v-456q0 -42 4.5 -80t33.5 -73q45 -57 128 -57t128 57q29 35 33.5 73t4.5 80v456h18q48 0 64 23t17 68h64z" />
    <glyph glyph-name="uni1EED" unicode="&#x1eed;" horiz-adv-x="608" 
d="M305 711q-14 0 -22 -11t-8 -31h-46q0 37 19.5 62.5t56.5 25.5q30 0 52 -19.5t22 -49.5q0 -17 -5 -29t-25 -29q-6 -5 -13 -15t-7 -20v-12h-47q-2 26 8 43t30 35q6 5 8.5 13t2.5 14q0 8 -6.5 15.5t-19.5 7.5zM614 622q-2 -55 -20 -90t-60 -49v-227q0 -135 -59 -202
t-174 -67t-174.5 67t-59.5 202v275h72v-259q0 -42 2 -76t13 -58q19 -41 57.5 -63t89.5 -22q37 0 68 12.5t52 34.5q16 17 24.5 35t12 39t4 45.5t0.5 52.5v259h7q48 0 64 23t17 68h64z" />
    <glyph glyph-name="uni1EEE" unicode="&#x1eee;" 
d="M328 807q-18 14 -32 22.5t-23.5 8t-14.5 -12t-5 -38.5h-52q0 42 11 66t29 33t41 3.5t47 -23.5q18 -14 32 -22.5t23 -8t14 12.5t5 39h52q0 -42 -11 -66.5t-29 -33.5t-40.5 -3.5t-46.5 23.5zM657 809q-2 -59 -22.5 -94.5t-68.5 -47.5v-416q0 -128 -63.5 -198.5
t-174.5 -70.5t-174.5 70.5t-63.5 198.5v467h72v-456q0 -42 4.5 -80t33.5 -73q45 -57 128 -57t128 57q29 35 33.5 73t4.5 80v456h18q48 0 64 23t17 68h64z" />
    <glyph glyph-name="uni1EEF" unicode="&#x1eef;" horiz-adv-x="608" 
d="M304 620q-18 14 -32 22.5t-23.5 8t-14.5 -12t-5 -38.5h-52q0 42 11 66t29 33t41 3.5t47 -23.5q18 -14 32 -22.5t23 -8t14 12.5t5 39h52q0 -42 -11 -66.5t-29 -33.5t-40.5 -3.5t-46.5 23.5zM614 622q-2 -55 -20 -90t-60 -49v-227q0 -135 -59 -202t-174 -67t-174.5 67
t-59.5 202v275h72v-259q0 -42 2 -76t13 -58q19 -41 57.5 -63t89.5 -22q37 0 68 12.5t52 34.5q16 17 24.5 35t12 39t4 45.5t0.5 52.5v259h7q48 0 64 23t17 68h64z" />
    <glyph glyph-name="uni1EF0" unicode="&#x1ef0;" 
d="M657 809q-2 -59 -22.5 -94.5t-68.5 -47.5v-416q0 -128 -63.5 -198.5t-174.5 -70.5t-174.5 70.5t-63.5 198.5v467h72v-456q0 -42 4.5 -80t33.5 -73q45 -57 128 -57t128 57q29 35 33.5 73t4.5 80v456h18q48 0 64 23t17 68h64zM328 -54q23 0 39.5 -17t16.5 -40t-16.5 -39.5
t-39.5 -16.5t-40 16.5t-17 39.5t17 40t40 17z" />
    <glyph glyph-name="uni1EF1" unicode="&#x1ef1;" horiz-adv-x="608" 
d="M614 622q-2 -55 -20 -90t-60 -49v-227q0 -135 -59 -202t-174 -67t-174.5 67t-59.5 202v275h72v-259q0 -42 2 -76t13 -58q19 -41 57.5 -63t89.5 -22q37 0 68 12.5t52 34.5q16 17 24.5 35t12 39t4 45.5t0.5 52.5v259h7q48 0 64 23t17 68h64zM304 -54q23 0 39.5 -17
t16.5 -40t-16.5 -39.5t-39.5 -16.5t-40 16.5t-17 39.5t17 40t40 17z" />
    <glyph glyph-name="Ygrave" unicode="&#x1ef2;" horiz-adv-x="592" 
d="M261 777h58l-73 118h-73zM31 718h83l184 -296l181 296h83l-228 -375v-343h-72v343z" />
    <glyph glyph-name="ygrave" unicode="&#x1ef3;" horiz-adv-x="536" 
d="M233 590h58l-73 118h-73zM91 531l183 -409l177 409h73l-317 -725h-72l102 234l-218 491h72z" />
    <glyph glyph-name="uni1EF4" unicode="&#x1ef4;" horiz-adv-x="592" 
d="M31 718h83l184 -296l181 296h83l-228 -375v-343h-72v343zM296 -54q23 0 39.5 -17t16.5 -40t-16.5 -39.5t-39.5 -16.5t-40 16.5t-17 39.5t17 40t40 17z" />
    <glyph glyph-name="uni1EF5" unicode="&#x1ef5;" horiz-adv-x="536" 
d="M91 531l183 -409l177 409h73l-317 -725h-72l102 234l-218 491h72zM374 -54q23 0 39.5 -17t16.5 -40t-16.5 -39.5t-39.5 -16.5t-40 16.5t-17 39.5t17 40t40 17z" />
    <glyph glyph-name="uni1EF6" unicode="&#x1ef6;" horiz-adv-x="592" 
d="M371 875q0 -17 -5 -29t-25 -29q-6 -5 -13 -15t-7 -20v-12h-47q-2 26 8 43t30 35q6 5 8.5 13t2.5 14q0 8 -6.5 15.5t-19.5 7.5q-14 0 -22 -11t-8 -31h-46q0 37 19.5 62.5t56.5 25.5q30 0 52 -19.5t22 -49.5zM31 718h83l184 -296l181 296h83l-228 -375v-343h-72v343z" />
    <glyph glyph-name="uni1EF7" unicode="&#x1ef7;" horiz-adv-x="536" 
d="M343 688q0 -17 -5 -29t-25 -29q-6 -5 -13 -15t-7 -20v-12h-47q-2 26 8 43t30 35q6 5 8.5 13t2.5 14q0 8 -6.5 15.5t-19.5 7.5q-14 0 -22 -11t-8 -31h-46q0 37 19.5 62.5t56.5 25.5q30 0 52 -19.5t22 -49.5zM91 531l183 -409l177 409h73l-317 -725h-72l102 234l-218 491
h72z" />
    <glyph glyph-name="uni1EF8" unicode="&#x1ef8;" horiz-adv-x="592" 
d="M169 787q0 42 11 66t29 33t41 3.5t47 -23.5q18 -14 32 -22.5t23 -8t14 12.5t5 39h52q0 -42 -11 -66.5t-29 -33.5t-40.5 -3.5t-46.5 23.5q-18 14 -32 22.5t-23.5 8t-14.5 -12t-5 -38.5h-52zM31 718h83l184 -296l181 296h83l-228 -375v-343h-72v343z" />
    <glyph glyph-name="uni1EF9" unicode="&#x1ef9;" horiz-adv-x="536" 
d="M141 600q0 42 11 66t29 33t41 3.5t47 -23.5q18 -14 32 -22.5t23 -8t14 12.5t5 39h52q0 -42 -11 -66.5t-29 -33.5t-40.5 -3.5t-46.5 23.5q-18 14 -32 22.5t-23.5 8t-14.5 -12t-5 -38.5h-52zM91 531l183 -409l177 409h73l-317 -725h-72l102 234l-218 491h72z" />
    <glyph glyph-name="endash" unicode="&#x2013;" horiz-adv-x="500" 
d="M506 311v-63h-512v63h512z" />
    <glyph glyph-name="emdash" unicode="&#x2014;" horiz-adv-x="1000" 
d="M1006 311v-63h-1012v63h1012z" />
    <glyph glyph-name="quoteleft" unicode="&#x2018;" horiz-adv-x="351" 
d="M140 563q0 30 3 53.5t8 43.5t13 38t18 38l37 -21q-12 -24 -21 -47.5t-13 -65.5h43v-134h-88v95z" />
    <glyph glyph-name="quoteright" unicode="&#x2019;" horiz-adv-x="351" 
d="M211 642q0 -28 -2.5 -51t-7.5 -43t-12.5 -39.5t-18.5 -40.5l-38 22q11 23 20.5 46t13.5 66h-43v134h88v-94z" />
    <glyph glyph-name="quotesinglbase" unicode="&#x201a;" horiz-adv-x="354" 
d="M213 40q0 -28 -2.5 -51t-7.5 -43t-12.5 -39.5t-18.5 -40.5l-38 21q11 23 20 46.5t14 66.5h-43v134h88v-94z" />
    <glyph glyph-name="quotedblleft" unicode="&#x201c;" horiz-adv-x="502" 
d="M100 563q0 30 3 53.5t8 43.5t13 38t18 38l37 -21q-12 -24 -21 -47.5t-13 -65.5h43v-134h-88v95zM318 563q0 30 3 53.5t8 43.5t12.5 38.5t17.5 37.5l38 -21q-11 -23 -20.5 -46t-14.5 -67h44v-134h-88v95z" />
    <glyph glyph-name="quotedblright" unicode="&#x201d;" horiz-adv-x="484" 
d="M176 642q0 -28 -2.5 -51t-7.5 -43t-12.5 -39.5t-18.5 -40.5l-38 22q11 23 20.5 46t13.5 66h-43v134h88v-94zM394 642q0 -28 -2.5 -51t-7.5 -43t-13 -39.5t-19 -40.5l-38 22q11 23 20.5 46.5t13.5 65.5h-42v134h88v-94z" />
    <glyph glyph-name="quotedblbase" unicode="&#x201e;" horiz-adv-x="502" 
d="M185 40q0 -29 -2.5 -52t-7.5 -43t-12.5 -39t-18.5 -40l-38 21q11 23 20 46t14 67h-43v134h88v-94zM403 40q0 -29 -2.5 -52t-8 -43t-13 -39t-18.5 -40l-38 21q11 23 20.5 47t13.5 66h-42v134h88v-94z" />
    <glyph glyph-name="dagger" unicode="&#x2020;" horiz-adv-x="553" 
d="M312 736l-12 -223l176 11v-73l-176 12l14 -616h-75l14 616l-176 -12v73l176 -11l-14 223h73z" />
    <glyph glyph-name="daggerdbl" unicode="&#x2021;" horiz-adv-x="553" 
d="M313 736l-12 -173l175 12v-72l-175 12l12 -223l-12 -221l175 10v-73l-175 14l12 -175h-73l13 175l-175 -14v73l175 -10l-13 221l13 223l-175 -12v72l175 -12l-13 173h73z" />
    <glyph glyph-name="bullet" unicode="&#x2022;" horiz-adv-x="606" 
d="M303 514q31 0 58 -12t47.5 -32t32.5 -47.5t12 -58.5t-11.5 -58t-32 -47.5t-47.5 -32.5t-59 -12q-31 0 -58.5 12t-48 32.5t-32 47.5t-11.5 58t12 58.5t32 47.5t47.5 32t58.5 12z" />
    <glyph glyph-name="ellipsis" unicode="&#x2026;" horiz-adv-x="1000" 
d="M167 108q24 0 42 -17.5t18 -43.5t-17.5 -43.5t-42.5 -17.5q-26 0 -43 18t-17 43t17.5 43t42.5 18zM501 108q24 0 42 -17.5t18 -43.5t-17.5 -43.5t-42.5 -17.5t-42.5 18t-17.5 43t17.5 43t42.5 18zM834 108q25 0 42.5 -17.5t17.5 -43.5t-17.5 -43.5t-42.5 -17.5
t-42.5 17.5t-17.5 43.5t18 43.5t42 17.5z" />
    <glyph glyph-name="perthousand" unicode="&#x2030;" horiz-adv-x="1174" 
d="M153 -50h-65l476 729q-51 -12 -103.5 -16.5t-109.5 -4.5l-19 1q14 -20 22 -41t8 -51q0 -31 -12 -61.5t-34.5 -54.5t-54 -38.5t-70.5 -14.5q-36 0 -67 13.5t-53 36.5t-34.5 53.5t-12.5 64.5q0 39 14.5 70t38.5 53.5t54 34.5t61 12q14 0 30.5 -3.5t39.5 -7.5t53.5 -7.5
t73.5 -3.5q81 0 136 12.5t93 23.5h58zM193 674q-22 0 -41.5 -8.5t-34 -23t-23 -34t-8.5 -41.5q0 -27 9.5 -47t24.5 -33.5t34 -20t39 -6.5t39.5 6.5t34.5 20t24 33.5t9 47q0 20 -9 39.5t-24 34.5t-34.5 24t-39.5 9zM416 148q0 42 14.5 74t38.5 53t54.5 31.5t61.5 10.5
q32 0 62.5 -10.5t54 -31.5t38 -53t14.5 -74q0 -32 -14.5 -62.5t-38 -54t-54 -38t-62.5 -14.5q-35 0 -65.5 13.5t-53.5 36.5t-36.5 53.5t-13.5 65.5zM806 148q0 42 14.5 74t38.5 53t54.5 31.5t61.5 10.5q32 0 62.5 -10.5t54 -31.5t38 -53t14.5 -74q0 -32 -14.5 -62.5t-38 -54
t-54 -38t-62.5 -14.5q-35 0 -65.5 13.5t-53.5 36.5t-36.5 53.5t-13.5 65.5zM692 148q0 25 -10.5 44.5t-27 33.5t-38 21.5t-42.5 7.5q-18 0 -35.5 -6t-31 -19t-21.5 -33t-8 -49q0 -22 8.5 -41.5t23 -33.5t34 -22.5t41.5 -8.5t41.5 8.5t34 22.5t23 33.5t8.5 41.5zM1082 148
q0 25 -10.5 44.5t-27 33.5t-38 21.5t-42.5 7.5q-18 0 -35.5 -6t-31 -19t-21.5 -33t-8 -49q0 -22 8.5 -41.5t23 -33.5t34 -22.5t41.5 -8.5t41.5 8.5t34 22.5t23 33.5t8.5 41.5z" />
    <glyph glyph-name="guilsinglleft" unicode="&#x2039;" horiz-adv-x="251" 
d="M108 265l109 -265h-72l-109 265l109 266h72z" />
    <glyph glyph-name="guilsinglright" unicode="&#x203a;" horiz-adv-x="251" 
d="M143 266l-109 265h72l109 -265l-109 -266h-72z" />
    <glyph glyph-name="fraction" unicode="&#x2044;" horiz-adv-x="166" 
d="M281 736h54l-451 -754h-54z" />
    <glyph glyph-name="Euro" unicode="&#x20ac;" horiz-adv-x="554" 
d="M96 471q37 123 139 194q101 71 233 71q16 0 35.5 -1.5t42.5 -5.5l-18 -69q-28 6 -59 6q-98 0 -177 -52q-80 -51 -116 -143h312l-18 -67h-311q-3 -22 -3 -47q0 -8 0.5 -17.5t1.5 -20.5h289l-18 -67h-256q32 -94 115 -149q81 -54 185 -54q30 0 68 8v-68q-31 -6 -73 -6
q-137 0 -237 71q-100 72 -136 198h-72l17 67h43q-1 14 -1.5 25t-0.5 19t0.5 18t1.5 23h-60l18 67h55z" />
    <glyph glyph-name="uni2113" unicode="&#x2113;" horiz-adv-x="494" 
d="M416 55q-10 -10 -23 -22t-29.5 -22.5t-36 -17t-42.5 -6.5q-26 0 -46 8.5t-34 22.5q-17 19 -26 48.5t-9 66.5v121q-16 -17 -30.5 -33.5t-30.5 -33.5q-8 9 -15.5 17.5t-15.5 17.5q23 26 46 51t46 51v235q0 85 31 127t85 42q26 0 44 -10t29 -25.5t16 -33.5t5 -34
q0 -72 -32 -135.5t-80 -128.5q-8 -9 -17.5 -21.5t-16.5 -20.5v-188q0 -49 18 -70t46 -21t50.5 17t39.5 36q7 -10 14 -19t14 -19zM327 618q0 22 -9 39.5t-30 17.5q-25 0 -39.5 -25.5t-14.5 -90.5v-165q5 6 11 14.5t11 15.5q32 48 51.5 98.5t19.5 95.5z" />
    <glyph glyph-name="trademark" unicode="&#x2122;" horiz-adv-x="1000" 
d="M376 672h-149v-354h-72v354h-149v67h370v-67zM960 318h-72v347l-158 -347h-48l-152 347v-347h-72v421h118l130 -292l138 292h116v-421z" />
    <glyph glyph-name="uni2126" unicode="&#x2126;" horiz-adv-x="712" 
d="M436 57q23 20 50.5 48t50.5 67t38.5 89.5t15.5 115.5q0 59 -15 109t-44.5 87.5t-72.5 58.5t-100 21q-53 0 -97 -20.5t-75.5 -57t-48.5 -87.5t-17 -111q0 -63 15 -113t37.5 -89t50.5 -68t53 -50v-57h-225v57h156q-24 19 -52 48t-51 69.5t-38.5 92.5t-15.5 118
q0 70 22.5 130t63 103.5t97.5 68.5t125 25q72 0 128 -24t95 -67t59 -102.5t20 -131.5q0 -60 -14.5 -110.5t-37 -92t-51 -73.5t-55.5 -54h158v-57h-225v57z" />
    <glyph glyph-name="estimated" unicode="&#x212e;" horiz-adv-x="662" 
d="M166 92q68 -66 162 -66q78 0 129 36t89 98q9 -5 18 -11t19 -11q-23 -34 -48 -62t-55.5 -47.5t-67.5 -30t-84 -10.5q-66 0 -119 24t-90.5 66t-58 98t-20.5 119q0 64 20 120t57 98t91 66t121 24q69 0 122.5 -24t90.5 -66t57.5 -98t21.5 -120h-455v-203zM492 498
q-32 32 -74 50t-90 18t-89 -16.5t-73 -50.5v-166h326v165z" />
    <glyph glyph-name="uni2153" unicode="&#x2153;" horiz-adv-x="831" 
d="M589 736h55l-452 -754h-53zM201 727v-369h-54v321h-73l36 48h91zM734 280q0 20 -20 35t-52 15t-49 -15.5t-28 -41.5h-55q14 54 48 79.5t84 25.5q28 0 51.5 -8t40.5 -21.5t26.5 -31t9.5 -37.5q0 -42 -44 -72q33 -16 50 -41t17 -54q0 -23 -10 -45t-29.5 -39t-47.5 -27.5
t-63 -10.5q-60 0 -98 29t-49 89h53q9 -33 30.5 -51.5t63.5 -18.5q45 0 70.5 21.5t25.5 49.5q0 35 -32.5 52t-91.5 19v46q99 5 99 53z" />
    <glyph glyph-name="uni2154" unicode="&#x2154;" horiz-adv-x="831" 
d="M196 516q36 32 56.5 55.5t20.5 50.5t-24.5 46.5t-61.5 19.5q-39 0 -64 -21t-29 -65h-52q0 32 12 56.5t32 42t46.5 26.5t56.5 9q31 0 56 -9t43 -24.5t28 -36t10 -43.5q0 -38 -23.5 -68t-62.5 -65l-93 -84h185v-48h-311zM624 736h55l-452 -754h-53zM734 280q0 20 -20 35
t-52 15t-49 -15.5t-28 -41.5h-55q14 54 48 79.5t84 25.5q28 0 51.5 -8t40.5 -21.5t26.5 -31t9.5 -37.5q0 -42 -44 -72q33 -16 50 -41t17 -54q0 -23 -10 -45t-29.5 -39t-47.5 -27.5t-63 -10.5q-60 0 -98 29t-49 89h53q9 -33 30.5 -51.5t63.5 -18.5q45 0 70.5 21.5t25.5 49.5
q0 35 -32.5 52t-91.5 19v46q99 5 99 53z" />
    <glyph glyph-name="oneeighth" unicode="&#x215b;" horiz-adv-x="831" 
d="M589 736h55l-452 -754h-53zM201 727v-369h-54v321h-73l36 48h91zM737 202q71 -33 71 -95q0 -23 -9.5 -44t-28 -37t-45.5 -25.5t-61 -9.5q-69 0 -107 35q-36 36 -36 78q0 63 74 98q-53 27 -53 78q0 20 10 37.5t27 31t39.5 21.5t48.5 8q53 0 87 -30q35 -30 35 -70
q0 -49 -52 -76zM734 280q0 22 -18.5 36t-50.5 14q-28 0 -48.5 -14t-20.5 -37t21.5 -39.5t48.5 -16.5q28 0 48 16.5t20 40.5zM754 107q0 30 -25 50t-62 20q-36 0 -63.5 -20t-27.5 -53t26 -49t63 -16q38 0 63.5 19t25.5 49z" />
    <glyph glyph-name="threeeighths" unicode="&#x215c;" horiz-adv-x="831" 
d="M30 631q26 105 132 105q52 0 90 -29t38 -70q0 -42 -44 -71q67 -31 67 -94q0 -49 -42 -87q-40 -36 -108 -36q-125 0 -147 118h53q16 -70 95 -70q45 0 70 21.5t25 49.5q0 14 -5.5 26.5t-20 22t-38.5 16t-60 6.5v46q43 0 71 14t28 39q0 20 -20.5 35t-50.5 15q-56 0 -79 -57
h-54zM614 736h54l-451 -754h-54zM737 202q71 -33 71 -95q0 -23 -9.5 -44t-28 -37t-45.5 -25.5t-61 -9.5q-68 0 -105 34q-38 35 -38 79q0 64 73 98q-52 27 -52 78q0 20 10 37.5t27 31t39.5 21.5t48.5 8q53 0 87 -30t34 -70q0 -49 -51 -76zM734 280q0 22 -18.5 36t-50.5 14
q-29 0 -49 -14t-20 -37t21.5 -39.5t48.5 -16.5q28 0 48 16.5t20 40.5zM754 107q0 30 -25 50t-62 20q-36 0 -64 -20t-28 -53t26.5 -49t63.5 -16q38 0 63.5 19t25.5 49z" />
    <glyph glyph-name="fiveeighths" unicode="&#x215d;" horiz-adv-x="831" 
d="M614 736h54l-451 -754h-54zM299 680h-153l-18 -84q11 2 21.5 3.5t21.5 1.5q32 0 57.5 -9.5t43.5 -26t28 -38.5t10 -48q0 -53 -42 -92q-41 -38 -111 -38q-60 0 -96 30.5t-40 72.5h55q13 -55 83 -55q39 0 67.5 24t28.5 60q0 32 -25.5 52t-68.5 20q-39 0 -98 -15l41 189h195
v-47zM737 202q71 -33 71 -95q0 -23 -9.5 -44t-28 -37t-45.5 -25.5t-61 -9.5q-70 0 -107 35q-36 36 -36 78q0 64 73 98q-52 27 -52 78q0 20 10 37.5t27 31t39.5 21.5t48.5 8q52 0 86 -30q35 -29 35 -70q0 -49 -51 -76zM734 280q0 22 -18.5 36t-50.5 14q-29 0 -49 -14t-20 -37
t21.5 -39.5t48.5 -16.5q28 0 48 16.5t20 40.5zM754 107q0 30 -25 50t-62 20q-36 0 -64 -20t-28 -53t26.5 -49t63.5 -16q38 0 63.5 19t25.5 49z" />
    <glyph glyph-name="seveneighths" unicode="&#x215e;" horiz-adv-x="831" 
d="M577 736h54l-451 -754h-54zM322 727l-232 -378l-44 20l189 311h-195v47h282zM737 202q71 -33 71 -95q0 -23 -9.5 -44t-28 -37t-45.5 -25.5t-61 -9.5q-69 0 -107 35q-36 36 -36 78q0 63 74 98q-53 27 -53 78q0 20 10 37.5t27 31t39.5 21.5t48.5 8q52 0 86 -30
q36 -28 36 -70q0 -49 -52 -76zM734 280q0 22 -18.5 36t-50.5 14q-28 0 -48.5 -14t-20.5 -37t21.5 -39.5t48.5 -16.5q28 0 48 16.5t20 40.5zM754 107q0 30 -25.5 50t-61.5 20t-64 -20t-28 -53t26.5 -49t63.5 -16q38 0 63.5 19t25.5 49z" />
    <glyph glyph-name="partialdiff" unicode="&#x2202;" horiz-adv-x="577" 
d="M527 490q0 -44 -6.5 -93.5t-19.5 -100.5q-14 -54 -38 -109t-58.5 -98.5t-80 -71t-101.5 -27.5q-39 0 -70.5 13t-54.5 37.5t-35.5 59t-12.5 76.5q0 73 23 132.5t60.5 102t85.5 65.5t97 23q54 0 88.5 -23.5t49.5 -52.5h2q2 16 3 33.5t1 39.5q0 88 -37.5 132t-104.5 44
q-23 0 -49 -7t-48 -20l-18 49q18 11 52 21.5t71 10.5q90 0 145.5 -60t55.5 -176zM445 354q-11 38 -41.5 65t-83.5 27q-40 0 -77 -21t-65 -58t-44.5 -86.5t-16.5 -106.5q0 -60 30 -95t78 -35q38 0 72 22t62.5 62.5t50.5 98t35 127.5z" />
    <glyph glyph-name="uni2206" unicode="&#x2206;" horiz-adv-x="610" 
d="M22 35q62 168 122.5 332.5t121.5 332.5h80q60 -168 120.5 -332.5t120.5 -332.5v-35h-565v35zM321 575q-6 17 -9 30.5t-7 24.5h-3q-2 -11 -6 -25.5t-9 -28.5q-47 -131 -93.5 -259t-93.5 -259h407z" />
    <glyph glyph-name="product" unicode="&#x220f;" horiz-adv-x="721" 
d="M565 641h-409v-871h-68v930h545v-930h-68v871z" />
    <glyph glyph-name="summation" unicode="&#x2211;" horiz-adv-x="632" 
d="M28 -200q85 111 169.5 219.5t170.5 219.5q-80 107 -158 213t-158 212v36h527v-57h-436q75 -101 149.5 -201t149.5 -202q-80 -104 -159.5 -206.5t-159.5 -206.5h481v-57h-576v30z" />
    <glyph glyph-name="minus" unicode="&#x2212;" horiz-adv-x="606" 
d="M550 393v-67h-494v67h494z" />
    <glyph glyph-name="uni2215" unicode="&#x2215;" horiz-adv-x="166" 
d="M281 736h54l-451 -754h-54z" />
    <glyph glyph-name="uni2219" unicode="&#x2219;" horiz-adv-x="277" 
d="M138 421q24 0 42 -18t18 -44t-17.5 -43t-42.5 -17q-26 0 -43 17.5t-17 42.5t17.5 43.5t42.5 18.5z" />
    <glyph glyph-name="radical" unicode="&#x221a;" horiz-adv-x="515" 
d="M494 728q-50 -186 -98.5 -370t-99.5 -370h-56q-35 88 -70.5 174t-71.5 174q-29 -16 -55 -32l-23 42q28 16 55.5 32t54.5 33q35 -84 68.5 -166.5t68.5 -166.5q44 163 86.5 325t86.5 325h54z" />
    <glyph glyph-name="infinity" unicode="&#x221e;" horiz-adv-x="785" 
d="M733 294q0 -33 -11 -62.5t-31.5 -51.5t-49.5 -35t-66 -13q-61 0 -107 33.5t-75 80.5h-2q-32 -48 -78 -81t-101 -33q-37 0 -66.5 12t-50.5 33t-32.5 50t-11.5 63q0 35 11 64.5t32 51t50 33.5t65 12q33 0 60.5 -10t50 -25.5t40.5 -36t31 -41.5h2q12 19 29.5 39t40 36.5
t49.5 27t59 10.5q35 0 65 -11t51.5 -31.5t33.5 -49.5t12 -65zM364 292q-29 48 -69 77.5t-82 29.5q-53 0 -78 -32.5t-25 -76.5q0 -47 29 -76.5t74 -29.5q48 0 85.5 32t65.5 76zM673 293q0 43 -25 74.5t-78 31.5q-48 0 -84 -30t-66 -77q30 -51 68.5 -79t80.5 -28q27 0 47 9
t32.5 24t18.5 34.5t6 40.5z" />
    <glyph glyph-name="integral" unicode="&#x222b;" horiz-adv-x="492" 
d="M411 684q-7 3 -19.5 6t-26.5 3q-43 0 -64.5 -26.5t-21.5 -75.5v-657q0 -76 -39 -118t-108 -42q-17 0 -36.5 3t-30.5 8l14 53q9 -4 20.5 -6.5t26.5 -2.5q43 0 64.5 26t21.5 76v658q0 74 38.5 117t109.5 43q19 0 38.5 -4t27.5 -9z" />
    <glyph glyph-name="approxequal" unicode="&#x2248;" horiz-adv-x="606" 
d="M531 420q-23 -35 -54 -59t-76 -24q-28 0 -54.5 8.5t-50.5 23.5q-20 13 -42.5 22.5t-45.5 9.5q-27 0 -49.5 -19.5t-37.5 -45.5l-45 50q23 34 53 58.5t78 24.5q29 0 54.5 -8.5t48.5 -22.5q24 -15 45 -24t44 -9q26 0 48.5 19t38.5 46zM531 203q-23 -35 -54 -59t-76 -24
q-28 0 -54.5 8.5t-50.5 23.5q-20 13 -42.5 22.5t-45.5 9.5q-27 0 -49.5 -19.5t-37.5 -45.5l-45 51q23 34 53 58t78 24q29 0 54.5 -8.5t48.5 -22.5q24 -15 45 -24t44 -9q26 0 48.5 19t38.5 46z" />
    <glyph glyph-name="notequal" unicode="&#x2260;" horiz-adv-x="606" 
d="M213 26h-73l59 126h-105v68h137l69 150h-206v68h238l61 131h72l-61 -131h109v-68h-141l-70 -150h211v-68h-242z" />
    <glyph glyph-name="lessequal" unicode="&#x2264;" horiz-adv-x="606" 
d="M94 379l419 194v-74l-321 -144v-2l321 -145v-73l-419 194v50zM94 68h419v-68h-419v68z" />
    <glyph glyph-name="greaterequal" unicode="&#x2265;" horiz-adv-x="606" 
d="M94 209l321 144v2l-321 145v73l419 -193v-51l-419 -194v74zM94 68h418v-68h-418v68z" />
    <glyph glyph-name="lozenge" unicode="&#x25ca;" horiz-adv-x="561" 
d="M505 350q-51 -88 -102.5 -175t-103.5 -175h-37q-51 88 -102.5 174.5t-103.5 174.5q52 88 103.5 175.5t102.5 175.5h37q52 -88 103.5 -175t102.5 -175zM445 350q-42 69 -82.5 138.5t-81.5 139.5q-42 -70 -82.5 -139.5t-82.5 -138.5l164 -278q42 70 82.5 139t82.5 139z" />
    <glyph glyph-name="uniE000" unicode="&#xe000;" horiz-adv-x="155" 
d="M48 527q26 52 29 95h-37v114h75v-71q0 -54 -7 -83q-6 -32 -28 -74z" />
    <glyph glyph-name="uniE001" unicode="&#xe001;" horiz-adv-x="235" 
d="M53 527l84 139l40 -15l-69 -147z" />
    <glyph glyph-name="zero.denominator" unicode="&#xf655;" horiz-adv-x="332" 
d="M12 185q0 20 1.5 39t6.5 37q14 56 52.5 86.5t92.5 30.5q43 0 77.5 -20.5t54.5 -57.5q14 -26 18.5 -54t4.5 -61q0 -32 -4.5 -60.5t-18.5 -54.5q-20 -38 -54.5 -58.5t-77.5 -20.5q-38 0 -68.5 15t-50.5 44h1q-20 26 -27.5 59.5t-7.5 75.5zM69 184q0 -35 4.5 -62t18.5 -46
q13 -18 32.5 -27t40.5 -9q44 0 71.5 34.5t27.5 109.5t-27 111t-72 36q-22 0 -41 -10.5t-32 -28.5q-14 -19 -18.5 -46t-4.5 -62z" />
    <glyph glyph-name="one.denominator" unicode="&#xf656;" horiz-adv-x="332" 
d="M201 369v-369h-54v321h-73l35 48h92z" />
    <glyph glyph-name="two.denominator" unicode="&#xf657;" horiz-adv-x="332" 
d="M178 158q36 32 56.5 55.5t20.5 50.5t-24.5 46.5t-61.5 19.5q-39 0 -64 -21t-29 -65h-52q0 32 12 56.5t32 42t46.5 26.5t56.5 9q31 0 56 -9t43 -24.5t28 -36t10 -43.5q0 -38 -23.5 -68t-62.5 -65l-93 -84h185v-48h-311z" />
    <glyph glyph-name="three.denominator" unicode="&#xf658;" horiz-adv-x="332" 
d="M234 280q0 20 -20 35t-52 15t-49 -15.5t-28 -41.5h-55q14 54 48 79.5t84 25.5q28 0 51.5 -8t40.5 -21.5t26.5 -31t9.5 -37.5q0 -42 -44 -72q33 -16 50 -41t17 -54q0 -23 -10 -45t-29.5 -39t-47.5 -27.5t-63 -10.5q-60 0 -98 29t-49 89h53q9 -33 30.5 -51.5t63.5 -18.5
q45 0 70.5 21.5t25.5 49.5q0 35 -32.5 52t-91.5 19v46q99 5 99 53z" />
    <glyph glyph-name="four.denominator" unicode="&#xf659;" horiz-adv-x="332" 
d="M275 131h51v-48h-51v-83h-54v83h-211l265 305v-257zM221 251l-105 -120h105v120z" />
    <glyph glyph-name="five.denominator" unicode="&#xf65a;" horiz-adv-x="332" 
d="M299 322h-153l-18 -84q11 2 21.5 3.5t21.5 1.5q32 0 57.5 -9.5t43.5 -26t28 -38.5t10 -48q0 -53 -42 -92q-41 -38 -111 -38q-60 0 -96 30.5t-40 72.5h55q13 -55 83 -55q39 0 67.5 24t28.5 60q0 32 -25.5 52t-68.5 20q-39 0 -98 -15l41 189h195v-47z" />
    <glyph glyph-name="six.denominator" unicode="&#xf65b;" horiz-adv-x="332" 
d="M261 358l-107 -136q4 1 10.5 1h11.5q29 0 53 -9t41.5 -24.5t27 -36.5t9.5 -44q0 -27 -12 -49t-31.5 -37t-45.5 -23.5t-54 -8.5q-31 0 -56.5 9.5t-43.5 26t-28 37.5t-10 43q0 28 13.5 54.5t36.5 55.5l136 167zM166 177q-34 0 -58.5 -19.5t-24.5 -48.5q0 -28 24.5 -47.5
t58.5 -19.5q35 0 59 19.5t24 47.5q0 29 -24 48.5t-59 19.5z" />
    <glyph glyph-name="seven.denominator" unicode="&#xf65c;" horiz-adv-x="332" 
d="M322 369l-231 -378l-45 20l189 311h-195v47h282z" />
    <glyph glyph-name="eight.denominator" unicode="&#xf65d;" horiz-adv-x="332" 
d="M239 202q71 -33 71 -95q0 -23 -9.5 -44t-28 -37t-45.5 -25.5t-61 -9.5q-69 0 -107 35q-36 36 -36 78q0 63 74 98q-53 27 -53 78q0 20 10 37.5t27 31t40 21.5t49 8q52 0 86 -30q35 -30 35 -70q0 -49 -52 -76zM236 280q0 22 -18.5 36t-50.5 14q-28 0 -48.5 -14t-20.5 -37
t21.5 -39.5t48.5 -16.5q28 0 48 16.5t20 40.5zM256 107q0 30 -25 50t-62 20q-36 0 -63.5 -20t-27.5 -53t26 -49t63 -16q38 0 63.5 19t25.5 49z" />
    <glyph glyph-name="nine.denominator" unicode="&#xf65e;" horiz-adv-x="332" 
d="M71 11l108 136q-5 -1 -10.5 -1.5t-12.5 -0.5q-29 0 -53 9.5t-41 25t-26.5 36.5t-9.5 44q0 27 11.5 48.5t31 37t45 24t53.5 8.5q31 0 56.5 -9.5t44 -25.5t28.5 -37t10 -44q0 -27 -13.5 -54.5t-36.5 -56.5l-135 -166zM166 193q35 0 59 19.5t24 47.5q0 29 -24 48.5t-59 19.5
t-59 -19.5t-24 -48.5q0 -28 24 -47.5t59 -19.5z" />
    <glyph glyph-name="zero.numerator" unicode="&#xf661;" horiz-adv-x="332" 
d="M10 541q0 20 1.5 39t6.5 38q14 56 53 87t94 31q43 0 78 -20.5t55 -58.5q14 -26 18.5 -54.5t4.5 -61.5q0 -32 -4.5 -61t-18.5 -55q-20 -38 -55 -59t-78 -21q-79 0 -121 59h1q-20 26 -27.5 60t-7.5 77zM68 540q0 -35 4.5 -62.5t18.5 -46.5q13 -18 32.5 -27.5t41.5 -9.5
q44 0 72 35.5t28 110.5t-27.5 111.5t-72.5 36.5q-23 0 -42 -10.5t-32 -28.5q-14 -19 -18.5 -46.5t-4.5 -62.5z" />
    <glyph glyph-name="one.numerator" unicode="&#xf662;" horiz-adv-x="332" 
d="M201 727v-369h-54v321h-73l35 48h92z" />
    <glyph glyph-name="two.numerator" unicode="&#xf663;" horiz-adv-x="332" 
d="M178 516q36 32 56.5 55.5t20.5 50.5t-24.5 46.5t-61.5 19.5q-39 0 -64 -21t-29 -65h-52q0 32 12 56.5t32 42t46.5 26.5t56.5 9q31 0 56 -9t43 -24.5t28 -36t10 -43.5q0 -38 -23.5 -68t-62.5 -65l-93 -84h185v-48h-311z" />
    <glyph glyph-name="three.numerator" unicode="&#xf664;" horiz-adv-x="332" 
d="M234 638q0 20 -20 35t-52 15t-49 -15.5t-28 -41.5h-55q14 54 48 79.5t84 25.5q28 0 51.5 -8t40.5 -21.5t26.5 -31t9.5 -37.5q0 -42 -44 -72q33 -16 50 -41t17 -54q0 -23 -10 -45t-29.5 -39t-47.5 -27.5t-63 -10.5q-60 0 -98 29t-49 89h53q9 -33 30.5 -51.5t63.5 -18.5
q45 0 70.5 21.5t25.5 49.5q0 35 -32.5 52t-91.5 19v46q99 5 99 53z" />
    <glyph glyph-name="four.numerator" unicode="&#xf665;" horiz-adv-x="332" 
d="M275 490h51v-48h-51v-83h-54v83h-211l265 305v-257zM221 610l-105 -120h105v120z" />
    <glyph glyph-name="five.numerator" unicode="&#xf666;" horiz-adv-x="332" 
d="M299 680h-153l-18 -84q11 2 21.5 3.5t21.5 1.5q32 0 57.5 -9.5t43.5 -26t28 -38.5t10 -48q0 -53 -42 -92q-41 -38 -111 -38q-60 0 -96 30.5t-40 72.5h55q13 -55 83 -55q39 0 67.5 24t28.5 60q0 32 -25.5 52t-68.5 20q-39 0 -98 -15l41 189h195v-47z" />
    <glyph glyph-name="six.numerator" unicode="&#xf667;" horiz-adv-x="332" 
d="M261 716l-107 -136q4 1 10.5 1h11.5q29 0 53 -9t41.5 -24.5t27 -36.5t9.5 -44q0 -27 -12 -49t-31.5 -37t-45.5 -23.5t-54 -8.5q-31 0 -56.5 9.5t-43.5 26t-28 37.5t-10 43q0 28 13.5 54.5t36.5 55.5l136 167zM166 535q-34 0 -58.5 -19.5t-24.5 -48.5q0 -28 24.5 -47.5
t58.5 -19.5q35 0 59 19.5t24 47.5q0 29 -24 48.5t-59 19.5z" />
    <glyph glyph-name="seven.numerator" unicode="&#xf668;" horiz-adv-x="332" 
d="M322 727l-231 -378l-45 20l189 311h-195v47h282z" />
    <glyph glyph-name="eight.numerator" unicode="&#xf669;" horiz-adv-x="332" 
d="M239 560q71 -33 71 -95q0 -23 -9.5 -44t-28 -37t-45.5 -25.5t-61 -9.5q-69 0 -107 35q-36 36 -36 78q0 63 74 98q-53 27 -53 78q0 20 10 37.5t27 31t39.5 21.5t48.5 8q53 0 87 -30q35 -30 35 -70q0 -49 -52 -76zM236 638q0 22 -18.5 36t-50.5 14q-28 0 -48.5 -14
t-20.5 -37t21.5 -39.5t48.5 -16.5q28 0 48 16.5t20 40.5zM256 465q0 30 -25 50t-62 20q-36 0 -63.5 -20t-27.5 -53t26 -49t63 -16q38 0 63.5 19t25.5 49z" />
    <glyph glyph-name="nine.numerator" unicode="&#xf66a;" horiz-adv-x="332" 
d="M71 369l108 136q-5 -1 -10.5 -1.5t-12.5 -0.5q-29 0 -53 9.5t-41 25t-26.5 36.5t-9.5 44q0 27 11.5 48.5t31 37t45 24t53.5 8.5q31 0 56.5 -9.5t44 -25.5t28.5 -37t10 -44q0 -27 -13.5 -54.5t-36.5 -56.5l-135 -166zM166 551q35 0 59 19.5t24 47.5q0 29 -24 48.5
t-59 19.5t-59 -19.5t-24 -48.5q0 -28 24 -47.5t59 -19.5z" />
    <glyph glyph-name="uniF6C3" unicode="&#xf6c3;" horiz-adv-x="0" 
d="M-192 -62q21 7 46 7q77 0 77 -53q0 -34 -30.5 -56t-81.5 -22q-16 0 -33.5 3t-37.5 8l11 35q31 -7 50 -7q64 0 64 32q0 21 -36 21q-14 0 -35 -7z" />
    <glyph glyph-name="uni03020300" horiz-adv-x="0" 
d="M-158 670h58l-73 118h-73zM-360 610h-68l97 118h70l97 -118h-68l-64 79z" />
    <glyph glyph-name="uni03020301" horiz-adv-x="0" 
d="M-173 777l-73 -118h58l88 118h-73zM-431 610h-68l97 118h70l97 -118h-68l-64 79z" />
    <glyph glyph-name="uni03020303" horiz-adv-x="0" 
d="M-359 742q0 42 11 66t29 33t41 3.5t47 -23.5q18 -14 32 -22.5t23 -8t14 12.5t5 39h52q0 -42 -11 -66.5t-29 -33.5t-40.5 -3.5t-46.5 23.5q-18 14 -32 22.5t-23.5 8t-14.5 -12t-5 -38.5h-52zM-296 610h-68l97 118h70l97 -118h-68l-64 79z" />
    <glyph glyph-name="uni03020309" horiz-adv-x="0" 
d="M-100 776q0 -17 -5 -29t-25 -29q-6 -5 -13 -15t-7 -20v-12h-47q-2 26 8 43t30 35q6 5 8.5 13t2.5 14q0 8 -6.5 15.5t-19.5 7.5q-14 0 -22 -11t-8 -31h-46q0 37 19.5 62.5t56.5 25.5q30 0 52 -19.5t22 -49.5zM-382 610h-68l97 118h70l97 -118h-68l-64 79z" />
    <glyph glyph-name="uni03060300" horiz-adv-x="0" 
d="M-255 724h58l-73 118h-73zM-227 602q-57 0 -92 30.5t-35 87.5h58q0 -35 17.5 -50t51.5 -15t51.5 15t17.5 50h58q0 -57 -34 -87.5t-93 -30.5z" />
    <glyph glyph-name="uni03060301" horiz-adv-x="0" 
d="M-187 844l-73 -118h58l88 118h-73zM-227 602q-57 0 -92 30.5t-35 87.5h58q0 -35 17.5 -50t51.5 -15t51.5 15t17.5 50h58q0 -57 -34 -87.5t-93 -30.5z" />
    <glyph glyph-name="uni03060303" horiz-adv-x="0" 
d="M-354 747q0 42 11 66t29 33t41 3.5t47 -23.5q18 -14 32 -22.5t23 -8t14 12.5t5 39h52q0 -42 -11 -66.5t-29 -33.5t-40.5 -3.5t-46.5 23.5q-18 14 -32 22.5t-23.5 8t-14.5 -12t-5 -38.5h-52zM-227 602q-57 0 -92 30.5t-35 87.5h58q0 -35 17.5 -50t51.5 -15t51.5 15
t17.5 50h58q0 -57 -34 -87.5t-93 -30.5z" />
    <glyph glyph-name="uni03060309" horiz-adv-x="0" 
d="M-152 824q0 -17 -5 -29t-25 -29q-6 -5 -13 -15t-7 -20v-12h-47q-2 26 8 43t30 35q6 5 8.5 13t2.5 14q0 8 -6.5 15.5t-19.5 7.5q-14 0 -22 -11t-8 -31h-46q0 37 19.5 62.5t56.5 25.5q30 0 52 -19.5t22 -49.5zM-227 602q-57 0 -92 30.5t-35 87.5h58q0 -35 17.5 -50
t51.5 -15t51.5 15t17.5 50h58q0 -57 -34 -87.5t-93 -30.5z" />
    </font>
</defs>
</svg>
