<?xml version="1.0" standalone="no"?>
<!DOCTYPE svg PUBLIC "-//W3C//DTD SVG 1.1//EN" "http://www.w3.org/Graphics/SVG/1.1/DTD/svg11.dtd" >
<svg xmlns="http://www.w3.org/2000/svg" xmlns:xlink="http://www.w3.org/1999/xlink" version="1.1">
<metadata>
Created by FontForge 20170731 at Sat Apr 24 13:45:18 2021
 By Aleksey,,,
Digitised data (c) Monotype Imaging. All rights reserved.
</metadata>
<defs>
<font id="SackersGothicStd-Light" horiz-adv-x="1820" >
  <font-face 
    font-family="Sackers Gothic Std Light"
    font-weight="300"
    font-stretch="normal"
    units-per-em="2048"
    panose-1="2 11 3 4 2 2 2 6 2 4"
    ascent="1556"
    descent="-492"
    x-height="1057"
    cap-height="1526"
    bbox="-358 -518 3475 2107"
    underline-thickness="102"
    underline-position="-307"
    unicode-range="U+0020-FB06"
  />
<missing-glyph horiz-adv-x="1024" 
d="M25 0v1362h972v-1362h-972zM180 1266l332 -498l330 498h-662zM123 1178v-992q0 -1 82.5 123t164.5 249l83 124zM901 1178l-332 -496l332 -498v994zM842 98l-330 496l-332 -496h662z" />
    <glyph glyph-name="fi" unicode="fi" horiz-adv-x="1966" 
d="M1663 0h-139v1057h139v-1057zM1161 918h-778v-300h481v-141h-481v-477h-137v1057h915v-139z" />
    <glyph glyph-name="fl" unicode="fl" horiz-adv-x="2445" 
d="M2349 0h-827v1057h137v-918h690v-139zM1161 918h-778v-300h481v-141h-481v-477h-137v1057h915v-139z" />
    <glyph glyph-name=".notdef" horiz-adv-x="1024" 
d="M25 0v1362h972v-1362h-972zM180 1266l332 -498l330 498h-662zM123 1178v-992q0 -1 82.5 123t164.5 249l83 124zM901 1178l-332 -496l332 -498v994zM842 98l-330 496l-332 -496h662z" />
    <glyph glyph-name=".null" horiz-adv-x="0" 
 />
    <glyph glyph-name="nonmarkingreturn" horiz-adv-x="682" 
 />
    <glyph glyph-name="space" unicode=" " horiz-adv-x="757" 
 />
    <glyph glyph-name="exclam" unicode="!" horiz-adv-x="681" 
d="M436 1530l-39 -1165h-108l-37 1165h184zM473 94q0 -54 -37.5 -91.5t-91.5 -37.5t-91.5 37.5t-37.5 91.5t37.5 92.5t91.5 38.5q55 0 92 -38t37 -93z" />
    <glyph glyph-name="quotedbl" unicode="&#x22;" horiz-adv-x="946" 
d="M733 1550l-45 -518h-92l-45 518h182zM395 1550l-45 -518h-92l-45 518h182z" />
    <glyph glyph-name="numbersign" unicode="#" horiz-adv-x="1376" 
d="M1339 971l-43 -117h-276l-109 -299h275l-43 -117h-277l-159 -440h-121l159 440h-331l-160 -440h-119l160 440h-277l43 117h277l111 299h-277l43 117h277l133 364h120l-133 -364h330l133 364h121l-133 -364h276zM899 854h-330l-112 -299h331z" />
    <glyph glyph-name="dollar" unicode="$" 
d="M1591 385q0 -85 -36 -154.5t-98 -116t-132.5 -76t-153.5 -46.5q-129 -25 -217 -25v-137h-110v137q-174 0 -357 58q-105 34 -176.5 81t-175.5 138l94 100q136 -127 282.5 -184.5t332.5 -57.5v529h-121q-86 0 -165 16t-153 51.5t-118.5 103t-44.5 159.5q0 72 30 136t81 110
t112 78.5t129 51.5q121 31 237 31h13v168h110v-168q161 0 290 -45.5t267 -144.5l-88 -111q-208 148 -469 164v-463h115q65 0 134.5 -13.5t139.5 -43.5t124.5 -73t89 -109t34.5 -144zM844 772v461q-47 -2 -90.5 -7.5t-98 -16.5t-98.5 -31t-82.5 -47.5t-60 -69.5t-21.5 -94
q0 -55 28 -95t76 -60.5t100.5 -30t111.5 -9.5h135zM1436 387q0 68 -35.5 118t-93 76t-117.5 38t-123 12h-113v-525q59 0 117.5 6t126.5 25t119 48.5t85 82t34 119.5z" />
    <glyph glyph-name="percent" unicode="%" horiz-adv-x="2465" 
d="M2349 395q0 -98 -43 -180t-114.5 -135t-160.5 -82t-184 -29t-184.5 29t-161 81.5t-115 135t-43.5 180.5t43.5 179.5t115 134t161 81.5t184.5 29q127 0 240 -49t187.5 -148t74.5 -227zM1896 1470l-1134 -1550h-166l1135 1550h165zM1118 944q0 -98 -43 -180t-114.5 -135
t-160.5 -82t-184 -29q-128 0 -241 48.5t-187.5 148t-74.5 229.5q0 98 43.5 179.5t114.5 134t160.5 81.5t184.5 29q127 0 240 -49t187.5 -148t74.5 -227zM2198 395q0 88 -51 156t-130.5 102.5t-169.5 34.5q-142 0 -246 -81t-104 -212q0 -132 104 -212.5t246 -80.5t246.5 80.5
t104.5 212.5zM967 944q0 88 -51 156t-130.5 102.5t-169.5 34.5t-169 -34.5t-130 -102.5t-51 -156q0 -132 104 -212.5t246 -80.5t245.5 80.5t103.5 212.5h2z" />
    <glyph glyph-name="ampersand" unicode="&#x26;" horiz-adv-x="1781" 
d="M1626 0h-196q-115 106 -152 143q-126 -92 -250 -137t-272 -45q-79 0 -159 15.5t-157.5 50t-137 84t-96 122.5t-36.5 160q0 71 24 132t63 104t95.5 79t113 59t124.5 42q-3 3 -21 21.5t-22 23t-20 21.5t-21 24t-17.5 23.5t-17.5 26.5l-13 26t-11 29t-6 29t-3 32
q0 62 29.5 114.5t76.5 87t106.5 58.5t118.5 34.5t114 10.5q126 0 206.5 -22t204.5 -84l-59 -125q-110 51 -182.5 69.5t-180.5 18.5q-38 0 -84.5 -8t-95.5 -25t-81.5 -50.5t-32.5 -76.5q0 -8 2 -16.5t4.5 -15.5t7.5 -16t8.5 -15t11.5 -15l12 -13.5t13.5 -14l12.5 -12.5
t13 -12.5t11 -10.5l606 -590q66 61 110.5 118.5t94.5 143.5l119 -76q-90 -148 -220 -286zM1174 246l-469 448q-40 -9 -70 -17t-74 -22.5t-75.5 -30t-66.5 -38.5t-57 -49.5t-36.5 -62t-14.5 -75.5q0 -78 45 -138.5t115.5 -93.5t145 -49t145.5 -16q122 0 217 34t195 110z" />
    <glyph glyph-name="quotesingle" unicode="'" horiz-adv-x="681" 
d="M442 1550l-45 -518h-92l-45 518h182z" />
    <glyph glyph-name="parenleft" unicode="(" horiz-adv-x="872" 
d="M711 1503q-54 -38 -115.5 -111t-119 -169.5t-95 -220.5t-37.5 -242q0 -112 36.5 -233t92 -219t114.5 -173t109 -115l-67 -61q-190 156 -311 369.5t-121 437.5q0 232 130 453t332 348z" />
    <glyph glyph-name="parenright" unicode=")" horiz-adv-x="872" 
d="M670 760q0 -232 -130.5 -453t-332.5 -348l-51 64q54 38 115.5 111t118.5 169.5t94.5 220t37.5 242.5q0 112 -36.5 233t-92 218.5t-114.5 172.5t-109 115l68 62q190 -156 311 -369.5t121 -437.5z" />
    <glyph glyph-name="asterisk" unicode="*" horiz-adv-x="1214" 
d="M954 1014l-45 -80l-250 141v-287h-92v287l-258 -145l-49 82l256 145l-252 143l45 80l256 -141v291h92v-291l248 143l49 -82l-254 -143z" />
    <glyph glyph-name="plus" unicode="+" 
d="M1382 414h-413v-414h-117v414h-414v116h414v414h117v-414h413v-116z" />
    <glyph glyph-name="comma" unicode="," horiz-adv-x="796" 
d="M606 0q0 -57 -13.5 -103.5t-41.5 -84t-54.5 -63t-68.5 -58.5q-36 -29 -49 -29q-11 0 -21 13t-10 26q0 11 37 33q48 33 85.5 85t37.5 101t-70 49q-53 0 -87 38.5t-34 94.5q0 44 36.5 75.5t82.5 31.5q75 0 122.5 -64t47.5 -145z" />
    <glyph glyph-name="hyphen" unicode="-" horiz-adv-x="1249" 
d="M963 453h-676v145h676v-145z" />
    <glyph glyph-name="period" unicode="." horiz-adv-x="757" 
d="M510 94q0 -53 -39 -91t-92 -38q-54 0 -92.5 37.5t-38.5 91.5t37.5 92.5t91.5 38.5q55 0 94 -38.5t39 -92.5z" />
    <glyph glyph-name="slash" unicode="/" horiz-adv-x="1290" 
d="M1143 1530l-912 -1571h-137l912 1571h137z" />
    <glyph glyph-name="zero" unicode="0" 
d="M1702 670q0 -164 -64 -299t-173.5 -222.5t-252 -134.5t-301.5 -47q-152 0 -293.5 47.5t-252.5 133.5t-177.5 218.5t-66.5 290.5q0 172 59 308.5t164.5 223.5t246.5 133t308 46q126 0 244 -29t219.5 -87.5t177 -140.5t119 -195.5t43.5 -245.5zM1561 672q0 111 -36.5 204
t-99 157.5t-148 109t-182 65.5t-202.5 21q-125 0 -238 -37.5t-201 -106t-140 -174.5t-52 -235q0 -109 34 -202t94 -159.5t141.5 -113t177 -69.5t200.5 -23q104 0 200 22.5t178.5 68.5t143 112t95.5 158.5t35 201.5z" />
    <glyph glyph-name="one" unicode="1" horiz-adv-x="1214" 
d="M676 0h-137v1339h137v-1339z" />
    <glyph glyph-name="two" unicode="2" 
d="M1530 0h-1229q-4 46 -4 66q0 127 37.5 244.5t106 211.5t174.5 155.5t235 74.5q52 5 156.5 15t156.5 15q96 10 159.5 59.5t63.5 139.5q0 58 -30.5 104t-76 73t-106 44.5t-113.5 24t-104 6.5q-158 0 -284.5 -35t-265.5 -115l-66 123q154 88 294.5 128t311.5 40
q78 0 154.5 -11t155.5 -39.5t138 -71.5t96.5 -112.5t37.5 -156.5q0 -80 -32.5 -145.5t-88 -107.5t-124.5 -67t-146 -30q-41 -3 -123 -8.5t-123 -8.5q-191 -13 -311.5 -146.5t-135.5 -328.5h1086v-141z" />
    <glyph glyph-name="three" unicode="3" 
d="M1630 379q0 -72 -28.5 -132t-74.5 -102t-110.5 -74t-131.5 -51.5t-142.5 -31.5t-137.5 -16.5t-122 -4.5q-193 0 -373 49q-91 25 -156 57.5t-151 92.5l73 119q141 -94 286 -136.5t319 -42.5q145 0 258 21q41 7 83 18t92 32t88 46.5t63.5 64.5t25.5 83q0 61 -35.5 109
t-88 75t-121 44.5t-126 23.5t-110.5 6h-183v143h183q61 0 122 9.5t125 32.5t104 70t40 113q0 35 -19 65.5t-47 52t-66 40t-69.5 29t-64.5 18.5q-102 21 -205 21q-146 0 -253.5 -30t-252.5 -103l-64 122q168 90 280 120t294 30q144 0 270 -33q50 -14 96 -33.5t90.5 -49
t77 -65t52.5 -83.5t20 -101q0 -168 -186 -286q123 -48 199.5 -130t76.5 -202z" />
    <glyph glyph-name="four" unicode="4" 
d="M1671 356h-340v-356h-139v356h-969l-69 160l1038 823h139v-839h340v-144zM1192 500v655l-823 -655h823z" />
    <glyph glyph-name="five" unicode="5" 
d="M1608 426q0 -80 -33.5 -150t-90.5 -120t-124 -85.5t-143 -58.5q-145 -45 -328 -45q-367 0 -672 193l78 112q178 -98 296.5 -132t309.5 -34q109 0 225 25q45 11 89 27t90.5 42t81 57t57 74.5t22.5 92.5q0 66 -34.5 119.5t-88 87t-121.5 56.5t-131 32.5t-120 9.5
q-155 0 -285.5 -40t-312.5 -124l-94 74v700h1218v-139h-1079v-457q179 70 293 97.5t272 27.5q148 0 270 -41q70 -23 131.5 -59.5t113 -86t81 -115.5t29.5 -140z" />
    <glyph glyph-name="six" unicode="6" 
d="M1657 408q0 -79 -40 -149t-105.5 -119.5t-136.5 -83.5t-146 -54q-126 -35 -275 -35q-125 0 -241 28t-217 85t-176.5 137t-118.5 192t-43 242q0 159 71 295.5t187 227t262.5 141.5t300.5 51q125 0 231 -26.5t183.5 -65.5t203.5 -117l-79 -110q-139 91 -261 135.5
t-268 44.5q-107 0 -207.5 -24.5t-188 -74t-153 -119t-104 -166t-39.5 -208.5q10 6 42 26t50 29q127 68 289 102.5t319 34.5q156 0 281 -34q74 -19 138.5 -51t120 -78.5t88 -112.5t32.5 -143zM1516 414q0 51 -29 95t-76.5 73.5t-94 49.5t-95.5 32q-116 26 -242 26
q-176 0 -344.5 -54t-308.5 -157q80 -191 244.5 -282t383.5 -91q118 0 232 27q53 14 105 36.5t105.5 56.5t86.5 83t33 105z" />
    <glyph glyph-name="seven" unicode="7" 
d="M1536 1219l-891 -1219h-174l879 1200h-1061v139h1169z" />
    <glyph glyph-name="eight" unicode="8" 
d="M1630 373q0 -73 -26 -133t-69 -101.5t-104 -73t-123.5 -49.5t-135.5 -29.5t-133.5 -15.5t-123.5 -4q-61 0 -121.5 4t-134.5 15.5t-139 30t-127.5 50.5t-107 72.5t-72 100t-27.5 131.5q0 122 81 211.5t204 132.5q-180 109 -180 289q0 65 22 119t58.5 91.5t89 66t106.5 45
t118 27t117.5 14t110.5 3.5q58 0 111.5 -3.5t117.5 -13.5t117.5 -26.5t105.5 -44.5t88.5 -65t58.5 -91t22 -120q0 -190 -184 -291q62 -28 108 -57.5t87.5 -70.5t63 -95t21.5 -119zM1397 997q0 46 -21.5 82.5t-54.5 60.5t-81.5 41.5t-93 27t-99.5 15t-91.5 6.5t-76.5 1
q-42 0 -85 -3.5t-96.5 -12t-98.5 -26t-84.5 -42t-62 -64t-22.5 -88.5q0 -42 21 -76.5t53 -56.5t79.5 -38.5t90.5 -25t96 -13.5t87 -6t71 -1q43 0 84 2.5t98.5 9.5t105 22.5t90 38t67 60.5t24.5 86zM1491 369q0 59 -32.5 105.5t-89 74.5t-118.5 47t-137 27t-126.5 11
t-104.5 3q-57 0 -119.5 -5t-144 -22t-144 -44t-106 -77t-43.5 -114q0 -57 32 -102.5t87.5 -73.5t117 -47t134 -27.5t124.5 -12t101 -3.5q42 0 83 2t100 8.5t109.5 17t103 30.5t89.5 46.5t60.5 66.5t23.5 89z" />
    <glyph glyph-name="nine" unicode="9" 
d="M1657 686q0 -130 -47 -245.5t-127.5 -201.5t-186.5 -148.5t-227.5 -94t-245.5 -31.5q-120 0 -223 25.5t-182 64.5t-195 111l80 113q155 -96 264 -135.5t264 -39.5q106 0 206.5 26t187.5 78t152.5 124t103 169t37.5 208q-316 -203 -707 -203q-82 0 -166 11.5t-173.5 41.5
t-157.5 75t-112 119t-44 167q0 81 40.5 152t107.5 121.5t139 84.5t149 55q129 35 280 35q121 0 236 -29t214 -86.5t173.5 -138.5t117 -191t42.5 -237zM1485 866q-49 123 -145.5 206t-213.5 120t-252 37q-109 0 -225 -25q-57 -13 -113.5 -36t-113 -58.5t-92 -87.5t-35.5 -111
q0 -39 19 -74.5t48.5 -61t68.5 -47t75 -34.5t72 -22q111 -27 227 -27q179 0 373.5 57.5t306.5 163.5z" />
    <glyph glyph-name="colon" unicode=":" horiz-adv-x="757" 
d="M508 877q0 -54 -37.5 -91.5t-91.5 -37.5t-91.5 37.5t-37.5 91.5q0 55 38 92t93 37q53 0 90 -38t37 -91zM504 94q0 -53 -37 -91t-90 -38t-90 37.5t-37 89.5q0 53 37 91t90 38t90 -37.5t37 -89.5z" />
    <glyph glyph-name="semicolon" unicode=";" horiz-adv-x="796" 
d="M508 877q0 -54 -37.5 -91.5t-91.5 -37.5t-91.5 37.5t-37.5 91.5q0 55 38 92t93 37q53 0 90 -38t37 -91zM539 0q0 -57 -13.5 -103.5t-42 -84t-54.5 -63t-69 -58.5q-36 -29 -49 -29q-10 0 -20 12.5t-10 26.5q0 11 36 33q48 33 85.5 85t37.5 101t-69 49q-53 0 -87 38.5
t-34 94.5q0 44 36.5 75.5t82.5 31.5q75 0 122.5 -64t47.5 -145z" />
    <glyph glyph-name="less" unicode="&#x3c;" 
d="M1335 37l-850 373v125l850 372v-129l-702 -305l702 -307v-129z" />
    <glyph glyph-name="equal" unicode="=" 
d="M1382 557h-944v117h944v-117zM1382 270h-944v117h944v-117z" />
    <glyph glyph-name="greater" unicode="&#x3e;" 
d="M1335 410l-850 -373v129l703 305l-703 307v129l850 -372v-125z" />
    <glyph glyph-name="question" unicode="?" horiz-adv-x="1138" 
d="M983 1178q0 -118 -58.5 -208.5t-164.5 -170.5l-207 -158q-49 -36 -49 -115v-153h-135v153q0 52 5 86t18 56.5t23 32.5t33 27q2 2 3 2.5t3 2t3 2.5l215 166q78 62 116.5 121.5t38.5 144.5q0 65 -21.5 113t-54.5 75.5t-84 43.5t-99.5 21t-110.5 5q-165 0 -342 -49v144
q147 39 360 39q82 0 152.5 -10.5t137.5 -37.5t114 -69t75.5 -109.5t28.5 -154.5zM567 94q0 -54 -38.5 -91.5t-92.5 -37.5t-91.5 37.5t-37.5 91.5t37.5 92.5t91.5 38.5t92.5 -38.5t38.5 -92.5z" />
    <glyph glyph-name="at" unicode="@" horiz-adv-x="2138" 
d="M1966 690q0 -101 -35 -185.5t-91 -137.5t-123.5 -82t-135.5 -29q-96 0 -167 43t-97 100q-83 -123 -299 -123q-60 0 -114 13t-101.5 40t-76 75.5t-28.5 113.5q0 48 15.5 86t38 62.5t61 42t70.5 26t82 13.5t80 5.5t79 0.5h160q0 62 -14 100q-35 82 -193 82
q-176 0 -205 -115h-131q8 56 34.5 97.5t60 65t81 37.5t89 18.5t92.5 4.5q172 0 248.5 -80t76.5 -253v-207q0 -57 43 -99.5t117 -42.5q105 0 176.5 86.5t71.5 245.5q0 124 -42 229.5t-115 180.5t-172.5 127.5t-214 78t-238.5 25.5q-116 0 -224.5 -27.5t-201.5 -83.5
t-163 -134t-109.5 -185t-39.5 -231q0 -161 61.5 -291.5t166.5 -214t240.5 -128t287.5 -44.5q250 0 410 119l73 -99q-185 -149 -481 -149q-138 0 -269.5 33.5t-245 101t-199 160t-134.5 219.5t-49 272q0 196 67 351.5t186 255.5t279 152t351 52q193 0 355.5 -46.5t288 -139
t196.5 -243t71 -345.5zM1284 618v29h-145q-113 0 -168 -4q-71 -5 -107.5 -33.5t-36.5 -95.5q0 -47 31.5 -77t72 -40t89.5 -10q122 0 193 56.5t71 174.5z" />
    <glyph glyph-name="A" unicode="A" horiz-adv-x="1705" 
d="M1669 0h-156l-268 545h-782l-268 -545h-156l747 1528h142zM1182 684l-324 668l-326 -668h650z" />
    <glyph glyph-name="B" unicode="B" horiz-adv-x="1857" 
d="M1651 424q0 -97 -43 -184.5t-119 -147.5q-73 -58 -148 -75t-190 -17h-899v1526h899q182 0 306 -115t124 -295q0 -97 -38.5 -171.5t-115.5 -149.5q224 -132 224 -371zM1442 1118q0 125 -82 195.5t-209 70.5h-760v-532h760q126 0 208.5 71t82.5 195zM1509 424
q0 76 -29.5 133t-80.5 90t-113 48.5t-135 15.5h-760v-570h760q63 0 99 3t83.5 19.5t83.5 49.5q92 80 92 211z" />
    <glyph glyph-name="C" unicode="C" horiz-adv-x="1896" 
d="M1743 279q-167 -156 -348.5 -235t-397.5 -79q-169 0 -320.5 60t-262 164.5t-175.5 253.5t-65 319q0 232 111 416t300.5 283.5t420.5 99.5q226 0 402 -70t329 -227l-95 -101q-131 134 -282.5 196t-341.5 62q-196 0 -355.5 -79t-254.5 -230.5t-95 -349.5
q0 -142 55.5 -265.5t149.5 -208.5t221 -133.5t267 -48.5q343 0 641 275z" />
    <glyph glyph-name="D" unicode="D" horiz-adv-x="1896" 
d="M1710 766q0 -168 -58 -312t-157.5 -243t-234.5 -155t-287 -56h-723v1528h723q333 0 535 -209t202 -553zM1569 762q0 151 -45 271t-125.5 197.5t-189 118t-236.5 40.5h-582v-1250h582q123 0 229.5 39.5t189 115t130 196t47.5 272.5z" />
    <glyph glyph-name="E" unicode="E" horiz-adv-x="1744" 
d="M1581 0h-1309v1526h1260v-144h-1122v-524h612v-139h-612v-580h1171v-139z" />
    <glyph glyph-name="F" unicode="F" horiz-adv-x="1595" 
d="M1520 1386h-1110v-555h704v-141h-704v-690h-138v1526h1248v-140z" />
    <glyph glyph-name="G" unicode="G" horiz-adv-x="1857" 
d="M1683 412q0 -83 -39 -155t-104 -123t-137.5 -85.5t-151.5 -54.5q-130 -31 -258 -31q-173 0 -327.5 58t-268.5 161t-180.5 253.5t-66.5 326.5q0 170 68 319t184 253.5t274.5 164.5t335.5 60q393 0 635 -277l-91 -100q-108 115 -239 176t-305 61q-153 0 -288 -53
t-229.5 -142t-149 -210t-54.5 -254q0 -150 56.5 -275t153.5 -207.5t226.5 -128t276.5 -45.5q101 0 204 25q53 13 106.5 36t107.5 57t88 83.5t34 104.5v266h-551v139h690v-403z" />
    <glyph glyph-name="H" unicode="H" horiz-adv-x="2048" 
d="M1696 0h-137v727h-1067v-727h-140v1528h140v-664h1067v664h137v-1528z" />
    <glyph glyph-name="I" unicode="I" horiz-adv-x="757" 
d="M451 0h-136v1526h136v-1526z" />
    <glyph glyph-name="J" unicode="J" horiz-adv-x="1669" 
d="M1397 594q0 -204 -84.5 -347t-233.5 -212.5t-352 -69.5q-290 0 -457 146q-64 55 -102 115t-80 155l119 61q2 -4 7 -13q67 -124 114 -176q1 -2 2 -3q129 -148 395 -148q249 0 390.5 123.5t141.5 368.5v934h140v-934z" />
    <glyph glyph-name="K" unicode="K" horiz-adv-x="1705" 
d="M1604 0h-168l-578 864l-467 -465v-399h-141v1526h141v-930l936 930h195l-559 -557z" />
    <glyph glyph-name="L" unicode="L" horiz-adv-x="1478" 
d="M1399 0h-1137v1526h139v-1385h998v-141z" />
    <glyph glyph-name="M" unicode="M" horiz-adv-x="2123" 
d="M1819 0h-140v1253l-618 -1038l-617 1038v-1253h-137v1528h137l617 -1043l625 1043h133v-1528z" />
    <glyph glyph-name="N" unicode="N" horiz-adv-x="2009" 
d="M1683 0h-141l-1075 1307v-1307h-139v1526h139l1077 -1303v1303h139v-1526z" />
    <glyph glyph-name="O" unicode="O" horiz-adv-x="1972" 
d="M1808 762q0 -225 -110 -408t-296.5 -285t-410.5 -102q-170 0 -322 60t-263 164.5t-176.5 254t-65.5 320.5q0 167 65.5 315t175.5 252.5t260.5 165t315.5 60.5q169 0 321 -59.5t263.5 -164t177 -253.5t65.5 -320zM1669 758q0 187 -91 339.5t-246.5 238t-342.5 85.5
q-137 0 -263 -48.5t-219.5 -133.5t-149.5 -207.5t-56 -261.5q0 -191 91 -343.5t247 -236.5t346 -84q139 0 264.5 48.5t218 133t147 207t54.5 263.5z" />
    <glyph glyph-name="P" unicode="P" horiz-adv-x="1781" 
d="M1589 1085q0 -106 -43.5 -200.5t-126.5 -157.5q-99 -74 -344 -74h-676v-653h-141v1526h885q101 0 170 -18.5t133 -75.5q71 -62 107 -154t36 -193zM1448 1090q0 296 -305 296h-744v-591h676q188 0 256 43q59 36 88 105t29 147z" />
    <glyph glyph-name="Q" unicode="Q" horiz-adv-x="2048" 
d="M1843 764q0 -149 -54.5 -290.5t-154.5 -250.5q-59 -64 -155 -139l155 -160l-127 -74l-159 168q-96 -31 -168.5 -45t-161.5 -14q-165 0 -315 62.5t-260 168.5t-175 255t-65 315q0 170 64.5 319.5t175 254.5t262 166t319.5 61q224 0 411 -102.5t297.5 -286t110.5 -408.5z
M1704 762q0 190 -91 341t-246.5 233.5t-344.5 82.5q-186 0 -341.5 -83.5t-247 -234.5t-91.5 -337q0 -147 56 -272.5t151.5 -210.5t225 -133t274.5 -48q106 0 186 27l-143 149l131 74l153 -160q328 207 328 572z" />
    <glyph glyph-name="R" unicode="R" 
d="M1638 1087q0 -100 -46.5 -201.5t-123.5 -156.5q-55 -38 -125.5 -59t-123.5 -25l387 -645h-162l-385 645h-666v-645h-143v1528h899q112 0 165.5 -12t123.5 -50q91 -50 145.5 -161t54.5 -218zM1499 1094q0 78 -31.5 142.5t-95.5 102.5q-42 26 -100.5 36.5t-184.5 10.5h-694
v-602h694q124 0 187 11.5t108 44.5q56 41 86.5 110.5t30.5 143.5z" />
    <glyph glyph-name="S" unicode="S" horiz-adv-x="1705" 
d="M1595 438q0 -78 -25.5 -144t-69 -114t-103.5 -85.5t-126 -61.5t-140 -39.5t-141 -22t-134 -6.5q-206 0 -389 66q-108 38 -184 93t-177 155l97 100q146 -149 299.5 -211t365.5 -62q70 0 140.5 7.5t153.5 29.5t145.5 57t104.5 96t42 140q0 57 -22.5 105t-58 80t-82 55.5
t-91.5 35t-90 15.5q-37 4 -107 5.5t-166.5 1.5t-129.5 1q-73 1 -140 13.5t-132 40t-112.5 68.5t-76.5 104.5t-29 142.5q0 83 32.5 154t89 122t124.5 86.5t147 57.5q129 37 289 37q172 0 316 -54.5t292 -165.5l-86 -104q-156 100 -272 143t-275 43q-114 0 -196 -20
q-58 -13 -111.5 -37t-102.5 -59.5t-78.5 -87.5t-29.5 -113q0 -54 22.5 -95.5t57 -66.5t83.5 -41t93.5 -22t94.5 -7q20 -1 184 -4t231 -8q98 -8 182.5 -39t150 -82.5t103 -129.5t37.5 -173z" />
    <glyph glyph-name="T" unicode="T" horiz-adv-x="1554" 
d="M1427 1389h-577v-1389h-139v1389h-586v139h1302v-139z" />
    <glyph glyph-name="U" unicode="U" horiz-adv-x="1972" 
d="M1665 551q0 -124 -35 -223t-96.5 -166.5t-149 -112.5t-189 -65.5t-220.5 -20.5q-144 0 -264 36t-210 106.5t-140 184.5t-50 261v975h140v-975q0 -99 27 -176t74.5 -128t117 -84t148 -47t173.5 -14q142 0 273 46.5t200 146.5q38 55 50 114.5t12 141.5v975h139v-975z" />
    <glyph glyph-name="V" unicode="V" horiz-adv-x="1705" 
d="M1665 1526l-750 -1526h-135l-735 1526h148l655 -1350l663 1350h154z" />
    <glyph glyph-name="W" unicode="W" horiz-adv-x="2048" 
d="M2007 1526l-494 -1526h-139l-350 1255l-344 -1255h-139l-496 1526h148l415 -1268l346 1268h142l352 -1268l412 1268h147z" />
    <glyph glyph-name="X" unicode="X" horiz-adv-x="1593" 
d="M1550 0h-180l-571 713l-574 -713h-180l664 827l-566 701h174l482 -590l469 590h186l-567 -701z" />
    <glyph glyph-name="Y" unicode="Y" horiz-adv-x="1593" 
d="M1554 1526l-682 -860v-666h-141v666l-694 860h182l584 -725l575 725h176z" />
    <glyph glyph-name="Z" unicode="Z" horiz-adv-x="1402" 
d="M1376 0h-1261l-76 147l1135 1239h-1051v140h1163l80 -146l-1141 -1235h1151v-145z" />
    <glyph glyph-name="bracketleft" unicode="[" horiz-adv-x="872" 
d="M616 0h-319v1528h319v-113h-182v-1302h182v-113z" />
    <glyph glyph-name="backslash" unicode="\" horiz-adv-x="1290" 
d="M1143 -41h-137l-912 1571h137z" />
    <glyph glyph-name="bracketright" unicode="]" horiz-adv-x="872" 
d="M575 0h-319v113h182v1302h-182v113h319v-1528z" />
    <glyph glyph-name="asciicircum" unicode="^" 
d="M1337 696h-116l-310 570l-311 -570h-117l369 672h117z" />
    <glyph glyph-name="underscore" unicode="_" horiz-adv-x="1024" 
d="M1024 -256h-1024v100h1024v-100z" />
    <glyph glyph-name="grave" unicode="`" horiz-adv-x="681" 
d="M502 1178h-158l-201 219h219z" />
    <glyph glyph-name="a" unicode="a" horiz-adv-x="1402" 
d="M1362 0h-145l-148 264h-731l-150 -264h-145l602 1057h125zM991 403l-284 508l-289 -508h573z" />
    <glyph glyph-name="b" unicode="b" horiz-adv-x="1517" 
d="M1292 315q0 -85 -28.5 -147t-80.5 -98t-118.5 -53t-149.5 -17h-688v1057h688q147 0 237.5 -70.5t90.5 -214.5q0 -60 -21 -106t-65 -95q72 -59 103.5 -115t31.5 -141zM1104 774q0 81 -49 112.5t-135 31.5h-553v-289h548q43 0 74.5 6t59 21t41.5 44.5t14 73.5zM1155 305
q0 182 -240 182h-548v-346h548q36 0 62 2t55.5 7t50 16.5t38 29t26 45.5t8.5 64z" />
    <glyph glyph-name="c" unicode="c" horiz-adv-x="1517" 
d="M1368 885l-80 -117q-111 93 -225 138.5t-252 45.5q-97 0 -185.5 -28.5t-157.5 -80.5t-110 -134.5t-41 -182.5q0 -86 30.5 -157t81.5 -119.5t120 -82t144 -48.5t155 -15q134 0 240.5 35.5t218.5 114.5l55 -127q-210 -164 -518 -164q-130 0 -248.5 36.5t-212.5 105.5
t-149.5 178.5t-55.5 244.5q0 128 51.5 236t138.5 179t200.5 110t238.5 39q320 0 561 -207z" />
    <glyph glyph-name="d" unicode="d" horiz-adv-x="1554" 
d="M1341 520q0 -235 -141 -377.5t-377 -142.5h-594v1057h594q110 0 184 -21.5t148 -85.5q91 -80 138.5 -193t47.5 -237zM1204 522q0 181 -121 305q-55 55 -112 73t-144 18h-460v-779h456q178 0 279.5 102.5t101.5 280.5z" />
    <glyph glyph-name="e" unicode="e" horiz-adv-x="1402" 
d="M1198 0h-952v1057h930v-139h-793v-308h455v-139h-455v-330h815v-141z" />
    <glyph glyph-name="f" unicode="f" horiz-adv-x="1292" 
d="M1161 918h-778v-300h481v-141h-481v-477h-137v1057h915v-139z" />
    <glyph glyph-name="g" unicode="g" horiz-adv-x="1517" 
d="M1335 168q-102 -95 -245.5 -147t-288.5 -52q-127 0 -242.5 37t-205 106t-142.5 176.5t-53 239.5q0 131 54 239.5t144.5 178.5t206.5 108t242 38q145 0 259.5 -40t235.5 -128l-75 -117q-111 76 -204.5 110.5t-215.5 34.5q-97 0 -186.5 -27t-162.5 -78t-117 -133t-44 -184
q0 -82 27.5 -152t75.5 -119t112 -83t136.5 -50.5t150.5 -16.5q223 0 399 122v207h-348v142h487v-412z" />
    <glyph glyph-name="h" unicode="h" horiz-adv-x="1630" 
d="M1321 0h-139v475h-731v-475h-138v1057h138v-443h731v443h139v-1057z" />
    <glyph glyph-name="i" unicode="i" horiz-adv-x="757" 
d="M455 0h-140v1057h140v-1057z" />
    <glyph glyph-name="j" unicode="j" horiz-adv-x="1327" 
d="M1096 375q0 -76 -28.5 -142.5t-77.5 -114t-112.5 -82t-134 -51t-141.5 -16.5q-163 0 -285 70.5t-188 214.5l115 78q57 -116 141.5 -169.5t212.5 -53.5q62 0 124 16.5t115.5 48t87 85t33.5 120.5v678h138v-682z" />
    <glyph glyph-name="k" unicode="k" horiz-adv-x="1366" 
d="M1247 0h-176l-414 569l-280 -260v-309h-141v1057h141v-557l604 557h203l-424 -391z" />
    <glyph glyph-name="l" unicode="l" horiz-adv-x="1175" 
d="M1079 0h-827v1057h137v-918h690v-139z" />
    <glyph glyph-name="m" unicode="m" horiz-adv-x="1781" 
d="M1477 0h-138v809l-446 -670l-444 670v-809h-138v1057h142l440 -670l446 670h138v-1057z" />
    <glyph glyph-name="n" unicode="n" horiz-adv-x="1630" 
d="M1327 0h-137l-744 848v-848h-137v1057h137l744 -846v846h137v-1057z" />
    <glyph glyph-name="o" unicode="o" horiz-adv-x="1630" 
d="M1464 518q0 -106 -36 -197t-98 -156t-144.5 -111.5t-177.5 -69.5t-195 -23q-102 0 -197.5 24.5t-177 73.5t-142.5 117t-95.5 160.5t-34.5 198.5q0 102 35.5 191.5t97 156t142.5 114.5t175 72.5t191 24.5q100 0 196.5 -25t179.5 -74.5t146 -118t99 -161t36 -197.5z
M1325 518q0 103 -44.5 187.5t-118 137t-165.5 81t-190 28.5q-94 0 -183 -28t-161 -79.5t-116 -133t-44 -179.5q0 -103 43.5 -187t116.5 -136.5t164 -80.5t190 -28q97 0 186 26.5t162 76.5t116.5 131.5t43.5 183.5z" />
    <glyph glyph-name="p" unicode="p" horiz-adv-x="1441" 
d="M1286 723q0 -165 -102.5 -245.5t-272.5 -80.5h-510v-397h-139v1057h649q171 0 273 -83.5t102 -250.5zM1149 721q0 108 -62 151t-176 43h-510v-378h510q112 0 175 39.5t63 144.5z" />
    <glyph glyph-name="q" unicode="q" horiz-adv-x="1669" 
d="M1479 526q0 -155 -67.5 -268.5t-203.5 -198.5l121 -129l-135 -57l-121 125q-135 -33 -242 -33q-101 0 -195.5 24t-176.5 72.5t-143.5 115.5t-96.5 158.5t-35 196.5q0 129 53 237.5t142 180t204 111t240 39.5q129 0 246.5 -39t209 -110.5t146 -181.5t54.5 -243zM1343 526
q0 102 -44.5 186t-118.5 136.5t-165.5 81t-189.5 28.5t-187.5 -28t-159.5 -80t-112 -135t-42 -185q0 -84 30 -155t81 -120.5t118.5 -84.5t142.5 -51.5t154 -16.5q56 0 104 13l-94 106l137 60l111 -115q114 63 174.5 150.5t60.5 209.5z" />
    <glyph glyph-name="r" unicode="r" horiz-adv-x="1517" 
d="M1350 0h-174l-302 428h-471v-428h-137v1057h658q80 0 149.5 -17t127.5 -52t92 -98t34 -147q0 -124 -80 -203t-207 -102zM1188 743q0 175 -264 175h-521v-353h521q264 0 264 178z" />
    <glyph glyph-name="s" unicode="s" horiz-adv-x="1402" 
d="M1274 297q0 -76 -32 -136t-82.5 -96.5t-118.5 -60.5t-134 -33.5t-135 -9.5q-177 0 -348 47q-93 26 -153 55t-144 87l68 126q4 -3 31 -23.5t42 -29.5q99 -63 230 -94t262 -31q43 0 86.5 4t97.5 16.5t94 33t67.5 58t27.5 85.5t-21.5 83.5t-58.5 55.5t-77.5 29.5t-86.5 11.5
q-106 4 -318 8q-54 1 -105 12.5t-98.5 35t-83 57t-56.5 82t-21 106.5q0 70 29.5 126.5t76 91.5t109 58t124 32.5t124.5 9.5q146 0 288 -36.5t254 -111.5l-63 -125q-132 81 -223.5 106t-249.5 25q-39 0 -77 -3.5t-85.5 -14.5t-83 -29t-60 -51t-24.5 -76q0 -41 20 -72
t53.5 -48t69.5 -25.5t74 -9.5q49 -1 147.5 -3.5t147.5 -3.5q77 -2 148 -20.5t132.5 -55t98.5 -99.5t37 -144z" />
    <glyph glyph-name="t" unicode="t" horiz-adv-x="1214" 
d="M1104 920h-432v-920h-135v920h-426v137h993v-137z" />
    <glyph glyph-name="u" unicode="u" horiz-adv-x="1630" 
d="M1331 412q0 -116 -38.5 -202t-108.5 -137.5t-161 -76.5t-204 -25q-91 0 -167 14.5t-141 48t-110 84t-70.5 125t-25.5 169.5v645h139v-645q0 -88 28.5 -148.5t82 -93t118 -46t150.5 -13.5q83 0 147 14.5t116 47t80 93t28 146.5v645h137v-645z" />
    <glyph glyph-name="v" unicode="v" horiz-adv-x="1366" 
d="M1329 1057l-577 -1057h-140l-569 1057h158l483 -897l485 897h160z" />
    <glyph glyph-name="w" unicode="w" horiz-adv-x="1705" 
d="M1671 1057l-395 -1057h-139l-277 827l-282 -827h-138l-405 1057h149l320 -836l289 836h137l278 -836l314 836h149z" />
    <glyph glyph-name="x" unicode="x" horiz-adv-x="1327" 
d="M1298 0h-190l-442 463l-443 -463h-186l534 567l-465 490h187l373 -391l370 391h193l-469 -490z" />
    <glyph glyph-name="y" unicode="y" horiz-adv-x="1175" 
d="M1143 1057l-481 -533v-524h-142v524l-479 533h182l369 -406l366 406h185z" />
    <glyph glyph-name="z" unicode="z" horiz-adv-x="1099" 
d="M1061 0h-938l-82 127l793 788h-740v142h871l79 -125l-792 -791h809v-141z" />
    <glyph glyph-name="braceleft" unicode="{" horiz-adv-x="872" 
d="M655 -33q-127 0 -195.5 27t-94 80.5t-25.5 150.5v324q0 96 -36 134t-128 50v76q96 11 130 46.5t34 137.5v307q0 143 66.5 201t248.5 58v-99q-89 0 -127.5 -32t-38.5 -123v-281q0 -123 -49.5 -184t-158.5 -70q110 -14 159 -72t49 -180v-297q0 -88 39.5 -123t126.5 -35v-96
z" />
    <glyph glyph-name="bar" unicode="|" horiz-adv-x="718" 
d="M418 -512h-117v2048h117v-2048z" />
    <glyph glyph-name="braceright" unicode="}" horiz-adv-x="872" 
d="M694 717q-96 -11 -130 -47t-34 -138v-307q0 -143 -66.5 -200.5t-248.5 -57.5v99q89 0 127.5 32t38.5 123v281q0 123 50 184t159 70q-110 14 -159.5 72t-49.5 180v297q0 88 -39.5 122.5t-126.5 34.5v97q127 0 195.5 -27t94 -81t25.5 -151v-323q0 -96 36 -134t128 -50v-76z
" />
    <glyph glyph-name="asciitilde" unicode="~" 
d="M1395 485q-51 -59 -116 -101t-126 -42q-58 0 -127 20.5t-122.5 45t-116 45t-107.5 20.5q-87 0 -182 -111l-66 84q44 55 112.5 99.5t129.5 44.5q58 0 126.5 -20.5t121 -45t115.5 -45t110 -20.5q51 0 93.5 29.5t88.5 80.5z" />
    <glyph glyph-name="uni00A0" unicode="&#xa0;" horiz-adv-x="757" 
 />
    <glyph glyph-name="exclamdown" unicode="&#xa1;" horiz-adv-x="681" 
d="M473 1427q0 -54 -37.5 -92.5t-91.5 -38.5q-55 0 -92 38t-37 93q0 54 37.5 91.5t91.5 37.5t91.5 -37.5t37.5 -91.5zM436 -8h-184l39 1165h108z" />
    <glyph glyph-name="cent" unicode="&#xa2;" 
d="M1501 1024l-78 -117q-105 89 -201 131.5t-227 51.5v-846q128 3 232.5 38.5t212.5 110.5l55 -127q-202 -159 -500 -162v-186h-108v191q-121 14 -223.5 56t-182 110t-125 169.5t-45.5 225.5q0 160 79.5 285t208.5 194t288 82v188h108v-188q148 -9 271 -59t235 -148z
M887 250v840q-121 -12 -218 -62.5t-157.5 -144t-60.5 -215.5q0 -92 35 -167.5t96.5 -126t138.5 -82t166 -42.5z" />
    <glyph glyph-name="sterling" unicode="&#xa3;" 
d="M1516 973h-154q-1 52 -21.5 96t-54.5 73.5t-78.5 50.5t-92 30.5t-95.5 9.5q-162 0 -259 -85t-97 -243v-141h405v-133h-405v-496h806v-135h-1165v135h207v496h-207v133h207v154q0 116 40.5 204t113 141t166 79t206.5 26q94 0 178 -24.5t152 -71.5t108 -124t40 -175z" />
    <glyph glyph-name="currency" unicode="&#xa4;" horiz-adv-x="1542" 
d="M1231 356q-7 -7 -33.5 -34.5t-42.5 -42.5q-90 90 -137 135q-101 -82 -240 -82q-134 0 -239 82q-71 -68 -138 -135q-12 12 -36.5 37.5t-38.5 39.5q45 41 139 131q-82 115 -82 238q0 140 82 238q-20 20 -43 42t-51.5 49t-44.5 42q14 14 38.5 40t36.5 38q91 -91 138 -136
q111 80 239 80q61 0 126.5 -20.5t113.5 -59.5q23 23 69 68.5t68 67.5q15 -14 41 -41.5t35 -36.5q-16 -15 -44.5 -42t-51.5 -49t-43 -42q82 -104 82 -238q0 -125 -82 -238q94 -90 139 -131zM1067 727q0 123 -87.5 204t-199.5 81q-123 0 -207 -84.5t-84 -200.5
q0 -117 85.5 -203t203.5 -86t203.5 85t85.5 204z" />
    <glyph glyph-name="yen" unicode="&#xa5;" 
d="M1626 1339l-469 -528h254v-113h-354l-107 -118v-41h461v-113h-461v-426h-139v426h-463v113h463v41l-109 118h-354v113h254l-479 528h180l578 -641l569 641h176z" />
    <glyph glyph-name="brokenbar" unicode="&#xa6;" horiz-adv-x="718" 
d="M418 666h-117v716h117v-716zM418 -358h-117v716h117v-716z" />
    <glyph glyph-name="section" unicode="&#xa7;" horiz-adv-x="1214" 
d="M1065 713q0 -112 -131 -199q115 -88 115 -227q0 -156 -123 -239t-342 -83q-115 0 -237 40.5t-197 117.5l51 119q83 -75 182.5 -115.5t202.5 -40.5q65 0 119 10t100.5 32t73 62.5t26.5 96.5q0 35 -15 63t-44 49t-53.5 33t-61.5 27l-313 121q-113 44 -176.5 113t-63.5 179
q0 59 40 116t87 85q-88 72 -88 199q0 74 36 131.5t95 90t125.5 49t136.5 16.5q108 0 226 -42t186 -110l-47 -115q-55 58 -162.5 102t-198.5 44q-44 0 -84 -7.5t-79 -24t-62.5 -50t-23.5 -80.5q0 -60 44 -102t107 -66l313 -119q103 -38 169.5 -110t66.5 -166zM915 702
q0 61 -37 99.5t-104 66.5l-362 150q-38 -21 -64 -57t-26 -82q0 -67 49 -109t127 -74l327 -127q39 19 64.5 56.5t25.5 76.5z" />
    <glyph glyph-name="dieresis" unicode="&#xa8;" horiz-adv-x="681" 
d="M616 1194h-188v190h188v-190zM254 1194h-188v190h188v-190z" />
    <glyph glyph-name="copyright" unicode="&#xa9;" horiz-adv-x="1935" 
d="M1765 762q0 -162 -63 -309.5t-169.5 -254.5t-254 -170t-309.5 -63q-163 0 -311 63t-255 170t-170 254.5t-63 309.5t63 309.5t170 254.5t254.5 170t309.5 63q163 0 311 -63t254.5 -170t169.5 -254.5t63 -309.5zM1653 762q0 186 -91.5 343.5t-249 249t-343.5 91.5
t-344 -91.5t-250 -249.5t-92 -343q0 -139 54.5 -265.5t146.5 -218t218.5 -146t264.5 -54.5q187 0 344.5 91.5t249.5 249t92 343.5zM1384 510q-103 -96 -203.5 -142t-222.5 -46q-192 0 -325 127t-133 319q0 196 133.5 321t329.5 125q126 0 225.5 -40.5t191.5 -137.5l-77 -86
q-76 80 -155 114t-177 34q-152 0 -253.5 -91t-101.5 -239q0 -142 101.5 -235t245.5 -93q175 0 342 156z" />
    <glyph glyph-name="ordfeminine" unicode="&#xaa;" horiz-adv-x="1024" 
d="M866 641h-125v72q-105 -97 -274 -97q-46 0 -89 7.5t-84.5 25t-72 43.5t-49 67t-18.5 91q0 44 12 78.5t32 58t52.5 40.5t65 26.5t79 15t86 7t92.5 1.5h168q0 67 -16 109q-36 86 -199 86q-182 0 -209 -113h-118q7 52 31 90.5t57 61t79 35.5t88 17.5t93 4.5
q170 0 244.5 -78.5t74.5 -249.5v-399zM737 981h-149q-113 0 -168 -4q-73 -7 -109.5 -35t-36.5 -96q0 -48 32 -78.5t72.5 -40.5t90.5 -10q252 0 266 233z" />
    <glyph glyph-name="guillemotleft" unicode="&#xab;" horiz-adv-x="1062" 
d="M952 137h-147l-277 402l277 395h147l-237 -395zM532 137h-147l-274 402l274 395h147l-235 -395z" />
    <glyph glyph-name="logicalnot" unicode="&#xac;" 
d="M1382 268l-116 -2v291h-828v117h944v-406z" />
    <glyph glyph-name="uni00AD" unicode="&#xad;" horiz-adv-x="1249" 
d="M963 453h-676v145h676v-145z" />
    <glyph glyph-name="registered" unicode="&#xae;" horiz-adv-x="1935" 
d="M1765 762q0 -162 -63 -309.5t-169.5 -254.5t-254 -170t-309.5 -63q-163 0 -311 63t-255 170t-170 254.5t-63 309.5t63 309.5t170 254.5t254.5 170t309.5 63q163 0 311 -63t254.5 -170t169.5 -254.5t63 -309.5zM1653 762q0 186 -91.5 343.5t-249 249t-343.5 91.5
t-344 -91.5t-250 -249.5t-92 -343q0 -139 54.5 -265.5t146.5 -218t218.5 -146t264.5 -54.5q187 0 344.5 91.5t249.5 249t92 343.5zM1413 956q0 -56 -28 -113.5t-74 -90.5q-51 -33 -117 -43l217 -344h-137l-213 340h-336v-340h-121v843h514q64 0 99.5 -6t74.5 -28
q55 -30 88 -92.5t33 -125.5zM1294 961q0 72 -59 110q-22 14 -49 18.5t-88 4.5h-373v-277h393q80 0 121 25q55 40 55 119z" />
    <glyph glyph-name="macron" unicode="&#xaf;" horiz-adv-x="757" 
d="M655 1229h-553v121h553v-121z" />
    <glyph glyph-name="degree" unicode="&#xb0;" horiz-adv-x="1214" 
d="M840 1321q0 -95 -68.5 -163t-165.5 -68q-95 0 -163 68t-68 163q0 97 68 165t163 68q97 0 165.5 -68t68.5 -165zM748 1321q0 58 -41.5 99.5t-100.5 41.5q-57 0 -98 -41.5t-41 -99.5q0 -57 41 -98t98 -41q58 0 100 41t42 98z" />
    <glyph glyph-name="plusminus" unicode="&#xb1;" 
d="M1382 475h-413v-342h-117v342h-414v117h414v352h117v-352h413v-117zM1382 -117h-944v117h944v-117z" />
    <glyph glyph-name="two.superior" unicode="&#xb2;" horiz-adv-x="1062" 
d="M885 1116q0 -166 -211 -213q-31 -6 -91 -17.5t-91 -17.5q-85 -18 -133.5 -65t-65.5 -135h581v-123h-720q1 92 19.5 165t46.5 119t69.5 80t81 51t88.5 29q39 9 108 19.5t95 17.5q46 12 70 32.5t24 59.5q0 37 -24.5 63.5t-63.5 39t-73 17.5t-67 5q-89 0 -154.5 -25
t-146.5 -81l-73 102q100 67 185 98t191 31q60 0 120 -14.5t114 -43.5t87.5 -79.5t33.5 -114.5z" />
    <glyph glyph-name="three.superior" unicode="&#xb3;" horiz-adv-x="1062" 
d="M924 780q0 -57 -25 -103t-65 -75t-92.5 -48.5t-104 -27.5t-102.5 -8q-251 0 -447 144l66 104q192 -125 393 -125q33 0 72 6.5t81 21t69.5 43.5t27.5 68q0 54 -58 84q-49 25 -111.5 35t-191.5 10v123q17 0 49.5 -3t49.5 -3q30 0 60.5 3.5t70 13t64 33t24.5 57.5
q0 30 -25.5 53.5t-63 35t-71 17.5t-57.5 6q-80 0 -141 -18.5t-150 -61.5l-60 109q106 52 176.5 73t172.5 21q57 0 115 -14t111 -41.5t86.5 -75.5t33.5 -109q0 -48 -19.5 -84t-60.5 -71q60 -42 91.5 -87t31.5 -106z" />
    <glyph glyph-name="acute" unicode="&#xb4;" horiz-adv-x="681" 
d="M518 1401l-203 -225h-159l139 225h223z" />
    <glyph glyph-name="mu" unicode="&#xb5;" horiz-adv-x="1630" 
d="M1331 0h-137v111q-48 -50 -148.5 -95t-232.5 -45q-145 0 -227 32t-142 97v-399h-139v1356h139v-649q0 -88 27.5 -148t80.5 -91.5t116 -44.5t149 -13q76 0 141 16t119.5 49.5t85.5 92.5t31 139v649h137v-1057z" />
    <glyph glyph-name="paragraph" unicode="&#xb6;" horiz-adv-x="1630" 
d="M1407 0h-129v1393h-166v-1393h-135v655h-266q-78 0 -124 3t-109 20t-111 51q-84 58 -127 154t-43 204q0 101 36 193t107 154q64 57 133 75.5t170 18.5h764v-1528zM977 797v596h-334q-150 0 -227.5 -75.5t-77.5 -225.5q0 -76 29.5 -144.5t87.5 -107.5q64 -43 256 -43h266z
" />
    <glyph glyph-name="periodcentered" unicode="&#xb7;" horiz-adv-x="757" 
d="M510 668q0 -53 -39 -91t-92 -38q-54 0 -92.5 37.5t-38.5 91.5t37.5 92.5t91.5 38.5q55 0 94 -38.5t39 -92.5z" />
    <glyph glyph-name="cedilla" unicode="&#xb8;" horiz-adv-x="757" 
d="M618 -291q0 -50 -23 -85t-62 -52.5t-80 -25t-88 -7.5q-75 0 -125.5 8t-122.5 31l47 94q115 -34 184 -34q39 0 68.5 16t29.5 51q0 31 -27 47.5t-61 16.5q-50 0 -92 -17l-43 55l156 213h113l-130 -176q41 9 78 9q74 0 126 -36t52 -108z" />
    <glyph glyph-name="one.superior" unicode="&#xb9;" horiz-adv-x="1062" 
d="M594 545h-125v803h125v-803z" />
    <glyph glyph-name="ordmasculine" unicode="&#xba;" horiz-adv-x="1024" 
d="M946 985q0 -88 -36.5 -160.5t-97 -118.5t-138 -71t-162.5 -25q-115 0 -213 44.5t-159.5 133.5t-61.5 207q0 84 36.5 156t97 118.5t137 72.5t157.5 26q84 0 163 -26.5t140.5 -74.5t99 -121.5t37.5 -160.5zM823 985q0 122 -94.5 193t-220.5 71q-78 0 -147 -28.5
t-115.5 -88.5t-46.5 -139q0 -83 46 -144.5t115.5 -90.5t151.5 -29q81 0 150 27t115 87t46 142z" />
    <glyph glyph-name="guillemotright" unicode="&#xbb;" horiz-adv-x="1062" 
d="M952 539l-274 -402h-150l238 402l-238 395h150zM532 539l-274 -402h-147l235 402l-235 395h147z" />
    <glyph glyph-name="onequarter" unicode="&#xbc;" horiz-adv-x="2048" 
d="M1855 203h-194v-203h-121v203h-563l-59 131l628 481h115v-489h194v-123zM1499 1427l-1075 -1474h-154l1071 1474h158zM487 532h-129v818h129v-818zM1540 326v340l-461 -340h461z" />
    <glyph glyph-name="onehalf" unicode="&#xbd;" horiz-adv-x="2048" 
d="M1827 571q0 -166 -211 -213q-30 -6 -90.5 -17t-91.5 -17q-85 -18 -133.5 -65.5t-65.5 -135.5h582v-123h-721q1 92 19.5 165t46.5 119t69.5 80t81 51t88.5 29q39 9 108 19.5t95 17.5q46 12 70 32.5t24 59.5q0 37 -24.5 63.5t-63.5 39t-73 17.5t-67 5q-89 0 -154.5 -25
t-146.5 -81l-73 102q100 66 185.5 97.5t191.5 31.5q60 0 120 -14.5t113.5 -43.5t87 -79.5t33.5 -114.5zM1446 1427l-1075 -1474h-154l1073 1474h156zM442 532h-137v818h137v-818z" />
    <glyph glyph-name="threequarters" unicode="&#xbe;" horiz-adv-x="2048" 
d="M2028 203h-195v-203h-121v203h-563l-59 131l628 481h115v-489h195v-123zM1716 1427l-1075 -1474h-154l1072 1474h157zM881 780q0 -57 -25 -103t-65 -75t-92.5 -48.5t-104 -27.5t-102.5 -8q-251 0 -447 144l66 104q192 -125 393 -125q33 0 72 6.5t81 21t69.5 43.5t27.5 68
q0 54 -58 84q-49 25 -111.5 35t-191.5 10v123q17 0 50 -3t49 -3q30 0 60.5 3.5t70 13t64 33t24.5 57.5q0 30 -25.5 53.5t-63 35t-71 17.5t-57.5 6q-80 0 -141 -18.5t-150 -61.5l-60 109q106 52 176.5 73t172.5 21q57 0 115 -14t111 -41.5t86.5 -75.5t33.5 -109
q0 -48 -19.5 -84t-60.5 -71q60 -42 91.5 -87t31.5 -106zM1712 326v340l-461 -340h461z" />
    <glyph glyph-name="questiondown" unicode="&#xbf;" horiz-adv-x="1138" 
d="M823 1430q0 -54 -37.5 -93t-91.5 -39t-92.5 39t-38.5 93t38.5 91.5t92.5 37.5t91.5 -37.5t37.5 -91.5zM1016 4q-147 -39 -361 -39q-82 0 -152.5 10.5t-137.5 37.5t-114 69t-75.5 109.5t-28.5 154.5q0 117 59 208t165 171l207 158q49 36 49 114v154h135v-154q0 -52 -5 -86
t-18 -56.5t-23 -32.5t-33 -27q-2 -2 -3 -2.5t-3 -2t-3 -2.5l-215 -165q-78 -62 -117 -122t-39 -145q0 -65 21.5 -113t55 -75.5t84.5 -43.5t99.5 -21t110.5 -5q165 0 342 49v-143z" />
    <glyph glyph-name="Agrave" unicode="&#xc0;" horiz-adv-x="1705" 
d="M993 1642h-157l-201 220h219zM1669 0h-156l-268 545h-782l-268 -545h-156l747 1528h142zM1182 684l-324 668l-326 -668h650z" />
    <glyph glyph-name="Aacute" unicode="&#xc1;" horiz-adv-x="1705" 
d="M1092 1868l-203 -226h-160l139 226h224zM1669 0h-156l-268 545h-782l-268 -545h-156l747 1528h142zM1182 684l-324 668l-326 -668h650z" />
    <glyph glyph-name="Acircumflex" unicode="&#xc2;" horiz-adv-x="1705" 
d="M1135 1642h-179l-100 117l-113 -117h-157l153 220h230zM1669 0h-156l-268 545h-782l-268 -545h-156l747 1528h142zM1182 684l-324 668l-326 -668h650z" />
    <glyph glyph-name="Atilde" unicode="&#xc3;" horiz-adv-x="1705" 
d="M1184 1866q-3 -105 -41 -160t-135 -55q-63 0 -166.5 31.5t-147.5 31.5q-37 0 -52.5 -17.5t-20.5 -56.5h-121q4 220 176 220q59 0 158.5 -35t144.5 -35q70 0 82 76h123zM1669 0h-156l-268 545h-782l-268 -545h-156l747 1528h142zM1182 684l-324 668l-326 -668h650z" />
    <glyph glyph-name="Adieresis" unicode="&#xc4;" horiz-adv-x="1705" 
d="M1130 1659h-188v190h188v-190zM768 1659h-188v190h188v-190zM1669 0h-156l-268 545h-782l-268 -545h-156l747 1528h142zM1182 684l-324 668l-326 -668h650z" />
    <glyph glyph-name="Aring" unicode="&#xc5;" horiz-adv-x="1705" 
d="M1077 1868q0 -95 -68.5 -161.5t-162.5 -66.5q-97 0 -166.5 68.5t-69.5 165.5q0 96 69.5 164.5t166.5 68.5t164 -70.5t67 -168.5zM1669 0h-156l-268 545h-782l-268 -545h-156l747 1528h142zM967 1868q0 52 -35.5 89.5t-87.5 37.5q-51 0 -86 -35t-35 -86q0 -50 34.5 -85.5
t84.5 -35.5q51 0 88 32.5t37 82.5zM1182 684l-324 668l-326 -668h650z" />
    <glyph glyph-name="AE" unicode="&#xc6;" horiz-adv-x="2678" 
d="M2515 0h-1309v541h-612l-412 -541h-155l1157 1526h1282v-144h-1123v-526h613v-139h-613v-578h1172v-139zM1206 682v666l-504 -666h504z" />
    <glyph glyph-name="Ccedilla" unicode="&#xc7;" horiz-adv-x="1896" 
d="M1743 279q-158 -147 -329 -227t-370 -87l-88 -133q25 4 74 4q77 0 129.5 -40t52.5 -115q0 -64 -40.5 -108.5t-96 -62.5t-117.5 -18q-117 0 -253 47l45 103q115 -39 188 -39q39 0 67.5 17t28.5 54q0 35 -25.5 53.5t-60.5 18.5q-42 0 -92 -16l-45 59l119 178
q-160 12 -299.5 77t-240 168.5t-158.5 246t-58 303.5q0 232 111 416t300.5 283.5t420.5 99.5q226 0 402 -70t329 -227l-95 -101q-132 135 -283.5 196.5t-344.5 61.5t-352 -81t-254 -232.5t-95 -345.5q0 -142 55.5 -265.5t149.5 -208.5t221 -133.5t267 -48.5q343 0 641 275z
" />
    <glyph glyph-name="Egrave" unicode="&#xc8;" horiz-adv-x="1744" 
d="M1055 1642h-158l-201 220h219zM1581 0h-1309v1526h1260v-144h-1122v-526h612v-139h-612v-578h1171v-139z" />
    <glyph glyph-name="Eacute" unicode="&#xc9;" horiz-adv-x="1744" 
d="M1112 1868l-203 -226h-159l139 226h223zM1581 0h-1309v1528h1260v-144h-1122v-526h612v-139h-612v-580h1171v-139z" />
    <glyph glyph-name="Ecircumflex" unicode="&#xca;" horiz-adv-x="1744" 
d="M1194 1642h-178l-101 117l-112 -117h-158l154 220h229zM1581 0h-1309v1526h1260v-144h-1122v-526h612v-139h-612v-578h1171v-139z" />
    <glyph glyph-name="Edieresis" unicode="&#xcb;" horiz-adv-x="1744" 
d="M1178 1659h-189v190h189v-190zM815 1659h-188v190h188v-190zM1581 0h-1309v1526h1260v-144h-1122v-526h612v-139h-612v-578h1171v-139z" />
    <glyph glyph-name="Igrave" unicode="&#xcc;" horiz-adv-x="757" 
d="M502 1642h-158l-201 220h219zM451 0h-136v1526h136v-1526z" />
    <glyph glyph-name="Iacute" unicode="&#xcd;" horiz-adv-x="757" 
d="M635 1868l-203 -226h-160l140 226h223zM451 0h-136v1526h136v-1526z" />
    <glyph glyph-name="Icircumflex" unicode="&#xce;" horiz-adv-x="757" 
d="M662 1642h-179l-100 117l-113 -117h-157l153 220h230zM451 0h-136v1526h136v-1526z" />
    <glyph glyph-name="Idieresis" unicode="&#xcf;" horiz-adv-x="757" 
d="M651 1659h-188v190h188v-190zM289 1659h-189v190h189v-190zM451 0h-136v1526h136v-1526z" />
    <glyph glyph-name="Eth" unicode="&#xd0;" horiz-adv-x="1896" 
d="M1710 766q0 -168 -58 -312t-157.5 -243t-234.5 -155t-287 -56h-723v721h-230v139h230v668h723q333 0 535 -209t202 -553zM1569 762q0 151 -45 271t-125.5 197.5t-189 118t-236.5 40.5h-582v-529h533v-139h-533v-582h582q123 0 229.5 39.5t189 115t130 196t47.5 272.5z
" />
    <glyph glyph-name="Ntilde" unicode="&#xd1;" horiz-adv-x="2009" 
d="M1362 1866q-3 -105 -41 -160t-135 -55q-63 0 -166.5 31.5t-147.5 31.5q-37 0 -52.5 -17.5t-20.5 -56.5h-121q4 220 176 220q59 0 158.5 -35t144.5 -35q70 0 82 76h123zM1683 0h-141l-1075 1307v-1307h-139v1528h139l1077 -1305v1305h139v-1528z" />
    <glyph glyph-name="Ograve" unicode="&#xd2;" horiz-adv-x="1972" 
d="M1116 1642h-158l-200 220h219zM1808 762q0 -225 -110 -408t-296.5 -285t-410.5 -102q-170 0 -322 60t-263 164.5t-176.5 254t-65.5 320.5q0 167 65.5 315t175.5 252.5t260.5 165t315.5 60.5q169 0 321 -59.5t263.5 -164t177 -253.5t65.5 -320zM1669 758q0 187 -91 339.5
t-246.5 238t-342.5 85.5q-137 0 -263 -48.5t-219.5 -133.5t-149.5 -207.5t-56 -261.5q0 -191 91 -343.5t247 -236.5t346 -84q139 0 264.5 48.5t218 133t147 207t54.5 263.5z" />
    <glyph glyph-name="Oacute" unicode="&#xd3;" horiz-adv-x="1972" 
d="M1214 1868l-202 -226h-160l139 226h223zM1808 762q0 -225 -110 -408t-296.5 -285t-410.5 -102q-170 0 -322 60t-263 164.5t-176.5 254t-65.5 320.5q0 167 65.5 315t175.5 252.5t260.5 165t315.5 60.5q169 0 321 -59.5t263.5 -164t177 -253.5t65.5 -320zM1669 758
q0 187 -91 339.5t-246.5 238t-342.5 85.5q-137 0 -263 -48.5t-219.5 -133.5t-149.5 -207.5t-56 -261.5q0 -191 91 -343.5t247 -236.5t346 -84q139 0 264.5 48.5t218 133t147 207t54.5 263.5z" />
    <glyph glyph-name="Ocircumflex" unicode="&#xd4;" horiz-adv-x="1972" 
d="M1255 1642h-178l-100 117l-113 -117h-157l153 220h230zM1808 762q0 -225 -110 -408t-296.5 -285t-410.5 -102q-170 0 -322 60t-263 164.5t-176.5 254t-65.5 320.5q0 167 65.5 315t175.5 252.5t260.5 165t315.5 60.5q169 0 321 -59.5t263.5 -164t177 -253.5t65.5 -320z
M1669 758q0 187 -91 339.5t-246.5 238t-342.5 85.5q-137 0 -263 -48.5t-219.5 -133.5t-149.5 -207.5t-56 -261.5q0 -191 91 -343.5t247 -236.5t346 -84q139 0 264.5 48.5t218 133t147 207t54.5 263.5z" />
    <glyph glyph-name="Otilde" unicode="&#xd5;" horiz-adv-x="1972" 
d="M1305 1866q-3 -104 -41.5 -159.5t-135.5 -55.5q-63 0 -166 31.5t-147 31.5q-37 0 -53 -17.5t-21 -56.5h-120q4 220 176 220q59 0 158.5 -35t144.5 -35q70 0 82 76h123zM1808 762q0 -225 -110 -408t-296.5 -285t-410.5 -102q-170 0 -322 60t-263 164.5t-176.5 254
t-65.5 320.5q0 167 65.5 315t175.5 252.5t260.5 165t315.5 60.5q169 0 321 -59.5t263.5 -164t177 -253.5t65.5 -320zM1669 758q0 187 -91 339.5t-246.5 238t-342.5 85.5q-137 0 -263 -48.5t-219.5 -133.5t-149.5 -207.5t-56 -261.5q0 -191 91 -343.5t247 -236.5t346 -84
q139 0 264.5 48.5t218 133t147 207t54.5 263.5z" />
    <glyph glyph-name="Odieresis" unicode="&#xd6;" horiz-adv-x="1972" 
d="M1253 1659h-188v190h188v-190zM891 1659h-189v190h189v-190zM1808 762q0 -225 -110 -408t-296.5 -285t-410.5 -102q-170 0 -322 60t-263 164.5t-176.5 254t-65.5 320.5q0 167 65.5 315t175.5 252.5t260.5 165t315.5 60.5q169 0 321 -59.5t263.5 -164t177 -253.5
t65.5 -320zM1669 758q0 187 -91 339.5t-246.5 238t-342.5 85.5q-137 0 -263 -48.5t-219.5 -133.5t-149.5 -207.5t-56 -261.5q0 -191 91 -343.5t247 -236.5t346 -84q139 0 264.5 48.5t218 133t147 207t54.5 263.5z" />
    <glyph glyph-name="multiply" unicode="&#xd7;" 
d="M1313 152l-82 -82l-322 319l-319 -319l-82 82l319 319l-319 322l82 81l319 -319l322 319l82 -81l-320 -322z" />
    <glyph glyph-name="Oslash" unicode="&#xd8;" horiz-adv-x="1972" 
d="M1808 762q0 -167 -64.5 -315.5t-174 -253t-260 -165.5t-316.5 -61q-292 0 -518 166l-217 -239l-94 83l215 240q-105 112 -160 252.5t-55 294.5q0 222 109.5 405.5t296.5 287.5t409 104q270 0 483 -142l185 205l94 -86l-180 -199q247 -247 247 -577zM1669 758
q0 134 -53 257.5t-150 219.5l-901 -1002q178 -127 422 -127q139 0 264 48.5t217 133.5t146.5 207.5t54.5 262.5zM1368 1315q-166 106 -381 106q-137 0 -262.5 -49t-219 -134t-149 -207t-55.5 -261q0 -116 47.5 -239t124.5 -212z" />
    <glyph glyph-name="Ugrave" unicode="&#xd9;" horiz-adv-x="1972" 
d="M1116 1642h-158l-200 220h219zM1665 551q0 -124 -35 -223t-96.5 -166.5t-149 -112.5t-189 -65.5t-220.5 -20.5q-144 0 -264 36t-210 106.5t-140 184.5t-50 261v975h140v-975q0 -99 27 -176t74.5 -128t117 -84t148 -47t173.5 -14q142 0 273 46.5t200 146.5q38 55 50 114.5
t12 141.5v975h139v-975z" />
    <glyph glyph-name="Uacute" unicode="&#xda;" horiz-adv-x="1972" 
d="M1214 1868l-202 -226h-160l139 226h223zM1665 551q0 -124 -35 -223t-96.5 -166.5t-149 -112.5t-189 -65.5t-220.5 -20.5q-144 0 -264 36t-210 106.5t-140 184.5t-50 261v975h140v-975q0 -99 27 -176t74.5 -128t117 -84t148 -47t173.5 -14q142 0 273 46.5t200 146.5
q38 55 50 114.5t12 141.5v975h139v-975z" />
    <glyph glyph-name="Ucircumflex" unicode="&#xdb;" horiz-adv-x="1972" 
d="M1268 1642h-178l-101 117l-112 -117h-158l153 220h230zM1665 551q0 -124 -35 -223t-96.5 -166.5t-149 -112.5t-189 -65.5t-220.5 -20.5q-144 0 -264 36t-210 106.5t-140 184.5t-50 261v975h140v-975q0 -99 27 -176t74.5 -128t117 -84t148 -47t173.5 -14q142 0 273 46.5
t200 146.5q38 55 50 114.5t12 141.5v975h139v-975z" />
    <glyph glyph-name="Udieresis" unicode="&#xdc;" horiz-adv-x="1972" 
d="M1249 1661h-188v190h188v-190zM887 1661h-189v190h189v-190zM1665 551q0 -124 -35 -223t-96.5 -166.5t-149 -112.5t-189 -65.5t-220.5 -20.5q-144 0 -264 36t-210 106.5t-140 184.5t-50 261v975h140v-975q0 -99 27 -176t74.5 -128t117 -84t148 -47t173.5 -14
q142 0 273 46.5t200 146.5q38 55 50 114.5t12 141.5v975h139v-975z" />
    <glyph glyph-name="Yacute" unicode="&#xdd;" horiz-adv-x="1593" 
d="M1092 1868l-203 -226h-160l139 226h224zM1554 1528l-682 -860v-668h-141v668l-694 860h182l584 -725l575 725h176z" />
    <glyph glyph-name="Thorn" unicode="&#xde;" horiz-adv-x="1781" 
d="M1589 780q0 -110 -43 -206t-127 -154q-48 -34 -111 -51t-109 -20t-124 -3h-676v-346h-141v1528h141v-309h744q100 0 169.5 -19t133.5 -76q71 -62 107 -153t36 -191zM1448 782q0 297 -305 297h-744v-590h676q61 0 90.5 1t81.5 10.5t84 29.5q59 37 88 106t29 146z" />
    <glyph glyph-name="germandbls" unicode="&#xdf;" horiz-adv-x="2834" 
d="M2707 297q0 -76 -32 -136t-82 -96.5t-118 -60.5t-134 -33.5t-135 -9.5q-177 0 -348 47q-93 26 -153 55t-144 87l67 126q70 -51 74 -53q99 -63 229.5 -94t261.5 -31q43 0 86.5 4t97.5 16.5t94 33t67.5 58t27.5 85.5t-21.5 83.5t-58.5 55.5t-77.5 29.5t-86.5 11.5
q-107 4 -317 8q-54 1 -105 12.5t-98.5 35t-83 57t-57 82t-21.5 106.5q0 70 29.5 126.5t76 91.5t109 58t124 32.5t124.5 9.5q146 0 288.5 -36.5t254.5 -111.5l-63 -125q-132 81 -224 106t-250 25q-50 0 -99 -6.5t-105 -23t-90.5 -54t-34.5 -90.5q0 -41 20 -72t53.5 -48
t69.5 -25.5t74 -9.5q49 -1 147.5 -3.5t147.5 -3.5q77 -2 147.5 -20.5t132 -55t98.5 -99.5t37 -144zM1274 297q0 -76 -32 -136t-82.5 -96.5t-118.5 -60.5t-134 -33.5t-135 -9.5q-177 0 -348 47q-93 26 -153 55t-144 87l68 126q4 -3 31 -23.5t42 -29.5q99 -63 230 -94t262 -31
q43 0 86.5 4t97.5 16.5t94 33t67.5 58t27.5 85.5t-21.5 83.5t-58.5 55.5t-77.5 29.5t-86.5 11.5q-106 4 -318 8q-54 1 -105 12.5t-98.5 35t-83 57t-56.5 82t-21 106.5q0 70 29.5 126.5t76 91.5t109 58t124 32.5t124.5 9.5q146 0 288 -36.5t254 -111.5l-63 -125
q-132 81 -223.5 106t-249.5 25q-39 0 -77 -3.5t-85.5 -14.5t-83 -29t-60 -51t-24.5 -76q0 -41 20 -72t53.5 -48t69.5 -25.5t74 -9.5q49 -1 147.5 -3.5t147.5 -3.5q77 -2 148 -20.5t132.5 -55t98.5 -99.5t37 -144z" />
    <glyph glyph-name="agrave" unicode="&#xe0;" horiz-adv-x="1402" 
d="M829 1178h-157l-201 219h219zM1362 0h-145l-148 264h-731l-150 -264h-145l602 1057h125zM991 403l-284 508l-289 -508h573z" />
    <glyph glyph-name="aacute" unicode="&#xe1;" horiz-adv-x="1402" 
d="M958 1403l-202 -225h-160l139 225h223zM1362 0h-145l-148 264h-731l-150 -264h-145l602 1057h125zM991 403l-284 508l-289 -508h573z" />
    <glyph glyph-name="acircumflex" unicode="&#xe2;" horiz-adv-x="1402" 
d="M985 1178h-178l-100 116l-113 -116h-158l154 219h229zM1362 0h-145l-148 264h-731l-150 -264h-145l602 1057h125zM991 403l-284 508l-289 -508h573z" />
    <glyph glyph-name="atilde" unicode="&#xe3;" horiz-adv-x="1402" 
d="M1049 1401q-3 -104 -41.5 -159.5t-135.5 -55.5q-63 0 -166 31.5t-147 31.5q-37 0 -53 -17.5t-21 -55.5h-120q4 219 176 219q59 0 158.5 -35t144.5 -35q70 0 82 76h123zM1362 0h-145l-148 264h-731l-150 -264h-145l602 1057h125zM991 403l-284 508l-289 -508h573z" />
    <glyph glyph-name="adieresis" unicode="&#xe4;" horiz-adv-x="1402" 
d="M985 1194h-188v190h188v-190zM623 1194h-189v190h189v-190zM1362 0h-145l-148 264h-731l-150 -264h-145l602 1057h125zM991 403l-284 508l-289 -508h573z" />
    <glyph glyph-name="aring" unicode="&#xe5;" horiz-adv-x="1402" 
d="M940 1403q0 -95 -68.5 -161t-162.5 -66q-97 0 -166.5 68.5t-69.5 164.5t69.5 164.5t166.5 68.5t164 -70.5t67 -168.5zM1362 0h-145l-148 264h-731l-150 -264h-145l602 1057h125zM829 1403q0 52 -35 89.5t-87 37.5q-51 0 -86 -35t-35 -86q0 -50 34.5 -85.5t84.5 -35.5
q51 0 87.5 32.5t36.5 82.5zM991 403l-284 508l-289 -508h573z" />
    <glyph glyph-name="ae" unicode="&#xe6;" horiz-adv-x="2125" 
d="M1921 0h-952v260h-566l-233 -260h-158l934 1057h952v-139h-790v-310h453v-139h-453v-328h813v-141zM969 399v502l-443 -502h443z" />
    <glyph glyph-name="ccedilla" unicode="&#xe7;" horiz-adv-x="1517" 
d="M1368 885l-80 -117q-111 93 -225 138.5t-252 45.5q-97 0 -185.5 -28.5t-157.5 -80.5t-110 -134.5t-41 -182.5q0 -86 30.5 -157t81.5 -119.5t120 -82t144 -48.5t155 -15q134 0 240.5 35.5t218.5 114.5l55 -127q-202 -157 -506 -164l-84 -115q25 2 72 2q76 0 128 -34.5
t52 -106.5q0 -49 -24.5 -84.5t-64.5 -54t-82.5 -27t-88.5 -8.5q-105 0 -242 43l45 94q111 -34 185 -34q38 0 68 16t30 51q0 31 -27 47.5t-59 16.5q-26 0 -92 -17l-45 55l118 162q-120 17 -220.5 58.5t-179 109t-123 167.5t-44.5 224q0 128 51.5 236t138.5 179t200.5 110
t238.5 39q320 0 561 -207z" />
    <glyph glyph-name="egrave" unicode="&#xe8;" horiz-adv-x="1402" 
d="M872 1178h-157l-201 219h219zM1198 0h-952v1057h930v-139h-793v-310h455v-139h-455v-328h815v-141z" />
    <glyph glyph-name="eacute" unicode="&#xe9;" horiz-adv-x="1402" 
d="M956 1403l-202 -225h-160l139 225h223zM1198 0h-952v1057h930v-139h-793v-310h455v-139h-455v-328h815v-141z" />
    <glyph glyph-name="ecircumflex" unicode="&#xea;" horiz-adv-x="1402" 
d="M991 1178h-178l-100 116l-113 -116h-158l154 219h229zM1198 0h-952v1057h930v-139h-793v-310h455v-139h-455v-328h815v-141z" />
    <glyph glyph-name="edieresis" unicode="&#xeb;" horiz-adv-x="1402" 
d="M985 1194h-188v190h188v-190zM623 1194h-189v190h189v-190zM1198 0h-952v1057h930v-139h-793v-310h455v-139h-455v-328h815v-141z" />
    <glyph glyph-name="igrave" unicode="&#xec;" horiz-adv-x="757" 
d="M496 1178h-158l-201 219h219zM455 0h-140v1057h140v-1057z" />
    <glyph glyph-name="iacute" unicode="&#xed;" horiz-adv-x="757" 
d="M633 1403l-203 -225h-160l140 225h223zM455 0h-140v1057h140v-1057z" />
    <glyph glyph-name="icircumflex" unicode="&#xee;" horiz-adv-x="757" 
d="M664 1178h-179l-100 116l-113 -116h-157l153 219h230zM455 0h-140v1057h140v-1057z" />
    <glyph glyph-name="idieresis" unicode="&#xef;" horiz-adv-x="757" 
d="M657 1194h-188v190h188v-190zM295 1194h-189v190h189v-190zM455 0h-140v1057h140v-1057z" />
    <glyph glyph-name="eth" unicode="&#xf0;" horiz-adv-x="1554" 
d="M1341 522q0 -236 -141.5 -379t-376.5 -143h-594v473h-166v139h166v445h594q110 0 184 -21.5t148 -85.5q90 -78 138 -191t48 -237zM1204 524q0 182 -121 303q-55 55 -112 73t-144 18h-460v-306h360v-139h-360v-334h456q178 0 279.5 103.5t101.5 281.5z" />
    <glyph glyph-name="ntilde" unicode="&#xf1;" horiz-adv-x="1630" 
d="M1151 1401q-3 -105 -41 -160t-135 -55q-63 0 -166 31.5t-147 31.5q-37 0 -53 -17.5t-21 -55.5h-121q4 219 176 219q59 0 158.5 -35t144.5 -35q70 0 82 76h123zM1327 0h-137l-744 848v-848h-137v1057h137l744 -842v842h137v-1057z" />
    <glyph glyph-name="ograve" unicode="&#xf2;" horiz-adv-x="1630" 
d="M918 1178h-158l-201 219h219zM1464 518q0 -106 -36 -197t-98 -156t-144.5 -111.5t-177.5 -69.5t-195 -23q-102 0 -197.5 24.5t-177 73.5t-142.5 117t-95.5 160.5t-34.5 198.5q0 102 35.5 191.5t97 156t142.5 114.5t175 72.5t191 24.5q100 0 196.5 -25t179.5 -74.5
t146 -118t99 -161t36 -197.5zM1325 518q0 103 -44.5 187.5t-118 137t-165.5 81t-190 28.5q-94 0 -183 -28t-161 -79.5t-116 -133t-44 -179.5q0 -103 43.5 -187t116.5 -136.5t164 -80.5t190 -28q97 0 186 26.5t162 76.5t116.5 131.5t43.5 183.5z" />
    <glyph glyph-name="oacute" unicode="&#xf3;" horiz-adv-x="1630" 
d="M1051 1403l-203 -225h-160l139 225h224zM1464 518q0 -106 -36 -197t-98 -156t-144.5 -111.5t-177.5 -69.5t-195 -23q-102 0 -197.5 24.5t-177 73.5t-142.5 117t-95.5 160.5t-34.5 198.5q0 102 35.5 191.5t97 156t142.5 114.5t175 72.5t191 24.5q100 0 196.5 -25
t179.5 -74.5t146 -118t99 -161t36 -197.5zM1325 518q0 103 -44.5 187.5t-118 137t-165.5 81t-190 28.5q-94 0 -183 -28t-161 -79.5t-116 -133t-44 -179.5q0 -103 43.5 -187t116.5 -136.5t164 -80.5t190 -28q97 0 186 26.5t162 76.5t116.5 131.5t43.5 183.5z" />
    <glyph glyph-name="ocircumflex" unicode="&#xf4;" horiz-adv-x="1630" 
d="M1092 1178h-179l-100 116l-113 -116h-157l153 219h230zM1464 518q0 -106 -36 -197t-98 -156t-144.5 -111.5t-177.5 -69.5t-195 -23q-102 0 -197.5 24.5t-177 73.5t-142.5 117t-95.5 160.5t-34.5 198.5q0 102 35.5 191.5t97 156t142.5 114.5t175 72.5t191 24.5
q100 0 196.5 -25t179.5 -74.5t146 -118t99 -161t36 -197.5zM1325 518q0 103 -44.5 187.5t-118 137t-165.5 81t-190 28.5q-94 0 -183 -28t-161 -79.5t-116 -133t-44 -179.5q0 -103 43.5 -187t116.5 -136.5t164 -80.5t190 -28q97 0 186 26.5t162 76.5t116.5 131.5t43.5 183.5z
" />
    <glyph glyph-name="otilde" unicode="&#xf5;" horiz-adv-x="1630" 
d="M1141 1401q-3 -105 -41 -160t-135 -55q-63 0 -166.5 31.5t-147.5 31.5q-37 0 -52.5 -17t-20.5 -56h-121q4 219 176 219q59 0 158.5 -35t144.5 -35q70 0 82 76h123zM1464 518q0 -106 -36 -197t-98 -156t-144.5 -111.5t-177.5 -69.5t-195 -23q-102 0 -197.5 24.5t-177 73.5
t-142.5 117t-95.5 160.5t-34.5 198.5q0 102 35.5 191.5t97 156t142.5 114.5t175 72.5t191 24.5q100 0 196.5 -25t179.5 -74.5t146 -118t99 -161t36 -197.5zM1325 518q0 103 -44.5 187.5t-118 137t-165.5 81t-190 28.5q-94 0 -183 -28t-161 -79.5t-116 -133t-44 -179.5
q0 -103 43.5 -187t116.5 -136.5t164 -80.5t190 -28q97 0 186 26.5t162 76.5t116.5 131.5t43.5 183.5z" />
    <glyph glyph-name="odieresis" unicode="&#xf6;" horiz-adv-x="1630" 
d="M1081 1194h-188v190h188v-190zM719 1194h-189v190h189v-190zM1464 518q0 -106 -36 -197t-98 -156t-144.5 -111.5t-177.5 -69.5t-195 -23q-102 0 -197.5 24.5t-177 73.5t-142.5 117t-95.5 160.5t-34.5 198.5q0 102 35.5 191.5t97 156t142.5 114.5t175 72.5t191 24.5
q100 0 196.5 -25t179.5 -74.5t146 -118t99 -161t36 -197.5zM1325 518q0 103 -44.5 187.5t-118 137t-165.5 81t-190 28.5q-94 0 -183 -28t-161 -79.5t-116 -133t-44 -179.5q0 -103 43.5 -187t116.5 -136.5t164 -80.5t190 -28q97 0 186 26.5t162 76.5t116.5 131.5t43.5 183.5z
" />
    <glyph glyph-name="divide" unicode="&#xf7;" 
d="M1018 797q0 -44 -32 -75.5t-75 -31.5q-44 0 -76 31.5t-32 75.5t31.5 75t74.5 31q45 0 77 -31t32 -75zM1382 414h-944v116h944v-116zM1018 150q0 -44 -32 -75.5t-75 -31.5q-44 0 -76 31.5t-32 75.5t31.5 75t74.5 31q45 0 77 -31t32 -75z" />
    <glyph glyph-name="oslash" unicode="&#xf8;" horiz-adv-x="1630" 
d="M1464 518q0 -104 -35.5 -194.5t-97 -156t-143 -112.5t-176 -70.5t-193.5 -23.5q-203 0 -370 92l-164 -182l-80 72l155 170q-92 80 -143 189.5t-51 229.5q0 126 54 233.5t143 178.5t203.5 110.5t236.5 39.5q112 0 183.5 -18.5t174.5 -71.5l156 174l80 -72l-142 -158
q98 -84 153.5 -195.5t55.5 -234.5zM1325 518q0 97 -43 181t-121 145l-614 -682q80 -36 135 -49t139 -13q96 0 184.5 26.5t160.5 77t115.5 132t43.5 182.5zM1065 895q-76 33 -128 45t-130 12q-94 0 -183.5 -28.5t-161.5 -80t-115.5 -133.5t-43.5 -180q0 -89 40.5 -171
t109.5 -144z" />
    <glyph glyph-name="ugrave" unicode="&#xf9;" horiz-adv-x="1630" 
d="M942 1178h-158l-200 219h219zM1331 412q0 -116 -38.5 -202t-108.5 -137.5t-161 -76.5t-204 -25q-91 0 -167 14.5t-141 48t-110 84t-70.5 125t-25.5 169.5v645h139v-645q0 -88 28.5 -148.5t82 -93t118 -46t150.5 -13.5q83 0 147 14.5t116 47t80 93t28 146.5v645h137v-645z
" />
    <glyph glyph-name="uacute" unicode="&#xfa;" horiz-adv-x="1630" 
d="M1051 1403l-203 -225h-160l139 225h224zM1331 412q0 -116 -38.5 -202t-108.5 -137.5t-161 -76.5t-204 -25q-91 0 -167 14.5t-141 48t-110 84t-70.5 125t-25.5 169.5v645h139v-645q0 -88 28.5 -148.5t82 -93t118 -46t150.5 -13.5q83 0 147 14.5t116 47t80 93t28 146.5v645
h137v-645z" />
    <glyph glyph-name="ucircumflex" unicode="&#xfb;" horiz-adv-x="1630" 
d="M1079 1178h-178l-100 116l-113 -116h-158l154 219h229zM1331 412q0 -116 -38.5 -202t-108.5 -137.5t-161 -76.5t-204 -25q-91 0 -167 14.5t-141 48t-110 84t-70.5 125t-25.5 169.5v645h139v-645q0 -88 28.5 -148.5t82 -93t118 -46t150.5 -13.5q83 0 147 14.5t116 47
t80 93t28 146.5v645h137v-645z" />
    <glyph glyph-name="udieresis" unicode="&#xfc;" horiz-adv-x="1630" 
d="M1087 1194h-188v190h188v-190zM725 1194h-188v190h188v-190zM1331 412q0 -116 -38.5 -202t-108.5 -137.5t-161 -76.5t-204 -25q-91 0 -167 14.5t-141 48t-110 84t-70.5 125t-25.5 169.5v645h139v-645q0 -88 28.5 -148.5t82 -93t118 -46t150.5 -13.5q83 0 147 14.5t116 47
t80 93t28 146.5v645h137v-645z" />
    <glyph glyph-name="yacute" unicode="&#xfd;" horiz-adv-x="1175" 
d="M858 1403l-203 -225h-159l139 225h223zM1143 1057l-481 -533v-524h-142v524l-479 533h182l369 -406l366 406h185z" />
    <glyph glyph-name="thorn" unicode="&#xfe;" horiz-adv-x="1441" 
d="M1286 530q0 -164 -102.5 -244.5t-272.5 -80.5h-510v-205h-139v1057h139v-193h510q171 0 273 -83.5t102 -250.5zM1149 528q0 108 -62.5 151.5t-175.5 43.5h-510v-379h510q112 0 175 39.5t63 144.5z" />
    <glyph glyph-name="ydieresis" unicode="&#xff;" horiz-adv-x="1175" 
d="M862 1194h-188v190h188v-190zM500 1194h-189v190h189v-190zM1143 1057l-481 -533v-524h-142v524l-479 533h182l369 -406l366 406h185z" />
    <glyph glyph-name="dotlessi" unicode="&#x131;" horiz-adv-x="757" 
d="M455 0h-140v1057h140v-1057z" />
    <glyph glyph-name="Lslash" unicode="&#x141;" horiz-adv-x="1478" 
d="M1399 0h-1137v553l-160 -113l-75 107l235 164v815h139v-717l392 272l73 -106l-465 -326v-508h998v-141z" />
    <glyph glyph-name="lslash" unicode="&#x142;" horiz-adv-x="1175" 
d="M1079 0h-827v397l-96 -69l-66 92l162 112v525h137v-428l197 139l65 -92l-262 -182v-355h690v-139z" />
    <glyph glyph-name="OE" unicode="&#x152;" horiz-adv-x="2650" 
d="M2486 0h-1194q-20 0 -104 -16.5t-191 -16.5q-386 0 -609.5 208t-223.5 587t221 586.5t604 207.5q96 0 164 -14t78 -14h1206v-144h-1122v-524h612v-139h-612v-582h1171v-139zM1178 127v1268q-79 24 -181 24q-211 0 -366 -72.5t-242.5 -221t-87.5 -359.5q0 -318 184 -489
t496 -171q119 0 197 21z" />
    <glyph glyph-name="oe" unicode="&#x153;" horiz-adv-x="2129" 
d="M1925 0h-840q-12 0 -39.5 -9.5t-85 -19.5t-143.5 -10q-141 0 -258 34.5t-205.5 102.5t-138 177t-49.5 251q0 138 49 246.5t136.5 177.5t202.5 104.5t251 35.5q90 0 162.5 -16.5t83.5 -16.5h852v-139h-791v-310h453v-139h-453v-328h813v-141zM973 119v809q-95 20 -170 20
q-88 0 -162.5 -14t-137.5 -46t-107 -80.5t-68.5 -120t-24.5 -161.5q0 -110 39 -193t110.5 -133.5t164.5 -75t208 -24.5q79 0 148 19z" />
    <glyph glyph-name="Scaron" unicode="&#x160;" horiz-adv-x="1705" 
d="M1145 1862l-164 -220h-229l-156 220h156l112 -117l101 117h180zM1595 438q0 -78 -25.5 -144t-69 -114t-103.5 -85.5t-126 -61.5t-140 -39.5t-141 -22t-134 -6.5q-206 0 -389 66q-108 38 -184 93t-177 155l97 100q146 -149 299.5 -211t365.5 -62q70 0 140.5 7.5
t153.5 29.5t145.5 57t104.5 96t42 140q0 57 -22.5 105t-58 80t-82 55.5t-91.5 35t-90 15.5q-37 4 -107 5.5t-166.5 1.5t-129.5 1q-73 1 -140 13.5t-132 40t-112.5 68.5t-76.5 104.5t-29 142.5q0 83 32.5 154t89 122t124.5 86.5t147 57.5q129 37 289 37q172 0 316 -54.5
t292 -165.5l-86 -104q-156 100 -272 143t-275 43q-114 0 -196 -20q-58 -13 -111.5 -37t-102.5 -59.5t-78.5 -87.5t-29.5 -113q0 -54 22.5 -95.5t57 -66.5t83.5 -41t93.5 -22t94.5 -7q20 -1 184 -4t231 -8q98 -8 182.5 -39t150 -82.5t103 -129.5t37.5 -173z" />
    <glyph glyph-name="scaron" unicode="&#x161;" horiz-adv-x="1402" 
d="M981 1397l-164 -219h-229l-156 219h156l112 -117l101 117h180zM1274 297q0 -76 -32 -136t-82.5 -96.5t-118.5 -60.5t-134 -33.5t-135 -9.5q-177 0 -348 47q-93 26 -153 55t-144 87l68 126q4 -3 31 -23.5t42 -29.5q99 -63 230 -94t262 -31q43 0 86.5 4t97.5 16.5t94 33
t67.5 58t27.5 85.5t-21.5 83.5t-58.5 55.5t-77.5 29.5t-86.5 11.5q-106 4 -318 8q-54 1 -105 12.5t-98.5 35t-83 57t-56.5 82t-21 106.5q0 70 29.5 126.5t76 91.5t109 58t124 32.5t124.5 9.5q146 0 288 -36.5t254 -111.5l-63 -125q-132 81 -223.5 106t-249.5 25
q-39 0 -77 -3.5t-85.5 -14.5t-83 -29t-60 -51t-24.5 -76q0 -41 20 -72t53.5 -48t69.5 -25.5t74 -9.5q49 -1 147.5 -3.5t147.5 -3.5q77 -2 148 -20.5t132.5 -55t98.5 -99.5t37 -144z" />
    <glyph glyph-name="Ydieresis" unicode="&#x178;" horiz-adv-x="1593" 
d="M1067 1659h-188v190h188v-190zM705 1659h-189v190h189v-190zM1554 1526l-682 -860v-666h-141v666l-694 860h182l584 -725l575 725h176z" />
    <glyph glyph-name="Zcaron" unicode="&#x17d;" horiz-adv-x="1402" 
d="M1028 1862l-164 -220h-229l-156 220h156l113 -117l100 117h180zM1376 0h-1261l-76 147l1135 1242h-1051v139h1163l80 -146l-1141 -1237h1151v-145z" />
    <glyph glyph-name="zcaron" unicode="&#x17e;" horiz-adv-x="1099" 
d="M866 1397l-164 -219h-229l-156 219h156l113 -117l100 117h180zM1061 0h-938l-82 127l793 788h-740v142h871l79 -125l-792 -791h809v-141z" />
    <glyph glyph-name="florin" unicode="&#x192;" horiz-adv-x="1441" 
d="M1212 1358l-20 -117q-64 8 -135 8q-67 0 -112.5 -12t-73.5 -39t-42.5 -61.5t-23.5 -87.5l-17 -99h326l-18 -121h-326l-82 -587q-24 -172 -54 -273t-61.5 -144.5t-83.5 -74.5q-46 -29 -126 -39t-242 -10l43 133q24 -4 92 -4q155 0 207 94q49 87 82 326l80 579h-281l23 121
h274l25 133q27 143 119.5 214t240.5 71q61 0 186 -10z" />
    <glyph glyph-name="circumflex" unicode="&#x2c6;" horiz-adv-x="757" 
d="M653 1178h-178l-100 116l-113 -116h-158l154 219h229z" />
    <glyph glyph-name="caron" unicode="&#x2c7;" horiz-adv-x="757" 
d="M653 1397l-164 -219h-229l-156 219h156l113 -117l100 117h180z" />
    <glyph glyph-name="uni02C9" unicode="&#x2c9;" horiz-adv-x="757" 
d="M655 1229h-553v121h553v-121z" />
    <glyph glyph-name="breve" unicode="&#x2d8;" horiz-adv-x="757" 
d="M682 1411q-3 -124 -87 -179.5t-216 -55.5t-216 55.5t-87 179.5h145q8 -64 50.5 -86t115.5 -22q140 0 150 108h145z" />
    <glyph glyph-name="dotaccent" unicode="&#x2d9;" horiz-adv-x="757" 
d="M473 1194h-188v190h188v-190z" />
    <glyph glyph-name="ring" unicode="&#x2da;" horiz-adv-x="757" 
d="M612 1403q0 -95 -68.5 -161t-162.5 -66q-97 0 -166.5 68.5t-69.5 164.5t69.5 164.5t166.5 68.5t164 -70.5t67 -168.5zM502 1403q0 52 -35.5 89.5t-87.5 37.5q-51 0 -86 -35t-35 -86q0 -50 34.5 -85.5t84.5 -35.5q51 0 88 32.5t37 82.5z" />
    <glyph glyph-name="ogonek" unicode="&#x2db;" horiz-adv-x="757" 
d="M614 -307q-46 -43 -110 -68.5t-127 -25.5q-71 0 -119.5 42.5t-48.5 112.5q0 59 23 110.5t64.5 91.5t85 69t99.5 57l19 -31q-125 -155 -125 -272q0 -41 23.5 -64.5t64.5 -23.5q70 0 129 43z" />
    <glyph glyph-name="tilde" unicode="&#x2dc;" horiz-adv-x="757" 
d="M721 1401q-3 -105 -41 -160t-135 -55q-63 0 -166.5 31.5t-147.5 31.5q-37 0 -52.5 -17t-20.5 -56h-121q4 219 176 219q59 0 158.5 -35t144.5 -35q70 0 82 76h123z" />
    <glyph glyph-name="hungarumlaut" unicode="&#x2dd;" horiz-adv-x="757" 
d="M723 1401l-203 -225h-162l140 225h225zM397 1401l-200 -225h-162l139 225h223z" />
    <glyph glyph-name="uni03A9" unicode="&#x3a9;" horiz-adv-x="1982" 
d="M1888 0h-645v119q500 271 500 661q0 108 -47.5 206.5t-137 177t-234.5 125t-325 46.5q-150 0 -285 -38.5t-238 -108t-163.5 -175.5t-60.5 -233q0 -86 24 -166.5t67.5 -145t92 -118t110 -99t108.5 -75t100 -57.5v-119h-650v119h465q-68 36 -127 77.5t-123.5 104
t-110 132.5t-75 164t-29.5 198q0 195 115 346.5t318 234t460 82.5q215 0 387.5 -52.5t281.5 -143t166.5 -209t57.5 -254.5q0 -96 -29.5 -188.5t-77.5 -165.5t-111.5 -137.5t-128.5 -110t-132 -78.5h477v-119z" />
    <glyph glyph-name="uni03BC" unicode="&#x3bc;" horiz-adv-x="1630" 
d="M1331 0h-137v111q-48 -50 -148.5 -95t-232.5 -45q-145 0 -227 32t-142 97v-399h-139v1356h139v-649q0 -88 27.5 -148t80.5 -91.5t116 -44.5t149 -13q76 0 141 16t119.5 49.5t85.5 92.5t31 139v649h137v-1057z" />
    <glyph glyph-name="pi" unicode="&#x3c0;" horiz-adv-x="2193" 
d="M1888 117l31 -103q-74 -28 -158 -28q-282 0 -282 282v643h-742v-645q0 -154 -39 -266h-143q41 109 41 268v643q-77 -3 -165.5 -21.5t-151.5 -45.5q-3 7 -22 50t-24 56q65 29 173 51.5t202 22.5h1317v-113h-305v-630q0 -183 178 -183q42 0 90 19z" />
    <glyph glyph-name="endash" unicode="&#x2013;" horiz-adv-x="1024" 
d="M1034 467h-1044v117h1044v-117z" />
    <glyph glyph-name="emdash" unicode="&#x2014;" horiz-adv-x="2048" 
d="M2060 467h-2070v117h2070v-117z" />
    <glyph glyph-name="uni2015" unicode="&#x2015;" horiz-adv-x="2048" 
d="M2048 -51h-2048l2 51h2046v-51z" />
    <glyph glyph-name="quoteleft" unicode="&#x2018;" horiz-adv-x="796" 
d="M522 1120q0 -44 -36.5 -75t-82.5 -31q-75 0 -122.5 64t-47.5 145q0 57 13.5 103.5t42 84t54.5 63t69 58.5q36 29 49 29q11 0 21 -13t10 -26q0 -11 -37 -33q-48 -33 -85.5 -85t-37.5 -101q0 -50 69 -50q53 0 87 -38.5t34 -94.5z" />
    <glyph glyph-name="quoteright" unicode="&#x2019;" horiz-adv-x="796" 
d="M561 1352q0 -57 -13.5 -103.5t-41.5 -84.5t-54.5 -63.5t-68.5 -58.5q-35 -28 -49 -28q-11 0 -21 13t-10 26q0 4 2.5 8t7.5 7.5t9.5 6.5t10.5 6t7 4q48 33 85.5 85.5t37.5 101.5t-70 49q-53 0 -87 38.5t-34 94.5q0 44 36.5 75.5t82.5 31.5q75 0 122.5 -64t47.5 -145z" />
    <glyph glyph-name="quotesinglbase" unicode="&#x201a;" horiz-adv-x="796" 
d="M543 16q0 -57 -13.5 -103.5t-41.5 -84t-54.5 -63t-68.5 -58.5q-36 -29 -50 -29q-10 0 -20 12.5t-10 26.5q0 11 37 33q48 33 85 85.5t37 101.5t-69 49q-53 0 -87 38.5t-34 94.5q0 44 36.5 75t82.5 31q75 0 122.5 -64t47.5 -145z" />
    <glyph glyph-name="quotedblleft" unicode="&#x201c;" horiz-adv-x="1366" 
d="M1061 1120q0 -44 -36.5 -75t-82.5 -31q-75 0 -122.5 64t-47.5 145q0 57 13.5 103.5t41.5 84t54.5 63t68.5 58.5q36 29 49 29q11 0 21 -13t10 -26q0 -11 -37 -33q-48 -33 -85.5 -85t-37.5 -101q0 -50 70 -50q53 0 87 -38.5t34 -94.5zM586 1120q0 -44 -36.5 -75t-82.5 -31
q-75 0 -122.5 64t-47.5 145q0 57 13.5 103.5t41.5 84t54.5 63t68.5 58.5q36 29 49 29q11 0 21 -13t10 -26q0 -11 -37 -33q-48 -33 -85.5 -85t-37.5 -101q0 -50 70 -50q53 0 86 -38t33 -95h2z" />
    <glyph glyph-name="quotedblright" unicode="&#x201d;" horiz-adv-x="1366" 
d="M1077 1352q0 -57 -13.5 -103.5t-41.5 -84.5t-54.5 -63.5t-68.5 -58.5q-35 -28 -49 -28q-11 0 -21 13t-10 26q0 4 2.5 8t7.5 7.5t9.5 6.5t10.5 6t7 4q48 33 85.5 85.5t37.5 101.5t-70 49q-53 0 -87 38.5t-34 94.5q0 44 36.5 75.5t82.5 31.5q75 0 122.5 -64t47.5 -145z
M602 1352q0 -57 -13.5 -103.5t-41.5 -84.5t-54.5 -63.5t-68.5 -58.5q-35 -28 -49 -28q-11 0 -21 13t-10 26q0 4 2.5 8t7.5 7.5t9.5 6.5t10.5 6t7 4q48 33 85.5 85.5t37.5 101.5t-70 49q-53 0 -87 38.5t-34 94.5q0 44 36.5 75.5t82.5 31.5q75 0 121.5 -64t46.5 -145h2z" />
    <glyph glyph-name="quotedblbase" unicode="&#x201e;" horiz-adv-x="1366" 
d="M1063 16q0 -57 -13.5 -103.5t-41.5 -84t-54.5 -63t-68.5 -58.5q-36 -29 -49 -29q-11 0 -21 13t-10 26q0 11 37 33q48 33 85.5 85.5t37.5 101.5t-70 49q-53 0 -87 38.5t-34 94.5q0 44 36.5 75t82.5 31q75 0 122.5 -64t47.5 -145zM588 16q0 -57 -13.5 -103.5t-41.5 -84
t-54.5 -63t-68.5 -58.5q-36 -29 -50 -29q-10 0 -20 12.5t-10 26.5q0 11 37 33q48 33 85 85.5t37 101.5t-69 49q-53 0 -87 38.5t-34 94.5q0 44 36.5 75t82.5 31q75 0 121.5 -64t46.5 -145h2z" />
    <glyph glyph-name="dagger" unicode="&#x2020;" horiz-adv-x="1214" 
d="M1055 954h-379v-954h-135v954h-381v140h379v432h135v-432h381v-140z" />
    <glyph glyph-name="daggerdbl" unicode="&#x2021;" horiz-adv-x="1214" 
d="M1055 358h-379v-360h-135v360h-381v140h381v538h-381v140h379v350h135v-350h381v-140h-381v-538h381v-140z" />
    <glyph glyph-name="bullet" unicode="&#x2022;" horiz-adv-x="1024" 
d="M752 762q0 -98 -70 -167t-168 -69t-168 69t-70 167t70 168.5t168 70.5t168 -70.5t70 -168.5z" />
    <glyph glyph-name="ellipsis" unicode="&#x2026;" horiz-adv-x="2275" 
d="M2028 94q0 -53 -39.5 -91t-92.5 -38q-54 0 -92.5 37.5t-38.5 91.5t37.5 92.5t91.5 38.5q55 0 94.5 -38.5t39.5 -92.5zM1270 94q0 -53 -39 -91t-92 -38q-54 0 -92.5 37.5t-38.5 91.5t37.5 92.5t91.5 38.5q55 0 93 -38.5t38 -92.5h2zM510 94q0 -53 -39 -91t-92 -38
q-54 0 -92.5 37.5t-38.5 91.5t37.5 92.5t91.5 38.5q55 0 93 -38.5t38 -92.5h2z" />
    <glyph glyph-name="perthousand" unicode="&#x2030;" horiz-adv-x="3614" 
d="M3475 395q0 -98 -43 -180t-114 -135t-160 -82t-184 -29t-184.5 29t-161 81.5t-115 135t-43.5 180.5t43.5 179.5t115 134t161 81.5t184.5 29q94 0 183 -29t160.5 -82t114.5 -134.5t43 -178.5zM2359 395q0 -98 -43 -180t-114 -135t-160 -82t-184 -29t-184.5 29t-161 81.5
t-115 135t-43.5 180.5t43.5 179.5t115 134t161 81.5t184.5 29q94 0 183 -29t159.5 -82t113.5 -134.5t43 -178.5h2zM1890 1470l-1134 -1550h-166l1134 1550h166zM1128 944q0 -98 -43 -180t-114 -135t-160 -82t-184 -29t-184.5 29t-161 81.5t-115 135t-43.5 180.5t43.5 179.5
t115 134t161 81.5t184.5 29q94 0 183 -29t160.5 -82t114.5 -134.5t43 -178.5zM3324 395q0 88 -51 156t-130 102.5t-169 34.5q-142 0 -246.5 -81t-104.5 -212q0 -132 104.5 -212.5t246.5 -80.5t246 80.5t104 212.5zM2208 395q0 88 -51 156t-130 102.5t-169 34.5
q-142 0 -246.5 -81t-104.5 -212q0 -132 104.5 -212.5t246.5 -80.5q91 0 169.5 34t128.5 102t50 157h2zM977 944q0 88 -51 156t-130 102.5t-169 34.5t-169.5 -34.5t-130.5 -102.5t-51 -156q0 -132 104.5 -212.5t246.5 -80.5q91 0 169.5 34t128.5 102t50 157h2z" />
    <glyph glyph-name="guilsinglleft" unicode="&#x2039;" horiz-adv-x="645" 
d="M535 137h-148l-274 402l274 395h148l-236 -395z" />
    <glyph glyph-name="guilsinglright" unicode="&#x203a;" horiz-adv-x="645" 
d="M532 539l-274 -402h-147l235 402l-235 395h147z" />
    <glyph glyph-name="fraction" unicode="&#x2044;" horiz-adv-x="612" 
d="M948 1427l-1075 -1474h-152l1074 1474h153z" />
    <glyph glyph-name="Euro" unicode="&#x20ac;" 
d="M1694 246q-151 -141 -310 -211t-350 -70q-243 0 -433.5 139.5t-258.5 362.5h-227l18 100h184q-4 54 -4 97q0 47 2 65h-200l22 105h197q59 238 254 386t454 148q198 0 354 -62.5t292 -205.5l-95 -101q-117 120 -247 174t-293 54q-203 0 -360 -107.5t-214 -285.5h803
l-22 -105h-803q-4 -36 -4 -65q0 -61 8 -97h770l-23 -100h-714q63 -161 213 -259.5t335 -98.5q294 0 555 239z" />
    <glyph glyph-name="uni2105" unicode="&#x2105;" horiz-adv-x="1781" 
d="M1769 305q0 -152 -117.5 -245t-293.5 -93q-177 0 -292.5 96.5t-115.5 262.5q0 55 27.5 111.5t77.5 103.5t129 76.5t172 29.5q180 0 296.5 -101t116.5 -241zM1536 1569l-1165 -1641l-113 -2l1167 1643h111zM784 1440l-59 -86q-74 55 -111 73q-81 39 -186 39
q-130 0 -207.5 -69t-77.5 -168q0 -97 79.5 -167.5t221.5 -70.5q69 0 126 14.5t84 29t72 43.5q7 5 11 7l43 -90q-48 -31 -73 -45.5t-66.5 -31.5t-87 -23t-107.5 -6q-192 0 -303.5 99t-111.5 245q0 67 24.5 124t65 95.5t92.5 65t106 39t107 12.5q58 0 112 -10.5t88.5 -23.5
t71.5 -34.5t50.5 -32t35.5 -28.5zM1657 301q0 105 -83.5 174.5t-217.5 69.5q-130 0 -211.5 -70.5t-81.5 -159.5q0 -108 81.5 -176.5t215.5 -68.5q138 0 217.5 66t79.5 165z" />
    <glyph glyph-name="afii61289" unicode="&#x2113;" horiz-adv-x="1400" 
d="M1155 143q-177 -170 -373 -170q-143 0 -219 86q-69 74 -69 228v231q-80 -74 -164 -149q-9 14 -31 42t-31 42q142 127 226 200v457q0 173 74 277t212 104q52 0 93.5 -16.5t65.5 -40.5t40 -55.5t21.5 -58t5.5 -50.5q0 -135 -65.5 -253.5t-195.5 -254.5q-8 -9 -53.5 -60
t-62.5 -69v-342q0 -97 46 -152t140 -55q131 0 270 139q23 -25 70 -80zM883 1235q0 77 -29.5 111t-71.5 34q-153 0 -153 -266v-342q63 72 102 129q71 94 111.5 184.5t40.5 149.5z" />
    <glyph glyph-name="trademark" unicode="&#x2122;" horiz-adv-x="1517" 
d="M1370 936h-94v420l-229 -352l-230 352v-420h-94v592h96l228 -363l229 363h94v-592zM610 1440h-211v-504h-94v504h-213v88h518v-88z" />
    <glyph glyph-name="Omega" unicode="&#x2126;" horiz-adv-x="1982" 
d="M1888 0h-645v119q500 271 500 661q0 108 -47.5 206.5t-137 177t-234.5 125t-325 46.5q-150 0 -285 -38.5t-238 -108t-163.5 -175.5t-60.5 -233q0 -86 24 -166.5t67.5 -145t92 -118t110 -99t108.5 -75t100 -57.5v-119h-650v119h465q-68 36 -127 77.5t-123.5 104
t-110 132.5t-75 164t-29.5 198q0 195 115 346.5t318 234t460 82.5q215 0 387.5 -52.5t281.5 -143t166.5 -209t57.5 -254.5q0 -96 -29.5 -188.5t-77.5 -165.5t-111.5 -137.5t-128.5 -110t-132 -78.5h477v-119z" />
    <glyph glyph-name="estimated" unicode="&#x212e;" horiz-adv-x="1665" 
d="M1626 795h-1218v-553q189 -179 432 -179q71 0 134.5 11.5t111.5 28.5t94.5 47.5t78.5 57t68.5 69.5t58 72.5t54.5 76.5q17 -9 46 -27.5t38 -23.5q-45 -73 -89.5 -128t-105.5 -108.5t-129.5 -87.5t-160.5 -55t-199 -21q-223 0 -401 114t-273.5 301t-95.5 407
q0 135 34.5 258.5t102 226t161 178.5t219 118t269.5 42q175 0 323 -67.5t245.5 -181t150.5 -263t51 -313.5zM1288 883v475q-80 70 -198 121t-234 51q-130 0 -247.5 -44.5t-200.5 -129.5v-473h880z" />
    <glyph glyph-name="onethird" unicode="&#x2153;" horiz-adv-x="2048" 
d="M1853 244q0 -57 -25 -103t-65 -75t-92 -48.5t-103 -27.5t-102 -8q-250 0 -448 143l67 104q189 -125 394 -125q32 0 70.5 6.5t80 21t69 44t27.5 68.5q0 28 -15.5 50.5t-41.5 33.5q-47 26 -109 35.5t-192 9.5v123q16 0 48.5 -3.5t49.5 -3.5q29 0 59 3.5t69.5 13t64 33
t24.5 57.5q0 30 -25.5 53.5t-62 35.5t-70 18t-57.5 6q-81 0 -142 -18.5t-150 -61.5l-60 108q108 53 178.5 73.5t171.5 20.5q56 0 114 -14t110.5 -41t86 -75t33.5 -109q0 -88 -77 -156q59 -42 89.5 -86.5t30.5 -105.5zM1421 1427l-1075 -1474h-151l1071 1474h155zM410 532
h-127v818h127v-818z" />
    <glyph glyph-name="uni2160" unicode="&#x2160;" horiz-adv-x="720" 
d="M430 0h-139v1368h139v-1368z" />
    <glyph glyph-name="uni2164" unicode="&#x2164;" horiz-adv-x="1441" 
d="M1434 1368l-646 -1368h-141l-639 1368h160l553 -1208l553 1208h160z" />
    <glyph glyph-name="uni2169" unicode="&#x2169;" horiz-adv-x="1290" 
d="M1288 0h-170l-432 610l-432 -610h-168l514 731l-446 637h168l364 -516l363 516h172l-451 -637z" />
    <glyph glyph-name="partialdiff" unicode="&#x2202;" horiz-adv-x="1701" 
d="M1489 915q0 -202 -57 -354q-44 -125 -112.5 -230t-159.5 -186t-209 -126.5t-249 -45.5q-217 0 -357 125.5t-140 331.5q0 97 24.5 179.5t65.5 141.5t97.5 106t117.5 76.5t129 49t128.5 27.5t119.5 8q173 0 293 -67t159 -158h7q4 33 4 116q0 89 -28.5 171t-82.5 148.5
t-140 106t-192 39.5q-80 0 -169 -24.5t-148 -63.5q-23 42 -51 100q62 39 164 71t233 32q156 0 282 -72t198.5 -203.5t72.5 -298.5zM1317 647q-13 46 -43 89.5t-78 83t-121.5 63.5t-161.5 24t-168 -16t-153.5 -52.5t-127.5 -89.5t-86 -133.5t-32 -179.5q0 -143 99.5 -245.5
t265.5 -102.5q204 0 374 159t232 400z" />
    <glyph glyph-name="Delta" unicode="&#x2206;" horiz-adv-x="1902" 
d="M1755 0h-1622v74q121 227 363.5 680t363.5 680h166q122 -228 364.5 -680t364.5 -680v-74zM1571 127q-535 997 -580 1081q-11 21 -19 41.5t-15 42.5t-11 31h-8q-26 -75 -47 -111q-96 -181 -291 -542.5t-291 -542.5h1262z" />
    <glyph glyph-name="product" unicode="&#x220f;" horiz-adv-x="2148" 
d="M1890 -471h-143v1782h-1346v-1782h-143v1905h1632v-1905z" />
    <glyph glyph-name="summation" unicode="&#x2211;" horiz-adv-x="1849" 
d="M1817 -471h-1788v63l1056 897q-166 145 -497.5 435t-497.5 434v76h1659v-119h-1405q156 -137 468 -413t468 -413q-121 -104 -460.5 -392.5t-524.5 -448.5h1522v-119z" />
    <glyph glyph-name="minus" unicode="&#x2212;" 
d="M1382 414h-944v116h944v-116z" />
    <glyph glyph-name="uni2215" unicode="&#x2215;" horiz-adv-x="612" 
d="M948 1427l-1075 -1474h-152l1074 1474h153z" />
    <glyph glyph-name="uni2219" unicode="&#x2219;" horiz-adv-x="757" 
d="M510 668q0 -53 -39 -91t-92 -38q-54 0 -92.5 37.5t-38.5 91.5t37.5 92.5t91.5 38.5q55 0 94 -38.5t39 -92.5z" />
    <glyph glyph-name="radical" unicode="&#x221a;" horiz-adv-x="1755" 
d="M1651 1493q-337 -759 -672 -1518h-92q-430 687 -461 736q-25 -16 -75 -50l-75 -51q-3 7 -16 35t-20 45q19 13 103 69t130 87q50 -79 210.5 -337t248.5 -398q57 130 271.5 623t330.5 759h117z" />
    <glyph glyph-name="infinity" unicode="&#x221e;" horiz-adv-x="2398" 
d="M2257 608q0 -81 -27 -154t-80.5 -134t-146.5 -97.5t-213 -36.5q-169 0 -320 90.5t-264 245.5h-4q-120 -162 -273.5 -249t-320.5 -87q-116 0 -207 34t-145 92t-81.5 129.5t-27.5 152.5q0 87 28 163t83 134.5t143.5 92.5t200.5 34q348 0 600 -338h4q48 64 106.5 121
t131.5 107.5t160.5 80t177.5 29.5q220 0 347.5 -110.5t127.5 -299.5zM2134 598q0 63 -18 115.5t-56 97.5t-106.5 70.5t-161.5 25.5q-280 0 -524 -305q103 -142 241.5 -223.5t286.5 -81.5q92 0 160 26.5t105.5 71t55 95.5t17.5 108zM1137 600q-102 152 -247 229.5t-288 77.5
q-160 0 -246 -87.5t-86 -223.5q0 -130 95 -215.5t237 -85.5q147 0 287.5 81t247.5 224z" />
    <glyph glyph-name="integral" unicode="&#x222b;" horiz-adv-x="1384" 
d="M1178 1384q-68 33 -154 33q-134 0 -199 -69t-65 -189v-1294q0 -104 -31.5 -181t-87 -119.5t-121.5 -62.5t-145 -20q-52 0 -114 10t-95 25q30 93 35 110q75 -30 164 -30q124 0 188.5 67.5t64.5 192.5v1298q0 186 102 282.5t277 96.5q57 0 119 -12.5t98 -28.5
q-2 -8 -16 -47.5t-20 -61.5z" />
    <glyph glyph-name="approxequal" unicode="&#x2248;" 
d="M1526 870q-76 -89 -159.5 -139.5t-203.5 -50.5q-127 0 -270 82q-147 82 -244 82q-141 0 -268 -158l-86 84q40 45 70.5 74t74 58.5t94.5 44t111 14.5q142 0 277 -78q143 -86 247 -86q139 0 271 155zM1526 432q-76 -89 -159.5 -139.5t-203.5 -50.5q-127 0 -270 82
q-147 82 -244 82q-141 0 -268 -158l-86 84q40 45 70.5 74t73.5 58.5t94.5 43.5t111.5 14q142 0 277 -78q143 -86 247 -86q138 0 271 156z" />
    <glyph glyph-name="notequal" unicode="&#x2260;" 
d="M1489 322h-678l-174 -320h-129l172 320h-350v116h422l178 326h-600v117h667l177 321h126l-174 -321h363v-117h-432l-178 -326h610v-116z" />
    <glyph glyph-name="lessequal" unicode="&#x2264;" 
d="M1489 0h-1159v117h1159v-117zM1489 262l-1159 459v63l1159 457v-127l-918 -356v-6l918 -361v-129z" />
    <glyph glyph-name="greaterequal" unicode="&#x2265;" 
d="M1489 0h-1159v117h1159v-117zM1489 719l-1159 -457v129l919 354v7l-919 362v127l1159 -459v-63z" />
    <glyph glyph-name="lozenge" unicode="&#x25ca;" horiz-adv-x="1726" 
d="M1599 717q-114 -120 -344.5 -358.5t-345.5 -358.5h-82q-684 711 -688 715q226 234 688 719h82q115 -120 345.5 -358.5t344.5 -358.5zM1446 715q-446 473 -576 614q-98 -103 -289.5 -307t-289.5 -307q87 -91 183.5 -193.5t214 -228t181.5 -193.5q95 102 288 307t288 308z
" />
    <glyph glyph-name="A.alt" unicode="&#xe000;" horiz-adv-x="1705" 
d="M1686 0h-156l-268 545h-791l-268 -545q-30 -61 -52 -99t-61 -86.5t-80.5 -76t-104 -47t-138.5 -19.5q-23 0 -66.5 4t-58.5 5l6 133q16 0 50 -4.5t50 -4.5q72 0 121.5 16.5t90.5 64t64 87.5t68 132q3 5 4 8l701 1423h139zM1190 684l-324 696l-325 -696h649z" />
    <glyph glyph-name="Dquote" unicode="&#xe001;" horiz-adv-x="2426" 
d="M2234 1356q0 -63 -23.5 -121.5t-57 -98t-69.5 -69t-62.5 -43.5t-34.5 -14q-6 0 -11.5 5.5t-5.5 14.5q0 6 18.5 21t45 36t53 48.5t45 67t18.5 81.5q0 20 -25 25.5t-62.5 8t-55.5 13.5q-40 26 -57 50t-17 75q0 52 37.5 82.5t91.5 30.5q64 0 118 -59t54 -154zM1694 768
q0 -105 -29 -212.5t-88 -207t-140 -177.5t-193 -124.5t-238 -46.5h-764v1536h764q127 0 238.5 -45t192.5 -121t140 -175t88 -208.5t29 -218.5zM1554 768q0 81 -22.5 167t-69 168.5t-110 148t-154 105.5t-192.5 40h-625v-1258h625q121 0 226 56.5t174 147t108.5 202
t39.5 223.5z" />
    <glyph glyph-name="Oquote" unicode="&#xe002;" horiz-adv-x="2502" 
d="M2320 1356q0 -63 -23.5 -121.5t-57 -98t-69.5 -69t-62.5 -43.5t-34.5 -14q-6 0 -11.5 5.5t-5.5 14.5q0 6 18.5 21t45 36t53 48.5t45 67t18.5 81.5q0 20 -25 25.5t-62.5 8t-55.5 13.5q-40 26 -57 50t-17 75q0 52 37.5 82.5t91.5 30.5q64 0 118 -59t54 -154zM1827 768
q0 -228 -106.5 -411.5t-294.5 -286.5t-422 -103q-175 0 -328 60.5t-262 166t-171.5 254.5t-62.5 320t62.5 320t171.5 254.5t262 166t328 60.5q176 0 329 -60.5t261.5 -166t170.5 -254.5t62 -320zM1688 768q0 132 -49.5 252t-137 211t-217.5 145t-280 54t-280 -54
t-217.5 -145t-137.5 -211t-50 -252t50 -252t137.5 -211t217.5 -145t280 -54t280 54t217.5 145t137 211t49.5 252z" />
    <glyph glyph-name="ampersand.alt" unicode="&#xe003;" horiz-adv-x="1366" 
d="M1229 768l-156 8q4 -7 20 -35.5t22 -39.5t20 -39t20 -44t15.5 -43.5t14 -49t8 -49.5t3.5 -56q0 -205 -135.5 -329t-388.5 -124q-160 0 -286.5 56.5t-200.5 165.5t-74 253q0 97 29.5 173.5t81 124.5t108.5 77t125 45v4q-213 91 -213 269q0 69 28 127t74.5 97t106.5 67
t122.5 40.5t124.5 12.5q81 0 154 -18.5t105 -34t73 -40.5l-86 -114q-28 22 -48 34.5t-71.5 28t-113.5 15.5q-86 0 -155 -21t-115 -70.5t-46 -121.5q0 -69 45 -118t120.5 -74t154 -35.5t166.5 -10.5h348v-131zM1053 422q0 40 -8 81t-18.5 71.5t-28 66.5t-28.5 55t-29 47
t-21 33h-228q-39 0 -63.5 -1t-75 -7.5t-85.5 -18t-78.5 -36.5t-70.5 -60t-46 -90t-19 -125q0 -163 118.5 -255.5t307.5 -92.5q172 0 272.5 86t100.5 246z" />
    <glyph glyph-name="c.superior" unicode="&#xe004;" horiz-adv-x="1138" 
d="M1063 752q-105 -67 -169 -94q-146 -62 -314 -62q-124 0 -226.5 37.5t-169 102.5t-103 151.5t-36.5 185.5q0 91 38 174.5t106 147.5t170 102.5t221 38.5q148 0 270 -47.5t205 -106.5l-60 -88q-2 1 -27.5 15t-43 23t-50.5 24.5t-64 26t-69 21t-79 16t-82 5.5
q-101 0 -183.5 -29t-134 -78.5t-79 -112.5t-27.5 -132q0 -88 37.5 -159.5t99.5 -115.5t136 -67.5t151 -23.5q178 0 424 135z" />
    <glyph glyph-name="capostraphe" unicode="&#xe005;" horiz-adv-x="2086" 
d="M1782 887l-78 -117q-46 37 -81.5 61t-97 56.5t-137.5 49.5t-161 17q-115 0 -210 -35.5t-156.5 -95.5t-94.5 -136.5t-33 -160.5t33 -158.5t96 -133.5t164 -93.5t227 -34.5q44 0 83.5 2.5t74.5 9.5t62 12.5t57 18t47 19t43.5 22.5t35.5 22t35 23.5t31 20.5l56 -127
q-214 -162 -523 -162q-155 0 -281.5 44t-208.5 121t-126.5 179.5t-44.5 220.5q0 108 38 201.5t101 158.5t145 111.5t169 68.5t174 22q320 0 561 -207zM451 1356q0 -63 -23.5 -121.5t-57 -98t-70 -69t-63 -43.5t-34.5 -14q-6 0 -11.5 5.5t-5.5 14.5q0 7 28.5 29.5t62 49.5
t62 75t28.5 100q0 20 -25.5 25.5t-63 8t-55.5 13.5q-40 25 -56.5 49.5t-16.5 75.5q0 52 37.5 82.5t91.5 30.5q64 0 118 -59t54 -154z" />
    <glyph glyph-name="nd" unicode="&#xe006;" horiz-adv-x="2578" 
d="M2390 895q0 -205 -135.5 -328t-388.5 -123h-455v891h455q233 0 378.5 -125t145.5 -315zM1075 444h-110l-666 719v-719h-113v891h111l666 -735v735h112v-891zM2277 887q0 87 -32 152.5t-89.5 105t-130 59t-159.5 19.5h-342v-666h342q189 0 300 84.5t111 245.5z" />
    <glyph glyph-name="orn.001" unicode="&#xe007;" horiz-adv-x="2654" 
d="M2527 516q0 -67 -20.5 -137t-66 -138.5t-110 -121.5t-160 -86t-208.5 -33q-78 0 -154.5 20t-138.5 50t-132 79.5t-120 93t-117 105.5q-166 152 -219 195q-189 153 -352 177q-35 5 -70 5q-183 0 -309.5 -117t-126.5 -276q0 -135 65 -205t156 -70q69 0 107 80
q-44 9 -82.5 43.5t-38.5 104.5q0 44 34 77t73 33q71 0 107 -46t36 -118q0 -83 -70 -157t-161 -74q-87 0 -152.5 34.5t-100.5 90.5t-52 117t-17 125q0 67 20.5 137t66 139t110 123t160 87.5t208.5 33.5q80 0 166.5 -26.5t158.5 -65t155.5 -100.5t141.5 -112.5t134 -121.5
q73 -69 129 -115t127 -91.5t143.5 -68t147.5 -22.5q184 0 310 115.5t126 269.5q0 135 -65 205.5t-156 70.5q-69 0 -105 -82q18 -4 35.5 -12t38 -24t33 -44t12.5 -65q0 -44 -34 -78.5t-72 -34.5q-70 0 -107 46t-37 118q0 85 71 159.5t163 74.5q70 0 126 -23.5t91 -60.5
t59 -86.5t33.5 -98t9.5 -98.5z" />
    <glyph glyph-name="orn.002" unicode="&#xe008;" horiz-adv-x="2654" 
d="M2527 367q0 -50 -9.5 -99t-33.5 -98.5t-59.5 -86.5t-92 -60t-126.5 -23q-91 0 -161.5 74t-70.5 157q0 72 36.5 118t107.5 46q38 0 72 -33t34 -77q0 -70 -38.5 -104.5t-82.5 -43.5q38 -80 107 -80q91 0 156 70t65 205q0 159 -126.5 276t-309.5 117q-67 0 -135 -20.5
t-121 -47.5t-121 -79.5t-110 -89.5t-115 -104l-39 -36q-67 -62 -117 -105.5t-120 -93t-132 -79.5t-138.5 -50t-154.5 -20q-113 0 -208.5 33t-160 86t-110 121.5t-66 138.5t-20.5 137q0 50 9.5 98.5t33.5 98t59 86.5t91 60.5t126 23.5q92 0 163 -74.5t71 -159.5
q0 -72 -36.5 -118t-106.5 -46q-38 0 -72.5 34.5t-34.5 78.5q0 68 38 102t81 43q-36 82 -105 82q-91 0 -156 -70.5t-65 -205.5q0 -154 126 -269.5t310 -115.5q75 0 147.5 22.5t143.5 68t127 91.5t129 115q76 71 134 121.5t141.5 112.5t155.5 100.5t158.5 65t166.5 26.5
q113 0 208.5 -33.5t160 -87.5t110 -123t66 -139t20.5 -137z" />
    <glyph glyph-name="r.period" unicode="&#xe009;" horiz-adv-x="1517" 
d="M1536 758q0 -56 -38 -93.5t-93 -37.5t-93 37.5t-38 93.5q0 54 38 92.5t93 38.5q54 0 92.5 -38.5t38.5 -92.5zM1110 643h-133l-262 358h-443v-358h-112v893h590q68 0 125 -15t103.5 -46.5t72.5 -85.5t26 -125q0 -50 -15.5 -91.5t-38 -67t-56 -46t-60 -30.5t-59.5 -19z
M965 1266q0 40 -13 69t-32.5 45.5t-49.5 26.5t-57.5 13t-62.5 3h-478v-309h478q215 0 215 152z" />
    <glyph glyph-name="rd" unicode="&#xe00a;" horiz-adv-x="2578" 
d="M2388 895q0 -205 -135.5 -328t-388.5 -123h-455v891h455q233 0 378.5 -125t145.5 -315zM1137 444h-131l-263 359h-442v-359h-113v891h590q68 0 125 -15t103.5 -46t73 -85t26.5 -126q0 -194 -232 -252zM2275 887q0 87 -32 152.5t-89.5 105t-130 59t-159.5 19.5h-342v-666
h342q189 0 300 84.5t111 245.5zM995 1067q0 156 -217 156h-477v-308h477q217 0 217 152z" />
    <glyph glyph-name="rs.period" unicode="&#xe00b;" horiz-adv-x="2693" 
d="M2716 758q0 -56 -38 -93.5t-93 -37.5t-93 37.5t-38 93.5q0 54 38 92.5t93 38.5q54 0 92.5 -38.5t38.5 -92.5zM2279 913q0 -127 -132 -208.5t-347 -81.5q-139 0 -272.5 37t-231.5 112l56 96q180 -133 469 -133q149 0 247.5 48.5t98.5 131.5q0 47 -35.5 81t-82 48.5
t-97.5 16.5l-236 10q-63 3 -110 9t-95.5 21.5t-79 40t-50 65.5t-19.5 96q0 104 127 178.5t334 74.5q53 0 101.5 -5t87 -14t68 -18t57 -23t41.5 -21.5t33 -20.5t21 -14l-57 -92q-157 96 -346 96q-167 0 -260.5 -44t-93.5 -104q0 -99 270 -112l207 -10q134 -7 230.5 -75
t96.5 -186zM1110 643h-133l-262 358h-443v-358h-112v893h590q68 0 125 -15t103.5 -46.5t72.5 -85.5t26 -125q0 -50 -15.5 -91.5t-38 -67t-56 -46t-60 -30.5t-59.5 -19zM965 1266q0 40 -13 69t-32.5 45.5t-49.5 26.5t-57.5 13t-62.5 3h-478v-309h478q215 0 215 152z" />
    <glyph glyph-name="s.period" unicode="&#xe00c;" 
d="M1636 758q0 -56 -38 -93.5t-93 -37.5t-93 37.5t-38 93.5q0 54 38 92.5t93 38.5q54 0 92.5 -38.5t38.5 -92.5zM1112 913q0 -127 -132 -208.5t-347 -81.5q-139 0 -272.5 37t-231.5 112l55 96q180 -133 469 -133q149 0 247.5 48.5t98.5 131.5q0 47 -35.5 81t-82 48.5
t-97.5 16.5l-235 10q-63 3 -110 9t-95.5 21.5t-79 40t-50 65.5t-19.5 96q0 112 126 189t334 77q53 0 101.5 -5t87 -14.5t68.5 -18.5t57 -23t41.5 -21.5t33.5 -20.5t21 -14l-57 -92q-157 96 -346 96q-169 0 -262 -46t-93 -114q0 -99 271 -112l206 -10q135 -7 231.5 -75
t96.5 -186z" />
    <glyph glyph-name="sapostraphe" unicode="&#xe00d;" horiz-adv-x="2009" 
d="M1726 305q0 -70 -27 -128.5t-84.5 -107t-160.5 -75.5t-244 -27q-100 0 -194 15.5t-154 33.5t-127 51t-89.5 47t-65.5 42l67 127q37 -26 60.5 -42t79.5 -45t109 -45.5t134.5 -30.5t169.5 -14q194 0 290.5 52.5t96.5 142.5q0 48 -21 83.5t-57.5 56t-78.5 30t-89 10.5
l-317 6q-42 1 -87 9.5t-96 29.5t-90.5 53t-65.5 84t-26 117q0 138 123.5 226t335.5 88q328 0 547 -148l-63 -125q-228 133 -455 133q-183 0 -265.5 -48.5t-82.5 -123.5q0 -81 60.5 -117t156.5 -38l295 -6q79 -2 151 -21t132 -56t96 -98.5t36 -140.5zM449 1356
q0 -63 -23.5 -121.5t-57 -98t-70 -69t-63 -43.5t-34.5 -14q-6 0 -11.5 5.5t-5.5 14.5q0 7 28.5 29.5t62 49.5t62 75t28.5 100q0 20 -25.5 25.5t-63 8t-55.5 13.5q-40 26 -57 50t-17 75q0 52 37.5 82.5t91.5 30.5q64 0 118.5 -59t54.5 -154z" />
    <glyph glyph-name="th" unicode="&#xe00e;" horiz-adv-x="2252" 
d="M1985 444h-113v390h-670v-390h-112v891h112v-389h670v389h113v-891zM872 1223h-378v-779h-113v779h-379v112h870v-112z" />
    <glyph glyph-name="s_t" unicode="&#xfb06;" horiz-adv-x="2252" 
d="M1894 1223h-378v-779h-113v779h-379v112h870v-112zM870 707q0 -122 -132.5 -202.5t-346.5 -80.5q-153 0 -266.5 36.5t-237.5 112.5l56 97q188 -133 469 -133q148 0 247 47.5t99 122.5q0 135 -215 145l-236 10q-56 2 -100.5 7.5t-93.5 20.5t-82 39t-54.5 64t-21.5 94
q0 113 126 191t333 78q53 0 101.5 -5t87 -14.5t68 -18.5t56.5 -23t41.5 -22t33 -20t21.5 -14l-57 -92q-96 50 -169 73t-177 23q-167 0 -259.5 -45.5t-92.5 -110.5q0 -31 19 -52.5t58 -33t82.5 -17.5t108.5 -9l207 -10q87 -4 159.5 -32.5t120 -87.5t47.5 -138z" />
  </font>
</defs>
</svg>
