<svg xmlns="http://www.w3.org/2000/svg" viewBox="0 0 120.2 36.9"><defs><style>.cls-1{fill:#fff;}</style></defs><g id="Layer_2" data-name="Layer 2"><g id="Layer_1-2" data-name="Layer 1"><path class="cls-1" d="M32.2,27v1.8a4.3,4.3,0,0,0-2.8-1.1,3.86,3.86,0,0,0-2.7,1.1,3.93,3.93,0,0,0-1.1,2.8,3.76,3.76,0,0,0,3.8,3.8,3.19,3.19,0,0,0,1.4-.3,2.51,2.51,0,0,0,.7-.4,4.23,4.23,0,0,0,.7-.5v1.9a6.94,6.94,0,0,1-2.8.8,5.25,5.25,0,0,1-5.3-5.2v-.1a5.6,5.6,0,0,1,1.3-3.5,5.33,5.33,0,0,1,4.1-1.9A5.6,5.6,0,0,1,32.2,27Z"/><path class="cls-1" d="M43.7,34.2H39.3l-1.2,2.5H36.4l5.1-10.9,4.9,10.9H44.7ZM43,32.8l-1.5-3.5-1.6,3.5Z"/><path class="cls-1" d="M52.5,32.5v4.2H51V26.4h1.8a6.8,6.8,0,0,1,2,.2,3.75,3.75,0,0,1,1.2.7,3.1,3.1,0,0,1,.9,2.2,2.79,2.79,0,0,1-.9,2.2,3.29,3.29,0,0,1-2.5.8Zm0-1.4h.6c1.4,0,2.1-.5,2.1-1.6s-.7-1.6-2.2-1.6h-.5Z"/><path class="cls-1" d="M63.2,26.4V36.7H61.7V26.4Z"/><path class="cls-1" d="M71.8,27.9v8.8H70.2V27.9H67.8V26.4h6.3v1.5Z"/><path class="cls-1" d="M84.2,34.2H79.8l-1.2,2.5H77l5.1-10.9L87,36.7H85.3Zm-.6-1.4-1.5-3.5-1.6,3.5Z"/><path class="cls-1" d="M93.1,26.4v8.8h3v1.5H91.5V26.4Z"/><path class="cls-1" d="M0,21.1,4.1,0l6.7,15.2L17.8,0l3.7,21.1h-3L16.6,9.2,10.8,22,5.2,9.2,3.1,21.1Z"/><path class="cls-1" d="M36.5,4.3H28.6V9h7.6v2.8H28.6v6.6h7.9v2.8H25.7V1.5H36.5Z"/><path class="cls-1" d="M43.4,9.3,51,1.5h4l-8.9,8.9L55,21.1H51l-7-8.7-.6.6v8.1h-3V1.5h3Z"/><path class="cls-1" d="M79.8,21.1V.1l14.3,15V1.5h3V22.3L82.8,7.4V21.1Z"/><path class="cls-1" d="M112.1,10.9h8.1v.6a17.37,17.37,0,0,1-.5,3.9,8.92,8.92,0,0,1-8.7,6.1,9.76,9.76,0,0,1-7-3,10.22,10.22,0,0,1-3-7.2,9.82,9.82,0,0,1,3-7.2,9.88,9.88,0,0,1,7.3-3,10.36,10.36,0,0,1,4.3.9,15.73,15.73,0,0,1,3.8,3l-2.1,2a7,7,0,0,0-5.9-3.2,6.65,6.65,0,0,0-5.2,2.1,7,7,0,0,0-2.1,5.3,6.9,6.9,0,0,0,2.3,5.4,6.73,6.73,0,0,0,4.8,2,5.78,5.78,0,0,0,3.9-1.5,5.68,5.68,0,0,0,2-3.6h-4.9Z"/><path class="cls-1" d="M70.6,9.4s-1.4.8.7,1.4,5.4,2.3,3.2,4.4c-2,1.8-7.8,3.1-10.6,6.8a10.07,10.07,0,0,0,2.5.3A10.76,10.76,0,0,0,77.2,11.5a8.63,8.63,0,0,0-.4-2.8A16.25,16.25,0,0,0,70.6,9.4Z"/><path class="cls-1" d="M65,14.8c5.2-.3,6.6-1.6,4.4-2.7-1-.4-2-1-3-1.5S64.8,8.1,76.3,7a10.83,10.83,0,0,0-19.8,8.8,8.26,8.26,0,0,0,.7,1.3A19.09,19.09,0,0,1,65,14.8Z"/></g></g></svg>