<svg width="121" height="38" viewBox="0 0 121 38" fill="none" xmlns="http://www.w3.org/2000/svg">
<g clip-path="url(#clip0)">
<path d="M32.1996 27.4481V29.2278C31.4292 28.5437 30.4349 28.1576 29.3996 28.1402C28.3904 28.1398 27.4212 28.5302 26.6996 29.2278C26.3414 29.5952 26.0598 30.0288 25.8711 30.5038C25.6823 30.9789 25.5901 31.486 25.5996 31.9963C25.5943 32.4911 25.6889 32.9821 25.878 33.4403C26.067 33.8985 26.3467 34.3148 26.7007 34.6648C27.0546 35.0147 27.4756 35.2913 27.9391 35.4782C28.4026 35.6652 28.8991 35.7587 29.3996 35.7535C29.883 35.7607 30.3617 35.6593 30.7996 35.4568C31.053 35.3632 31.2894 35.2296 31.4996 35.0613C31.7493 34.9205 31.9839 34.7549 32.1996 34.567V36.4456C31.3334 36.9021 30.379 37.1716 29.3996 37.2366C28.7102 37.2431 28.0262 37.1153 27.3867 36.8604C26.7472 36.6056 26.1647 36.2286 25.6726 35.7512C25.1804 35.2738 24.7882 34.7052 24.5183 34.0779C24.2484 33.4505 24.1061 32.7768 24.0996 32.0951V31.9963C24.1198 30.7297 24.5787 29.5082 25.3996 28.5357C25.9021 27.9447 26.5298 27.4701 27.2383 27.1455C27.9468 26.8209 28.7188 26.6541 29.4996 26.6571C30.4531 26.689 31.3824 26.9613 32.1996 27.4481Z" fill="black"/>
<path d="M43.7004 34.567H39.3004L38.1004 37.0388H36.4004L41.5004 26.2616L46.4004 37.0388H44.7004L43.7004 34.567ZM43.0004 33.1828L41.5004 29.7222L39.9004 33.1828H43.0004Z" fill="black"/>
<path d="M52.5 32.8861V37.0388H51V26.8548H52.8C53.4729 26.8224 54.1469 26.8891 54.8 27.0526C55.2401 27.2074 55.6471 27.4421 56 27.7447C56.2874 28.0309 56.5148 28.3704 56.6692 28.7436C56.8237 29.1169 56.9021 29.5166 56.9 29.9199C56.9212 30.3256 56.8516 30.731 56.696 31.107C56.5404 31.483 56.3028 31.8205 56 32.0951C55.6605 32.3896 55.2633 32.6117 54.8332 32.7478C54.4031 32.8839 53.9493 32.931 53.5 32.8861H52.5ZM52.5 31.5019H53.1C54.5 31.5019 55.2 31.0075 55.2 29.9199C55.2 28.8323 54.5 28.3379 53 28.3379H52.5V31.5019Z" fill="black"/>
<path d="M63.2002 26.8549V37.0388H61.7002V26.8549H63.2002Z" fill="black"/>
<path d="M71.7998 28.338V37.0388H70.1998V28.338H67.7998V26.8549H74.0998V28.338H71.7998Z" fill="black"/>
<path d="M84.2 34.567H79.8L78.6 37.0388H77L82.1 26.2616L87 37.0388H85.3L84.2 34.567ZM83.6 33.1828L82.1 29.7222L80.5 33.1828H83.6Z" fill="black"/>
<path d="M93.1 26.8549V35.5557H96.1V37.0388H91.5V26.8549H93.1Z" fill="black"/>
<path d="M0 21.6145L4.1 0.752197L10.8 15.781L17.8 0.752197L21.5 21.6145H18.5L16.6 9.84857L10.8 22.5044L5.2 9.84857L3.1 21.6145H0Z" fill="black"/>
<path d="M36.5002 5.00375H28.6002V9.65081H36.2002V12.4193H28.6002V18.9449H36.5002V21.7134H25.7002V2.23529H36.5002V5.00375Z" fill="black"/>
<path d="M43.4004 9.94743L51.0004 2.23529H55.0004L46.1004 11.035L55.0004 21.6145H51.0004L44.0004 13.0125L43.4004 13.6058V21.6145H40.4004V2.23529H43.4004V9.94743Z" fill="black"/>
<path d="M79.7998 21.6154V0.85199L94.0998 15.683V2.23622H97.0998V22.8019L82.7998 8.06976V21.6154H79.7998Z" fill="black"/>
<path d="M112.1 11.5294H120.2V12.1226C120.181 13.4226 120.014 14.7162 119.7 15.9787C119.096 17.7736 117.924 19.3289 116.357 20.4149C114.791 21.5009 112.913 22.0602 111 22.01C109.692 22.0047 108.398 21.7394 107.195 21.2298C105.993 20.7203 104.906 19.9769 104 19.0438C102.087 17.1563 101.009 14.5967 101 11.9249C100.982 10.5986 101.238 9.28269 101.754 8.05831C102.27 6.83394 103.035 5.72707 104 4.806C104.945 3.84211 106.081 3.08124 107.337 2.57088C108.593 2.06053 109.942 1.81165 111.3 1.83979C112.781 1.82907 114.247 2.13251 115.6 2.72965C117.014 3.51858 118.296 4.51916 119.4 5.69586L117.3 7.67334C116.663 6.6995 115.789 5.89942 114.758 5.34659C113.728 4.79375 112.573 4.50587 111.4 4.50938C110.433 4.46012 109.466 4.62042 108.568 4.97907C107.67 5.33772 106.861 5.88605 106.2 6.58573C105.498 7.26465 104.948 8.08209 104.586 8.98493C104.224 9.88776 104.059 10.8558 104.1 11.826C104.063 12.8284 104.25 13.8266 104.647 14.7495C105.045 15.6723 105.643 16.4972 106.4 17.1652C107.027 17.7931 107.775 18.2913 108.599 18.6308C109.423 18.9703 110.307 19.1443 111.2 19.1427C112.641 19.1465 114.032 18.6175 115.1 17.6596C116.193 16.7622 116.907 15.4922 117.1 14.1001H112.2L112.1 11.5294Z" fill="black"/>
<path d="M70.6004 10.0463C70.6004 10.0463 69.2004 10.8373 71.3004 11.4305C73.4004 12.0238 76.7004 13.7046 74.5004 15.781C72.5004 17.5607 66.7004 18.846 63.9004 22.5044C64.7179 22.7063 65.5578 22.8059 66.4004 22.801C67.8201 22.8062 69.2269 22.5336 70.5396 21.9988C71.8523 21.464 73.045 20.6777 74.0489 19.685C75.0529 18.6924 75.8482 17.5132 76.3891 16.2152C76.9299 14.9173 77.2057 13.5264 77.2004 12.1226C77.2219 11.1843 77.0868 10.249 76.8004 9.35418C74.7079 9.18674 72.6024 9.42178 70.6004 10.0463Z" fill="black"/>
<path d="M65.0002 15.3855C70.2002 15.0889 71.6002 13.8035 69.4002 12.7159C68.4002 12.3204 67.4002 11.7272 66.4002 11.2328C65.4002 10.7384 64.8002 8.76096 76.3002 7.67335C75.7223 6.38791 74.8941 5.22758 73.8628 4.25861C72.8314 3.28965 71.6171 2.53103 70.2892 2.02606C67.6075 1.00622 64.6258 1.08149 62.0002 2.2353C59.3745 3.38911 57.32 5.52694 56.2885 8.17851C55.2571 10.8301 55.3332 13.7782 56.5002 16.3742C56.6942 16.8225 56.9285 17.2527 57.2002 17.6596C59.6048 16.3565 62.2651 15.5808 65.0002 15.3855Z" fill="black"/>
</g>
<defs>
<clipPath id="clip0">
<rect width="120.2" height="36.4844" fill="white" transform="translate(0 0.752197)"/>
</clipPath>
</defs>
</svg>
